%TF.GenerationSoftware,KiCad,Pcbnew,10.0.0*%
%TF.CreationDate,2026-08-16T20:53:43-04:00*%
%TF.ProjectId,ConJoy_KiCad,436f6e4a-6f79-45f4-9b69-4361642e6b69,1.00-0A*%
%TF.SameCoordinates,Original*%
%TF.FileFunction,Soldermask,Bot*%
%TF.FilePolarity,Negative*%
%FSLAX46Y46*%
G04 Gerber Fmt 4.6, Leading zero omitted, Abs format (unit mm)*
G04 Created by KiCad (PCBNEW 10.0.0) date 2026-08-16 20:53:43*
%MOMM*%
%LPD*%
G01*
G04 APERTURE LIST*
G04 Aperture macros list*
%AMRoundRect*
0 Rectangle with rounded corners*
0 $1 Rounding radius*
0 $2 $3 $4 $5 $6 $7 $8 $9 X,Y pos of 4 corners*
0 Add a 4 corners polygon primitive as box body*
4,1,4,$2,$3,$4,$5,$6,$7,$8,$9,$2,$3,0*
0 Add four circle primitives for the rounded corners*
1,1,$1+$1,$2,$3*
1,1,$1+$1,$4,$5*
1,1,$1+$1,$6,$7*
1,1,$1+$1,$8,$9*
0 Add four rect primitives between the rounded corners*
20,1,$1+$1,$2,$3,$4,$5,0*
20,1,$1+$1,$4,$5,$6,$7,0*
20,1,$1+$1,$6,$7,$8,$9,0*
20,1,$1+$1,$8,$9,$2,$3,0*%
G04 Aperture macros list end*
%ADD10C,0.000000*%
%ADD11C,0.100000*%
%ADD12RoundRect,0.060000X-0.140000X-0.690000X0.140000X-0.690000X0.140000X0.690000X-0.140000X0.690000X0*%
%ADD13C,0.750000*%
%ADD14RoundRect,0.150000X-0.375000X0.350000X-0.375000X-0.350000X0.375000X-0.350000X0.375000X0.350000X0*%
%ADD15C,2.600000*%
%ADD16C,2.000000*%
%ADD17RoundRect,0.180000X-0.420000X1.520000X-0.420000X-1.520000X0.420000X-1.520000X0.420000X1.520000X0*%
%ADD18RoundRect,0.105000X0.295000X-0.245000X0.295000X0.245000X-0.295000X0.245000X-0.295000X-0.245000X0*%
%ADD19RoundRect,0.060000X-0.590000X0.140000X-0.590000X-0.140000X0.590000X-0.140000X0.590000X0.140000X0*%
%ADD20RoundRect,0.142500X0.657500X-0.332500X0.657500X0.332500X-0.657500X0.332500X-0.657500X-0.332500X0*%
%ADD21RoundRect,0.150000X-0.350000X-0.750000X0.350000X-0.750000X0.350000X0.750000X-0.350000X0.750000X0*%
%ADD22RoundRect,0.150000X0.350000X0.750000X-0.350000X0.750000X-0.350000X-0.750000X0.350000X-0.750000X0*%
G04 APERTURE END LIST*
D10*
%TO.C,J3*%
G36*
X123950664Y-127049957D02*
G01*
X123796583Y-127050000D01*
X121900000Y-127050000D01*
X121900001Y-126550000D01*
X121200000Y-126550000D01*
X121200000Y-125350000D01*
X122600000Y-125350000D01*
X122600000Y-124650000D01*
X123949991Y-124650000D01*
X123950664Y-127049957D01*
G37*
G36*
X128100000Y-125350000D02*
G01*
X129500000Y-125350000D01*
X129500000Y-126550000D01*
X128799995Y-126550000D01*
X128799858Y-127044751D01*
X126903122Y-127044230D01*
X126749712Y-127044212D01*
X126750000Y-124650001D01*
X128100000Y-124650000D01*
X128100000Y-125350000D01*
G37*
%TO.C,J4*%
D11*
X156825000Y-112925000D02*
X158175000Y-112925000D01*
X158175000Y-114975000D01*
X156825000Y-114975000D01*
X156825000Y-112925000D01*
G36*
X156825000Y-112925000D02*
G01*
X158175000Y-112925000D01*
X158175000Y-114975000D01*
X156825000Y-114975000D01*
X156825000Y-112925000D01*
G37*
X156825000Y-128025000D02*
X158175000Y-128025000D01*
X158175000Y-130075000D01*
X156825000Y-130075000D01*
X156825000Y-128025000D01*
G36*
X156825000Y-128025000D02*
G01*
X158175000Y-128025000D01*
X158175000Y-130075000D01*
X156825000Y-130075000D01*
X156825000Y-128025000D01*
G37*
%TO.C,J2*%
X151350000Y-133100000D02*
X153650000Y-133100000D01*
X153650000Y-136300000D01*
X151350000Y-136300000D01*
X151350000Y-133100000D01*
G36*
X151350000Y-133100000D02*
G01*
X153650000Y-133100000D01*
X153650000Y-136300000D01*
X151350000Y-136300000D01*
X151350000Y-133100000D01*
G37*
X157350000Y-133100000D02*
X159650000Y-133100000D01*
X159650000Y-136300000D01*
X157350000Y-136300000D01*
X157350000Y-133100000D01*
G36*
X157350000Y-133100000D02*
G01*
X159650000Y-133100000D01*
X159650000Y-136300000D01*
X157350000Y-136300000D01*
X157350000Y-133100000D01*
G37*
%TO.C,J1*%
X151350000Y-106699999D02*
X153650000Y-106699999D01*
X153650000Y-109899999D01*
X151350000Y-109899999D01*
X151350000Y-106699999D01*
G36*
X151350000Y-106699999D02*
G01*
X153650000Y-106699999D01*
X153650000Y-109899999D01*
X151350000Y-109899999D01*
X151350000Y-106699999D01*
G37*
X157350000Y-106699999D02*
X159650000Y-106699999D01*
X159650000Y-109899999D01*
X157350000Y-109899999D01*
X157350000Y-106699999D01*
G36*
X157350000Y-106699999D02*
G01*
X159650000Y-106699999D01*
X159650000Y-109899999D01*
X157350000Y-109899999D01*
X157350000Y-106699999D01*
G37*
%TD*%
D12*
%TO.C,J3*%
X124350000Y-127000000D03*
X124850001Y-127000000D03*
X125350000Y-127000000D03*
X125849999Y-127000000D03*
X126350000Y-127000000D03*
%TD*%
D13*
%TO.C,S9*%
X126272272Y-144727728D03*
X124327728Y-146672272D03*
%TD*%
%TO.C,S6*%
X126272272Y-98272272D03*
X124327728Y-96327728D03*
%TD*%
%TO.C,S11*%
X148300000Y-147325000D03*
X148300000Y-150075000D03*
%TD*%
%TO.C,S8*%
X148300000Y-95675000D03*
X148300000Y-92925000D03*
%TD*%
D14*
%TO.C,D1*%
X149200000Y-126525000D03*
X149200000Y-130175000D03*
%TD*%
D15*
%TO.C,HOLE4*%
X137300000Y-120700000D03*
%TD*%
D16*
%TO.C,FID6*%
X143450000Y-143250000D03*
%TD*%
D17*
%TO.C,S7*%
X122200000Y-104300000D03*
X122200000Y-110900000D03*
X126200000Y-104300000D03*
X126200000Y-110900000D03*
%TD*%
D16*
%TO.C,FID2*%
X148275000Y-105350000D03*
%TD*%
D15*
%TO.C,HOLE3*%
X149850000Y-112500000D03*
%TD*%
D18*
%TO.C,C2*%
X153080858Y-127739919D03*
X153080858Y-126739921D03*
%TD*%
D16*
%TO.C,FID4*%
X129000000Y-144100000D03*
%TD*%
D17*
%TO.C,S10*%
X122200000Y-132100000D03*
X122200000Y-138700000D03*
X126200000Y-132100000D03*
X126200000Y-138700000D03*
%TD*%
D15*
%TO.C,HOLE2*%
X131500000Y-147500000D03*
%TD*%
D19*
%TO.C,J4*%
X154800000Y-116250000D03*
X154800000Y-116750000D03*
X154800000Y-117250000D03*
X154800000Y-117750000D03*
X154800000Y-118250000D03*
X154800000Y-118750000D03*
X154800000Y-119250000D03*
X154800000Y-119750000D03*
X154800000Y-120250000D03*
X154800000Y-120750000D03*
X154800000Y-121250000D03*
X154800000Y-121750000D03*
X154800000Y-122250000D03*
X154800000Y-122750000D03*
X154800000Y-123250000D03*
X154800000Y-123750000D03*
X154800000Y-124250000D03*
X154800000Y-124750000D03*
X154800000Y-125250000D03*
X154800000Y-125750000D03*
X154800000Y-126250000D03*
X154800000Y-126750000D03*
%TD*%
D15*
%TO.C,HOLE6*%
X138500000Y-136500000D03*
%TD*%
%TO.C,HOLE5*%
X148000000Y-144375000D03*
%TD*%
D20*
%TO.C,C1*%
X151245000Y-128275000D03*
X151245000Y-126525000D03*
%TD*%
D21*
%TO.C,J2*%
X156125000Y-131700000D03*
X154875000Y-131700000D03*
%TD*%
D15*
%TO.C,HOLE1*%
X132500000Y-95250000D03*
%TD*%
D22*
%TO.C,J1*%
X154875000Y-111299999D03*
X156125000Y-111299999D03*
%TD*%
M02*
