M48
; DRILL file KiCad 10.0.0 date 2026-08-04T21:37:26
; FORMAT={-:-/ absolute / metric / decimal}
; #@! TF.CreationDate,2026-08-04T21:37:26-04:00
; #@! TF.GenerationSoftware,Kicad,Pcbnew,10.0.0
; #@! TF.FileFunction,MixedPlating,1,2
FMAT,2
METRIC
; #@! TA.AperFunction,Plated,PTH,ViaDrill
T1C0.300
; #@! TA.AperFunction,NonPlated,NPTH,ComponentDrill
T2C0.750
; #@! TA.AperFunction,NonPlated,NPTH,ComponentDrill
T3C2.600
%
G90
G05
T1
X120.6Y-106.1
X120.6Y-108.2
X120.6Y-110.3
X120.6Y-112.4
X120.6Y-114.5
X120.6Y-116.6
X120.6Y-120.8
X120.6Y-122.9
X120.6Y-125.0
X120.6Y-136.4
X120.7Y-103.5
X120.7Y-118.683
X120.7Y-138.5
X120.9Y-140.5
X121.3Y-101.2
X121.4Y-142.3
X121.7Y-129.3
X122.2Y-102.1
X122.2Y-113.1
X122.2Y-134.5
X122.2Y-140.9
X123.875Y-134.375
X123.875Y-135.05
X124.65Y-134.375
X124.65Y-135.05
X124.9Y-142.1
X124.95Y-130.05
X125.0Y-100.9
X127.7Y-93.8
X127.7Y-149.2
X127.9Y-122.0
X128.325Y-130.775
X128.9Y-96.9
X128.9Y-146.1
X129.9Y-93.0
X129.9Y-150.0
X130.3Y-128.5
X130.912Y-124.962
X132.375Y-125.025
X132.5Y-92.7
X132.5Y-150.2
X133.2Y-133.2
X133.2Y-139.8
X133.475Y-131.45
X133.625Y-129.8
X133.95Y-125.2
X135.4Y-92.6
X135.4Y-150.4
X139.525Y-145.05
X141.2Y-125.2
X141.2Y-131.8
X141.2Y-141.2
X141.525Y-122.1
X142.0Y-119.5
X145.5Y-96.575
X149.2Y-131.4
X149.2Y-133.2
X149.2Y-139.8
X150.8Y-117.8
X151.25Y-129.5
X151.4Y-97.2
X151.4Y-99.3
X151.4Y-101.4
X151.4Y-103.5
X151.4Y-105.6
X151.4Y-137.6
X151.4Y-139.7
X151.4Y-141.8
X151.4Y-143.9
X151.4Y-146.0
X151.95Y-114.075
X153.075Y-118.475
X153.075Y-128.955
X153.25Y-131.25
X153.425Y-114.05
X156.25Y-116.25
X156.25Y-118.25
X156.25Y-120.25
X156.25Y-122.25
X156.25Y-124.25
X157.5Y-111.75
X159.4Y-111.0
X159.4Y-113.1
X159.4Y-115.2
X159.4Y-117.3
X159.4Y-119.4
X159.4Y-121.5
X159.4Y-123.6
X159.4Y-125.7
X159.4Y-127.8
X159.4Y-129.9
X159.4Y-132.0
T2
X124.328Y-96.328
X124.328Y-146.672
X126.272Y-98.272
X126.272Y-144.728
X148.3Y-92.925
X148.3Y-95.675
X148.3Y-147.325
X148.3Y-150.075
T3
X131.5Y-95.5
X131.5Y-147.5
X136.125Y-120.6
X137.5Y-136.5
X148.0Y-144.375
X149.175Y-112.75
M30
