M48
; DRILL file KiCad 10.0.0 date 2026-08-15T09:35:42
; FORMAT={-:-/ absolute / metric / decimal}
; #@! TF.CreationDate,2026-08-15T09:35:42-04:00
; #@! TF.GenerationSoftware,Kicad,Pcbnew,10.0.0
; #@! TF.FileFunction,MixedPlating,1,2
FMAT,2
METRIC
; #@! TA.AperFunction,Plated,PTH,ViaDrill
T1C0.300
; #@! TA.AperFunction,NonPlated,NPTH,ComponentDrill
T2C0.750
; #@! TA.AperFunction,NonPlated,NPTH,ComponentDrill
T3C2.600
%
G90
G05
T1
X120.6Y-106.1
X120.6Y-108.2
X120.6Y-110.3
X120.6Y-112.4
X120.6Y-114.5
X120.6Y-116.6
X120.6Y-118.65
X120.6Y-120.8
X120.6Y-122.9
X120.6Y-125.0
X120.6Y-133.4
X120.611Y-127.118
X120.611Y-129.218
X120.611Y-131.209
X120.62Y-135.51
X120.7Y-103.5
X120.7Y-138.5
X121.3Y-101.2
X121.4Y-142.3
X121.75Y-124.25
X122.2Y-102.1
X122.2Y-140.9
X122.706Y-114.497
X122.706Y-116.597
X122.706Y-118.647
X122.706Y-120.797
X122.706Y-122.897
X123.8Y-125.3
X124.9Y-142.1
X125.0Y-100.9
X125.15Y-130.3
X125.25Y-136.45
X125.275Y-125.825
X125.35Y-127.25
X126.2Y-135.45
X126.85Y-100.1
X127.0Y-107.6
X127.3Y-125.85
X127.6Y-129.8
X127.7Y-149.2
X127.95Y-121.85
X128.9Y-96.9
X128.9Y-146.1
X129.8Y-149.95
X130.0Y-121.85
X130.3Y-128.5
X130.7Y-133.2
X130.8Y-97.55
X130.912Y-124.962
X132.1Y-121.6
X132.375Y-125.025
X133.5Y-120.4
X133.6Y-128.5
X133.625Y-129.8
X133.8Y-118.5
X133.95Y-125.2
X134.35Y-139.75
X135.4Y-92.6
X135.4Y-150.4
X135.406Y-97.548
X135.5Y-138.7
X137.7Y-97.55
X140.0Y-97.55
X140.0Y-118.45
X140.5Y-145.05
X140.9Y-122.55
X141.45Y-119.5
X142.05Y-141.2
X142.15Y-122.1
X142.294Y-97.552
X142.35Y-131.8
X142.55Y-138.55
X145.5Y-96.575
X146.65Y-115.742
X146.65Y-117.75
X146.9Y-107.35
X146.9Y-109.25
X148.8Y-107.35
X149.2Y-131.4
X149.2Y-133.2
X150.0Y-116.75
X150.0Y-125.2
X150.8Y-117.8
X151.25Y-129.5
X151.4Y-97.2
X151.4Y-99.3
X151.4Y-101.4
X151.4Y-103.5
X151.4Y-105.6
X151.4Y-137.6
X151.4Y-139.7
X151.4Y-141.8
X151.4Y-143.9
X151.4Y-146.0
X152.7Y-125.2
X153.075Y-118.475
X153.075Y-128.955
X153.25Y-131.25
X153.425Y-114.05
X156.25Y-116.25
X156.25Y-118.25
X156.25Y-120.25
X156.25Y-122.25
X156.25Y-124.25
X157.5Y-111.75
X159.4Y-111.0
X159.4Y-113.1
X159.4Y-115.2
X159.4Y-117.3
X159.4Y-119.4
X159.4Y-121.5
X159.4Y-123.6
X159.4Y-125.7
X159.4Y-127.8
X159.4Y-129.9
X159.4Y-132.0
T2
X124.328Y-96.328
X124.328Y-146.672
X126.272Y-98.272
X126.272Y-144.728
X148.3Y-92.925
X148.3Y-95.675
X148.3Y-147.325
X148.3Y-150.075
T3
X131.5Y-147.5
X132.5Y-95.25
X137.3Y-120.7
X138.5Y-136.5
X148.0Y-144.375
X149.85Y-112.5
M30
