%TF.GenerationSoftware,KiCad,Pcbnew,10.0.0*%
%TF.CreationDate,2026-08-16T20:53:43-04:00*%
%TF.ProjectId,ConJoy_KiCad,436f6e4a-6f79-45f4-9b69-4361642e6b69,1.00-0A*%
%TF.SameCoordinates,Original*%
%TF.FileFunction,Copper,L1,Top*%
%TF.FilePolarity,Positive*%
%FSLAX46Y46*%
G04 Gerber Fmt 4.6, Leading zero omitted, Abs format (unit mm)*
G04 Created by KiCad (PCBNEW 10.0.0) date 2026-08-16 20:53:43*
%MOMM*%
%LPD*%
G01*
G04 APERTURE LIST*
G04 Aperture macros list*
%AMRoundRect*
0 Rectangle with rounded corners*
0 $1 Rounding radius*
0 $2 $3 $4 $5 $6 $7 $8 $9 X,Y pos of 4 corners*
0 Add a 4 corners polygon primitive as box body*
4,1,4,$2,$3,$4,$5,$6,$7,$8,$9,$2,$3,0*
0 Add four circle primitives for the rounded corners*
1,1,$1+$1,$2,$3*
1,1,$1+$1,$4,$5*
1,1,$1+$1,$6,$7*
1,1,$1+$1,$8,$9*
0 Add four rect primitives between the rounded corners*
20,1,$1+$1,$2,$3,$4,$5,0*
20,1,$1+$1,$4,$5,$6,$7,0*
20,1,$1+$1,$6,$7,$8,$9,0*
20,1,$1+$1,$8,$9,$2,$3,0*%
G04 Aperture macros list end*
%TA.AperFunction,SMDPad,CuDef*%
%ADD10RoundRect,0.150000X-1.450000X-0.350000X1.450000X-0.350000X1.450000X0.350000X-1.450000X0.350000X0*%
%TD*%
%TA.AperFunction,SMDPad,CuDef*%
%ADD11RoundRect,0.150000X-0.350000X1.450000X-0.350000X-1.450000X0.350000X-1.450000X0.350000X1.450000X0*%
%TD*%
%TA.AperFunction,SMDPad,CuDef*%
%ADD12C,1.000000*%
%TD*%
%TA.AperFunction,SMDPad,CuDef*%
%ADD13RoundRect,0.150000X-0.565685X0.070711X0.070711X-0.565685X0.565685X-0.070711X-0.070711X0.565685X0*%
%TD*%
%TA.AperFunction,SMDPad,CuDef*%
%ADD14RoundRect,0.150000X0.070711X0.565685X-0.565685X-0.070711X-0.070711X-0.565685X0.565685X0.070711X0*%
%TD*%
%TA.AperFunction,SMDPad,CuDef*%
%ADD15RoundRect,0.150000X-0.450000X-0.350000X0.450000X-0.350000X0.450000X0.350000X-0.450000X0.350000X0*%
%TD*%
%TA.AperFunction,SMDPad,CuDef*%
%ADD16RoundRect,0.150000X0.450000X0.350000X-0.450000X0.350000X-0.450000X-0.350000X0.450000X-0.350000X0*%
%TD*%
%TA.AperFunction,ViaPad*%
%ADD17C,0.600000*%
%TD*%
%TA.AperFunction,Conductor*%
%ADD18C,0.200000*%
%TD*%
G04 APERTURE END LIST*
D10*
%TO.P,S5,1*%
%TO.N,GND*%
X144200000Y-119500000D03*
X150800000Y-119500000D03*
%TO.P,S5,2*%
%TO.N,/L_START{slash}R_SELECT*%
X144200000Y-123500000D03*
X150800000Y-123500000D03*
%TD*%
D11*
%TO.P,S1,1*%
%TO.N,GND*%
X140500000Y-125200000D03*
X140500000Y-131800000D03*
%TO.P,S1,2*%
%TO.N,/L_DPAD_UP{slash}R_BTN_A*%
X136500000Y-125200000D03*
X136500000Y-131800000D03*
%TD*%
%TO.P,S4,1*%
%TO.N,GND*%
X148500000Y-133200000D03*
X148500000Y-139800000D03*
%TO.P,S4,2*%
%TO.N,/L_DPAD_RIGHT{slash}R_BTN_Y*%
X144500000Y-133200000D03*
X144500000Y-139800000D03*
%TD*%
%TO.P,S2,1*%
%TO.N,GND*%
X140500000Y-141200000D03*
X140500000Y-147800000D03*
%TO.P,S2,2*%
%TO.N,/L_DPAD_DOWN{slash}R_BTN_B*%
X136500000Y-141200000D03*
X136500000Y-147800000D03*
%TD*%
D12*
%TO.P,FID3,1*%
%TO.N,unconnected-(FID3-Pad1)*%
X129000000Y-144100000D03*
%TD*%
%TO.P,FID1,1*%
%TO.N,unconnected-(FID1-Pad1)*%
X148275000Y-105350000D03*
%TD*%
%TO.P,FID5,1*%
%TO.N,unconnected-(FID5-Pad1)*%
X143450000Y-143250000D03*
%TD*%
D11*
%TO.P,S3,1*%
%TO.N,GND*%
X132500000Y-133200000D03*
X132500000Y-139800000D03*
%TO.P,S3,2*%
%TO.N,/L_DPAD_LEFT{slash}R_BTN_X*%
X128500000Y-133200000D03*
X128500000Y-139800000D03*
%TD*%
D13*
%TO.P,S9,1*%
%TO.N,GND*%
X123938819Y-143101383D03*
X127898617Y-147061181D03*
%TO.P,S9,2*%
%TO.N,/L_R_L1_TRIG*%
X122701383Y-144338819D03*
X126661181Y-148298617D03*
%TD*%
D14*
%TO.P,S6,1*%
%TO.N,GND*%
X127898617Y-95938819D03*
X123938819Y-99898617D03*
%TO.P,S6,2*%
%TO.N,/L_R_L1_TRIG*%
X126661181Y-94701383D03*
X122701383Y-98661181D03*
%TD*%
D15*
%TO.P,S11,1*%
%TO.N,GND*%
X145500000Y-147825000D03*
X151100000Y-147825000D03*
%TO.P,S11,2*%
%TO.N,/L_HOME{slash}R_EXTRA*%
X145500000Y-149575000D03*
X151100000Y-149575000D03*
%TD*%
D16*
%TO.P,S8,1*%
%TO.N,GND*%
X151100000Y-95175000D03*
X145500000Y-95175000D03*
%TO.P,S8,2*%
%TO.N,/L_HOME{slash}R_EXTRA*%
X151100000Y-93425000D03*
X145500000Y-93425000D03*
%TD*%
D17*
%TO.N,GND*%
X151500000Y-114900000D03*
X150300000Y-109400000D03*
X126600000Y-123150000D03*
X124600000Y-123150000D03*
%TO.N,/L_DPAD_LEFT{slash}R_BTN_X*%
X133200000Y-122850000D03*
%TO.N,GND*%
X126050000Y-128650000D03*
X125849999Y-125650001D03*
%TO.N,/L_R_THUMBST_SW*%
X125350000Y-129400000D03*
%TO.N,/L_R_THUMBST_Y*%
X124850000Y-124950000D03*
%TO.N,GND*%
X151400000Y-101400000D03*
X135400000Y-92600000D03*
X159400000Y-125699999D03*
X159400000Y-129900000D03*
X159400000Y-115200000D03*
X128900000Y-96900000D03*
X159400000Y-117300000D03*
X120610752Y-131209498D03*
X120600000Y-120800000D03*
X153250000Y-131250000D03*
X159400000Y-119400000D03*
X146900000Y-109250000D03*
X151400000Y-105600000D03*
X156250000Y-124250000D03*
X120600000Y-125000000D03*
X132100000Y-121600000D03*
X156250000Y-122250000D03*
X140000000Y-97550000D03*
X135400000Y-150400000D03*
X151400000Y-139700000D03*
X120600000Y-112400000D03*
X146900000Y-107350000D03*
X129800000Y-149950000D03*
X130800000Y-97550000D03*
X150000000Y-125200000D03*
X135406454Y-97548405D03*
X142293546Y-97551595D03*
X145500000Y-96575000D03*
X151400000Y-143900000D03*
X127000000Y-107600000D03*
X122950000Y-122900000D03*
X142350000Y-131800000D03*
X127950000Y-121850000D03*
X128900000Y-146100000D03*
X149200000Y-131400000D03*
X142550000Y-138550000D03*
X120600000Y-114500000D03*
X130300000Y-128500000D03*
X121300000Y-101200000D03*
X149200000Y-133200000D03*
X151400000Y-103500000D03*
X151400000Y-97200000D03*
X134350000Y-139750000D03*
X146650000Y-115742041D03*
X133500000Y-120400000D03*
X137700000Y-97550000D03*
X120610661Y-129217641D03*
X151250000Y-129500000D03*
X120610661Y-127117641D03*
X120700000Y-138500000D03*
X122705828Y-116596731D03*
X150800000Y-117800000D03*
X140500000Y-145050000D03*
X156250000Y-118250000D03*
X151400000Y-137600000D03*
X151400000Y-141800000D03*
X120600000Y-106100000D03*
X122705828Y-114496731D03*
X120600000Y-133400000D03*
X130000000Y-121850000D03*
X153075000Y-128955000D03*
X133800000Y-118500000D03*
X125000000Y-100900000D03*
X120600000Y-118650000D03*
X120600000Y-110300000D03*
X120620000Y-135509999D03*
X151400000Y-146000000D03*
X122705828Y-120796731D03*
X120600000Y-116600000D03*
X159400000Y-111000000D03*
X151400000Y-99300000D03*
X121400000Y-142300000D03*
X157500000Y-111750000D03*
X140000000Y-118450000D03*
X120600000Y-122900000D03*
X122705828Y-118646731D03*
X159400000Y-113100000D03*
X120600000Y-108200000D03*
X140900000Y-122550000D03*
X156250000Y-120250000D03*
X122200000Y-102100000D03*
X124900000Y-142100000D03*
X146650000Y-117750000D03*
X152700000Y-125200000D03*
X159400000Y-127800000D03*
X159400000Y-132000000D03*
X159400000Y-123600000D03*
X156250000Y-116250000D03*
X133600000Y-128500000D03*
X120700000Y-103500000D03*
X122200000Y-140900000D03*
X125250000Y-136450000D03*
X148800000Y-107350000D03*
X127700000Y-149200000D03*
X159400000Y-121500000D03*
X142050000Y-141200000D03*
X141450000Y-119500000D03*
X130700000Y-133200000D03*
X126850000Y-100100000D03*
%TO.N,/L_START{slash}R_SELECT*%
X153075000Y-118475000D03*
%TO.N,/L_DPAD_UP{slash}R_BTN_A*%
X133950000Y-125200000D03*
%TO.N,/L_DPAD_RIGHT{slash}R_BTN_Y*%
X142150000Y-122100000D03*
%TO.N,/L_DPAD_DOWN{slash}R_BTN_B*%
X135500000Y-138700000D03*
%TO.N,/L_R_L1_TRIG*%
X150000000Y-116750000D03*
%TO.N,/L_R_THUMBST_X*%
X130500000Y-129800000D03*
X133625000Y-129800000D03*
%TO.N,/L_R_THUMBST_SW*%
X132375000Y-125025000D03*
%TO.N,/L_R_THUMBST_Y*%
X130912500Y-124962500D03*
%TO.N,/L_HOME{slash}R_EXTRA*%
X153425000Y-114050000D03*
%TO.N,/L_R_L2_TRIG*%
X126200000Y-135450000D03*
X121750000Y-123800000D03*
%TD*%
%TO.N,/L_R_L2_TRIG*%
D18*
X125450000Y-135450000D02*
X126200000Y-135450000D01*
X123950000Y-130450000D02*
X123950000Y-133950000D01*
X123950000Y-133950000D02*
X125450000Y-135450000D01*
X121750000Y-123800000D02*
X121750000Y-128250000D01*
X121750000Y-128250000D02*
X123950000Y-130450000D01*
%TO.N,/L_DPAD_LEFT{slash}R_BTN_X*%
X134400000Y-130750000D02*
X128950000Y-130750000D01*
X134900000Y-130250000D02*
X134400000Y-130750000D01*
X134900000Y-127750000D02*
X134900000Y-130250000D01*
X133200000Y-126050000D02*
X134900000Y-127750000D01*
X128950000Y-130750000D02*
X128500000Y-131200000D01*
X128500000Y-131200000D02*
X128500000Y-133200000D01*
X133200000Y-122850000D02*
X133200000Y-126050000D01*
%TO.N,/L_R_THUMBST_SW*%
X132375000Y-126025000D02*
X132375000Y-125025000D01*
X131150000Y-127250000D02*
X132375000Y-126025000D01*
X127750000Y-129400000D02*
X129900000Y-127250000D01*
X125350000Y-129400000D02*
X127750000Y-129400000D01*
X129900000Y-127250000D02*
X131150000Y-127250000D01*
%TO.N,/L_R_THUMBST_X*%
X130500000Y-129800000D02*
X133625000Y-129800000D01*
%TO.N,/L_R_THUMBST_Y*%
X130900000Y-124950000D02*
X124850000Y-124950000D01*
%TO.N,GND*%
X151100000Y-96700000D02*
X150900000Y-96700000D01*
X123938819Y-143101383D02*
X123938819Y-143061181D01*
X125000000Y-100900000D02*
X123998617Y-99898617D01*
X151000000Y-97200000D02*
X151400000Y-97200000D01*
X151100000Y-95175000D02*
X151100000Y-96700000D01*
X150800000Y-119500001D02*
X150800000Y-117800000D01*
X123998617Y-99898617D02*
X123938819Y-99898617D01*
X120816926Y-131055000D02*
X122525000Y-131055000D01*
X122490001Y-132750000D02*
X121250000Y-132750000D01*
X127898617Y-147061181D02*
X127938819Y-147061181D01*
X127938819Y-147061181D02*
X128900000Y-146100000D01*
X145500000Y-95175000D02*
X145500000Y-96575000D01*
X150700000Y-96900000D02*
X151000000Y-97200000D01*
X123938819Y-143061181D02*
X124900000Y-142100000D01*
X132500000Y-139800000D02*
X134300000Y-139800000D01*
X127938819Y-95938819D02*
X128900000Y-96900000D01*
X134300000Y-139800000D02*
X134350000Y-139750000D01*
X140500000Y-131800000D02*
X142350000Y-131800000D01*
X132500000Y-133200000D02*
X130700000Y-133200000D01*
X127898617Y-95938819D02*
X127938819Y-95938819D01*
X121250000Y-132750000D02*
X120600000Y-133400000D01*
X147500000Y-133200000D02*
X149200000Y-133200000D01*
X150900000Y-96700000D02*
X150700000Y-96900000D01*
X144200000Y-119500000D02*
X141450000Y-119500000D01*
X139500000Y-141200000D02*
X142050000Y-141200000D01*
X120660963Y-131210963D02*
X120816926Y-131055000D01*
%TO.N,/L_START{slash}R_SELECT*%
X153075000Y-118475000D02*
X153100000Y-118500000D01*
X144200000Y-123500000D02*
X150800000Y-123500000D01*
X153100000Y-121200000D02*
X150800000Y-123500000D01*
X153100000Y-118500000D02*
X153100000Y-121200000D01*
%TO.N,/L_DPAD_UP{slash}R_BTN_A*%
X136500000Y-125200000D02*
X133950000Y-125200000D01*
X136500000Y-131800000D02*
X136500000Y-125200000D01*
%TO.N,/L_DPAD_RIGHT{slash}R_BTN_Y*%
X144500000Y-126850000D02*
X144500000Y-139800000D01*
X142100000Y-122150000D02*
X142100000Y-124450000D01*
X142100000Y-124450000D02*
X144500000Y-126850000D01*
X142150000Y-122100000D02*
X142100000Y-122150000D01*
%TO.N,/L_DPAD_DOWN{slash}R_BTN_B*%
X136500000Y-139700000D02*
X135500000Y-138700000D01*
X136500000Y-147800000D02*
X136500000Y-139700000D01*
%TO.N,/L_DPAD_LEFT{slash}R_BTN_X*%
X128500000Y-139800000D02*
X128500000Y-133200000D01*
%TO.N,/L_R_L1_TRIG*%
X151550000Y-116750000D02*
X152450000Y-115850000D01*
X123612564Y-97750000D02*
X124850000Y-97750000D01*
X125900000Y-147537436D02*
X126661181Y-148298617D01*
X144200000Y-97700000D02*
X140800000Y-94300000D01*
X138500000Y-123950000D02*
X141300000Y-121150000D01*
X135800000Y-94300000D02*
X134300000Y-92800000D01*
X122701383Y-142198617D02*
X123750000Y-141150000D01*
X150000000Y-116750000D02*
X151550000Y-116750000D01*
X123750000Y-141150000D02*
X125200000Y-141150000D01*
X149900000Y-106350000D02*
X149900000Y-99450000D01*
X152450000Y-108900000D02*
X149900000Y-106350000D01*
X138500000Y-132800000D02*
X138500000Y-123950000D01*
X130400000Y-141250000D02*
X130400000Y-137300000D01*
X131400000Y-136300000D02*
X133000000Y-136300000D01*
X129650000Y-142000000D02*
X130400000Y-141250000D01*
X147550000Y-119900000D02*
X147550000Y-117600000D01*
X140800000Y-94300000D02*
X135800000Y-94300000D01*
X126150000Y-96450000D02*
X126150000Y-95212564D01*
X135000000Y-134300000D02*
X137000000Y-134300000D01*
X126150000Y-95212564D02*
X126661181Y-94701383D01*
X148400000Y-116750000D02*
X150000000Y-116750000D01*
X126050000Y-142000000D02*
X129650000Y-142000000D01*
X128698617Y-94701383D02*
X126661181Y-94701383D01*
X122701383Y-144338819D02*
X122701383Y-142198617D01*
X124750000Y-145075000D02*
X125900000Y-146225000D01*
X123437564Y-145075000D02*
X124750000Y-145075000D01*
X130400000Y-137300000D02*
X131400000Y-136300000D01*
X125200000Y-141150000D02*
X126050000Y-142000000D01*
X148150000Y-97700000D02*
X144200000Y-97700000D01*
X152450000Y-115850000D02*
X152450000Y-108900000D01*
X122701383Y-144338819D02*
X123437564Y-145075000D01*
X134300000Y-92800000D02*
X130600000Y-92800000D01*
X149900000Y-99450000D02*
X148150000Y-97700000D01*
X141300000Y-121150000D02*
X146300000Y-121150000D01*
X124850000Y-97750000D02*
X126150000Y-96450000D01*
X122701383Y-98661181D02*
X123612564Y-97750000D01*
X137000000Y-134300000D02*
X138500000Y-132800000D01*
X133000000Y-136300000D02*
X135000000Y-134300000D01*
X147550000Y-117600000D02*
X148400000Y-116750000D01*
X130600000Y-92800000D02*
X128698617Y-94701383D01*
X125900000Y-146225000D02*
X125900000Y-147537436D01*
X146300000Y-121150000D02*
X147550000Y-119900000D01*
%TO.N,/L_HOME{slash}R_EXTRA*%
X154650000Y-115275000D02*
X153425000Y-114050000D01*
X146550000Y-129750000D02*
X147625000Y-128675000D01*
X149675000Y-148650000D02*
X147425000Y-148650000D01*
X153425000Y-114050000D02*
X153425000Y-108775000D01*
X149150000Y-94275000D02*
X149650000Y-94775000D01*
X144525000Y-149575000D02*
X143700000Y-148750000D01*
X143700000Y-148750000D02*
X143700000Y-147100000D01*
X149650000Y-94150000D02*
X149650000Y-94775000D01*
X153425000Y-108775000D02*
X150700000Y-106050000D01*
X151475000Y-128675000D02*
X154650000Y-125500000D01*
X150700000Y-106050000D02*
X150700000Y-98700000D01*
X144950000Y-142900000D02*
X146550000Y-141300000D01*
X151100000Y-93425000D02*
X150375000Y-93425000D01*
X151100000Y-149575000D02*
X150600000Y-149575000D01*
X150600000Y-149575000D02*
X149675000Y-148650000D01*
X145500000Y-93425000D02*
X146350000Y-94275000D01*
X146350000Y-94275000D02*
X149150000Y-94275000D01*
X145500000Y-149575000D02*
X144525000Y-149575000D01*
X149650000Y-97650000D02*
X149650000Y-94775000D01*
X147425000Y-148650000D02*
X146500000Y-149575000D01*
X146500000Y-149575000D02*
X145500000Y-149575000D01*
X150375000Y-93425000D02*
X149650000Y-94150000D01*
X150700000Y-98700000D02*
X149650000Y-97650000D01*
X146550000Y-141300000D02*
X146550000Y-129750000D01*
X154650000Y-125500000D02*
X154650000Y-115275000D01*
X147625000Y-128675000D02*
X151475000Y-128675000D01*
X143700000Y-147100000D02*
X144950000Y-145850000D01*
X144950000Y-145850000D02*
X144950000Y-142900000D01*
%TD*%
%TA.AperFunction,Conductor*%
%TO.N,GND*%
G36*
X141617999Y-121505521D02*
G01*
X141628852Y-121508707D01*
X141687633Y-121546477D01*
X141716662Y-121610031D01*
X141706723Y-121679190D01*
X141706719Y-121679199D01*
X141703534Y-121686173D01*
X141688551Y-121703462D01*
X141690715Y-121705195D01*
X141675480Y-121724220D01*
X141672363Y-121727960D01*
X141669481Y-121731282D01*
X141669475Y-121731290D01*
X141669472Y-121731294D01*
X141669470Y-121731298D01*
X141590430Y-121868200D01*
X141590425Y-121868210D01*
X141590424Y-121868211D01*
X141590423Y-121868215D01*
X141590423Y-121868216D01*
X141549500Y-122020943D01*
X141549500Y-122179057D01*
X141579341Y-122290423D01*
X141590423Y-122331783D01*
X141590424Y-122331786D01*
X141590425Y-122331788D01*
X141590430Y-122331798D01*
X141628130Y-122397096D01*
X141669475Y-122468709D01*
X141669477Y-122468711D01*
X141671334Y-122471928D01*
X141670813Y-122472228D01*
X141685089Y-122504070D01*
X141689628Y-122521167D01*
X141744522Y-122727949D01*
X141745349Y-122731061D01*
X141749500Y-122762878D01*
X141749500Y-124496144D01*
X141750042Y-124498168D01*
X141753748Y-124511995D01*
X141753749Y-124512001D01*
X141772310Y-124581274D01*
X141773386Y-124585289D01*
X141819526Y-124665207D01*
X141819527Y-124665208D01*
X141819530Y-124665212D01*
X141819538Y-124665221D01*
X144100573Y-126946255D01*
X144121723Y-126974507D01*
X144134331Y-126997596D01*
X144149500Y-127057025D01*
X144149500Y-130979044D01*
X144129815Y-131046083D01*
X144129195Y-131047040D01*
X143836446Y-131493487D01*
X143826580Y-131505617D01*
X143826633Y-131505659D01*
X143821951Y-131511654D01*
X143821951Y-131511656D01*
X143821949Y-131511659D01*
X143816017Y-131523299D01*
X143809241Y-131534976D01*
X143800820Y-131547820D01*
X143793478Y-131559714D01*
X143792846Y-131560804D01*
X143786315Y-131572789D01*
X143786313Y-131572794D01*
X143784015Y-131580912D01*
X143775192Y-131603421D01*
X143764352Y-131624695D01*
X143764351Y-131624700D01*
X143749500Y-131718469D01*
X143749500Y-134681520D01*
X143756068Y-134722989D01*
X143760292Y-134749657D01*
X143764354Y-134775304D01*
X143790475Y-134826570D01*
X143793306Y-134833575D01*
X143793310Y-134833586D01*
X143800829Y-134852192D01*
X143800832Y-134852197D01*
X143809230Y-134865004D01*
X143813805Y-134872554D01*
X143814951Y-134874607D01*
X143821950Y-134888342D01*
X143821952Y-134888344D01*
X143821954Y-134888347D01*
X143823465Y-134889858D01*
X143824704Y-134892077D01*
X143836449Y-134906514D01*
X143996066Y-135149934D01*
X144094469Y-135300000D01*
X144129195Y-135352957D01*
X144149495Y-135419813D01*
X144149500Y-135420953D01*
X144149500Y-137579044D01*
X144129815Y-137646083D01*
X144129195Y-137647040D01*
X143836446Y-138093487D01*
X143824292Y-138108432D01*
X143823207Y-138109926D01*
X143822048Y-138111464D01*
X143816022Y-138123290D01*
X143809241Y-138134975D01*
X143800829Y-138147805D01*
X143793476Y-138159716D01*
X143792846Y-138160804D01*
X143786315Y-138172789D01*
X143786313Y-138172794D01*
X143784015Y-138180912D01*
X143775192Y-138203421D01*
X143764352Y-138224695D01*
X143764351Y-138224700D01*
X143749500Y-138318469D01*
X143749500Y-141281517D01*
X143751816Y-141296140D01*
X143751816Y-141296143D01*
X143764352Y-141375299D01*
X143764352Y-141375300D01*
X143764353Y-141375303D01*
X143764354Y-141375304D01*
X143821950Y-141488342D01*
X143821952Y-141488344D01*
X143821954Y-141488347D01*
X143897567Y-141563960D01*
X143930765Y-141624000D01*
X143931067Y-141625324D01*
X143936477Y-141635236D01*
X143931477Y-141704926D01*
X143889593Y-141760850D01*
X143858612Y-141777758D01*
X143855709Y-141778840D01*
X143793005Y-141785121D01*
X143568097Y-141749500D01*
X143568092Y-141749500D01*
X143331908Y-141749500D01*
X143331903Y-141749500D01*
X143331898Y-141749500D01*
X143098636Y-141786445D01*
X143098634Y-141786445D01*
X143098631Y-141786446D01*
X142874003Y-141859433D01*
X142807976Y-141893076D01*
X142663566Y-141966656D01*
X142576854Y-142029658D01*
X142576853Y-142029658D01*
X142484360Y-142096858D01*
X142476981Y-142100990D01*
X142300990Y-142276981D01*
X142296860Y-142284357D01*
X142253676Y-142343796D01*
X142253675Y-142343798D01*
X142166656Y-142463566D01*
X142097395Y-142599500D01*
X142059433Y-142674003D01*
X141986446Y-142898631D01*
X141986445Y-142898634D01*
X141986445Y-142898636D01*
X141949500Y-143131896D01*
X141949500Y-143368102D01*
X141983901Y-143585297D01*
X141986446Y-143601368D01*
X142034295Y-143748630D01*
X142059434Y-143826000D01*
X142126747Y-143958107D01*
X142158550Y-144020523D01*
X142166657Y-144036433D01*
X142305483Y-144227510D01*
X142472490Y-144394517D01*
X142663567Y-144533343D01*
X142751276Y-144578033D01*
X142874003Y-144640566D01*
X142874878Y-144641012D01*
X142878627Y-144642069D01*
X142965941Y-144670439D01*
X143098631Y-144713553D01*
X143331903Y-144750500D01*
X143331908Y-144750500D01*
X143568096Y-144750500D01*
X143568097Y-144750500D01*
X143801368Y-144713553D01*
X144025992Y-144640568D01*
X144236433Y-144533343D01*
X144388196Y-144423078D01*
X144419409Y-144406610D01*
X144431605Y-144402258D01*
X144501361Y-144398272D01*
X144562198Y-144432632D01*
X144593634Y-144489239D01*
X144595863Y-144498239D01*
X144599500Y-144528049D01*
X144599500Y-145635626D01*
X144594476Y-145670563D01*
X144587064Y-145695804D01*
X144555769Y-145748548D01*
X143419534Y-146884782D01*
X143419528Y-146884789D01*
X143419526Y-146884791D01*
X143373389Y-146964703D01*
X143373387Y-146964708D01*
X143373382Y-146964725D01*
X143362128Y-147006727D01*
X143349500Y-147053856D01*
X143349500Y-148796144D01*
X143368669Y-148867682D01*
X143373386Y-148885287D01*
X143373387Y-148885290D01*
X143419527Y-148965208D01*
X143419529Y-148965211D01*
X143419530Y-148965212D01*
X143432284Y-148977966D01*
X144193519Y-149739201D01*
X144201628Y-149748141D01*
X144213954Y-149763136D01*
X144213956Y-149763138D01*
X144228584Y-149775124D01*
X144237675Y-149783357D01*
X144309788Y-149855470D01*
X144309789Y-149855471D01*
X144309791Y-149855472D01*
X144358070Y-149883345D01*
X144374663Y-149894819D01*
X144449960Y-149956517D01*
X144774432Y-150222386D01*
X144777684Y-150224335D01*
X144797529Y-150239104D01*
X144799610Y-150241003D01*
X144811652Y-150253045D01*
X144811654Y-150253046D01*
X144811658Y-150253050D01*
X144924694Y-150310645D01*
X144924698Y-150310647D01*
X145018220Y-150325458D01*
X145018457Y-150325497D01*
X145018466Y-150325497D01*
X145018475Y-150325499D01*
X145018481Y-150325500D01*
X145981518Y-150325499D01*
X146075304Y-150310646D01*
X146188342Y-150253050D01*
X146194545Y-150246846D01*
X146215972Y-150229713D01*
X146220460Y-150226876D01*
X146220461Y-150226874D01*
X146220465Y-150226873D01*
X146638727Y-149900992D01*
X146652918Y-149891434D01*
X146710449Y-149858219D01*
X146712953Y-149856814D01*
X146722487Y-149851606D01*
X146722488Y-149851607D01*
X146740537Y-149841748D01*
X146808809Y-149826891D01*
X146874275Y-149851303D01*
X146916142Y-149907207D01*
X146917312Y-149910341D01*
X146924760Y-149963443D01*
X146924500Y-149966745D01*
X146924500Y-150183258D01*
X146958370Y-150397101D01*
X146998375Y-150520225D01*
X147004393Y-150555004D01*
X147004789Y-150568875D01*
X146987026Y-150636449D01*
X146935562Y-150683686D01*
X146929291Y-150686770D01*
X146874569Y-150699498D01*
X142960454Y-150699500D01*
X133002553Y-150699500D01*
X133000840Y-150699488D01*
X132999175Y-150699465D01*
X132997530Y-150699432D01*
X132317503Y-150681011D01*
X132314152Y-150680874D01*
X132310793Y-150680692D01*
X132307439Y-150680465D01*
X131631965Y-150625464D01*
X131628629Y-150625147D01*
X131625326Y-150624788D01*
X131621985Y-150624379D01*
X130950451Y-150532886D01*
X130947115Y-150532385D01*
X130943781Y-150531838D01*
X130940490Y-150531252D01*
X130274968Y-150403550D01*
X130271693Y-150402876D01*
X130268402Y-150402152D01*
X130265118Y-150401383D01*
X129607422Y-150237823D01*
X129604183Y-150236971D01*
X129600937Y-150236070D01*
X129597705Y-150235125D01*
X128949878Y-150036212D01*
X128946700Y-150035189D01*
X128943493Y-150034109D01*
X128940307Y-150032988D01*
X128304161Y-149799280D01*
X128301036Y-149798083D01*
X128297928Y-149796845D01*
X128294814Y-149795556D01*
X127672259Y-149527752D01*
X127669177Y-149526376D01*
X127666111Y-149524957D01*
X127663099Y-149523513D01*
X127149196Y-149268642D01*
X127120129Y-149248620D01*
X127109935Y-149239199D01*
X127074062Y-149179242D01*
X127076298Y-149109409D01*
X127078395Y-149103030D01*
X127108510Y-149054075D01*
X127532349Y-148630237D01*
X127588163Y-148553417D01*
X127627366Y-148432761D01*
X127627366Y-148387838D01*
X127632388Y-148352905D01*
X127635919Y-148340880D01*
X127636299Y-148339586D01*
X127674072Y-148280809D01*
X127737624Y-148251784D01*
X127746396Y-148250523D01*
X127794873Y-148253157D01*
X127887211Y-148276866D01*
X127887217Y-148276867D01*
X128051437Y-148276867D01*
X128051438Y-148276867D01*
X128051445Y-148276866D01*
X128210503Y-148236026D01*
X128210509Y-148236024D01*
X128354421Y-148156907D01*
X128354428Y-148156903D01*
X128382524Y-148132907D01*
X128499657Y-148015774D01*
X128499656Y-148015773D01*
X128499657Y-148015773D01*
X127721840Y-147237958D01*
X127545062Y-147061180D01*
X128252170Y-147061180D01*
X128853209Y-147662221D01*
X128853209Y-147662220D01*
X128853210Y-147662221D01*
X128970341Y-147545090D01*
X128970355Y-147545072D01*
X128971983Y-147543313D01*
X128972053Y-147543377D01*
X128972063Y-147543368D01*
X128972291Y-147543596D01*
X128996129Y-147522626D01*
X129005611Y-147516436D01*
X129072505Y-147496274D01*
X129139683Y-147515479D01*
X129185809Y-147567944D01*
X129187750Y-147572114D01*
X129187919Y-147572476D01*
X129199500Y-147624802D01*
X129199500Y-147650781D01*
X129238859Y-147949755D01*
X129238860Y-147949760D01*
X129238861Y-147949766D01*
X129265719Y-148050000D01*
X129316912Y-148241058D01*
X129432032Y-148518980D01*
X129432292Y-148519618D01*
X129432316Y-148519668D01*
X129465164Y-148576562D01*
X129583099Y-148780831D01*
X129583100Y-148780832D01*
X129583102Y-148780835D01*
X129766672Y-149020070D01*
X129766676Y-149020075D01*
X129766679Y-149020078D01*
X129766685Y-149020085D01*
X129979914Y-149233314D01*
X129979921Y-149233320D01*
X129979924Y-149233322D01*
X129979928Y-149233326D01*
X130135233Y-149352495D01*
X130219168Y-149416900D01*
X130476899Y-149565701D01*
X130482093Y-149568701D01*
X130482095Y-149568702D01*
X130482683Y-149569042D01*
X130487828Y-149570787D01*
X130644407Y-149635645D01*
X130758939Y-149683086D01*
X130758940Y-149683086D01*
X130758942Y-149683087D01*
X130758944Y-149683087D01*
X130759691Y-149683397D01*
X130762842Y-149684132D01*
X131050232Y-149761138D01*
X131349217Y-149800500D01*
X131349224Y-149800500D01*
X131650776Y-149800500D01*
X131650783Y-149800500D01*
X131949768Y-149761138D01*
X132241058Y-149683087D01*
X132519668Y-149567683D01*
X132780832Y-149416900D01*
X133020080Y-149233319D01*
X133233319Y-149020080D01*
X133416900Y-148780832D01*
X133567683Y-148519668D01*
X133683087Y-148241058D01*
X133761138Y-147949768D01*
X133800500Y-147650783D01*
X133800500Y-147349217D01*
X133761138Y-147050232D01*
X133683087Y-146758942D01*
X133678053Y-146746790D01*
X133672248Y-146732775D01*
X133588608Y-146530849D01*
X133567687Y-146480340D01*
X133567680Y-146480327D01*
X133560832Y-146468466D01*
X133545949Y-146442688D01*
X133416900Y-146219168D01*
X133371280Y-146159714D01*
X133233326Y-145979928D01*
X133233322Y-145979924D01*
X133233320Y-145979921D01*
X133233314Y-145979914D01*
X133020085Y-145766685D01*
X133020078Y-145766679D01*
X133020075Y-145766676D01*
X133020070Y-145766672D01*
X132780835Y-145583102D01*
X132780834Y-145583101D01*
X132780831Y-145583099D01*
X132519671Y-145432318D01*
X132519672Y-145432318D01*
X132519668Y-145432316D01*
X132519618Y-145432292D01*
X132518980Y-145432032D01*
X132241058Y-145316912D01*
X132095413Y-145277887D01*
X131949766Y-145238861D01*
X131949760Y-145238860D01*
X131949755Y-145238859D01*
X131654883Y-145200039D01*
X131652867Y-145199705D01*
X131650793Y-145199500D01*
X131650788Y-145199500D01*
X131650783Y-145199500D01*
X131349217Y-145199500D01*
X131349211Y-145199500D01*
X131349206Y-145199500D01*
X131347129Y-145199705D01*
X131345115Y-145200039D01*
X131050243Y-145238859D01*
X131050236Y-145238860D01*
X131050233Y-145238861D01*
X131029136Y-145244514D01*
X130758940Y-145316912D01*
X130481018Y-145432032D01*
X130480388Y-145432288D01*
X130480330Y-145432316D01*
X130329527Y-145519383D01*
X130226192Y-145579044D01*
X130219163Y-145583102D01*
X129979928Y-145766672D01*
X129979913Y-145766686D01*
X129979905Y-145766693D01*
X129766693Y-145979905D01*
X129766686Y-145979913D01*
X129766672Y-145979928D01*
X129583102Y-146219163D01*
X129432316Y-146480330D01*
X129432288Y-146480388D01*
X129432032Y-146481018D01*
X129316912Y-146758941D01*
X129316911Y-146758944D01*
X129297848Y-146830088D01*
X129283955Y-146862532D01*
X129278068Y-146872190D01*
X129226367Y-146919188D01*
X129157465Y-146930774D01*
X129093239Y-146903270D01*
X129087939Y-146898894D01*
X129058241Y-146863025D01*
X129049441Y-146847018D01*
X128994346Y-146746801D01*
X128994339Y-146746790D01*
X128970341Y-146718692D01*
X128970332Y-146718682D01*
X128970331Y-146718681D01*
X128970318Y-146718667D01*
X128782500Y-146530850D01*
X128252170Y-147061180D01*
X127545062Y-147061180D01*
X126944022Y-146460140D01*
X126826903Y-146577258D01*
X126826890Y-146577272D01*
X126802895Y-146605367D01*
X126802894Y-146605369D01*
X126802890Y-146605376D01*
X126725141Y-146746801D01*
X126723774Y-146749287D01*
X126723771Y-146749292D01*
X126723769Y-146749298D01*
X126682931Y-146908349D01*
X126682931Y-147072588D01*
X126705459Y-147160325D01*
X126709282Y-147195422D01*
X126708971Y-147204472D01*
X126686995Y-147270796D01*
X126632651Y-147314710D01*
X126570647Y-147323374D01*
X126360103Y-147298762D01*
X126295802Y-147271427D01*
X126256488Y-147213668D01*
X126250500Y-147175601D01*
X126250500Y-146245057D01*
X126255523Y-146210121D01*
X126257491Y-146203421D01*
X126259927Y-146195122D01*
X126297672Y-146136372D01*
X126299041Y-146135185D01*
X126353907Y-146107707D01*
X126359062Y-146106586D01*
X127297576Y-146106586D01*
X127898617Y-146707627D01*
X128428947Y-146177297D01*
X128428947Y-146177296D01*
X128241129Y-145989478D01*
X128241115Y-145989465D01*
X128241109Y-145989460D01*
X128241105Y-145989456D01*
X128213007Y-145965458D01*
X128213000Y-145965454D01*
X128069088Y-145886337D01*
X128069084Y-145886335D01*
X128069083Y-145886335D01*
X128069077Y-145886333D01*
X127910026Y-145845495D01*
X127910024Y-145845495D01*
X127745788Y-145845495D01*
X127745785Y-145845495D01*
X127586734Y-145886333D01*
X127586728Y-145886335D01*
X127586725Y-145886336D01*
X127586724Y-145886337D01*
X127473738Y-145948452D01*
X127442803Y-145965459D01*
X127414708Y-145989454D01*
X127414694Y-145989467D01*
X127338954Y-146065208D01*
X127297576Y-146106586D01*
X126359062Y-146106586D01*
X126362860Y-146105760D01*
X126379490Y-146103309D01*
X126380517Y-146103228D01*
X126380525Y-146103228D01*
X126380526Y-146103228D01*
X126594369Y-146069358D01*
X126800281Y-146002454D01*
X126872884Y-145965461D01*
X126913553Y-145944739D01*
X126928356Y-145937196D01*
X126993191Y-145904161D01*
X127168350Y-145776900D01*
X127321444Y-145623806D01*
X127448705Y-145448647D01*
X127546998Y-145255737D01*
X127601628Y-145087598D01*
X127617195Y-145055936D01*
X127624509Y-145045241D01*
X127678598Y-145001015D01*
X127748013Y-144993052D01*
X127806713Y-145020365D01*
X127813808Y-145026338D01*
X127834272Y-145048315D01*
X127855483Y-145077510D01*
X128022490Y-145244517D01*
X128213567Y-145383343D01*
X128249426Y-145401614D01*
X128424003Y-145490566D01*
X128424004Y-145490566D01*
X128424879Y-145491012D01*
X128428627Y-145492069D01*
X128512691Y-145519383D01*
X128648631Y-145563553D01*
X128881903Y-145600500D01*
X128881908Y-145600500D01*
X129118096Y-145600500D01*
X129118097Y-145600500D01*
X129351368Y-145563553D01*
X129435936Y-145536075D01*
X129575992Y-145490568D01*
X129786433Y-145383343D01*
X129977510Y-145244517D01*
X130144517Y-145077510D01*
X130283343Y-144886433D01*
X130390568Y-144675992D01*
X130463553Y-144451368D01*
X130472558Y-144394514D01*
X130500500Y-144218097D01*
X130500500Y-143981902D01*
X130463553Y-143748631D01*
X130401351Y-143557194D01*
X130390568Y-143524008D01*
X130390566Y-143524005D01*
X130390566Y-143524003D01*
X130388317Y-143519590D01*
X130388010Y-143518802D01*
X130387284Y-143517562D01*
X130304621Y-143355328D01*
X130283343Y-143313567D01*
X130144517Y-143122490D01*
X129977510Y-142955483D01*
X129786433Y-142816657D01*
X129728226Y-142786999D01*
X129575996Y-142709433D01*
X129351368Y-142636446D01*
X129351362Y-142636445D01*
X129118102Y-142599500D01*
X129118097Y-142599500D01*
X129118092Y-142599500D01*
X128881908Y-142599500D01*
X128881903Y-142599500D01*
X128881898Y-142599500D01*
X128648636Y-142636445D01*
X128648634Y-142636445D01*
X128648631Y-142636446D01*
X128424003Y-142709433D01*
X128352972Y-142745625D01*
X128213566Y-142816656D01*
X128160901Y-142854921D01*
X128034361Y-142946858D01*
X128026980Y-142950991D01*
X127850990Y-143126981D01*
X127846860Y-143134357D01*
X127827275Y-143161315D01*
X127827273Y-143161318D01*
X127716657Y-143313566D01*
X127716654Y-143313570D01*
X127716653Y-143313573D01*
X127695378Y-143355328D01*
X127609433Y-143524003D01*
X127606818Y-143532052D01*
X127536446Y-143748630D01*
X127535312Y-143753359D01*
X127534910Y-143753262D01*
X127526132Y-143781646D01*
X127520585Y-143793347D01*
X127474081Y-143845492D01*
X127406767Y-143864217D01*
X127344509Y-143846420D01*
X127336570Y-143841633D01*
X127312918Y-143823124D01*
X127168352Y-143678558D01*
X127168350Y-143678556D01*
X126993191Y-143551295D01*
X126800281Y-143453001D01*
X126800278Y-143453000D01*
X126800277Y-143452999D01*
X126800274Y-143452998D01*
X126800254Y-143452991D01*
X126594372Y-143386098D01*
X126594373Y-143386098D01*
X126400161Y-143355338D01*
X126400159Y-143355337D01*
X126380526Y-143352228D01*
X126164018Y-143352228D01*
X126144381Y-143355337D01*
X126144382Y-143355338D01*
X125950169Y-143386098D01*
X125744288Y-143452991D01*
X125744269Y-143452998D01*
X125744268Y-143452998D01*
X125551348Y-143551297D01*
X125451416Y-143623902D01*
X125388061Y-143669932D01*
X125380686Y-143674062D01*
X125218607Y-143836141D01*
X125214477Y-143843517D01*
X125183623Y-143885985D01*
X125183622Y-143885987D01*
X125095838Y-144006808D01*
X124997542Y-144199724D01*
X124997542Y-144199725D01*
X124997535Y-144199744D01*
X124930642Y-144405625D01*
X124899494Y-144602287D01*
X124889067Y-144636009D01*
X124882370Y-144650135D01*
X124835883Y-144702267D01*
X124830288Y-144705752D01*
X124764729Y-144724500D01*
X123827096Y-144724500D01*
X123760057Y-144704815D01*
X123714302Y-144652011D01*
X123704300Y-144617738D01*
X123691391Y-144525783D01*
X123678111Y-144431178D01*
X123688285Y-144362054D01*
X123734215Y-144309403D01*
X123783273Y-144291201D01*
X123785390Y-144290896D01*
X123785395Y-144290897D01*
X123786603Y-144290723D01*
X123835071Y-144293358D01*
X123927413Y-144317068D01*
X123927419Y-144317069D01*
X124091639Y-144317069D01*
X124091640Y-144317069D01*
X124091647Y-144317068D01*
X124250705Y-144276228D01*
X124250711Y-144276226D01*
X124394623Y-144197109D01*
X124394630Y-144197105D01*
X124422726Y-144173109D01*
X124539859Y-144055976D01*
X123862330Y-143378447D01*
X123841178Y-143350191D01*
X123833686Y-143336470D01*
X123818834Y-143268210D01*
X123818963Y-143266401D01*
X123838330Y-143208203D01*
X123842520Y-143201684D01*
X123859141Y-143181058D01*
X123938818Y-143101382D01*
X123938817Y-143101381D01*
X124292372Y-143101381D01*
X124292372Y-143101382D01*
X124893411Y-143702423D01*
X124893412Y-143702423D01*
X125010545Y-143585290D01*
X125034541Y-143557194D01*
X125034545Y-143557187D01*
X125113662Y-143413275D01*
X125113664Y-143413269D01*
X125154504Y-143254211D01*
X125154505Y-143254204D01*
X125154505Y-143089983D01*
X125154504Y-143089975D01*
X125113664Y-142930917D01*
X125113662Y-142930911D01*
X125034545Y-142786999D01*
X125034541Y-142786992D01*
X125010543Y-142758894D01*
X125010534Y-142758884D01*
X125010533Y-142758883D01*
X125010520Y-142758869D01*
X124822702Y-142571052D01*
X124292372Y-143101381D01*
X123938817Y-143101381D01*
X123862330Y-143024894D01*
X123841178Y-142996638D01*
X123833686Y-142982917D01*
X123818834Y-142914657D01*
X123818963Y-142912848D01*
X123838329Y-142854653D01*
X123842522Y-142848129D01*
X123859143Y-142827504D01*
X124469149Y-142217499D01*
X124469148Y-142217498D01*
X124469149Y-142217498D01*
X124281331Y-142029680D01*
X124281315Y-142029665D01*
X124281307Y-142029658D01*
X124253213Y-142005663D01*
X124253207Y-142005659D01*
X124212733Y-141983408D01*
X124109290Y-141926539D01*
X124109286Y-141926537D01*
X124109285Y-141926537D01*
X124109279Y-141926535D01*
X123950228Y-141885697D01*
X123950226Y-141885697D01*
X123827176Y-141885697D01*
X123792241Y-141880674D01*
X123781387Y-141877487D01*
X123722609Y-141839713D01*
X123693584Y-141776157D01*
X123703524Y-141707008D01*
X123706714Y-141700021D01*
X123731823Y-141663857D01*
X123846257Y-141549423D01*
X123874507Y-141528275D01*
X123897599Y-141515667D01*
X123957024Y-141500500D01*
X124985626Y-141500500D01*
X125020558Y-141505521D01*
X125045802Y-141512934D01*
X125098548Y-141544230D01*
X125834788Y-142280470D01*
X125835478Y-142280968D01*
X125837995Y-142282321D01*
X125867151Y-142299154D01*
X125873683Y-142304166D01*
X125873778Y-142304206D01*
X125888325Y-142311380D01*
X125914708Y-142326612D01*
X125914709Y-142326612D01*
X125914712Y-142326614D01*
X126003856Y-142350500D01*
X126003857Y-142350500D01*
X126003858Y-142350500D01*
X129696142Y-142350500D01*
X129696144Y-142350500D01*
X129785288Y-142326614D01*
X129818711Y-142307317D01*
X129865212Y-142280470D01*
X130680470Y-141465212D01*
X130726614Y-141385288D01*
X130731993Y-141365212D01*
X130745272Y-141315654D01*
X131500000Y-141315654D01*
X131502899Y-141352487D01*
X131502901Y-141352501D01*
X131502902Y-141352505D01*
X131548707Y-141510165D01*
X131548717Y-141510196D01*
X131548718Y-141510199D01*
X131632310Y-141651546D01*
X131632313Y-141651551D01*
X131632322Y-141651562D01*
X131748436Y-141767676D01*
X131748447Y-141767685D01*
X131748452Y-141767688D01*
X131889799Y-141851280D01*
X131889800Y-141851280D01*
X131889803Y-141851282D01*
X131889806Y-141851283D01*
X131889828Y-141851289D01*
X131889833Y-141851291D01*
X132047493Y-141897096D01*
X132047497Y-141897097D01*
X132047504Y-141897099D01*
X132047510Y-141897100D01*
X132084350Y-141899999D01*
X132084366Y-141900000D01*
X132250000Y-141900000D01*
X132750000Y-141900000D01*
X132915629Y-141900000D01*
X132915634Y-141900000D01*
X132915649Y-141899999D01*
X132952489Y-141897100D01*
X132952495Y-141897099D01*
X133110193Y-141851283D01*
X133110196Y-141851282D01*
X133251552Y-141767685D01*
X133251561Y-141767678D01*
X133367678Y-141651561D01*
X133367685Y-141651552D01*
X133451282Y-141510196D01*
X133451283Y-141510193D01*
X133497099Y-141352495D01*
X133497100Y-141352489D01*
X133499999Y-141315649D01*
X133500000Y-141315634D01*
X133500000Y-140050000D01*
X132750000Y-140050000D01*
X132750000Y-141900000D01*
X132250000Y-141900000D01*
X132250000Y-140050000D01*
X131500000Y-140050000D01*
X131500000Y-141315654D01*
X130745272Y-141315654D01*
X130750500Y-141296144D01*
X130750500Y-138284350D01*
X131500000Y-138284350D01*
X131500000Y-139550000D01*
X132250000Y-139550000D01*
X132750000Y-139550000D01*
X133500000Y-139550000D01*
X133500000Y-138620943D01*
X134899500Y-138620943D01*
X134899500Y-138779059D01*
X134916134Y-138841134D01*
X134916134Y-138841137D01*
X134916135Y-138841137D01*
X134940422Y-138931780D01*
X134940424Y-138931787D01*
X134940425Y-138931788D01*
X134940426Y-138931790D01*
X134955481Y-138957867D01*
X135016623Y-139063771D01*
X135016638Y-139063795D01*
X135019475Y-139068709D01*
X135019479Y-139068714D01*
X135019480Y-139068716D01*
X135020049Y-139069285D01*
X135131287Y-139180523D01*
X135131969Y-139181014D01*
X135134475Y-139182363D01*
X135268209Y-139259573D01*
X135268216Y-139259577D01*
X135420943Y-139300500D01*
X135420945Y-139300500D01*
X135448132Y-139300500D01*
X135500227Y-139311973D01*
X135650516Y-139381552D01*
X135703081Y-139427580D01*
X135722409Y-139492525D01*
X135744357Y-141245359D01*
X135744809Y-141257664D01*
X135744876Y-141258761D01*
X135745896Y-141270817D01*
X135747164Y-141277257D01*
X135749500Y-141301210D01*
X135749500Y-142681517D01*
X135753460Y-142706522D01*
X135753461Y-142706526D01*
X135754904Y-142715634D01*
X135764354Y-142775304D01*
X135790475Y-142826570D01*
X135794329Y-142836108D01*
X135794330Y-142836109D01*
X135800829Y-142852192D01*
X135800832Y-142852197D01*
X135809230Y-142865004D01*
X135813805Y-142872554D01*
X135814951Y-142874607D01*
X135821950Y-142888342D01*
X135821952Y-142888344D01*
X135821954Y-142888347D01*
X135823465Y-142889858D01*
X135824704Y-142892077D01*
X135836449Y-142906514D01*
X135947292Y-143075551D01*
X136118664Y-143336898D01*
X136129195Y-143352957D01*
X136149495Y-143419813D01*
X136149500Y-143420953D01*
X136149500Y-145579044D01*
X136129815Y-145646083D01*
X136129195Y-145647040D01*
X135836446Y-146093487D01*
X135829451Y-146104153D01*
X135821954Y-146111652D01*
X135821951Y-146111657D01*
X135812954Y-146129310D01*
X135809241Y-146134974D01*
X135809241Y-146134976D01*
X135800820Y-146147820D01*
X135793478Y-146159714D01*
X135792846Y-146160804D01*
X135786315Y-146172789D01*
X135786313Y-146172794D01*
X135784015Y-146180912D01*
X135775192Y-146203421D01*
X135764352Y-146224695D01*
X135764351Y-146224700D01*
X135749500Y-146318469D01*
X135749500Y-146318475D01*
X135749500Y-149281517D01*
X135754904Y-149315634D01*
X135764354Y-149375304D01*
X135821950Y-149488342D01*
X135821952Y-149488344D01*
X135821954Y-149488347D01*
X135911652Y-149578045D01*
X135911654Y-149578046D01*
X135911658Y-149578050D01*
X136024694Y-149635645D01*
X136024698Y-149635647D01*
X136118220Y-149650458D01*
X136118457Y-149650497D01*
X136118466Y-149650497D01*
X136118475Y-149650499D01*
X136118481Y-149650500D01*
X136881518Y-149650499D01*
X136975304Y-149635646D01*
X137088342Y-149578050D01*
X137178050Y-149488342D01*
X137235646Y-149375304D01*
X137235646Y-149375302D01*
X137235647Y-149375301D01*
X137235649Y-149375288D01*
X137236784Y-149370562D01*
X137236784Y-149370560D01*
X137236786Y-149370554D01*
X137236789Y-149370539D01*
X137237173Y-149365667D01*
X137245094Y-149315654D01*
X139500000Y-149315654D01*
X139502899Y-149352487D01*
X139502901Y-149352501D01*
X139502902Y-149352505D01*
X139548707Y-149510165D01*
X139548717Y-149510196D01*
X139548718Y-149510199D01*
X139632310Y-149651546D01*
X139632313Y-149651551D01*
X139632322Y-149651562D01*
X139748436Y-149767676D01*
X139748447Y-149767685D01*
X139748452Y-149767688D01*
X139889799Y-149851280D01*
X139889800Y-149851280D01*
X139889803Y-149851282D01*
X139889806Y-149851283D01*
X139889828Y-149851289D01*
X139889833Y-149851291D01*
X140047493Y-149897096D01*
X140047497Y-149897097D01*
X140047504Y-149897099D01*
X140047510Y-149897100D01*
X140084350Y-149899999D01*
X140084366Y-149900000D01*
X140250000Y-149900000D01*
X140750000Y-149900000D01*
X140915629Y-149900000D01*
X140915634Y-149900000D01*
X140915649Y-149899999D01*
X140952489Y-149897100D01*
X140952495Y-149897099D01*
X141110193Y-149851283D01*
X141110196Y-149851282D01*
X141251552Y-149767685D01*
X141251561Y-149767678D01*
X141367678Y-149651561D01*
X141367685Y-149651552D01*
X141451282Y-149510196D01*
X141451283Y-149510193D01*
X141497099Y-149352495D01*
X141497100Y-149352489D01*
X141499999Y-149315649D01*
X141500000Y-149315634D01*
X141500000Y-148050000D01*
X140750000Y-148050000D01*
X140750000Y-149900000D01*
X140250000Y-149900000D01*
X140250000Y-148050000D01*
X139500000Y-148050000D01*
X139500000Y-149315654D01*
X137245094Y-149315654D01*
X137250500Y-149281523D01*
X137250500Y-147998638D01*
X137250499Y-146318479D01*
X137247785Y-146301347D01*
X137247781Y-146301319D01*
X137245093Y-146284350D01*
X139500000Y-146284350D01*
X139500000Y-147550000D01*
X140250000Y-147550000D01*
X140750000Y-147550000D01*
X141500000Y-147550000D01*
X141500000Y-146284365D01*
X141499999Y-146284350D01*
X141497100Y-146247510D01*
X141497099Y-146247504D01*
X141493653Y-146235644D01*
X141451291Y-146089833D01*
X141451289Y-146089828D01*
X141451283Y-146089806D01*
X141451282Y-146089803D01*
X141439190Y-146069357D01*
X141367688Y-145948452D01*
X141367685Y-145948447D01*
X141367676Y-145948436D01*
X141251562Y-145832322D01*
X141251551Y-145832313D01*
X141251546Y-145832310D01*
X141110199Y-145748718D01*
X141110196Y-145748717D01*
X141110165Y-145748707D01*
X140952505Y-145702902D01*
X140952501Y-145702901D01*
X140952495Y-145702900D01*
X140952489Y-145702899D01*
X140941963Y-145702070D01*
X140915654Y-145700000D01*
X140915649Y-145700000D01*
X140750000Y-145700000D01*
X140750000Y-147550000D01*
X140250000Y-147550000D01*
X140250000Y-145700000D01*
X140084344Y-145700000D01*
X140052772Y-145702484D01*
X140047510Y-145702899D01*
X140047504Y-145702900D01*
X140047497Y-145702901D01*
X140047493Y-145702902D01*
X139889833Y-145748707D01*
X139889802Y-145748717D01*
X139889799Y-145748718D01*
X139748452Y-145832310D01*
X139748447Y-145832313D01*
X139748436Y-145832322D01*
X139632322Y-145948436D01*
X139632313Y-145948447D01*
X139632310Y-145948452D01*
X139548718Y-146089799D01*
X139548717Y-146089802D01*
X139548707Y-146089833D01*
X139502902Y-146247493D01*
X139502901Y-146247497D01*
X139502900Y-146247504D01*
X139502899Y-146247510D01*
X139500000Y-146284350D01*
X137245093Y-146284350D01*
X137235646Y-146224696D01*
X137209524Y-146173430D01*
X137199169Y-146147804D01*
X137187051Y-146129324D01*
X137178050Y-146111658D01*
X137177849Y-146111380D01*
X137175838Y-146108591D01*
X137163551Y-146093486D01*
X136870805Y-145647039D01*
X136850505Y-145580184D01*
X136850500Y-145579044D01*
X136850500Y-143420953D01*
X136870185Y-143353914D01*
X136870805Y-143352958D01*
X136871284Y-143352228D01*
X137170543Y-142895848D01*
X137178050Y-142888342D01*
X137187056Y-142870666D01*
X137199169Y-142852194D01*
X137206444Y-142840416D01*
X137207080Y-142839321D01*
X137213685Y-142827206D01*
X137215978Y-142819101D01*
X137224806Y-142796577D01*
X137235646Y-142775304D01*
X137235646Y-142775302D01*
X137235647Y-142775301D01*
X137245094Y-142715654D01*
X139500000Y-142715654D01*
X139502899Y-142752487D01*
X139502901Y-142752501D01*
X139502902Y-142752505D01*
X139548707Y-142910165D01*
X139548717Y-142910196D01*
X139548718Y-142910199D01*
X139632310Y-143051546D01*
X139632313Y-143051551D01*
X139632322Y-143051562D01*
X139748436Y-143167676D01*
X139748447Y-143167685D01*
X139748452Y-143167688D01*
X139889799Y-143251280D01*
X139889800Y-143251280D01*
X139889803Y-143251282D01*
X139889806Y-143251283D01*
X139889828Y-143251289D01*
X139889833Y-143251291D01*
X140047493Y-143297096D01*
X140047497Y-143297097D01*
X140047504Y-143297099D01*
X140047510Y-143297100D01*
X140084350Y-143299999D01*
X140084366Y-143300000D01*
X140250000Y-143300000D01*
X140750000Y-143300000D01*
X140915629Y-143300000D01*
X140915634Y-143300000D01*
X140915649Y-143299999D01*
X140952489Y-143297100D01*
X140952495Y-143297099D01*
X141110193Y-143251283D01*
X141110196Y-143251282D01*
X141251552Y-143167685D01*
X141251561Y-143167678D01*
X141367678Y-143051561D01*
X141367685Y-143051552D01*
X141451282Y-142910196D01*
X141451283Y-142910193D01*
X141497099Y-142752495D01*
X141497100Y-142752489D01*
X141499999Y-142715649D01*
X141500000Y-142715634D01*
X141500000Y-141450000D01*
X140750000Y-141450000D01*
X140750000Y-143300000D01*
X140250000Y-143300000D01*
X140250000Y-141450000D01*
X139500000Y-141450000D01*
X139500000Y-142715654D01*
X137245094Y-142715654D01*
X137250500Y-142681524D01*
X137250500Y-141398638D01*
X137250499Y-139718481D01*
X137247781Y-139701319D01*
X137245093Y-139684350D01*
X139500000Y-139684350D01*
X139500000Y-140950000D01*
X140250000Y-140950000D01*
X140750000Y-140950000D01*
X141500000Y-140950000D01*
X141500000Y-139684365D01*
X141499999Y-139684350D01*
X141497100Y-139647510D01*
X141497099Y-139647504D01*
X141457630Y-139511654D01*
X141451291Y-139489833D01*
X141451289Y-139489828D01*
X141451283Y-139489806D01*
X141451282Y-139489803D01*
X141411155Y-139421952D01*
X141367688Y-139348452D01*
X141367685Y-139348447D01*
X141367676Y-139348436D01*
X141251562Y-139232322D01*
X141251551Y-139232313D01*
X141251541Y-139232307D01*
X141110199Y-139148718D01*
X141110196Y-139148717D01*
X141110165Y-139148707D01*
X140952505Y-139102902D01*
X140952501Y-139102901D01*
X140952495Y-139102900D01*
X140952489Y-139102899D01*
X140941963Y-139102070D01*
X140915654Y-139100000D01*
X140915649Y-139100000D01*
X140750000Y-139100000D01*
X140750000Y-140950000D01*
X140250000Y-140950000D01*
X140250000Y-139100000D01*
X140084344Y-139100000D01*
X140052772Y-139102484D01*
X140047510Y-139102899D01*
X140047504Y-139102900D01*
X140047497Y-139102901D01*
X140047493Y-139102902D01*
X139889833Y-139148707D01*
X139889802Y-139148717D01*
X139889799Y-139148718D01*
X139748458Y-139232307D01*
X139748447Y-139232313D01*
X139748436Y-139232322D01*
X139632322Y-139348436D01*
X139632313Y-139348447D01*
X139632310Y-139348452D01*
X139548718Y-139489799D01*
X139548717Y-139489802D01*
X139548707Y-139489833D01*
X139502902Y-139647493D01*
X139502901Y-139647497D01*
X139502900Y-139647504D01*
X139502899Y-139647510D01*
X139500000Y-139684350D01*
X137245093Y-139684350D01*
X137235646Y-139624696D01*
X137235645Y-139624694D01*
X137235644Y-139624691D01*
X137197586Y-139550000D01*
X137178050Y-139511658D01*
X137178046Y-139511654D01*
X137178045Y-139511652D01*
X137088347Y-139421954D01*
X137088344Y-139421952D01*
X137088342Y-139421950D01*
X137088341Y-139421949D01*
X136998913Y-139376383D01*
X136998912Y-139376383D01*
X136975300Y-139364351D01*
X136975296Y-139364350D01*
X136881530Y-139349500D01*
X136881524Y-139349500D01*
X136881519Y-139349500D01*
X136782358Y-139349500D01*
X136715319Y-139329815D01*
X136704401Y-139321930D01*
X136285970Y-138983659D01*
X136285935Y-138983640D01*
X136285880Y-138983598D01*
X136281601Y-138980703D01*
X136281753Y-138980476D01*
X136258775Y-138963093D01*
X136227618Y-138931936D01*
X136202773Y-138896351D01*
X136111974Y-138700227D01*
X136100500Y-138648131D01*
X136100500Y-138620943D01*
X136086502Y-138568702D01*
X136059577Y-138468216D01*
X136029950Y-138416900D01*
X135980524Y-138331290D01*
X135980518Y-138331282D01*
X135980513Y-138331276D01*
X135868722Y-138219485D01*
X135868720Y-138219484D01*
X135868717Y-138219481D01*
X135868709Y-138219475D01*
X135801915Y-138180912D01*
X135731807Y-138140435D01*
X135731783Y-138140422D01*
X135612392Y-138108432D01*
X135579057Y-138099500D01*
X135579056Y-138099500D01*
X135420943Y-138099500D01*
X135268218Y-138140422D01*
X135268211Y-138140424D01*
X135268210Y-138140425D01*
X135268200Y-138140430D01*
X135131298Y-138219470D01*
X135131294Y-138219472D01*
X135131290Y-138219475D01*
X135131282Y-138219481D01*
X135131278Y-138219484D01*
X135131276Y-138219485D01*
X135019485Y-138331276D01*
X135019484Y-138331278D01*
X135019481Y-138331281D01*
X135019481Y-138331282D01*
X135019475Y-138331290D01*
X135019472Y-138331294D01*
X135019470Y-138331298D01*
X134940430Y-138468200D01*
X134940425Y-138468210D01*
X134940424Y-138468211D01*
X134940422Y-138468218D01*
X134899500Y-138620943D01*
X133500000Y-138620943D01*
X133500000Y-138284365D01*
X133499999Y-138284350D01*
X133497100Y-138247510D01*
X133497099Y-138247504D01*
X133492976Y-138233314D01*
X133451291Y-138089833D01*
X133451289Y-138089828D01*
X133451283Y-138089806D01*
X133451282Y-138089803D01*
X133410042Y-138020070D01*
X133367688Y-137948452D01*
X133367685Y-137948447D01*
X133367676Y-137948436D01*
X133251562Y-137832322D01*
X133251551Y-137832313D01*
X133251546Y-137832310D01*
X133110199Y-137748718D01*
X133110196Y-137748717D01*
X133110165Y-137748707D01*
X132952505Y-137702902D01*
X132952501Y-137702901D01*
X132952495Y-137702900D01*
X132952489Y-137702899D01*
X132941963Y-137702070D01*
X132915654Y-137700000D01*
X132915649Y-137700000D01*
X132750000Y-137700000D01*
X132750000Y-139550000D01*
X132250000Y-139550000D01*
X132250000Y-137700000D01*
X132084344Y-137700000D01*
X132052772Y-137702484D01*
X132047510Y-137702899D01*
X132047504Y-137702900D01*
X132047497Y-137702901D01*
X132047493Y-137702902D01*
X131889833Y-137748707D01*
X131889802Y-137748717D01*
X131889799Y-137748718D01*
X131748452Y-137832310D01*
X131748447Y-137832313D01*
X131748436Y-137832322D01*
X131632322Y-137948436D01*
X131632313Y-137948447D01*
X131632310Y-137948452D01*
X131548718Y-138089799D01*
X131548717Y-138089802D01*
X131548707Y-138089833D01*
X131502902Y-138247493D01*
X131502901Y-138247497D01*
X131502900Y-138247504D01*
X131502899Y-138247510D01*
X131500000Y-138284350D01*
X130750500Y-138284350D01*
X130750500Y-137514373D01*
X130755522Y-137479440D01*
X130762934Y-137454195D01*
X130794228Y-137401453D01*
X131496258Y-136699423D01*
X131524508Y-136678275D01*
X131547600Y-136665667D01*
X131607025Y-136650500D01*
X133046142Y-136650500D01*
X133046144Y-136650500D01*
X133135288Y-136626614D01*
X133215212Y-136580470D01*
X135096258Y-134699423D01*
X135124508Y-134678275D01*
X135147600Y-134665667D01*
X135207025Y-134650500D01*
X136778908Y-134650500D01*
X136813835Y-134655521D01*
X136824688Y-134658707D01*
X136883469Y-134696477D01*
X136912498Y-134760031D01*
X136902559Y-134829190D01*
X136902555Y-134829199D01*
X136899370Y-134836173D01*
X136874258Y-134872341D01*
X136766683Y-134979916D01*
X136766672Y-134979928D01*
X136583102Y-135219163D01*
X136432316Y-135480330D01*
X136432288Y-135480388D01*
X136432032Y-135481018D01*
X136316912Y-135758940D01*
X136270938Y-135930520D01*
X136238862Y-136050232D01*
X136238859Y-136050243D01*
X136199501Y-136349199D01*
X136199500Y-136349228D01*
X136199500Y-136650770D01*
X136199501Y-136650799D01*
X136238859Y-136949755D01*
X136238860Y-136949760D01*
X136238861Y-136949766D01*
X136246557Y-136978486D01*
X136316912Y-137241058D01*
X136432032Y-137518980D01*
X136432292Y-137519618D01*
X136432316Y-137519668D01*
X136432318Y-137519671D01*
X136583099Y-137780831D01*
X136583100Y-137780832D01*
X136583102Y-137780835D01*
X136766672Y-138020070D01*
X136766676Y-138020075D01*
X136766679Y-138020078D01*
X136766685Y-138020085D01*
X136979914Y-138233314D01*
X136979921Y-138233320D01*
X136979924Y-138233322D01*
X136979928Y-138233326D01*
X137107597Y-138331289D01*
X137219168Y-138416900D01*
X137476899Y-138565701D01*
X137482093Y-138568701D01*
X137482095Y-138568702D01*
X137482683Y-138569042D01*
X137487828Y-138570787D01*
X137608913Y-138620943D01*
X137754872Y-138681402D01*
X137754873Y-138681402D01*
X137758939Y-138683086D01*
X137758940Y-138683086D01*
X137758942Y-138683087D01*
X137758945Y-138683087D01*
X137759692Y-138683397D01*
X137762842Y-138684132D01*
X138050232Y-138761138D01*
X138349217Y-138800500D01*
X138349224Y-138800500D01*
X138650776Y-138800500D01*
X138650783Y-138800500D01*
X138949768Y-138761138D01*
X139241058Y-138683087D01*
X139519668Y-138567683D01*
X139780832Y-138416900D01*
X140020080Y-138233319D01*
X140233319Y-138020080D01*
X140416900Y-137780832D01*
X140567683Y-137519668D01*
X140683087Y-137241058D01*
X140761138Y-136949768D01*
X140800500Y-136650783D01*
X140800500Y-136349217D01*
X140761138Y-136050232D01*
X140683087Y-135758942D01*
X140673404Y-135735566D01*
X140625385Y-135619637D01*
X140567683Y-135480332D01*
X140504528Y-135370945D01*
X140416900Y-135219168D01*
X140377396Y-135167685D01*
X140233326Y-134979928D01*
X140233322Y-134979924D01*
X140233320Y-134979921D01*
X140233314Y-134979914D01*
X140020085Y-134766685D01*
X140020078Y-134766679D01*
X140020075Y-134766676D01*
X140020070Y-134766672D01*
X139780835Y-134583102D01*
X139780834Y-134583101D01*
X139780831Y-134583099D01*
X139519671Y-134432318D01*
X139519672Y-134432318D01*
X139519668Y-134432316D01*
X139519618Y-134432292D01*
X139518980Y-134432032D01*
X139241058Y-134316912D01*
X139095413Y-134277887D01*
X138949766Y-134238861D01*
X138949760Y-134238860D01*
X138949755Y-134238859D01*
X138654883Y-134200039D01*
X138652867Y-134199705D01*
X138650793Y-134199500D01*
X138650788Y-134199500D01*
X138650783Y-134199500D01*
X138349217Y-134199500D01*
X138349211Y-134199500D01*
X138349206Y-134199500D01*
X138347129Y-134199705D01*
X138345115Y-134200039D01*
X138050234Y-134238860D01*
X137840442Y-134295074D01*
X137803380Y-134294978D01*
X137785278Y-134298471D01*
X137776375Y-134294908D01*
X137775641Y-134294907D01*
X137765742Y-134292200D01*
X137766123Y-134290806D01*
X137720409Y-134272514D01*
X137679870Y-134215607D01*
X137674763Y-134154452D01*
X137674866Y-134153837D01*
X137696147Y-134102484D01*
X137697457Y-134100644D01*
X137710763Y-134084917D01*
X138480027Y-133315654D01*
X139500000Y-133315654D01*
X139501032Y-133328766D01*
X139502756Y-133350678D01*
X139502899Y-133352487D01*
X139502901Y-133352501D01*
X139502902Y-133352505D01*
X139548707Y-133510165D01*
X139548717Y-133510196D01*
X139548718Y-133510199D01*
X139632310Y-133651546D01*
X139632313Y-133651551D01*
X139632322Y-133651562D01*
X139748436Y-133767676D01*
X139748447Y-133767685D01*
X139748452Y-133767688D01*
X139889799Y-133851280D01*
X139889800Y-133851280D01*
X139889803Y-133851282D01*
X139889806Y-133851283D01*
X139889828Y-133851289D01*
X139889833Y-133851291D01*
X140047493Y-133897096D01*
X140047497Y-133897097D01*
X140047504Y-133897099D01*
X140047510Y-133897100D01*
X140084350Y-133899999D01*
X140084366Y-133900000D01*
X140250000Y-133900000D01*
X140750000Y-133900000D01*
X140915629Y-133900000D01*
X140915634Y-133900000D01*
X140915649Y-133899999D01*
X140952489Y-133897100D01*
X140952495Y-133897099D01*
X141110193Y-133851283D01*
X141110196Y-133851282D01*
X141251552Y-133767685D01*
X141251561Y-133767678D01*
X141367678Y-133651561D01*
X141367685Y-133651552D01*
X141451282Y-133510196D01*
X141451283Y-133510193D01*
X141497099Y-133352495D01*
X141497100Y-133352489D01*
X141499999Y-133315649D01*
X141500000Y-133315634D01*
X141500000Y-132050000D01*
X140750000Y-132050000D01*
X140750000Y-133900000D01*
X140250000Y-133900000D01*
X140250000Y-132050000D01*
X139500000Y-132050000D01*
X139500000Y-133315654D01*
X138480027Y-133315654D01*
X138780469Y-133015212D01*
X138826614Y-132935288D01*
X138830836Y-132919531D01*
X138850500Y-132846144D01*
X138850500Y-130284350D01*
X139500000Y-130284350D01*
X139500000Y-131550000D01*
X140250000Y-131550000D01*
X140750000Y-131550000D01*
X141500000Y-131550000D01*
X141500000Y-130284365D01*
X141499999Y-130284350D01*
X141497100Y-130247510D01*
X141497099Y-130247504D01*
X141493405Y-130234791D01*
X141451291Y-130089833D01*
X141451289Y-130089828D01*
X141451283Y-130089806D01*
X141451282Y-130089803D01*
X141416973Y-130031790D01*
X141367688Y-129948452D01*
X141367685Y-129948447D01*
X141367676Y-129948436D01*
X141251562Y-129832322D01*
X141251551Y-129832313D01*
X141251546Y-129832310D01*
X141110199Y-129748718D01*
X141110196Y-129748717D01*
X141110165Y-129748707D01*
X140952505Y-129702902D01*
X140952501Y-129702901D01*
X140952495Y-129702900D01*
X140952489Y-129702899D01*
X140941963Y-129702070D01*
X140915654Y-129700000D01*
X140915649Y-129700000D01*
X140750000Y-129700000D01*
X140750000Y-131550000D01*
X140250000Y-131550000D01*
X140250000Y-129700000D01*
X140084344Y-129700000D01*
X140052772Y-129702484D01*
X140047510Y-129702899D01*
X140047504Y-129702900D01*
X140047497Y-129702901D01*
X140047493Y-129702902D01*
X139889833Y-129748707D01*
X139889802Y-129748717D01*
X139889799Y-129748718D01*
X139748452Y-129832310D01*
X139748447Y-129832313D01*
X139748436Y-129832322D01*
X139632322Y-129948436D01*
X139632313Y-129948447D01*
X139632310Y-129948452D01*
X139548718Y-130089799D01*
X139548717Y-130089802D01*
X139548707Y-130089833D01*
X139502902Y-130247493D01*
X139502901Y-130247497D01*
X139502899Y-130247511D01*
X139500212Y-130281660D01*
X139500000Y-130284350D01*
X138850500Y-130284350D01*
X138850500Y-126715654D01*
X139500000Y-126715654D01*
X139502899Y-126752487D01*
X139502901Y-126752501D01*
X139502902Y-126752505D01*
X139548707Y-126910165D01*
X139548717Y-126910196D01*
X139548718Y-126910199D01*
X139632310Y-127051546D01*
X139632313Y-127051551D01*
X139632322Y-127051562D01*
X139748436Y-127167676D01*
X139748447Y-127167685D01*
X139748452Y-127167688D01*
X139889799Y-127251280D01*
X139889800Y-127251280D01*
X139889803Y-127251282D01*
X139889806Y-127251283D01*
X139889828Y-127251289D01*
X139889833Y-127251291D01*
X140047493Y-127297096D01*
X140047497Y-127297097D01*
X140047504Y-127297099D01*
X140047510Y-127297100D01*
X140084350Y-127299999D01*
X140084366Y-127300000D01*
X140250000Y-127300000D01*
X140750000Y-127300000D01*
X140915629Y-127300000D01*
X140915634Y-127300000D01*
X140915649Y-127299999D01*
X140952489Y-127297100D01*
X140952495Y-127297099D01*
X141110193Y-127251283D01*
X141110196Y-127251282D01*
X141251552Y-127167685D01*
X141251561Y-127167678D01*
X141367678Y-127051561D01*
X141367685Y-127051552D01*
X141451282Y-126910196D01*
X141451283Y-126910193D01*
X141497099Y-126752495D01*
X141497100Y-126752489D01*
X141499999Y-126715649D01*
X141500000Y-126715634D01*
X141500000Y-125450000D01*
X140750000Y-125450000D01*
X140750000Y-127300000D01*
X140250000Y-127300000D01*
X140250000Y-125450000D01*
X139500000Y-125450000D01*
X139500000Y-126715654D01*
X138850500Y-126715654D01*
X138850500Y-124164373D01*
X138855522Y-124129440D01*
X138862934Y-124104195D01*
X138894228Y-124051453D01*
X139275714Y-123669967D01*
X139303957Y-123648823D01*
X139313891Y-123643399D01*
X139382161Y-123628546D01*
X139447626Y-123652960D01*
X139489499Y-123708892D01*
X139489501Y-123708896D01*
X139492182Y-123716084D01*
X139500000Y-123759418D01*
X139500000Y-124950000D01*
X140250000Y-124950000D01*
X140750000Y-124950000D01*
X141500000Y-124950000D01*
X141500000Y-123684365D01*
X141499999Y-123684350D01*
X141497100Y-123647510D01*
X141497099Y-123647504D01*
X141474063Y-123568216D01*
X141451291Y-123489833D01*
X141451289Y-123489828D01*
X141451283Y-123489806D01*
X141451282Y-123489803D01*
X141412931Y-123424955D01*
X141367688Y-123348452D01*
X141367685Y-123348447D01*
X141367676Y-123348436D01*
X141251562Y-123232322D01*
X141251551Y-123232313D01*
X141251541Y-123232307D01*
X141110199Y-123148718D01*
X141110196Y-123148717D01*
X141110165Y-123148707D01*
X140952505Y-123102902D01*
X140952501Y-123102901D01*
X140952495Y-123102900D01*
X140952489Y-123102899D01*
X140941963Y-123102070D01*
X140915654Y-123100000D01*
X140915649Y-123100000D01*
X140750000Y-123100000D01*
X140750000Y-124950000D01*
X140250000Y-124950000D01*
X140250000Y-123139388D01*
X140121039Y-123098474D01*
X140117606Y-123097157D01*
X140114319Y-123094647D01*
X140102520Y-123088948D01*
X140102485Y-123089024D01*
X140097613Y-123086735D01*
X140097222Y-123086389D01*
X140092767Y-123084237D01*
X140085942Y-123079640D01*
X140087309Y-123077609D01*
X140045307Y-123040412D01*
X140026349Y-122973163D01*
X140042728Y-122919534D01*
X140040498Y-122918516D01*
X140042404Y-122914341D01*
X140045815Y-122909426D01*
X140046758Y-122906341D01*
X140046769Y-122906325D01*
X140049726Y-122901833D01*
X140050660Y-122902448D01*
X140067521Y-122878160D01*
X141396258Y-121549423D01*
X141424508Y-121528275D01*
X141447600Y-121515667D01*
X141507025Y-121500500D01*
X141583072Y-121500500D01*
X141617999Y-121505521D01*
G37*
%TD.AperFunction*%
%TA.AperFunction,Conductor*%
G36*
X151243106Y-95180023D02*
G01*
X151258104Y-95184427D01*
X151316855Y-95222172D01*
X151318042Y-95223541D01*
X151345518Y-95278402D01*
X151347163Y-95285960D01*
X151350000Y-95312331D01*
X151350000Y-96175000D01*
X151557670Y-96175000D01*
X151592606Y-96180023D01*
X151607604Y-96184427D01*
X151666355Y-96222172D01*
X151667542Y-96223541D01*
X151695018Y-96278402D01*
X151696663Y-96285960D01*
X151699500Y-96312331D01*
X151699503Y-105652406D01*
X151699503Y-105700005D01*
X151699502Y-105767661D01*
X151699502Y-105767672D01*
X151729611Y-105899587D01*
X151788322Y-106021502D01*
X151788323Y-106021504D01*
X151788360Y-106021559D01*
X151788829Y-106022139D01*
X151872697Y-106127306D01*
X151978495Y-106211677D01*
X151978498Y-106211679D01*
X152100414Y-106270390D01*
X152100412Y-106270390D01*
X152178443Y-106288199D01*
X152232342Y-106300501D01*
X152300002Y-106300500D01*
X159557667Y-106300500D01*
X159592603Y-106305523D01*
X159607601Y-106309927D01*
X159666352Y-106347672D01*
X159667539Y-106349041D01*
X159695015Y-106403902D01*
X159696660Y-106411460D01*
X159699497Y-106437831D01*
X159699497Y-136557667D01*
X159694472Y-136592611D01*
X159690067Y-136607609D01*
X159652324Y-136666352D01*
X159650955Y-136667539D01*
X159596094Y-136695015D01*
X159588536Y-136696660D01*
X159562165Y-136699497D01*
X152252547Y-136699497D01*
X152252299Y-136699500D01*
X152232333Y-136699500D01*
X152100417Y-136729610D01*
X152021408Y-136767660D01*
X152021407Y-136767659D01*
X151978493Y-136788326D01*
X151978486Y-136788331D01*
X151872698Y-136872695D01*
X151788333Y-136978483D01*
X151788332Y-136978485D01*
X151729613Y-137100414D01*
X151699503Y-137232330D01*
X151699503Y-137299998D01*
X151699502Y-137347585D01*
X151699502Y-137347590D01*
X151699500Y-146683170D01*
X151694475Y-146718112D01*
X151694308Y-146718681D01*
X151690070Y-146733112D01*
X151652327Y-146791855D01*
X151650958Y-146793042D01*
X151596097Y-146820518D01*
X151588539Y-146822163D01*
X151562168Y-146825000D01*
X151350000Y-146825000D01*
X151350000Y-147683170D01*
X151344975Y-147718114D01*
X151340570Y-147733112D01*
X151302827Y-147791855D01*
X151301458Y-147793042D01*
X151246597Y-147820518D01*
X151239039Y-147822163D01*
X151212668Y-147825000D01*
X151100000Y-147825000D01*
X151100000Y-147933170D01*
X151094975Y-147968114D01*
X151090570Y-147983112D01*
X151052827Y-148041855D01*
X151051458Y-148043042D01*
X150996597Y-148070518D01*
X150989039Y-148072163D01*
X150962668Y-148075000D01*
X150000000Y-148075000D01*
X150000000Y-148200312D01*
X149994975Y-148235253D01*
X149991064Y-148248570D01*
X149953287Y-148307346D01*
X149889729Y-148336368D01*
X149889711Y-148336371D01*
X149888102Y-148336602D01*
X149829941Y-148331046D01*
X149826785Y-148329954D01*
X149825203Y-148329406D01*
X149817959Y-148326097D01*
X149817795Y-148326495D01*
X149810289Y-148323386D01*
X149765716Y-148311443D01*
X149721144Y-148299500D01*
X149721143Y-148299500D01*
X149553389Y-148299500D01*
X149518451Y-148294476D01*
X149506025Y-148290827D01*
X149447248Y-148253051D01*
X149418225Y-148189494D01*
X149426067Y-148125215D01*
X149429555Y-148116622D01*
X149444134Y-148090374D01*
X149455301Y-148075005D01*
X149455304Y-148075000D01*
X149476433Y-148045919D01*
X149574726Y-147853009D01*
X149641630Y-147647097D01*
X149675500Y-147433254D01*
X149675500Y-147409350D01*
X150000000Y-147409350D01*
X150000000Y-147575000D01*
X150850000Y-147575000D01*
X150850000Y-146825000D01*
X150584344Y-146825000D01*
X150552772Y-146827484D01*
X150547510Y-146827899D01*
X150547504Y-146827900D01*
X150547497Y-146827901D01*
X150547493Y-146827902D01*
X150389833Y-146873707D01*
X150389802Y-146873717D01*
X150389799Y-146873718D01*
X150248452Y-146957310D01*
X150248447Y-146957313D01*
X150248436Y-146957322D01*
X150132322Y-147073436D01*
X150132313Y-147073447D01*
X150132310Y-147073452D01*
X150048718Y-147214799D01*
X150048717Y-147214802D01*
X150048707Y-147214833D01*
X150002902Y-147372493D01*
X150002901Y-147372497D01*
X150002900Y-147372504D01*
X150002899Y-147372510D01*
X150000000Y-147409350D01*
X149675500Y-147409350D01*
X149675500Y-147216746D01*
X149641630Y-147002903D01*
X149600057Y-146874952D01*
X149574727Y-146796993D01*
X149574726Y-146796990D01*
X149524642Y-146698697D01*
X149486529Y-146623895D01*
X149476434Y-146604082D01*
X149409754Y-146512306D01*
X149349172Y-146428922D01*
X149349171Y-146428921D01*
X149348448Y-146428075D01*
X149346466Y-146425199D01*
X149346308Y-146424981D01*
X149346313Y-146424977D01*
X149333912Y-146406978D01*
X149326639Y-146393660D01*
X149311784Y-146325388D01*
X149335760Y-146260510D01*
X149343775Y-146249670D01*
X149367989Y-146225021D01*
X149520080Y-146108319D01*
X149733319Y-145895080D01*
X149916900Y-145655832D01*
X150067683Y-145394668D01*
X150183087Y-145116058D01*
X150261138Y-144824768D01*
X150300500Y-144525783D01*
X150300500Y-144224217D01*
X150261138Y-143925232D01*
X150183087Y-143633942D01*
X150169594Y-143601368D01*
X150137071Y-143522849D01*
X150067683Y-143355332D01*
X150043569Y-143313566D01*
X149916900Y-143094168D01*
X149867283Y-143029505D01*
X149733326Y-142854928D01*
X149733322Y-142854924D01*
X149733320Y-142854921D01*
X149733314Y-142854914D01*
X149520085Y-142641685D01*
X149520078Y-142641679D01*
X149520075Y-142641676D01*
X149520070Y-142641672D01*
X149280830Y-142458098D01*
X149019676Y-142307321D01*
X149019663Y-142307314D01*
X149019659Y-142307313D01*
X148741058Y-142191912D01*
X148449763Y-142113860D01*
X148351229Y-142100889D01*
X148317246Y-142091348D01*
X148305838Y-142086301D01*
X148252494Y-142041177D01*
X148232015Y-141974376D01*
X148248993Y-141910261D01*
X148250000Y-141908542D01*
X148250000Y-141900000D01*
X148750000Y-141900000D01*
X148915629Y-141900000D01*
X148915634Y-141900000D01*
X148915649Y-141899999D01*
X148952489Y-141897100D01*
X148952495Y-141897099D01*
X149110193Y-141851283D01*
X149110196Y-141851282D01*
X149251552Y-141767685D01*
X149251561Y-141767678D01*
X149367678Y-141651561D01*
X149367685Y-141651552D01*
X149451282Y-141510196D01*
X149451283Y-141510193D01*
X149497099Y-141352495D01*
X149497100Y-141352489D01*
X149499999Y-141315649D01*
X149500000Y-141315634D01*
X149500000Y-140050000D01*
X148750000Y-140050000D01*
X148750000Y-141900000D01*
X148250000Y-141900000D01*
X148250000Y-140050000D01*
X147500000Y-140050000D01*
X147500000Y-141315654D01*
X147502899Y-141352487D01*
X147502901Y-141352501D01*
X147502902Y-141352505D01*
X147548707Y-141510165D01*
X147548717Y-141510196D01*
X147548718Y-141510199D01*
X147631100Y-141649500D01*
X147632314Y-141651552D01*
X147632321Y-141651561D01*
X147748438Y-141767678D01*
X147748446Y-141767684D01*
X147748450Y-141767687D01*
X147866688Y-141837612D01*
X147894201Y-141859719D01*
X147901918Y-141867984D01*
X147933282Y-141930419D01*
X147925913Y-141999898D01*
X147882151Y-142054363D01*
X147878939Y-142056600D01*
X147824257Y-142077785D01*
X147590667Y-142108537D01*
X147590667Y-142108538D01*
X147583927Y-142109425D01*
X147550227Y-142113862D01*
X147477409Y-142133373D01*
X147477409Y-142133374D01*
X147406131Y-142152473D01*
X147258938Y-142191913D01*
X146980335Y-142307315D01*
X146980314Y-142307326D01*
X146719168Y-142458098D01*
X146479928Y-142641672D01*
X146479913Y-142641686D01*
X146479905Y-142641693D01*
X146266693Y-142854905D01*
X146266686Y-142854913D01*
X146266672Y-142854928D01*
X146083102Y-143094163D01*
X145932316Y-143355330D01*
X145932288Y-143355388D01*
X145932032Y-143356018D01*
X145816912Y-143633940D01*
X145759979Y-143846420D01*
X145738862Y-143925232D01*
X145738859Y-143925243D01*
X145699501Y-144224199D01*
X145699500Y-144224228D01*
X145699500Y-144525770D01*
X145699501Y-144525799D01*
X145738859Y-144824755D01*
X145738860Y-144824760D01*
X145738861Y-144824766D01*
X145738862Y-144824768D01*
X145816912Y-145116058D01*
X145870121Y-145244514D01*
X145927625Y-145383342D01*
X145932032Y-145393980D01*
X145932292Y-145394618D01*
X145932316Y-145394668D01*
X145954754Y-145433531D01*
X146083099Y-145655831D01*
X146083100Y-145655832D01*
X146083102Y-145655835D01*
X146266672Y-145895070D01*
X146266676Y-145895075D01*
X146266679Y-145895078D01*
X146266685Y-145895085D01*
X146479914Y-146108314D01*
X146479921Y-146108320D01*
X146479924Y-146108322D01*
X146479928Y-146108326D01*
X146593045Y-146195123D01*
X146719168Y-146291900D01*
X146980328Y-146442681D01*
X146980343Y-146442688D01*
X147026106Y-146461643D01*
X147056456Y-146479650D01*
X147057372Y-146480388D01*
X147068276Y-146489175D01*
X147108124Y-146546568D01*
X147111541Y-146612515D01*
X147109023Y-146623895D01*
X147098436Y-146653401D01*
X147028563Y-146790533D01*
X147027618Y-146792147D01*
X147025271Y-146796993D01*
X146958370Y-147002897D01*
X146924500Y-147216746D01*
X146924500Y-147433252D01*
X146958370Y-147647101D01*
X147025263Y-147852982D01*
X147025270Y-147853001D01*
X147025270Y-147853002D01*
X147025271Y-147853005D01*
X147025272Y-147853006D01*
X147025273Y-147853009D01*
X147123567Y-148045919D01*
X147123571Y-148045924D01*
X147223906Y-148184024D01*
X147240378Y-148215242D01*
X147245631Y-148229966D01*
X147249624Y-148299695D01*
X147249019Y-148302299D01*
X147221856Y-148355547D01*
X147212067Y-148366818D01*
X147206128Y-148373189D01*
X146549952Y-149029364D01*
X146488629Y-149062849D01*
X146418937Y-149057865D01*
X146390568Y-149042849D01*
X146260010Y-148950314D01*
X146216698Y-148895489D01*
X146209902Y-148825950D01*
X146232480Y-148774793D01*
X146233385Y-148773584D01*
X146269490Y-148741216D01*
X146351550Y-148692687D01*
X146351561Y-148692678D01*
X146467678Y-148576561D01*
X146467685Y-148576552D01*
X146551282Y-148435196D01*
X146551283Y-148435193D01*
X146597099Y-148277495D01*
X146597100Y-148277489D01*
X146599999Y-148240649D01*
X146600000Y-148240634D01*
X146600000Y-148075000D01*
X144400000Y-148075000D01*
X144400000Y-148240654D01*
X144402899Y-148277487D01*
X144402901Y-148277501D01*
X144402902Y-148277505D01*
X144448707Y-148435165D01*
X144448717Y-148435196D01*
X144448718Y-148435199D01*
X144518632Y-148553417D01*
X144532314Y-148576552D01*
X144532321Y-148576561D01*
X144596897Y-148641137D01*
X144648438Y-148692678D01*
X144648459Y-148692692D01*
X144726418Y-148738798D01*
X144753921Y-148760894D01*
X144756959Y-148764147D01*
X144788330Y-148826578D01*
X144780968Y-148896059D01*
X144737211Y-148950529D01*
X144736072Y-148951313D01*
X144619114Y-149030863D01*
X144552610Y-149052290D01*
X144485080Y-149034361D01*
X144461695Y-149016013D01*
X144099426Y-148653744D01*
X144078274Y-148625488D01*
X144065667Y-148602399D01*
X144050500Y-148542974D01*
X144050500Y-147314373D01*
X144055522Y-147279440D01*
X144062934Y-147254195D01*
X144094229Y-147201452D01*
X144139942Y-147155740D01*
X144274447Y-147021233D01*
X144302702Y-147000084D01*
X144308061Y-146997158D01*
X144376334Y-146982308D01*
X144441798Y-147006727D01*
X144483667Y-147062662D01*
X144488649Y-147132354D01*
X144488648Y-147132362D01*
X144487762Y-147136433D01*
X144473331Y-147173183D01*
X144448700Y-147214832D01*
X144448436Y-147215768D01*
X144402902Y-147372493D01*
X144402901Y-147372497D01*
X144402900Y-147372504D01*
X144402899Y-147372510D01*
X144400000Y-147409350D01*
X144400000Y-147575000D01*
X145250000Y-147575000D01*
X145750000Y-147575000D01*
X146600000Y-147575000D01*
X146600000Y-147409365D01*
X146599999Y-147409350D01*
X146597100Y-147372510D01*
X146597099Y-147372504D01*
X146590333Y-147349217D01*
X146551291Y-147214833D01*
X146551289Y-147214828D01*
X146551283Y-147214806D01*
X146551282Y-147214803D01*
X146545172Y-147204472D01*
X146467688Y-147073452D01*
X146467685Y-147073447D01*
X146467676Y-147073436D01*
X146351562Y-146957322D01*
X146351551Y-146957313D01*
X146351546Y-146957310D01*
X146210199Y-146873718D01*
X146210196Y-146873717D01*
X146210165Y-146873707D01*
X146052505Y-146827902D01*
X146052501Y-146827901D01*
X146052495Y-146827900D01*
X146052489Y-146827899D01*
X146041963Y-146827070D01*
X146015654Y-146825000D01*
X146015649Y-146825000D01*
X145750000Y-146825000D01*
X145750000Y-147575000D01*
X145250000Y-147575000D01*
X145250000Y-146825000D01*
X144984344Y-146825000D01*
X144952772Y-146827484D01*
X144947510Y-146827899D01*
X144947504Y-146827900D01*
X144947497Y-146827901D01*
X144947493Y-146827902D01*
X144802623Y-146869991D01*
X144802617Y-146869993D01*
X144789806Y-146873716D01*
X144789805Y-146873716D01*
X144746966Y-146899050D01*
X144744047Y-146900575D01*
X144740207Y-146901335D01*
X144717161Y-146910844D01*
X144711243Y-146912346D01*
X144688824Y-146911515D01*
X144675510Y-146914153D01*
X144666746Y-146910697D01*
X144641422Y-146909759D01*
X144611457Y-146888894D01*
X144610511Y-146888521D01*
X144610098Y-146887947D01*
X144584083Y-146869833D01*
X144557432Y-146805246D01*
X144569930Y-146736503D01*
X144569931Y-146736500D01*
X144571633Y-146733112D01*
X144571804Y-146732772D01*
X144594926Y-146700754D01*
X145230470Y-146065212D01*
X145276614Y-145985288D01*
X145282223Y-145964354D01*
X145300500Y-145896144D01*
X145300500Y-143114373D01*
X145305522Y-143079440D01*
X145306664Y-143075551D01*
X145312934Y-143054195D01*
X145344228Y-143001453D01*
X146073195Y-142272487D01*
X146830470Y-141515212D01*
X146876614Y-141435288D01*
X146886745Y-141397479D01*
X146890011Y-141385289D01*
X146890011Y-141385288D01*
X146900500Y-141346144D01*
X146900500Y-138284350D01*
X147500000Y-138284350D01*
X147500000Y-139550000D01*
X148250000Y-139550000D01*
X148750000Y-139550000D01*
X149500000Y-139550000D01*
X149500000Y-138284365D01*
X149499999Y-138284350D01*
X149497100Y-138247510D01*
X149497099Y-138247504D01*
X149492976Y-138233314D01*
X149451291Y-138089833D01*
X149451289Y-138089828D01*
X149451283Y-138089806D01*
X149451282Y-138089803D01*
X149410042Y-138020070D01*
X149367688Y-137948452D01*
X149367685Y-137948447D01*
X149367676Y-137948436D01*
X149251562Y-137832322D01*
X149251551Y-137832313D01*
X149251546Y-137832310D01*
X149110199Y-137748718D01*
X149110196Y-137748717D01*
X149110165Y-137748707D01*
X148952505Y-137702902D01*
X148952501Y-137702901D01*
X148952495Y-137702900D01*
X148952489Y-137702899D01*
X148941963Y-137702070D01*
X148915654Y-137700000D01*
X148915649Y-137700000D01*
X148750000Y-137700000D01*
X148750000Y-139550000D01*
X148250000Y-139550000D01*
X148250000Y-137700000D01*
X148084344Y-137700000D01*
X148052772Y-137702484D01*
X148047510Y-137702899D01*
X148047504Y-137702900D01*
X148047497Y-137702901D01*
X148047493Y-137702902D01*
X147889833Y-137748707D01*
X147889802Y-137748717D01*
X147889799Y-137748718D01*
X147748452Y-137832310D01*
X147748447Y-137832313D01*
X147748436Y-137832322D01*
X147632322Y-137948436D01*
X147632313Y-137948447D01*
X147632310Y-137948452D01*
X147548718Y-138089799D01*
X147548717Y-138089802D01*
X147548707Y-138089833D01*
X147502902Y-138247493D01*
X147502901Y-138247497D01*
X147502900Y-138247504D01*
X147502899Y-138247510D01*
X147500000Y-138284350D01*
X146900500Y-138284350D01*
X146900500Y-134715654D01*
X147500000Y-134715654D01*
X147502899Y-134752487D01*
X147502901Y-134752501D01*
X147502902Y-134752505D01*
X147548707Y-134910165D01*
X147548717Y-134910196D01*
X147548718Y-134910199D01*
X147632310Y-135051546D01*
X147632313Y-135051551D01*
X147632322Y-135051562D01*
X147748436Y-135167676D01*
X147748447Y-135167685D01*
X147748452Y-135167688D01*
X147889799Y-135251280D01*
X147889800Y-135251280D01*
X147889803Y-135251282D01*
X147889806Y-135251283D01*
X147889828Y-135251289D01*
X147889833Y-135251291D01*
X148047493Y-135297096D01*
X148047497Y-135297097D01*
X148047504Y-135297099D01*
X148047510Y-135297100D01*
X148084350Y-135299999D01*
X148084366Y-135300000D01*
X148250000Y-135300000D01*
X148750000Y-135300000D01*
X148915629Y-135300000D01*
X148915634Y-135300000D01*
X148915649Y-135299999D01*
X148952489Y-135297100D01*
X148952495Y-135297099D01*
X149110193Y-135251283D01*
X149110196Y-135251282D01*
X149251552Y-135167685D01*
X149251561Y-135167678D01*
X149367678Y-135051561D01*
X149367685Y-135051552D01*
X149451282Y-134910196D01*
X149451283Y-134910193D01*
X149497099Y-134752495D01*
X149497100Y-134752489D01*
X149499999Y-134715649D01*
X149500000Y-134715634D01*
X149500000Y-133450000D01*
X148750000Y-133450000D01*
X148750000Y-135300000D01*
X148250000Y-135300000D01*
X148250000Y-133450000D01*
X147500000Y-133450000D01*
X147500000Y-134715654D01*
X146900500Y-134715654D01*
X146900500Y-131684350D01*
X147500000Y-131684350D01*
X147500000Y-132950000D01*
X148250000Y-132950000D01*
X148750000Y-132950000D01*
X149500000Y-132950000D01*
X149500000Y-131684365D01*
X149499999Y-131684350D01*
X149497100Y-131647510D01*
X149497099Y-131647504D01*
X149476980Y-131578256D01*
X149451291Y-131489833D01*
X149451289Y-131489828D01*
X149451283Y-131489806D01*
X149451282Y-131489803D01*
X149448372Y-131484883D01*
X149367688Y-131348452D01*
X149367685Y-131348447D01*
X149367676Y-131348436D01*
X149251562Y-131232322D01*
X149251551Y-131232313D01*
X149251546Y-131232310D01*
X149110199Y-131148718D01*
X149110196Y-131148717D01*
X149110165Y-131148707D01*
X148952505Y-131102902D01*
X148952501Y-131102901D01*
X148952495Y-131102900D01*
X148952489Y-131102899D01*
X148941963Y-131102070D01*
X148915654Y-131100000D01*
X148915649Y-131100000D01*
X148750000Y-131100000D01*
X148750000Y-132950000D01*
X148250000Y-132950000D01*
X148250000Y-131100000D01*
X148084344Y-131100000D01*
X148052772Y-131102484D01*
X148047510Y-131102899D01*
X148047504Y-131102900D01*
X148047497Y-131102901D01*
X148047493Y-131102902D01*
X147889833Y-131148707D01*
X147889802Y-131148717D01*
X147889799Y-131148718D01*
X147748452Y-131232310D01*
X147748447Y-131232313D01*
X147748436Y-131232322D01*
X147632322Y-131348436D01*
X147632313Y-131348447D01*
X147632310Y-131348452D01*
X147548718Y-131489799D01*
X147548717Y-131489802D01*
X147548707Y-131489833D01*
X147502902Y-131647493D01*
X147502901Y-131647497D01*
X147502900Y-131647504D01*
X147502899Y-131647510D01*
X147500000Y-131684350D01*
X146900500Y-131684350D01*
X146900500Y-129964373D01*
X146905522Y-129929440D01*
X146912934Y-129904195D01*
X146944228Y-129851453D01*
X147721258Y-129074423D01*
X147749508Y-129053275D01*
X147772600Y-129040667D01*
X147832025Y-129025500D01*
X151521142Y-129025500D01*
X151521144Y-129025500D01*
X151610288Y-129001614D01*
X151690212Y-128955470D01*
X154930470Y-125715212D01*
X154976614Y-125635288D01*
X154980764Y-125619799D01*
X155000500Y-125546144D01*
X155000500Y-115228856D01*
X154976614Y-115139712D01*
X154930470Y-115059788D01*
X154152618Y-114281936D01*
X154127773Y-114246351D01*
X154036974Y-114050227D01*
X154025500Y-113998131D01*
X154025500Y-113970945D01*
X154025500Y-113970943D01*
X153984577Y-113818216D01*
X153916326Y-113700000D01*
X153905524Y-113681290D01*
X153905518Y-113681282D01*
X153880944Y-113656708D01*
X153876284Y-113650747D01*
X153871718Y-113639248D01*
X153857569Y-113617105D01*
X153852649Y-113603703D01*
X153827338Y-113534748D01*
X153783095Y-113414220D01*
X153775500Y-113371491D01*
X153775500Y-108728858D01*
X153775500Y-108728856D01*
X153751614Y-108639712D01*
X153705470Y-108559788D01*
X151099426Y-105953744D01*
X151078274Y-105925488D01*
X151065667Y-105902399D01*
X151050500Y-105842974D01*
X151050500Y-98653858D01*
X151050500Y-98653856D01*
X151026614Y-98564712D01*
X151026611Y-98564706D01*
X150980473Y-98484794D01*
X150980470Y-98484791D01*
X150980469Y-98484788D01*
X150915212Y-98419531D01*
X150049426Y-97553744D01*
X150028274Y-97525488D01*
X150015667Y-97502399D01*
X150000500Y-97442974D01*
X150000500Y-96111931D01*
X150005521Y-96077004D01*
X150008707Y-96066151D01*
X150046477Y-96007370D01*
X150110031Y-95978341D01*
X150179186Y-95988279D01*
X150186172Y-95991469D01*
X150222342Y-96016582D01*
X150248436Y-96042676D01*
X150248447Y-96042685D01*
X150248452Y-96042688D01*
X150389799Y-96126280D01*
X150389800Y-96126280D01*
X150389803Y-96126282D01*
X150389806Y-96126283D01*
X150389828Y-96126289D01*
X150389833Y-96126291D01*
X150547493Y-96172096D01*
X150547497Y-96172097D01*
X150547504Y-96172099D01*
X150547510Y-96172100D01*
X150584350Y-96174999D01*
X150584366Y-96175000D01*
X150850000Y-96175000D01*
X150850000Y-95316829D01*
X150855023Y-95281893D01*
X150859427Y-95266895D01*
X150897172Y-95208144D01*
X150898541Y-95206957D01*
X150953420Y-95179477D01*
X150960979Y-95177833D01*
X150987332Y-95175000D01*
X151208170Y-95175000D01*
X151243106Y-95180023D01*
G37*
%TD.AperFunction*%
%TA.AperFunction,Conductor*%
G36*
X124768126Y-98102395D02*
G01*
X124768148Y-98102098D01*
X124773104Y-98102452D01*
X124780237Y-98104136D01*
X124789874Y-98105522D01*
X124794244Y-98106805D01*
X124794068Y-98107402D01*
X124807984Y-98110688D01*
X124810328Y-98111199D01*
X124810643Y-98111316D01*
X124811695Y-98111565D01*
X124813736Y-98112409D01*
X124814459Y-98112740D01*
X124814715Y-98112815D01*
X124817249Y-98113864D01*
X124842705Y-98134368D01*
X124864317Y-98150547D01*
X124865347Y-98149655D01*
X124866330Y-98150789D01*
X124867212Y-98152714D01*
X124869082Y-98154114D01*
X124870909Y-98156554D01*
X124870567Y-98156810D01*
X124871662Y-98157692D01*
X124877430Y-98175008D01*
X124895327Y-98214058D01*
X124895466Y-98215008D01*
X124896772Y-98232960D01*
X124896772Y-98380529D01*
X124898973Y-98394446D01*
X124898982Y-98394484D01*
X124930642Y-98594373D01*
X124997535Y-98800254D01*
X124997542Y-98800273D01*
X124997544Y-98800278D01*
X124997545Y-98800281D01*
X125070786Y-98944022D01*
X125095839Y-98993191D01*
X125223100Y-99168350D01*
X125376194Y-99321444D01*
X125551353Y-99448705D01*
X125640253Y-99494002D01*
X125744262Y-99546998D01*
X125744265Y-99546999D01*
X125847219Y-99580450D01*
X125950175Y-99613902D01*
X126164018Y-99647772D01*
X126164019Y-99647772D01*
X126380525Y-99647772D01*
X126380526Y-99647772D01*
X126594369Y-99613902D01*
X126800281Y-99546998D01*
X126993191Y-99448705D01*
X127138195Y-99343352D01*
X127169400Y-99326886D01*
X127181598Y-99322533D01*
X127251352Y-99318542D01*
X127312192Y-99352897D01*
X127343634Y-99409511D01*
X127345863Y-99418511D01*
X127349500Y-99448321D01*
X127349500Y-113557531D01*
X127344475Y-113592475D01*
X127340070Y-113607473D01*
X127302338Y-113666207D01*
X127300997Y-113667370D01*
X127246047Y-113694872D01*
X127238424Y-113696526D01*
X127211993Y-113699346D01*
X123802524Y-113695565D01*
X123802520Y-113695565D01*
X123755391Y-113695511D01*
X123754612Y-113695451D01*
X123745508Y-113695451D01*
X123698371Y-113695451D01*
X123698369Y-113695451D01*
X123651098Y-113695398D01*
X123650292Y-113695451D01*
X123630247Y-113695451D01*
X123630241Y-113695451D01*
X123498340Y-113725556D01*
X123498334Y-113725558D01*
X123498323Y-113725562D01*
X123376406Y-113784275D01*
X123270607Y-113868644D01*
X123186238Y-113974443D01*
X123127525Y-114096360D01*
X123127521Y-114096371D01*
X123127519Y-114096377D01*
X123097414Y-114228278D01*
X123097414Y-114295906D01*
X123095460Y-122020944D01*
X123095460Y-122020945D01*
X123095430Y-122137062D01*
X123095416Y-122137250D01*
X123095416Y-122193711D01*
X123095403Y-122243430D01*
X123095416Y-122244208D01*
X123095416Y-122261890D01*
X123125521Y-122393791D01*
X123125523Y-122393797D01*
X123125527Y-122393808D01*
X123184238Y-122515722D01*
X123186245Y-122518550D01*
X123186260Y-122518570D01*
X123186262Y-122518574D01*
X123188580Y-122521167D01*
X123268603Y-122621517D01*
X123268610Y-122621524D01*
X123289885Y-122638490D01*
X123289884Y-122638490D01*
X123374409Y-122705894D01*
X123374408Y-122705894D01*
X123449823Y-122742212D01*
X123479292Y-122756404D01*
X123488554Y-122760864D01*
X123488553Y-122760864D01*
X123496330Y-122764609D01*
X123515727Y-122769036D01*
X123628249Y-122794718D01*
X123628254Y-122794718D01*
X123628256Y-122794719D01*
X123628258Y-122794719D01*
X123695302Y-122794719D01*
X126865363Y-122797948D01*
X126866096Y-122798008D01*
X126875406Y-122798008D01*
X126923000Y-122798008D01*
X126923002Y-122798008D01*
X126962256Y-122798048D01*
X126962258Y-122798047D01*
X126969887Y-122798055D01*
X126970619Y-122798008D01*
X126990658Y-122798008D01*
X126990660Y-122798008D01*
X126990666Y-122798008D01*
X126990919Y-122797949D01*
X127090644Y-122775188D01*
X127117599Y-122769036D01*
X127119066Y-122768701D01*
X127122580Y-122767899D01*
X127122580Y-122767898D01*
X127122583Y-122767897D01*
X127122588Y-122767897D01*
X127122589Y-122767896D01*
X127122963Y-122767811D01*
X127125694Y-122766401D01*
X127127169Y-122765691D01*
X127244507Y-122709183D01*
X127350305Y-122624813D01*
X127434675Y-122519015D01*
X127493389Y-122397096D01*
X127499693Y-122369475D01*
X127523499Y-122265174D01*
X127523500Y-122265166D01*
X127523500Y-122197867D01*
X127525142Y-121541287D01*
X127530252Y-121506370D01*
X127531898Y-121500816D01*
X127534694Y-121491380D01*
X127572611Y-121432701D01*
X127574044Y-121431465D01*
X127628819Y-121404179D01*
X127636256Y-121402572D01*
X127662472Y-121399775D01*
X130360397Y-121400489D01*
X130360438Y-121400500D01*
X130401609Y-121400500D01*
X130439482Y-121400510D01*
X130439483Y-121400509D01*
X130448909Y-121400512D01*
X130449784Y-121400500D01*
X131239152Y-121400500D01*
X131239157Y-121400500D01*
X131297377Y-121393430D01*
X131515435Y-121366954D01*
X131785657Y-121300350D01*
X132045881Y-121201661D01*
X132292311Y-121072324D01*
X132521355Y-120914226D01*
X132729673Y-120729673D01*
X132889533Y-120549228D01*
X134999500Y-120549228D01*
X134999500Y-120850770D01*
X134999501Y-120850799D01*
X135038859Y-121149755D01*
X135038860Y-121149760D01*
X135038861Y-121149766D01*
X135064686Y-121246145D01*
X135116912Y-121441058D01*
X135232032Y-121718980D01*
X135232292Y-121719618D01*
X135232316Y-121719668D01*
X135239026Y-121731290D01*
X135383099Y-121980831D01*
X135383100Y-121980832D01*
X135383102Y-121980835D01*
X135566672Y-122220070D01*
X135566676Y-122220075D01*
X135566679Y-122220078D01*
X135566685Y-122220085D01*
X135779914Y-122433314D01*
X135779921Y-122433320D01*
X135779924Y-122433322D01*
X135779928Y-122433326D01*
X135942659Y-122558193D01*
X136019168Y-122616900D01*
X136276899Y-122765701D01*
X136282093Y-122768701D01*
X136282095Y-122768702D01*
X136282683Y-122769042D01*
X136287828Y-122770787D01*
X136360359Y-122800831D01*
X136411347Y-122821951D01*
X136554865Y-122881399D01*
X136554866Y-122881399D01*
X136558939Y-122883086D01*
X136558940Y-122883086D01*
X136558942Y-122883087D01*
X136558944Y-122883087D01*
X136559694Y-122883398D01*
X136562842Y-122884132D01*
X136850232Y-122961138D01*
X137149217Y-123000500D01*
X137149224Y-123000500D01*
X137450776Y-123000500D01*
X137450783Y-123000500D01*
X137749768Y-122961138D01*
X138041058Y-122883087D01*
X138319668Y-122767683D01*
X138580832Y-122616900D01*
X138820080Y-122433319D01*
X139033319Y-122220080D01*
X139216900Y-121980832D01*
X139367683Y-121719668D01*
X139483087Y-121441058D01*
X139561138Y-121149768D01*
X139600500Y-120850783D01*
X139600500Y-120549217D01*
X139561138Y-120250232D01*
X139483087Y-119958942D01*
X139480414Y-119952489D01*
X139465155Y-119915649D01*
X142100000Y-119915649D01*
X142102898Y-119952482D01*
X142102899Y-119952487D01*
X142102901Y-119952501D01*
X142102902Y-119952505D01*
X142148707Y-120110165D01*
X142148717Y-120110196D01*
X142148718Y-120110199D01*
X142232310Y-120251546D01*
X142232313Y-120251551D01*
X142232322Y-120251562D01*
X142348436Y-120367676D01*
X142348447Y-120367685D01*
X142348452Y-120367688D01*
X142489799Y-120451280D01*
X142489800Y-120451280D01*
X142489803Y-120451282D01*
X142489806Y-120451283D01*
X142489828Y-120451289D01*
X142489833Y-120451291D01*
X142647493Y-120497096D01*
X142647497Y-120497097D01*
X142647504Y-120497099D01*
X142647510Y-120497100D01*
X142684350Y-120499999D01*
X142684366Y-120500000D01*
X143950000Y-120500000D01*
X144450000Y-120500000D01*
X145715629Y-120500000D01*
X145715634Y-120500000D01*
X145715649Y-120499999D01*
X145752489Y-120497100D01*
X145752495Y-120497099D01*
X145910193Y-120451283D01*
X145910196Y-120451282D01*
X146051552Y-120367685D01*
X146051561Y-120367678D01*
X146167678Y-120251561D01*
X146167685Y-120251552D01*
X146251282Y-120110196D01*
X146251283Y-120110193D01*
X146297099Y-119952495D01*
X146297100Y-119952489D01*
X146299999Y-119915649D01*
X146300000Y-119915634D01*
X146300000Y-119750000D01*
X144450000Y-119750000D01*
X144450000Y-120500000D01*
X143950000Y-120500000D01*
X143950000Y-119750000D01*
X142100000Y-119750000D01*
X142100000Y-119915649D01*
X139465155Y-119915649D01*
X139394922Y-119746091D01*
X139367686Y-119680338D01*
X139367681Y-119680328D01*
X139216900Y-119419168D01*
X139179033Y-119369818D01*
X139033326Y-119179928D01*
X139033322Y-119179924D01*
X139033320Y-119179921D01*
X139033314Y-119179914D01*
X138937750Y-119084350D01*
X142100000Y-119084350D01*
X142100000Y-119250000D01*
X143950000Y-119250000D01*
X144450000Y-119250000D01*
X146300000Y-119250000D01*
X146300000Y-119084365D01*
X146299999Y-119084350D01*
X146297100Y-119047510D01*
X146297099Y-119047504D01*
X146251283Y-118889806D01*
X146251282Y-118889803D01*
X146225750Y-118846631D01*
X146167688Y-118748452D01*
X146167685Y-118748447D01*
X146167676Y-118748436D01*
X146051562Y-118632322D01*
X146051551Y-118632313D01*
X146051546Y-118632310D01*
X145910199Y-118548718D01*
X145910196Y-118548717D01*
X145910165Y-118548707D01*
X145752505Y-118502902D01*
X145752501Y-118502901D01*
X145752495Y-118502900D01*
X145752489Y-118502899D01*
X145741963Y-118502070D01*
X145715654Y-118500000D01*
X145715649Y-118500000D01*
X144450000Y-118500000D01*
X144450000Y-119250000D01*
X143950000Y-119250000D01*
X143950000Y-118500000D01*
X142684344Y-118500000D01*
X142652772Y-118502484D01*
X142647510Y-118502899D01*
X142647504Y-118502900D01*
X142647497Y-118502901D01*
X142647493Y-118502902D01*
X142489833Y-118548707D01*
X142489802Y-118548717D01*
X142489799Y-118548718D01*
X142348452Y-118632310D01*
X142348447Y-118632313D01*
X142348436Y-118632322D01*
X142232322Y-118748436D01*
X142232313Y-118748447D01*
X142232310Y-118748452D01*
X142148718Y-118889799D01*
X142148717Y-118889802D01*
X142148707Y-118889833D01*
X142102902Y-119047493D01*
X142102901Y-119047497D01*
X142102900Y-119047504D01*
X142102899Y-119047510D01*
X142100000Y-119084350D01*
X138937750Y-119084350D01*
X138820085Y-118966685D01*
X138820078Y-118966679D01*
X138820075Y-118966676D01*
X138820070Y-118966672D01*
X138580835Y-118783102D01*
X138580834Y-118783101D01*
X138580831Y-118783099D01*
X138319678Y-118632322D01*
X138319668Y-118632316D01*
X138319618Y-118632292D01*
X138318980Y-118632032D01*
X138041058Y-118516912D01*
X137895413Y-118477887D01*
X137749766Y-118438861D01*
X137749760Y-118438860D01*
X137749755Y-118438859D01*
X137454883Y-118400039D01*
X137452867Y-118399705D01*
X137450793Y-118399500D01*
X137450788Y-118399500D01*
X137450783Y-118399500D01*
X137149217Y-118399500D01*
X137149211Y-118399500D01*
X137149206Y-118399500D01*
X137147129Y-118399705D01*
X137145115Y-118400039D01*
X136850243Y-118438859D01*
X136850236Y-118438860D01*
X136850233Y-118438861D01*
X136788673Y-118455355D01*
X136558940Y-118516912D01*
X136281018Y-118632032D01*
X136280388Y-118632288D01*
X136280330Y-118632316D01*
X136019163Y-118783102D01*
X135779928Y-118966672D01*
X135779913Y-118966686D01*
X135779905Y-118966693D01*
X135566693Y-119179905D01*
X135566686Y-119179913D01*
X135566672Y-119179928D01*
X135383102Y-119419163D01*
X135232316Y-119680330D01*
X135232288Y-119680388D01*
X135232032Y-119681018D01*
X135116912Y-119958940D01*
X135055355Y-120188673D01*
X135038862Y-120250232D01*
X135038859Y-120250243D01*
X134999501Y-120549199D01*
X134999500Y-120549228D01*
X132889533Y-120549228D01*
X132914226Y-120521355D01*
X132942865Y-120479865D01*
X132946418Y-120474718D01*
X132983896Y-120420422D01*
X133020297Y-120367686D01*
X133020297Y-120367685D01*
X133020303Y-120367676D01*
X133072324Y-120292311D01*
X133201661Y-120045881D01*
X133300350Y-119785657D01*
X133366954Y-119515435D01*
X133400500Y-119239154D01*
X133400500Y-119100000D01*
X133400500Y-119052405D01*
X133400500Y-118242329D01*
X133405523Y-118207393D01*
X133409927Y-118192395D01*
X133447672Y-118133644D01*
X133449041Y-118132457D01*
X133503920Y-118104977D01*
X133511479Y-118103333D01*
X133537832Y-118100500D01*
X145767666Y-118100500D01*
X145767919Y-118100441D01*
X145867026Y-118077821D01*
X145894599Y-118071528D01*
X145898922Y-118070727D01*
X145899377Y-118070606D01*
X145902694Y-118068893D01*
X146021503Y-118011677D01*
X146021503Y-118011676D01*
X146021507Y-118011675D01*
X146127305Y-117927305D01*
X146211675Y-117821507D01*
X146270389Y-117699588D01*
X146276527Y-117672695D01*
X146300499Y-117567666D01*
X146300500Y-117567658D01*
X146300500Y-103342330D01*
X146305523Y-103307394D01*
X146309927Y-103292396D01*
X146347702Y-103233618D01*
X146347706Y-103233615D01*
X146349076Y-103232428D01*
X146403896Y-103204983D01*
X146405337Y-103204669D01*
X146411460Y-103203337D01*
X146437820Y-103200500D01*
X147039563Y-103200500D01*
X147152405Y-103200500D01*
X147200000Y-103200500D01*
X147339154Y-103200500D01*
X147339157Y-103200500D01*
X147397377Y-103193430D01*
X147615435Y-103166954D01*
X147885657Y-103100350D01*
X148145881Y-103001661D01*
X148392311Y-102872324D01*
X148621355Y-102714226D01*
X148829673Y-102529673D01*
X149014226Y-102321355D01*
X149172324Y-102092311D01*
X149301661Y-101845881D01*
X149303231Y-101841740D01*
X149327933Y-101809106D01*
X149346610Y-101782359D01*
X149411232Y-101755793D01*
X149479959Y-101768381D01*
X149530969Y-101816128D01*
X149544388Y-101848771D01*
X149545729Y-101854084D01*
X149549500Y-101884430D01*
X149549500Y-104185281D01*
X149544476Y-104220219D01*
X149541289Y-104231072D01*
X149503514Y-104289849D01*
X149439957Y-104318872D01*
X149370807Y-104308931D01*
X149363829Y-104305744D01*
X149327657Y-104280630D01*
X149252512Y-104205485D01*
X149252510Y-104205483D01*
X149061433Y-104066657D01*
X148850996Y-103959433D01*
X148626368Y-103886446D01*
X148626362Y-103886445D01*
X148393102Y-103849500D01*
X148393097Y-103849500D01*
X148393092Y-103849500D01*
X148156908Y-103849500D01*
X148156903Y-103849500D01*
X148156898Y-103849500D01*
X147923636Y-103886445D01*
X147923634Y-103886445D01*
X147923631Y-103886446D01*
X147699003Y-103959433D01*
X147503210Y-104059195D01*
X147488562Y-104066659D01*
X147379549Y-104145861D01*
X147379550Y-104145862D01*
X147309361Y-104196858D01*
X147301980Y-104200991D01*
X147125991Y-104376980D01*
X147121858Y-104384361D01*
X147070862Y-104454550D01*
X147070861Y-104454549D01*
X146991659Y-104563562D01*
X146991657Y-104563566D01*
X146884433Y-104774003D01*
X146811446Y-104998631D01*
X146811445Y-104998634D01*
X146811445Y-104998636D01*
X146774500Y-105231896D01*
X146774500Y-105468102D01*
X146803691Y-105652406D01*
X146811446Y-105701368D01*
X146884433Y-105925996D01*
X146971129Y-106096144D01*
X146991657Y-106136433D01*
X147130483Y-106327510D01*
X147297490Y-106494517D01*
X147488567Y-106633343D01*
X147587991Y-106684002D01*
X147699003Y-106740566D01*
X147699876Y-106741011D01*
X147703630Y-106742070D01*
X147751335Y-106757569D01*
X147819410Y-106779688D01*
X147819411Y-106779689D01*
X147819412Y-106779689D01*
X147923631Y-106813553D01*
X148156903Y-106850500D01*
X148156908Y-106850500D01*
X148393096Y-106850500D01*
X148393097Y-106850500D01*
X148626368Y-106813553D01*
X148850992Y-106740568D01*
X149061433Y-106633343D01*
X149252510Y-106494517D01*
X149343054Y-106403971D01*
X149371306Y-106382821D01*
X149383489Y-106376169D01*
X149451760Y-106361319D01*
X149517191Y-106385712D01*
X149518493Y-106386686D01*
X149555760Y-106431813D01*
X149557948Y-106436319D01*
X149566177Y-106458386D01*
X149569967Y-106472529D01*
X149573386Y-106485289D01*
X149573387Y-106485290D01*
X149619526Y-106565207D01*
X149619527Y-106565208D01*
X149619532Y-106565214D01*
X149619538Y-106565221D01*
X152050573Y-108996255D01*
X152071723Y-109024507D01*
X152084331Y-109047596D01*
X152099500Y-109107025D01*
X152099500Y-111314643D01*
X152094476Y-111349581D01*
X152091289Y-111360434D01*
X152053514Y-111419211D01*
X151989957Y-111448234D01*
X151920799Y-111438289D01*
X151920788Y-111438284D01*
X151920232Y-111438030D01*
X151876142Y-111404197D01*
X151874706Y-111402458D01*
X151862934Y-111385503D01*
X151766904Y-111219175D01*
X151766900Y-111219168D01*
X151742999Y-111188020D01*
X151583326Y-110979928D01*
X151583322Y-110979924D01*
X151583320Y-110979921D01*
X151583314Y-110979914D01*
X151370085Y-110766685D01*
X151370078Y-110766679D01*
X151370075Y-110766676D01*
X151370070Y-110766672D01*
X151130835Y-110583102D01*
X151130834Y-110583101D01*
X151130831Y-110583099D01*
X150869671Y-110432318D01*
X150869672Y-110432318D01*
X150869668Y-110432316D01*
X150869618Y-110432292D01*
X150868980Y-110432032D01*
X150591058Y-110316912D01*
X150445413Y-110277887D01*
X150299766Y-110238861D01*
X150299760Y-110238860D01*
X150299755Y-110238859D01*
X150004883Y-110200039D01*
X150002867Y-110199705D01*
X150000793Y-110199500D01*
X150000788Y-110199500D01*
X150000783Y-110199500D01*
X149699217Y-110199500D01*
X149699211Y-110199500D01*
X149699206Y-110199500D01*
X149697129Y-110199705D01*
X149695115Y-110200039D01*
X149400243Y-110238859D01*
X149400236Y-110238860D01*
X149400233Y-110238861D01*
X149338673Y-110255355D01*
X149108940Y-110316912D01*
X148831018Y-110432032D01*
X148830388Y-110432288D01*
X148830330Y-110432316D01*
X148569163Y-110583102D01*
X148329928Y-110766672D01*
X148329913Y-110766686D01*
X148329905Y-110766693D01*
X148116693Y-110979905D01*
X148116686Y-110979913D01*
X148116672Y-110979928D01*
X147933102Y-111219163D01*
X147782316Y-111480330D01*
X147782288Y-111480388D01*
X147782032Y-111481018D01*
X147666912Y-111758940D01*
X147588862Y-112050230D01*
X147588859Y-112050243D01*
X147549501Y-112349199D01*
X147549500Y-112349228D01*
X147549500Y-112650770D01*
X147549501Y-112650799D01*
X147588859Y-112949755D01*
X147588860Y-112949760D01*
X147588861Y-112949766D01*
X147588862Y-112949768D01*
X147666912Y-113241058D01*
X147782032Y-113518980D01*
X147782292Y-113519618D01*
X147782316Y-113519668D01*
X147809040Y-113565955D01*
X147933099Y-113780831D01*
X147933100Y-113780832D01*
X147933102Y-113780835D01*
X148116672Y-114020070D01*
X148116676Y-114020075D01*
X148116679Y-114020078D01*
X148116685Y-114020085D01*
X148329914Y-114233314D01*
X148329921Y-114233320D01*
X148329924Y-114233322D01*
X148329928Y-114233326D01*
X148519818Y-114379033D01*
X148569168Y-114416900D01*
X148826899Y-114565701D01*
X148832093Y-114568701D01*
X148832095Y-114568702D01*
X148832683Y-114569042D01*
X148837828Y-114570787D01*
X149016072Y-114644619D01*
X149016071Y-114644619D01*
X149057970Y-114661974D01*
X149108939Y-114683086D01*
X149108940Y-114683086D01*
X149108942Y-114683087D01*
X149108944Y-114683087D01*
X149109691Y-114683397D01*
X149112842Y-114684132D01*
X149400232Y-114761138D01*
X149699217Y-114800500D01*
X149699224Y-114800500D01*
X150000776Y-114800500D01*
X150000783Y-114800500D01*
X150299768Y-114761138D01*
X150591058Y-114683087D01*
X150869668Y-114567683D01*
X151130832Y-114416900D01*
X151370080Y-114233319D01*
X151583319Y-114020080D01*
X151766900Y-113780832D01*
X151859199Y-113620964D01*
X151885449Y-113594845D01*
X151895755Y-113579596D01*
X151904579Y-113575810D01*
X151905121Y-113575271D01*
X151914036Y-113570183D01*
X151914755Y-113571444D01*
X151959965Y-113552048D01*
X152028875Y-113563588D01*
X152075755Y-113603202D01*
X152076112Y-113603703D01*
X152097407Y-113655080D01*
X152097780Y-113657296D01*
X152099500Y-113677878D01*
X152099500Y-115635626D01*
X152094476Y-115670563D01*
X152087064Y-115695804D01*
X152055769Y-115748548D01*
X151453744Y-116350573D01*
X151425493Y-116371722D01*
X151402405Y-116384330D01*
X151342975Y-116399500D01*
X150678509Y-116399500D01*
X150635779Y-116391905D01*
X150432893Y-116317429D01*
X150387942Y-116288705D01*
X150368722Y-116269485D01*
X150368720Y-116269484D01*
X150368717Y-116269481D01*
X150368709Y-116269475D01*
X150342147Y-116254140D01*
X150231807Y-116190435D01*
X150231783Y-116190422D01*
X150119979Y-116160464D01*
X150079057Y-116149500D01*
X150079056Y-116149500D01*
X149920943Y-116149500D01*
X149768218Y-116190422D01*
X149768211Y-116190424D01*
X149768210Y-116190425D01*
X149768200Y-116190430D01*
X149631298Y-116269470D01*
X149631293Y-116269472D01*
X149631290Y-116269475D01*
X149631286Y-116269478D01*
X149631283Y-116269480D01*
X149631277Y-116269485D01*
X149631272Y-116269489D01*
X149612055Y-116288706D01*
X149567107Y-116317428D01*
X149476815Y-116350573D01*
X149364219Y-116391905D01*
X149321490Y-116399500D01*
X148353856Y-116399500D01*
X148264725Y-116423382D01*
X148264708Y-116423387D01*
X148264703Y-116423389D01*
X148184791Y-116469526D01*
X148184790Y-116469527D01*
X148184784Y-116469532D01*
X148184777Y-116469538D01*
X147269538Y-117384777D01*
X147269525Y-117384793D01*
X147269517Y-117384805D01*
X147226653Y-117459050D01*
X147226650Y-117459056D01*
X147223386Y-117464708D01*
X147223385Y-117464709D01*
X147199500Y-117553854D01*
X147199500Y-119685626D01*
X147194476Y-119720563D01*
X147187064Y-119745804D01*
X147155769Y-119798548D01*
X146203744Y-120750573D01*
X146175493Y-120771722D01*
X146152405Y-120784330D01*
X146092975Y-120799500D01*
X141253856Y-120799500D01*
X141164725Y-120823382D01*
X141164708Y-120823387D01*
X141164703Y-120823389D01*
X141084791Y-120869526D01*
X141084790Y-120869527D01*
X141084784Y-120869532D01*
X141084777Y-120869538D01*
X138219535Y-123734780D01*
X138219528Y-123734788D01*
X138219520Y-123734800D01*
X138184994Y-123794605D01*
X138184992Y-123794606D01*
X138184993Y-123794607D01*
X138173386Y-123814710D01*
X138149500Y-123903856D01*
X138149500Y-132585626D01*
X138144476Y-132620563D01*
X138137064Y-132645804D01*
X138105769Y-132698548D01*
X137474787Y-133329529D01*
X137446537Y-133350678D01*
X137436610Y-133356099D01*
X137368337Y-133370953D01*
X137302872Y-133346539D01*
X137260999Y-133290607D01*
X137258312Y-133283401D01*
X137250499Y-133240081D01*
X137250499Y-130318482D01*
X137246960Y-130296138D01*
X137235646Y-130224696D01*
X137209524Y-130173430D01*
X137199169Y-130147804D01*
X137187051Y-130129324D01*
X137178050Y-130111658D01*
X137177849Y-130111380D01*
X137175838Y-130108591D01*
X137163551Y-130093486D01*
X136870805Y-129647039D01*
X136850505Y-129580184D01*
X136850500Y-129579044D01*
X136850500Y-127420953D01*
X136870185Y-127353914D01*
X136870805Y-127352958D01*
X136905531Y-127300000D01*
X137170543Y-126895848D01*
X137178050Y-126888342D01*
X137187056Y-126870666D01*
X137199169Y-126852194D01*
X137206444Y-126840416D01*
X137207080Y-126839321D01*
X137213685Y-126827206D01*
X137215978Y-126819101D01*
X137224806Y-126796577D01*
X137235646Y-126775304D01*
X137235646Y-126775302D01*
X137235647Y-126775301D01*
X137235648Y-126775291D01*
X137236785Y-126770561D01*
X137236785Y-126770559D01*
X137236789Y-126770540D01*
X137237173Y-126765668D01*
X137250111Y-126683979D01*
X137250437Y-126682154D01*
X137250499Y-126681523D01*
X137250500Y-126681519D01*
X137250499Y-123718482D01*
X137235646Y-123624696D01*
X137178050Y-123511658D01*
X137178046Y-123511654D01*
X137178045Y-123511652D01*
X137088347Y-123421954D01*
X137088344Y-123421952D01*
X137088342Y-123421950D01*
X137088341Y-123421949D01*
X136993724Y-123373739D01*
X136993723Y-123373739D01*
X136975300Y-123364351D01*
X136975296Y-123364350D01*
X136881530Y-123349500D01*
X136881524Y-123349500D01*
X136118482Y-123349500D01*
X136118478Y-123349500D01*
X136053846Y-123359736D01*
X136053842Y-123359737D01*
X136037519Y-123362323D01*
X136024696Y-123364354D01*
X135911658Y-123421950D01*
X135911657Y-123421951D01*
X135911652Y-123421954D01*
X135908652Y-123424953D01*
X135908649Y-123424955D01*
X135821955Y-123511649D01*
X135821946Y-123511664D01*
X135764353Y-123624695D01*
X135764350Y-123624703D01*
X135749500Y-123718469D01*
X135749500Y-124513600D01*
X135729815Y-124580639D01*
X135702963Y-124610427D01*
X135438091Y-124822327D01*
X135373445Y-124848836D01*
X135360628Y-124849500D01*
X134628509Y-124849500D01*
X134585779Y-124841905D01*
X134382893Y-124767429D01*
X134337942Y-124738705D01*
X134318722Y-124719485D01*
X134318720Y-124719484D01*
X134318717Y-124719481D01*
X134318709Y-124719475D01*
X134292147Y-124704140D01*
X134181807Y-124640435D01*
X134181783Y-124640422D01*
X134069837Y-124610427D01*
X134029057Y-124599500D01*
X134029056Y-124599500D01*
X133870943Y-124599500D01*
X133734628Y-124636025D01*
X133715777Y-124639541D01*
X133690414Y-124642265D01*
X133621655Y-124629852D01*
X133570525Y-124582238D01*
X133567847Y-124577724D01*
X133550500Y-124514469D01*
X133550500Y-123417927D01*
X133555522Y-123382994D01*
X133562934Y-123357749D01*
X133594227Y-123305008D01*
X133680520Y-123218716D01*
X133759577Y-123081784D01*
X133800500Y-122929057D01*
X133800500Y-122770943D01*
X133759577Y-122618216D01*
X133758817Y-122616900D01*
X133746918Y-122596289D01*
X133746918Y-122596288D01*
X133702304Y-122519015D01*
X133680524Y-122481290D01*
X133680518Y-122481282D01*
X133680517Y-122481281D01*
X133680513Y-122481276D01*
X133568722Y-122369485D01*
X133568720Y-122369484D01*
X133568717Y-122369481D01*
X133568709Y-122369475D01*
X133503436Y-122331790D01*
X133431807Y-122290435D01*
X133431783Y-122290422D01*
X133319979Y-122260464D01*
X133279057Y-122249500D01*
X133279056Y-122249500D01*
X133120943Y-122249500D01*
X132968218Y-122290422D01*
X132968211Y-122290424D01*
X132968210Y-122290425D01*
X132968200Y-122290430D01*
X132831298Y-122369470D01*
X132831294Y-122369472D01*
X132831290Y-122369475D01*
X132831282Y-122369481D01*
X132831278Y-122369484D01*
X132831276Y-122369485D01*
X132719485Y-122481276D01*
X132719484Y-122481278D01*
X132719481Y-122481281D01*
X132719481Y-122481282D01*
X132719475Y-122481290D01*
X132719472Y-122481294D01*
X132719470Y-122481298D01*
X132640430Y-122618200D01*
X132640425Y-122618210D01*
X132640424Y-122618211D01*
X132640422Y-122618218D01*
X132599500Y-122770943D01*
X132599500Y-122929056D01*
X132640030Y-123080316D01*
X132640037Y-123080343D01*
X132640420Y-123081776D01*
X132640422Y-123081781D01*
X132640423Y-123081783D01*
X132640426Y-123081790D01*
X132640428Y-123081793D01*
X132640430Y-123081798D01*
X132679060Y-123148707D01*
X132719475Y-123218709D01*
X132719481Y-123218717D01*
X132800576Y-123299812D01*
X132821725Y-123328064D01*
X132834332Y-123351152D01*
X132849500Y-123410579D01*
X132849500Y-124372950D01*
X132844475Y-124407891D01*
X132840564Y-124421208D01*
X132802787Y-124479984D01*
X132739229Y-124509006D01*
X132739200Y-124509010D01*
X132737590Y-124509241D01*
X132679439Y-124503684D01*
X132679044Y-124503547D01*
X132674701Y-124502044D01*
X132653248Y-124492248D01*
X132606790Y-124465425D01*
X132606781Y-124465422D01*
X132578406Y-124457818D01*
X132578406Y-124457819D01*
X132496143Y-124435777D01*
X132454057Y-124424500D01*
X132454056Y-124424500D01*
X132295943Y-124424500D01*
X132143218Y-124465422D01*
X132143211Y-124465424D01*
X132143210Y-124465425D01*
X132143200Y-124465430D01*
X132006298Y-124544470D01*
X132006294Y-124544472D01*
X132006290Y-124544475D01*
X132006282Y-124544481D01*
X132006278Y-124544484D01*
X132006276Y-124544485D01*
X131894485Y-124656276D01*
X131894484Y-124656278D01*
X131894481Y-124656281D01*
X131894481Y-124656282D01*
X131894475Y-124656290D01*
X131894472Y-124656294D01*
X131894470Y-124656298D01*
X131815430Y-124793200D01*
X131815425Y-124793210D01*
X131815424Y-124793211D01*
X131815422Y-124793218D01*
X131794924Y-124869720D01*
X131774500Y-124945943D01*
X131774500Y-125104057D01*
X131795326Y-125181780D01*
X131795329Y-125181790D01*
X131815423Y-125256783D01*
X131815424Y-125256787D01*
X131815425Y-125256788D01*
X131815430Y-125256798D01*
X131858391Y-125331209D01*
X131894475Y-125393709D01*
X131894481Y-125393717D01*
X131894484Y-125393720D01*
X131894485Y-125393722D01*
X131913704Y-125412941D01*
X131942428Y-125457891D01*
X132016905Y-125660779D01*
X132024500Y-125703507D01*
X132024500Y-125810626D01*
X132019476Y-125845563D01*
X132012064Y-125870804D01*
X131980769Y-125923548D01*
X131053744Y-126850573D01*
X131025493Y-126871722D01*
X131002405Y-126884330D01*
X130942975Y-126899500D01*
X129853856Y-126899500D01*
X129764725Y-126923382D01*
X129764708Y-126923387D01*
X129764703Y-126923389D01*
X129684791Y-126969526D01*
X129684789Y-126969528D01*
X129684782Y-126969534D01*
X127653744Y-129000573D01*
X127625493Y-129021722D01*
X127602405Y-129034330D01*
X127542975Y-129049500D01*
X125917928Y-129049500D01*
X125882992Y-129044477D01*
X125857750Y-129037065D01*
X125805006Y-129005770D01*
X125718717Y-128919481D01*
X125718709Y-128919475D01*
X125692147Y-128904140D01*
X125581807Y-128840435D01*
X125581783Y-128840422D01*
X125469979Y-128810464D01*
X125429057Y-128799500D01*
X125429056Y-128799500D01*
X125270943Y-128799500D01*
X125118218Y-128840422D01*
X125118211Y-128840424D01*
X125118210Y-128840425D01*
X125118200Y-128840430D01*
X124981298Y-128919470D01*
X124981294Y-128919472D01*
X124981290Y-128919475D01*
X124981282Y-128919481D01*
X124981278Y-128919484D01*
X124981276Y-128919485D01*
X124869485Y-129031276D01*
X124869484Y-129031278D01*
X124869481Y-129031281D01*
X124869481Y-129031282D01*
X124869475Y-129031290D01*
X124869472Y-129031294D01*
X124869470Y-129031298D01*
X124790430Y-129168200D01*
X124790425Y-129168210D01*
X124790424Y-129168211D01*
X124790422Y-129168218D01*
X124771074Y-129240426D01*
X124749500Y-129320943D01*
X124749500Y-129479057D01*
X124773023Y-129566844D01*
X124774910Y-129573886D01*
X124790424Y-129631787D01*
X124790425Y-129631788D01*
X124790426Y-129631790D01*
X124805481Y-129657867D01*
X124866623Y-129763771D01*
X124866638Y-129763795D01*
X124869475Y-129768709D01*
X124869479Y-129768714D01*
X124869480Y-129768716D01*
X124870049Y-129769285D01*
X124981287Y-129880523D01*
X124981969Y-129881014D01*
X124984475Y-129882363D01*
X125060710Y-129926376D01*
X125098937Y-129948447D01*
X125115049Y-129957748D01*
X125118216Y-129959577D01*
X125270943Y-130000500D01*
X125270945Y-130000500D01*
X125429055Y-130000500D01*
X125429057Y-130000500D01*
X125581784Y-129959577D01*
X125718716Y-129880520D01*
X125799815Y-129799420D01*
X125828062Y-129778275D01*
X125851154Y-129765667D01*
X125910579Y-129750500D01*
X127796142Y-129750500D01*
X127796144Y-129750500D01*
X127885288Y-129726614D01*
X127895110Y-129720943D01*
X127965212Y-129680470D01*
X129996258Y-127649423D01*
X130024508Y-127628275D01*
X130047600Y-127615667D01*
X130107025Y-127600500D01*
X131196142Y-127600500D01*
X131196144Y-127600500D01*
X131285288Y-127576614D01*
X131365212Y-127530470D01*
X132655470Y-126240212D01*
X132663982Y-126225467D01*
X132685794Y-126197729D01*
X132695844Y-126188146D01*
X132757944Y-126156132D01*
X132827495Y-126162772D01*
X132828681Y-126163247D01*
X132829025Y-126163385D01*
X132876637Y-126197297D01*
X132879919Y-126201085D01*
X132893589Y-126220283D01*
X132919523Y-126265203D01*
X132919527Y-126265208D01*
X132919532Y-126265214D01*
X132919538Y-126265221D01*
X134500573Y-127846255D01*
X134521723Y-127874507D01*
X134534331Y-127897596D01*
X134549500Y-127957025D01*
X134549500Y-130035626D01*
X134544476Y-130070563D01*
X134537064Y-130095804D01*
X134505769Y-130148548D01*
X134303744Y-130350573D01*
X134275493Y-130371722D01*
X134252405Y-130384330D01*
X134192975Y-130399500D01*
X134191928Y-130399500D01*
X134156993Y-130394477D01*
X134146139Y-130391290D01*
X134087361Y-130353516D01*
X134058336Y-130289960D01*
X134068276Y-130220811D01*
X134071466Y-130213824D01*
X134096578Y-130177657D01*
X134105520Y-130168716D01*
X134184577Y-130031784D01*
X134225500Y-129879057D01*
X134225500Y-129720943D01*
X134184577Y-129568216D01*
X134114401Y-129446666D01*
X134114401Y-129446665D01*
X134114399Y-129446663D01*
X134105524Y-129431290D01*
X134105518Y-129431282D01*
X134105513Y-129431276D01*
X133993722Y-129319485D01*
X133993720Y-129319484D01*
X133993717Y-129319481D01*
X133993709Y-129319475D01*
X133967147Y-129304140D01*
X133856807Y-129240435D01*
X133856783Y-129240422D01*
X133744979Y-129210464D01*
X133704057Y-129199500D01*
X133704056Y-129199500D01*
X133545943Y-129199500D01*
X133393218Y-129240422D01*
X133393211Y-129240424D01*
X133393210Y-129240425D01*
X133393200Y-129240430D01*
X133256298Y-129319470D01*
X133256293Y-129319472D01*
X133256290Y-129319475D01*
X133256286Y-129319478D01*
X133256283Y-129319480D01*
X133256277Y-129319485D01*
X133256272Y-129319489D01*
X133237055Y-129338706D01*
X133192107Y-129367428D01*
X133095588Y-129402858D01*
X132989219Y-129441905D01*
X132946490Y-129449500D01*
X131178509Y-129449500D01*
X131135779Y-129441905D01*
X130932893Y-129367429D01*
X130887942Y-129338705D01*
X130868722Y-129319485D01*
X130868720Y-129319484D01*
X130868717Y-129319481D01*
X130868709Y-129319475D01*
X130842147Y-129304140D01*
X130731807Y-129240435D01*
X130731783Y-129240422D01*
X130619979Y-129210464D01*
X130579057Y-129199500D01*
X130579056Y-129199500D01*
X130420943Y-129199500D01*
X130268218Y-129240422D01*
X130268211Y-129240424D01*
X130268210Y-129240425D01*
X130268200Y-129240430D01*
X130131298Y-129319470D01*
X130131294Y-129319472D01*
X130131290Y-129319475D01*
X130131282Y-129319481D01*
X130131278Y-129319484D01*
X130131276Y-129319485D01*
X130019485Y-129431276D01*
X130019484Y-129431278D01*
X130019481Y-129431281D01*
X130019481Y-129431282D01*
X130019475Y-129431290D01*
X130019472Y-129431294D01*
X130019470Y-129431298D01*
X129940430Y-129568200D01*
X129940425Y-129568210D01*
X129940424Y-129568211D01*
X129940422Y-129568218D01*
X129919559Y-129646083D01*
X129899500Y-129720943D01*
X129899500Y-129879057D01*
X129906237Y-129904199D01*
X129933580Y-130006245D01*
X129933580Y-130006246D01*
X129937789Y-130021951D01*
X129940423Y-130031783D01*
X129940426Y-130031790D01*
X130019475Y-130168709D01*
X130019481Y-130168717D01*
X130037568Y-130186804D01*
X130045749Y-130201009D01*
X130045968Y-130201918D01*
X130047125Y-130203463D01*
X130052545Y-130213388D01*
X130067399Y-130281660D01*
X130042985Y-130347125D01*
X129987053Y-130388999D01*
X129987049Y-130389001D01*
X129979861Y-130391682D01*
X129936527Y-130399500D01*
X128903856Y-130399500D01*
X128814725Y-130423382D01*
X128814708Y-130423387D01*
X128814703Y-130423389D01*
X128734791Y-130469526D01*
X128734790Y-130469527D01*
X128734784Y-130469532D01*
X128734777Y-130469538D01*
X128305916Y-130898399D01*
X128305914Y-130898401D01*
X128302925Y-130901391D01*
X128289602Y-130913011D01*
X128283843Y-130920471D01*
X128278217Y-130926098D01*
X128278214Y-130926099D01*
X128219536Y-130984780D01*
X128219520Y-130984800D01*
X128185814Y-131043185D01*
X128185805Y-131043201D01*
X128180069Y-131053133D01*
X128170857Y-131066877D01*
X127983673Y-131309430D01*
X127854209Y-131477189D01*
X127854199Y-131477202D01*
X127852779Y-131479043D01*
X127852643Y-131478938D01*
X127841439Y-131492165D01*
X127821953Y-131511652D01*
X127821945Y-131511665D01*
X127764353Y-131624695D01*
X127764350Y-131624703D01*
X127749500Y-131718469D01*
X127749500Y-134681520D01*
X127756068Y-134722989D01*
X127760292Y-134749657D01*
X127764354Y-134775304D01*
X127790475Y-134826570D01*
X127793306Y-134833575D01*
X127793310Y-134833586D01*
X127800829Y-134852192D01*
X127800832Y-134852197D01*
X127809230Y-134865004D01*
X127813805Y-134872554D01*
X127814951Y-134874607D01*
X127821950Y-134888342D01*
X127821952Y-134888344D01*
X127821954Y-134888347D01*
X127823465Y-134889858D01*
X127824704Y-134892077D01*
X127836449Y-134906514D01*
X127996066Y-135149934D01*
X128094469Y-135300000D01*
X128129195Y-135352957D01*
X128149495Y-135419813D01*
X128149500Y-135420953D01*
X128149500Y-137579044D01*
X128129815Y-137646083D01*
X128129195Y-137647040D01*
X127836446Y-138093487D01*
X127824292Y-138108432D01*
X127823207Y-138109926D01*
X127822048Y-138111464D01*
X127816022Y-138123290D01*
X127809241Y-138134975D01*
X127800829Y-138147805D01*
X127793476Y-138159716D01*
X127792846Y-138160804D01*
X127786315Y-138172789D01*
X127786313Y-138172794D01*
X127784015Y-138180912D01*
X127775192Y-138203421D01*
X127764352Y-138224695D01*
X127764351Y-138224700D01*
X127749500Y-138318469D01*
X127749500Y-141281517D01*
X127750233Y-141286151D01*
X127750235Y-141286157D01*
X127751817Y-141296143D01*
X127764354Y-141375304D01*
X127808374Y-141461698D01*
X127811333Y-141470632D01*
X127811481Y-141474966D01*
X127815490Y-141486730D01*
X127818051Y-141500366D01*
X127811079Y-141569886D01*
X127767628Y-141624602D01*
X127767625Y-141624604D01*
X127764897Y-141626527D01*
X127713778Y-141647500D01*
X127711834Y-141647823D01*
X127691510Y-141649500D01*
X126264374Y-141649500D01*
X126229438Y-141644477D01*
X126204196Y-141637065D01*
X126151451Y-141605769D01*
X125415221Y-140869538D01*
X125415214Y-140869532D01*
X125415208Y-140869527D01*
X125415203Y-140869523D01*
X125356466Y-140835612D01*
X125356461Y-140835609D01*
X125335290Y-140823387D01*
X125335289Y-140823386D01*
X125335288Y-140823386D01*
X125246144Y-140799500D01*
X125246143Y-140799500D01*
X123703856Y-140799500D01*
X123621466Y-140821575D01*
X123621451Y-140821580D01*
X123614712Y-140823386D01*
X123614711Y-140823386D01*
X123614709Y-140823387D01*
X123614706Y-140823388D01*
X123611906Y-140825004D01*
X123611902Y-140825006D01*
X123534804Y-140869519D01*
X123534786Y-140869531D01*
X122420917Y-141983399D01*
X122420911Y-141983406D01*
X122420909Y-141983408D01*
X122408061Y-142005663D01*
X122387558Y-142041177D01*
X122380367Y-142053632D01*
X122380366Y-142053631D01*
X122377789Y-142058098D01*
X122377776Y-142058121D01*
X122374769Y-142063328D01*
X122374768Y-142063331D01*
X122350883Y-142152473D01*
X122350883Y-143047738D01*
X122339005Y-143100698D01*
X121992192Y-143834939D01*
X121967751Y-143869660D01*
X121950660Y-143886751D01*
X121922404Y-143907903D01*
X121910223Y-143914554D01*
X121841949Y-143929405D01*
X121776486Y-143904987D01*
X121776481Y-143904983D01*
X121771105Y-143900958D01*
X121734336Y-143856794D01*
X121670451Y-143727980D01*
X121517614Y-143419813D01*
X121476492Y-143336898D01*
X121475045Y-143333879D01*
X121473635Y-143330832D01*
X121472262Y-143327756D01*
X121466158Y-143313566D01*
X121204442Y-142705163D01*
X121203184Y-142702125D01*
X121201919Y-142698950D01*
X121200730Y-142695841D01*
X121195470Y-142681524D01*
X120967017Y-142059680D01*
X120965902Y-142056512D01*
X120964841Y-142053363D01*
X120963812Y-142050167D01*
X120950146Y-142005660D01*
X120764874Y-141402258D01*
X120763933Y-141399038D01*
X120763054Y-141395871D01*
X120762202Y-141392634D01*
X120694541Y-141120562D01*
X120598618Y-140734843D01*
X120597859Y-140731600D01*
X120597137Y-140728318D01*
X120596473Y-140725094D01*
X120538825Y-140424656D01*
X120468753Y-140059475D01*
X120468171Y-140056207D01*
X120467633Y-140052928D01*
X120467132Y-140049591D01*
X120422019Y-139718479D01*
X120375635Y-139378039D01*
X120375228Y-139374705D01*
X120374868Y-139371394D01*
X120374550Y-139368054D01*
X120374248Y-139364351D01*
X120365717Y-139259573D01*
X120363497Y-139232314D01*
X120359320Y-139181014D01*
X120319543Y-138692497D01*
X120319321Y-138689215D01*
X120319140Y-138685865D01*
X120319004Y-138682533D01*
X120318973Y-138681402D01*
X120307220Y-138247510D01*
X120300581Y-138002437D01*
X120300549Y-138000766D01*
X120300527Y-137999099D01*
X120300516Y-137997463D01*
X120300516Y-137927969D01*
X120300514Y-137927852D01*
X120300508Y-123720943D01*
X121149500Y-123720943D01*
X121149500Y-123879057D01*
X121150330Y-123882154D01*
X121175290Y-123975304D01*
X121190424Y-124031787D01*
X121190425Y-124031788D01*
X121190430Y-124031798D01*
X121232231Y-124104199D01*
X121269475Y-124168709D01*
X121269481Y-124168717D01*
X121269484Y-124168720D01*
X121269485Y-124168722D01*
X121288704Y-124187941D01*
X121317428Y-124232891D01*
X121332061Y-124272753D01*
X121391905Y-124435777D01*
X121399500Y-124478507D01*
X121399500Y-128296146D01*
X121413498Y-128348384D01*
X121413498Y-128348387D01*
X121413499Y-128348387D01*
X121423385Y-128385285D01*
X121423389Y-128385295D01*
X121469526Y-128465207D01*
X121469527Y-128465208D01*
X121469532Y-128465214D01*
X121469538Y-128465221D01*
X123550573Y-130546255D01*
X123571723Y-130574507D01*
X123584331Y-130597596D01*
X123599500Y-130657025D01*
X123599500Y-133996143D01*
X123605766Y-134019526D01*
X123605767Y-134019532D01*
X123623384Y-134085285D01*
X123623385Y-134085286D01*
X123630258Y-134097191D01*
X123630260Y-134097196D01*
X123652416Y-134135570D01*
X123669527Y-134165208D01*
X123669529Y-134165211D01*
X123669530Y-134165212D01*
X125169531Y-135665212D01*
X125234788Y-135730469D01*
X125234791Y-135730470D01*
X125234794Y-135730473D01*
X125240240Y-135733617D01*
X125240868Y-135734225D01*
X125243036Y-135735566D01*
X125245651Y-135736741D01*
X125314706Y-135776611D01*
X125314707Y-135776611D01*
X125314712Y-135776614D01*
X125403856Y-135800500D01*
X125521494Y-135800500D01*
X125564224Y-135808095D01*
X125767107Y-135882569D01*
X125812057Y-135911293D01*
X125831336Y-135930572D01*
X125831852Y-135930952D01*
X125834475Y-135932363D01*
X125968209Y-136009573D01*
X125968216Y-136009577D01*
X126120943Y-136050500D01*
X126120945Y-136050500D01*
X126279055Y-136050500D01*
X126279057Y-136050500D01*
X126431784Y-136009577D01*
X126568716Y-135930520D01*
X126680520Y-135818716D01*
X126759577Y-135681784D01*
X126800500Y-135529057D01*
X126800500Y-135370943D01*
X126759577Y-135218216D01*
X126726727Y-135161318D01*
X126681335Y-135082694D01*
X126680528Y-135081296D01*
X126680520Y-135081284D01*
X126680513Y-135081276D01*
X126568722Y-134969485D01*
X126568720Y-134969484D01*
X126568717Y-134969481D01*
X126568709Y-134969475D01*
X126530437Y-134947379D01*
X126431803Y-134890433D01*
X126431783Y-134890422D01*
X126302207Y-134855703D01*
X126279057Y-134849500D01*
X126279056Y-134849500D01*
X126120943Y-134849500D01*
X125968218Y-134890422D01*
X125968211Y-134890424D01*
X125968210Y-134890425D01*
X125968200Y-134890430D01*
X125831298Y-134969470D01*
X125831293Y-134969472D01*
X125831290Y-134969475D01*
X125831286Y-134969478D01*
X125831283Y-134969480D01*
X125831277Y-134969485D01*
X125831272Y-134969489D01*
X125812055Y-134988706D01*
X125767106Y-135017428D01*
X125655694Y-135058325D01*
X125585977Y-135062948D01*
X125525283Y-135029601D01*
X124349426Y-133853744D01*
X124328274Y-133825488D01*
X124315667Y-133802399D01*
X124300500Y-133742974D01*
X124300500Y-130403858D01*
X124300500Y-130403856D01*
X124276614Y-130314712D01*
X124276613Y-130314710D01*
X124265892Y-130296141D01*
X124265896Y-130296138D01*
X124265880Y-130296121D01*
X124265027Y-130294643D01*
X124265024Y-130294637D01*
X124230473Y-130234792D01*
X124230471Y-130234789D01*
X124230466Y-130234784D01*
X124230460Y-130234777D01*
X122149426Y-128153744D01*
X122128274Y-128125488D01*
X122115667Y-128102399D01*
X122100500Y-128042974D01*
X122100500Y-124870943D01*
X124249500Y-124870943D01*
X124249500Y-125029057D01*
X124252850Y-125041557D01*
X124256488Y-125055137D01*
X124256489Y-125055141D01*
X124290422Y-125181780D01*
X124290424Y-125181787D01*
X124290425Y-125181788D01*
X124290426Y-125181790D01*
X124366623Y-125313771D01*
X124366638Y-125313795D01*
X124369475Y-125318709D01*
X124369479Y-125318714D01*
X124369480Y-125318716D01*
X124370049Y-125319285D01*
X124481287Y-125430523D01*
X124481967Y-125431013D01*
X124484461Y-125432355D01*
X124579833Y-125487417D01*
X124618216Y-125509577D01*
X124770943Y-125550500D01*
X124770945Y-125550500D01*
X124929055Y-125550500D01*
X124929057Y-125550500D01*
X125081784Y-125509577D01*
X125218716Y-125430520D01*
X125299815Y-125349420D01*
X125328062Y-125328275D01*
X125351154Y-125315667D01*
X125410579Y-125300500D01*
X130230454Y-125300500D01*
X130275806Y-125309091D01*
X130472585Y-125386422D01*
X130514913Y-125414149D01*
X130543787Y-125443023D01*
X130544469Y-125443514D01*
X130546975Y-125444863D01*
X130680709Y-125522073D01*
X130680716Y-125522077D01*
X130833443Y-125563000D01*
X130833445Y-125563000D01*
X130991555Y-125563000D01*
X130991557Y-125563000D01*
X131144284Y-125522077D01*
X131281216Y-125443020D01*
X131393020Y-125331216D01*
X131472077Y-125194284D01*
X131513000Y-125041557D01*
X131513000Y-124883443D01*
X131472077Y-124730716D01*
X131434259Y-124665212D01*
X131434259Y-124665211D01*
X131402629Y-124610427D01*
X131393024Y-124593790D01*
X131393018Y-124593782D01*
X131393017Y-124593781D01*
X131393013Y-124593776D01*
X131281222Y-124481985D01*
X131281220Y-124481984D01*
X131281217Y-124481981D01*
X131281209Y-124481975D01*
X131237027Y-124456467D01*
X131144307Y-124402935D01*
X131144283Y-124402922D01*
X131032423Y-124372950D01*
X130991557Y-124362000D01*
X130991556Y-124362000D01*
X130833443Y-124362000D01*
X130680718Y-124402922D01*
X130680711Y-124402924D01*
X130680710Y-124402925D01*
X130680700Y-124402930D01*
X130543798Y-124481970D01*
X130543785Y-124481978D01*
X130533759Y-124492005D01*
X130486122Y-124521677D01*
X130277496Y-124592857D01*
X130237455Y-124599500D01*
X125417928Y-124599500D01*
X125382992Y-124594477D01*
X125357750Y-124587065D01*
X125305006Y-124555770D01*
X125218717Y-124469481D01*
X125218709Y-124469475D01*
X125192147Y-124454140D01*
X125081807Y-124390435D01*
X125081783Y-124390422D01*
X124969979Y-124360464D01*
X124929057Y-124349500D01*
X124929056Y-124349500D01*
X124770943Y-124349500D01*
X124618218Y-124390422D01*
X124618211Y-124390424D01*
X124618210Y-124390425D01*
X124618200Y-124390430D01*
X124481298Y-124469470D01*
X124481294Y-124469472D01*
X124481290Y-124469475D01*
X124481282Y-124469481D01*
X124481278Y-124469484D01*
X124481276Y-124469485D01*
X124369488Y-124581274D01*
X124369484Y-124581278D01*
X124369482Y-124581281D01*
X124369481Y-124581282D01*
X124369475Y-124581290D01*
X124362255Y-124593796D01*
X124290430Y-124718200D01*
X124290425Y-124718210D01*
X124290424Y-124718211D01*
X124290422Y-124718218D01*
X124284933Y-124738705D01*
X124249500Y-124870943D01*
X122100500Y-124870943D01*
X122100500Y-124478506D01*
X122108095Y-124435777D01*
X122167937Y-124272753D01*
X122182570Y-124232891D01*
X122211290Y-124187944D01*
X122230520Y-124168716D01*
X122309577Y-124031784D01*
X122350500Y-123879057D01*
X122350500Y-123720943D01*
X122309577Y-123568216D01*
X122276920Y-123511652D01*
X122230524Y-123431290D01*
X122230518Y-123431282D01*
X122230513Y-123431276D01*
X122118722Y-123319485D01*
X122118720Y-123319484D01*
X122118717Y-123319481D01*
X122118709Y-123319475D01*
X122084646Y-123299809D01*
X121981807Y-123240435D01*
X121981783Y-123240422D01*
X121869979Y-123210464D01*
X121829057Y-123199500D01*
X121829056Y-123199500D01*
X121670943Y-123199500D01*
X121518218Y-123240422D01*
X121518211Y-123240424D01*
X121518210Y-123240425D01*
X121518200Y-123240430D01*
X121381298Y-123319470D01*
X121381294Y-123319472D01*
X121381290Y-123319475D01*
X121381282Y-123319481D01*
X121381278Y-123319484D01*
X121381276Y-123319485D01*
X121269485Y-123431276D01*
X121269484Y-123431278D01*
X121269481Y-123431281D01*
X121269481Y-123431282D01*
X121269475Y-123431290D01*
X121269472Y-123431294D01*
X121269470Y-123431298D01*
X121190430Y-123568200D01*
X121190425Y-123568210D01*
X121190424Y-123568211D01*
X121190422Y-123568218D01*
X121169181Y-123647493D01*
X121149500Y-123720943D01*
X120300508Y-123720943D01*
X120300500Y-105002534D01*
X120300511Y-105000896D01*
X120300533Y-104999232D01*
X120300567Y-104997513D01*
X120306622Y-104774003D01*
X120318989Y-104317439D01*
X120319125Y-104314136D01*
X120319307Y-104310777D01*
X120319529Y-104307494D01*
X120320398Y-104296824D01*
X120374538Y-103631924D01*
X120374849Y-103628656D01*
X120375222Y-103625227D01*
X120375622Y-103621968D01*
X120413722Y-103342330D01*
X120467127Y-102950359D01*
X120467622Y-102947067D01*
X120468158Y-102943800D01*
X120468744Y-102940509D01*
X120481828Y-102872325D01*
X120596462Y-102274902D01*
X120597120Y-102271701D01*
X120597862Y-102268332D01*
X120598615Y-102265123D01*
X120641592Y-102092311D01*
X120641593Y-102092308D01*
X120762211Y-101607290D01*
X120763031Y-101604176D01*
X120763942Y-101600895D01*
X120764868Y-101597730D01*
X120957507Y-100970341D01*
X120963814Y-100949798D01*
X120964836Y-100946624D01*
X120965894Y-100943484D01*
X120966982Y-100940390D01*
X120999010Y-100853210D01*
X123337778Y-100853210D01*
X123337778Y-100853211D01*
X123454899Y-100970332D01*
X123454909Y-100970341D01*
X123483007Y-100994339D01*
X123483014Y-100994343D01*
X123626926Y-101073460D01*
X123626932Y-101073462D01*
X123785990Y-101114302D01*
X123785998Y-101114303D01*
X123950218Y-101114303D01*
X123950219Y-101114303D01*
X123950226Y-101114302D01*
X124109284Y-101073462D01*
X124109290Y-101073460D01*
X124253202Y-100994343D01*
X124253209Y-100994339D01*
X124281307Y-100970341D01*
X124281317Y-100970332D01*
X124469149Y-100782500D01*
X124469149Y-100782499D01*
X123938819Y-100252170D01*
X123938818Y-100252170D01*
X123337778Y-100853210D01*
X120999010Y-100853210D01*
X121200752Y-100304076D01*
X121201918Y-100301030D01*
X121203176Y-100297875D01*
X121204440Y-100294826D01*
X121222790Y-100252170D01*
X121472263Y-99672225D01*
X121473618Y-99669190D01*
X121475019Y-99666160D01*
X121476458Y-99663155D01*
X121731363Y-99149186D01*
X121751376Y-99120133D01*
X121760802Y-99109935D01*
X121820754Y-99074063D01*
X121890586Y-99076297D01*
X121890593Y-99076300D01*
X121890595Y-99076301D01*
X121896976Y-99078399D01*
X121945927Y-99108514D01*
X122158855Y-99321441D01*
X122369760Y-99532346D01*
X122369763Y-99532349D01*
X122444610Y-99586730D01*
X122446583Y-99588163D01*
X122525801Y-99613902D01*
X122566181Y-99627022D01*
X122566841Y-99627237D01*
X122567223Y-99627362D01*
X122567230Y-99627363D01*
X122567235Y-99627365D01*
X122567236Y-99627365D01*
X122567239Y-99627366D01*
X122567242Y-99627366D01*
X122612161Y-99627366D01*
X122647093Y-99632387D01*
X122660412Y-99636298D01*
X122719190Y-99674072D01*
X122748216Y-99737627D01*
X122748217Y-99737634D01*
X122749476Y-99746393D01*
X122746841Y-99794872D01*
X122723133Y-99887206D01*
X122723133Y-100051447D01*
X122763971Y-100210498D01*
X122763973Y-100210503D01*
X122763975Y-100210509D01*
X122843092Y-100354421D01*
X122843096Y-100354428D01*
X122867094Y-100382526D01*
X122867103Y-100382536D01*
X122984224Y-100499657D01*
X123585265Y-99898617D01*
X124292372Y-99898617D01*
X124822701Y-100428947D01*
X124822702Y-100428947D01*
X125010534Y-100241115D01*
X125010543Y-100241105D01*
X125034541Y-100213007D01*
X125034545Y-100213000D01*
X125113662Y-100069088D01*
X125113664Y-100069082D01*
X125154504Y-99910024D01*
X125154505Y-99910017D01*
X125154505Y-99745796D01*
X125154504Y-99745788D01*
X125113664Y-99586730D01*
X125113662Y-99586724D01*
X125034545Y-99442812D01*
X125034541Y-99442805D01*
X125010543Y-99414707D01*
X125010534Y-99414697D01*
X124893413Y-99297576D01*
X124893412Y-99297576D01*
X124577088Y-99613901D01*
X124292372Y-99898617D01*
X123585265Y-99898617D01*
X123724308Y-99759574D01*
X123762042Y-99721840D01*
X124539859Y-98944022D01*
X124422738Y-98826901D01*
X124422728Y-98826892D01*
X124394630Y-98802894D01*
X124394623Y-98802890D01*
X124250711Y-98723773D01*
X124250707Y-98723771D01*
X124250706Y-98723771D01*
X124250700Y-98723769D01*
X124091649Y-98682931D01*
X124091647Y-98682931D01*
X123927419Y-98682931D01*
X123927414Y-98682931D01*
X123839670Y-98705459D01*
X123804609Y-98709282D01*
X123802058Y-98709195D01*
X123735728Y-98687237D01*
X123691799Y-98632904D01*
X123684219Y-98563447D01*
X123684881Y-98560024D01*
X123759895Y-98199257D01*
X123792815Y-98137628D01*
X123853827Y-98103581D01*
X123881298Y-98100500D01*
X124754943Y-98100500D01*
X124768126Y-98102395D01*
G37*
%TD.AperFunction*%
%TA.AperFunction,Conductor*%
G36*
X152979186Y-114468275D02*
G01*
X152986172Y-114471465D01*
X153022342Y-114496578D01*
X153056283Y-114530519D01*
X153056976Y-114531019D01*
X153059493Y-114532373D01*
X153120652Y-114567683D01*
X153120653Y-114567683D01*
X153120656Y-114567685D01*
X153193216Y-114609577D01*
X153345943Y-114650500D01*
X153345945Y-114650500D01*
X153373132Y-114650500D01*
X153425228Y-114661974D01*
X153621351Y-114752773D01*
X153656936Y-114777618D01*
X154250573Y-115371255D01*
X154271723Y-115399507D01*
X154284331Y-115422596D01*
X154299500Y-115482025D01*
X154299500Y-125285626D01*
X154294476Y-125320563D01*
X154287064Y-125345804D01*
X154255769Y-125398548D01*
X151378744Y-128275573D01*
X151350493Y-128296722D01*
X151327405Y-128309330D01*
X151267975Y-128324500D01*
X147578856Y-128324500D01*
X147489725Y-128348382D01*
X147489708Y-128348387D01*
X147489703Y-128348389D01*
X147409791Y-128394526D01*
X147409790Y-128394527D01*
X147409784Y-128394532D01*
X147409777Y-128394538D01*
X146269531Y-129534784D01*
X146251023Y-129566844D01*
X146251019Y-129566850D01*
X146223391Y-129614699D01*
X146223388Y-129614705D01*
X146223384Y-129614716D01*
X146199500Y-129703856D01*
X146199500Y-141085625D01*
X146194476Y-141120562D01*
X146187064Y-141145803D01*
X146155769Y-141198547D01*
X144914849Y-142439466D01*
X144886596Y-142460617D01*
X144874414Y-142467269D01*
X144806141Y-142482121D01*
X144740678Y-142457705D01*
X144730250Y-142449899D01*
X144704246Y-142423520D01*
X144651193Y-142350499D01*
X144594517Y-142272490D01*
X144427510Y-142105483D01*
X144236433Y-141966657D01*
X144188249Y-141942106D01*
X144188248Y-141942105D01*
X144092026Y-141893076D01*
X144063189Y-141872749D01*
X144055418Y-141865411D01*
X144020190Y-141805072D01*
X144023176Y-141735266D01*
X144063427Y-141678156D01*
X144116799Y-141653550D01*
X144120671Y-141652794D01*
X144144420Y-141650499D01*
X144881517Y-141650499D01*
X144881518Y-141650499D01*
X144975304Y-141635646D01*
X145088342Y-141578050D01*
X145178050Y-141488342D01*
X145235646Y-141375304D01*
X145235646Y-141375302D01*
X145235647Y-141375301D01*
X145235648Y-141375294D01*
X145236785Y-141370560D01*
X145236785Y-141370558D01*
X145236789Y-141370539D01*
X145237173Y-141365668D01*
X145250111Y-141283979D01*
X145250437Y-141282154D01*
X145250499Y-141281523D01*
X145250500Y-141281519D01*
X145250499Y-138318482D01*
X145235646Y-138224696D01*
X145209524Y-138173430D01*
X145199169Y-138147804D01*
X145187051Y-138129324D01*
X145178050Y-138111658D01*
X145177849Y-138111380D01*
X145175838Y-138108591D01*
X145163551Y-138093486D01*
X144870805Y-137647039D01*
X144850505Y-137580184D01*
X144850500Y-137579044D01*
X144850500Y-135420953D01*
X144870185Y-135353914D01*
X144870805Y-135352958D01*
X144905531Y-135300000D01*
X145170543Y-134895848D01*
X145178050Y-134888342D01*
X145187056Y-134870666D01*
X145199169Y-134852194D01*
X145206444Y-134840416D01*
X145207080Y-134839321D01*
X145213685Y-134827206D01*
X145215978Y-134819101D01*
X145224806Y-134796577D01*
X145235646Y-134775304D01*
X145235646Y-134775302D01*
X145235647Y-134775301D01*
X145246282Y-134708147D01*
X145250500Y-134681519D01*
X145250499Y-131718482D01*
X145235646Y-131624696D01*
X145209524Y-131573430D01*
X145199169Y-131547804D01*
X145187051Y-131529324D01*
X145183981Y-131523299D01*
X145183978Y-131523292D01*
X145180676Y-131516812D01*
X145178050Y-131511658D01*
X145177849Y-131511380D01*
X145175838Y-131508591D01*
X145163551Y-131493486D01*
X144870805Y-131047039D01*
X144850505Y-130980184D01*
X144850500Y-130979044D01*
X144850500Y-126803858D01*
X144850500Y-126803856D01*
X144826614Y-126714712D01*
X144826611Y-126714706D01*
X144815612Y-126695655D01*
X144815611Y-126695653D01*
X144815611Y-126695654D01*
X144807448Y-126681515D01*
X144780474Y-126634794D01*
X144780468Y-126634786D01*
X144780464Y-126634782D01*
X144780463Y-126634780D01*
X142617990Y-124472308D01*
X142584797Y-124412295D01*
X142584491Y-124410960D01*
X142579084Y-124401057D01*
X142584068Y-124331366D01*
X142625940Y-124275433D01*
X142656912Y-124258520D01*
X142659820Y-124257435D01*
X142713459Y-124252095D01*
X142713616Y-124250116D01*
X142718466Y-124250497D01*
X142718481Y-124250500D01*
X145681518Y-124250499D01*
X145775304Y-124235646D01*
X145826580Y-124209519D01*
X145852195Y-124199168D01*
X145870663Y-124187057D01*
X145888342Y-124178050D01*
X145888347Y-124178045D01*
X145891596Y-124175685D01*
X145906515Y-124163547D01*
X146352956Y-123870804D01*
X146419811Y-123850505D01*
X146420951Y-123850500D01*
X148579048Y-123850500D01*
X148646087Y-123870185D01*
X148647007Y-123870781D01*
X149002974Y-124104199D01*
X149093485Y-124163549D01*
X149105057Y-124172139D01*
X149109275Y-124175668D01*
X149111652Y-124178045D01*
X149111654Y-124178046D01*
X149111658Y-124178050D01*
X149112844Y-124178654D01*
X149112845Y-124178655D01*
X149123291Y-124183977D01*
X149135000Y-124190772D01*
X149147800Y-124199166D01*
X149157230Y-124204990D01*
X149159583Y-124206444D01*
X149160678Y-124207080D01*
X149172793Y-124213685D01*
X149180901Y-124215980D01*
X149203422Y-124224806D01*
X149224694Y-124235645D01*
X149224698Y-124235647D01*
X149318220Y-124250458D01*
X149318457Y-124250497D01*
X149318466Y-124250497D01*
X149318475Y-124250499D01*
X149318481Y-124250500D01*
X152281518Y-124250499D01*
X152375304Y-124235646D01*
X152488342Y-124178050D01*
X152578050Y-124088342D01*
X152635646Y-123975304D01*
X152635646Y-123975302D01*
X152635647Y-123975301D01*
X152635648Y-123975294D01*
X152636785Y-123970560D01*
X152636785Y-123970558D01*
X152636789Y-123970539D01*
X152637173Y-123965668D01*
X152650111Y-123883979D01*
X152650437Y-123882154D01*
X152650499Y-123881523D01*
X152650500Y-123881519D01*
X152650499Y-123118482D01*
X152635646Y-123024696D01*
X152578050Y-122911658D01*
X152578046Y-122911654D01*
X152578045Y-122911652D01*
X152488347Y-122821954D01*
X152488344Y-122821952D01*
X152488342Y-122821950D01*
X152488341Y-122821949D01*
X152399290Y-122776574D01*
X152399284Y-122776572D01*
X152388236Y-122770943D01*
X152375301Y-122764352D01*
X152329305Y-122757067D01*
X152322436Y-122755153D01*
X152318394Y-122752633D01*
X152302621Y-122747757D01*
X152290922Y-122742212D01*
X152265933Y-122719930D01*
X152263144Y-122718191D01*
X152262530Y-122716895D01*
X152238773Y-122695711D01*
X152220044Y-122628399D01*
X152237843Y-122566130D01*
X152242629Y-122558191D01*
X152261132Y-122534547D01*
X153380470Y-121415212D01*
X153426614Y-121335288D01*
X153432218Y-121314374D01*
X153450500Y-121246144D01*
X153450500Y-119146700D01*
X153456238Y-119109415D01*
X153459206Y-119100000D01*
X153523741Y-118895307D01*
X153550956Y-118850463D01*
X153550570Y-118850167D01*
X153553282Y-118846631D01*
X153554329Y-118844905D01*
X153555520Y-118843716D01*
X153634577Y-118706784D01*
X153675500Y-118554057D01*
X153675500Y-118395943D01*
X153634577Y-118243216D01*
X153634573Y-118243209D01*
X153555524Y-118106290D01*
X153555518Y-118106282D01*
X153555514Y-118106278D01*
X153555513Y-118106276D01*
X153443722Y-117994485D01*
X153443720Y-117994484D01*
X153443717Y-117994481D01*
X153443709Y-117994475D01*
X153417147Y-117979140D01*
X153306807Y-117915435D01*
X153306783Y-117915422D01*
X153194979Y-117885464D01*
X153154057Y-117874500D01*
X153154056Y-117874500D01*
X152995943Y-117874500D01*
X152843218Y-117915422D01*
X152843211Y-117915424D01*
X152843210Y-117915425D01*
X152843200Y-117915430D01*
X152706298Y-117994470D01*
X152706294Y-117994472D01*
X152706290Y-117994475D01*
X152706282Y-117994481D01*
X152706278Y-117994484D01*
X152706276Y-117994485D01*
X152594485Y-118106276D01*
X152594484Y-118106278D01*
X152594481Y-118106281D01*
X152594481Y-118106282D01*
X152594475Y-118106290D01*
X152594472Y-118106294D01*
X152594470Y-118106298D01*
X152515430Y-118243200D01*
X152515425Y-118243210D01*
X152515424Y-118243211D01*
X152515422Y-118243218D01*
X152477608Y-118384345D01*
X152471228Y-118402428D01*
X152461129Y-118425251D01*
X152416006Y-118478588D01*
X152413054Y-118480535D01*
X152358317Y-118500281D01*
X152353618Y-118500797D01*
X152330360Y-118501156D01*
X152315676Y-118500001D01*
X152315660Y-118500000D01*
X152315655Y-118500000D01*
X152315649Y-118500000D01*
X151050000Y-118500000D01*
X151050000Y-120500000D01*
X152315629Y-120500000D01*
X152315634Y-120500000D01*
X152315649Y-120499999D01*
X152352489Y-120497100D01*
X152352495Y-120497099D01*
X152510193Y-120451283D01*
X152510196Y-120451282D01*
X152547037Y-120429494D01*
X152579657Y-120416038D01*
X152593113Y-120412624D01*
X152662935Y-120415218D01*
X152720263Y-120455141D01*
X152721065Y-120456139D01*
X152746041Y-120509704D01*
X152747133Y-120515213D01*
X152749500Y-120539323D01*
X152749500Y-120985625D01*
X152744476Y-121020562D01*
X152737064Y-121045803D01*
X152705769Y-121098547D01*
X151466228Y-122338086D01*
X151427393Y-122364379D01*
X150552177Y-122739474D01*
X150503331Y-122749500D01*
X149318478Y-122749500D01*
X149250823Y-122760215D01*
X149250819Y-122760216D01*
X149237519Y-122762323D01*
X149224696Y-122764354D01*
X149173437Y-122790471D01*
X149167950Y-122792688D01*
X149167811Y-122792743D01*
X149147805Y-122800830D01*
X149134979Y-122809239D01*
X149126023Y-122814586D01*
X149124633Y-122815338D01*
X149111658Y-122821950D01*
X149111657Y-122821951D01*
X149111652Y-122821954D01*
X149110756Y-122822849D01*
X149109427Y-122823569D01*
X149108419Y-122824302D01*
X149093488Y-122836445D01*
X148647041Y-123129195D01*
X148580185Y-123149495D01*
X148579045Y-123149500D01*
X146420953Y-123149500D01*
X146353914Y-123129815D01*
X146353071Y-123129269D01*
X145906513Y-122836449D01*
X145893826Y-122826132D01*
X145892315Y-122825201D01*
X145892303Y-122825191D01*
X145890065Y-122823147D01*
X145889292Y-122822551D01*
X145888666Y-122822115D01*
X145885679Y-122820593D01*
X145876699Y-122816017D01*
X145865010Y-122809234D01*
X145852195Y-122800831D01*
X145840416Y-122793555D01*
X145839321Y-122792919D01*
X145827206Y-122786314D01*
X145827200Y-122786312D01*
X145819095Y-122784018D01*
X145796569Y-122775189D01*
X145788236Y-122770943D01*
X145788232Y-122770940D01*
X145775300Y-122764351D01*
X145775296Y-122764350D01*
X145681530Y-122749500D01*
X145681524Y-122749500D01*
X142718480Y-122749500D01*
X142718474Y-122749500D01*
X142674883Y-122756404D01*
X142639586Y-122756907D01*
X142633089Y-122756067D01*
X142569127Y-122727949D01*
X142530521Y-122669714D01*
X142529527Y-122599852D01*
X142536917Y-122580027D01*
X142537646Y-122578485D01*
X142543649Y-122565808D01*
X142568037Y-122531196D01*
X142630520Y-122468716D01*
X142709577Y-122331784D01*
X142750500Y-122179057D01*
X142750500Y-122020943D01*
X142709577Y-121868216D01*
X142709573Y-121868209D01*
X142630524Y-121731290D01*
X142630518Y-121731282D01*
X142630514Y-121731278D01*
X142630513Y-121731276D01*
X142624023Y-121724786D01*
X142602874Y-121696536D01*
X142597453Y-121686608D01*
X142582600Y-121618339D01*
X142607014Y-121552874D01*
X142662944Y-121511001D01*
X142666823Y-121509554D01*
X142670159Y-121508311D01*
X142713473Y-121500500D01*
X146346142Y-121500500D01*
X146346144Y-121500500D01*
X146435288Y-121476614D01*
X146515212Y-121430470D01*
X147830470Y-120115212D01*
X147876614Y-120035288D01*
X147881027Y-120018819D01*
X147900500Y-119946144D01*
X147900500Y-119915649D01*
X148700000Y-119915649D01*
X148702898Y-119952482D01*
X148702899Y-119952487D01*
X148702901Y-119952501D01*
X148702902Y-119952505D01*
X148748707Y-120110165D01*
X148748717Y-120110196D01*
X148748718Y-120110199D01*
X148832310Y-120251546D01*
X148832313Y-120251551D01*
X148832322Y-120251562D01*
X148948436Y-120367676D01*
X148948447Y-120367685D01*
X148948452Y-120367688D01*
X149089799Y-120451280D01*
X149089800Y-120451280D01*
X149089803Y-120451282D01*
X149089806Y-120451283D01*
X149089828Y-120451289D01*
X149089833Y-120451291D01*
X149247493Y-120497096D01*
X149247497Y-120497097D01*
X149247504Y-120497099D01*
X149247510Y-120497100D01*
X149284350Y-120499999D01*
X149284366Y-120500000D01*
X150550000Y-120500000D01*
X150550000Y-119750000D01*
X148700000Y-119750000D01*
X148700000Y-119915649D01*
X147900500Y-119915649D01*
X147900500Y-119084350D01*
X148700000Y-119084350D01*
X148700000Y-119250000D01*
X150550000Y-119250000D01*
X150550000Y-118500000D01*
X149284344Y-118500000D01*
X149252772Y-118502484D01*
X149247510Y-118502899D01*
X149247504Y-118502900D01*
X149247497Y-118502901D01*
X149247493Y-118502902D01*
X149089833Y-118548707D01*
X149089802Y-118548717D01*
X149089799Y-118548718D01*
X148948452Y-118632310D01*
X148948447Y-118632313D01*
X148948436Y-118632322D01*
X148832322Y-118748436D01*
X148832313Y-118748447D01*
X148832310Y-118748452D01*
X148748718Y-118889799D01*
X148748717Y-118889802D01*
X148748707Y-118889833D01*
X148702902Y-119047493D01*
X148702901Y-119047497D01*
X148702900Y-119047504D01*
X148702899Y-119047510D01*
X148700000Y-119084350D01*
X147900500Y-119084350D01*
X147900500Y-117814373D01*
X147905522Y-117779440D01*
X147912934Y-117754195D01*
X147944228Y-117701453D01*
X148496258Y-117149423D01*
X148524508Y-117128275D01*
X148547600Y-117115667D01*
X148607025Y-117100500D01*
X149321494Y-117100500D01*
X149364224Y-117108095D01*
X149567107Y-117182569D01*
X149612057Y-117211293D01*
X149631336Y-117230572D01*
X149631852Y-117230952D01*
X149634475Y-117232363D01*
X149768209Y-117309573D01*
X149768216Y-117309577D01*
X149920943Y-117350500D01*
X149920945Y-117350500D01*
X150079055Y-117350500D01*
X150079057Y-117350500D01*
X150231784Y-117309577D01*
X150368716Y-117230520D01*
X150387944Y-117211290D01*
X150432892Y-117182569D01*
X150530372Y-117146786D01*
X150635777Y-117108095D01*
X150678506Y-117100500D01*
X151596142Y-117100500D01*
X151596144Y-117100500D01*
X151685288Y-117076614D01*
X151765212Y-117030470D01*
X152730470Y-116065212D01*
X152776614Y-115985288D01*
X152800500Y-115896144D01*
X152800500Y-114591927D01*
X152805521Y-114557000D01*
X152808707Y-114546147D01*
X152846477Y-114487366D01*
X152910031Y-114458337D01*
X152979186Y-114468275D01*
G37*
%TD.AperFunction*%
%TA.AperFunction,Conductor*%
G36*
X135427668Y-125570185D02*
G01*
X135438091Y-125577672D01*
X135702963Y-125789570D01*
X135743015Y-125846819D01*
X135749501Y-125886397D01*
X135749501Y-126681517D01*
X135764354Y-126775306D01*
X135781932Y-126809804D01*
X135790475Y-126826570D01*
X135800831Y-126852195D01*
X135812945Y-126870670D01*
X135816019Y-126876703D01*
X135822114Y-126888665D01*
X135822551Y-126889292D01*
X135824065Y-126891254D01*
X135824318Y-126891602D01*
X135836449Y-126906514D01*
X135870776Y-126958863D01*
X136094469Y-127300000D01*
X136129195Y-127352957D01*
X136149495Y-127419813D01*
X136149500Y-127420953D01*
X136149500Y-129579044D01*
X136129815Y-129646083D01*
X136129195Y-129647040D01*
X135836446Y-130093487D01*
X135824292Y-130108432D01*
X135823207Y-130109926D01*
X135822048Y-130111464D01*
X135816020Y-130123294D01*
X135809239Y-130134979D01*
X135800825Y-130147812D01*
X135793478Y-130159714D01*
X135792846Y-130160804D01*
X135786315Y-130172789D01*
X135786313Y-130172794D01*
X135784015Y-130180912D01*
X135775192Y-130203421D01*
X135764352Y-130224695D01*
X135764351Y-130224700D01*
X135749500Y-130318469D01*
X135749500Y-133281520D01*
X135754906Y-133315654D01*
X135759101Y-133342137D01*
X135764354Y-133375304D01*
X135821950Y-133488342D01*
X135821952Y-133488344D01*
X135821954Y-133488347D01*
X135911652Y-133578045D01*
X135911654Y-133578046D01*
X135911658Y-133578050D01*
X136024696Y-133635646D01*
X136024698Y-133635647D01*
X136118220Y-133650458D01*
X136118457Y-133650497D01*
X136118466Y-133650497D01*
X136118475Y-133650499D01*
X136118481Y-133650500D01*
X136836629Y-133650499D01*
X136871550Y-133655518D01*
X136882408Y-133658706D01*
X136941186Y-133696475D01*
X136970216Y-133760028D01*
X136960277Y-133829187D01*
X136960275Y-133829192D01*
X136957089Y-133836169D01*
X136931976Y-133872341D01*
X136903745Y-133900573D01*
X136875492Y-133921723D01*
X136852405Y-133934330D01*
X136792976Y-133949500D01*
X134953856Y-133949500D01*
X134864725Y-133973382D01*
X134864717Y-133973384D01*
X134864712Y-133973386D01*
X134864709Y-133973387D01*
X134831308Y-133992671D01*
X134784803Y-134019520D01*
X134784784Y-134019532D01*
X132903744Y-135900573D01*
X132875493Y-135921722D01*
X132852405Y-135934330D01*
X132792975Y-135949500D01*
X131353856Y-135949500D01*
X131264725Y-135973382D01*
X131264708Y-135973387D01*
X131264703Y-135973389D01*
X131184791Y-136019526D01*
X131184790Y-136019527D01*
X131184784Y-136019532D01*
X131184777Y-136019538D01*
X130119535Y-137084780D01*
X130119532Y-137084784D01*
X130119511Y-137084818D01*
X130101810Y-137115480D01*
X130101807Y-137115486D01*
X130073386Y-137164709D01*
X130049500Y-137253856D01*
X130049500Y-141035626D01*
X130044476Y-141070563D01*
X130037064Y-141095804D01*
X130005769Y-141148548D01*
X129553744Y-141600573D01*
X129525493Y-141621722D01*
X129502405Y-141634330D01*
X129442975Y-141649500D01*
X129316115Y-141649500D01*
X129281176Y-141644476D01*
X129267858Y-141640565D01*
X129209081Y-141602789D01*
X129180060Y-141539240D01*
X129179585Y-141535937D01*
X129184130Y-141480780D01*
X129184728Y-141478895D01*
X129192430Y-141460119D01*
X129235645Y-141375306D01*
X129235647Y-141375301D01*
X129236398Y-141370560D01*
X129250111Y-141283979D01*
X129250437Y-141282154D01*
X129250499Y-141281523D01*
X129250500Y-141281519D01*
X129250499Y-138318482D01*
X129235646Y-138224696D01*
X129209524Y-138173430D01*
X129199169Y-138147804D01*
X129187051Y-138129324D01*
X129178050Y-138111658D01*
X129177849Y-138111380D01*
X129175838Y-138108591D01*
X129163551Y-138093486D01*
X128870805Y-137647039D01*
X128850505Y-137580184D01*
X128850500Y-137579044D01*
X128850500Y-135420953D01*
X128870185Y-135353914D01*
X128870805Y-135352958D01*
X128905531Y-135300000D01*
X129170543Y-134895848D01*
X129178050Y-134888342D01*
X129187056Y-134870666D01*
X129199169Y-134852194D01*
X129206444Y-134840416D01*
X129207080Y-134839321D01*
X129213685Y-134827206D01*
X129215978Y-134819101D01*
X129224806Y-134796577D01*
X129235646Y-134775304D01*
X129235646Y-134775302D01*
X129235647Y-134775301D01*
X129245094Y-134715654D01*
X131500000Y-134715654D01*
X131502899Y-134752487D01*
X131502901Y-134752501D01*
X131502902Y-134752505D01*
X131548707Y-134910165D01*
X131548717Y-134910196D01*
X131548718Y-134910199D01*
X131632310Y-135051546D01*
X131632313Y-135051551D01*
X131632322Y-135051562D01*
X131748436Y-135167676D01*
X131748447Y-135167685D01*
X131748452Y-135167688D01*
X131889799Y-135251280D01*
X131889800Y-135251280D01*
X131889803Y-135251282D01*
X131889806Y-135251283D01*
X131889828Y-135251289D01*
X131889833Y-135251291D01*
X132047493Y-135297096D01*
X132047497Y-135297097D01*
X132047504Y-135297099D01*
X132047510Y-135297100D01*
X132084350Y-135299999D01*
X132084366Y-135300000D01*
X132250000Y-135300000D01*
X132750000Y-135300000D01*
X132915629Y-135300000D01*
X132915634Y-135300000D01*
X132915649Y-135299999D01*
X132952489Y-135297100D01*
X132952495Y-135297099D01*
X133110193Y-135251283D01*
X133110196Y-135251282D01*
X133251552Y-135167685D01*
X133251561Y-135167678D01*
X133367678Y-135051561D01*
X133367685Y-135051552D01*
X133451282Y-134910196D01*
X133451283Y-134910193D01*
X133497099Y-134752495D01*
X133497100Y-134752489D01*
X133499999Y-134715649D01*
X133500000Y-134715634D01*
X133500000Y-133450000D01*
X132750000Y-133450000D01*
X132750000Y-135300000D01*
X132250000Y-135300000D01*
X132250000Y-133450000D01*
X131500000Y-133450000D01*
X131500000Y-134715654D01*
X129245094Y-134715654D01*
X129250500Y-134681524D01*
X129250500Y-133398638D01*
X129250499Y-131718482D01*
X129250498Y-131718475D01*
X129235646Y-131624696D01*
X129178050Y-131511658D01*
X129178048Y-131511656D01*
X129178047Y-131511654D01*
X129176643Y-131510250D01*
X129163157Y-131494272D01*
X129156502Y-131484883D01*
X129032147Y-131309428D01*
X129009443Y-131243353D01*
X129026066Y-131175489D01*
X129045628Y-131150053D01*
X129046261Y-131149420D01*
X129074510Y-131128274D01*
X129089326Y-131120185D01*
X129097605Y-131115665D01*
X129157026Y-131100500D01*
X131563068Y-131100500D01*
X131597995Y-131105521D01*
X131608848Y-131108707D01*
X131667629Y-131146477D01*
X131696658Y-131210031D01*
X131686719Y-131279190D01*
X131686718Y-131279192D01*
X131683533Y-131286167D01*
X131658417Y-131322342D01*
X131632322Y-131348436D01*
X131632313Y-131348447D01*
X131632310Y-131348452D01*
X131548718Y-131489799D01*
X131548717Y-131489802D01*
X131548707Y-131489833D01*
X131502902Y-131647493D01*
X131502901Y-131647497D01*
X131502900Y-131647504D01*
X131502899Y-131647510D01*
X131500000Y-131684350D01*
X131500000Y-132950000D01*
X133500000Y-132950000D01*
X133500000Y-131684365D01*
X133499999Y-131684350D01*
X133497100Y-131647510D01*
X133497099Y-131647504D01*
X133476980Y-131578256D01*
X133451291Y-131489833D01*
X133451289Y-131489828D01*
X133451283Y-131489806D01*
X133451282Y-131489803D01*
X133448372Y-131484883D01*
X133367688Y-131348452D01*
X133367685Y-131348447D01*
X133367676Y-131348436D01*
X133344028Y-131324788D01*
X133322879Y-131296538D01*
X133317457Y-131286608D01*
X133302604Y-131218338D01*
X133327018Y-131152873D01*
X133382948Y-131111001D01*
X133386827Y-131109554D01*
X133390163Y-131108311D01*
X133433477Y-131100500D01*
X134446142Y-131100500D01*
X134446144Y-131100500D01*
X134535288Y-131076614D01*
X134615212Y-131030470D01*
X135180470Y-130465212D01*
X135226614Y-130385288D01*
X135250500Y-130296144D01*
X135250500Y-130203856D01*
X135250500Y-127703856D01*
X135226614Y-127614712D01*
X135218408Y-127600499D01*
X135204619Y-127576615D01*
X135204617Y-127576613D01*
X135200556Y-127569579D01*
X135200556Y-127569578D01*
X135200550Y-127569569D01*
X135180472Y-127534790D01*
X135180468Y-127534785D01*
X133630545Y-125984863D01*
X133612077Y-125952710D01*
X133600047Y-125938847D01*
X133598679Y-125929385D01*
X133598309Y-125928740D01*
X133595696Y-125918811D01*
X133597098Y-125918441D01*
X133590055Y-125869695D01*
X133619034Y-125806119D01*
X133669505Y-125771061D01*
X133670089Y-125770843D01*
X133725163Y-125763601D01*
X133727408Y-125763815D01*
X133747698Y-125767476D01*
X133870943Y-125800500D01*
X133870946Y-125800500D01*
X134029055Y-125800500D01*
X134029057Y-125800500D01*
X134181784Y-125759577D01*
X134318716Y-125680520D01*
X134337944Y-125661290D01*
X134382892Y-125632569D01*
X134532444Y-125577672D01*
X134585777Y-125558095D01*
X134628506Y-125550500D01*
X135360629Y-125550500D01*
X135427668Y-125570185D01*
G37*
%TD.AperFunction*%
%TA.AperFunction,Conductor*%
G36*
X146903056Y-92305521D02*
G01*
X146916375Y-92309432D01*
X146975153Y-92347206D01*
X147004179Y-92410761D01*
X147004180Y-92410769D01*
X147005174Y-92417685D01*
X146998546Y-92463763D01*
X147000149Y-92464247D01*
X146996955Y-92474825D01*
X146995227Y-92486843D01*
X146992311Y-92490206D01*
X146958674Y-92601628D01*
X146958370Y-92602895D01*
X146924500Y-92816740D01*
X146924500Y-93033252D01*
X146958370Y-93247101D01*
X147025263Y-93452982D01*
X147025271Y-93453005D01*
X147025273Y-93453009D01*
X147123567Y-93645920D01*
X147147458Y-93678802D01*
X147172444Y-93713193D01*
X147188914Y-93744408D01*
X147193265Y-93756603D01*
X147197253Y-93826359D01*
X147162895Y-93887197D01*
X147106286Y-93918635D01*
X147097290Y-93920863D01*
X147067480Y-93924500D01*
X146676092Y-93924500D01*
X146609053Y-93904815D01*
X146563298Y-93852011D01*
X146559362Y-93842334D01*
X146546711Y-93807035D01*
X146426974Y-93472930D01*
X146357769Y-93279825D01*
X146350499Y-93237991D01*
X146350499Y-93043482D01*
X146342195Y-92991050D01*
X146342195Y-92991049D01*
X146335647Y-92949699D01*
X146335644Y-92949691D01*
X146306293Y-92892087D01*
X146278050Y-92836658D01*
X146278046Y-92836654D01*
X146278045Y-92836652D01*
X146188347Y-92746954D01*
X146188344Y-92746952D01*
X146188342Y-92746950D01*
X146188341Y-92746949D01*
X146088133Y-92695890D01*
X146088132Y-92695890D01*
X146075299Y-92689351D01*
X145981530Y-92674500D01*
X145981524Y-92674500D01*
X145018482Y-92674500D01*
X145018478Y-92674500D01*
X144953846Y-92684736D01*
X144953842Y-92684737D01*
X144937519Y-92687323D01*
X144924696Y-92689354D01*
X144811658Y-92746950D01*
X144811657Y-92746951D01*
X144811652Y-92746954D01*
X144808652Y-92749953D01*
X144808649Y-92749955D01*
X144721955Y-92836649D01*
X144721946Y-92836664D01*
X144664353Y-92949695D01*
X144664350Y-92949703D01*
X144649500Y-93043469D01*
X144649500Y-93806520D01*
X144657838Y-93859167D01*
X144657839Y-93859169D01*
X144660292Y-93874657D01*
X144664354Y-93900304D01*
X144721950Y-94013342D01*
X144721952Y-94013344D01*
X144721954Y-94013347D01*
X144726635Y-94018028D01*
X144726636Y-94018030D01*
X144753714Y-94045107D01*
X144774867Y-94073364D01*
X144781518Y-94085545D01*
X144796369Y-94153819D01*
X144771951Y-94219282D01*
X144771944Y-94219292D01*
X144766639Y-94226377D01*
X144730503Y-94258786D01*
X144648452Y-94307312D01*
X144648437Y-94307321D01*
X144532319Y-94423440D01*
X144532313Y-94423447D01*
X144532310Y-94423452D01*
X144448718Y-94564799D01*
X144448717Y-94564802D01*
X144448707Y-94564833D01*
X144402902Y-94722493D01*
X144402901Y-94722497D01*
X144402899Y-94722511D01*
X144400693Y-94750547D01*
X144400000Y-94759350D01*
X144400000Y-94925000D01*
X146600000Y-94925000D01*
X146600000Y-94772054D01*
X146602651Y-94746552D01*
X146606777Y-94726919D01*
X146639828Y-94665361D01*
X146697044Y-94632380D01*
X146708325Y-94629459D01*
X146739407Y-94625500D01*
X147101102Y-94625500D01*
X147136034Y-94630522D01*
X147142362Y-94632380D01*
X147148459Y-94634170D01*
X147207238Y-94671943D01*
X147236264Y-94735498D01*
X147228420Y-94799790D01*
X147224934Y-94808377D01*
X147210359Y-94834620D01*
X147123568Y-94954076D01*
X147123568Y-94954077D01*
X147025270Y-95146996D01*
X147025270Y-95146997D01*
X147025263Y-95147016D01*
X146958370Y-95352897D01*
X146937763Y-95483007D01*
X146924500Y-95566746D01*
X146924500Y-95783254D01*
X146924936Y-95786005D01*
X146924935Y-95786005D01*
X146924937Y-95786014D01*
X146958370Y-95997101D01*
X147025263Y-96202982D01*
X147025270Y-96203001D01*
X147025272Y-96203006D01*
X147025273Y-96203009D01*
X147088719Y-96327527D01*
X147100335Y-96350324D01*
X147123565Y-96395917D01*
X147143045Y-96422728D01*
X147250828Y-96571078D01*
X147403922Y-96724172D01*
X147579081Y-96851433D01*
X147635306Y-96880081D01*
X147771990Y-96949726D01*
X147771993Y-96949727D01*
X147874947Y-96983178D01*
X147977903Y-97016630D01*
X148191746Y-97050500D01*
X148191747Y-97050500D01*
X148408253Y-97050500D01*
X148408254Y-97050500D01*
X148622097Y-97016630D01*
X148828009Y-96949726D01*
X149020919Y-96851433D01*
X149088195Y-96802552D01*
X149119400Y-96786087D01*
X149131598Y-96781734D01*
X149201352Y-96777743D01*
X149262192Y-96812098D01*
X149293633Y-96868706D01*
X149295862Y-96877704D01*
X149299500Y-96907520D01*
X149299500Y-97696144D01*
X149312401Y-97744291D01*
X149318262Y-97766163D01*
X149318262Y-97766164D01*
X149323385Y-97785284D01*
X149323389Y-97785295D01*
X149369526Y-97865207D01*
X149369528Y-97865209D01*
X149369534Y-97865216D01*
X150300573Y-98796254D01*
X150321723Y-98824506D01*
X150334331Y-98847595D01*
X150349500Y-98907024D01*
X150349500Y-99086626D01*
X150344476Y-99121564D01*
X150341289Y-99132417D01*
X150303514Y-99191194D01*
X150239957Y-99220217D01*
X150170807Y-99210276D01*
X150163829Y-99207089D01*
X150127657Y-99181975D01*
X148365221Y-97419538D01*
X148365214Y-97419532D01*
X148365208Y-97419527D01*
X148365207Y-97419526D01*
X148316300Y-97391290D01*
X148285290Y-97373387D01*
X148285283Y-97373384D01*
X148285279Y-97373383D01*
X148285277Y-97373382D01*
X148211881Y-97353712D01*
X148211836Y-97353704D01*
X148196145Y-97349500D01*
X148196144Y-97349500D01*
X148196143Y-97349500D01*
X144414374Y-97349500D01*
X144379438Y-97344477D01*
X144354196Y-97337065D01*
X144301451Y-97305769D01*
X142586332Y-95590649D01*
X144400000Y-95590649D01*
X144402855Y-95626936D01*
X144402899Y-95627487D01*
X144402901Y-95627501D01*
X144402902Y-95627505D01*
X144448707Y-95785165D01*
X144448717Y-95785196D01*
X144448718Y-95785199D01*
X144532310Y-95926546D01*
X144532313Y-95926551D01*
X144532322Y-95926562D01*
X144648436Y-96042676D01*
X144648447Y-96042685D01*
X144648452Y-96042688D01*
X144789799Y-96126280D01*
X144789800Y-96126280D01*
X144789803Y-96126282D01*
X144789806Y-96126283D01*
X144789828Y-96126289D01*
X144789833Y-96126291D01*
X144947493Y-96172096D01*
X144947497Y-96172097D01*
X144947504Y-96172099D01*
X144947510Y-96172100D01*
X144984350Y-96174999D01*
X144984366Y-96175000D01*
X145250000Y-96175000D01*
X145750000Y-96175000D01*
X146015629Y-96175000D01*
X146015634Y-96175000D01*
X146015649Y-96174999D01*
X146052489Y-96172100D01*
X146052495Y-96172099D01*
X146210193Y-96126283D01*
X146210196Y-96126282D01*
X146351552Y-96042685D01*
X146351561Y-96042678D01*
X146467678Y-95926561D01*
X146467685Y-95926552D01*
X146551282Y-95785196D01*
X146551283Y-95785193D01*
X146597099Y-95627495D01*
X146597100Y-95627489D01*
X146599999Y-95590649D01*
X146600000Y-95590634D01*
X146600000Y-95425000D01*
X145750000Y-95425000D01*
X145750000Y-96175000D01*
X145250000Y-96175000D01*
X145250000Y-95425000D01*
X144400000Y-95425000D01*
X144400000Y-95590649D01*
X142586332Y-95590649D01*
X142457002Y-95461319D01*
X141015221Y-94019538D01*
X141015214Y-94019532D01*
X141015208Y-94019527D01*
X141015207Y-94019526D01*
X140935293Y-93973389D01*
X140935290Y-93973387D01*
X140935283Y-93973384D01*
X140919547Y-93969167D01*
X140860519Y-93953348D01*
X140860483Y-93953342D01*
X140855992Y-93952138D01*
X140846144Y-93949500D01*
X140846143Y-93949500D01*
X136014373Y-93949500D01*
X135979437Y-93944477D01*
X135954195Y-93937065D01*
X135901450Y-93905769D01*
X135218670Y-93222989D01*
X134529116Y-92533434D01*
X134516656Y-92518882D01*
X134511468Y-92511778D01*
X134511469Y-92511778D01*
X134502390Y-92499345D01*
X134478752Y-92433599D01*
X134494412Y-92365507D01*
X134544397Y-92316691D01*
X134547641Y-92314969D01*
X134605771Y-92300500D01*
X146868124Y-92300500D01*
X146903056Y-92305521D01*
G37*
%TD.AperFunction*%
%TA.AperFunction,Conductor*%
G36*
X131108941Y-93155521D02*
G01*
X131119794Y-93158707D01*
X131178575Y-93196477D01*
X131207604Y-93260031D01*
X131197665Y-93329190D01*
X131197662Y-93329196D01*
X131196139Y-93332531D01*
X131158831Y-93379397D01*
X130979912Y-93516686D01*
X130766693Y-93729905D01*
X130766686Y-93729913D01*
X130766672Y-93729928D01*
X130583102Y-93969163D01*
X130583099Y-93969167D01*
X130583099Y-93969168D01*
X130565287Y-94000017D01*
X130432316Y-94230330D01*
X130432288Y-94230388D01*
X130432032Y-94231018D01*
X130316912Y-94508940D01*
X130258505Y-94726919D01*
X130238862Y-94800232D01*
X130238859Y-94800243D01*
X130199501Y-95099199D01*
X130199500Y-95099228D01*
X130199500Y-95400770D01*
X130199501Y-95400799D01*
X130238859Y-95699755D01*
X130238860Y-95699760D01*
X130238861Y-95699766D01*
X130261094Y-95782740D01*
X130316912Y-95991058D01*
X130372928Y-96126291D01*
X130425498Y-96253207D01*
X130432032Y-96268980D01*
X130432292Y-96269618D01*
X130432316Y-96269668D01*
X130432318Y-96269671D01*
X130583099Y-96530831D01*
X130583100Y-96530832D01*
X130583102Y-96530835D01*
X130766672Y-96770070D01*
X130766676Y-96770075D01*
X130766679Y-96770078D01*
X130766685Y-96770085D01*
X130979914Y-96983314D01*
X130979921Y-96983320D01*
X130979924Y-96983322D01*
X130979928Y-96983326D01*
X131159298Y-97120960D01*
X131219168Y-97166900D01*
X131476899Y-97315701D01*
X131482093Y-97318701D01*
X131482095Y-97318702D01*
X131482683Y-97319042D01*
X131487827Y-97320787D01*
X131605499Y-97369529D01*
X131621590Y-97376194D01*
X131754865Y-97431399D01*
X131754866Y-97431399D01*
X131758939Y-97433086D01*
X131758940Y-97433086D01*
X131758942Y-97433087D01*
X131758944Y-97433087D01*
X131759694Y-97433398D01*
X131762842Y-97434132D01*
X132050232Y-97511138D01*
X132349217Y-97550500D01*
X132349224Y-97550500D01*
X132650776Y-97550500D01*
X132650783Y-97550500D01*
X132949768Y-97511138D01*
X133241058Y-97433087D01*
X133519668Y-97317683D01*
X133780832Y-97166900D01*
X134020080Y-96983319D01*
X134233319Y-96770080D01*
X134416900Y-96530832D01*
X134567683Y-96269668D01*
X134683087Y-95991058D01*
X134761138Y-95699768D01*
X134800500Y-95400783D01*
X134800500Y-95099217D01*
X134761138Y-94800232D01*
X134683087Y-94508942D01*
X134656347Y-94444387D01*
X134599571Y-94307317D01*
X134599569Y-94307312D01*
X134567687Y-94230340D01*
X134567682Y-94230331D01*
X134503427Y-94119038D01*
X134416900Y-93969168D01*
X134392267Y-93937065D01*
X134233326Y-93729928D01*
X134233322Y-93729924D01*
X134233320Y-93729921D01*
X134233314Y-93729914D01*
X134020085Y-93516685D01*
X134020078Y-93516679D01*
X134020075Y-93516676D01*
X134020070Y-93516672D01*
X133846814Y-93383729D01*
X133822158Y-93358480D01*
X133820130Y-93355703D01*
X133815487Y-93349344D01*
X133791850Y-93283597D01*
X133807511Y-93215505D01*
X133857496Y-93166691D01*
X133860756Y-93164961D01*
X133918870Y-93150500D01*
X134085626Y-93150500D01*
X134120558Y-93155521D01*
X134145802Y-93162934D01*
X134198548Y-93194230D01*
X134863486Y-93859167D01*
X135519531Y-94515212D01*
X135584788Y-94580469D01*
X135584791Y-94580470D01*
X135584794Y-94580473D01*
X135590240Y-94583617D01*
X135590868Y-94584225D01*
X135593036Y-94585566D01*
X135595651Y-94586741D01*
X135664706Y-94626611D01*
X135664707Y-94626611D01*
X135664712Y-94626614D01*
X135753856Y-94650500D01*
X140585626Y-94650500D01*
X140620558Y-94655521D01*
X140645802Y-94662934D01*
X140698548Y-94694230D01*
X143679529Y-97675211D01*
X143700678Y-97703461D01*
X143706099Y-97713388D01*
X143720953Y-97781661D01*
X143696539Y-97847126D01*
X143640607Y-97888999D01*
X143640603Y-97889001D01*
X143633415Y-97891682D01*
X143590081Y-97899500D01*
X127882333Y-97899500D01*
X127882331Y-97899500D01*
X127882324Y-97899501D01*
X127774142Y-97924192D01*
X127766672Y-97925658D01*
X127731652Y-97931416D01*
X127722984Y-97932841D01*
X127653640Y-97924296D01*
X127600210Y-97880042D01*
X127592584Y-97868787D01*
X127577309Y-97837550D01*
X127547008Y-97744291D01*
X127547000Y-97744269D01*
X127547000Y-97744268D01*
X127546998Y-97744262D01*
X127448704Y-97551352D01*
X127448084Y-97550498D01*
X127321444Y-97376194D01*
X127168350Y-97223100D01*
X126993191Y-97095839D01*
X126800281Y-96997545D01*
X126800278Y-96997544D01*
X126800277Y-96997543D01*
X126800274Y-96997542D01*
X126800254Y-96997535D01*
X126687895Y-96961029D01*
X126687874Y-96961023D01*
X126653105Y-96949726D01*
X126594369Y-96930641D01*
X126478483Y-96912287D01*
X126437404Y-96898065D01*
X126429075Y-96893413D01*
X126429073Y-96893412D01*
X127297576Y-96893412D01*
X127297576Y-96893413D01*
X127414697Y-97010534D01*
X127414707Y-97010543D01*
X127442805Y-97034541D01*
X127442812Y-97034545D01*
X127586724Y-97113662D01*
X127586730Y-97113664D01*
X127745788Y-97154504D01*
X127745796Y-97154505D01*
X127910016Y-97154505D01*
X127910017Y-97154505D01*
X127910024Y-97154504D01*
X128069082Y-97113664D01*
X128069088Y-97113662D01*
X128213000Y-97034545D01*
X128213007Y-97034541D01*
X128241105Y-97010543D01*
X128241115Y-97010534D01*
X128428947Y-96822702D01*
X128428947Y-96822701D01*
X127898617Y-96292372D01*
X127898616Y-96292372D01*
X127297576Y-96893412D01*
X126429073Y-96893412D01*
X126428798Y-96893258D01*
X126379874Y-96843376D01*
X126365685Y-96774962D01*
X126383087Y-96720977D01*
X126388016Y-96712804D01*
X126406515Y-96689166D01*
X126430470Y-96665212D01*
X126476614Y-96585288D01*
X126500500Y-96496143D01*
X126500500Y-96403856D01*
X126500500Y-96345356D01*
X126511699Y-96307216D01*
X126516720Y-96279179D01*
X126564265Y-96227980D01*
X126631942Y-96210613D01*
X126698264Y-96232593D01*
X126724123Y-96256605D01*
X126726252Y-96259239D01*
X126738463Y-96277432D01*
X126750320Y-96299000D01*
X126802890Y-96394623D01*
X126802894Y-96394630D01*
X126826892Y-96422728D01*
X126826901Y-96422738D01*
X126944022Y-96539859D01*
X127545063Y-95938819D01*
X128252170Y-95938819D01*
X128782499Y-96469149D01*
X128782500Y-96469149D01*
X128970332Y-96281317D01*
X128970341Y-96281307D01*
X128994339Y-96253209D01*
X128994343Y-96253202D01*
X129073460Y-96109290D01*
X129073462Y-96109284D01*
X129114302Y-95950226D01*
X129114303Y-95950219D01*
X129114303Y-95785998D01*
X129114302Y-95785990D01*
X129073462Y-95626932D01*
X129073460Y-95626926D01*
X128994343Y-95483014D01*
X128994339Y-95483007D01*
X128970341Y-95454909D01*
X128970332Y-95454899D01*
X128853211Y-95337778D01*
X128853210Y-95337778D01*
X128538873Y-95652116D01*
X128252170Y-95938819D01*
X127545063Y-95938819D01*
X127684106Y-95799776D01*
X127721840Y-95762042D01*
X128383076Y-95100806D01*
X128411326Y-95079658D01*
X128434418Y-95067050D01*
X128493843Y-95051883D01*
X128744759Y-95051883D01*
X128744761Y-95051883D01*
X128833905Y-95027997D01*
X128913829Y-94981853D01*
X130696258Y-93199423D01*
X130724508Y-93178275D01*
X130747600Y-93165667D01*
X130807025Y-93150500D01*
X131074014Y-93150500D01*
X131108941Y-93155521D01*
G37*
%TD.AperFunction*%
%TD*%
%TA.AperFunction,Conductor*%
%TO.N,/L_R_L2_TRIG*%
G36*
X126083630Y-135177060D02*
G01*
X126089511Y-135183166D01*
X126199115Y-135445489D01*
X126199142Y-135454444D01*
X126199115Y-135454511D01*
X126089511Y-135716833D01*
X126083159Y-135723145D01*
X126074683Y-135723305D01*
X125610235Y-135552814D01*
X125603650Y-135546746D01*
X125602567Y-135541831D01*
X125602567Y-135358168D01*
X125605994Y-135349895D01*
X125610234Y-135347185D01*
X126074684Y-135176694D01*
X126083630Y-135177060D01*
G37*
%TD.AperFunction*%
%TD*%
%TA.AperFunction,Conductor*%
%TO.N,/L_R_L2_TRIG*%
G36*
X122016833Y-123910488D02*
G01*
X122023145Y-123916840D01*
X122023305Y-123925316D01*
X121852815Y-124389765D01*
X121846748Y-124396350D01*
X121841832Y-124397433D01*
X121658168Y-124397433D01*
X121649895Y-124394006D01*
X121647185Y-124389765D01*
X121476694Y-123925316D01*
X121477060Y-123916368D01*
X121483164Y-123910489D01*
X121745490Y-123800883D01*
X121754444Y-123800857D01*
X122016833Y-123910488D01*
G37*
%TD.AperFunction*%
%TD*%
%TA.AperFunction,Conductor*%
%TO.N,/L_DPAD_LEFT{slash}R_BTN_X*%
G36*
X128508282Y-131066996D02*
G01*
X128509407Y-131067986D01*
X128640717Y-131199296D01*
X128641990Y-131200803D01*
X128952789Y-131639311D01*
X128954777Y-131648043D01*
X128954470Y-131649371D01*
X128510670Y-133161930D01*
X128505052Y-133168904D01*
X128496149Y-133169863D01*
X128489175Y-133164245D01*
X128488193Y-133161850D01*
X128056136Y-131649371D01*
X128054499Y-131643639D01*
X128055522Y-131634744D01*
X128056480Y-131633287D01*
X128491873Y-131069109D01*
X128499639Y-131064655D01*
X128508282Y-131066996D01*
G37*
%TD.AperFunction*%
%TD*%
%TA.AperFunction,Conductor*%
%TO.N,/L_R_THUMBST_SW*%
G36*
X132641833Y-125135488D02*
G01*
X132648145Y-125141840D01*
X132648305Y-125150316D01*
X132477815Y-125614765D01*
X132471748Y-125621350D01*
X132466832Y-125622433D01*
X132283168Y-125622433D01*
X132274895Y-125619006D01*
X132272185Y-125614765D01*
X132101694Y-125150316D01*
X132102060Y-125141368D01*
X132108164Y-125135489D01*
X132370490Y-125025883D01*
X132379444Y-125025857D01*
X132641833Y-125135488D01*
G37*
%TD.AperFunction*%
%TD*%
%TA.AperFunction,Conductor*%
%TO.N,/L_R_THUMBST_X*%
G36*
X133508630Y-129527060D02*
G01*
X133514511Y-129533166D01*
X133624115Y-129795489D01*
X133624142Y-129804444D01*
X133624115Y-129804511D01*
X133514511Y-130066833D01*
X133508159Y-130073145D01*
X133499683Y-130073305D01*
X133035235Y-129902814D01*
X133028650Y-129896746D01*
X133027567Y-129891831D01*
X133027567Y-129708168D01*
X133030994Y-129699895D01*
X133035234Y-129697185D01*
X133499684Y-129526694D01*
X133508630Y-129527060D01*
G37*
%TD.AperFunction*%
%TD*%
%TA.AperFunction,Conductor*%
%TO.N,/L_R_THUMBST_X*%
G36*
X131089765Y-129697185D02*
G01*
X131096350Y-129703252D01*
X131097433Y-129708168D01*
X131097433Y-129891831D01*
X131094006Y-129900104D01*
X131089765Y-129902814D01*
X130625316Y-130073305D01*
X130616368Y-130072939D01*
X130610488Y-130066833D01*
X130500883Y-129804509D01*
X130500857Y-129795556D01*
X130500862Y-129795542D01*
X130610489Y-129533164D01*
X130616840Y-129526854D01*
X130625314Y-129526694D01*
X131089765Y-129697185D01*
G37*
%TD.AperFunction*%
%TD*%
%TA.AperFunction,Conductor*%
%TO.N,/L_R_THUMBST_Y*%
G36*
X130796276Y-124689441D02*
G01*
X130801913Y-124695431D01*
X130911615Y-124957989D01*
X130911642Y-124966944D01*
X130911615Y-124967011D01*
X130802110Y-125229096D01*
X130795758Y-125235408D01*
X130787035Y-125235474D01*
X130322488Y-125052916D01*
X130316041Y-125046701D01*
X130315067Y-125042027D01*
X130315067Y-124858370D01*
X130318494Y-124850097D01*
X130322989Y-124847297D01*
X130787339Y-124688869D01*
X130796276Y-124689441D01*
G37*
%TD.AperFunction*%
%TD*%
%TA.AperFunction,Conductor*%
%TO.N,GND*%
G36*
X125114805Y-100622836D02*
G01*
X125000707Y-100900707D01*
X124722836Y-101014805D01*
X124506841Y-100548262D01*
X124648262Y-100406841D01*
X125114805Y-100622836D01*
G37*
%TD.AperFunction*%
%TD*%
%TA.AperFunction,Conductor*%
%TO.N,GND*%
G36*
X151400707Y-97200707D02*
G01*
X151217372Y-97438006D01*
X150789684Y-97131105D01*
X150931105Y-96989684D01*
X151360842Y-96902567D01*
X151400707Y-97200707D01*
G37*
%TD.AperFunction*%
%TD*%
%TA.AperFunction,Conductor*%
%TO.N,GND*%
G36*
X151600000Y-95665054D02*
G01*
X151200000Y-96175000D01*
X151000000Y-96175000D01*
X150600000Y-95665054D01*
X151100000Y-95174000D01*
X151600000Y-95665054D01*
G37*
%TD.AperFunction*%
%TD*%
%TA.AperFunction,Conductor*%
%TO.N,GND*%
G36*
X151066833Y-117910488D02*
G01*
X151073145Y-117916840D01*
X151073305Y-117925316D01*
X150902815Y-118389765D01*
X150896748Y-118396350D01*
X150891832Y-118397433D01*
X150708168Y-118397433D01*
X150699895Y-118394006D01*
X150697185Y-118389765D01*
X150526694Y-117925316D01*
X150527060Y-117916368D01*
X150533164Y-117910489D01*
X150795490Y-117800883D01*
X150804444Y-117800857D01*
X151066833Y-117910488D01*
G37*
%TD.AperFunction*%
%TD*%
%TA.AperFunction,Conductor*%
%TO.N,GND*%
G36*
X121164999Y-130955000D02*
G01*
X121164999Y-131155000D01*
X120793380Y-131447504D01*
X120609752Y-131209498D01*
X120649910Y-130912065D01*
X121164999Y-130955000D01*
G37*
%TD.AperFunction*%
%TD*%
%TA.AperFunction,Conductor*%
%TO.N,GND*%
G36*
X128900707Y-146099293D02*
G01*
X129014805Y-146377164D01*
X128548262Y-146593159D01*
X128406841Y-146451738D01*
X128622836Y-145985195D01*
X128900707Y-146099293D01*
G37*
%TD.AperFunction*%
%TD*%
%TA.AperFunction,Conductor*%
%TO.N,GND*%
G36*
X145777164Y-96460195D02*
G01*
X145500000Y-96576000D01*
X145222836Y-96460195D01*
X145400000Y-95977567D01*
X145600000Y-95977567D01*
X145777164Y-96460195D01*
G37*
%TD.AperFunction*%
%TD*%
%TA.AperFunction,Conductor*%
%TO.N,GND*%
G36*
X124900707Y-142099293D02*
G01*
X125014805Y-142377164D01*
X124548262Y-142593159D01*
X124406841Y-142451738D01*
X124622836Y-141985195D01*
X124900707Y-142099293D01*
G37*
%TD.AperFunction*%
%TD*%
%TA.AperFunction,Conductor*%
%TO.N,GND*%
G36*
X134351000Y-139750000D02*
G01*
X134310842Y-140047433D01*
X133755472Y-139900000D01*
X133755472Y-139700000D01*
X134235195Y-139472836D01*
X134351000Y-139750000D01*
G37*
%TD.AperFunction*%
%TD*%
%TA.AperFunction,Conductor*%
%TO.N,GND*%
G36*
X129014805Y-96622836D02*
G01*
X128900707Y-96900707D01*
X128622836Y-97014805D01*
X128406841Y-96548262D01*
X128548262Y-96406841D01*
X129014805Y-96622836D01*
G37*
%TD.AperFunction*%
%TD*%
%TA.AperFunction,Conductor*%
%TO.N,GND*%
G36*
X142351000Y-131800000D02*
G01*
X142235195Y-132077164D01*
X141752567Y-131900000D01*
X141752567Y-131700000D01*
X142235195Y-131522836D01*
X142351000Y-131800000D01*
G37*
%TD.AperFunction*%
%TD*%
%TA.AperFunction,Conductor*%
%TO.N,GND*%
G36*
X131297433Y-133100000D02*
G01*
X131297433Y-133300000D01*
X130814805Y-133477164D01*
X130699000Y-133200000D01*
X130814805Y-132922836D01*
X131297433Y-133100000D01*
G37*
%TD.AperFunction*%
%TD*%
%TA.AperFunction,Conductor*%
%TO.N,GND*%
G36*
X121093159Y-133048262D02*
G01*
X120877164Y-133514805D01*
X120599293Y-133400707D01*
X120485195Y-133122836D01*
X120951738Y-132906841D01*
X121093159Y-133048262D01*
G37*
%TD.AperFunction*%
%TD*%
%TA.AperFunction,Conductor*%
%TO.N,GND*%
G36*
X149201000Y-133200000D02*
G01*
X149085195Y-133477164D01*
X148602567Y-133300000D01*
X148602567Y-133100000D01*
X149085195Y-132922836D01*
X149201000Y-133200000D01*
G37*
%TD.AperFunction*%
%TD*%
%TA.AperFunction,Conductor*%
%TO.N,GND*%
G36*
X142047433Y-119400000D02*
G01*
X142047433Y-119600000D01*
X141564805Y-119777164D01*
X141449000Y-119500000D01*
X141564805Y-119222836D01*
X142047433Y-119400000D01*
G37*
%TD.AperFunction*%
%TD*%
%TA.AperFunction,Conductor*%
%TO.N,GND*%
G36*
X142051000Y-141200000D02*
G01*
X141935195Y-141477164D01*
X141452567Y-141300000D01*
X141452567Y-141100000D01*
X141935195Y-140922836D01*
X142051000Y-141200000D01*
G37*
%TD.AperFunction*%
%TD*%
%TA.AperFunction,Conductor*%
%TO.N,/L_START{slash}R_SELECT*%
G36*
X145710996Y-123013856D02*
G01*
X145712091Y-123014492D01*
X146294716Y-123396535D01*
X146299755Y-123403937D01*
X146300000Y-123406319D01*
X146300000Y-123593680D01*
X146296573Y-123601953D01*
X146294716Y-123603464D01*
X145712091Y-123985507D01*
X145703293Y-123987178D01*
X145702070Y-123986854D01*
X144513760Y-123601953D01*
X144233363Y-123511130D01*
X144226549Y-123505321D01*
X144225838Y-123496395D01*
X144231648Y-123489580D01*
X144233361Y-123488870D01*
X145702070Y-123013145D01*
X145710996Y-123013856D01*
G37*
%TD.AperFunction*%
%TD*%
%TA.AperFunction,Conductor*%
%TO.N,/L_START{slash}R_SELECT*%
G36*
X149297927Y-123013144D02*
G01*
X150110330Y-123276287D01*
X150766635Y-123488869D01*
X150773450Y-123494679D01*
X150774161Y-123503605D01*
X150768351Y-123510420D01*
X150766635Y-123511131D01*
X149297929Y-123986854D01*
X149289003Y-123986143D01*
X149287908Y-123985507D01*
X148705284Y-123603464D01*
X148700245Y-123596062D01*
X148700000Y-123593680D01*
X148700000Y-123406319D01*
X148703427Y-123398046D01*
X148705284Y-123396535D01*
X149287909Y-123014491D01*
X149296706Y-123012821D01*
X149297927Y-123013144D01*
G37*
%TD.AperFunction*%
%TD*%
%TA.AperFunction,Conductor*%
%TO.N,/L_START{slash}R_SELECT*%
G36*
X151588443Y-122581337D02*
G01*
X151994728Y-122987622D01*
X151998155Y-122995895D01*
X151994728Y-123004168D01*
X151990936Y-123006703D01*
X150810123Y-123496217D01*
X150801168Y-123496220D01*
X150794834Y-123489890D01*
X150794825Y-123489868D01*
X150597291Y-123010667D01*
X150597306Y-123001712D01*
X150603497Y-122995455D01*
X151575562Y-122578855D01*
X151584515Y-122578747D01*
X151588443Y-122581337D01*
G37*
%TD.AperFunction*%
%TD*%
%TA.AperFunction,Conductor*%
%TO.N,/L_START{slash}R_SELECT*%
G36*
X153342302Y-118585684D02*
G01*
X153348614Y-118592036D01*
X153348950Y-118599998D01*
X153202580Y-119064251D01*
X153196824Y-119071111D01*
X153191421Y-119072433D01*
X153007783Y-119072433D01*
X152999510Y-119069006D01*
X152996992Y-119065253D01*
X152996572Y-119064251D01*
X152802359Y-118600605D01*
X152802324Y-118591652D01*
X152808631Y-118585295D01*
X152808633Y-118585293D01*
X153070490Y-118475883D01*
X153079444Y-118475857D01*
X153342302Y-118585684D01*
G37*
%TD.AperFunction*%
%TD*%
%TA.AperFunction,Conductor*%
%TO.N,/L_DPAD_UP{slash}R_BTN_A*%
G36*
X136007404Y-124707390D02*
G01*
X136492702Y-125191719D01*
X136496137Y-125199988D01*
X136492718Y-125208265D01*
X136492702Y-125208281D01*
X136007404Y-125692609D01*
X135999127Y-125696028D01*
X135991830Y-125693464D01*
X135504391Y-125303512D01*
X135500072Y-125295668D01*
X135500000Y-125294376D01*
X135500000Y-125105623D01*
X135503427Y-125097350D01*
X135504391Y-125096487D01*
X135991831Y-124706534D01*
X136000431Y-124704043D01*
X136007404Y-124707390D01*
G37*
%TD.AperFunction*%
%TD*%
%TA.AperFunction,Conductor*%
%TO.N,/L_DPAD_UP{slash}R_BTN_A*%
G36*
X134539765Y-125097185D02*
G01*
X134546350Y-125103252D01*
X134547433Y-125108168D01*
X134547433Y-125291831D01*
X134544006Y-125300104D01*
X134539765Y-125302814D01*
X134075316Y-125473305D01*
X134066368Y-125472939D01*
X134060488Y-125466833D01*
X133950883Y-125204509D01*
X133950857Y-125195556D01*
X133950862Y-125195542D01*
X134060489Y-124933164D01*
X134066840Y-124926854D01*
X134075314Y-124926694D01*
X134539765Y-125097185D01*
G37*
%TD.AperFunction*%
%TD*%
%TA.AperFunction,Conductor*%
%TO.N,/L_DPAD_UP{slash}R_BTN_A*%
G36*
X136510420Y-125231648D02*
G01*
X136511131Y-125233364D01*
X136986854Y-126702070D01*
X136986143Y-126710996D01*
X136985507Y-126712091D01*
X136603465Y-127294716D01*
X136596063Y-127299755D01*
X136593681Y-127300000D01*
X136406319Y-127300000D01*
X136398046Y-127296573D01*
X136396535Y-127294716D01*
X136014492Y-126712091D01*
X136012821Y-126703293D01*
X136013145Y-126702070D01*
X136488869Y-125233364D01*
X136494679Y-125226549D01*
X136503605Y-125225838D01*
X136510420Y-125231648D01*
G37*
%TD.AperFunction*%
%TD*%
%TA.AperFunction,Conductor*%
%TO.N,/L_DPAD_UP{slash}R_BTN_A*%
G36*
X136601954Y-129703427D02*
G01*
X136603465Y-129705284D01*
X136985507Y-130287908D01*
X136987178Y-130296706D01*
X136986854Y-130297929D01*
X136511131Y-131766635D01*
X136505321Y-131773450D01*
X136496395Y-131774161D01*
X136489580Y-131768351D01*
X136488869Y-131766635D01*
X136013145Y-130297929D01*
X136013856Y-130289003D01*
X136014486Y-130287917D01*
X136396535Y-129705283D01*
X136403937Y-129700245D01*
X136406319Y-129700000D01*
X136593681Y-129700000D01*
X136601954Y-129703427D01*
G37*
%TD.AperFunction*%
%TD*%
%TA.AperFunction,Conductor*%
%TO.N,/L_DPAD_RIGHT{slash}R_BTN_Y*%
G36*
X144510420Y-133231648D02*
G01*
X144511131Y-133233364D01*
X144986854Y-134702070D01*
X144986143Y-134710996D01*
X144985507Y-134712091D01*
X144603465Y-135294716D01*
X144596063Y-135299755D01*
X144593681Y-135300000D01*
X144406319Y-135300000D01*
X144398046Y-135296573D01*
X144396535Y-135294716D01*
X144014492Y-134712091D01*
X144012821Y-134703293D01*
X144013145Y-134702070D01*
X144488869Y-133233364D01*
X144494679Y-133226549D01*
X144503605Y-133225838D01*
X144510420Y-133231648D01*
G37*
%TD.AperFunction*%
%TD*%
%TA.AperFunction,Conductor*%
%TO.N,/L_DPAD_RIGHT{slash}R_BTN_Y*%
G36*
X144601954Y-131103427D02*
G01*
X144603465Y-131105284D01*
X144985507Y-131687908D01*
X144987178Y-131696706D01*
X144986854Y-131697929D01*
X144511131Y-133166635D01*
X144505321Y-133173450D01*
X144496395Y-133174161D01*
X144489580Y-133168351D01*
X144488869Y-133166635D01*
X144013145Y-131697929D01*
X144013856Y-131689003D01*
X144014486Y-131687917D01*
X144396535Y-131105283D01*
X144403937Y-131100245D01*
X144406319Y-131100000D01*
X144593681Y-131100000D01*
X144601954Y-131103427D01*
G37*
%TD.AperFunction*%
%TD*%
%TA.AperFunction,Conductor*%
%TO.N,/L_DPAD_RIGHT{slash}R_BTN_Y*%
G36*
X144601954Y-137703427D02*
G01*
X144603465Y-137705284D01*
X144985507Y-138287908D01*
X144987178Y-138296706D01*
X144986854Y-138297929D01*
X144511131Y-139766635D01*
X144505321Y-139773450D01*
X144496395Y-139774161D01*
X144489580Y-139768351D01*
X144488869Y-139766635D01*
X144013145Y-138297929D01*
X144013856Y-138289003D01*
X144014486Y-138287917D01*
X144396535Y-137705283D01*
X144403937Y-137700245D01*
X144406319Y-137700000D01*
X144593681Y-137700000D01*
X144601954Y-137703427D01*
G37*
%TD.AperFunction*%
%TD*%
%TA.AperFunction,Conductor*%
%TO.N,/L_DPAD_RIGHT{slash}R_BTN_Y*%
G36*
X142152926Y-122100222D02*
G01*
X142415856Y-122210080D01*
X142422167Y-122216431D01*
X142422140Y-122225386D01*
X142421918Y-122225882D01*
X142203169Y-122687835D01*
X142196532Y-122693846D01*
X142192595Y-122694528D01*
X142008999Y-122694528D01*
X142000726Y-122691101D01*
X141997691Y-122685830D01*
X141875589Y-122225882D01*
X141855970Y-122151977D01*
X141857159Y-122143104D01*
X141864276Y-122137669D01*
X141865696Y-122137385D01*
X142146856Y-122099424D01*
X142152926Y-122100222D01*
G37*
%TD.AperFunction*%
%TD*%
%TA.AperFunction,Conductor*%
%TO.N,/L_DPAD_DOWN{slash}R_BTN_B*%
G36*
X136125343Y-139182353D02*
G01*
X136637112Y-139596081D01*
X136641391Y-139603947D01*
X136641411Y-139606208D01*
X136501551Y-141191138D01*
X136497410Y-141199078D01*
X136491158Y-141201742D01*
X136012799Y-141253623D01*
X136004204Y-141251108D01*
X135999905Y-141243253D01*
X135999838Y-141242153D01*
X135975797Y-139322087D01*
X135979120Y-139313774D01*
X136109715Y-139183178D01*
X136117987Y-139179752D01*
X136125343Y-139182353D01*
G37*
%TD.AperFunction*%
%TD*%
%TA.AperFunction,Conductor*%
%TO.N,/L_DPAD_DOWN{slash}R_BTN_B*%
G36*
X135775762Y-138589474D02*
G01*
X135781867Y-138595354D01*
X135953839Y-138966807D01*
X135989727Y-139044325D01*
X135990093Y-139053272D01*
X135987383Y-139057513D01*
X135857513Y-139187383D01*
X135849240Y-139190810D01*
X135844325Y-139189727D01*
X135826001Y-139181243D01*
X135395354Y-138981867D01*
X135389287Y-138975283D01*
X135389446Y-138966808D01*
X135497436Y-138703814D01*
X135503746Y-138697464D01*
X135766808Y-138589447D01*
X135775762Y-138589474D01*
G37*
%TD.AperFunction*%
%TD*%
%TA.AperFunction,Conductor*%
%TO.N,/L_DPAD_DOWN{slash}R_BTN_B*%
G36*
X136510420Y-141231648D02*
G01*
X136511131Y-141233364D01*
X136986854Y-142702070D01*
X136986143Y-142710996D01*
X136985507Y-142712091D01*
X136603465Y-143294716D01*
X136596063Y-143299755D01*
X136593681Y-143300000D01*
X136406319Y-143300000D01*
X136398046Y-143296573D01*
X136396535Y-143294716D01*
X136014492Y-142712091D01*
X136012821Y-142703293D01*
X136013145Y-142702070D01*
X136488869Y-141233364D01*
X136494679Y-141226549D01*
X136503605Y-141225838D01*
X136510420Y-141231648D01*
G37*
%TD.AperFunction*%
%TD*%
%TA.AperFunction,Conductor*%
%TO.N,/L_DPAD_DOWN{slash}R_BTN_B*%
G36*
X136601954Y-145703427D02*
G01*
X136603465Y-145705284D01*
X136985507Y-146287908D01*
X136987178Y-146296706D01*
X136986854Y-146297929D01*
X136511131Y-147766635D01*
X136505321Y-147773450D01*
X136496395Y-147774161D01*
X136489580Y-147768351D01*
X136488869Y-147766635D01*
X136013145Y-146297929D01*
X136013856Y-146289003D01*
X136014486Y-146287917D01*
X136396535Y-145705283D01*
X136403937Y-145700245D01*
X136406319Y-145700000D01*
X136593681Y-145700000D01*
X136601954Y-145703427D01*
G37*
%TD.AperFunction*%
%TD*%
%TA.AperFunction,Conductor*%
%TO.N,/L_DPAD_LEFT{slash}R_BTN_X*%
G36*
X128510420Y-133231648D02*
G01*
X128511131Y-133233364D01*
X128986854Y-134702070D01*
X128986143Y-134710996D01*
X128985507Y-134712091D01*
X128603465Y-135294716D01*
X128596063Y-135299755D01*
X128593681Y-135300000D01*
X128406319Y-135300000D01*
X128398046Y-135296573D01*
X128396535Y-135294716D01*
X128014492Y-134712091D01*
X128012821Y-134703293D01*
X128013145Y-134702070D01*
X128488869Y-133233364D01*
X128494679Y-133226549D01*
X128503605Y-133225838D01*
X128510420Y-133231648D01*
G37*
%TD.AperFunction*%
%TD*%
%TA.AperFunction,Conductor*%
%TO.N,/L_DPAD_LEFT{slash}R_BTN_X*%
G36*
X128601954Y-137703427D02*
G01*
X128603465Y-137705284D01*
X128985507Y-138287908D01*
X128987178Y-138296706D01*
X128986854Y-138297929D01*
X128511131Y-139766635D01*
X128505321Y-139773450D01*
X128496395Y-139774161D01*
X128489580Y-139768351D01*
X128488869Y-139766635D01*
X128013145Y-138297929D01*
X128013856Y-138289003D01*
X128014486Y-138287917D01*
X128396535Y-137705283D01*
X128403937Y-137700245D01*
X128406319Y-137700000D01*
X128593681Y-137700000D01*
X128601954Y-137703427D01*
G37*
%TD.AperFunction*%
%TD*%
%TA.AperFunction,Conductor*%
%TO.N,/L_R_L1_TRIG*%
G36*
X126000675Y-147513987D02*
G01*
X126581111Y-147581838D01*
X126588930Y-147586201D01*
X126591395Y-147592309D01*
X126659887Y-148286502D01*
X126657289Y-148295072D01*
X126649393Y-148299294D01*
X126648006Y-148299349D01*
X125966273Y-148285499D01*
X125958072Y-148281904D01*
X125955046Y-148276133D01*
X125815947Y-147592309D01*
X125802854Y-147527940D01*
X125804563Y-147519151D01*
X125811987Y-147514144D01*
X125814319Y-147513909D01*
X125999318Y-147513909D01*
X126000675Y-147513987D01*
G37*
%TD.AperFunction*%
%TD*%
%TA.AperFunction,Conductor*%
%TO.N,/L_R_L1_TRIG*%
G36*
X150589765Y-116647185D02*
G01*
X150596350Y-116653252D01*
X150597433Y-116658168D01*
X150597433Y-116841831D01*
X150594006Y-116850104D01*
X150589765Y-116852814D01*
X150125316Y-117023305D01*
X150116368Y-117022939D01*
X150110488Y-117016833D01*
X150000883Y-116754509D01*
X150000857Y-116745556D01*
X150000862Y-116745542D01*
X150110489Y-116483164D01*
X150116840Y-116476854D01*
X150125314Y-116476694D01*
X150589765Y-116647185D01*
G37*
%TD.AperFunction*%
%TD*%
%TA.AperFunction,Conductor*%
%TO.N,/L_R_L1_TRIG*%
G36*
X126655169Y-94705449D02*
G01*
X126660531Y-94712621D01*
X126660891Y-94715729D01*
X126648011Y-95398327D01*
X126644429Y-95406534D01*
X126641224Y-95408725D01*
X126329029Y-95553098D01*
X126273037Y-95578992D01*
X126252338Y-95588564D01*
X126247427Y-95589645D01*
X126060696Y-95589645D01*
X126052423Y-95586218D01*
X126049043Y-95578992D01*
X126032816Y-95398327D01*
X125986469Y-94882319D01*
X125989142Y-94873774D01*
X125995234Y-94869936D01*
X126646306Y-94704170D01*
X126655169Y-94705449D01*
G37*
%TD.AperFunction*%
%TD*%
%TA.AperFunction,Conductor*%
%TO.N,/L_R_L1_TRIG*%
G36*
X149883630Y-116477060D02*
G01*
X149889511Y-116483166D01*
X149999115Y-116745489D01*
X149999142Y-116754444D01*
X149999115Y-116754511D01*
X149889511Y-117016833D01*
X149883159Y-117023145D01*
X149874683Y-117023305D01*
X149410235Y-116852814D01*
X149403650Y-116846746D01*
X149402567Y-116841831D01*
X149402567Y-116658168D01*
X149405994Y-116649895D01*
X149410234Y-116647185D01*
X149874684Y-116476694D01*
X149883630Y-116477060D01*
G37*
%TD.AperFunction*%
%TD*%
%TA.AperFunction,Conductor*%
%TO.N,/L_R_L1_TRIG*%
G36*
X127018636Y-94205599D02*
G01*
X127849854Y-94598217D01*
X127855870Y-94604848D01*
X127856556Y-94608795D01*
X127856556Y-94793496D01*
X127853129Y-94801769D01*
X127849246Y-94804341D01*
X126879027Y-95197035D01*
X126870072Y-95196963D01*
X126863835Y-95190686D01*
X126703033Y-94804341D01*
X126662648Y-94707312D01*
X126662634Y-94698359D01*
X126663856Y-94696125D01*
X127004051Y-94209475D01*
X127011599Y-94204658D01*
X127018636Y-94205599D01*
G37*
%TD.AperFunction*%
%TD*%
%TA.AperFunction,Conductor*%
%TO.N,/L_R_L1_TRIG*%
G36*
X122801770Y-143146871D02*
G01*
X122804342Y-143150754D01*
X123197035Y-144120972D01*
X123196963Y-144129927D01*
X123190686Y-144136164D01*
X122707314Y-144337350D01*
X122698359Y-144337365D01*
X122696119Y-144336139D01*
X122388322Y-144120972D01*
X122209476Y-143995948D01*
X122204658Y-143988400D01*
X122205599Y-143981363D01*
X122598217Y-143150147D01*
X122604849Y-143144130D01*
X122608796Y-143143444D01*
X122793497Y-143143444D01*
X122801770Y-143146871D01*
G37*
%TD.AperFunction*%
%TD*%
%TA.AperFunction,Conductor*%
%TO.N,/L_R_L1_TRIG*%
G36*
X123407910Y-144408626D02*
G01*
X123415806Y-144412848D01*
X123418347Y-144418643D01*
X123496333Y-144974187D01*
X123496447Y-144975813D01*
X123496447Y-145161193D01*
X123493020Y-145169466D01*
X123484747Y-145172893D01*
X123482827Y-145172734D01*
X122780923Y-145055972D01*
X122773324Y-145051234D01*
X122771201Y-145045598D01*
X122701806Y-144353027D01*
X122704391Y-144344457D01*
X122712282Y-144340222D01*
X122714592Y-144340221D01*
X123407910Y-144408626D01*
G37*
%TD.AperFunction*%
%TD*%
%TA.AperFunction,Conductor*%
%TO.N,/L_R_L1_TRIG*%
G36*
X123411100Y-97815610D02*
G01*
X123412957Y-97817121D01*
X123545442Y-97949606D01*
X123548869Y-97957879D01*
X123548624Y-97960261D01*
X123407549Y-98638742D01*
X123402510Y-98646144D01*
X123396327Y-98648058D01*
X122712849Y-98661645D01*
X122704509Y-98658383D01*
X122700918Y-98650180D01*
X122700918Y-98649714D01*
X122701136Y-98638742D01*
X122714505Y-97966234D01*
X122718096Y-97958033D01*
X122723819Y-97955015D01*
X123402303Y-97813939D01*
X123411100Y-97815610D01*
G37*
%TD.AperFunction*%
%TD*%
%TA.AperFunction,Conductor*%
%TO.N,/L_HOME{slash}R_EXTRA*%
G36*
X153700762Y-113939474D02*
G01*
X153706867Y-113945354D01*
X153878839Y-114316807D01*
X153914727Y-114394325D01*
X153915093Y-114403272D01*
X153912383Y-114407513D01*
X153782513Y-114537383D01*
X153774240Y-114540810D01*
X153769325Y-114539727D01*
X153751001Y-114531243D01*
X153320354Y-114331867D01*
X153314287Y-114325283D01*
X153314446Y-114316808D01*
X153422436Y-114053814D01*
X153428746Y-114047464D01*
X153691808Y-113939447D01*
X153700762Y-113939474D01*
G37*
%TD.AperFunction*%
%TD*%
%TA.AperFunction,Conductor*%
%TO.N,/L_HOME{slash}R_EXTRA*%
G36*
X153525105Y-113455994D02*
G01*
X153527815Y-113460235D01*
X153698305Y-113924683D01*
X153697939Y-113933631D01*
X153691833Y-113939511D01*
X153429511Y-114049115D01*
X153420556Y-114049142D01*
X153420489Y-114049115D01*
X153158166Y-113939511D01*
X153151854Y-113933159D01*
X153151694Y-113924684D01*
X153322185Y-113460234D01*
X153328253Y-113453650D01*
X153333168Y-113452567D01*
X153516832Y-113452567D01*
X153525105Y-113455994D01*
G37*
%TD.AperFunction*%
%TD*%
%TA.AperFunction,Conductor*%
%TO.N,/L_HOME{slash}R_EXTRA*%
G36*
X150510074Y-93072480D02*
G01*
X151087534Y-93416447D01*
X151092889Y-93423625D01*
X151091599Y-93432486D01*
X151089663Y-93434927D01*
X150597889Y-93908485D01*
X150589552Y-93911755D01*
X150585707Y-93911028D01*
X150182943Y-93761763D01*
X150178736Y-93759065D01*
X150046699Y-93627028D01*
X150043272Y-93618755D01*
X150046002Y-93611243D01*
X150193676Y-93434927D01*
X150495118Y-93075019D01*
X150503057Y-93070877D01*
X150510074Y-93072480D01*
G37*
%TD.AperFunction*%
%TD*%
%TA.AperFunction,Conductor*%
%TO.N,/L_HOME{slash}R_EXTRA*%
G36*
X150222154Y-149050857D02*
G01*
X151197930Y-149074653D01*
X151206117Y-149078281D01*
X151209342Y-149086635D01*
X151209066Y-149088892D01*
X151101986Y-149569960D01*
X151096843Y-149577291D01*
X151095329Y-149578104D01*
X150509119Y-149839446D01*
X150500167Y-149839685D01*
X150494551Y-149835146D01*
X150080914Y-149200107D01*
X150079270Y-149191304D01*
X150082443Y-149185450D01*
X150213612Y-149054281D01*
X150221884Y-149050855D01*
X150222154Y-149050857D01*
G37*
%TD.AperFunction*%
%TD*%
%TA.AperFunction,Conductor*%
%TO.N,/L_HOME{slash}R_EXTRA*%
G36*
X146099020Y-93321547D02*
G01*
X146103331Y-93327189D01*
X146413468Y-94192568D01*
X146413033Y-94201512D01*
X146410727Y-94204788D01*
X146280123Y-94335392D01*
X146271850Y-94338819D01*
X146267286Y-94337892D01*
X145303560Y-93929520D01*
X145297280Y-93923137D01*
X145297307Y-93914289D01*
X145496844Y-93430232D01*
X145503164Y-93423891D01*
X145505614Y-93423173D01*
X146090276Y-93319615D01*
X146099020Y-93321547D01*
G37*
%TD.AperFunction*%
%TD*%
%TA.AperFunction,Conductor*%
%TO.N,/L_HOME{slash}R_EXTRA*%
G36*
X144950699Y-149124484D02*
G01*
X145489660Y-149566644D01*
X145493882Y-149574540D01*
X145491284Y-149583110D01*
X145489642Y-149584749D01*
X144951185Y-150024767D01*
X144942611Y-150027348D01*
X144936367Y-150024757D01*
X144375892Y-149565509D01*
X144371665Y-149557617D01*
X144374258Y-149549046D01*
X144375025Y-149548198D01*
X144506547Y-149416676D01*
X144508230Y-149415283D01*
X144936699Y-149123854D01*
X144945466Y-149122035D01*
X144950699Y-149124484D01*
G37*
%TD.AperFunction*%
%TD*%
%TA.AperFunction,Conductor*%
%TO.N,/L_HOME{slash}R_EXTRA*%
G36*
X146063349Y-149124096D02*
G01*
X146499196Y-149433009D01*
X146500703Y-149434282D01*
X146632057Y-149565636D01*
X146635484Y-149573909D01*
X146632057Y-149582182D01*
X146630975Y-149583138D01*
X146063434Y-150025325D01*
X146054802Y-150027707D01*
X146048836Y-150025153D01*
X145510349Y-149584749D01*
X145506114Y-149576858D01*
X145508699Y-149568285D01*
X145510328Y-149566653D01*
X146049163Y-149124596D01*
X146057732Y-149121999D01*
X146063349Y-149124096D01*
G37*
%TD.AperFunction*%
%TD*%
M02*
