%TF.GenerationSoftware,KiCad,Pcbnew,10.0.0*%
%TF.CreationDate,2026-08-07T14:30:28-04:00*%
%TF.ProjectId,ConJoy_KiCad,436f6e4a-6f79-45f4-9b69-4361642e6b69,1.00-0A*%
%TF.SameCoordinates,Original*%
%TF.FileFunction,Copper,L2,Bot*%
%TF.FilePolarity,Positive*%
%FSLAX46Y46*%
G04 Gerber Fmt 4.6, Leading zero omitted, Abs format (unit mm)*
G04 Created by KiCad (PCBNEW 10.0.0) date 2026-08-07 14:30:28*
%MOMM*%
%LPD*%
G01*
G04 APERTURE LIST*
G04 Aperture macros list*
%AMRoundRect*
0 Rectangle with rounded corners*
0 $1 Rounding radius*
0 $2 $3 $4 $5 $6 $7 $8 $9 X,Y pos of 4 corners*
0 Add a 4 corners polygon primitive as box body*
4,1,4,$2,$3,$4,$5,$6,$7,$8,$9,$2,$3,0*
0 Add four circle primitives for the rounded corners*
1,1,$1+$1,$2,$3*
1,1,$1+$1,$4,$5*
1,1,$1+$1,$6,$7*
1,1,$1+$1,$8,$9*
0 Add four rect primitives between the rounded corners*
20,1,$1+$1,$2,$3,$4,$5,0*
20,1,$1+$1,$4,$5,$6,$7,0*
20,1,$1+$1,$6,$7,$8,$9,0*
20,1,$1+$1,$8,$9,$2,$3,0*%
G04 Aperture macros list end*
%TA.AperFunction,EtchedComponent*%
%ADD10C,0.100000*%
%TD*%
%TA.AperFunction,EtchedComponent*%
%ADD11C,0.200000*%
%TD*%
%TA.AperFunction,SMDPad,CuDef*%
%ADD12RoundRect,0.135000X-0.340000X0.315000X-0.340000X-0.315000X0.340000X-0.315000X0.340000X0.315000X0*%
%TD*%
%TA.AperFunction,SMDPad,CuDef*%
%ADD13C,1.000000*%
%TD*%
%TA.AperFunction,SMDPad,CuDef*%
%ADD14RoundRect,0.127500X0.622500X-0.297500X0.622500X0.297500X-0.622500X0.297500X-0.622500X-0.297500X0*%
%TD*%
%TA.AperFunction,SMDPad,CuDef*%
%ADD15RoundRect,0.150000X-0.350000X1.450000X-0.350000X-1.450000X0.350000X-1.450000X0.350000X1.450000X0*%
%TD*%
%TA.AperFunction,SMDPad,CuDef*%
%ADD16RoundRect,0.045000X-0.555000X0.105000X-0.555000X-0.105000X0.555000X-0.105000X0.555000X0.105000X0*%
%TD*%
%TA.AperFunction,SMDPad,CuDef*%
%ADD17RoundRect,0.090000X0.260000X-0.210000X0.260000X0.210000X-0.260000X0.210000X-0.260000X-0.210000X0*%
%TD*%
%TA.AperFunction,SMDPad,CuDef*%
%ADD18RoundRect,0.120000X-0.280000X-0.680000X0.280000X-0.680000X0.280000X0.680000X-0.280000X0.680000X0*%
%TD*%
%TA.AperFunction,SMDPad,CuDef*%
%ADD19RoundRect,0.120000X0.280000X0.680000X-0.280000X0.680000X-0.280000X-0.680000X0.280000X-0.680000X0*%
%TD*%
%TA.AperFunction,ViaPad*%
%ADD20C,0.600000*%
%TD*%
%TA.AperFunction,Conductor*%
%ADD21C,0.200000*%
%TD*%
%TA.AperFunction,Conductor*%
%ADD22C,0.500000*%
%TD*%
G04 APERTURE END LIST*
%TO.C,J4*%
D10*
X156850000Y-112950000D02*
X158150000Y-112950000D01*
X158150000Y-114950000D01*
X156850000Y-114950000D01*
X156850000Y-112950000D01*
%TA.AperFunction,EtchedComponent*%
G36*
X156850000Y-112950000D02*
G01*
X158150000Y-112950000D01*
X158150000Y-114950000D01*
X156850000Y-114950000D01*
X156850000Y-112950000D01*
G37*
%TD.AperFunction*%
X156850000Y-128050000D02*
X158150000Y-128050000D01*
X158150000Y-130050000D01*
X156850000Y-130050000D01*
X156850000Y-128050000D01*
%TA.AperFunction,EtchedComponent*%
G36*
X156850000Y-128050000D02*
G01*
X158150000Y-128050000D01*
X158150000Y-130050000D01*
X156850000Y-130050000D01*
X156850000Y-128050000D01*
G37*
%TD.AperFunction*%
%TO.C,J2*%
D11*
X151450000Y-133200000D02*
X153550000Y-133200000D01*
X153550000Y-136200000D01*
X151450000Y-136200000D01*
X151450000Y-133200000D01*
%TA.AperFunction,EtchedComponent*%
G36*
X151450000Y-133200000D02*
G01*
X153550000Y-133200000D01*
X153550000Y-136200000D01*
X151450000Y-136200000D01*
X151450000Y-133200000D01*
G37*
%TD.AperFunction*%
X157450000Y-133200000D02*
X159550000Y-133200000D01*
X159550000Y-136200000D01*
X157450000Y-136200000D01*
X157450000Y-133200000D01*
%TA.AperFunction,EtchedComponent*%
G36*
X157450000Y-133200000D02*
G01*
X159550000Y-133200000D01*
X159550000Y-136200000D01*
X157450000Y-136200000D01*
X157450000Y-133200000D01*
G37*
%TD.AperFunction*%
%TO.C,J1*%
X151450000Y-106799999D02*
X153550000Y-106799999D01*
X153550000Y-109799999D01*
X151450000Y-109799999D01*
X151450000Y-106799999D01*
%TA.AperFunction,EtchedComponent*%
G36*
X151450000Y-106799999D02*
G01*
X153550000Y-106799999D01*
X153550000Y-109799999D01*
X151450000Y-109799999D01*
X151450000Y-106799999D01*
G37*
%TD.AperFunction*%
X157450000Y-106799999D02*
X159550000Y-106799999D01*
X159550000Y-109799999D01*
X157450000Y-109799999D01*
X157450000Y-106799999D01*
%TA.AperFunction,EtchedComponent*%
G36*
X157450000Y-106799999D02*
G01*
X159550000Y-106799999D01*
X159550000Y-109799999D01*
X157450000Y-109799999D01*
X157450000Y-106799999D01*
G37*
%TD.AperFunction*%
%TD*%
D12*
%TO.P,D1,1,K_1*%
%TO.N,3V3*%
X149200000Y-126525000D03*
%TO.P,D1,2,A_2*%
%TO.N,GND*%
X149200000Y-130175000D03*
%TD*%
D13*
%TO.P,FID6,1*%
%TO.N,unconnected-(FID6-Pad1)*%
X143450000Y-143250000D03*
%TD*%
D14*
%TO.P,C1,1*%
%TO.N,GND*%
X151270000Y-128275000D03*
%TO.P,C1,2*%
%TO.N,3V3*%
X151270000Y-126525000D03*
%TD*%
D15*
%TO.P,S7,1*%
%TO.N,GND*%
X122200000Y-104300000D03*
X122200000Y-110900000D03*
%TO.P,S7,2*%
%TO.N,/L_R_L2_TRIG*%
X126200000Y-104300000D03*
X126200000Y-110900000D03*
%TD*%
D13*
%TO.P,FID2,1*%
%TO.N,unconnected-(FID2-Pad1)*%
X148275000Y-105350000D03*
%TD*%
%TO.P,FID4,1*%
%TO.N,unconnected-(FID4-Pad1)*%
X129000000Y-144100000D03*
%TD*%
D15*
%TO.P,S10,1*%
%TO.N,GND*%
X122200000Y-132100000D03*
X122200000Y-138700000D03*
%TO.P,S10,2*%
%TO.N,/L_R_L2_TRIG*%
X126200000Y-132100000D03*
X126200000Y-138700000D03*
%TD*%
D16*
%TO.P,J4,1,1_1*%
%TO.N,GND*%
X154800000Y-116250000D03*
%TO.P,J4,2,2_2*%
%TO.N,/L_HOME{slash}R_EXTRA*%
X154800000Y-116750000D03*
%TO.P,J4,3,3_3*%
%TO.N,/L_R_L2_TRIG*%
X154800000Y-117250000D03*
%TO.P,J4,4,4_4*%
%TO.N,/L_R_L1_TRIG*%
X154800000Y-117750000D03*
%TO.P,J4,5,5_5*%
%TO.N,GND*%
X154800000Y-118250000D03*
%TO.P,J4,6,6_6*%
%TO.N,/L_START{slash}R_SELECT*%
X154800000Y-118750000D03*
%TO.P,J4,7,7_7*%
%TO.N,/L_DPAD_RIGHT{slash}R_BTN_Y*%
X154800000Y-119250000D03*
%TO.P,J4,8,8_8*%
%TO.N,/L_DPAD_LEFT{slash}R_BTN_X*%
X154800000Y-119750000D03*
%TO.P,J4,9,9_9*%
%TO.N,GND*%
X154800000Y-120250000D03*
%TO.P,J4,10,10_10*%
%TO.N,/L_DPAD_DOWN{slash}R_BTN_B*%
X154800000Y-120750000D03*
%TO.P,J4,11,11_11*%
%TO.N,/L_DPAD_UP{slash}R_BTN_A*%
X154800000Y-121250000D03*
%TO.P,J4,12,12_12*%
%TO.N,/L_R_THUMBST_SW*%
X154800000Y-121750000D03*
%TO.P,J4,13,13_13*%
%TO.N,GND*%
X154800000Y-122250000D03*
%TO.P,J4,14,14_14*%
%TO.N,/L_R_THUMBST_Y*%
X154800000Y-122750000D03*
%TO.P,J4,15,15_15*%
%TO.N,/L_R_THUMBST_X*%
X154800000Y-123250000D03*
%TO.P,J4,16,16_16*%
%TO.N,unconnected-(J4-Pad16)*%
X154800000Y-123750000D03*
%TO.P,J4,17,17_17*%
%TO.N,GND*%
X154800000Y-124250000D03*
%TO.P,J4,18,18_18*%
%TO.N,/L_R_SPKOUT*%
X154800000Y-124750000D03*
%TO.P,J4,19,19_19*%
X154800000Y-125250000D03*
%TO.P,J4,20,20_20*%
%TO.N,3V3*%
X154800000Y-125750000D03*
%TO.P,J4,21,21_21*%
X154800000Y-126250000D03*
%TO.P,J4,22,22_22*%
X154800000Y-126750000D03*
%TD*%
D17*
%TO.P,C3,1*%
%TO.N,GND*%
X153080000Y-127754999D03*
%TO.P,C3,2*%
%TO.N,3V3*%
X153080000Y-126755001D03*
%TD*%
D18*
%TO.P,J2,1,1_1*%
%TO.N,/L_R_SPKOUT*%
X156125000Y-131700000D03*
%TO.P,J2,2,2_2*%
%TO.N,GND*%
X154875000Y-131700000D03*
%TD*%
D19*
%TO.P,J1,1,1_1*%
%TO.N,/L_R_SPKOUT*%
X154875000Y-111299999D03*
%TO.P,J1,2,2_2*%
%TO.N,GND*%
X156125000Y-111299999D03*
%TD*%
D20*
%TO.N,GND*%
X130800000Y-97550000D03*
X129800000Y-149950000D03*
X142550000Y-138550000D03*
X150000000Y-125200000D03*
X152700000Y-125200000D03*
X122705828Y-122896731D03*
X122705828Y-116596731D03*
X122705828Y-118646731D03*
X122705828Y-114496731D03*
X122705828Y-120796731D03*
X146650000Y-115742041D03*
X146650000Y-117750000D03*
X140000000Y-118450000D03*
X133800000Y-118500000D03*
X133500000Y-120400000D03*
X132100000Y-121600000D03*
X130000000Y-121850000D03*
X127950000Y-121850000D03*
X127000000Y-107600000D03*
X126850000Y-100100000D03*
X140000000Y-97550000D03*
X142293546Y-97551595D03*
X137700000Y-97550000D03*
X135406454Y-97548405D03*
X146900000Y-109250000D03*
X148800000Y-107350000D03*
X146900000Y-107350000D03*
%TO.N,/L_R_L1_TRIG*%
X150000000Y-116750000D03*
%TO.N,GND*%
X140500000Y-145050000D03*
X151400000Y-101400000D03*
X135400000Y-92600000D03*
X159400000Y-125699999D03*
X159400000Y-129900000D03*
X159400000Y-115200000D03*
X128900000Y-96900000D03*
X159400000Y-117300000D03*
X120600000Y-120800000D03*
X153250000Y-131250000D03*
X159400000Y-119400000D03*
X151400000Y-105600000D03*
X156250000Y-124250000D03*
X120600000Y-125000000D03*
X156250000Y-122250000D03*
X135400000Y-150400000D03*
X151400000Y-139700000D03*
X120600000Y-112400000D03*
X145500000Y-96575000D03*
X151400000Y-143900000D03*
X142350000Y-131800000D03*
X128900000Y-146100000D03*
X149200000Y-131400000D03*
X120600000Y-114500000D03*
X130300000Y-128500000D03*
X121300000Y-101200000D03*
X149200000Y-133200000D03*
X151400000Y-103500000D03*
X151400000Y-97200000D03*
X134350000Y-139750000D03*
X120610661Y-129217641D03*
X122200000Y-134500000D03*
X151250000Y-129500000D03*
X120610661Y-127117641D03*
X120700000Y-138500000D03*
X150800000Y-117800000D03*
X156250000Y-118250000D03*
X151400000Y-137600000D03*
X151400000Y-141800000D03*
X120600000Y-106100000D03*
X121300000Y-129500000D03*
X153075000Y-128955000D03*
X124900000Y-130900000D03*
X125000000Y-100900000D03*
X120600000Y-118650000D03*
X120600000Y-110300000D03*
X120620000Y-135509999D03*
X151400000Y-146000000D03*
X120600000Y-116600000D03*
X159400000Y-111000000D03*
X151400000Y-99300000D03*
X121400000Y-142300000D03*
X157500000Y-111750000D03*
X120600000Y-122900000D03*
X159400000Y-113100000D03*
X120610661Y-131317640D03*
X120600000Y-108200000D03*
X156250000Y-120250000D03*
X122200000Y-102100000D03*
X124900000Y-142100000D03*
X159400000Y-127800000D03*
X159400000Y-132000000D03*
X159400000Y-123600000D03*
X120620000Y-133410000D03*
X156250000Y-116250000D03*
X120700000Y-103500000D03*
X122200000Y-140900000D03*
X127700000Y-149200000D03*
X159400000Y-121500000D03*
X141200000Y-141200000D03*
X141450000Y-119500000D03*
X130700000Y-133200000D03*
%TO.N,3V3*%
X123875000Y-135050000D03*
X124650000Y-134375000D03*
X123875000Y-134375000D03*
X124650000Y-135050000D03*
%TO.N,/L_START{slash}R_SELECT*%
X153075000Y-118475000D03*
%TO.N,/L_DPAD_UP{slash}R_BTN_A*%
X133950000Y-125200000D03*
%TO.N,/L_DPAD_RIGHT{slash}R_BTN_Y*%
X142150000Y-122100000D03*
%TO.N,/L_DPAD_DOWN{slash}R_BTN_B*%
X135500000Y-138700000D03*
%TO.N,/L_DPAD_LEFT{slash}R_BTN_X*%
X128500000Y-130600000D03*
%TO.N,/L_R_THUMBST_X*%
X133625000Y-129800000D03*
%TO.N,/L_R_THUMBST_SW*%
X132375000Y-125025000D03*
%TO.N,/L_R_THUMBST_Y*%
X130912500Y-124962500D03*
%TO.N,/L_HOME{slash}R_EXTRA*%
X153425000Y-114050000D03*
%TD*%
%TO.N,/L_R_L2_TRIG*%
D21*
X126200000Y-100675000D02*
X126200000Y-104300000D01*
X124825000Y-99300000D02*
X126200000Y-100675000D01*
X124825000Y-97775000D02*
X124825000Y-99300000D01*
X126800000Y-96600000D02*
X126000000Y-96600000D01*
X130600000Y-92800000D02*
X126800000Y-96600000D01*
X134300000Y-92800000D02*
X130600000Y-92800000D01*
X149200000Y-94300000D02*
X135800000Y-94300000D01*
X135800000Y-94300000D02*
X134300000Y-92800000D01*
X147100000Y-110900000D02*
X150300000Y-107700000D01*
X147100000Y-114800000D02*
X147100000Y-110900000D01*
X148200000Y-115900000D02*
X147100000Y-114800000D01*
X126000000Y-96600000D02*
X124825000Y-97775000D01*
X153550000Y-117250000D02*
X152200000Y-115900000D01*
X152200000Y-115900000D02*
X148200000Y-115900000D01*
X150300000Y-107700000D02*
X150300000Y-95400000D01*
X150300000Y-95400000D02*
X149200000Y-94300000D01*
X154800000Y-117250000D02*
X153550000Y-117250000D01*
X126200000Y-112500000D02*
X126200000Y-110900000D01*
X123100000Y-113000000D02*
X125700000Y-113000000D01*
X121750000Y-114350000D02*
X123100000Y-113000000D01*
X126200000Y-128700000D02*
X121750000Y-124250000D01*
X125700000Y-113000000D02*
X126200000Y-112500000D01*
X126200000Y-132100000D02*
X126200000Y-128700000D01*
X121750000Y-124250000D02*
X121750000Y-114350000D01*
%TO.N,/L_DPAD_RIGHT{slash}R_BTN_Y*%
X148250000Y-119250000D02*
X154800000Y-119250000D01*
X145400000Y-122100000D02*
X148250000Y-119250000D01*
X142150000Y-122100000D02*
X145400000Y-122100000D01*
%TO.N,/L_R_L1_TRIG*%
X150025000Y-116725000D02*
X150000000Y-116750000D01*
X151950000Y-116725000D02*
X150025000Y-116725000D01*
X152975000Y-117750000D02*
X151950000Y-116725000D01*
X154800000Y-117750000D02*
X152975000Y-117750000D01*
%TO.N,/L_DPAD_LEFT{slash}R_BTN_X*%
X149625000Y-119750000D02*
X154800000Y-119750000D01*
X129725000Y-123150000D02*
X134500000Y-123150000D01*
X144900000Y-124475000D02*
X149625000Y-119750000D01*
X128800000Y-124075000D02*
X129725000Y-123150000D01*
X128800000Y-130300000D02*
X128800000Y-124075000D01*
X128500000Y-130600000D02*
X128800000Y-130300000D01*
X134500000Y-123150000D02*
X135825000Y-124475000D01*
X135825000Y-124475000D02*
X144900000Y-124475000D01*
%TO.N,GND*%
X122200000Y-138700000D02*
X122200000Y-140900000D01*
X153075000Y-127750000D02*
X153075000Y-128955000D01*
X154800000Y-122250000D02*
X156250000Y-122250000D01*
X122200000Y-132100000D02*
X122200000Y-129800000D01*
X153700000Y-131700000D02*
X153250000Y-131250000D01*
X151250000Y-128295000D02*
X151250000Y-129500000D01*
X154800000Y-124250000D02*
X156250000Y-124250000D01*
X122200000Y-132100000D02*
X122200000Y-134500000D01*
X122200000Y-104300000D02*
X122200000Y-102100000D01*
X154800000Y-120250000D02*
X156250000Y-120250000D01*
X151270000Y-128275000D02*
X151250000Y-128295000D01*
X154800000Y-116250000D02*
X156250000Y-116250000D01*
X154800000Y-118250000D02*
X156250000Y-118250000D01*
X154875000Y-131700000D02*
X153700000Y-131700000D01*
X156575001Y-111750000D02*
X157500000Y-111750000D01*
X156125000Y-111299999D02*
X156575001Y-111750000D01*
X149200000Y-130195000D02*
X149200000Y-131400000D01*
%TO.N,3V3*%
D22*
X125725000Y-141825000D02*
X124275000Y-140375000D01*
X152849999Y-126525000D02*
X151270000Y-126525000D01*
D21*
X153585001Y-126250000D02*
X153080000Y-126755001D01*
D22*
X124187500Y-136012500D02*
X124362500Y-136012500D01*
X137750000Y-141825000D02*
X125725000Y-141825000D01*
X123875000Y-134375000D02*
X123875000Y-135700000D01*
X124275000Y-140375000D02*
X124275000Y-136100000D01*
D21*
X154800000Y-126250000D02*
X153585001Y-126250000D01*
D22*
X124362500Y-136012500D02*
X124650000Y-135725000D01*
D21*
X153085001Y-126750000D02*
X153080000Y-126755001D01*
D22*
X143500000Y-132225000D02*
X143500000Y-136075000D01*
X149200000Y-126525000D02*
X143500000Y-132225000D01*
X124275000Y-136100000D02*
X124362500Y-136012500D01*
D21*
X153585001Y-125989999D02*
X153585001Y-126250000D01*
D22*
X124650000Y-135725000D02*
X124650000Y-134375000D01*
D21*
X153825000Y-125750000D02*
X153585001Y-125989999D01*
D22*
X143500000Y-136075000D02*
X137750000Y-141825000D01*
D21*
X154800000Y-125750000D02*
X153825000Y-125750000D01*
D22*
X123875000Y-135700000D02*
X124187500Y-136012500D01*
D21*
X154800000Y-126750000D02*
X153085001Y-126750000D01*
D22*
X151270000Y-126525000D02*
X149200000Y-126525000D01*
X153080000Y-126755001D02*
X152849999Y-126525000D01*
%TO.N,/L_START{slash}R_SELECT*%
D21*
X154800000Y-118750000D02*
X153350000Y-118750000D01*
X153350000Y-118750000D02*
X153075000Y-118475000D01*
%TO.N,/L_DPAD_UP{slash}R_BTN_A*%
X154800000Y-121250000D02*
X150075000Y-121250000D01*
X135250000Y-126500000D02*
X133950000Y-125200000D01*
X150075000Y-121250000D02*
X144825000Y-126500000D01*
X144825000Y-126500000D02*
X135250000Y-126500000D01*
%TO.N,/L_DPAD_DOWN{slash}R_BTN_B*%
X132000000Y-130675000D02*
X132775000Y-131450000D01*
X134375000Y-123800000D02*
X130575000Y-123800000D01*
X132775000Y-131450000D02*
X133450000Y-131450000D01*
X136550000Y-125975000D02*
X134375000Y-123800000D01*
X129825000Y-126150000D02*
X132000000Y-128325000D01*
X133450000Y-131450000D02*
X134250000Y-132250000D01*
X134250000Y-137450000D02*
X135500000Y-138700000D01*
X154800000Y-120750000D02*
X149700000Y-120750000D01*
X134250000Y-132250000D02*
X134250000Y-137450000D01*
X132000000Y-128325000D02*
X132000000Y-130675000D01*
X130575000Y-123800000D02*
X129825000Y-124550000D01*
X129825000Y-124550000D02*
X129825000Y-126150000D01*
X149700000Y-120750000D02*
X144475000Y-125975000D01*
X144475000Y-125975000D02*
X136550000Y-125975000D01*
%TO.N,/L_R_THUMBST_X*%
X150475000Y-123250000D02*
X154800000Y-123250000D01*
X145525000Y-128200000D02*
X150475000Y-123250000D01*
X133625000Y-129800000D02*
X135225000Y-128200000D01*
X135225000Y-128200000D02*
X145525000Y-128200000D01*
%TO.N,/L_R_THUMBST_SW*%
X150400000Y-121750000D02*
X154800000Y-121750000D01*
X134350000Y-127000000D02*
X145150000Y-127000000D01*
X132375000Y-125025000D02*
X134350000Y-127000000D01*
X145150000Y-127000000D02*
X150400000Y-121750000D01*
%TO.N,/L_R_THUMBST_Y*%
X154800000Y-122750000D02*
X150175000Y-122750000D01*
X145325000Y-127600000D02*
X133050000Y-127600000D01*
X130900000Y-125450000D02*
X130900000Y-124950000D01*
X133050000Y-127600000D02*
X130900000Y-125450000D01*
X150175000Y-122750000D02*
X145325000Y-127600000D01*
%TO.N,/L_HOME{slash}R_EXTRA*%
X154800000Y-116750000D02*
X153825000Y-116750000D01*
X153425000Y-116350000D02*
X153425000Y-114050000D01*
X153825000Y-116750000D02*
X153425000Y-116350000D01*
%TO.N,/L_R_L2_TRIG*%
X126200000Y-138700000D02*
X126200000Y-132100000D01*
X126200000Y-110900000D02*
X126200000Y-104300000D01*
%TO.N,/L_R_SPKOUT*%
X156825000Y-124900000D02*
X157375000Y-124350000D01*
X156300000Y-125625000D02*
X156300000Y-127575000D01*
X155900000Y-124900000D02*
X156825000Y-124900000D01*
X156075000Y-131650000D02*
X156125000Y-131700000D01*
X154800000Y-125250000D02*
X155925000Y-125250000D01*
X156075000Y-127800000D02*
X156075000Y-131650000D01*
X155925000Y-125250000D02*
X156300000Y-125625000D01*
X153675000Y-125175000D02*
X153750000Y-125250000D01*
X155750000Y-124750000D02*
X155900000Y-124900000D01*
X157375000Y-124350000D02*
X157375000Y-116375000D01*
X154800000Y-124750000D02*
X153750000Y-124750000D01*
X157375000Y-116375000D02*
X154875000Y-113875000D01*
X156300000Y-127575000D02*
X156075000Y-127800000D01*
X154800000Y-124750000D02*
X155750000Y-124750000D01*
X154875000Y-113875000D02*
X154875000Y-111299999D01*
X153750000Y-125250000D02*
X154800000Y-125250000D01*
X153675000Y-124825000D02*
X153675000Y-125175000D01*
X153750000Y-124750000D02*
X153675000Y-124825000D01*
%TD*%
%TA.AperFunction,Conductor*%
%TO.N,GND*%
G36*
X151592603Y-92305523D02*
G01*
X151607601Y-92309927D01*
X151666352Y-92347672D01*
X151667539Y-92349041D01*
X151687404Y-92392504D01*
X151690860Y-92391408D01*
X151693692Y-92400335D01*
X151695079Y-92409294D01*
X151696584Y-92412587D01*
X151696105Y-92415923D01*
X151699497Y-92437831D01*
X151699500Y-95960438D01*
X151699503Y-105652406D01*
X151699503Y-105700005D01*
X151699502Y-105767661D01*
X151699502Y-105767672D01*
X151729611Y-105899587D01*
X151788322Y-106021502D01*
X151788323Y-106021504D01*
X151788360Y-106021559D01*
X151788829Y-106022139D01*
X151872697Y-106127306D01*
X151978495Y-106211677D01*
X151978496Y-106211677D01*
X151981217Y-106213847D01*
X151981218Y-106213849D01*
X151992962Y-106223214D01*
X151998758Y-106228134D01*
X152003699Y-106232596D01*
X152040260Y-106292136D01*
X152038828Y-106361991D01*
X151999856Y-106419982D01*
X151945727Y-106446050D01*
X151941500Y-106446925D01*
X151916365Y-106449499D01*
X151403856Y-106449499D01*
X151321466Y-106471574D01*
X151321451Y-106471579D01*
X151314712Y-106473385D01*
X151314711Y-106473385D01*
X151314709Y-106473386D01*
X151314706Y-106473387D01*
X151311906Y-106475003D01*
X151311902Y-106475005D01*
X151234804Y-106519518D01*
X151234786Y-106519530D01*
X151169531Y-106584785D01*
X151169519Y-106584803D01*
X151123389Y-106664703D01*
X151123388Y-106664704D01*
X151123384Y-106664715D01*
X151102658Y-106742070D01*
X151099500Y-106753855D01*
X151099500Y-109846142D01*
X151105191Y-109867384D01*
X151123384Y-109935281D01*
X151123388Y-109935292D01*
X151123389Y-109935293D01*
X151162343Y-110002764D01*
X151169526Y-110015204D01*
X151169529Y-110015208D01*
X151169531Y-110015211D01*
X151234788Y-110080468D01*
X151234791Y-110080469D01*
X151234794Y-110080472D01*
X151241020Y-110084066D01*
X151241684Y-110084729D01*
X151243036Y-110085565D01*
X151245651Y-110086740D01*
X151314706Y-110126610D01*
X151314707Y-110126610D01*
X151314712Y-110126613D01*
X151403856Y-110150499D01*
X151403858Y-110150499D01*
X153596142Y-110150499D01*
X153596144Y-110150499D01*
X153685288Y-110126613D01*
X153765212Y-110080468D01*
X153830469Y-110015211D01*
X153876614Y-109935287D01*
X153900500Y-109846143D01*
X153900500Y-106753855D01*
X153876614Y-106664711D01*
X153876612Y-106664708D01*
X153858503Y-106633342D01*
X153830473Y-106584793D01*
X153830470Y-106584790D01*
X153830469Y-106584787D01*
X153779116Y-106533434D01*
X153756728Y-106502857D01*
X153745818Y-106481828D01*
X153735844Y-106468169D01*
X153731687Y-106398423D01*
X153765898Y-106337502D01*
X153794402Y-106316689D01*
X153797641Y-106314970D01*
X153855771Y-106300500D01*
X157137112Y-106300500D01*
X157172039Y-106305521D01*
X157182892Y-106308707D01*
X157241673Y-106346477D01*
X157270702Y-106410031D01*
X157260763Y-106479190D01*
X157260760Y-106479196D01*
X157258747Y-106483604D01*
X157230978Y-106522352D01*
X157213709Y-106538619D01*
X157204752Y-106549563D01*
X157169534Y-106584781D01*
X157169531Y-106584785D01*
X157169519Y-106584803D01*
X157123389Y-106664703D01*
X157123388Y-106664704D01*
X157123384Y-106664715D01*
X157102658Y-106742070D01*
X157099500Y-106753855D01*
X157099500Y-109846142D01*
X157105191Y-109867384D01*
X157123384Y-109935281D01*
X157123388Y-109935292D01*
X157123389Y-109935293D01*
X157162343Y-110002764D01*
X157169526Y-110015204D01*
X157169529Y-110015208D01*
X157169531Y-110015211D01*
X157234788Y-110080468D01*
X157234791Y-110080469D01*
X157234794Y-110080472D01*
X157241020Y-110084066D01*
X157241684Y-110084729D01*
X157243036Y-110085565D01*
X157245651Y-110086740D01*
X157314706Y-110126610D01*
X157314707Y-110126610D01*
X157314712Y-110126613D01*
X157403856Y-110150499D01*
X157403858Y-110150499D01*
X159557667Y-110150499D01*
X159592603Y-110155522D01*
X159607601Y-110159926D01*
X159666352Y-110197671D01*
X159667539Y-110199040D01*
X159695015Y-110253901D01*
X159696660Y-110261459D01*
X159699497Y-110287830D01*
X159699497Y-132707670D01*
X159694472Y-132742614D01*
X159690067Y-132757612D01*
X159652324Y-132816355D01*
X159650955Y-132817542D01*
X159596094Y-132845018D01*
X159588536Y-132846663D01*
X159562165Y-132849500D01*
X157403856Y-132849500D01*
X157321466Y-132871575D01*
X157321451Y-132871580D01*
X157314712Y-132873386D01*
X157314711Y-132873386D01*
X157314709Y-132873387D01*
X157314706Y-132873388D01*
X157311906Y-132875004D01*
X157311902Y-132875006D01*
X157234804Y-132919519D01*
X157234786Y-132919531D01*
X157169531Y-132984786D01*
X157169519Y-132984804D01*
X157125006Y-133061902D01*
X157125004Y-133061906D01*
X157123388Y-133064706D01*
X157123387Y-133064709D01*
X157123386Y-133064711D01*
X157123386Y-133064712D01*
X157121580Y-133071451D01*
X157121575Y-133071466D01*
X157099500Y-133153856D01*
X157099500Y-136246145D01*
X157122580Y-136332282D01*
X157123383Y-136335277D01*
X157123385Y-136335284D01*
X157123386Y-136335288D01*
X157123389Y-136335295D01*
X157169519Y-136415194D01*
X157169531Y-136415212D01*
X157220883Y-136466564D01*
X157243281Y-136497160D01*
X157254162Y-136518143D01*
X157264147Y-136531813D01*
X157268311Y-136601559D01*
X157234107Y-136662484D01*
X157205605Y-136683301D01*
X157202365Y-136685021D01*
X157144223Y-136699497D01*
X153862891Y-136699497D01*
X153827956Y-136694474D01*
X153817102Y-136691287D01*
X153758324Y-136653513D01*
X153729299Y-136589957D01*
X153739241Y-136520803D01*
X153741263Y-136516376D01*
X153769016Y-136477645D01*
X153786349Y-136461311D01*
X153795247Y-136450433D01*
X153830469Y-136415212D01*
X153876614Y-136335288D01*
X153900500Y-136246144D01*
X153900500Y-133153856D01*
X153876614Y-133064712D01*
X153876612Y-133064709D01*
X153871382Y-133055650D01*
X153830473Y-132984794D01*
X153830472Y-132984793D01*
X153830470Y-132984789D01*
X153766378Y-132920697D01*
X153765212Y-132919531D01*
X153765209Y-132919529D01*
X153765205Y-132919526D01*
X153699190Y-132881411D01*
X153698835Y-132881204D01*
X153698460Y-132880806D01*
X153692895Y-132876536D01*
X153686999Y-132874094D01*
X153683596Y-132872624D01*
X153683126Y-132872412D01*
X153681234Y-132871706D01*
X153677684Y-132870235D01*
X153669520Y-132869161D01*
X153596144Y-132849500D01*
X153596143Y-132849500D01*
X151403856Y-132849500D01*
X151321466Y-132871575D01*
X151321451Y-132871580D01*
X151314712Y-132873386D01*
X151314711Y-132873386D01*
X151314709Y-132873387D01*
X151314706Y-132873388D01*
X151311906Y-132875004D01*
X151311902Y-132875006D01*
X151234804Y-132919519D01*
X151234786Y-132919531D01*
X151169531Y-132984786D01*
X151169519Y-132984804D01*
X151125006Y-133061902D01*
X151125004Y-133061906D01*
X151123388Y-133064706D01*
X151123387Y-133064709D01*
X151123386Y-133064711D01*
X151123386Y-133064712D01*
X151121580Y-133071451D01*
X151121575Y-133071466D01*
X151099500Y-133153856D01*
X151099500Y-136246145D01*
X151122580Y-136332282D01*
X151123383Y-136335277D01*
X151123385Y-136335284D01*
X151123386Y-136335288D01*
X151123389Y-136335295D01*
X151142939Y-136369157D01*
X151169526Y-136415205D01*
X151169529Y-136415209D01*
X151169531Y-136415212D01*
X151234788Y-136480469D01*
X151234791Y-136480470D01*
X151234794Y-136480473D01*
X151241020Y-136484067D01*
X151241684Y-136484730D01*
X151243036Y-136485566D01*
X151245651Y-136486741D01*
X151314706Y-136526611D01*
X151314707Y-136526611D01*
X151314712Y-136526614D01*
X151403856Y-136550500D01*
X151403858Y-136550500D01*
X151911237Y-136550500D01*
X151949908Y-136561855D01*
X151979370Y-136567949D01*
X151992693Y-136581002D01*
X151998381Y-136585881D01*
X151998057Y-136586257D01*
X152029279Y-136616845D01*
X152044830Y-136684962D01*
X152021085Y-136750673D01*
X151996386Y-136775884D01*
X151992969Y-136778497D01*
X151986965Y-136782184D01*
X151987027Y-136782271D01*
X151975653Y-136790339D01*
X151973047Y-136792669D01*
X151872698Y-136872695D01*
X151788333Y-136978483D01*
X151788332Y-136978485D01*
X151729613Y-137100414D01*
X151699503Y-137232330D01*
X151699503Y-137299998D01*
X151699502Y-137347585D01*
X151699502Y-137347590D01*
X151699500Y-150557667D01*
X151694475Y-150592611D01*
X151690070Y-150607609D01*
X151652327Y-150666352D01*
X151650958Y-150667539D01*
X151596097Y-150695015D01*
X151588539Y-150696660D01*
X151562168Y-150699497D01*
X149731877Y-150699497D01*
X149696938Y-150694473D01*
X149683620Y-150690562D01*
X149624843Y-150652786D01*
X149595821Y-150589229D01*
X149595820Y-150589224D01*
X149594826Y-150582307D01*
X149599634Y-150526352D01*
X149640512Y-150400538D01*
X149642950Y-150393717D01*
X149643672Y-150391868D01*
X149644645Y-150387817D01*
X149648950Y-150374564D01*
X149648339Y-150372850D01*
X149649663Y-150346375D01*
X149675500Y-150183254D01*
X149675500Y-149966746D01*
X149641630Y-149752903D01*
X149576234Y-149551632D01*
X149575170Y-149547860D01*
X149476430Y-149354076D01*
X149469425Y-149344435D01*
X149469424Y-149344435D01*
X149349172Y-149178922D01*
X149196078Y-149025828D01*
X149020919Y-148898567D01*
X149020918Y-148898566D01*
X149020916Y-148898565D01*
X148863932Y-148818576D01*
X148835092Y-148798247D01*
X148830985Y-148794368D01*
X148825678Y-148789356D01*
X148790453Y-148729018D01*
X148793441Y-148659212D01*
X148829616Y-148605486D01*
X148836624Y-148599415D01*
X148861526Y-148582648D01*
X148930366Y-148547572D01*
X149020919Y-148501433D01*
X149196078Y-148374172D01*
X149349172Y-148221078D01*
X149476433Y-148045919D01*
X149574726Y-147853009D01*
X149641630Y-147647097D01*
X149675500Y-147433254D01*
X149675500Y-147216746D01*
X149641630Y-147002903D01*
X149574726Y-146796991D01*
X149574726Y-146796990D01*
X149524642Y-146698697D01*
X149486529Y-146623895D01*
X149476434Y-146604082D01*
X149409754Y-146512306D01*
X149349172Y-146428922D01*
X149349171Y-146428921D01*
X149348448Y-146428075D01*
X149346466Y-146425199D01*
X149346308Y-146424981D01*
X149346313Y-146424977D01*
X149333912Y-146406978D01*
X149326639Y-146393660D01*
X149311784Y-146325388D01*
X149335758Y-146260513D01*
X149343772Y-146249674D01*
X149367994Y-146225017D01*
X149375618Y-146219168D01*
X149520080Y-146108319D01*
X149733319Y-145895080D01*
X149916900Y-145655832D01*
X150067683Y-145394668D01*
X150183087Y-145116058D01*
X150261138Y-144824768D01*
X150300500Y-144525783D01*
X150300500Y-144224217D01*
X150261138Y-143925232D01*
X150183087Y-143633942D01*
X150169594Y-143601368D01*
X150169592Y-143601364D01*
X150109167Y-143455484D01*
X150109166Y-143455482D01*
X150108138Y-143453000D01*
X150067683Y-143355332D01*
X150043569Y-143313566D01*
X149916900Y-143094168D01*
X149916896Y-143094163D01*
X149733326Y-142854928D01*
X149733322Y-142854924D01*
X149733320Y-142854921D01*
X149733314Y-142854914D01*
X149520085Y-142641685D01*
X149520078Y-142641679D01*
X149520075Y-142641677D01*
X149520070Y-142641672D01*
X149280835Y-142458102D01*
X149280834Y-142458101D01*
X149280831Y-142458099D01*
X149051163Y-142325500D01*
X149019668Y-142307316D01*
X149019618Y-142307292D01*
X149018980Y-142307032D01*
X148741058Y-142191912D01*
X148595413Y-142152887D01*
X148449766Y-142113861D01*
X148449760Y-142113860D01*
X148449755Y-142113859D01*
X148154883Y-142075039D01*
X148152867Y-142074705D01*
X148150793Y-142074500D01*
X148150788Y-142074500D01*
X148150783Y-142074500D01*
X147849217Y-142074500D01*
X147849211Y-142074500D01*
X147849206Y-142074500D01*
X147847129Y-142074705D01*
X147845115Y-142075039D01*
X147550243Y-142113859D01*
X147550236Y-142113860D01*
X147550233Y-142113861D01*
X147488673Y-142130355D01*
X147258940Y-142191912D01*
X146981018Y-142307032D01*
X146980388Y-142307288D01*
X146980330Y-142307316D01*
X146719163Y-142458102D01*
X146479928Y-142641672D01*
X146479921Y-142641679D01*
X146479914Y-142641685D01*
X146479910Y-142641688D01*
X146479905Y-142641693D01*
X146266693Y-142854905D01*
X146266686Y-142854913D01*
X146266672Y-142854928D01*
X146083102Y-143094163D01*
X145932316Y-143355330D01*
X145932288Y-143355388D01*
X145932032Y-143356018D01*
X145816912Y-143633940D01*
X145759979Y-143846420D01*
X145738862Y-143925232D01*
X145738859Y-143925243D01*
X145699501Y-144224199D01*
X145699500Y-144224228D01*
X145699500Y-144525770D01*
X145699501Y-144525799D01*
X145738859Y-144824755D01*
X145738860Y-144824760D01*
X145738861Y-144824766D01*
X145755385Y-144886433D01*
X145816912Y-145116058D01*
X145870121Y-145244514D01*
X145927625Y-145383342D01*
X145932032Y-145393980D01*
X145932292Y-145394618D01*
X145932316Y-145394668D01*
X145963481Y-145448647D01*
X146083099Y-145655831D01*
X146083100Y-145655832D01*
X146083102Y-145655835D01*
X146266672Y-145895070D01*
X146266676Y-145895075D01*
X146266679Y-145895078D01*
X146266685Y-145895085D01*
X146479914Y-146108314D01*
X146479921Y-146108320D01*
X146479924Y-146108322D01*
X146479928Y-146108326D01*
X146554639Y-146165653D01*
X146719168Y-146291900D01*
X146980328Y-146442681D01*
X146980343Y-146442688D01*
X147026106Y-146461643D01*
X147056456Y-146479650D01*
X147057310Y-146480338D01*
X147068276Y-146489175D01*
X147108124Y-146546568D01*
X147111541Y-146612515D01*
X147109023Y-146623895D01*
X147098436Y-146653401D01*
X147028563Y-146790533D01*
X147027618Y-146792147D01*
X147025271Y-146796993D01*
X146958370Y-147002897D01*
X146924500Y-147216746D01*
X146924500Y-147433252D01*
X146958370Y-147647101D01*
X147025263Y-147852982D01*
X147025270Y-147853001D01*
X147025270Y-147853002D01*
X147025271Y-147853005D01*
X147025272Y-147853006D01*
X147025273Y-147853009D01*
X147107253Y-148013902D01*
X147123567Y-148045919D01*
X147250828Y-148221078D01*
X147403922Y-148374172D01*
X147502806Y-148446016D01*
X147579076Y-148501430D01*
X147579080Y-148501432D01*
X147579081Y-148501433D01*
X147669637Y-148547573D01*
X147736066Y-148581421D01*
X147736067Y-148581422D01*
X147764910Y-148601755D01*
X147774325Y-148610647D01*
X147783313Y-148626046D01*
X147786860Y-148629396D01*
X147788032Y-148634130D01*
X147809547Y-148670989D01*
X147806555Y-148740794D01*
X147770380Y-148794514D01*
X147763374Y-148800584D01*
X147738473Y-148817350D01*
X147579092Y-148898560D01*
X147579083Y-148898565D01*
X147579080Y-148898567D01*
X147579077Y-148898569D01*
X147579074Y-148898571D01*
X147487566Y-148965056D01*
X147415792Y-149017203D01*
X147408413Y-149021335D01*
X147246334Y-149183414D01*
X147242204Y-149190789D01*
X147196174Y-149254144D01*
X147123569Y-149354076D01*
X147025270Y-149546996D01*
X147025270Y-149546997D01*
X147025263Y-149547016D01*
X146958370Y-149752897D01*
X146924500Y-149966746D01*
X146924500Y-150183258D01*
X146958370Y-150397101D01*
X146998375Y-150520225D01*
X147004393Y-150555004D01*
X147004789Y-150568875D01*
X146987026Y-150636449D01*
X146935562Y-150683686D01*
X146929291Y-150686770D01*
X146874569Y-150699498D01*
X142960454Y-150699500D01*
X133002553Y-150699500D01*
X133000840Y-150699488D01*
X132999175Y-150699465D01*
X132997530Y-150699432D01*
X132317503Y-150681011D01*
X132314152Y-150680874D01*
X132310793Y-150680692D01*
X132307439Y-150680465D01*
X131631965Y-150625464D01*
X131628629Y-150625147D01*
X131625326Y-150624788D01*
X131621985Y-150624379D01*
X130950451Y-150532886D01*
X130947115Y-150532385D01*
X130943781Y-150531838D01*
X130940490Y-150531252D01*
X130274968Y-150403550D01*
X130271693Y-150402876D01*
X130268402Y-150402152D01*
X130265118Y-150401383D01*
X129607422Y-150237823D01*
X129604183Y-150236971D01*
X129600937Y-150236070D01*
X129597705Y-150235125D01*
X128949878Y-150036212D01*
X128946700Y-150035189D01*
X128943493Y-150034109D01*
X128940307Y-150032988D01*
X128304161Y-149799280D01*
X128301036Y-149798083D01*
X128297928Y-149796845D01*
X128294814Y-149795556D01*
X127672248Y-149527747D01*
X127669184Y-149526379D01*
X127666147Y-149524974D01*
X127663116Y-149523522D01*
X127055972Y-149222407D01*
X127052984Y-149220874D01*
X127050034Y-149219310D01*
X127047089Y-149217698D01*
X126482636Y-148898571D01*
X126457088Y-148884127D01*
X126454177Y-148882427D01*
X126453269Y-148881881D01*
X126451278Y-148880682D01*
X126448467Y-148878937D01*
X125877464Y-148513961D01*
X125874650Y-148512108D01*
X125871863Y-148510218D01*
X125869118Y-148508302D01*
X125318693Y-148112932D01*
X125315993Y-148110937D01*
X125313292Y-148108883D01*
X125310666Y-148106830D01*
X125157924Y-147984053D01*
X125133842Y-147958251D01*
X125125911Y-147946858D01*
X125103765Y-147880591D01*
X125120960Y-147812873D01*
X125125232Y-147805652D01*
X125159060Y-147768483D01*
X125223806Y-147721444D01*
X125376900Y-147568350D01*
X125504161Y-147393191D01*
X125526561Y-147349228D01*
X129199500Y-147349228D01*
X129199500Y-147650770D01*
X129199501Y-147650799D01*
X129238859Y-147949755D01*
X129238860Y-147949760D01*
X129238861Y-147949766D01*
X129256046Y-148013902D01*
X129311558Y-148221078D01*
X129316913Y-148241060D01*
X129429185Y-148512108D01*
X129432032Y-148518980D01*
X129432292Y-148519618D01*
X129432316Y-148519668D01*
X129474466Y-148592673D01*
X129583099Y-148780831D01*
X129583100Y-148780832D01*
X129583102Y-148780835D01*
X129766672Y-149020070D01*
X129766676Y-149020075D01*
X129766679Y-149020078D01*
X129766685Y-149020085D01*
X129979914Y-149233314D01*
X129979921Y-149233320D01*
X129979924Y-149233322D01*
X129979928Y-149233326D01*
X130124729Y-149344435D01*
X130219168Y-149416900D01*
X130476899Y-149565701D01*
X130482093Y-149568701D01*
X130482095Y-149568702D01*
X130482683Y-149569042D01*
X130487828Y-149570787D01*
X130666072Y-149644619D01*
X130666071Y-149644619D01*
X130736064Y-149673611D01*
X130758939Y-149683086D01*
X130758940Y-149683086D01*
X130758942Y-149683087D01*
X130758944Y-149683087D01*
X130759691Y-149683397D01*
X130762842Y-149684132D01*
X131050232Y-149761138D01*
X131349217Y-149800500D01*
X131349224Y-149800500D01*
X131650776Y-149800500D01*
X131650783Y-149800500D01*
X131949768Y-149761138D01*
X132241058Y-149683087D01*
X132519668Y-149567683D01*
X132780832Y-149416900D01*
X133020080Y-149233319D01*
X133233319Y-149020080D01*
X133416900Y-148780832D01*
X133567683Y-148519668D01*
X133683087Y-148241058D01*
X133761138Y-147949768D01*
X133800500Y-147650783D01*
X133800500Y-147349217D01*
X133761138Y-147050232D01*
X133683087Y-146758942D01*
X133567683Y-146480332D01*
X133545949Y-146442688D01*
X133416900Y-146219168D01*
X133352225Y-146134881D01*
X133233326Y-145979928D01*
X133233322Y-145979924D01*
X133233320Y-145979921D01*
X133233314Y-145979914D01*
X133020085Y-145766685D01*
X133020078Y-145766679D01*
X133020075Y-145766676D01*
X133020070Y-145766672D01*
X132780835Y-145583102D01*
X132780834Y-145583101D01*
X132780831Y-145583099D01*
X132519671Y-145432318D01*
X132519670Y-145432317D01*
X132519664Y-145432314D01*
X132519618Y-145432292D01*
X132518980Y-145432032D01*
X132241058Y-145316912D01*
X132095413Y-145277887D01*
X131949766Y-145238861D01*
X131949760Y-145238860D01*
X131949755Y-145238859D01*
X131654883Y-145200039D01*
X131652867Y-145199705D01*
X131650793Y-145199500D01*
X131650788Y-145199500D01*
X131650783Y-145199500D01*
X131349217Y-145199500D01*
X131349211Y-145199500D01*
X131349206Y-145199500D01*
X131347129Y-145199705D01*
X131345115Y-145200039D01*
X131050243Y-145238859D01*
X131050236Y-145238860D01*
X131050233Y-145238861D01*
X131029136Y-145244514D01*
X130758940Y-145316912D01*
X130481018Y-145432032D01*
X130480388Y-145432288D01*
X130480335Y-145432314D01*
X130480328Y-145432317D01*
X130480328Y-145432318D01*
X130311679Y-145529688D01*
X130219163Y-145583102D01*
X129979928Y-145766672D01*
X129979913Y-145766686D01*
X129979905Y-145766693D01*
X129766693Y-145979905D01*
X129766686Y-145979913D01*
X129766672Y-145979928D01*
X129583102Y-146219163D01*
X129432316Y-146480330D01*
X129432288Y-146480388D01*
X129432032Y-146481018D01*
X129316912Y-146758940D01*
X129306716Y-146796993D01*
X129238862Y-147050232D01*
X129238859Y-147050243D01*
X129199501Y-147349199D01*
X129199500Y-147349228D01*
X125526561Y-147349228D01*
X125602454Y-147200281D01*
X125669358Y-146994369D01*
X125703228Y-146780526D01*
X125703228Y-146564018D01*
X125669358Y-146350175D01*
X125614911Y-146182602D01*
X125608895Y-146147834D01*
X125608524Y-146134877D01*
X125626290Y-146067308D01*
X125677769Y-146020067D01*
X125741315Y-146007663D01*
X125750567Y-146008324D01*
X125780032Y-146014076D01*
X125950175Y-146069358D01*
X126164018Y-146103228D01*
X126164019Y-146103228D01*
X126380525Y-146103228D01*
X126380526Y-146103228D01*
X126594369Y-146069358D01*
X126800281Y-146002454D01*
X126993191Y-145904161D01*
X127168350Y-145776900D01*
X127321444Y-145623806D01*
X127448705Y-145448647D01*
X127546998Y-145255737D01*
X127601628Y-145087598D01*
X127617195Y-145055936D01*
X127624509Y-145045241D01*
X127678598Y-145001015D01*
X127748013Y-144993052D01*
X127806713Y-145020365D01*
X127813808Y-145026338D01*
X127834272Y-145048315D01*
X127855483Y-145077510D01*
X128022490Y-145244517D01*
X128213567Y-145383343D01*
X128309678Y-145432314D01*
X128424003Y-145490566D01*
X128424876Y-145491011D01*
X128428630Y-145492070D01*
X128476335Y-145507569D01*
X128544410Y-145529688D01*
X128544411Y-145529689D01*
X128544412Y-145529689D01*
X128648631Y-145563553D01*
X128881903Y-145600500D01*
X128881908Y-145600500D01*
X129118096Y-145600500D01*
X129118097Y-145600500D01*
X129351368Y-145563553D01*
X129435936Y-145536075D01*
X129575992Y-145490568D01*
X129786433Y-145383343D01*
X129977510Y-145244517D01*
X130144517Y-145077510D01*
X130283343Y-144886433D01*
X130390568Y-144675992D01*
X130463553Y-144451368D01*
X130479825Y-144348631D01*
X130500500Y-144218097D01*
X130500500Y-143981902D01*
X130463553Y-143748631D01*
X130390566Y-143524003D01*
X130304621Y-143355328D01*
X130283343Y-143313567D01*
X130151351Y-143131896D01*
X141949500Y-143131896D01*
X141949500Y-143368102D01*
X141986445Y-143601362D01*
X141986446Y-143601368D01*
X142059433Y-143825996D01*
X142138872Y-143981902D01*
X142166657Y-144036433D01*
X142305483Y-144227510D01*
X142472490Y-144394517D01*
X142663567Y-144533343D01*
X142696502Y-144550124D01*
X142867560Y-144637283D01*
X142869152Y-144638215D01*
X142872865Y-144640014D01*
X142874863Y-144641007D01*
X142878629Y-144642070D01*
X142942327Y-144662766D01*
X142983030Y-144675991D01*
X142983031Y-144675992D01*
X143021565Y-144688512D01*
X143098631Y-144713553D01*
X143331903Y-144750500D01*
X143331908Y-144750500D01*
X143568096Y-144750500D01*
X143568097Y-144750500D01*
X143801368Y-144713553D01*
X144025992Y-144640568D01*
X144236433Y-144533343D01*
X144427510Y-144394517D01*
X144594517Y-144227510D01*
X144733343Y-144036433D01*
X144840568Y-143825992D01*
X144913553Y-143601368D01*
X144925806Y-143524008D01*
X144950500Y-143368097D01*
X144950500Y-143131902D01*
X144913553Y-142898631D01*
X144840566Y-142674003D01*
X144733342Y-142463566D01*
X144729370Y-142458099D01*
X144594517Y-142272490D01*
X144427510Y-142105483D01*
X144236433Y-141966657D01*
X144025996Y-141859433D01*
X143801368Y-141786446D01*
X143801362Y-141786445D01*
X143568102Y-141749500D01*
X143568097Y-141749500D01*
X143568092Y-141749500D01*
X143331908Y-141749500D01*
X143331903Y-141749500D01*
X143331898Y-141749500D01*
X143098636Y-141786445D01*
X143098634Y-141786445D01*
X143098631Y-141786446D01*
X142874003Y-141859433D01*
X142678210Y-141959195D01*
X142663562Y-141966659D01*
X142554549Y-142045861D01*
X142554550Y-142045862D01*
X142484361Y-142096858D01*
X142476980Y-142100991D01*
X142300991Y-142276980D01*
X142296857Y-142284363D01*
X142291750Y-142291390D01*
X142291751Y-142291391D01*
X142166657Y-142463566D01*
X142059433Y-142674003D01*
X141986446Y-142898631D01*
X141986445Y-142898634D01*
X141986445Y-142898636D01*
X141949500Y-143131896D01*
X130151351Y-143131896D01*
X130144517Y-143122490D01*
X129977510Y-142955483D01*
X129786433Y-142816657D01*
X129575996Y-142709433D01*
X129351368Y-142636446D01*
X129351362Y-142636445D01*
X129118102Y-142599500D01*
X129118097Y-142599500D01*
X129118092Y-142599500D01*
X128881908Y-142599500D01*
X128881903Y-142599500D01*
X128881898Y-142599500D01*
X128648636Y-142636445D01*
X128648634Y-142636445D01*
X128648631Y-142636446D01*
X128424003Y-142709433D01*
X128352972Y-142745625D01*
X128213566Y-142816656D01*
X128160901Y-142854921D01*
X128034361Y-142946858D01*
X128026980Y-142950991D01*
X127850991Y-143126980D01*
X127846860Y-143134358D01*
X127799227Y-143199920D01*
X127716657Y-143313566D01*
X127609433Y-143524003D01*
X127600565Y-143551295D01*
X127536446Y-143748630D01*
X127535312Y-143753359D01*
X127534910Y-143753262D01*
X127526132Y-143781646D01*
X127520585Y-143793347D01*
X127474081Y-143845492D01*
X127406767Y-143864217D01*
X127344509Y-143846420D01*
X127336570Y-143841633D01*
X127312918Y-143823124D01*
X127168352Y-143678558D01*
X127168350Y-143678556D01*
X126993191Y-143551295D01*
X126800281Y-143453001D01*
X126800278Y-143453000D01*
X126800277Y-143452999D01*
X126800274Y-143452998D01*
X126800254Y-143452991D01*
X126594372Y-143386098D01*
X126594373Y-143386098D01*
X126400161Y-143355338D01*
X126400159Y-143355337D01*
X126380526Y-143352228D01*
X126164018Y-143352228D01*
X126144381Y-143355337D01*
X126144382Y-143355338D01*
X125950169Y-143386098D01*
X125744288Y-143452991D01*
X125744269Y-143452998D01*
X125744268Y-143452998D01*
X125551348Y-143551297D01*
X125451416Y-143623902D01*
X125388061Y-143669932D01*
X125380686Y-143674062D01*
X125218606Y-143836142D01*
X125214475Y-143843519D01*
X125095843Y-144006802D01*
X125095835Y-144006815D01*
X124997542Y-144199724D01*
X124997542Y-144199725D01*
X124997535Y-144199744D01*
X124930642Y-144405625D01*
X124896772Y-144619474D01*
X124896772Y-144835986D01*
X124930642Y-145049829D01*
X124985086Y-145217392D01*
X124991104Y-145252171D01*
X124991474Y-145265117D01*
X124973708Y-145332690D01*
X124922229Y-145379931D01*
X124858668Y-145392334D01*
X124849422Y-145391672D01*
X124819961Y-145385920D01*
X124742798Y-145360849D01*
X124713329Y-145340699D01*
X124482804Y-145304188D01*
X124435982Y-145296772D01*
X124435981Y-145296772D01*
X124219475Y-145296772D01*
X124219474Y-145296772D01*
X124172652Y-145304188D01*
X124005625Y-145330642D01*
X123799744Y-145397535D01*
X123799725Y-145397542D01*
X123799724Y-145397542D01*
X123606814Y-145495835D01*
X123606808Y-145495839D01*
X123551429Y-145536075D01*
X123443521Y-145614475D01*
X123436140Y-145618608D01*
X123278557Y-145776191D01*
X123234561Y-145836745D01*
X123209963Y-145862055D01*
X123198972Y-145870530D01*
X123133862Y-145895878D01*
X123065386Y-145882003D01*
X123057970Y-145878090D01*
X123019191Y-145846109D01*
X122893127Y-145689278D01*
X122891138Y-145686733D01*
X122889034Y-145683965D01*
X122887091Y-145681333D01*
X122491712Y-145130896D01*
X122489796Y-145128151D01*
X122487906Y-145125364D01*
X122486053Y-145122550D01*
X122481903Y-145116058D01*
X122302883Y-144835981D01*
X122121077Y-144551547D01*
X122119318Y-144548713D01*
X122117567Y-144545804D01*
X122115864Y-144542884D01*
X121829529Y-144036433D01*
X121782278Y-143952858D01*
X121780714Y-143950000D01*
X121779123Y-143946998D01*
X121777605Y-143944038D01*
X121768278Y-143925232D01*
X121476492Y-143336898D01*
X121475045Y-143333879D01*
X121473635Y-143330832D01*
X121472262Y-143327756D01*
X121466158Y-143313566D01*
X121204442Y-142705163D01*
X121203184Y-142702125D01*
X121201919Y-142698950D01*
X121200730Y-142695841D01*
X121180834Y-142641685D01*
X120967017Y-142059680D01*
X120965902Y-142056512D01*
X120964841Y-142053363D01*
X120963812Y-142050167D01*
X120882837Y-141786446D01*
X120764874Y-141402258D01*
X120763933Y-141399038D01*
X120763054Y-141395871D01*
X120762202Y-141392634D01*
X120733090Y-141275573D01*
X120598618Y-140734843D01*
X120597854Y-140731578D01*
X120597139Y-140728325D01*
X120596469Y-140725071D01*
X120588265Y-140682312D01*
X120588265Y-140682311D01*
X120498721Y-140215654D01*
X121200000Y-140215654D01*
X121202899Y-140252487D01*
X121202901Y-140252501D01*
X121202902Y-140252505D01*
X121248707Y-140410165D01*
X121248717Y-140410196D01*
X121248718Y-140410199D01*
X121332310Y-140551546D01*
X121332313Y-140551551D01*
X121332322Y-140551562D01*
X121448436Y-140667676D01*
X121448447Y-140667685D01*
X121448452Y-140667688D01*
X121589799Y-140751280D01*
X121589800Y-140751280D01*
X121589803Y-140751282D01*
X121589806Y-140751283D01*
X121589828Y-140751289D01*
X121589833Y-140751291D01*
X121747493Y-140797096D01*
X121747497Y-140797097D01*
X121747504Y-140797099D01*
X121747510Y-140797100D01*
X121784350Y-140799999D01*
X121784366Y-140800000D01*
X121950000Y-140800000D01*
X122450000Y-140800000D01*
X122615629Y-140800000D01*
X122615634Y-140800000D01*
X122615649Y-140799999D01*
X122652489Y-140797100D01*
X122652495Y-140797099D01*
X122810193Y-140751283D01*
X122810196Y-140751282D01*
X122951552Y-140667685D01*
X122951561Y-140667678D01*
X123067678Y-140551561D01*
X123067685Y-140551552D01*
X123151282Y-140410196D01*
X123151283Y-140410193D01*
X123197099Y-140252495D01*
X123197100Y-140252489D01*
X123199999Y-140215649D01*
X123200000Y-140215634D01*
X123200000Y-138950000D01*
X122450000Y-138950000D01*
X122450000Y-140800000D01*
X121950000Y-140800000D01*
X121950000Y-138950000D01*
X121200000Y-138950000D01*
X121200000Y-140215654D01*
X120498721Y-140215654D01*
X120468757Y-140059497D01*
X120468171Y-140056207D01*
X120467633Y-140052928D01*
X120467132Y-140049591D01*
X120375636Y-139378042D01*
X120375228Y-139374705D01*
X120374868Y-139371394D01*
X120374550Y-139368054D01*
X120369049Y-139300500D01*
X120359280Y-139180518D01*
X120319543Y-138692497D01*
X120319322Y-138689225D01*
X120319139Y-138685865D01*
X120319004Y-138682534D01*
X120318029Y-138646543D01*
X120313199Y-138468216D01*
X120300582Y-138002445D01*
X120300549Y-138000765D01*
X120300527Y-137999100D01*
X120300516Y-137997462D01*
X120300516Y-137927027D01*
X120300513Y-137926869D01*
X120300513Y-137184350D01*
X121200000Y-137184350D01*
X121200000Y-138450000D01*
X121950000Y-138450000D01*
X122450000Y-138450000D01*
X123200000Y-138450000D01*
X123200000Y-137184365D01*
X123199999Y-137184350D01*
X123197100Y-137147510D01*
X123197099Y-137147504D01*
X123157633Y-137011664D01*
X123151291Y-136989833D01*
X123151289Y-136989828D01*
X123151283Y-136989806D01*
X123151282Y-136989803D01*
X123144589Y-136978486D01*
X123067688Y-136848452D01*
X123067685Y-136848447D01*
X123067676Y-136848436D01*
X122951562Y-136732322D01*
X122951551Y-136732313D01*
X122951541Y-136732307D01*
X122810199Y-136648718D01*
X122810196Y-136648717D01*
X122810165Y-136648707D01*
X122652505Y-136602902D01*
X122652501Y-136602901D01*
X122652495Y-136602900D01*
X122652489Y-136602899D01*
X122641963Y-136602070D01*
X122615654Y-136600000D01*
X122615649Y-136600000D01*
X122450000Y-136600000D01*
X122450000Y-138450000D01*
X121950000Y-138450000D01*
X121950000Y-136600000D01*
X121784344Y-136600000D01*
X121752772Y-136602484D01*
X121747510Y-136602899D01*
X121747504Y-136602900D01*
X121747497Y-136602901D01*
X121747493Y-136602902D01*
X121589833Y-136648707D01*
X121589802Y-136648717D01*
X121589799Y-136648718D01*
X121448458Y-136732307D01*
X121448447Y-136732313D01*
X121448436Y-136732322D01*
X121332322Y-136848436D01*
X121332313Y-136848447D01*
X121332310Y-136848452D01*
X121248718Y-136989799D01*
X121248717Y-136989802D01*
X121248707Y-136989833D01*
X121202902Y-137147493D01*
X121202901Y-137147497D01*
X121202899Y-137147511D01*
X121200192Y-137181914D01*
X121200000Y-137184350D01*
X120300513Y-137184350D01*
X120300511Y-133615654D01*
X121200000Y-133615654D01*
X121202899Y-133652487D01*
X121202901Y-133652501D01*
X121202902Y-133652505D01*
X121248707Y-133810165D01*
X121248717Y-133810196D01*
X121248718Y-133810199D01*
X121332310Y-133951546D01*
X121332313Y-133951551D01*
X121332322Y-133951562D01*
X121448436Y-134067676D01*
X121448447Y-134067685D01*
X121448452Y-134067688D01*
X121589799Y-134151280D01*
X121589800Y-134151280D01*
X121589803Y-134151282D01*
X121589806Y-134151283D01*
X121589828Y-134151289D01*
X121589833Y-134151291D01*
X121747493Y-134197096D01*
X121747497Y-134197097D01*
X121747504Y-134197099D01*
X121747510Y-134197100D01*
X121784350Y-134199999D01*
X121784366Y-134200000D01*
X121950000Y-134200000D01*
X122450000Y-134200000D01*
X122615629Y-134200000D01*
X122615634Y-134200000D01*
X122615649Y-134199999D01*
X122652489Y-134197100D01*
X122652495Y-134197099D01*
X122810193Y-134151283D01*
X122810196Y-134151282D01*
X122951552Y-134067685D01*
X122951561Y-134067678D01*
X123067678Y-133951561D01*
X123067685Y-133951552D01*
X123151282Y-133810196D01*
X123151283Y-133810193D01*
X123197099Y-133652495D01*
X123197100Y-133652489D01*
X123199999Y-133615649D01*
X123200000Y-133615634D01*
X123200000Y-132350000D01*
X122450000Y-132350000D01*
X122450000Y-134200000D01*
X121950000Y-134200000D01*
X121950000Y-132350000D01*
X121200000Y-132350000D01*
X121200000Y-133615654D01*
X120300511Y-133615654D01*
X120300510Y-130584350D01*
X121200000Y-130584350D01*
X121200000Y-131850000D01*
X121950000Y-131850000D01*
X122450000Y-131850000D01*
X123200000Y-131850000D01*
X123200000Y-130584365D01*
X123199999Y-130584350D01*
X123197100Y-130547510D01*
X123197099Y-130547504D01*
X123195424Y-130541740D01*
X123151291Y-130389833D01*
X123151289Y-130389828D01*
X123151283Y-130389806D01*
X123151282Y-130389803D01*
X123138511Y-130368209D01*
X123067688Y-130248452D01*
X123067685Y-130248447D01*
X123067676Y-130248436D01*
X122951562Y-130132322D01*
X122951551Y-130132313D01*
X122951541Y-130132307D01*
X122810199Y-130048718D01*
X122810196Y-130048717D01*
X122810165Y-130048707D01*
X122652505Y-130002902D01*
X122652501Y-130002901D01*
X122652495Y-130002900D01*
X122652489Y-130002899D01*
X122641963Y-130002070D01*
X122615654Y-130000000D01*
X122615649Y-130000000D01*
X122450000Y-130000000D01*
X122450000Y-131850000D01*
X121950000Y-131850000D01*
X121950000Y-130000000D01*
X121784344Y-130000000D01*
X121752772Y-130002484D01*
X121747510Y-130002899D01*
X121747504Y-130002900D01*
X121747497Y-130002901D01*
X121747493Y-130002902D01*
X121589833Y-130048707D01*
X121589802Y-130048717D01*
X121589799Y-130048718D01*
X121448458Y-130132307D01*
X121448447Y-130132313D01*
X121448436Y-130132322D01*
X121332322Y-130248436D01*
X121332313Y-130248447D01*
X121332310Y-130248452D01*
X121248718Y-130389799D01*
X121248717Y-130389802D01*
X121248707Y-130389833D01*
X121202902Y-130547493D01*
X121202901Y-130547497D01*
X121202899Y-130547511D01*
X121200192Y-130581915D01*
X121200000Y-130584350D01*
X120300510Y-130584350D01*
X120300505Y-114935287D01*
X120300504Y-112415654D01*
X121200000Y-112415654D01*
X121202899Y-112452487D01*
X121202901Y-112452501D01*
X121202902Y-112452505D01*
X121248707Y-112610165D01*
X121248717Y-112610196D01*
X121248718Y-112610199D01*
X121332310Y-112751546D01*
X121332313Y-112751551D01*
X121332322Y-112751562D01*
X121448436Y-112867676D01*
X121448447Y-112867685D01*
X121448452Y-112867688D01*
X121589799Y-112951280D01*
X121589800Y-112951280D01*
X121589803Y-112951282D01*
X121589806Y-112951283D01*
X121589828Y-112951289D01*
X121589833Y-112951291D01*
X121747493Y-112997096D01*
X121747497Y-112997097D01*
X121747504Y-112997099D01*
X121747510Y-112997100D01*
X121784350Y-112999999D01*
X121784366Y-113000000D01*
X121950000Y-113000000D01*
X121950000Y-111150000D01*
X121200000Y-111150000D01*
X121200000Y-112415654D01*
X120300504Y-112415654D01*
X120300503Y-111098638D01*
X120300502Y-109384350D01*
X121200000Y-109384350D01*
X121200000Y-110650000D01*
X121950000Y-110650000D01*
X122450000Y-110650000D01*
X123200000Y-110650000D01*
X123200000Y-109384365D01*
X123199999Y-109384350D01*
X123197100Y-109347510D01*
X123197099Y-109347504D01*
X123157633Y-109211664D01*
X123151291Y-109189833D01*
X123151289Y-109189828D01*
X123151283Y-109189806D01*
X123151282Y-109189803D01*
X123111155Y-109121952D01*
X123067688Y-109048452D01*
X123067685Y-109048447D01*
X123067676Y-109048436D01*
X122951562Y-108932322D01*
X122951551Y-108932313D01*
X122951541Y-108932307D01*
X122810199Y-108848718D01*
X122810196Y-108848717D01*
X122810165Y-108848707D01*
X122652505Y-108802902D01*
X122652501Y-108802901D01*
X122652495Y-108802900D01*
X122652489Y-108802899D01*
X122641963Y-108802070D01*
X122615654Y-108800000D01*
X122615649Y-108800000D01*
X122450000Y-108800000D01*
X122450000Y-110650000D01*
X121950000Y-110650000D01*
X121950000Y-108800000D01*
X121784344Y-108800000D01*
X121752772Y-108802484D01*
X121747510Y-108802899D01*
X121747504Y-108802900D01*
X121747497Y-108802901D01*
X121747493Y-108802902D01*
X121589833Y-108848707D01*
X121589802Y-108848717D01*
X121589799Y-108848718D01*
X121448458Y-108932307D01*
X121448447Y-108932313D01*
X121448436Y-108932322D01*
X121332322Y-109048436D01*
X121332313Y-109048447D01*
X121332310Y-109048452D01*
X121248718Y-109189799D01*
X121248717Y-109189802D01*
X121248707Y-109189833D01*
X121202902Y-109347493D01*
X121202901Y-109347497D01*
X121202899Y-109347511D01*
X121200192Y-109381914D01*
X121200000Y-109384350D01*
X120300502Y-109384350D01*
X120300502Y-109381923D01*
X120300500Y-105815654D01*
X121200000Y-105815654D01*
X121202899Y-105852487D01*
X121202901Y-105852501D01*
X121202902Y-105852505D01*
X121248707Y-106010165D01*
X121248717Y-106010196D01*
X121248718Y-106010199D01*
X121332310Y-106151546D01*
X121332313Y-106151551D01*
X121332322Y-106151562D01*
X121448436Y-106267676D01*
X121448447Y-106267685D01*
X121448452Y-106267688D01*
X121589799Y-106351280D01*
X121589800Y-106351280D01*
X121589803Y-106351282D01*
X121589806Y-106351283D01*
X121589828Y-106351289D01*
X121589833Y-106351291D01*
X121747493Y-106397096D01*
X121747497Y-106397097D01*
X121747504Y-106397099D01*
X121747510Y-106397100D01*
X121784350Y-106399999D01*
X121784366Y-106400000D01*
X121950000Y-106400000D01*
X122450000Y-106400000D01*
X122615629Y-106400000D01*
X122615634Y-106400000D01*
X122615649Y-106399999D01*
X122652489Y-106397100D01*
X122652495Y-106397099D01*
X122810193Y-106351283D01*
X122810196Y-106351282D01*
X122951552Y-106267685D01*
X122951561Y-106267678D01*
X123067678Y-106151561D01*
X123067685Y-106151552D01*
X123151282Y-106010196D01*
X123151283Y-106010193D01*
X123197099Y-105852495D01*
X123197100Y-105852489D01*
X123199999Y-105815649D01*
X123200000Y-105815634D01*
X123200000Y-104550000D01*
X122450000Y-104550000D01*
X122450000Y-106400000D01*
X121950000Y-106400000D01*
X121950000Y-104550000D01*
X121200000Y-104550000D01*
X121200000Y-105815654D01*
X120300500Y-105815654D01*
X120300500Y-105002535D01*
X120300511Y-105000898D01*
X120300533Y-104999233D01*
X120300567Y-104997513D01*
X120301103Y-104977748D01*
X120306622Y-104774003D01*
X120318990Y-104317399D01*
X120319122Y-104314175D01*
X120319311Y-104310702D01*
X120319527Y-104307513D01*
X120339140Y-104066657D01*
X120374538Y-103631924D01*
X120374849Y-103628656D01*
X120375222Y-103625227D01*
X120375622Y-103621968D01*
X120413722Y-103342330D01*
X120467127Y-102950359D01*
X120467622Y-102947067D01*
X120468158Y-102943800D01*
X120468744Y-102940509D01*
X120481828Y-102872325D01*
X120498709Y-102784350D01*
X121200000Y-102784350D01*
X121200000Y-104050000D01*
X121950000Y-104050000D01*
X122450000Y-104050000D01*
X123200000Y-104050000D01*
X123200000Y-102784365D01*
X123199999Y-102784350D01*
X123197100Y-102747510D01*
X123197099Y-102747504D01*
X123157633Y-102611664D01*
X123151291Y-102589833D01*
X123151289Y-102589828D01*
X123151283Y-102589806D01*
X123151282Y-102589803D01*
X123111155Y-102521952D01*
X123067688Y-102448452D01*
X123067685Y-102448447D01*
X123067676Y-102448436D01*
X122951562Y-102332322D01*
X122951551Y-102332313D01*
X122951541Y-102332307D01*
X122810199Y-102248718D01*
X122810196Y-102248717D01*
X122810165Y-102248707D01*
X122652505Y-102202902D01*
X122652501Y-102202901D01*
X122652495Y-102202900D01*
X122652489Y-102202899D01*
X122641963Y-102202070D01*
X122615654Y-102200000D01*
X122615649Y-102200000D01*
X122450000Y-102200000D01*
X122450000Y-104050000D01*
X121950000Y-104050000D01*
X121950000Y-102200000D01*
X121784344Y-102200000D01*
X121752772Y-102202484D01*
X121747510Y-102202899D01*
X121747504Y-102202900D01*
X121747497Y-102202901D01*
X121747493Y-102202902D01*
X121589833Y-102248707D01*
X121589802Y-102248717D01*
X121589799Y-102248718D01*
X121448458Y-102332307D01*
X121448447Y-102332313D01*
X121448436Y-102332322D01*
X121332322Y-102448436D01*
X121332313Y-102448447D01*
X121332310Y-102448452D01*
X121248718Y-102589799D01*
X121248717Y-102589802D01*
X121248707Y-102589833D01*
X121202902Y-102747493D01*
X121202901Y-102747497D01*
X121202900Y-102747504D01*
X121202899Y-102747510D01*
X121200000Y-102784350D01*
X120498709Y-102784350D01*
X120596462Y-102274902D01*
X120597120Y-102271701D01*
X120597862Y-102268331D01*
X120598599Y-102265185D01*
X120762211Y-101607290D01*
X120763031Y-101604176D01*
X120763942Y-101600895D01*
X120764868Y-101597730D01*
X120768574Y-101585662D01*
X120963814Y-100949798D01*
X120964836Y-100946624D01*
X120965894Y-100943484D01*
X120966982Y-100940390D01*
X121200752Y-100304076D01*
X121201918Y-100301030D01*
X121203176Y-100297875D01*
X121204440Y-100294826D01*
X121305093Y-100060843D01*
X121472263Y-99672225D01*
X121473618Y-99669190D01*
X121475019Y-99666160D01*
X121476458Y-99663155D01*
X121777600Y-99055958D01*
X121779127Y-99052982D01*
X121779272Y-99052707D01*
X121780733Y-99049953D01*
X121782289Y-99047112D01*
X122115871Y-98457095D01*
X122117537Y-98454238D01*
X122119308Y-98451294D01*
X122121027Y-98448523D01*
X122407941Y-97999651D01*
X122471956Y-97899500D01*
X122486071Y-97877417D01*
X122487899Y-97874638D01*
X122489775Y-97871872D01*
X122491676Y-97869149D01*
X122502375Y-97854254D01*
X122887116Y-97318624D01*
X122889047Y-97316011D01*
X122891110Y-97313296D01*
X122893093Y-97310759D01*
X123015954Y-97157913D01*
X123041752Y-97133835D01*
X123053143Y-97125906D01*
X123119410Y-97103764D01*
X123187116Y-97120955D01*
X123194337Y-97125228D01*
X123231517Y-97159064D01*
X123274575Y-97218326D01*
X123278556Y-97223806D01*
X123431650Y-97376900D01*
X123606809Y-97504161D01*
X123697750Y-97550498D01*
X123799718Y-97602454D01*
X123799721Y-97602455D01*
X123902675Y-97635906D01*
X124005631Y-97669358D01*
X124219474Y-97703228D01*
X124219475Y-97703228D01*
X124332670Y-97703228D01*
X124367606Y-97708251D01*
X124382604Y-97712655D01*
X124441355Y-97750400D01*
X124442542Y-97751769D01*
X124470018Y-97806630D01*
X124471663Y-97814188D01*
X124474500Y-97840559D01*
X124474500Y-99346142D01*
X124498382Y-99435273D01*
X124498387Y-99435290D01*
X124498389Y-99435295D01*
X124544526Y-99515207D01*
X124544527Y-99515208D01*
X124544532Y-99515214D01*
X124544538Y-99515221D01*
X125800573Y-100771255D01*
X125821723Y-100799507D01*
X125834331Y-100822596D01*
X125849500Y-100882025D01*
X125849500Y-102320851D01*
X125844475Y-102355795D01*
X125840070Y-102370793D01*
X125802299Y-102429561D01*
X125797317Y-102433878D01*
X125735598Y-102462626D01*
X125735069Y-102462710D01*
X125734422Y-102462812D01*
X125729487Y-102463202D01*
X125724699Y-102464351D01*
X125669295Y-102492581D01*
X125669294Y-102492580D01*
X125611653Y-102521952D01*
X125611650Y-102521954D01*
X125521955Y-102611649D01*
X125521946Y-102611664D01*
X125464353Y-102724695D01*
X125464350Y-102724703D01*
X125449500Y-102818469D01*
X125449500Y-102818475D01*
X125449500Y-105781517D01*
X125454904Y-105815634D01*
X125464354Y-105875304D01*
X125521950Y-105988342D01*
X125521952Y-105988344D01*
X125521954Y-105988347D01*
X125611652Y-106078045D01*
X125611654Y-106078046D01*
X125611658Y-106078050D01*
X125672837Y-106109222D01*
X125724691Y-106135644D01*
X125724692Y-106135644D01*
X125724696Y-106135646D01*
X125727285Y-106136056D01*
X125761006Y-106146482D01*
X125775131Y-106153178D01*
X125827272Y-106199674D01*
X125830757Y-106205270D01*
X125849500Y-106270821D01*
X125849500Y-108920851D01*
X125844475Y-108955795D01*
X125840070Y-108970793D01*
X125802299Y-109029561D01*
X125797317Y-109033878D01*
X125735598Y-109062626D01*
X125735069Y-109062710D01*
X125734422Y-109062812D01*
X125729487Y-109063202D01*
X125724699Y-109064351D01*
X125669295Y-109092581D01*
X125669294Y-109092580D01*
X125611653Y-109121952D01*
X125611650Y-109121954D01*
X125521955Y-109211649D01*
X125521946Y-109211664D01*
X125464353Y-109324695D01*
X125464350Y-109324703D01*
X125449500Y-109418469D01*
X125449500Y-112381521D01*
X125458630Y-112439167D01*
X125458955Y-112441344D01*
X125465121Y-112485312D01*
X125464321Y-112485572D01*
X125467627Y-112503182D01*
X125468027Y-112506033D01*
X125463337Y-112537867D01*
X125460123Y-112569895D01*
X125458276Y-112572219D01*
X125457844Y-112575156D01*
X125436688Y-112599400D01*
X125416668Y-112624607D01*
X125416644Y-112624624D01*
X125413913Y-112626548D01*
X125412490Y-112627131D01*
X125411906Y-112627801D01*
X125408326Y-112628838D01*
X125362802Y-112647504D01*
X125360862Y-112647826D01*
X125340558Y-112649500D01*
X123322846Y-112649500D01*
X123287907Y-112644476D01*
X123274589Y-112640565D01*
X123215812Y-112602789D01*
X123186790Y-112539232D01*
X123186789Y-112539227D01*
X123185672Y-112531454D01*
X123189335Y-112479221D01*
X123197096Y-112452505D01*
X123197097Y-112452501D01*
X123197099Y-112452495D01*
X123197100Y-112452489D01*
X123199999Y-112415649D01*
X123200000Y-112415634D01*
X123200000Y-111150000D01*
X122450000Y-111150000D01*
X122450000Y-113008748D01*
X122455514Y-113018846D01*
X122470366Y-113087107D01*
X122470237Y-113088913D01*
X122450869Y-113147116D01*
X122446688Y-113153622D01*
X122430052Y-113174265D01*
X121469533Y-114134782D01*
X121469531Y-114134786D01*
X121469519Y-114134805D01*
X121444736Y-114177734D01*
X121444732Y-114177740D01*
X121423390Y-114214702D01*
X121423387Y-114214708D01*
X121423383Y-114214719D01*
X121399500Y-114303856D01*
X121399500Y-124296146D01*
X121417144Y-124361997D01*
X121423379Y-124385267D01*
X121423383Y-124385278D01*
X121423385Y-124385285D01*
X121423387Y-124385290D01*
X121469527Y-124465208D01*
X121469529Y-124465211D01*
X121469530Y-124465212D01*
X123653818Y-126649500D01*
X124732870Y-127728552D01*
X125800573Y-128796254D01*
X125821723Y-128824506D01*
X125834331Y-128847595D01*
X125849500Y-128907024D01*
X125849500Y-130120851D01*
X125844475Y-130155795D01*
X125840070Y-130170793D01*
X125802299Y-130229561D01*
X125797317Y-130233878D01*
X125735598Y-130262626D01*
X125735069Y-130262710D01*
X125734422Y-130262812D01*
X125729483Y-130263202D01*
X125724697Y-130264351D01*
X125673913Y-130290228D01*
X125673793Y-130290290D01*
X125673464Y-130290458D01*
X125611658Y-130321950D01*
X125611657Y-130321951D01*
X125611652Y-130321954D01*
X125610332Y-130323273D01*
X125610328Y-130323276D01*
X125521954Y-130411650D01*
X125521950Y-130411658D01*
X125514585Y-130426114D01*
X125509911Y-130435287D01*
X125509910Y-130435288D01*
X125464352Y-130524696D01*
X125464350Y-130524703D01*
X125449500Y-130618469D01*
X125449500Y-130618475D01*
X125449500Y-133581517D01*
X125454904Y-133615634D01*
X125464354Y-133675304D01*
X125521950Y-133788342D01*
X125521952Y-133788344D01*
X125521954Y-133788347D01*
X125611652Y-133878045D01*
X125611654Y-133878046D01*
X125611658Y-133878050D01*
X125672837Y-133909222D01*
X125724691Y-133935644D01*
X125724692Y-133935644D01*
X125724696Y-133935646D01*
X125727285Y-133936056D01*
X125761006Y-133946482D01*
X125775131Y-133953178D01*
X125827272Y-133999674D01*
X125830757Y-134005270D01*
X125849500Y-134070821D01*
X125849500Y-136720851D01*
X125844475Y-136755795D01*
X125840070Y-136770793D01*
X125802299Y-136829561D01*
X125797317Y-136833878D01*
X125735598Y-136862626D01*
X125735069Y-136862710D01*
X125734422Y-136862812D01*
X125729487Y-136863202D01*
X125724699Y-136864351D01*
X125669295Y-136892581D01*
X125669294Y-136892580D01*
X125611653Y-136921952D01*
X125611650Y-136921954D01*
X125521955Y-137011649D01*
X125521946Y-137011664D01*
X125464353Y-137124695D01*
X125464350Y-137124703D01*
X125449500Y-137218469D01*
X125449500Y-137218475D01*
X125449500Y-140181517D01*
X125453062Y-140204005D01*
X125453062Y-140204017D01*
X125464352Y-140275299D01*
X125464352Y-140275300D01*
X125464353Y-140275303D01*
X125464354Y-140275304D01*
X125521950Y-140388342D01*
X125521952Y-140388344D01*
X125521954Y-140388347D01*
X125611652Y-140478045D01*
X125611654Y-140478046D01*
X125611658Y-140478050D01*
X125724694Y-140535645D01*
X125724698Y-140535647D01*
X125818220Y-140550458D01*
X125818457Y-140550497D01*
X125818466Y-140550497D01*
X125818475Y-140550499D01*
X125818481Y-140550500D01*
X126581518Y-140550499D01*
X126675304Y-140535646D01*
X126788342Y-140478050D01*
X126878050Y-140388342D01*
X126935646Y-140275304D01*
X126935646Y-140275302D01*
X126935647Y-140275301D01*
X126935648Y-140275294D01*
X126936785Y-140270560D01*
X126936785Y-140270558D01*
X126936789Y-140270539D01*
X126937173Y-140265668D01*
X126950111Y-140183979D01*
X126950437Y-140182154D01*
X126950499Y-140181523D01*
X126950500Y-140181519D01*
X126950499Y-137218482D01*
X126935646Y-137124696D01*
X126878050Y-137011658D01*
X126878046Y-137011654D01*
X126878045Y-137011652D01*
X126788347Y-136921954D01*
X126788344Y-136921952D01*
X126788342Y-136921950D01*
X126675304Y-136864354D01*
X126675302Y-136864353D01*
X126675300Y-136864352D01*
X126661277Y-136861042D01*
X126636645Y-136852404D01*
X126624861Y-136846817D01*
X126572719Y-136800312D01*
X126569236Y-136794718D01*
X126550500Y-136729178D01*
X126550500Y-134079147D01*
X126555523Y-134044211D01*
X126559927Y-134029213D01*
X126597690Y-133970446D01*
X126599619Y-133968774D01*
X126602674Y-133966127D01*
X126664491Y-133937358D01*
X126675304Y-133935646D01*
X126788342Y-133878050D01*
X126878050Y-133788342D01*
X126935646Y-133675304D01*
X126935646Y-133675302D01*
X126935647Y-133675301D01*
X126935648Y-133675294D01*
X126936785Y-133670560D01*
X126936785Y-133670558D01*
X126936789Y-133670539D01*
X126937173Y-133665668D01*
X126950111Y-133583979D01*
X126950437Y-133582154D01*
X126950499Y-133581523D01*
X126950500Y-133581519D01*
X126950499Y-130618482D01*
X126935646Y-130524696D01*
X126878050Y-130411658D01*
X126878046Y-130411654D01*
X126878045Y-130411652D01*
X126788347Y-130321954D01*
X126788344Y-130321952D01*
X126788342Y-130321950D01*
X126675304Y-130264354D01*
X126675302Y-130264353D01*
X126675300Y-130264352D01*
X126661277Y-130261042D01*
X126636645Y-130252404D01*
X126624861Y-130246817D01*
X126572719Y-130200312D01*
X126569236Y-130194718D01*
X126550500Y-130129178D01*
X126550500Y-128653858D01*
X126550500Y-128653856D01*
X126526614Y-128564712D01*
X126526611Y-128564706D01*
X126480473Y-128484794D01*
X126480470Y-128484791D01*
X126480469Y-128484788D01*
X126415212Y-128419531D01*
X124280966Y-126285285D01*
X122149426Y-124153744D01*
X122128274Y-124125488D01*
X122115667Y-124102399D01*
X122100500Y-124042974D01*
X122100500Y-114564372D01*
X122105522Y-114529439D01*
X122112934Y-114504194D01*
X122144228Y-114451452D01*
X123196257Y-113399423D01*
X123224507Y-113378275D01*
X123247599Y-113365667D01*
X123307024Y-113350500D01*
X125746142Y-113350500D01*
X125746144Y-113350500D01*
X125835288Y-113326614D01*
X125915212Y-113280470D01*
X126396261Y-112799418D01*
X126424512Y-112778272D01*
X126447602Y-112765665D01*
X126507025Y-112750499D01*
X126581517Y-112750499D01*
X126581518Y-112750499D01*
X126675304Y-112735646D01*
X126788342Y-112678050D01*
X126878050Y-112588342D01*
X126935646Y-112475304D01*
X126935646Y-112475302D01*
X126935647Y-112475301D01*
X126935648Y-112475294D01*
X126936785Y-112470560D01*
X126936785Y-112470558D01*
X126936789Y-112470539D01*
X126937173Y-112465668D01*
X126950111Y-112383979D01*
X126950437Y-112382154D01*
X126950499Y-112381523D01*
X126950500Y-112381519D01*
X126950499Y-109418482D01*
X126935646Y-109324696D01*
X126878050Y-109211658D01*
X126878046Y-109211654D01*
X126878045Y-109211652D01*
X126788347Y-109121954D01*
X126788344Y-109121952D01*
X126788342Y-109121950D01*
X126675304Y-109064354D01*
X126675302Y-109064353D01*
X126675300Y-109064352D01*
X126661277Y-109061042D01*
X126636645Y-109052404D01*
X126624861Y-109046817D01*
X126572719Y-109000312D01*
X126569236Y-108994718D01*
X126550500Y-108929178D01*
X126550500Y-106279147D01*
X126555523Y-106244211D01*
X126559927Y-106229213D01*
X126597690Y-106170446D01*
X126599619Y-106168774D01*
X126602674Y-106166127D01*
X126664491Y-106137358D01*
X126675304Y-106135646D01*
X126788342Y-106078050D01*
X126878050Y-105988342D01*
X126935646Y-105875304D01*
X126935646Y-105875302D01*
X126935647Y-105875301D01*
X126935648Y-105875294D01*
X126936785Y-105870560D01*
X126936785Y-105870558D01*
X126936789Y-105870539D01*
X126937173Y-105865668D01*
X126950111Y-105783979D01*
X126950437Y-105782154D01*
X126950499Y-105781523D01*
X126950500Y-105781519D01*
X126950499Y-102818482D01*
X126935646Y-102724696D01*
X126878050Y-102611658D01*
X126878046Y-102611654D01*
X126878045Y-102611652D01*
X126788347Y-102521954D01*
X126788344Y-102521952D01*
X126788342Y-102521950D01*
X126675304Y-102464354D01*
X126675302Y-102464353D01*
X126675300Y-102464352D01*
X126661277Y-102461042D01*
X126636645Y-102452404D01*
X126624861Y-102446817D01*
X126572719Y-102400312D01*
X126569236Y-102394718D01*
X126550500Y-102329178D01*
X126550500Y-100628858D01*
X126550500Y-100628856D01*
X126526614Y-100539712D01*
X126503975Y-100500500D01*
X126480470Y-100459788D01*
X125857654Y-99836972D01*
X125824451Y-99776915D01*
X125824153Y-99775614D01*
X125818744Y-99765703D01*
X125823739Y-99696013D01*
X125865619Y-99640085D01*
X125896595Y-99623177D01*
X125899503Y-99622093D01*
X125962215Y-99615808D01*
X126164018Y-99647772D01*
X126164019Y-99647772D01*
X126380525Y-99647772D01*
X126380526Y-99647772D01*
X126594369Y-99613902D01*
X126800281Y-99546998D01*
X126993191Y-99448705D01*
X127138195Y-99343352D01*
X127169400Y-99326886D01*
X127181598Y-99322533D01*
X127251352Y-99318542D01*
X127312192Y-99352897D01*
X127343634Y-99409511D01*
X127345863Y-99418511D01*
X127349500Y-99448321D01*
X127349500Y-113557531D01*
X127344475Y-113592475D01*
X127340070Y-113607473D01*
X127302338Y-113666207D01*
X127300997Y-113667370D01*
X127246047Y-113694872D01*
X127238424Y-113696526D01*
X127211993Y-113699346D01*
X123802524Y-113695565D01*
X123802520Y-113695565D01*
X123755391Y-113695511D01*
X123754612Y-113695451D01*
X123745508Y-113695451D01*
X123698371Y-113695451D01*
X123698369Y-113695451D01*
X123651098Y-113695398D01*
X123650292Y-113695451D01*
X123630247Y-113695451D01*
X123630241Y-113695451D01*
X123498340Y-113725556D01*
X123498334Y-113725558D01*
X123498323Y-113725562D01*
X123376406Y-113784275D01*
X123270607Y-113868644D01*
X123186238Y-113974443D01*
X123127525Y-114096360D01*
X123127521Y-114096371D01*
X123127519Y-114096377D01*
X123097414Y-114228278D01*
X123097414Y-123663622D01*
X123127519Y-123795523D01*
X123127521Y-123795529D01*
X123127525Y-123795540D01*
X123186237Y-123917455D01*
X123188250Y-123920293D01*
X123188253Y-123920296D01*
X123190564Y-123922882D01*
X123191309Y-123923816D01*
X123191318Y-123923828D01*
X123270601Y-124023248D01*
X123270605Y-124023253D01*
X123270606Y-124023254D01*
X123270608Y-124023256D01*
X123308479Y-124053456D01*
X123376407Y-124107626D01*
X123376408Y-124107626D01*
X123376409Y-124107627D01*
X123393353Y-124115787D01*
X123480636Y-124157821D01*
X123490552Y-124162596D01*
X123490551Y-124162596D01*
X123498328Y-124166341D01*
X123517725Y-124170768D01*
X123630247Y-124196450D01*
X123630252Y-124196450D01*
X123630254Y-124196451D01*
X123630256Y-124196451D01*
X123697300Y-124196451D01*
X126867361Y-124199680D01*
X126868094Y-124199740D01*
X126877404Y-124199740D01*
X126924998Y-124199740D01*
X126925000Y-124199740D01*
X126964254Y-124199780D01*
X126964256Y-124199779D01*
X126971885Y-124199787D01*
X126972617Y-124199740D01*
X126992656Y-124199740D01*
X126992658Y-124199740D01*
X126992664Y-124199740D01*
X126992917Y-124199681D01*
X127094697Y-124176451D01*
X127119597Y-124170768D01*
X127120624Y-124170533D01*
X127124578Y-124169631D01*
X127124578Y-124169630D01*
X127124581Y-124169629D01*
X127124586Y-124169629D01*
X127124587Y-124169628D01*
X127124961Y-124169543D01*
X127127692Y-124168133D01*
X127131416Y-124166340D01*
X127246505Y-124110915D01*
X127352303Y-124026545D01*
X127436673Y-123920747D01*
X127495387Y-123798828D01*
X127512850Y-123722317D01*
X127525497Y-123666906D01*
X127525498Y-123666898D01*
X127525498Y-121541601D01*
X127530521Y-121506665D01*
X127534925Y-121491667D01*
X127572696Y-121432893D01*
X127574060Y-121431711D01*
X127628914Y-121404253D01*
X127636490Y-121402606D01*
X127662863Y-121399775D01*
X130360397Y-121400489D01*
X130360438Y-121400500D01*
X130401609Y-121400500D01*
X130439482Y-121400510D01*
X130439483Y-121400509D01*
X130448909Y-121400512D01*
X130449784Y-121400500D01*
X131239152Y-121400500D01*
X131239157Y-121400500D01*
X131297377Y-121393430D01*
X131515435Y-121366954D01*
X131785657Y-121300350D01*
X132045881Y-121201661D01*
X132292311Y-121072324D01*
X132521355Y-120914226D01*
X132729673Y-120729673D01*
X132889533Y-120549228D01*
X134999500Y-120549228D01*
X134999500Y-120850770D01*
X134999501Y-120850799D01*
X135038859Y-121149755D01*
X135038860Y-121149760D01*
X135038861Y-121149766D01*
X135077887Y-121295413D01*
X135116912Y-121441058D01*
X135161116Y-121547775D01*
X135224407Y-121700573D01*
X135232032Y-121718980D01*
X135232292Y-121719618D01*
X135232316Y-121719668D01*
X135249540Y-121749500D01*
X135383099Y-121980831D01*
X135383100Y-121980832D01*
X135383102Y-121980835D01*
X135566672Y-122220070D01*
X135566676Y-122220075D01*
X135566679Y-122220078D01*
X135566685Y-122220085D01*
X135779914Y-122433314D01*
X135779921Y-122433320D01*
X135779924Y-122433322D01*
X135779928Y-122433326D01*
X135847595Y-122485248D01*
X136019168Y-122616900D01*
X136276899Y-122765701D01*
X136282093Y-122768701D01*
X136282095Y-122768702D01*
X136282683Y-122769042D01*
X136287828Y-122770787D01*
X136466072Y-122844619D01*
X136466071Y-122844619D01*
X136526217Y-122869532D01*
X136558939Y-122883086D01*
X136558940Y-122883086D01*
X136558942Y-122883087D01*
X136558944Y-122883087D01*
X136559691Y-122883397D01*
X136562842Y-122884132D01*
X136850232Y-122961138D01*
X137149217Y-123000500D01*
X137149224Y-123000500D01*
X137450776Y-123000500D01*
X137450783Y-123000500D01*
X137749768Y-122961138D01*
X138041058Y-122883087D01*
X138319668Y-122767683D01*
X138580832Y-122616900D01*
X138820080Y-122433319D01*
X139033319Y-122220080D01*
X139216900Y-121980832D01*
X139367683Y-121719668D01*
X139483087Y-121441058D01*
X139561138Y-121149768D01*
X139600500Y-120850783D01*
X139600500Y-120549217D01*
X139561138Y-120250232D01*
X139483087Y-119958942D01*
X139367683Y-119680332D01*
X139309066Y-119578805D01*
X139216900Y-119419168D01*
X139201519Y-119399123D01*
X139033326Y-119179928D01*
X139033322Y-119179924D01*
X139033320Y-119179921D01*
X139033314Y-119179914D01*
X138820085Y-118966685D01*
X138820078Y-118966679D01*
X138820075Y-118966676D01*
X138820070Y-118966672D01*
X138580835Y-118783102D01*
X138580834Y-118783101D01*
X138580831Y-118783099D01*
X138319671Y-118632318D01*
X138319672Y-118632318D01*
X138319668Y-118632316D01*
X138319618Y-118632292D01*
X138318980Y-118632032D01*
X138041058Y-118516912D01*
X137895379Y-118477878D01*
X137749766Y-118438861D01*
X137749760Y-118438860D01*
X137749755Y-118438859D01*
X137454883Y-118400039D01*
X137452867Y-118399705D01*
X137450793Y-118399500D01*
X137450788Y-118399500D01*
X137450783Y-118399500D01*
X137149217Y-118399500D01*
X137149211Y-118399500D01*
X137149206Y-118399500D01*
X137147129Y-118399705D01*
X137145115Y-118400039D01*
X136850243Y-118438859D01*
X136850236Y-118438860D01*
X136850233Y-118438861D01*
X136788673Y-118455355D01*
X136558940Y-118516912D01*
X136281018Y-118632032D01*
X136280388Y-118632288D01*
X136280330Y-118632316D01*
X136019163Y-118783102D01*
X135779928Y-118966672D01*
X135779913Y-118966686D01*
X135779905Y-118966693D01*
X135566693Y-119179905D01*
X135566686Y-119179913D01*
X135566672Y-119179928D01*
X135383102Y-119419163D01*
X135232316Y-119680330D01*
X135232288Y-119680388D01*
X135232032Y-119681018D01*
X135116912Y-119958940D01*
X135064279Y-120155372D01*
X135038862Y-120250232D01*
X135038859Y-120250243D01*
X134999501Y-120549199D01*
X134999500Y-120549228D01*
X132889533Y-120549228D01*
X132914226Y-120521355D01*
X132939150Y-120485247D01*
X132946418Y-120474718D01*
X133024126Y-120362137D01*
X133072324Y-120292311D01*
X133201661Y-120045881D01*
X133300350Y-119785657D01*
X133366954Y-119515435D01*
X133400500Y-119239154D01*
X133400500Y-119100000D01*
X133400500Y-119052405D01*
X133400500Y-118242329D01*
X133405523Y-118207393D01*
X133409927Y-118192395D01*
X133447672Y-118133644D01*
X133449041Y-118132457D01*
X133503920Y-118104977D01*
X133511479Y-118103333D01*
X133537832Y-118100500D01*
X145767666Y-118100500D01*
X145767919Y-118100441D01*
X145886379Y-118073404D01*
X145894599Y-118071528D01*
X145898922Y-118070727D01*
X145899377Y-118070606D01*
X145902694Y-118068893D01*
X145916630Y-118062182D01*
X146021507Y-118011675D01*
X146127305Y-117927305D01*
X146211675Y-117821507D01*
X146270389Y-117699588D01*
X146282149Y-117648065D01*
X146300499Y-117567666D01*
X146300500Y-117567658D01*
X146300500Y-103342330D01*
X146305523Y-103307394D01*
X146309927Y-103292396D01*
X146347702Y-103233618D01*
X146347706Y-103233615D01*
X146349076Y-103232428D01*
X146403896Y-103204983D01*
X146405337Y-103204669D01*
X146411460Y-103203337D01*
X146437820Y-103200500D01*
X147039563Y-103200500D01*
X147152405Y-103200500D01*
X147200000Y-103200500D01*
X147339154Y-103200500D01*
X147339157Y-103200500D01*
X147397377Y-103193430D01*
X147615435Y-103166954D01*
X147885657Y-103100350D01*
X148145881Y-103001661D01*
X148392311Y-102872324D01*
X148621355Y-102714226D01*
X148829673Y-102529673D01*
X149014226Y-102321355D01*
X149172324Y-102092311D01*
X149301661Y-101845881D01*
X149400350Y-101585657D01*
X149466954Y-101315435D01*
X149500500Y-101039154D01*
X149500500Y-100900000D01*
X149500500Y-100852405D01*
X149500500Y-100160438D01*
X149500500Y-100060846D01*
X149466954Y-99784565D01*
X149400350Y-99514343D01*
X149301661Y-99254119D01*
X149236378Y-99129734D01*
X149236377Y-99129733D01*
X149236377Y-99129730D01*
X149172326Y-99007693D01*
X149172321Y-99007685D01*
X149145319Y-98968566D01*
X149014229Y-98778649D01*
X149014227Y-98778647D01*
X149014226Y-98778645D01*
X149012543Y-98776745D01*
X149012323Y-98776458D01*
X149011742Y-98775841D01*
X148944042Y-98699422D01*
X148944042Y-98699423D01*
X148829669Y-98570321D01*
X148621352Y-98385772D01*
X148621346Y-98385767D01*
X148579550Y-98356917D01*
X148392308Y-98227674D01*
X148145888Y-98098342D01*
X148145880Y-98098338D01*
X148073516Y-98070895D01*
X147885660Y-97999650D01*
X147884698Y-97999373D01*
X147882992Y-97998993D01*
X147825826Y-97984902D01*
X147615435Y-97933046D01*
X147477294Y-97916273D01*
X147477292Y-97916272D01*
X147339159Y-97899500D01*
X147339157Y-97899500D01*
X147339154Y-97899500D01*
X147239562Y-97899500D01*
X147039562Y-97899500D01*
X145439562Y-97899500D01*
X128439562Y-97899500D01*
X127997594Y-97899500D01*
X127950000Y-97899500D01*
X127882340Y-97899500D01*
X127882333Y-97899500D01*
X127882331Y-97899500D01*
X127882324Y-97899501D01*
X127774142Y-97924192D01*
X127766672Y-97925658D01*
X127731652Y-97931416D01*
X127722984Y-97932841D01*
X127653640Y-97924296D01*
X127600210Y-97880042D01*
X127592584Y-97868787D01*
X127577309Y-97837550D01*
X127547008Y-97744291D01*
X127547000Y-97744269D01*
X127547000Y-97744268D01*
X127546998Y-97744262D01*
X127448704Y-97551352D01*
X127448084Y-97550498D01*
X127446512Y-97548335D01*
X127414417Y-97504160D01*
X127321444Y-97376194D01*
X127168350Y-97223100D01*
X127045136Y-97133579D01*
X127045136Y-97133578D01*
X127021504Y-97116409D01*
X127006665Y-97105628D01*
X126981358Y-97081034D01*
X126972879Y-97070038D01*
X126947532Y-97004930D01*
X126961407Y-96936455D01*
X126963630Y-96932242D01*
X127011306Y-96882724D01*
X127015212Y-96880470D01*
X130696258Y-93199423D01*
X130724508Y-93178275D01*
X130747600Y-93165667D01*
X130807025Y-93150500D01*
X131074014Y-93150500D01*
X131108941Y-93155521D01*
X131119794Y-93158707D01*
X131178575Y-93196477D01*
X131207604Y-93260031D01*
X131197665Y-93329190D01*
X131197662Y-93329196D01*
X131196139Y-93332531D01*
X131158831Y-93379397D01*
X130979912Y-93516686D01*
X130766693Y-93729905D01*
X130766686Y-93729913D01*
X130766672Y-93729928D01*
X130583102Y-93969163D01*
X130432316Y-94230330D01*
X130432288Y-94230388D01*
X130432032Y-94231018D01*
X130316912Y-94508940D01*
X130273707Y-94670185D01*
X130238862Y-94800232D01*
X130238859Y-94800243D01*
X130199501Y-95099199D01*
X130199500Y-95099228D01*
X130199500Y-95400770D01*
X130199501Y-95400799D01*
X130238859Y-95699755D01*
X130238860Y-95699760D01*
X130238861Y-95699766D01*
X130238862Y-95699768D01*
X130316912Y-95991058D01*
X130432313Y-96269659D01*
X130432314Y-96269663D01*
X130432321Y-96269676D01*
X130583098Y-96530830D01*
X130766672Y-96770070D01*
X130766676Y-96770075D01*
X130766679Y-96770078D01*
X130766685Y-96770085D01*
X130979914Y-96983314D01*
X130979921Y-96983320D01*
X130979924Y-96983322D01*
X130979928Y-96983326D01*
X131139320Y-97105631D01*
X131219168Y-97166900D01*
X131478002Y-97316338D01*
X131482093Y-97318701D01*
X131482095Y-97318702D01*
X131482683Y-97319042D01*
X131487828Y-97320788D01*
X131623295Y-97376900D01*
X131758939Y-97433086D01*
X131758940Y-97433086D01*
X131758942Y-97433087D01*
X131758944Y-97433087D01*
X131759691Y-97433397D01*
X131762842Y-97434132D01*
X132050232Y-97511138D01*
X132349217Y-97550500D01*
X132349224Y-97550500D01*
X132650776Y-97550500D01*
X132650783Y-97550500D01*
X132949768Y-97511138D01*
X133241058Y-97433087D01*
X133519668Y-97317683D01*
X133780832Y-97166900D01*
X134020080Y-96983319D01*
X134233319Y-96770080D01*
X134416900Y-96530832D01*
X134567683Y-96269668D01*
X134683087Y-95991058D01*
X134761138Y-95699768D01*
X134800500Y-95400783D01*
X134800500Y-95099217D01*
X134761138Y-94800232D01*
X134683087Y-94508942D01*
X134673981Y-94486959D01*
X134567929Y-94230927D01*
X134567704Y-94230374D01*
X134567682Y-94230330D01*
X134504596Y-94121062D01*
X134416900Y-93969168D01*
X134326498Y-93851353D01*
X134233326Y-93729928D01*
X134233322Y-93729924D01*
X134233320Y-93729921D01*
X134233314Y-93729914D01*
X134020085Y-93516685D01*
X134020078Y-93516679D01*
X134020075Y-93516676D01*
X134020070Y-93516672D01*
X133846814Y-93383729D01*
X133822158Y-93358480D01*
X133820130Y-93355703D01*
X133815487Y-93349344D01*
X133791850Y-93283597D01*
X133807511Y-93215505D01*
X133857496Y-93166691D01*
X133860756Y-93164961D01*
X133918870Y-93150500D01*
X134085626Y-93150500D01*
X134120558Y-93155521D01*
X134145802Y-93162934D01*
X134198548Y-93194230D01*
X134888024Y-93883705D01*
X135519531Y-94515212D01*
X135584788Y-94580469D01*
X135584791Y-94580470D01*
X135584794Y-94580473D01*
X135590240Y-94583617D01*
X135590868Y-94584225D01*
X135593036Y-94585566D01*
X135595651Y-94586741D01*
X135664706Y-94626611D01*
X135664707Y-94626611D01*
X135664712Y-94626614D01*
X135753856Y-94650500D01*
X147082938Y-94650500D01*
X147117870Y-94655522D01*
X147125448Y-94657746D01*
X147130295Y-94659170D01*
X147189074Y-94696943D01*
X147218100Y-94760498D01*
X147210258Y-94824786D01*
X147206772Y-94833374D01*
X147192195Y-94859621D01*
X147123568Y-94954076D01*
X147123568Y-94954077D01*
X147025270Y-95146996D01*
X147025270Y-95146997D01*
X147025263Y-95147016D01*
X146958370Y-95352897D01*
X146924500Y-95566746D01*
X146924500Y-95783252D01*
X146958370Y-95997101D01*
X147025263Y-96202982D01*
X147025270Y-96203001D01*
X147025270Y-96203002D01*
X147025271Y-96203005D01*
X147025272Y-96203006D01*
X147025273Y-96203009D01*
X147104784Y-96359056D01*
X147123567Y-96395919D01*
X147250828Y-96571078D01*
X147403922Y-96724172D01*
X147579081Y-96851433D01*
X147673697Y-96899642D01*
X147771990Y-96949726D01*
X147771993Y-96949727D01*
X147874947Y-96983178D01*
X147977903Y-97016630D01*
X148191746Y-97050500D01*
X148191747Y-97050500D01*
X148408253Y-97050500D01*
X148408254Y-97050500D01*
X148622097Y-97016630D01*
X148828009Y-96949726D01*
X149020919Y-96851433D01*
X149196078Y-96724172D01*
X149349172Y-96571078D01*
X149476433Y-96395919D01*
X149574726Y-96203009D01*
X149575518Y-96200573D01*
X149638857Y-96005630D01*
X149641630Y-95997097D01*
X149675500Y-95783254D01*
X149675500Y-95588373D01*
X149680521Y-95553446D01*
X149683707Y-95542593D01*
X149721477Y-95483812D01*
X149785031Y-95454783D01*
X149854186Y-95464721D01*
X149861172Y-95467911D01*
X149897342Y-95493024D01*
X149900573Y-95496255D01*
X149921723Y-95524507D01*
X149934331Y-95547596D01*
X149949500Y-95607025D01*
X149949500Y-104847124D01*
X149937924Y-104886545D01*
X149928803Y-104919336D01*
X149876657Y-104965840D01*
X149807648Y-104976769D01*
X149743684Y-104948654D01*
X149720196Y-104922317D01*
X149716919Y-104917374D01*
X149702340Y-104887180D01*
X149665566Y-104774003D01*
X149558342Y-104563566D01*
X149508729Y-104495280D01*
X149508729Y-104495279D01*
X149508728Y-104495279D01*
X149419519Y-104372493D01*
X149419514Y-104372487D01*
X149252512Y-104205485D01*
X149252510Y-104205483D01*
X149061433Y-104066657D01*
X149028742Y-104050000D01*
X148850996Y-103959433D01*
X148626368Y-103886446D01*
X148626362Y-103886445D01*
X148393102Y-103849500D01*
X148393097Y-103849500D01*
X148393092Y-103849500D01*
X148156908Y-103849500D01*
X148156903Y-103849500D01*
X148156898Y-103849500D01*
X147923636Y-103886445D01*
X147923634Y-103886445D01*
X147923631Y-103886446D01*
X147699003Y-103959433D01*
X147521257Y-104050000D01*
X147488562Y-104066659D01*
X147379549Y-104145861D01*
X147379550Y-104145862D01*
X147309361Y-104196858D01*
X147301980Y-104200991D01*
X147125991Y-104376980D01*
X147121858Y-104384361D01*
X147070862Y-104454550D01*
X147070861Y-104454549D01*
X146991659Y-104563562D01*
X146991657Y-104563566D01*
X146884433Y-104774003D01*
X146811446Y-104998631D01*
X146811445Y-104998634D01*
X146811445Y-104998636D01*
X146774500Y-105231896D01*
X146774500Y-105468102D01*
X146803691Y-105652406D01*
X146811446Y-105701368D01*
X146884433Y-105925996D01*
X146961907Y-106078045D01*
X146991657Y-106136433D01*
X147130483Y-106327510D01*
X147297490Y-106494517D01*
X147488567Y-106633343D01*
X147587991Y-106684002D01*
X147699003Y-106740566D01*
X147699876Y-106741011D01*
X147703630Y-106742070D01*
X147739902Y-106753855D01*
X147819410Y-106779688D01*
X147819411Y-106779689D01*
X147819412Y-106779689D01*
X147923631Y-106813553D01*
X148156903Y-106850500D01*
X148156908Y-106850500D01*
X148393096Y-106850500D01*
X148393097Y-106850500D01*
X148626368Y-106813553D01*
X148850992Y-106740568D01*
X149061433Y-106633343D01*
X149252510Y-106494517D01*
X149419517Y-106327510D01*
X149558343Y-106136433D01*
X149665568Y-105925992D01*
X149702059Y-105813680D01*
X149725222Y-105779805D01*
X149744045Y-105751409D01*
X149808005Y-105723288D01*
X149877016Y-105734210D01*
X149929167Y-105780708D01*
X149943372Y-105813017D01*
X149944960Y-105818723D01*
X149949500Y-105851969D01*
X149949500Y-107485626D01*
X149944476Y-107520563D01*
X149937064Y-107545804D01*
X149905769Y-107598548D01*
X146819534Y-110684782D01*
X146819528Y-110684789D01*
X146819526Y-110684791D01*
X146773389Y-110764703D01*
X146773387Y-110764708D01*
X146773382Y-110764725D01*
X146772857Y-110766685D01*
X146749500Y-110853856D01*
X146749500Y-114846144D01*
X146755156Y-114867250D01*
X146773386Y-114935287D01*
X146773387Y-114935290D01*
X146819527Y-115015208D01*
X146819529Y-115015211D01*
X146819530Y-115015212D01*
X147984788Y-116180470D01*
X148064712Y-116226614D01*
X148153856Y-116250500D01*
X149362384Y-116250500D01*
X149397316Y-116255521D01*
X149410635Y-116259432D01*
X149469413Y-116297206D01*
X149498439Y-116360761D01*
X149498444Y-116360799D01*
X149498675Y-116362409D01*
X149493110Y-116420582D01*
X149491472Y-116425314D01*
X149481682Y-116446751D01*
X149440423Y-116518214D01*
X149440423Y-116518215D01*
X149440423Y-116518216D01*
X149399500Y-116670943D01*
X149399500Y-116829057D01*
X149438726Y-116975448D01*
X149440423Y-116981783D01*
X149440426Y-116981790D01*
X149518574Y-117117149D01*
X149519286Y-117118474D01*
X149519398Y-117118634D01*
X149631287Y-117230523D01*
X149631969Y-117231014D01*
X149634475Y-117232363D01*
X149768209Y-117309573D01*
X149768216Y-117309577D01*
X149920943Y-117350500D01*
X149920945Y-117350500D01*
X150079055Y-117350500D01*
X150079057Y-117350500D01*
X150231784Y-117309577D01*
X150368716Y-117230520D01*
X150465075Y-117134160D01*
X150479599Y-117121724D01*
X150488511Y-117115213D01*
X150488512Y-117115214D01*
X150509505Y-117099877D01*
X150561356Y-117077849D01*
X150564275Y-117077340D01*
X150585563Y-117075500D01*
X151735626Y-117075500D01*
X151770558Y-117080521D01*
X151795802Y-117087934D01*
X151848548Y-117119230D01*
X152614752Y-117885434D01*
X152635904Y-117913690D01*
X152643396Y-117927411D01*
X152658248Y-117995671D01*
X152658119Y-117997477D01*
X152638751Y-118055679D01*
X152634572Y-118062182D01*
X152617936Y-118082826D01*
X152594488Y-118106273D01*
X152594482Y-118106280D01*
X152594470Y-118106298D01*
X152515430Y-118243200D01*
X152515425Y-118243210D01*
X152515424Y-118243211D01*
X152515422Y-118243218D01*
X152474500Y-118395943D01*
X152474500Y-118554055D01*
X152515419Y-118706769D01*
X152515427Y-118706795D01*
X152515598Y-118707174D01*
X152523010Y-118728794D01*
X152526775Y-118744315D01*
X152523449Y-118814106D01*
X152482920Y-118871019D01*
X152482910Y-118871027D01*
X152481633Y-118872031D01*
X152428469Y-118896308D01*
X152423547Y-118897257D01*
X152400071Y-118899500D01*
X148203856Y-118899500D01*
X148114725Y-118923382D01*
X148114708Y-118923387D01*
X148114703Y-118923389D01*
X148034791Y-118969526D01*
X148034789Y-118969528D01*
X148034782Y-118969534D01*
X145303744Y-121700573D01*
X145275493Y-121721722D01*
X145252405Y-121734330D01*
X145192975Y-121749500D01*
X142828509Y-121749500D01*
X142785779Y-121741905D01*
X142582893Y-121667429D01*
X142537942Y-121638705D01*
X142518722Y-121619485D01*
X142518720Y-121619484D01*
X142518717Y-121619481D01*
X142518709Y-121619475D01*
X142443705Y-121576172D01*
X142381807Y-121540435D01*
X142381783Y-121540422D01*
X142255797Y-121506665D01*
X142229057Y-121499500D01*
X142229056Y-121499500D01*
X142070943Y-121499500D01*
X141918218Y-121540422D01*
X141918211Y-121540424D01*
X141918210Y-121540425D01*
X141918200Y-121540430D01*
X141781298Y-121619470D01*
X141781294Y-121619472D01*
X141781290Y-121619475D01*
X141781282Y-121619481D01*
X141781278Y-121619484D01*
X141781276Y-121619485D01*
X141669485Y-121731276D01*
X141669484Y-121731278D01*
X141669481Y-121731281D01*
X141669481Y-121731282D01*
X141669475Y-121731290D01*
X141669472Y-121731294D01*
X141669470Y-121731298D01*
X141590430Y-121868200D01*
X141590425Y-121868210D01*
X141590424Y-121868211D01*
X141590423Y-121868216D01*
X141549500Y-122020943D01*
X141549500Y-122179057D01*
X141551848Y-122187819D01*
X141570608Y-122257832D01*
X141570614Y-122257853D01*
X141590423Y-122331784D01*
X141590424Y-122331787D01*
X141590425Y-122331788D01*
X141590426Y-122331790D01*
X141600545Y-122349317D01*
X141666623Y-122463771D01*
X141666638Y-122463795D01*
X141669475Y-122468709D01*
X141669479Y-122468714D01*
X141669480Y-122468716D01*
X141670049Y-122469285D01*
X141781287Y-122580523D01*
X141781969Y-122581014D01*
X141784475Y-122582363D01*
X141918209Y-122659573D01*
X141918216Y-122659577D01*
X142070943Y-122700500D01*
X142070945Y-122700500D01*
X142229055Y-122700500D01*
X142229057Y-122700500D01*
X142381784Y-122659577D01*
X142518716Y-122580520D01*
X142537944Y-122561290D01*
X142582892Y-122532569D01*
X142711808Y-122485247D01*
X142785777Y-122458095D01*
X142828506Y-122450500D01*
X145446141Y-122450500D01*
X145446142Y-122450500D01*
X145446144Y-122450500D01*
X145535288Y-122426614D01*
X145540876Y-122423387D01*
X145540880Y-122423386D01*
X145612032Y-122382305D01*
X145617510Y-122379359D01*
X145620637Y-122377337D01*
X145645708Y-122362862D01*
X145665826Y-122329855D01*
X148346258Y-119649423D01*
X148374508Y-119628275D01*
X148397600Y-119615667D01*
X148457025Y-119600500D01*
X148961626Y-119600500D01*
X148996553Y-119605521D01*
X149007406Y-119608707D01*
X149066187Y-119646477D01*
X149095216Y-119710031D01*
X149085276Y-119779190D01*
X149082322Y-119785662D01*
X149082091Y-119786167D01*
X149056975Y-119822342D01*
X144803744Y-124075573D01*
X144775493Y-124096722D01*
X144752405Y-124109330D01*
X144692975Y-124124500D01*
X136039374Y-124124500D01*
X136004438Y-124119477D01*
X135979196Y-124112065D01*
X135926451Y-124080769D01*
X134715221Y-122869538D01*
X134715214Y-122869532D01*
X134715208Y-122869527D01*
X134715203Y-122869523D01*
X134656466Y-122835612D01*
X134656461Y-122835609D01*
X134635290Y-122823387D01*
X134635289Y-122823386D01*
X134635288Y-122823386D01*
X134546144Y-122799500D01*
X134546143Y-122799500D01*
X129678856Y-122799500D01*
X129589725Y-122823382D01*
X129589708Y-122823387D01*
X129589703Y-122823389D01*
X129509791Y-122869526D01*
X129509790Y-122869527D01*
X129509784Y-122869532D01*
X129509777Y-122869538D01*
X128519538Y-123859777D01*
X128519525Y-123859793D01*
X128519521Y-123859800D01*
X128506577Y-123882221D01*
X128483103Y-123922882D01*
X128482815Y-123923380D01*
X128482812Y-123923386D01*
X128473386Y-123939710D01*
X128449500Y-124028856D01*
X128449500Y-129878869D01*
X128444475Y-129913813D01*
X128440070Y-129928811D01*
X128402302Y-129987576D01*
X128395601Y-129993383D01*
X128346489Y-130019448D01*
X128270015Y-130039940D01*
X128268332Y-130040364D01*
X128268217Y-130040422D01*
X128268191Y-130040435D01*
X128131298Y-130119470D01*
X128131294Y-130119472D01*
X128131290Y-130119475D01*
X128131282Y-130119481D01*
X128131278Y-130119484D01*
X128131276Y-130119485D01*
X128019485Y-130231276D01*
X128019484Y-130231278D01*
X128019481Y-130231281D01*
X128019481Y-130231282D01*
X128019475Y-130231290D01*
X128019472Y-130231294D01*
X128019470Y-130231298D01*
X127940430Y-130368200D01*
X127940425Y-130368210D01*
X127940424Y-130368211D01*
X127940422Y-130368218D01*
X127899500Y-130520943D01*
X127899500Y-130679054D01*
X127899499Y-130679054D01*
X127928372Y-130786807D01*
X127932371Y-130801731D01*
X127940423Y-130831783D01*
X127940426Y-130831790D01*
X128019377Y-130968539D01*
X128019452Y-130968688D01*
X128131287Y-131080523D01*
X128131967Y-131081013D01*
X128134462Y-131082355D01*
X128208326Y-131125000D01*
X128268216Y-131159577D01*
X128420943Y-131200500D01*
X128420945Y-131200500D01*
X128579055Y-131200500D01*
X128579057Y-131200500D01*
X128731784Y-131159577D01*
X128868716Y-131080520D01*
X128980520Y-130968716D01*
X129059577Y-130831784D01*
X129100500Y-130679057D01*
X129100500Y-130526597D01*
X129103136Y-130501166D01*
X129107364Y-130480989D01*
X129121345Y-130444413D01*
X129126614Y-130435288D01*
X129126614Y-130435287D01*
X129129070Y-130426120D01*
X129129073Y-130426115D01*
X129129072Y-130426115D01*
X129136214Y-130399457D01*
X129150500Y-130346144D01*
X129150500Y-130172418D01*
X129151449Y-130166065D01*
X129151677Y-130163768D01*
X129152926Y-130138525D01*
X129150500Y-130126330D01*
X129150500Y-124289373D01*
X129155522Y-124254440D01*
X129157897Y-124246352D01*
X129162934Y-124229195D01*
X129194228Y-124176453D01*
X129821258Y-123549423D01*
X129849508Y-123528275D01*
X129872600Y-123515667D01*
X129932025Y-123500500D01*
X130061626Y-123500500D01*
X130096553Y-123505521D01*
X130107406Y-123508707D01*
X130166187Y-123546477D01*
X130195216Y-123610031D01*
X130185277Y-123679190D01*
X130185276Y-123679192D01*
X130182091Y-123686167D01*
X130156975Y-123722342D01*
X129544534Y-124334782D01*
X129544528Y-124334789D01*
X129544526Y-124334791D01*
X129498389Y-124414703D01*
X129498387Y-124414708D01*
X129498382Y-124414725D01*
X129480360Y-124481985D01*
X129474500Y-124503856D01*
X129474500Y-126196145D01*
X129494414Y-126270467D01*
X129498385Y-126285285D01*
X129498386Y-126285289D01*
X129544528Y-126365209D01*
X129544532Y-126365214D01*
X129544538Y-126365221D01*
X131600573Y-128421255D01*
X131621723Y-128449507D01*
X131634331Y-128472596D01*
X131649500Y-128532025D01*
X131649500Y-130721144D01*
X131656460Y-130747120D01*
X131671093Y-130801731D01*
X131673385Y-130810286D01*
X131673387Y-130810290D01*
X131719527Y-130890208D01*
X131719529Y-130890211D01*
X131719530Y-130890212D01*
X132559788Y-131730470D01*
X132559789Y-131730471D01*
X132559791Y-131730472D01*
X132608522Y-131758606D01*
X132608525Y-131758608D01*
X132639711Y-131776614D01*
X132658549Y-131781661D01*
X132728856Y-131800500D01*
X132728857Y-131800500D01*
X132821144Y-131800500D01*
X133235626Y-131800500D01*
X133270558Y-131805521D01*
X133295802Y-131812934D01*
X133348548Y-131844230D01*
X133850573Y-132346255D01*
X133871723Y-132374507D01*
X133884331Y-132397596D01*
X133899500Y-132457025D01*
X133899500Y-137496143D01*
X133919578Y-137571078D01*
X133923385Y-137585284D01*
X133923385Y-137585286D01*
X133923389Y-137585295D01*
X133969526Y-137665207D01*
X133969527Y-137665208D01*
X133969532Y-137665214D01*
X133969538Y-137665221D01*
X134850573Y-138546255D01*
X134871723Y-138574507D01*
X134884331Y-138597596D01*
X134899500Y-138657025D01*
X134899500Y-138779056D01*
X134905246Y-138800500D01*
X134940422Y-138931780D01*
X134940424Y-138931787D01*
X134940425Y-138931788D01*
X134940428Y-138931793D01*
X135016623Y-139063771D01*
X135016638Y-139063795D01*
X135019475Y-139068709D01*
X135019479Y-139068714D01*
X135019480Y-139068716D01*
X135020049Y-139069285D01*
X135131287Y-139180523D01*
X135131969Y-139181014D01*
X135134475Y-139182363D01*
X135268209Y-139259573D01*
X135268216Y-139259577D01*
X135420943Y-139300500D01*
X135420945Y-139300500D01*
X135579055Y-139300500D01*
X135579057Y-139300500D01*
X135731784Y-139259577D01*
X135868716Y-139180520D01*
X135980520Y-139068716D01*
X136059577Y-138931784D01*
X136100500Y-138779057D01*
X136100500Y-138620943D01*
X136059577Y-138468216D01*
X136029950Y-138416900D01*
X135980524Y-138331290D01*
X135980518Y-138331282D01*
X135980513Y-138331276D01*
X135868722Y-138219485D01*
X135868720Y-138219484D01*
X135868717Y-138219481D01*
X135868709Y-138219475D01*
X135842147Y-138204140D01*
X135731807Y-138140435D01*
X135731783Y-138140422D01*
X135619979Y-138110464D01*
X135579057Y-138099500D01*
X135579056Y-138099500D01*
X135464374Y-138099500D01*
X135429438Y-138094477D01*
X135404196Y-138087065D01*
X135351451Y-138055769D01*
X134649426Y-137353744D01*
X134628274Y-137325488D01*
X134615667Y-137302399D01*
X134600500Y-137242974D01*
X134600500Y-136349228D01*
X136199500Y-136349228D01*
X136199500Y-136650770D01*
X136199501Y-136650799D01*
X136238859Y-136949755D01*
X136238860Y-136949760D01*
X136238861Y-136949766D01*
X136255445Y-137011657D01*
X136316912Y-137241058D01*
X136395076Y-137429762D01*
X136422572Y-137496143D01*
X136432032Y-137518980D01*
X136432292Y-137519618D01*
X136432316Y-137519668D01*
X136432318Y-137519671D01*
X136583099Y-137780831D01*
X136583100Y-137780832D01*
X136583102Y-137780835D01*
X136766672Y-138020070D01*
X136766676Y-138020075D01*
X136766679Y-138020078D01*
X136766685Y-138020085D01*
X136979914Y-138233314D01*
X136979921Y-138233320D01*
X136979924Y-138233322D01*
X136979928Y-138233326D01*
X137107597Y-138331289D01*
X137219168Y-138416900D01*
X137476899Y-138565701D01*
X137482093Y-138568701D01*
X137482095Y-138568702D01*
X137482683Y-138569042D01*
X137487828Y-138570787D01*
X137607085Y-138620186D01*
X137608913Y-138620943D01*
X137754872Y-138681402D01*
X137754873Y-138681402D01*
X137758939Y-138683086D01*
X137758940Y-138683086D01*
X137758942Y-138683087D01*
X137758945Y-138683087D01*
X137759692Y-138683397D01*
X137762842Y-138684132D01*
X138050232Y-138761138D01*
X138349217Y-138800500D01*
X138349224Y-138800500D01*
X138650776Y-138800500D01*
X138650783Y-138800500D01*
X138949768Y-138761138D01*
X139241058Y-138683087D01*
X139519668Y-138567683D01*
X139780832Y-138416900D01*
X140020080Y-138233319D01*
X140233319Y-138020080D01*
X140416900Y-137780832D01*
X140567683Y-137519668D01*
X140683087Y-137241058D01*
X140761138Y-136949768D01*
X140800500Y-136650783D01*
X140800500Y-136349217D01*
X140761138Y-136050232D01*
X140683087Y-135758942D01*
X140567683Y-135480332D01*
X140495515Y-135355334D01*
X140416900Y-135219168D01*
X140347754Y-135129055D01*
X140233326Y-134979928D01*
X140233322Y-134979924D01*
X140233320Y-134979921D01*
X140233314Y-134979914D01*
X140020085Y-134766685D01*
X140020078Y-134766679D01*
X140020075Y-134766676D01*
X140020070Y-134766672D01*
X139780835Y-134583102D01*
X139780834Y-134583101D01*
X139780831Y-134583099D01*
X139519671Y-134432318D01*
X139519672Y-134432318D01*
X139519668Y-134432316D01*
X139519618Y-134432292D01*
X139518980Y-134432032D01*
X139241058Y-134316912D01*
X139095413Y-134277887D01*
X138949766Y-134238861D01*
X138949760Y-134238860D01*
X138949755Y-134238859D01*
X138654883Y-134200039D01*
X138652867Y-134199705D01*
X138650793Y-134199500D01*
X138650788Y-134199500D01*
X138650783Y-134199500D01*
X138349217Y-134199500D01*
X138349211Y-134199500D01*
X138349206Y-134199500D01*
X138347129Y-134199705D01*
X138345115Y-134200039D01*
X138050243Y-134238859D01*
X138050236Y-134238860D01*
X138050233Y-134238861D01*
X137988673Y-134255355D01*
X137758940Y-134316912D01*
X137481018Y-134432032D01*
X137480388Y-134432288D01*
X137480330Y-134432316D01*
X137219163Y-134583102D01*
X136979928Y-134766672D01*
X136979913Y-134766686D01*
X136979905Y-134766693D01*
X136766693Y-134979905D01*
X136766686Y-134979913D01*
X136766672Y-134979928D01*
X136583102Y-135219163D01*
X136432316Y-135480330D01*
X136432288Y-135480388D01*
X136432032Y-135481018D01*
X136316912Y-135758940D01*
X136274241Y-135918192D01*
X136238862Y-136050232D01*
X136238859Y-136050243D01*
X136199501Y-136349199D01*
X136199500Y-136349228D01*
X134600500Y-136349228D01*
X134600500Y-132203858D01*
X134600500Y-132203856D01*
X134576614Y-132114712D01*
X134530470Y-132034788D01*
X133665212Y-131169530D01*
X133665211Y-131169529D01*
X133665208Y-131169527D01*
X133597343Y-131130346D01*
X133595276Y-131129042D01*
X133593427Y-131126944D01*
X133592896Y-131126537D01*
X133577682Y-131120235D01*
X133569520Y-131119161D01*
X133496144Y-131099500D01*
X133496143Y-131099500D01*
X132989374Y-131099500D01*
X132954438Y-131094477D01*
X132929196Y-131087065D01*
X132876451Y-131055769D01*
X132399426Y-130578744D01*
X132378274Y-130550488D01*
X132365667Y-130527399D01*
X132350500Y-130467974D01*
X132350500Y-128278858D01*
X132350500Y-128278856D01*
X132326614Y-128189712D01*
X132291676Y-128129199D01*
X132290187Y-128126619D01*
X132290186Y-128126618D01*
X132290184Y-128126614D01*
X132285800Y-128119020D01*
X132280471Y-128109790D01*
X132280467Y-128109785D01*
X132280465Y-128109783D01*
X132280459Y-128109776D01*
X130224426Y-126053744D01*
X130203274Y-126025488D01*
X130190667Y-126002399D01*
X130175500Y-125942974D01*
X130175500Y-125367582D01*
X130180521Y-125332655D01*
X130183707Y-125321802D01*
X130221477Y-125263021D01*
X130285031Y-125233992D01*
X130354152Y-125243914D01*
X130355298Y-125244438D01*
X130408117Y-125290170D01*
X130411211Y-125295243D01*
X130431980Y-125331216D01*
X130431982Y-125331218D01*
X130503446Y-125402682D01*
X130527364Y-125436310D01*
X130528419Y-125438489D01*
X130532432Y-125447673D01*
X130536288Y-125454735D01*
X130537612Y-125457468D01*
X130538849Y-125464876D01*
X130549302Y-125498260D01*
X130550836Y-125512529D01*
X130555251Y-125518756D01*
X130557764Y-125526984D01*
X130558424Y-125529449D01*
X130558429Y-125529466D01*
X130573383Y-125585283D01*
X130573384Y-125585285D01*
X130588765Y-125611926D01*
X130619527Y-125665208D01*
X130619529Y-125665211D01*
X130619530Y-125665212D01*
X130714636Y-125760318D01*
X130721083Y-125767830D01*
X130724292Y-125769974D01*
X132834788Y-127880470D01*
X132914712Y-127926614D01*
X133003856Y-127950500D01*
X134661626Y-127950500D01*
X134696553Y-127955521D01*
X134707406Y-127958707D01*
X134766187Y-127996477D01*
X134795216Y-128060031D01*
X134785277Y-128129190D01*
X134785273Y-128129199D01*
X134782088Y-128136173D01*
X134756975Y-128172341D01*
X134257877Y-128671440D01*
X133856934Y-129072381D01*
X133821350Y-129097225D01*
X133695085Y-129155682D01*
X133625226Y-129188025D01*
X133573131Y-129199500D01*
X133545943Y-129199500D01*
X133393218Y-129240422D01*
X133393211Y-129240424D01*
X133393210Y-129240425D01*
X133393200Y-129240430D01*
X133256298Y-129319470D01*
X133256294Y-129319472D01*
X133256290Y-129319475D01*
X133256282Y-129319481D01*
X133256278Y-129319484D01*
X133256276Y-129319485D01*
X133144485Y-129431276D01*
X133144484Y-129431278D01*
X133144481Y-129431281D01*
X133144481Y-129431282D01*
X133144475Y-129431290D01*
X133144472Y-129431294D01*
X133144470Y-129431298D01*
X133065430Y-129568200D01*
X133065425Y-129568210D01*
X133065424Y-129568211D01*
X133065422Y-129568218D01*
X133055350Y-129605809D01*
X133024500Y-129720943D01*
X133024500Y-129879057D01*
X133057684Y-130002899D01*
X133065423Y-130031783D01*
X133065426Y-130031790D01*
X133144335Y-130168467D01*
X133144442Y-130168678D01*
X133256287Y-130280523D01*
X133256967Y-130281013D01*
X133259461Y-130282355D01*
X133369947Y-130346143D01*
X133369949Y-130346144D01*
X133369948Y-130346144D01*
X133376338Y-130349833D01*
X133393216Y-130359577D01*
X133545943Y-130400500D01*
X133545945Y-130400500D01*
X133704055Y-130400500D01*
X133704057Y-130400500D01*
X133856784Y-130359577D01*
X133993716Y-130280520D01*
X134105520Y-130168716D01*
X134184577Y-130031784D01*
X134225500Y-129879057D01*
X134225500Y-129851866D01*
X134236974Y-129799771D01*
X134238786Y-129795858D01*
X134327773Y-129603646D01*
X134352613Y-129568066D01*
X135321258Y-128599423D01*
X135349508Y-128578275D01*
X135372600Y-128565667D01*
X135432025Y-128550500D01*
X145571142Y-128550500D01*
X145571144Y-128550500D01*
X145660288Y-128526614D01*
X145740212Y-128480470D01*
X148294768Y-125925912D01*
X148330711Y-125906285D01*
X148359858Y-125889504D01*
X148429644Y-125892910D01*
X148486511Y-125933505D01*
X148512403Y-125998400D01*
X148510683Y-126033652D01*
X148509581Y-126039334D01*
X148499250Y-126070185D01*
X148485418Y-126098478D01*
X148485417Y-126098481D01*
X148484497Y-126104804D01*
X148484495Y-126104818D01*
X148474500Y-126173417D01*
X148474500Y-126473493D01*
X148469476Y-126508430D01*
X148462064Y-126533671D01*
X148430769Y-126586415D01*
X143138929Y-131878254D01*
X143138925Y-131878260D01*
X143099500Y-131917684D01*
X143033610Y-132031806D01*
X143033609Y-132031808D01*
X142999500Y-132159108D01*
X142999500Y-135798494D01*
X142994476Y-135833431D01*
X142987064Y-135858672D01*
X142955769Y-135911416D01*
X137591612Y-141275573D01*
X137563361Y-141296722D01*
X137540273Y-141309330D01*
X137480843Y-141324500D01*
X126001506Y-141324500D01*
X125966570Y-141319477D01*
X125941328Y-141312065D01*
X125888583Y-141280769D01*
X124824426Y-140216612D01*
X124803274Y-140188356D01*
X124790667Y-140165267D01*
X124775500Y-140105842D01*
X124775500Y-136376505D01*
X124780522Y-136341572D01*
X124782366Y-136335293D01*
X124787934Y-136316327D01*
X124819228Y-136263585D01*
X125050496Y-136032318D01*
X125050499Y-136032315D01*
X125064934Y-136007314D01*
X125064937Y-136007310D01*
X125082086Y-135977604D01*
X125116392Y-135918186D01*
X125134796Y-135849500D01*
X125150500Y-135790893D01*
X125150500Y-135693189D01*
X125154575Y-135664381D01*
X125154384Y-135664346D01*
X125155220Y-135659824D01*
X125155367Y-135658788D01*
X125155493Y-135658353D01*
X125181334Y-135354197D01*
X125197501Y-135302698D01*
X125209577Y-135281784D01*
X125250500Y-135129057D01*
X125250500Y-134970943D01*
X125209577Y-134818216D01*
X125197500Y-134797299D01*
X125181333Y-134745790D01*
X125179397Y-134722988D01*
X125179397Y-134702006D01*
X125180303Y-134691335D01*
X125181333Y-134679204D01*
X125197502Y-134627698D01*
X125209577Y-134606784D01*
X125250500Y-134454057D01*
X125250500Y-134295943D01*
X125209577Y-134143216D01*
X125165966Y-134067678D01*
X125165966Y-134067677D01*
X125143107Y-134028085D01*
X125130524Y-134006290D01*
X125130518Y-134006282D01*
X125130517Y-134006281D01*
X125130513Y-134006276D01*
X125018722Y-133894485D01*
X125018720Y-133894484D01*
X125018717Y-133894481D01*
X125018709Y-133894475D01*
X124982732Y-133873704D01*
X124881807Y-133815435D01*
X124881783Y-133815422D01*
X124769979Y-133785464D01*
X124729057Y-133774500D01*
X124729056Y-133774500D01*
X124570943Y-133774500D01*
X124446045Y-133807966D01*
X124446043Y-133807966D01*
X124418216Y-133815423D01*
X124418215Y-133815423D01*
X124336674Y-133862500D01*
X124333272Y-133864197D01*
X124329148Y-133864934D01*
X124307178Y-133873731D01*
X124288891Y-133878168D01*
X124224712Y-133876639D01*
X124214715Y-133873703D01*
X124187661Y-133862117D01*
X124106784Y-133815423D01*
X124087288Y-133810199D01*
X123954057Y-133774500D01*
X123954056Y-133774500D01*
X123795943Y-133774500D01*
X123643218Y-133815422D01*
X123643211Y-133815424D01*
X123643210Y-133815425D01*
X123643200Y-133815430D01*
X123506298Y-133894470D01*
X123506294Y-133894472D01*
X123506290Y-133894475D01*
X123506282Y-133894481D01*
X123506278Y-133894484D01*
X123506276Y-133894485D01*
X123394485Y-134006276D01*
X123394484Y-134006278D01*
X123394481Y-134006281D01*
X123394481Y-134006282D01*
X123394475Y-134006290D01*
X123394472Y-134006294D01*
X123394470Y-134006298D01*
X123315430Y-134143200D01*
X123315425Y-134143210D01*
X123315424Y-134143211D01*
X123315422Y-134143218D01*
X123289795Y-134238861D01*
X123274500Y-134295943D01*
X123274500Y-134454056D01*
X123284251Y-134490450D01*
X123315420Y-134606775D01*
X123315422Y-134606781D01*
X123315423Y-134606783D01*
X123315424Y-134606786D01*
X123325578Y-134624373D01*
X123327497Y-134627697D01*
X123343664Y-134679200D01*
X123345601Y-134702001D01*
X123345601Y-134722996D01*
X123343663Y-134745803D01*
X123327497Y-134797301D01*
X123315426Y-134818208D01*
X123315425Y-134818211D01*
X123315423Y-134818216D01*
X123274500Y-134970943D01*
X123274500Y-135129056D01*
X123295721Y-135208254D01*
X123315419Y-135281769D01*
X123315424Y-135281786D01*
X123315428Y-135281793D01*
X123327496Y-135302696D01*
X123343664Y-135354198D01*
X123369506Y-135658352D01*
X123370335Y-135661466D01*
X123374500Y-135693334D01*
X123374500Y-135765890D01*
X123408608Y-135893188D01*
X123423042Y-135918187D01*
X123474497Y-136007310D01*
X123474502Y-136007316D01*
X123725573Y-136258387D01*
X123746723Y-136286639D01*
X123759331Y-136309728D01*
X123774500Y-136369157D01*
X123774500Y-140440891D01*
X123784457Y-140478051D01*
X123808608Y-140568188D01*
X123841554Y-140625250D01*
X123874500Y-140682314D01*
X125324500Y-142132314D01*
X125417686Y-142225500D01*
X125499075Y-142272490D01*
X125531810Y-142291390D01*
X125531814Y-142291392D01*
X125659108Y-142325500D01*
X125659110Y-142325500D01*
X137815890Y-142325500D01*
X137815892Y-142325500D01*
X137943186Y-142291392D01*
X138057314Y-142225500D01*
X143900500Y-136382314D01*
X143966392Y-136268186D01*
X144000500Y-136140892D01*
X144000500Y-136009108D01*
X144000500Y-132501504D01*
X144005522Y-132466571D01*
X144008325Y-132457025D01*
X144012549Y-132442636D01*
X153975001Y-132442636D01*
X153977764Y-132477751D01*
X153977764Y-132477752D01*
X154021469Y-132628189D01*
X154021469Y-132628190D01*
X154098009Y-132757612D01*
X154101207Y-132763019D01*
X154101214Y-132763028D01*
X154211971Y-132873785D01*
X154211980Y-132873792D01*
X154346810Y-132953530D01*
X154497240Y-132997233D01*
X154497241Y-132997233D01*
X154497244Y-132997234D01*
X154500245Y-132997470D01*
X154532385Y-132999999D01*
X154625000Y-132999998D01*
X154625000Y-131950000D01*
X153975001Y-131950000D01*
X153975001Y-132442636D01*
X144012549Y-132442636D01*
X144012934Y-132441326D01*
X144044228Y-132388584D01*
X145345200Y-131087612D01*
X148640938Y-131087612D01*
X148640938Y-131087613D01*
X148759859Y-131122163D01*
X148759863Y-131122164D01*
X148759870Y-131122166D01*
X148759876Y-131122167D01*
X148795864Y-131124999D01*
X148795880Y-131125000D01*
X149604115Y-131125000D01*
X149604120Y-131125000D01*
X149604135Y-131124999D01*
X149640123Y-131122167D01*
X149640129Y-131122166D01*
X149662064Y-131115793D01*
X149759058Y-131087614D01*
X149759058Y-131087613D01*
X149759060Y-131087613D01*
X149759060Y-131087612D01*
X149628819Y-130957371D01*
X153975000Y-130957371D01*
X153975000Y-130957379D01*
X153975000Y-131450000D01*
X154625000Y-131450000D01*
X154625000Y-130399999D01*
X154625000Y-130399998D01*
X154532398Y-130399999D01*
X154532378Y-130400000D01*
X154497245Y-130402764D01*
X154346809Y-130446469D01*
X154346808Y-130446469D01*
X154211982Y-130526205D01*
X154211970Y-130526214D01*
X154101214Y-130636970D01*
X154101205Y-130636982D01*
X154021469Y-130771808D01*
X154021469Y-130771809D01*
X153977764Y-130922244D01*
X153975000Y-130957371D01*
X149628819Y-130957371D01*
X149200001Y-130528553D01*
X149200000Y-130528553D01*
X148640938Y-131087612D01*
X145345200Y-131087612D01*
X146636954Y-129795858D01*
X148225000Y-129795858D01*
X148225000Y-130554140D01*
X148227832Y-130590128D01*
X148227833Y-130590129D01*
X148227834Y-130590135D01*
X148272313Y-130743229D01*
X148272577Y-130744167D01*
X148274324Y-130747121D01*
X148274324Y-130747120D01*
X148274325Y-130747121D01*
X148846447Y-130175000D01*
X148846445Y-130174998D01*
X149553553Y-130174998D01*
X149553553Y-130175000D01*
X150125672Y-130747120D01*
X150125672Y-130747119D01*
X150125673Y-130747120D01*
X150127407Y-130744190D01*
X150172166Y-130590129D01*
X150172167Y-130590123D01*
X150174999Y-130554135D01*
X150175000Y-130554120D01*
X150175000Y-129795879D01*
X150174999Y-129795864D01*
X150172167Y-129759876D01*
X150172166Y-129759870D01*
X150127406Y-129605809D01*
X150127405Y-129605806D01*
X150127403Y-129605802D01*
X150127402Y-129605799D01*
X150127401Y-129605797D01*
X150125674Y-129602878D01*
X150125673Y-129602877D01*
X149553553Y-130174998D01*
X148846445Y-130174998D01*
X148274324Y-129602877D01*
X148274323Y-129602878D01*
X148273128Y-129604900D01*
X148272597Y-129605799D01*
X148272589Y-129605813D01*
X148227835Y-129759859D01*
X148227834Y-129759863D01*
X148227832Y-129759877D01*
X148225000Y-129795858D01*
X146636954Y-129795858D01*
X147170426Y-129262386D01*
X148640938Y-129262386D01*
X148946616Y-129568063D01*
X149200000Y-129821447D01*
X149200001Y-129821447D01*
X149759059Y-129262386D01*
X149640124Y-129227833D01*
X149640120Y-129227832D01*
X149640121Y-129227832D01*
X149604138Y-129225000D01*
X149604135Y-129225000D01*
X148795864Y-129225000D01*
X148795857Y-129225000D01*
X148759878Y-129227832D01*
X148759875Y-129227832D01*
X148759874Y-129227833D01*
X148717284Y-129240206D01*
X148640938Y-129262386D01*
X147170426Y-129262386D01*
X147232814Y-129199998D01*
X150698552Y-129199998D01*
X150698552Y-129199999D01*
X150698553Y-129200000D01*
X151841447Y-129200000D01*
X151841447Y-129199999D01*
X151270000Y-128628553D01*
X150698552Y-129199998D01*
X147232814Y-129199998D01*
X148518692Y-127914120D01*
X150020000Y-127914120D01*
X150020000Y-128635878D01*
X150021273Y-128652047D01*
X150022673Y-128669846D01*
X150022799Y-128671439D01*
X150022799Y-128671440D01*
X150022802Y-128671457D01*
X150067027Y-128823680D01*
X150067031Y-128823689D01*
X150067033Y-128823694D01*
X150147731Y-128960148D01*
X150147735Y-128960153D01*
X150147738Y-128960157D01*
X150189514Y-129001932D01*
X150189515Y-129001932D01*
X150916447Y-128275000D01*
X150916447Y-128274999D01*
X150189515Y-127548067D01*
X150189514Y-127548067D01*
X150147742Y-127589837D01*
X150147735Y-127589845D01*
X150147731Y-127589850D01*
X150067033Y-127726304D01*
X150067031Y-127726309D01*
X150067027Y-127726318D01*
X150022802Y-127878541D01*
X150022801Y-127878545D01*
X150022799Y-127878559D01*
X150020000Y-127914120D01*
X148518692Y-127914120D01*
X149158389Y-127274423D01*
X149186639Y-127253275D01*
X149209731Y-127240667D01*
X149269156Y-127225500D01*
X149576577Y-127225500D01*
X149576582Y-127225500D01*
X149651518Y-127214582D01*
X149709310Y-127186329D01*
X149767099Y-127158078D01*
X149767102Y-127158076D01*
X149856252Y-127068926D01*
X149862386Y-127064164D01*
X149866755Y-127062445D01*
X149879007Y-127053274D01*
X149902097Y-127040667D01*
X149961522Y-127025500D01*
X150019090Y-127025500D01*
X150057752Y-127031681D01*
X150513875Y-127181361D01*
X150524401Y-127184566D01*
X150525358Y-127184835D01*
X150530978Y-127186288D01*
X150538151Y-127189795D01*
X150580743Y-127195999D01*
X150584709Y-127196846D01*
X150588506Y-127198899D01*
X150610563Y-127205422D01*
X150623175Y-127211211D01*
X150642750Y-127228239D01*
X150646165Y-127230086D01*
X150647354Y-127232244D01*
X150675891Y-127257067D01*
X150695447Y-127324141D01*
X150695403Y-127346851D01*
X150695405Y-127346854D01*
X151623553Y-128275000D01*
X152350484Y-129001932D01*
X152350485Y-129001932D01*
X152392261Y-128960157D01*
X152392264Y-128960153D01*
X152472967Y-128823691D01*
X152472969Y-128823686D01*
X152517199Y-128671447D01*
X152517200Y-128671440D01*
X152517325Y-128669843D01*
X152525070Y-128635397D01*
X152530642Y-128620777D01*
X152572626Y-128565354D01*
X152572688Y-128565308D01*
X152633019Y-128541636D01*
X152643654Y-128540467D01*
X152673370Y-128540785D01*
X152781329Y-128554999D01*
X153378664Y-128554999D01*
X153378671Y-128554999D01*
X153494018Y-128539813D01*
X153494027Y-128539811D01*
X153506211Y-128534763D01*
X152950735Y-127979287D01*
X152929586Y-127951037D01*
X152929292Y-127950499D01*
X152924164Y-127941107D01*
X152909311Y-127872837D01*
X152933725Y-127807372D01*
X152989655Y-127765500D01*
X152993534Y-127764053D01*
X152996870Y-127762810D01*
X153040184Y-127754999D01*
X153364361Y-127754999D01*
X153399293Y-127760020D01*
X153424537Y-127767433D01*
X153477283Y-127798729D01*
X153880473Y-128201921D01*
X153880473Y-128201920D01*
X153880474Y-128201921D01*
X153913131Y-128123080D01*
X153914465Y-128120157D01*
X153914813Y-128119020D01*
X153914814Y-128119018D01*
X153930000Y-128003669D01*
X153930000Y-127506328D01*
X153914814Y-127390979D01*
X153914813Y-127390977D01*
X153914465Y-127389841D01*
X153913134Y-127386923D01*
X153872333Y-127288422D01*
X153863606Y-127254233D01*
X153862122Y-127240427D01*
X153874525Y-127171671D01*
X153922130Y-127120535D01*
X153926670Y-127117841D01*
X153989917Y-127100500D01*
X154030332Y-127100500D01*
X154055926Y-127103170D01*
X154080695Y-127108395D01*
X154105188Y-127116291D01*
X154114793Y-127120532D01*
X154176173Y-127147634D01*
X154200877Y-127150500D01*
X155399122Y-127150499D01*
X155407083Y-127149575D01*
X155407083Y-127149581D01*
X155407104Y-127149572D01*
X155416732Y-127148456D01*
X155422450Y-127148126D01*
X155423060Y-127148027D01*
X155425675Y-127146817D01*
X155524891Y-127103010D01*
X155603010Y-127024891D01*
X155647634Y-126923827D01*
X155650500Y-126899123D01*
X155650499Y-126600878D01*
X155647634Y-126576173D01*
X155643314Y-126566390D01*
X155633800Y-126532413D01*
X155630504Y-126507246D01*
X155640024Y-126441060D01*
X155641455Y-126437819D01*
X155647634Y-126423827D01*
X155650500Y-126399123D01*
X155650499Y-126100878D01*
X155647634Y-126076173D01*
X155643314Y-126066390D01*
X155633800Y-126032413D01*
X155630504Y-126007246D01*
X155640022Y-125941064D01*
X155647634Y-125923827D01*
X155650500Y-125899123D01*
X155650499Y-125788369D01*
X155655518Y-125753447D01*
X155658706Y-125742588D01*
X155696475Y-125683812D01*
X155760028Y-125654782D01*
X155829187Y-125664721D01*
X155836170Y-125667910D01*
X155872342Y-125693024D01*
X155900572Y-125721254D01*
X155921724Y-125749511D01*
X155923033Y-125751909D01*
X155924309Y-125753696D01*
X155940523Y-125785061D01*
X155942637Y-125791148D01*
X155949500Y-125831829D01*
X155949500Y-127360626D01*
X155944476Y-127395565D01*
X155937064Y-127420805D01*
X155905770Y-127473547D01*
X155803229Y-127576087D01*
X155803226Y-127576090D01*
X155794531Y-127584786D01*
X155794529Y-127584788D01*
X155775627Y-127617528D01*
X155775618Y-127617543D01*
X155748389Y-127664704D01*
X155748387Y-127664708D01*
X155748383Y-127664719D01*
X155724500Y-127753856D01*
X155724500Y-130401266D01*
X155719475Y-130436207D01*
X155715564Y-130449524D01*
X155677787Y-130508300D01*
X155614229Y-130537322D01*
X155614207Y-130537325D01*
X155612939Y-130537507D01*
X155554153Y-130531732D01*
X155548857Y-130529868D01*
X155526904Y-130519633D01*
X155403192Y-130446470D01*
X155403193Y-130446470D01*
X155252753Y-130402764D01*
X155252754Y-130402764D01*
X155217627Y-130400000D01*
X155217620Y-130400000D01*
X155125000Y-130400000D01*
X155125000Y-132999999D01*
X155217593Y-132999999D01*
X155217604Y-132999999D01*
X155217625Y-132999998D01*
X155252756Y-132997234D01*
X155403189Y-132953530D01*
X155538019Y-132873792D01*
X155538024Y-132873788D01*
X155623602Y-132788209D01*
X155651848Y-132767063D01*
X155671761Y-132756190D01*
X155726879Y-132741099D01*
X155730630Y-132740969D01*
X155752800Y-132742189D01*
X155809839Y-132750500D01*
X156440160Y-132750499D01*
X156512179Y-132740007D01*
X156623266Y-132685700D01*
X156710700Y-132598266D01*
X156765007Y-132487179D01*
X156775500Y-132415161D01*
X156775499Y-130984840D01*
X156765007Y-130912821D01*
X156712379Y-130805169D01*
X156710936Y-130801970D01*
X156710698Y-130801731D01*
X156623268Y-130714301D01*
X156623267Y-130714300D01*
X156551170Y-130679054D01*
X156521406Y-130664503D01*
X156521398Y-130664498D01*
X156521398Y-130664499D01*
X156520901Y-130664256D01*
X156506863Y-130656217D01*
X156484999Y-130641726D01*
X156439994Y-130588283D01*
X156435987Y-130579171D01*
X156425500Y-130529263D01*
X156425500Y-130367662D01*
X156430521Y-130332735D01*
X156433686Y-130321954D01*
X156433707Y-130321880D01*
X156471477Y-130263101D01*
X156535031Y-130234072D01*
X156604186Y-130244010D01*
X156611172Y-130247200D01*
X156647342Y-130272313D01*
X156665492Y-130290463D01*
X156666174Y-130290955D01*
X156668680Y-130292303D01*
X156720033Y-130321951D01*
X156720035Y-130321952D01*
X156720034Y-130321952D01*
X156731051Y-130328312D01*
X156734011Y-130330021D01*
X156810438Y-130350500D01*
X156810440Y-130350500D01*
X158189560Y-130350500D01*
X158189562Y-130350500D01*
X158265989Y-130330021D01*
X158334511Y-130290460D01*
X158390460Y-130234511D01*
X158430021Y-130165989D01*
X158450500Y-130089562D01*
X158450500Y-128010438D01*
X158430021Y-127934011D01*
X158418537Y-127914120D01*
X158413479Y-127905358D01*
X158413479Y-127905359D01*
X158413478Y-127905357D01*
X158390464Y-127865495D01*
X158390458Y-127865487D01*
X158390454Y-127865483D01*
X158390453Y-127865481D01*
X158334517Y-127809545D01*
X158334515Y-127809544D01*
X158334512Y-127809541D01*
X158334504Y-127809535D01*
X158282883Y-127779732D01*
X158266872Y-127770488D01*
X158266050Y-127770004D01*
X158265995Y-127769981D01*
X158265991Y-127769980D01*
X158265990Y-127769979D01*
X158240513Y-127763152D01*
X158240509Y-127763150D01*
X158189563Y-127749500D01*
X158189562Y-127749500D01*
X156889562Y-127749500D01*
X156810438Y-127749500D01*
X156810435Y-127749500D01*
X156807626Y-127749500D01*
X156793223Y-127750271D01*
X156774687Y-127749829D01*
X156708136Y-127728552D01*
X156663655Y-127674677D01*
X156661342Y-127669275D01*
X156651333Y-127619695D01*
X156651535Y-127587133D01*
X156650500Y-127577356D01*
X156650500Y-125578857D01*
X156650500Y-125578856D01*
X156626614Y-125489712D01*
X156618183Y-125475109D01*
X156604803Y-125451936D01*
X156591688Y-125419174D01*
X156588415Y-125405682D01*
X156591742Y-125335893D01*
X156632224Y-125279018D01*
X156632518Y-125278786D01*
X156633504Y-125278010D01*
X156686749Y-125253685D01*
X156691672Y-125252736D01*
X156715117Y-125250500D01*
X156871142Y-125250500D01*
X156871144Y-125250500D01*
X156960288Y-125226614D01*
X156969762Y-125221144D01*
X157040212Y-125180470D01*
X157655469Y-124565213D01*
X157701614Y-124485288D01*
X157706993Y-124465212D01*
X157725500Y-124396144D01*
X157725500Y-116328856D01*
X157701614Y-116239712D01*
X157694052Y-116226614D01*
X157691244Y-116221750D01*
X157679018Y-116200575D01*
X157679017Y-116200572D01*
X157679016Y-116200571D01*
X157655477Y-116159800D01*
X157655473Y-116159793D01*
X157655472Y-116159791D01*
X157655468Y-116159786D01*
X157655464Y-116159782D01*
X157655460Y-116159777D01*
X156970470Y-115474788D01*
X156949321Y-115446538D01*
X156943899Y-115436608D01*
X156929046Y-115368338D01*
X156953460Y-115302873D01*
X157009390Y-115261001D01*
X157013269Y-115259554D01*
X157016605Y-115258311D01*
X157059919Y-115250500D01*
X158189560Y-115250500D01*
X158189562Y-115250500D01*
X158265989Y-115230021D01*
X158334511Y-115190460D01*
X158390460Y-115134511D01*
X158430021Y-115065989D01*
X158450500Y-114989562D01*
X158450500Y-112910438D01*
X158430021Y-112834011D01*
X158430017Y-112834004D01*
X158390464Y-112765495D01*
X158390458Y-112765487D01*
X158390454Y-112765483D01*
X158390453Y-112765481D01*
X158334517Y-112709545D01*
X158334515Y-112709544D01*
X158334512Y-112709541D01*
X158334504Y-112709535D01*
X158304400Y-112692154D01*
X158277117Y-112676403D01*
X158277116Y-112676402D01*
X158265995Y-112669982D01*
X158265990Y-112669979D01*
X158237417Y-112662323D01*
X158233137Y-112661176D01*
X158233131Y-112661174D01*
X158189562Y-112649500D01*
X156929505Y-112649500D01*
X156894570Y-112644477D01*
X156883716Y-112641290D01*
X156824938Y-112603516D01*
X156795913Y-112539960D01*
X156805856Y-112470803D01*
X156809046Y-112463820D01*
X156834152Y-112427660D01*
X156898785Y-112363027D01*
X156898792Y-112363018D01*
X156978530Y-112228188D01*
X157022233Y-112077758D01*
X157022234Y-112077753D01*
X157024999Y-112042619D01*
X157025000Y-112042606D01*
X157025000Y-111549999D01*
X156375000Y-111549999D01*
X156375000Y-112599998D01*
X156471460Y-112599998D01*
X156471460Y-112600563D01*
X156498690Y-112602535D01*
X156511988Y-112605329D01*
X156573549Y-112638372D01*
X156607474Y-112699453D01*
X156605184Y-112762600D01*
X156602692Y-112770834D01*
X156591396Y-112796914D01*
X156569979Y-112834009D01*
X156569979Y-112834010D01*
X156549500Y-112910439D01*
X156549500Y-114736626D01*
X156544476Y-114771564D01*
X156541289Y-114782417D01*
X156503514Y-114841194D01*
X156439957Y-114870217D01*
X156370807Y-114860276D01*
X156363829Y-114857089D01*
X156327657Y-114831975D01*
X155274426Y-113778744D01*
X155253274Y-113750488D01*
X155240667Y-113727399D01*
X155225500Y-113667974D01*
X155225500Y-112554504D01*
X155230521Y-112519577D01*
X155233707Y-112508724D01*
X155271477Y-112449943D01*
X155335031Y-112420914D01*
X155404186Y-112430852D01*
X155411172Y-112434042D01*
X155447342Y-112459155D01*
X155461971Y-112473784D01*
X155461980Y-112473791D01*
X155596810Y-112553529D01*
X155747240Y-112597232D01*
X155747241Y-112597232D01*
X155747244Y-112597233D01*
X155750245Y-112597469D01*
X155782385Y-112599998D01*
X155875000Y-112599997D01*
X155875000Y-111049999D01*
X156375000Y-111049999D01*
X157024999Y-111049999D01*
X157024999Y-110557395D01*
X157024998Y-110557373D01*
X157022234Y-110522242D01*
X156978530Y-110371809D01*
X156898792Y-110236979D01*
X156898785Y-110236970D01*
X156788028Y-110126213D01*
X156788019Y-110126206D01*
X156653189Y-110046468D01*
X156502753Y-110002763D01*
X156502754Y-110002763D01*
X156467627Y-109999999D01*
X156467620Y-109999999D01*
X156375000Y-109999999D01*
X156375000Y-111049999D01*
X155875000Y-111049999D01*
X155875000Y-109999998D01*
X155875000Y-109999997D01*
X155782398Y-109999998D01*
X155782378Y-109999999D01*
X155747245Y-110002763D01*
X155596809Y-110046468D01*
X155596808Y-110046468D01*
X155461982Y-110126204D01*
X155461965Y-110126217D01*
X155376396Y-110211787D01*
X155348138Y-110232940D01*
X155328235Y-110243807D01*
X155273154Y-110258897D01*
X155269415Y-110259028D01*
X155247198Y-110257809D01*
X155232220Y-110255627D01*
X155190161Y-110249499D01*
X155190157Y-110249499D01*
X155190156Y-110249499D01*
X154559850Y-110249499D01*
X154559845Y-110249499D01*
X154494438Y-110259028D01*
X154487821Y-110259992D01*
X154376728Y-110314301D01*
X154289302Y-110401727D01*
X154234992Y-110512819D01*
X154234992Y-110512821D01*
X154224500Y-110584837D01*
X154224500Y-112015158D01*
X154234993Y-112087178D01*
X154289301Y-112198267D01*
X154376731Y-112285697D01*
X154376732Y-112285697D01*
X154376970Y-112285935D01*
X154380175Y-112287381D01*
X154438945Y-112316112D01*
X154468122Y-112335966D01*
X154480313Y-112347104D01*
X154516100Y-112405280D01*
X154519925Y-112418969D01*
X154524500Y-112452339D01*
X154524500Y-113921144D01*
X154545495Y-113999500D01*
X154548386Y-114010288D01*
X154554035Y-114020072D01*
X154554037Y-114020079D01*
X154554039Y-114020079D01*
X154594525Y-114090205D01*
X154594527Y-114090207D01*
X154594531Y-114090213D01*
X154594535Y-114090218D01*
X156975573Y-116471255D01*
X156996723Y-116499507D01*
X157009331Y-116522596D01*
X157024500Y-116582025D01*
X157024500Y-124135626D01*
X157019476Y-124170563D01*
X157012064Y-124195804D01*
X156980769Y-124248548D01*
X156728744Y-124500573D01*
X156700493Y-124521722D01*
X156677405Y-124534330D01*
X156617975Y-124549500D01*
X156114374Y-124549500D01*
X156079438Y-124544477D01*
X156054196Y-124537065D01*
X156001450Y-124505768D01*
X155965215Y-124469532D01*
X155963286Y-124468052D01*
X155946211Y-124452190D01*
X155938426Y-124443458D01*
X155937152Y-124441331D01*
X155936805Y-124441639D01*
X155906758Y-124407934D01*
X155906734Y-124407883D01*
X155906554Y-124407704D01*
X155899720Y-124400000D01*
X155812129Y-124400000D01*
X155804027Y-124399735D01*
X155801502Y-124399569D01*
X155800439Y-124399500D01*
X155800438Y-124399500D01*
X155574562Y-124399500D01*
X155539623Y-124394476D01*
X155524623Y-124390071D01*
X155512534Y-124382301D01*
X155512200Y-124383182D01*
X155466484Y-124365810D01*
X155457588Y-124362027D01*
X155457524Y-124361997D01*
X155455842Y-124361202D01*
X155453422Y-124360060D01*
X155401205Y-124313637D01*
X155382375Y-124246352D01*
X155402906Y-124179578D01*
X155404024Y-124177886D01*
X155457389Y-124132813D01*
X155495954Y-124115785D01*
X155520435Y-124107894D01*
X155545213Y-124102668D01*
X155570798Y-124100000D01*
X155899717Y-124100000D01*
X155899718Y-124100000D01*
X155889482Y-124014752D01*
X155834520Y-123875377D01*
X155822708Y-123859800D01*
X155743996Y-123756003D01*
X155713777Y-123733087D01*
X155688974Y-123707974D01*
X155674770Y-123688751D01*
X155650762Y-123623136D01*
X155650499Y-123615061D01*
X155650499Y-123600885D01*
X155650499Y-123600878D01*
X155647634Y-123576173D01*
X155640330Y-123559632D01*
X155637725Y-123547775D01*
X155636388Y-123545852D01*
X155632941Y-123526003D01*
X155629781Y-123511622D01*
X155629674Y-123505240D01*
X155629900Y-123502629D01*
X155629590Y-123500268D01*
X155629473Y-123493228D01*
X155635853Y-123470071D01*
X155640024Y-123441061D01*
X155642724Y-123434945D01*
X155647634Y-123423827D01*
X155650500Y-123399123D01*
X155650499Y-123100878D01*
X155647634Y-123076173D01*
X155643314Y-123066390D01*
X155633800Y-123032413D01*
X155630504Y-123007246D01*
X155640021Y-122941067D01*
X155647634Y-122923827D01*
X155650500Y-122899123D01*
X155650499Y-122887261D01*
X155653283Y-122873795D01*
X155652882Y-122871672D01*
X155658069Y-122850647D01*
X155660668Y-122838079D01*
X155662561Y-122833695D01*
X155663691Y-122831552D01*
X155664122Y-122830084D01*
X155667129Y-122823124D01*
X155676629Y-122811692D01*
X155689942Y-122788090D01*
X155690856Y-122787101D01*
X155690859Y-122787100D01*
X155692175Y-122785676D01*
X155708252Y-122771099D01*
X155743996Y-122743994D01*
X155743999Y-122743991D01*
X155834520Y-122624622D01*
X155889482Y-122485248D01*
X155889482Y-122485247D01*
X155889483Y-122485242D01*
X155890129Y-122481842D01*
X155890367Y-122477878D01*
X155899720Y-122400001D01*
X155899719Y-122400000D01*
X155575695Y-122400000D01*
X155540761Y-122394977D01*
X155525762Y-122390573D01*
X155513082Y-122382424D01*
X155512825Y-122383102D01*
X155483623Y-122372002D01*
X155483621Y-122372002D01*
X155462971Y-122364153D01*
X155454024Y-122360344D01*
X155453362Y-122360031D01*
X155401170Y-122313580D01*
X155382376Y-122246286D01*
X155402906Y-122179578D01*
X155404024Y-122177886D01*
X155457389Y-122132813D01*
X155495954Y-122115785D01*
X155520435Y-122107894D01*
X155545213Y-122102668D01*
X155570798Y-122100000D01*
X155899717Y-122100000D01*
X155899718Y-122100000D01*
X155889482Y-122014752D01*
X155834520Y-121875377D01*
X155829085Y-121868210D01*
X155743996Y-121756003D01*
X155713777Y-121733087D01*
X155688974Y-121707974D01*
X155683505Y-121700573D01*
X155674770Y-121688751D01*
X155650762Y-121623136D01*
X155650499Y-121615061D01*
X155650499Y-121600885D01*
X155650499Y-121600878D01*
X155647634Y-121576173D01*
X155640330Y-121559632D01*
X155637725Y-121547775D01*
X155636388Y-121545852D01*
X155632941Y-121526003D01*
X155629781Y-121511622D01*
X155629674Y-121505240D01*
X155629900Y-121502629D01*
X155629590Y-121500268D01*
X155629473Y-121493228D01*
X155635853Y-121470071D01*
X155640024Y-121441061D01*
X155642724Y-121434945D01*
X155647634Y-121423827D01*
X155650500Y-121399123D01*
X155650499Y-121100878D01*
X155647634Y-121076173D01*
X155643314Y-121066390D01*
X155633800Y-121032413D01*
X155630504Y-121007246D01*
X155640021Y-120941067D01*
X155647634Y-120923827D01*
X155650500Y-120899123D01*
X155650499Y-120887261D01*
X155653283Y-120873795D01*
X155652882Y-120871672D01*
X155658069Y-120850647D01*
X155660668Y-120838079D01*
X155662561Y-120833695D01*
X155663691Y-120831552D01*
X155664122Y-120830084D01*
X155667129Y-120823124D01*
X155676629Y-120811692D01*
X155689942Y-120788090D01*
X155690856Y-120787101D01*
X155690859Y-120787100D01*
X155692175Y-120785676D01*
X155708252Y-120771099D01*
X155743996Y-120743994D01*
X155743999Y-120743991D01*
X155834520Y-120624622D01*
X155889482Y-120485248D01*
X155889482Y-120485247D01*
X155889483Y-120485242D01*
X155890129Y-120481842D01*
X155890367Y-120477878D01*
X155899720Y-120400001D01*
X155899719Y-120400000D01*
X155575695Y-120400000D01*
X155540761Y-120394977D01*
X155525762Y-120390573D01*
X155513082Y-120382424D01*
X155512825Y-120383102D01*
X155483623Y-120372002D01*
X155483621Y-120372002D01*
X155462971Y-120364153D01*
X155454024Y-120360344D01*
X155453362Y-120360031D01*
X155401170Y-120313580D01*
X155382376Y-120246286D01*
X155402906Y-120179578D01*
X155404024Y-120177886D01*
X155457389Y-120132813D01*
X155495954Y-120115785D01*
X155520435Y-120107894D01*
X155545213Y-120102668D01*
X155570798Y-120100000D01*
X155899717Y-120100000D01*
X155899718Y-120100000D01*
X155889482Y-120014752D01*
X155834520Y-119875377D01*
X155834518Y-119875374D01*
X155743996Y-119756003D01*
X155713777Y-119733087D01*
X155688974Y-119707974D01*
X155674770Y-119688751D01*
X155650762Y-119623136D01*
X155650499Y-119615061D01*
X155650499Y-119600885D01*
X155650499Y-119600878D01*
X155647634Y-119576173D01*
X155640330Y-119559632D01*
X155637725Y-119547775D01*
X155636388Y-119545852D01*
X155632941Y-119526003D01*
X155629781Y-119511622D01*
X155629674Y-119505240D01*
X155629900Y-119502629D01*
X155629590Y-119500268D01*
X155629473Y-119493228D01*
X155635853Y-119470071D01*
X155640024Y-119441061D01*
X155642724Y-119434945D01*
X155647634Y-119423827D01*
X155650500Y-119399123D01*
X155650499Y-119100878D01*
X155647634Y-119076173D01*
X155643314Y-119066390D01*
X155633800Y-119032413D01*
X155630504Y-119007246D01*
X155640021Y-118941067D01*
X155647634Y-118923827D01*
X155650500Y-118899123D01*
X155650499Y-118887261D01*
X155653283Y-118873795D01*
X155652882Y-118871672D01*
X155658069Y-118850647D01*
X155660668Y-118838079D01*
X155662561Y-118833695D01*
X155663691Y-118831552D01*
X155664122Y-118830084D01*
X155667129Y-118823124D01*
X155676629Y-118811692D01*
X155689942Y-118788090D01*
X155690856Y-118787101D01*
X155690859Y-118787100D01*
X155692175Y-118785676D01*
X155708252Y-118771099D01*
X155743996Y-118743994D01*
X155743999Y-118743991D01*
X155834520Y-118624622D01*
X155889482Y-118485248D01*
X155889482Y-118485247D01*
X155889483Y-118485242D01*
X155890129Y-118481842D01*
X155890367Y-118477878D01*
X155899720Y-118400001D01*
X155899719Y-118400000D01*
X155575695Y-118400000D01*
X155540761Y-118394977D01*
X155525762Y-118390573D01*
X155513082Y-118382424D01*
X155512825Y-118383102D01*
X155483623Y-118372002D01*
X155483621Y-118372002D01*
X155462971Y-118364153D01*
X155454024Y-118360344D01*
X155453362Y-118360031D01*
X155401170Y-118313580D01*
X155382376Y-118246286D01*
X155402906Y-118179578D01*
X155404024Y-118177886D01*
X155457389Y-118132813D01*
X155495954Y-118115785D01*
X155520435Y-118107894D01*
X155545213Y-118102668D01*
X155570798Y-118100000D01*
X155899717Y-118100000D01*
X155899718Y-118100000D01*
X155889482Y-118014752D01*
X155834520Y-117875377D01*
X155793667Y-117821504D01*
X155743996Y-117756003D01*
X155713777Y-117733087D01*
X155688974Y-117707974D01*
X155674770Y-117688751D01*
X155650762Y-117623136D01*
X155650499Y-117615061D01*
X155650499Y-117600885D01*
X155650499Y-117600878D01*
X155647634Y-117576173D01*
X155640330Y-117559632D01*
X155637725Y-117547775D01*
X155636388Y-117545852D01*
X155632941Y-117526003D01*
X155629781Y-117511622D01*
X155629674Y-117505240D01*
X155629900Y-117502629D01*
X155629590Y-117500268D01*
X155629473Y-117493228D01*
X155635853Y-117470071D01*
X155640024Y-117441061D01*
X155642724Y-117434945D01*
X155647634Y-117423827D01*
X155650500Y-117399123D01*
X155650499Y-117100878D01*
X155647634Y-117076173D01*
X155643314Y-117066390D01*
X155633800Y-117032413D01*
X155630504Y-117007246D01*
X155640021Y-116941067D01*
X155647634Y-116923827D01*
X155650500Y-116899123D01*
X155650499Y-116887261D01*
X155653283Y-116873795D01*
X155652882Y-116871672D01*
X155658069Y-116850647D01*
X155660668Y-116838079D01*
X155662561Y-116833695D01*
X155663691Y-116831552D01*
X155664122Y-116830084D01*
X155667129Y-116823124D01*
X155676629Y-116811692D01*
X155689942Y-116788090D01*
X155690856Y-116787101D01*
X155690859Y-116787100D01*
X155692175Y-116785676D01*
X155708252Y-116771099D01*
X155743996Y-116743994D01*
X155743999Y-116743991D01*
X155834520Y-116624622D01*
X155889482Y-116485248D01*
X155889482Y-116485247D01*
X155889483Y-116485242D01*
X155890129Y-116481842D01*
X155890367Y-116477878D01*
X155899720Y-116400001D01*
X155899719Y-116400000D01*
X155570803Y-116400000D01*
X155545204Y-116397329D01*
X155520430Y-116392102D01*
X155495942Y-116384207D01*
X155423830Y-116352366D01*
X155399128Y-116349500D01*
X155399126Y-116349500D01*
X154941830Y-116349500D01*
X154906898Y-116344478D01*
X154901789Y-116342978D01*
X154843010Y-116305205D01*
X154817798Y-116250000D01*
X154805330Y-116250000D01*
X154791830Y-116250000D01*
X154756889Y-116244975D01*
X154741890Y-116240570D01*
X154683144Y-116202827D01*
X154681957Y-116201458D01*
X154654477Y-116146583D01*
X154652832Y-116139021D01*
X154650000Y-116112668D01*
X154650000Y-116100000D01*
X154950000Y-116100000D01*
X155899717Y-116100000D01*
X155899718Y-116100000D01*
X155889482Y-116014752D01*
X155834520Y-115875377D01*
X155834518Y-115875374D01*
X155743996Y-115756002D01*
X155624624Y-115665480D01*
X155624622Y-115665479D01*
X155508085Y-115619523D01*
X155485245Y-115610516D01*
X155440290Y-115605118D01*
X155397668Y-115600000D01*
X155397662Y-115600000D01*
X154950000Y-115600000D01*
X154950000Y-116100000D01*
X154650000Y-116100000D01*
X154650000Y-115600000D01*
X154202340Y-115600000D01*
X154166819Y-115604264D01*
X154114752Y-115610516D01*
X153967551Y-115668565D01*
X153964723Y-115669888D01*
X153946002Y-115677004D01*
X153876344Y-115682422D01*
X153814813Y-115649319D01*
X153781892Y-115592122D01*
X153779445Y-115582654D01*
X153775500Y-115551626D01*
X153775500Y-114728506D01*
X153783095Y-114685777D01*
X153817161Y-114592974D01*
X153857570Y-114482891D01*
X153886290Y-114437944D01*
X153905520Y-114418716D01*
X153984577Y-114281784D01*
X154025500Y-114129057D01*
X154025500Y-113970943D01*
X153984577Y-113818216D01*
X153955389Y-113767660D01*
X153955389Y-113767659D01*
X153914320Y-113696526D01*
X153905524Y-113681290D01*
X153905518Y-113681282D01*
X153905514Y-113681278D01*
X153905513Y-113681276D01*
X153793722Y-113569485D01*
X153793720Y-113569484D01*
X153793717Y-113569481D01*
X153793709Y-113569475D01*
X153707445Y-113519671D01*
X153656807Y-113490435D01*
X153656783Y-113490422D01*
X153544979Y-113460464D01*
X153504057Y-113449500D01*
X153504056Y-113449500D01*
X153345943Y-113449500D01*
X153193218Y-113490422D01*
X153193211Y-113490424D01*
X153193210Y-113490425D01*
X153193200Y-113490430D01*
X153056298Y-113569470D01*
X153056294Y-113569472D01*
X153056290Y-113569475D01*
X153056282Y-113569481D01*
X153056278Y-113569484D01*
X153056276Y-113569485D01*
X152944485Y-113681276D01*
X152944484Y-113681278D01*
X152944481Y-113681281D01*
X152944481Y-113681282D01*
X152944475Y-113681290D01*
X152944472Y-113681294D01*
X152944470Y-113681298D01*
X152865430Y-113818200D01*
X152865425Y-113818210D01*
X152865424Y-113818211D01*
X152865422Y-113818218D01*
X152824500Y-113970943D01*
X152824500Y-114129056D01*
X152852437Y-114233320D01*
X152858619Y-114256389D01*
X152865423Y-114281783D01*
X152865424Y-114281786D01*
X152865425Y-114281788D01*
X152865430Y-114281798D01*
X152925450Y-114385756D01*
X152944475Y-114418709D01*
X152944481Y-114418717D01*
X152944484Y-114418720D01*
X152944485Y-114418722D01*
X152963704Y-114437941D01*
X152992428Y-114482891D01*
X153066905Y-114685777D01*
X153074500Y-114728507D01*
X153074500Y-115961626D01*
X153069476Y-115996564D01*
X153066289Y-116007417D01*
X153028514Y-116066194D01*
X152964957Y-116095217D01*
X152895807Y-116085276D01*
X152888829Y-116082089D01*
X152852657Y-116056975D01*
X152415221Y-115619538D01*
X152415214Y-115619532D01*
X152415208Y-115619527D01*
X152415203Y-115619523D01*
X152356466Y-115585612D01*
X152356461Y-115585609D01*
X152335290Y-115573387D01*
X152335289Y-115573386D01*
X152335288Y-115573386D01*
X152246144Y-115549500D01*
X152246143Y-115549500D01*
X148414374Y-115549500D01*
X148379438Y-115544477D01*
X148354196Y-115537065D01*
X148301451Y-115505769D01*
X147499426Y-114703744D01*
X147478274Y-114675488D01*
X147465667Y-114652399D01*
X147450500Y-114592974D01*
X147450500Y-113359810D01*
X147461977Y-113320723D01*
X147469282Y-113289815D01*
X147495534Y-113264484D01*
X147496476Y-113263434D01*
X147497391Y-113262692D01*
X147519562Y-113241301D01*
X147588090Y-113227672D01*
X147653107Y-113253255D01*
X147677614Y-113278654D01*
X147680610Y-113282809D01*
X147694591Y-113307880D01*
X147782032Y-113518980D01*
X147782292Y-113519618D01*
X147782316Y-113519668D01*
X147811072Y-113569475D01*
X147933099Y-113780831D01*
X147933100Y-113780832D01*
X147933102Y-113780835D01*
X148116672Y-114020070D01*
X148116678Y-114020077D01*
X148116679Y-114020078D01*
X148116685Y-114020085D01*
X148329914Y-114233314D01*
X148329921Y-114233320D01*
X148329924Y-114233322D01*
X148329928Y-114233326D01*
X148519818Y-114379033D01*
X148569168Y-114416900D01*
X148826899Y-114565701D01*
X148832093Y-114568701D01*
X148832095Y-114568702D01*
X148832683Y-114569041D01*
X148837823Y-114570786D01*
X148908589Y-114600098D01*
X149104872Y-114681402D01*
X149104873Y-114681402D01*
X149108939Y-114683086D01*
X149108940Y-114683086D01*
X149108942Y-114683087D01*
X149108945Y-114683087D01*
X149109692Y-114683397D01*
X149112842Y-114684132D01*
X149400232Y-114761138D01*
X149699217Y-114800500D01*
X149699224Y-114800500D01*
X150000776Y-114800500D01*
X150000783Y-114800500D01*
X150299768Y-114761138D01*
X150591058Y-114683087D01*
X150869668Y-114567683D01*
X151130832Y-114416900D01*
X151370080Y-114233319D01*
X151583319Y-114020080D01*
X151766900Y-113780832D01*
X151917683Y-113519668D01*
X152033087Y-113241058D01*
X152111138Y-112949768D01*
X152150500Y-112650783D01*
X152150500Y-112349217D01*
X152111138Y-112050232D01*
X152033087Y-111758942D01*
X152027926Y-111746483D01*
X151917685Y-111480338D01*
X151917683Y-111480334D01*
X151917683Y-111480332D01*
X151766900Y-111219168D01*
X151672807Y-111096543D01*
X151637093Y-111049999D01*
X151583326Y-110979928D01*
X151583322Y-110979924D01*
X151583320Y-110979921D01*
X151583314Y-110979914D01*
X151370085Y-110766685D01*
X151370078Y-110766679D01*
X151370075Y-110766676D01*
X151370070Y-110766672D01*
X151130835Y-110583102D01*
X151130834Y-110583101D01*
X151130831Y-110583099D01*
X150869671Y-110432318D01*
X150869672Y-110432318D01*
X150869668Y-110432316D01*
X150869618Y-110432292D01*
X150868980Y-110432032D01*
X150591058Y-110316912D01*
X150432769Y-110274499D01*
X150299766Y-110238861D01*
X150299760Y-110238860D01*
X150299755Y-110238859D01*
X150004883Y-110200039D01*
X150002867Y-110199705D01*
X150000793Y-110199500D01*
X150000788Y-110199500D01*
X150000783Y-110199500D01*
X149699217Y-110199500D01*
X149699211Y-110199500D01*
X149699206Y-110199500D01*
X149697129Y-110199705D01*
X149695115Y-110200039D01*
X149400243Y-110238859D01*
X149400236Y-110238860D01*
X149400233Y-110238861D01*
X149344103Y-110253901D01*
X149108940Y-110316912D01*
X148831018Y-110432032D01*
X148830388Y-110432288D01*
X148830330Y-110432316D01*
X148569163Y-110583102D01*
X148329928Y-110766672D01*
X148329913Y-110766686D01*
X148329905Y-110766693D01*
X148116693Y-110979905D01*
X148116686Y-110979913D01*
X148116672Y-110979928D01*
X147933102Y-111219163D01*
X147782314Y-111480334D01*
X147695883Y-111689000D01*
X147670317Y-111720724D01*
X147651740Y-111746483D01*
X147617718Y-111759865D01*
X147616480Y-111760459D01*
X147615386Y-111760782D01*
X147586720Y-111772058D01*
X147518194Y-111758422D01*
X147467919Y-111709902D01*
X147454999Y-111677057D01*
X147453821Y-111672070D01*
X147450500Y-111643564D01*
X147450500Y-111114372D01*
X147455522Y-111079439D01*
X147462934Y-111054194D01*
X147494228Y-111001452D01*
X148741826Y-109753855D01*
X150580469Y-107915212D01*
X150626614Y-107835288D01*
X150650500Y-107746144D01*
X150650500Y-95353856D01*
X150626614Y-95264712D01*
X150580470Y-95184788D01*
X149415212Y-94019530D01*
X149415211Y-94019529D01*
X149415208Y-94019527D01*
X149397052Y-94009045D01*
X149392553Y-94005885D01*
X149389617Y-94002202D01*
X149374072Y-93989976D01*
X149363953Y-93979363D01*
X149350297Y-93952873D01*
X149349003Y-93951249D01*
X149348889Y-93950142D01*
X149331940Y-93917261D01*
X149337724Y-93849917D01*
X149342174Y-93838158D01*
X149357823Y-93809170D01*
X149476433Y-93645919D01*
X149574726Y-93453009D01*
X149641630Y-93247097D01*
X149675500Y-93033254D01*
X149675500Y-92816746D01*
X149641630Y-92602903D01*
X149641629Y-92602899D01*
X149601621Y-92479765D01*
X149595606Y-92445005D01*
X149595209Y-92431115D01*
X149612972Y-92363547D01*
X149664445Y-92316307D01*
X149670723Y-92313220D01*
X149725429Y-92300500D01*
X151557667Y-92300500D01*
X151592603Y-92305523D01*
G37*
%TD.AperFunction*%
%TA.AperFunction,Conductor*%
G36*
X153726685Y-123603410D02*
G01*
X153726709Y-123603201D01*
X153733115Y-123603909D01*
X153736829Y-123604869D01*
X153741380Y-123605524D01*
X153748024Y-123607475D01*
X153747944Y-123607744D01*
X153767327Y-123612757D01*
X153767901Y-123612997D01*
X153822158Y-123657018D01*
X153844002Y-123723370D01*
X153844057Y-123725062D01*
X153840668Y-123758155D01*
X153840336Y-123759532D01*
X153828806Y-123789557D01*
X153828419Y-123790271D01*
X153819623Y-123804202D01*
X153762782Y-123882214D01*
X153762779Y-123882221D01*
X153710518Y-124014746D01*
X153709868Y-124018162D01*
X153709632Y-124022120D01*
X153700278Y-124100000D01*
X153700279Y-124100000D01*
X154024305Y-124100000D01*
X154059237Y-124105021D01*
X154074235Y-124109425D01*
X154086920Y-124117578D01*
X154087180Y-124116896D01*
X154137061Y-124135861D01*
X154145970Y-124139652D01*
X154146568Y-124139935D01*
X154146617Y-124139958D01*
X154198817Y-124186401D01*
X154217621Y-124253692D01*
X154197079Y-124320439D01*
X154195966Y-124322123D01*
X154142607Y-124367186D01*
X154131515Y-124372084D01*
X154105188Y-124383708D01*
X154080701Y-124391602D01*
X154055925Y-124396829D01*
X154030328Y-124399500D01*
X153699561Y-124399500D01*
X153691932Y-124400000D01*
X153680944Y-124400000D01*
X153665222Y-124409841D01*
X153663805Y-124410230D01*
X153646784Y-124414790D01*
X153646780Y-124414792D01*
X153614713Y-124423384D01*
X153614690Y-124423396D01*
X153534792Y-124469525D01*
X153534789Y-124469527D01*
X153534786Y-124469530D01*
X153467252Y-124537065D01*
X153394532Y-124609785D01*
X153394530Y-124609787D01*
X153394530Y-124609788D01*
X153387221Y-124622446D01*
X153387214Y-124622457D01*
X153373783Y-124645722D01*
X153373780Y-124645725D01*
X153348388Y-124689707D01*
X153348382Y-124689725D01*
X153337399Y-124730716D01*
X153324500Y-124778856D01*
X153324500Y-125221144D01*
X153325966Y-125226613D01*
X153325966Y-125226614D01*
X153338797Y-125274501D01*
X153338797Y-125274502D01*
X153348383Y-125310283D01*
X153348384Y-125310285D01*
X153394523Y-125390202D01*
X153394527Y-125390208D01*
X153394537Y-125390220D01*
X153441528Y-125437210D01*
X153462682Y-125465469D01*
X153470173Y-125479189D01*
X153485024Y-125547447D01*
X153484895Y-125549253D01*
X153465527Y-125607456D01*
X153461346Y-125613962D01*
X153444711Y-125634605D01*
X153304535Y-125774781D01*
X153304536Y-125774782D01*
X153304529Y-125774788D01*
X153304525Y-125774793D01*
X153276250Y-125823767D01*
X153276251Y-125823768D01*
X153274042Y-125827594D01*
X153270934Y-125832980D01*
X153269532Y-125835408D01*
X153269530Y-125835409D01*
X153269526Y-125835418D01*
X153258387Y-125854709D01*
X153234501Y-125943855D01*
X153234501Y-125944908D01*
X153234145Y-125946555D01*
X153233440Y-125951915D01*
X153233002Y-125951857D01*
X153223481Y-125996010D01*
X153220982Y-126001535D01*
X153175419Y-126054505D01*
X153108493Y-126074432D01*
X153106726Y-126074439D01*
X153065702Y-126067628D01*
X153064719Y-126067288D01*
X153057799Y-126064661D01*
X153050711Y-126061725D01*
X153048296Y-126060534D01*
X153045031Y-126059303D01*
X153041322Y-126057836D01*
X153035580Y-126055457D01*
X153027417Y-126054383D01*
X153001318Y-126047390D01*
X152915891Y-126024500D01*
X152915890Y-126024500D01*
X152520912Y-126024500D01*
X152482249Y-126018318D01*
X152026122Y-125868636D01*
X152016979Y-125865854D01*
X152005481Y-125861327D01*
X152001846Y-125860204D01*
X151928376Y-125849500D01*
X151928375Y-125849500D01*
X151928369Y-125849500D01*
X150611626Y-125849500D01*
X150539775Y-125859968D01*
X150538143Y-125860206D01*
X150532108Y-125862071D01*
X150519571Y-125866462D01*
X150519662Y-125866739D01*
X150513875Y-125868637D01*
X150513875Y-125868638D01*
X150091472Y-126007252D01*
X150057750Y-126018318D01*
X150019087Y-126024500D01*
X149968871Y-126024500D01*
X149933935Y-126019477D01*
X149908693Y-126012065D01*
X149855949Y-125980770D01*
X149767102Y-125891923D01*
X149767099Y-125891921D01*
X149767096Y-125891919D01*
X149662167Y-125840622D01*
X149662160Y-125840620D01*
X149651521Y-125835419D01*
X149651519Y-125835418D01*
X149651518Y-125835418D01*
X149634787Y-125832980D01*
X149634786Y-125832980D01*
X149576583Y-125824500D01*
X149576582Y-125824500D01*
X148823418Y-125824500D01*
X148823417Y-125824500D01*
X148776582Y-125831323D01*
X148776581Y-125831322D01*
X148748478Y-125835417D01*
X148721467Y-125848623D01*
X148681011Y-125855530D01*
X148648068Y-125861923D01*
X148583171Y-125836037D01*
X148542571Y-125779174D01*
X148539159Y-125709388D01*
X148552233Y-125676609D01*
X148555125Y-125671585D01*
X148574902Y-125645778D01*
X150571258Y-123649423D01*
X150599508Y-123628275D01*
X150622600Y-123615667D01*
X150682025Y-123600500D01*
X153706443Y-123600500D01*
X153726685Y-123603410D01*
G37*
%TD.AperFunction*%
%TA.AperFunction,Conductor*%
G36*
X154055926Y-122103170D02*
G01*
X154080695Y-122108395D01*
X154091715Y-122114323D01*
X154124257Y-122125273D01*
X154164727Y-122148072D01*
X154166331Y-122149426D01*
X154173370Y-122155372D01*
X154211878Y-122213671D01*
X154212755Y-122283535D01*
X154175725Y-122342779D01*
X154168369Y-122349317D01*
X154136077Y-122370069D01*
X154105186Y-122383708D01*
X154080701Y-122391602D01*
X154055927Y-122396829D01*
X154030328Y-122399500D01*
X150563374Y-122399500D01*
X150528439Y-122394477D01*
X150517585Y-122391290D01*
X150458807Y-122353516D01*
X150429782Y-122289960D01*
X150439722Y-122220811D01*
X150442912Y-122213824D01*
X150468021Y-122177660D01*
X150496258Y-122149423D01*
X150524508Y-122128275D01*
X150547600Y-122115667D01*
X150607025Y-122100500D01*
X154030332Y-122100500D01*
X154055926Y-122103170D01*
G37*
%TD.AperFunction*%
%TA.AperFunction,Conductor*%
G36*
X154055926Y-120103170D02*
G01*
X154080695Y-120108395D01*
X154105185Y-120116290D01*
X154124104Y-120124643D01*
X154134795Y-120129364D01*
X154164727Y-120148071D01*
X154166331Y-120149426D01*
X154173370Y-120155372D01*
X154211878Y-120213671D01*
X154212755Y-120283535D01*
X154175725Y-120342779D01*
X154168369Y-120349317D01*
X154136075Y-120370070D01*
X154109656Y-120381734D01*
X154075678Y-120391248D01*
X154061920Y-120393050D01*
X153992892Y-120382238D01*
X153967225Y-120359427D01*
X153949296Y-120349629D01*
X149789852Y-120399278D01*
X149754856Y-120394672D01*
X149743967Y-120391615D01*
X149684743Y-120354542D01*
X149654964Y-120291337D01*
X149664082Y-120222069D01*
X149666993Y-120215488D01*
X149692710Y-120177971D01*
X149721258Y-120149423D01*
X149749508Y-120128275D01*
X149772600Y-120115667D01*
X149832025Y-120100500D01*
X154030332Y-120100500D01*
X154055926Y-120103170D01*
G37*
%TD.AperFunction*%
%TA.AperFunction,Conductor*%
G36*
X146903056Y-92305521D02*
G01*
X146916375Y-92309432D01*
X146975153Y-92347206D01*
X147004179Y-92410761D01*
X147004180Y-92410769D01*
X147005174Y-92417685D01*
X147000366Y-92473643D01*
X146958370Y-92602895D01*
X146924500Y-92816740D01*
X146924500Y-93033252D01*
X146958370Y-93247101D01*
X147025263Y-93452982D01*
X147025270Y-93453001D01*
X147025270Y-93453002D01*
X147025271Y-93453005D01*
X147025272Y-93453006D01*
X147025273Y-93453009D01*
X147123567Y-93645919D01*
X147123569Y-93645922D01*
X147190606Y-93738191D01*
X147207075Y-93769402D01*
X147211427Y-93781598D01*
X147215418Y-93851353D01*
X147181063Y-93912193D01*
X147124450Y-93943635D01*
X147115454Y-93945863D01*
X147085644Y-93949500D01*
X136014373Y-93949500D01*
X135979437Y-93944477D01*
X135954195Y-93937065D01*
X135901450Y-93905769D01*
X135218670Y-93222989D01*
X134529116Y-92533434D01*
X134516656Y-92518882D01*
X134511468Y-92511778D01*
X134511469Y-92511778D01*
X134502390Y-92499345D01*
X134478752Y-92433599D01*
X134494412Y-92365507D01*
X134544397Y-92316691D01*
X134547641Y-92314969D01*
X134605771Y-92300500D01*
X146868124Y-92300500D01*
X146903056Y-92305521D01*
G37*
%TD.AperFunction*%
%TD*%
%TA.AperFunction,Conductor*%
%TO.N,/L_DPAD_RIGHT{slash}R_BTN_Y*%
G36*
X142739765Y-121997185D02*
G01*
X142746350Y-122003252D01*
X142747433Y-122008168D01*
X142747433Y-122191831D01*
X142744006Y-122200104D01*
X142739765Y-122202814D01*
X142275316Y-122373305D01*
X142266368Y-122372939D01*
X142260488Y-122366833D01*
X142150883Y-122104509D01*
X142150857Y-122095556D01*
X142150862Y-122095542D01*
X142260489Y-121833164D01*
X142266840Y-121826854D01*
X142275314Y-121826694D01*
X142739765Y-121997185D01*
G37*
%TD.AperFunction*%
%TD*%
%TA.AperFunction,Conductor*%
%TO.N,/L_DPAD_LEFT{slash}R_BTN_X*%
G36*
X128893999Y-130130258D02*
G01*
X128897426Y-130138531D01*
X128897198Y-130140828D01*
X128799574Y-130628461D01*
X128794590Y-130635900D01*
X128786613Y-130637769D01*
X128504843Y-130601621D01*
X128497073Y-130597169D01*
X128497035Y-130597120D01*
X128325235Y-130372284D01*
X128322935Y-130363629D01*
X128327428Y-130355883D01*
X128328398Y-130355216D01*
X128697182Y-130128563D01*
X128703308Y-130126831D01*
X128885726Y-130126831D01*
X128893999Y-130130258D01*
G37*
%TD.AperFunction*%
%TD*%
%TA.AperFunction,Conductor*%
%TO.N,GND*%
G36*
X122477164Y-140785195D02*
G01*
X122200000Y-140901000D01*
X121922836Y-140785195D01*
X122100000Y-140302567D01*
X122300000Y-140302567D01*
X122477164Y-140785195D01*
G37*
%TD.AperFunction*%
%TD*%
%TA.AperFunction,Conductor*%
%TO.N,GND*%
G36*
X153377581Y-128046050D02*
G01*
X153175000Y-128354999D01*
X152975000Y-128354999D01*
X152777586Y-128042821D01*
X153080000Y-127753999D01*
X153377581Y-128046050D01*
G37*
%TD.AperFunction*%
%TD*%
%TA.AperFunction,Conductor*%
%TO.N,GND*%
G36*
X153352164Y-128840195D02*
G01*
X153075000Y-128956000D01*
X152797836Y-128840195D01*
X152975000Y-128357567D01*
X153175000Y-128357567D01*
X153352164Y-128840195D01*
G37*
%TD.AperFunction*%
%TD*%
%TA.AperFunction,Conductor*%
%TO.N,GND*%
G36*
X156251000Y-122250000D02*
G01*
X156135195Y-122527164D01*
X155652567Y-122350000D01*
X155652567Y-122150000D01*
X156135195Y-121972836D01*
X156251000Y-122250000D01*
G37*
%TD.AperFunction*%
%TD*%
%TA.AperFunction,Conductor*%
%TO.N,GND*%
G36*
X153743159Y-131601738D02*
G01*
X153601738Y-131743159D01*
X153135195Y-131527164D01*
X153249293Y-131249293D01*
X153527164Y-131135195D01*
X153743159Y-131601738D01*
G37*
%TD.AperFunction*%
%TD*%
%TA.AperFunction,Conductor*%
%TO.N,GND*%
G36*
X151527164Y-129385195D02*
G01*
X151250000Y-129501000D01*
X150972836Y-129385195D01*
X151150000Y-128902567D01*
X151350000Y-128902567D01*
X151527164Y-129385195D01*
G37*
%TD.AperFunction*%
%TD*%
%TA.AperFunction,Conductor*%
%TO.N,GND*%
G36*
X156251000Y-124250000D02*
G01*
X156135195Y-124527164D01*
X155652567Y-124350000D01*
X155652567Y-124150000D01*
X156135195Y-123972836D01*
X156251000Y-124250000D01*
G37*
%TD.AperFunction*%
%TD*%
%TA.AperFunction,Conductor*%
%TO.N,GND*%
G36*
X122477164Y-134385195D02*
G01*
X122200000Y-134501000D01*
X121922836Y-134385195D01*
X122100000Y-133902567D01*
X122300000Y-133902567D01*
X122477164Y-134385195D01*
G37*
%TD.AperFunction*%
%TD*%
%TA.AperFunction,Conductor*%
%TO.N,GND*%
G36*
X122477164Y-102214805D02*
G01*
X122300000Y-102697433D01*
X122100000Y-102697433D01*
X121922836Y-102214805D01*
X122200000Y-102099000D01*
X122477164Y-102214805D01*
G37*
%TD.AperFunction*%
%TD*%
%TA.AperFunction,Conductor*%
%TO.N,GND*%
G36*
X156251000Y-120250000D02*
G01*
X156135195Y-120527164D01*
X155652567Y-120350000D01*
X155652567Y-120150000D01*
X156135195Y-119972836D01*
X156251000Y-120250000D01*
G37*
%TD.AperFunction*%
%TD*%
%TA.AperFunction,Conductor*%
%TO.N,GND*%
G36*
X156251000Y-116250000D02*
G01*
X156135195Y-116527164D01*
X155652567Y-116350000D01*
X155652567Y-116150000D01*
X156135195Y-115972836D01*
X156251000Y-116250000D01*
G37*
%TD.AperFunction*%
%TD*%
%TA.AperFunction,Conductor*%
%TO.N,GND*%
G36*
X156251000Y-118250000D02*
G01*
X156135195Y-118527164D01*
X155652567Y-118350000D01*
X155652567Y-118150000D01*
X156135195Y-117972836D01*
X156251000Y-118250000D01*
G37*
%TD.AperFunction*%
%TD*%
%TA.AperFunction,Conductor*%
%TO.N,GND*%
G36*
X157501000Y-111750000D02*
G01*
X157385195Y-112027164D01*
X156902567Y-111850000D01*
X156902567Y-111650000D01*
X157385195Y-111472836D01*
X157501000Y-111750000D01*
G37*
%TD.AperFunction*%
%TD*%
%TA.AperFunction,Conductor*%
%TO.N,GND*%
G36*
X149477164Y-131285195D02*
G01*
X149200000Y-131401000D01*
X148922836Y-131285195D01*
X149100000Y-130802567D01*
X149300000Y-130802567D01*
X149477164Y-131285195D01*
G37*
%TD.AperFunction*%
%TD*%
%TA.AperFunction,Conductor*%
%TO.N,3V3*%
G36*
X151946461Y-126111401D02*
G01*
X152436949Y-126272358D01*
X152443740Y-126278193D01*
X152445000Y-126283474D01*
X152445000Y-126766525D01*
X152441573Y-126774798D01*
X152436948Y-126777642D01*
X151946460Y-126938598D01*
X151937531Y-126937921D01*
X151936663Y-126937435D01*
X151607014Y-126733801D01*
X151285112Y-126534953D01*
X151279876Y-126527691D01*
X151281308Y-126518851D01*
X151285111Y-126515047D01*
X151936664Y-126112563D01*
X151945503Y-126111132D01*
X151946461Y-126111401D01*
G37*
%TD.AperFunction*%
%TD*%
%TA.AperFunction,Conductor*%
%TO.N,3V3*%
G36*
X153120041Y-126451729D02*
G01*
X153124151Y-126453707D01*
X153125798Y-126454946D01*
X153130272Y-126462182D01*
X153130528Y-126463576D01*
X153130550Y-126467677D01*
X153082350Y-126747166D01*
X153080711Y-126751428D01*
X153078699Y-126754612D01*
X153074459Y-126758607D01*
X152737865Y-126944279D01*
X152733513Y-126945662D01*
X152730192Y-126946033D01*
X152722974Y-126944497D01*
X152627030Y-126888226D01*
X152441765Y-126779566D01*
X152438353Y-126776532D01*
X152436347Y-126773880D01*
X152433978Y-126766822D01*
X152433978Y-126292422D01*
X152434867Y-126287949D01*
X152434901Y-126287864D01*
X152435549Y-126286301D01*
X152441874Y-126279970D01*
X152442641Y-126279652D01*
X152450030Y-126279135D01*
X153120041Y-126451729D01*
G37*
%TD.AperFunction*%
%TD*%
%TA.AperFunction,Conductor*%
%TO.N,3V3*%
G36*
X153581456Y-126160819D02*
G01*
X153581735Y-126161067D01*
X153585355Y-126167151D01*
X153585394Y-126167318D01*
X153584983Y-126169809D01*
X153585662Y-126169809D01*
X153585701Y-126347216D01*
X153585556Y-126349055D01*
X153585269Y-126350861D01*
X153584840Y-126352644D01*
X153433969Y-126816526D01*
X153431734Y-126820512D01*
X153430339Y-126822143D01*
X153422991Y-126826136D01*
X153421706Y-126826307D01*
X153417758Y-126826159D01*
X153087324Y-126756749D01*
X153083127Y-126754958D01*
X153080226Y-126752975D01*
X153076019Y-126747788D01*
X152960132Y-126467343D01*
X152959246Y-126462870D01*
X152959248Y-126460885D01*
X152962437Y-126452870D01*
X152963489Y-126451757D01*
X152966890Y-126449265D01*
X153566816Y-126159131D01*
X153571231Y-126157985D01*
X153573013Y-126157883D01*
X153581456Y-126160819D01*
G37*
%TD.AperFunction*%
%TD*%
%TA.AperFunction,Conductor*%
%TO.N,3V3*%
G36*
X124136493Y-134409305D02*
G01*
X124161397Y-134412668D01*
X124169138Y-134417171D01*
X124171490Y-134425253D01*
X124125910Y-134961723D01*
X124121795Y-134969677D01*
X124114252Y-134972433D01*
X123635748Y-134972433D01*
X123627475Y-134969006D01*
X123624090Y-134961724D01*
X123624090Y-134961723D01*
X123578509Y-134425252D01*
X123581223Y-134416720D01*
X123588601Y-134412668D01*
X123873437Y-134374211D01*
X123876563Y-134374211D01*
X124136493Y-134409305D01*
G37*
%TD.AperFunction*%
%TD*%
%TA.AperFunction,Conductor*%
%TO.N,3V3*%
G36*
X123638199Y-135051406D02*
G01*
X123641090Y-135059881D01*
X123640596Y-135060885D01*
X123816657Y-135047467D01*
X123825167Y-135050255D01*
X123829212Y-135058244D01*
X123826424Y-135066754D01*
X123818435Y-135070799D01*
X123612455Y-135086498D01*
X123603945Y-135083710D01*
X123599900Y-135075721D01*
X123602688Y-135067211D01*
X123603835Y-135066051D01*
X123612710Y-135058244D01*
X123621687Y-135050348D01*
X123630162Y-135047457D01*
X123638199Y-135051406D01*
G37*
%TD.AperFunction*%
%TD*%
%TA.AperFunction,Conductor*%
%TO.N,3V3*%
G36*
X124136493Y-135084305D02*
G01*
X124161397Y-135087668D01*
X124169138Y-135092171D01*
X124171490Y-135100253D01*
X124125910Y-135636723D01*
X124121795Y-135644677D01*
X124114252Y-135647433D01*
X123635748Y-135647433D01*
X123627475Y-135644006D01*
X123624090Y-135636724D01*
X123624090Y-135636723D01*
X123578509Y-135100252D01*
X123581223Y-135091720D01*
X123588601Y-135087668D01*
X123873437Y-135049211D01*
X123876563Y-135049211D01*
X124136493Y-135084305D01*
G37*
%TD.AperFunction*%
%TD*%
%TA.AperFunction,Conductor*%
%TO.N,3V3*%
G36*
X124122525Y-134455994D02*
G01*
X124125910Y-134463277D01*
X124171490Y-134999746D01*
X124168776Y-135008279D01*
X124161397Y-135012331D01*
X123876565Y-135050788D01*
X123873435Y-135050788D01*
X123588602Y-135012331D01*
X123580861Y-135007828D01*
X123578509Y-134999747D01*
X123624090Y-134463275D01*
X123628205Y-134455323D01*
X123635748Y-134452567D01*
X124114252Y-134452567D01*
X124122525Y-134455994D01*
G37*
%TD.AperFunction*%
%TD*%
%TA.AperFunction,Conductor*%
%TO.N,3V3*%
G36*
X124911493Y-134409305D02*
G01*
X124936397Y-134412668D01*
X124944138Y-134417171D01*
X124946490Y-134425253D01*
X124900910Y-134961723D01*
X124896795Y-134969677D01*
X124889252Y-134972433D01*
X124410748Y-134972433D01*
X124402475Y-134969006D01*
X124399090Y-134961724D01*
X124399090Y-134961723D01*
X124353509Y-134425252D01*
X124356223Y-134416720D01*
X124363601Y-134412668D01*
X124648437Y-134374211D01*
X124651563Y-134374211D01*
X124911493Y-134409305D01*
G37*
%TD.AperFunction*%
%TD*%
%TA.AperFunction,Conductor*%
%TO.N,3V3*%
G36*
X124557227Y-135055461D02*
G01*
X124561198Y-135063487D01*
X124558330Y-135071970D01*
X124550304Y-135075941D01*
X124390961Y-135086591D01*
X124382478Y-135083723D01*
X124378507Y-135075697D01*
X124381375Y-135067214D01*
X124383027Y-135065659D01*
X124396842Y-135055002D01*
X124405486Y-135052663D01*
X124413252Y-135057121D01*
X124414455Y-135061568D01*
X124548744Y-135052593D01*
X124557227Y-135055461D01*
G37*
%TD.AperFunction*%
%TD*%
%TA.AperFunction,Conductor*%
%TO.N,3V3*%
G36*
X124897525Y-134455994D02*
G01*
X124900910Y-134463277D01*
X124946490Y-134999746D01*
X124943776Y-135008279D01*
X124936397Y-135012331D01*
X124651565Y-135050788D01*
X124648435Y-135050788D01*
X124363602Y-135012331D01*
X124355861Y-135007828D01*
X124353509Y-134999747D01*
X124399090Y-134463275D01*
X124403205Y-134455323D01*
X124410748Y-134452567D01*
X124889252Y-134452567D01*
X124897525Y-134455994D01*
G37*
%TD.AperFunction*%
%TD*%
%TA.AperFunction,Conductor*%
%TO.N,3V3*%
G36*
X124911493Y-135084305D02*
G01*
X124936397Y-135087668D01*
X124944138Y-135092171D01*
X124946490Y-135100253D01*
X124900910Y-135636723D01*
X124896795Y-135644677D01*
X124889252Y-135647433D01*
X124410748Y-135647433D01*
X124402475Y-135644006D01*
X124399090Y-135636724D01*
X124399090Y-135636723D01*
X124353509Y-135100252D01*
X124356223Y-135091720D01*
X124363601Y-135087668D01*
X124648437Y-135049211D01*
X124651563Y-135049211D01*
X124911493Y-135084305D01*
G37*
%TD.AperFunction*%
%TD*%
%TA.AperFunction,Conductor*%
%TO.N,3V3*%
G36*
X153380669Y-126465530D02*
G01*
X153383300Y-126466539D01*
X153721714Y-126645615D01*
X153725253Y-126648494D01*
X153727312Y-126650981D01*
X153730000Y-126658442D01*
X153730000Y-126840797D01*
X153729109Y-126845276D01*
X153727855Y-126848302D01*
X153722742Y-126854043D01*
X153384163Y-127042731D01*
X153379819Y-127044133D01*
X153377119Y-127044447D01*
X153369855Y-127042922D01*
X153369468Y-127042695D01*
X153367140Y-127040904D01*
X153089020Y-126764943D01*
X153086469Y-126761156D01*
X153085782Y-126759515D01*
X153085746Y-126750565D01*
X153086404Y-126748957D01*
X153088987Y-126745090D01*
X153366682Y-126469550D01*
X153370486Y-126467030D01*
X153371682Y-126466540D01*
X153373066Y-126465972D01*
X153380340Y-126465448D01*
X153380669Y-126465530D01*
G37*
%TD.AperFunction*%
%TD*%
%TA.AperFunction,Conductor*%
%TO.N,3V3*%
G36*
X150602468Y-126112078D02*
G01*
X150603336Y-126112564D01*
X151254886Y-126515046D01*
X151260123Y-126522309D01*
X151258691Y-126531149D01*
X151254886Y-126534954D01*
X150603336Y-126937435D01*
X150594496Y-126938867D01*
X150593539Y-126938598D01*
X150103052Y-126777642D01*
X150096260Y-126771806D01*
X150095000Y-126766525D01*
X150095000Y-126283474D01*
X150098427Y-126275201D01*
X150103049Y-126272358D01*
X150593539Y-126111401D01*
X150602468Y-126112078D01*
G37*
%TD.AperFunction*%
%TD*%
%TA.AperFunction,Conductor*%
%TO.N,/L_START{slash}R_SELECT*%
G36*
X153319624Y-118302039D02*
G01*
X153319973Y-118302521D01*
X153556470Y-118647008D01*
X153558524Y-118653630D01*
X153558524Y-118836435D01*
X153555097Y-118844708D01*
X153546824Y-118848135D01*
X153545107Y-118848008D01*
X153089904Y-118780456D01*
X153047188Y-118774116D01*
X153039508Y-118769513D01*
X153037301Y-118761056D01*
X153073378Y-118479841D01*
X153077829Y-118472073D01*
X153303225Y-118299845D01*
X153311878Y-118297546D01*
X153319624Y-118302039D01*
G37*
%TD.AperFunction*%
%TD*%
%TA.AperFunction,Conductor*%
%TO.N,/L_DPAD_UP{slash}R_BTN_A*%
G36*
X134221061Y-125089459D02*
G01*
X134229149Y-125092736D01*
X134230290Y-125093836D01*
X134231384Y-125096347D01*
X134231639Y-125096229D01*
X134403832Y-125466793D01*
X134403839Y-125466807D01*
X134438749Y-125542214D01*
X134439822Y-125546651D01*
X134439942Y-125549596D01*
X134438141Y-125556325D01*
X134438098Y-125556393D01*
X134436482Y-125558413D01*
X134309158Y-125685737D01*
X134305361Y-125688274D01*
X134302639Y-125689401D01*
X134295702Y-125690029D01*
X134295623Y-125690012D01*
X134293168Y-125689191D01*
X134276001Y-125681243D01*
X133847465Y-125482844D01*
X133843778Y-125480157D01*
X133842469Y-125478736D01*
X133839375Y-125470594D01*
X133839376Y-125470533D01*
X133839404Y-125469003D01*
X133840278Y-125464781D01*
X133946552Y-125205964D01*
X133949070Y-125202168D01*
X133952083Y-125199136D01*
X133955929Y-125196567D01*
X134214655Y-125090330D01*
X134219129Y-125089454D01*
X134221061Y-125089459D01*
G37*
%TD.AperFunction*%
%TD*%
%TA.AperFunction,Conductor*%
%TO.N,/L_R_THUMBST_X*%
G36*
X133982513Y-129312616D02*
G01*
X134112383Y-129442486D01*
X134115810Y-129450759D01*
X134114727Y-129455674D01*
X133906868Y-129904644D01*
X133900283Y-129910712D01*
X133891807Y-129910552D01*
X133628815Y-129802563D01*
X133622463Y-129796251D01*
X133622436Y-129796184D01*
X133514447Y-129533192D01*
X133514474Y-129524237D01*
X133520352Y-129518133D01*
X133969327Y-129310271D01*
X133978272Y-129309906D01*
X133982513Y-129312616D01*
G37*
%TD.AperFunction*%
%TD*%
%TA.AperFunction,Conductor*%
%TO.N,/L_R_THUMBST_SW*%
G36*
X132650762Y-124914474D02*
G01*
X132656867Y-124920354D01*
X132828839Y-125291807D01*
X132864727Y-125369325D01*
X132865093Y-125378272D01*
X132862383Y-125382513D01*
X132732513Y-125512383D01*
X132724240Y-125515810D01*
X132719325Y-125514727D01*
X132701001Y-125506243D01*
X132270354Y-125306867D01*
X132264287Y-125300283D01*
X132264446Y-125291808D01*
X132372436Y-125028814D01*
X132378746Y-125022464D01*
X132641808Y-124914447D01*
X132650762Y-124914474D01*
G37*
%TD.AperFunction*%
%TD*%
%TA.AperFunction,Conductor*%
%TO.N,/L_R_THUMBST_Y*%
G36*
X131118459Y-125047704D02*
G01*
X131179262Y-125072981D01*
X131185586Y-125079321D01*
X131185737Y-125087863D01*
X131049334Y-125454631D01*
X131046641Y-125458826D01*
X130918299Y-125587168D01*
X130910026Y-125590595D01*
X130901753Y-125587168D01*
X130899651Y-125584304D01*
X130641224Y-125088599D01*
X130640438Y-125079678D01*
X130646190Y-125072815D01*
X130647074Y-125072400D01*
X130907295Y-124963671D01*
X130916248Y-124963645D01*
X131118459Y-125047704D01*
G37*
%TD.AperFunction*%
%TD*%
%TA.AperFunction,Conductor*%
%TO.N,/L_HOME{slash}R_EXTRA*%
G36*
X153691833Y-114160488D02*
G01*
X153698145Y-114166840D01*
X153698305Y-114175316D01*
X153527815Y-114639765D01*
X153521748Y-114646350D01*
X153516832Y-114647433D01*
X153333168Y-114647433D01*
X153324895Y-114644006D01*
X153322185Y-114639765D01*
X153151694Y-114175316D01*
X153152060Y-114166368D01*
X153158164Y-114160489D01*
X153420490Y-114050883D01*
X153429444Y-114050857D01*
X153691833Y-114160488D01*
G37*
%TD.AperFunction*%
%TD*%
M02*
