%TF.GenerationSoftware,KiCad,Pcbnew,10.0.0*%
%TF.CreationDate,2026-08-05T19:39:12-04:00*%
%TF.ProjectId,ConJoy_KiCad,436f6e4a-6f79-45f4-9b69-4361642e6b69,1.00-0A*%
%TF.SameCoordinates,Original*%
%TF.FileFunction,Copper,L1,Top*%
%TF.FilePolarity,Positive*%
%FSLAX46Y46*%
G04 Gerber Fmt 4.6, Leading zero omitted, Abs format (unit mm)*
G04 Created by KiCad (PCBNEW 10.0.0) date 2026-08-05 19:39:12*
%MOMM*%
%LPD*%
G01*
G04 APERTURE LIST*
G04 Aperture macros list*
%AMRoundRect*
0 Rectangle with rounded corners*
0 $1 Rounding radius*
0 $2 $3 $4 $5 $6 $7 $8 $9 X,Y pos of 4 corners*
0 Add a 4 corners polygon primitive as box body*
4,1,4,$2,$3,$4,$5,$6,$7,$8,$9,$2,$3,0*
0 Add four circle primitives for the rounded corners*
1,1,$1+$1,$2,$3*
1,1,$1+$1,$4,$5*
1,1,$1+$1,$6,$7*
1,1,$1+$1,$8,$9*
0 Add four rect primitives between the rounded corners*
20,1,$1+$1,$2,$3,$4,$5,0*
20,1,$1+$1,$4,$5,$6,$7,0*
20,1,$1+$1,$6,$7,$8,$9,0*
20,1,$1+$1,$8,$9,$2,$3,0*%
G04 Aperture macros list end*
%TA.AperFunction,EtchedComponent*%
%ADD10C,0.000000*%
%TD*%
%TA.AperFunction,SMDPad,CuDef*%
%ADD11RoundRect,0.090000X-0.210000X-0.260000X0.210000X-0.260000X0.210000X0.260000X-0.210000X0.260000X0*%
%TD*%
%TA.AperFunction,SMDPad,CuDef*%
%ADD12RoundRect,0.150000X-1.450000X-0.350000X1.450000X-0.350000X1.450000X0.350000X-1.450000X0.350000X0*%
%TD*%
%TA.AperFunction,SMDPad,CuDef*%
%ADD13RoundRect,0.127500X-0.297500X-0.622500X0.297500X-0.622500X0.297500X0.622500X-0.297500X0.622500X0*%
%TD*%
%TA.AperFunction,SMDPad,CuDef*%
%ADD14RoundRect,0.150000X-0.350000X1.450000X-0.350000X-1.450000X0.350000X-1.450000X0.350000X1.450000X0*%
%TD*%
%TA.AperFunction,SMDPad,CuDef*%
%ADD15C,1.000000*%
%TD*%
%TA.AperFunction,SMDPad,CuDef*%
%ADD16RoundRect,0.150000X-0.565685X0.070711X0.070711X-0.565685X0.565685X-0.070711X-0.070711X0.565685X0*%
%TD*%
%TA.AperFunction,SMDPad,CuDef*%
%ADD17RoundRect,0.045000X0.105000X0.655000X-0.105000X0.655000X-0.105000X-0.655000X0.105000X-0.655000X0*%
%TD*%
%TA.AperFunction,SMDPad,CuDef*%
%ADD18RoundRect,0.150000X0.070711X0.565685X-0.565685X-0.070711X-0.070711X-0.565685X0.565685X0.070711X0*%
%TD*%
%TA.AperFunction,SMDPad,CuDef*%
%ADD19RoundRect,0.150000X-0.450000X-0.350000X0.450000X-0.350000X0.450000X0.350000X-0.450000X0.350000X0*%
%TD*%
%TA.AperFunction,SMDPad,CuDef*%
%ADD20RoundRect,0.150000X0.450000X0.350000X-0.450000X0.350000X-0.450000X-0.350000X0.450000X-0.350000X0*%
%TD*%
%TA.AperFunction,ViaPad*%
%ADD21C,0.600000*%
%TD*%
%TA.AperFunction,Conductor*%
%ADD22C,0.200000*%
%TD*%
%TA.AperFunction,Conductor*%
%ADD23C,0.500000*%
%TD*%
G04 APERTURE END LIST*
D10*
%TA.AperFunction,EtchedComponent*%
%TO.C,J3*%
G36*
X127992329Y-127383605D02*
G01*
X129392329Y-127383605D01*
X129392329Y-128483605D01*
X128692329Y-128483605D01*
X128692329Y-128983605D01*
X126742329Y-128983605D01*
X126742329Y-126683605D01*
X127992329Y-126683605D01*
X127992329Y-127383605D01*
G37*
%TD.AperFunction*%
%TA.AperFunction,EtchedComponent*%
G36*
X123842329Y-128983605D02*
G01*
X121892329Y-128983605D01*
X121892329Y-128483605D01*
X121192329Y-128483605D01*
X121192329Y-127383605D01*
X122592329Y-127383605D01*
X122592329Y-126683605D01*
X123842329Y-126683605D01*
X123842329Y-128983605D01*
G37*
%TD.AperFunction*%
%TD*%
D11*
%TO.P,C4,1*%
%TO.N,GND*%
X122500000Y-132700000D03*
%TO.P,C4,2*%
%TO.N,3V3*%
X123500000Y-132700000D03*
%TD*%
D12*
%TO.P,S5,1*%
%TO.N,GND*%
X144200000Y-119500000D03*
X150800000Y-119500000D03*
%TO.P,S5,2*%
%TO.N,/L_START{slash}R_SELECT*%
X144200000Y-123500000D03*
X150800000Y-123500000D03*
%TD*%
D13*
%TO.P,C2,1*%
%TO.N,GND*%
X121725000Y-131005000D03*
%TO.P,C2,2*%
%TO.N,3V3*%
X123475000Y-131005000D03*
%TD*%
D14*
%TO.P,S1,1*%
%TO.N,GND*%
X139500000Y-125200000D03*
X139500000Y-131800000D03*
%TO.P,S1,2*%
%TO.N,/L_DPAD_UP{slash}R_BTN_A*%
X135500000Y-125200000D03*
X135500000Y-131800000D03*
%TD*%
%TO.P,S4,1*%
%TO.N,GND*%
X147500000Y-133200000D03*
X147500000Y-139800000D03*
%TO.P,S4,2*%
%TO.N,/L_DPAD_RIGHT{slash}R_BTN_Y*%
X143500000Y-133200000D03*
X143500000Y-139800000D03*
%TD*%
%TO.P,S2,1*%
%TO.N,GND*%
X139500000Y-141200000D03*
X139500000Y-147800000D03*
%TO.P,S2,2*%
%TO.N,/L_DPAD_DOWN{slash}R_BTN_B*%
X135500000Y-141200000D03*
X135500000Y-147800000D03*
%TD*%
D15*
%TO.P,FID3,1*%
%TO.N,unconnected-(FID3-Pad1)*%
X129000000Y-144100000D03*
%TD*%
%TO.P,FID1,1*%
%TO.N,unconnected-(FID1-Pad1)*%
X148275000Y-105350000D03*
%TD*%
%TO.P,FID5,1*%
%TO.N,unconnected-(FID5-Pad1)*%
X142650000Y-143425000D03*
%TD*%
D14*
%TO.P,S3,1*%
%TO.N,GND*%
X131500000Y-133200000D03*
X131500000Y-139800000D03*
%TO.P,S3,2*%
%TO.N,/L_DPAD_LEFT{slash}R_BTN_X*%
X127500000Y-133200000D03*
X127500000Y-139800000D03*
%TD*%
D16*
%TO.P,S9,1*%
%TO.N,GND*%
X123938819Y-143101383D03*
X127898617Y-147061181D03*
%TO.P,S9,2*%
%TO.N,/L_R_L1_TRIG*%
X122701383Y-144338819D03*
X126661181Y-148298617D03*
%TD*%
D17*
%TO.P,J3,5,5_5*%
%TO.N,3V3*%
X124292329Y-128983605D03*
%TO.P,J3,4,4_4*%
%TO.N,/L_R_THUMBST_Y*%
X124792329Y-128983605D03*
%TO.P,J3,3,3_3*%
%TO.N,/L_R_THUMBST_SW*%
X125292329Y-128983605D03*
%TO.P,J3,2,2_2*%
%TO.N,GND*%
X125792329Y-128983605D03*
%TO.P,J3,1,1_1*%
%TO.N,/L_R_THUMBST_X*%
X126292329Y-128983605D03*
%TD*%
D18*
%TO.P,S6,1*%
%TO.N,GND*%
X127898617Y-95938819D03*
X123938819Y-99898617D03*
%TO.P,S6,2*%
%TO.N,/L_R_L1_TRIG*%
X126661181Y-94701383D03*
X122701383Y-98661181D03*
%TD*%
D19*
%TO.P,S11,1*%
%TO.N,GND*%
X145500000Y-147825000D03*
X151100000Y-147825000D03*
%TO.P,S11,2*%
%TO.N,/L_HOME{slash}R_EXTRA*%
X145500000Y-149575000D03*
X151100000Y-149575000D03*
%TD*%
D20*
%TO.P,S8,1*%
%TO.N,GND*%
X151100000Y-95175000D03*
X145500000Y-95175000D03*
%TO.P,S8,2*%
%TO.N,/L_HOME{slash}R_EXTRA*%
X151100000Y-93425000D03*
X145500000Y-93425000D03*
%TD*%
D21*
%TO.N,/L_DPAD_DOWN{slash}R_BTN_B*%
X135500000Y-138700000D03*
%TO.N,GND*%
X120620000Y-133410000D03*
X120620000Y-135509999D03*
X120610661Y-129217641D03*
X120610661Y-127117641D03*
X120610661Y-131317640D03*
X121300000Y-129500000D03*
X151400000Y-101400000D03*
X135400000Y-92600000D03*
X159400000Y-125699999D03*
X159400000Y-129900000D03*
X159400000Y-115200000D03*
X128900000Y-96900000D03*
X159400000Y-117300000D03*
X120600000Y-120800000D03*
X153250000Y-131250000D03*
X159400000Y-119400000D03*
X151400000Y-105600000D03*
X156250000Y-124250000D03*
X120600000Y-125000000D03*
X156250000Y-122250000D03*
X135400000Y-150400000D03*
X151400000Y-139700000D03*
X120600000Y-112400000D03*
X127700000Y-93800000D03*
X145500000Y-96575000D03*
X151400000Y-143900000D03*
X149200000Y-139800000D03*
X141200000Y-131800000D03*
X128900000Y-146100000D03*
X149200000Y-131400000D03*
X139525000Y-145050000D03*
X120600000Y-114500000D03*
X130300000Y-128500000D03*
X121300000Y-101200000D03*
X149200000Y-133200000D03*
X151400000Y-103500000D03*
X151400000Y-97200000D03*
X133200000Y-139800000D03*
X122200000Y-134500000D03*
X151250000Y-129500000D03*
X120700000Y-138500000D03*
X150800000Y-117800000D03*
X156250000Y-118250000D03*
X151400000Y-137600000D03*
X151400000Y-141800000D03*
X120600000Y-106100000D03*
X153075000Y-128955000D03*
X124900000Y-130900000D03*
X125000000Y-100900000D03*
X120700000Y-118683032D03*
X120600000Y-110300000D03*
X151400000Y-146000000D03*
X120600000Y-116600000D03*
X159400000Y-111000000D03*
X151400000Y-99300000D03*
X141200000Y-125200000D03*
X121400000Y-142300000D03*
X157500000Y-111750000D03*
X120600000Y-122900000D03*
X159400000Y-113100000D03*
X120600000Y-108200000D03*
X156250000Y-120250000D03*
X122200000Y-102100000D03*
X124900000Y-142100000D03*
X159400000Y-127800000D03*
X159400000Y-132000000D03*
X159400000Y-123600000D03*
X156250000Y-116250000D03*
X120700000Y-103500000D03*
X122200000Y-140900000D03*
X127700000Y-149200000D03*
X159400000Y-121500000D03*
X141200000Y-141200000D03*
X142000000Y-119500000D03*
X133200000Y-133200000D03*
%TO.N,3V3*%
X123875000Y-135050000D03*
X124650000Y-134375000D03*
X123875000Y-134375000D03*
X124650000Y-135050000D03*
%TO.N,/L_START{slash}R_SELECT*%
X153075000Y-118475000D03*
%TO.N,/L_DPAD_UP{slash}R_BTN_A*%
X133950000Y-125200000D03*
%TO.N,/L_DPAD_RIGHT{slash}R_BTN_Y*%
X141525000Y-122100000D03*
%TO.N,/L_DPAD_LEFT{slash}R_BTN_X*%
X128325000Y-130775000D03*
%TO.N,/L_R_L1_TRIG*%
X151950000Y-114075000D03*
%TO.N,/L_R_THUMBST_X*%
X133625000Y-129800000D03*
%TO.N,/L_R_THUMBST_SW*%
X132375000Y-125025000D03*
%TO.N,/L_R_THUMBST_Y*%
X130912500Y-124962500D03*
%TO.N,/L_HOME{slash}R_EXTRA*%
X153425000Y-114050000D03*
%TD*%
%TO.N,/L_R_L1_TRIG*%
D22*
X122701383Y-142198617D02*
X122701383Y-144338819D01*
X125200000Y-141150000D02*
X123750000Y-141150000D01*
X126050000Y-142000000D02*
X125200000Y-141150000D01*
X128600000Y-142000000D02*
X126050000Y-142000000D01*
X129400000Y-141200000D02*
X128600000Y-142000000D01*
X129400000Y-137650000D02*
X129400000Y-141200000D01*
X130750000Y-136300000D02*
X129400000Y-137650000D01*
X133000000Y-136300000D02*
X130750000Y-136300000D01*
X135000000Y-134300000D02*
X133000000Y-136300000D01*
X137350000Y-133050000D02*
X136100000Y-134300000D01*
X137350000Y-123700000D02*
X137350000Y-133050000D01*
X147550000Y-119900000D02*
X146350000Y-121100000D01*
X123750000Y-141150000D02*
X122701383Y-142198617D01*
X148900000Y-116250000D02*
X147550000Y-117600000D01*
X147550000Y-117600000D02*
X147550000Y-119900000D01*
X139950000Y-121100000D02*
X137350000Y-123700000D01*
X146350000Y-121100000D02*
X139950000Y-121100000D01*
X150050000Y-116250000D02*
X148900000Y-116250000D01*
X151950000Y-114350000D02*
X150050000Y-116250000D01*
X136100000Y-134300000D02*
X135000000Y-134300000D01*
X151950000Y-114075000D02*
X151950000Y-114350000D01*
%TO.N,/L_DPAD_DOWN{slash}R_BTN_B*%
X135500000Y-141200000D02*
X135500000Y-138700000D01*
%TO.N,GND*%
X122500000Y-132700000D02*
X121300000Y-132700000D01*
X121300000Y-132700000D02*
X121300000Y-132800000D01*
X121300000Y-129600000D02*
X121300000Y-129500000D01*
X122500000Y-131780000D02*
X121725000Y-131005000D01*
X121725000Y-131005000D02*
X121725000Y-130705000D01*
X122200000Y-134500000D02*
X122500000Y-134200000D01*
X122500000Y-134200000D02*
X122500000Y-131780000D01*
X121725000Y-130175000D02*
X122300000Y-129600000D01*
X121725000Y-131005000D02*
X121725000Y-130175000D01*
X121725000Y-130025000D02*
X121300000Y-129600000D01*
X121725000Y-131005000D02*
X121725000Y-130025000D01*
X121300000Y-132500000D02*
X121300000Y-132700000D01*
X121725000Y-132075000D02*
X121300000Y-132500000D01*
X121725000Y-131005000D02*
X121725000Y-132075000D01*
%TO.N,3V3*%
X124292329Y-128983605D02*
X124292329Y-129232671D01*
X124292329Y-129232671D02*
X124025000Y-129500000D01*
D23*
X123500000Y-132700000D02*
X123875000Y-133075000D01*
X124650000Y-133850000D02*
X123500000Y-132700000D01*
X124650000Y-135050000D02*
X124650000Y-133850000D01*
X123875000Y-133075000D02*
X123875000Y-135075000D01*
X123475000Y-130050000D02*
X124025000Y-129500000D01*
X123475000Y-132375000D02*
X123475000Y-130050000D01*
X123500000Y-132400000D02*
X123475000Y-132375000D01*
X123500000Y-132700000D02*
X123500000Y-132400000D01*
%TO.N,/L_R_THUMBST_X*%
D22*
X127800000Y-129800000D02*
X133625000Y-129800000D01*
X127200000Y-130400000D02*
X127800000Y-129800000D01*
X126600000Y-130400000D02*
X127200000Y-130400000D01*
X126292329Y-130092329D02*
X126600000Y-130400000D01*
X126292329Y-128983605D02*
X126292329Y-130092329D01*
%TO.N,GND*%
X125400000Y-130900000D02*
X124900000Y-130900000D01*
X125792329Y-130507671D02*
X125400000Y-130900000D01*
X125792329Y-128983605D02*
X125792329Y-130507671D01*
%TO.N,/L_R_THUMBST_SW*%
X131425000Y-125975000D02*
X132375000Y-125025000D01*
X130350000Y-125975000D02*
X131425000Y-125975000D01*
X129975000Y-125600000D02*
X130350000Y-125975000D01*
X125292329Y-126857671D02*
X126550000Y-125600000D01*
X126550000Y-125600000D02*
X129975000Y-125600000D01*
X125292329Y-128983605D02*
X125292329Y-126857671D01*
%TO.N,/L_R_THUMBST_Y*%
X126150000Y-124950000D02*
X130900000Y-124950000D01*
X124792329Y-126307671D02*
X126150000Y-124950000D01*
X124792329Y-128983605D02*
X124792329Y-126307671D01*
%TO.N,GND*%
X151100000Y-96700000D02*
X150900000Y-96700000D01*
X139500000Y-147800000D02*
X139500000Y-145075000D01*
X144200000Y-119500000D02*
X142000000Y-119500000D01*
X131500000Y-139800000D02*
X133200000Y-139800000D01*
X131500000Y-133200000D02*
X133200000Y-133200000D01*
X139500000Y-131800000D02*
X141200000Y-131800000D01*
X123938819Y-143101383D02*
X123938819Y-143061181D01*
X125000000Y-100900000D02*
X123998617Y-99898617D01*
X151000000Y-97200000D02*
X151400000Y-97200000D01*
X151100000Y-95175000D02*
X151100000Y-96700000D01*
X150800000Y-119500001D02*
X150800000Y-117800000D01*
X123998617Y-99898617D02*
X123938819Y-99898617D01*
X127898617Y-147061181D02*
X127938819Y-147061181D01*
X127938819Y-147061181D02*
X128900000Y-146100000D01*
X147500000Y-139800000D02*
X149200000Y-139800000D01*
X145500000Y-95175000D02*
X145500000Y-96575000D01*
X150700000Y-96900000D02*
X151000000Y-97200000D01*
X123938819Y-143061181D02*
X124900000Y-142100000D01*
X127938819Y-95938819D02*
X128900000Y-96900000D01*
X127898617Y-95938819D02*
X127938819Y-95938819D01*
X147500000Y-133200000D02*
X149200000Y-133200000D01*
X139500000Y-145075000D02*
X139525000Y-145050000D01*
X150900000Y-96700000D02*
X150700000Y-96900000D01*
X139500000Y-141200000D02*
X141200000Y-141200000D01*
X139500000Y-125200000D02*
X141200000Y-125200000D01*
%TO.N,/L_START{slash}R_SELECT*%
X153075000Y-118475000D02*
X153100000Y-118500000D01*
X144200000Y-123500000D02*
X150800000Y-123500000D01*
X153100000Y-121200000D02*
X150800000Y-123500000D01*
X153100000Y-118500000D02*
X153100000Y-121200000D01*
%TO.N,/L_DPAD_UP{slash}R_BTN_A*%
X135500000Y-131800000D02*
X135500000Y-125200000D01*
X135500000Y-125200000D02*
X133950000Y-125200000D01*
%TO.N,/L_DPAD_RIGHT{slash}R_BTN_Y*%
X143500000Y-139800000D02*
X143500000Y-133200000D01*
X143500000Y-125850000D02*
X143500000Y-133200000D01*
X141525000Y-123875000D02*
X143500000Y-125850000D01*
X141525000Y-122100000D02*
X141525000Y-123875000D01*
%TO.N,/L_DPAD_DOWN{slash}R_BTN_B*%
X135500000Y-141200000D02*
X135500000Y-147800000D01*
%TO.N,/L_DPAD_LEFT{slash}R_BTN_X*%
X127500000Y-139800000D02*
X127500000Y-133200000D01*
X127500000Y-131600000D02*
X128325000Y-130775000D01*
X127500000Y-133200000D02*
X127500000Y-131600000D01*
%TO.N,/L_R_L1_TRIG*%
X125900000Y-147537436D02*
X126661181Y-148298617D01*
X127600000Y-97700000D02*
X148150000Y-97700000D01*
X151950000Y-114075000D02*
X151950000Y-108400000D01*
X148150000Y-97700000D02*
X149900000Y-99450000D01*
X149900000Y-106350000D02*
X151950000Y-108400000D01*
X124950000Y-97750000D02*
X125650000Y-97050000D01*
X124750000Y-145075000D02*
X125900000Y-146225000D01*
X123437564Y-145075000D02*
X124750000Y-145075000D01*
X126150000Y-95212564D02*
X126150000Y-96250000D01*
X122701383Y-144338819D02*
X123437564Y-145075000D01*
X126950000Y-97050000D02*
X127600000Y-97700000D01*
X126150000Y-96250000D02*
X126950000Y-97050000D01*
X125650000Y-97050000D02*
X126950000Y-97050000D01*
X123612564Y-97750000D02*
X124950000Y-97750000D01*
X149900000Y-99450000D02*
X149900000Y-106350000D01*
X126661181Y-94701383D02*
X126150000Y-95212564D01*
X122701383Y-98661181D02*
X123612564Y-97750000D01*
X125900000Y-146225000D02*
X125900000Y-147537436D01*
%TO.N,/L_HOME{slash}R_EXTRA*%
X151475000Y-128675000D02*
X154650000Y-125500000D01*
X149675000Y-148650000D02*
X147425000Y-148650000D01*
X149650000Y-97650000D02*
X149650000Y-94775000D01*
X149150000Y-94275000D02*
X149650000Y-94775000D01*
X150525000Y-105875000D02*
X150525000Y-98525000D01*
X149650000Y-94150000D02*
X149650000Y-94775000D01*
X153425000Y-114050000D02*
X153425000Y-108775000D01*
X144525000Y-149575000D02*
X143725000Y-148775000D01*
X154650000Y-115275000D02*
X153425000Y-114050000D01*
X147625000Y-128675000D02*
X151475000Y-128675000D01*
X145275000Y-131025000D02*
X147625000Y-128675000D01*
X151100000Y-93425000D02*
X150375000Y-93425000D01*
X150525000Y-98525000D02*
X149650000Y-97650000D01*
X151100000Y-149575000D02*
X150600000Y-149575000D01*
X150600000Y-149575000D02*
X149675000Y-148650000D01*
X145500000Y-93425000D02*
X146350000Y-94275000D01*
X146350000Y-94275000D02*
X149150000Y-94275000D01*
X154650000Y-125500000D02*
X154650000Y-115275000D01*
X147425000Y-148650000D02*
X146500000Y-149575000D01*
X146500000Y-149575000D02*
X145500000Y-149575000D01*
X150375000Y-93425000D02*
X149650000Y-94150000D01*
X153425000Y-108775000D02*
X150525000Y-105875000D01*
X143725000Y-148775000D02*
X143725000Y-144875000D01*
X143725000Y-144875000D02*
X143700000Y-144850000D01*
X145275000Y-143275000D02*
X145275000Y-131025000D01*
X143700000Y-144850000D02*
X145275000Y-143275000D01*
X145500000Y-149575000D02*
X144525000Y-149575000D01*
%TD*%
%TA.AperFunction,Conductor*%
%TO.N,GND*%
G36*
X152479186Y-108339720D02*
G01*
X152486172Y-108342910D01*
X152522342Y-108368023D01*
X153025573Y-108871254D01*
X153046723Y-108899506D01*
X153059331Y-108922595D01*
X153074500Y-108982024D01*
X153074500Y-113371490D01*
X153066905Y-113414221D01*
X152992428Y-113617107D01*
X152963706Y-113662055D01*
X152944489Y-113681272D01*
X152944485Y-113681277D01*
X152944480Y-113681283D01*
X152944470Y-113681298D01*
X152865430Y-113818200D01*
X152865425Y-113818210D01*
X152865424Y-113818211D01*
X152865422Y-113818218D01*
X152833537Y-113937215D01*
X152824500Y-113970943D01*
X152824500Y-114129057D01*
X152831199Y-114154056D01*
X152851086Y-114228278D01*
X152862289Y-114270085D01*
X152865423Y-114281783D01*
X152865426Y-114281790D01*
X152943770Y-114417488D01*
X152944309Y-114418507D01*
X152944398Y-114418634D01*
X153056287Y-114530523D01*
X153056969Y-114531014D01*
X153059475Y-114532363D01*
X153193209Y-114609573D01*
X153193216Y-114609577D01*
X153345943Y-114650500D01*
X153345945Y-114650500D01*
X153373132Y-114650500D01*
X153425228Y-114661974D01*
X153621351Y-114752773D01*
X153656936Y-114777618D01*
X154250573Y-115371255D01*
X154271723Y-115399507D01*
X154284331Y-115422596D01*
X154299500Y-115482025D01*
X154299500Y-125285626D01*
X154294476Y-125320563D01*
X154287064Y-125345804D01*
X154255769Y-125398548D01*
X151378744Y-128275573D01*
X151350493Y-128296722D01*
X151327405Y-128309330D01*
X151267975Y-128324500D01*
X147578856Y-128324500D01*
X147489725Y-128348382D01*
X147489708Y-128348387D01*
X147489703Y-128348389D01*
X147409791Y-128394526D01*
X147409790Y-128394527D01*
X147409784Y-128394532D01*
X147409777Y-128394538D01*
X144994538Y-130809777D01*
X144994532Y-130809784D01*
X144994527Y-130809790D01*
X144994526Y-130809791D01*
X144948389Y-130889703D01*
X144948387Y-130889708D01*
X144948382Y-130889725D01*
X144924500Y-130978856D01*
X144924500Y-143060626D01*
X144919476Y-143095563D01*
X144912064Y-143120804D01*
X144880769Y-143173548D01*
X144365076Y-143689240D01*
X144336826Y-143710389D01*
X144326899Y-143715810D01*
X144258626Y-143730664D01*
X144193161Y-143706250D01*
X144151288Y-143650318D01*
X144151280Y-143650296D01*
X144150197Y-143647391D01*
X144143912Y-143584677D01*
X144147501Y-143562021D01*
X144150500Y-143543094D01*
X144150500Y-143306902D01*
X144113553Y-143073631D01*
X144040566Y-142849003D01*
X143972618Y-142715649D01*
X143933343Y-142638567D01*
X143794517Y-142447490D01*
X143627510Y-142280483D01*
X143436433Y-142141657D01*
X143225996Y-142034433D01*
X143001368Y-141961446D01*
X143001362Y-141961445D01*
X142768102Y-141924500D01*
X142768097Y-141924500D01*
X142768092Y-141924500D01*
X142531908Y-141924500D01*
X142531903Y-141924500D01*
X142531898Y-141924500D01*
X142298636Y-141961445D01*
X142298634Y-141961445D01*
X142298631Y-141961446D01*
X142074003Y-142034433D01*
X142002972Y-142070625D01*
X141863566Y-142141656D01*
X141794391Y-142191916D01*
X141759180Y-142217499D01*
X141684358Y-142271859D01*
X141676979Y-142275992D01*
X141500991Y-142451980D01*
X141496858Y-142459361D01*
X141445862Y-142529550D01*
X141445861Y-142529549D01*
X141366659Y-142638562D01*
X141366657Y-142638566D01*
X141259433Y-142849003D01*
X141186446Y-143073631D01*
X141186445Y-143073634D01*
X141186445Y-143073636D01*
X141149500Y-143306896D01*
X141149500Y-143543102D01*
X141179157Y-143730349D01*
X141186446Y-143776368D01*
X141259433Y-144000996D01*
X141328661Y-144136863D01*
X141359358Y-144197109D01*
X141360688Y-144199718D01*
X141366657Y-144211433D01*
X141505483Y-144402510D01*
X141672490Y-144569517D01*
X141863567Y-144708343D01*
X141934606Y-144744539D01*
X142067559Y-144812283D01*
X142069154Y-144813216D01*
X142072859Y-144815011D01*
X142074864Y-144816008D01*
X142078630Y-144817070D01*
X142098383Y-144823488D01*
X142136834Y-144835981D01*
X142136835Y-144835982D01*
X142190767Y-144853505D01*
X142298631Y-144888553D01*
X142531903Y-144925500D01*
X142531908Y-144925500D01*
X142768096Y-144925500D01*
X142768097Y-144925500D01*
X143001368Y-144888553D01*
X143007893Y-144886433D01*
X143178522Y-144830990D01*
X143213300Y-144824973D01*
X143228919Y-144824527D01*
X143296492Y-144842288D01*
X143296728Y-144842431D01*
X143296794Y-144842471D01*
X143341214Y-144888827D01*
X143346357Y-144898192D01*
X143357443Y-144925787D01*
X143368172Y-144965827D01*
X143371336Y-144981736D01*
X143373439Y-144997710D01*
X143374500Y-145013895D01*
X143374500Y-148821144D01*
X143379380Y-148839354D01*
X143398386Y-148910287D01*
X143398387Y-148910290D01*
X143444527Y-148990208D01*
X143444529Y-148990211D01*
X143444530Y-148990212D01*
X143459816Y-149005498D01*
X144193519Y-149739201D01*
X144201628Y-149748141D01*
X144213954Y-149763136D01*
X144213956Y-149763138D01*
X144228584Y-149775124D01*
X144237675Y-149783357D01*
X144309788Y-149855470D01*
X144309789Y-149855471D01*
X144309791Y-149855472D01*
X144358070Y-149883345D01*
X144374663Y-149894819D01*
X144449960Y-149956517D01*
X144774432Y-150222386D01*
X144777684Y-150224335D01*
X144797529Y-150239104D01*
X144799610Y-150241003D01*
X144811652Y-150253045D01*
X144811654Y-150253046D01*
X144811658Y-150253050D01*
X144924694Y-150310645D01*
X144924698Y-150310647D01*
X145018220Y-150325458D01*
X145018457Y-150325497D01*
X145018466Y-150325497D01*
X145018475Y-150325499D01*
X145018481Y-150325500D01*
X145981518Y-150325499D01*
X146075304Y-150310646D01*
X146188342Y-150253050D01*
X146194545Y-150246846D01*
X146215972Y-150229713D01*
X146220460Y-150226876D01*
X146220461Y-150226874D01*
X146220465Y-150226873D01*
X146638727Y-149900992D01*
X146652918Y-149891434D01*
X146710449Y-149858219D01*
X146712953Y-149856814D01*
X146722487Y-149851606D01*
X146722488Y-149851607D01*
X146740537Y-149841748D01*
X146808809Y-149826891D01*
X146874275Y-149851303D01*
X146916142Y-149907207D01*
X146917312Y-149910341D01*
X146924760Y-149963443D01*
X146924500Y-149966745D01*
X146924500Y-150183258D01*
X146958370Y-150397101D01*
X146998375Y-150520225D01*
X147004393Y-150555004D01*
X147004789Y-150568875D01*
X146987026Y-150636449D01*
X146935562Y-150683686D01*
X146929291Y-150686770D01*
X146874569Y-150699498D01*
X142960454Y-150699500D01*
X133002553Y-150699500D01*
X133000840Y-150699488D01*
X132999175Y-150699465D01*
X132997530Y-150699432D01*
X132317503Y-150681011D01*
X132314152Y-150680874D01*
X132310793Y-150680692D01*
X132307439Y-150680465D01*
X131631965Y-150625464D01*
X131628629Y-150625147D01*
X131625326Y-150624788D01*
X131621985Y-150624379D01*
X130950451Y-150532886D01*
X130947115Y-150532385D01*
X130943781Y-150531838D01*
X130940490Y-150531252D01*
X130274968Y-150403550D01*
X130271693Y-150402876D01*
X130268402Y-150402152D01*
X130265118Y-150401383D01*
X129607422Y-150237823D01*
X129604183Y-150236971D01*
X129600937Y-150236070D01*
X129597705Y-150235125D01*
X128949878Y-150036212D01*
X128946700Y-150035189D01*
X128943493Y-150034109D01*
X128940307Y-150032988D01*
X128304161Y-149799280D01*
X128301036Y-149798083D01*
X128297928Y-149796845D01*
X128294814Y-149795556D01*
X127672259Y-149527752D01*
X127669177Y-149526376D01*
X127666111Y-149524957D01*
X127663099Y-149523513D01*
X127149196Y-149268642D01*
X127120129Y-149248620D01*
X127109935Y-149239199D01*
X127074062Y-149179242D01*
X127076298Y-149109409D01*
X127078395Y-149103030D01*
X127108510Y-149054075D01*
X127532349Y-148630237D01*
X127588163Y-148553417D01*
X127627366Y-148432761D01*
X127627366Y-148387838D01*
X127632388Y-148352905D01*
X127635919Y-148340880D01*
X127636299Y-148339586D01*
X127674072Y-148280809D01*
X127737624Y-148251784D01*
X127746396Y-148250523D01*
X127794873Y-148253157D01*
X127887211Y-148276866D01*
X127887217Y-148276867D01*
X128051437Y-148276867D01*
X128051438Y-148276867D01*
X128051445Y-148276866D01*
X128210503Y-148236026D01*
X128210509Y-148236024D01*
X128354421Y-148156907D01*
X128354428Y-148156903D01*
X128382524Y-148132907D01*
X128499657Y-148015774D01*
X128499656Y-148015773D01*
X128499657Y-148015773D01*
X127721840Y-147237958D01*
X127545062Y-147061180D01*
X128252170Y-147061180D01*
X128853209Y-147662221D01*
X128853209Y-147662220D01*
X128853210Y-147662221D01*
X128970341Y-147545090D01*
X128970355Y-147545072D01*
X128971983Y-147543313D01*
X128972053Y-147543377D01*
X128972063Y-147543368D01*
X128972291Y-147543596D01*
X128996129Y-147522626D01*
X129005611Y-147516436D01*
X129072505Y-147496274D01*
X129139683Y-147515479D01*
X129185809Y-147567944D01*
X129187750Y-147572114D01*
X129187919Y-147572476D01*
X129199500Y-147624802D01*
X129199500Y-147650781D01*
X129238859Y-147949755D01*
X129238860Y-147949760D01*
X129238861Y-147949766D01*
X129265719Y-148050000D01*
X129316912Y-148241058D01*
X129432032Y-148518980D01*
X129432292Y-148519618D01*
X129432316Y-148519668D01*
X129465164Y-148576562D01*
X129583099Y-148780831D01*
X129583100Y-148780832D01*
X129583102Y-148780835D01*
X129766672Y-149020070D01*
X129766676Y-149020075D01*
X129766679Y-149020078D01*
X129766685Y-149020085D01*
X129979914Y-149233314D01*
X129979921Y-149233320D01*
X129979924Y-149233322D01*
X129979928Y-149233326D01*
X130135233Y-149352495D01*
X130219168Y-149416900D01*
X130476899Y-149565701D01*
X130482093Y-149568701D01*
X130482095Y-149568702D01*
X130482683Y-149569042D01*
X130487828Y-149570787D01*
X130644407Y-149635645D01*
X130758939Y-149683086D01*
X130758940Y-149683086D01*
X130758942Y-149683087D01*
X130758944Y-149683087D01*
X130759691Y-149683397D01*
X130762842Y-149684132D01*
X131050232Y-149761138D01*
X131349217Y-149800500D01*
X131349224Y-149800500D01*
X131650776Y-149800500D01*
X131650783Y-149800500D01*
X131949768Y-149761138D01*
X132241058Y-149683087D01*
X132519668Y-149567683D01*
X132780832Y-149416900D01*
X133020080Y-149233319D01*
X133233319Y-149020080D01*
X133416900Y-148780832D01*
X133567683Y-148519668D01*
X133683087Y-148241058D01*
X133761138Y-147949768D01*
X133800500Y-147650783D01*
X133800500Y-147349217D01*
X133761138Y-147050232D01*
X133683087Y-146758942D01*
X133678053Y-146746790D01*
X133672387Y-146733112D01*
X133588608Y-146530849D01*
X133567687Y-146480340D01*
X133567680Y-146480327D01*
X133560832Y-146468466D01*
X133545949Y-146442688D01*
X133416900Y-146219168D01*
X133334404Y-146111657D01*
X133233326Y-145979928D01*
X133233322Y-145979924D01*
X133233320Y-145979921D01*
X133233314Y-145979914D01*
X133020085Y-145766685D01*
X133020078Y-145766679D01*
X133020075Y-145766676D01*
X133020070Y-145766672D01*
X132780835Y-145583102D01*
X132780834Y-145583101D01*
X132780831Y-145583099D01*
X132519671Y-145432318D01*
X132519672Y-145432318D01*
X132519668Y-145432316D01*
X132519618Y-145432292D01*
X132518980Y-145432032D01*
X132241058Y-145316912D01*
X132095413Y-145277887D01*
X131949766Y-145238861D01*
X131949760Y-145238860D01*
X131949755Y-145238859D01*
X131654883Y-145200039D01*
X131652867Y-145199705D01*
X131650793Y-145199500D01*
X131650788Y-145199500D01*
X131650783Y-145199500D01*
X131349217Y-145199500D01*
X131349211Y-145199500D01*
X131349206Y-145199500D01*
X131347129Y-145199705D01*
X131345115Y-145200039D01*
X131050243Y-145238859D01*
X131050236Y-145238860D01*
X131050233Y-145238861D01*
X131029136Y-145244514D01*
X130758940Y-145316912D01*
X130481018Y-145432032D01*
X130480388Y-145432288D01*
X130480330Y-145432316D01*
X130219163Y-145583102D01*
X129979928Y-145766672D01*
X129979913Y-145766686D01*
X129979905Y-145766693D01*
X129766693Y-145979905D01*
X129766686Y-145979913D01*
X129766672Y-145979928D01*
X129583102Y-146219163D01*
X129432316Y-146480330D01*
X129432288Y-146480388D01*
X129432032Y-146481018D01*
X129316912Y-146758941D01*
X129316911Y-146758944D01*
X129297848Y-146830088D01*
X129283955Y-146862532D01*
X129278068Y-146872190D01*
X129226367Y-146919188D01*
X129157465Y-146930774D01*
X129093239Y-146903270D01*
X129087939Y-146898894D01*
X129058241Y-146863025D01*
X129049601Y-146847309D01*
X128994346Y-146746801D01*
X128994339Y-146746790D01*
X128970341Y-146718692D01*
X128970332Y-146718682D01*
X128970331Y-146718681D01*
X128970318Y-146718667D01*
X128782500Y-146530850D01*
X128252170Y-147061180D01*
X127545062Y-147061180D01*
X126944022Y-146460140D01*
X126826903Y-146577258D01*
X126826890Y-146577272D01*
X126802895Y-146605367D01*
X126802894Y-146605369D01*
X126802890Y-146605376D01*
X126725141Y-146746801D01*
X126723774Y-146749287D01*
X126723771Y-146749292D01*
X126723769Y-146749298D01*
X126682931Y-146908349D01*
X126682931Y-147072588D01*
X126705459Y-147160325D01*
X126709282Y-147195422D01*
X126708971Y-147204472D01*
X126686995Y-147270796D01*
X126632651Y-147314710D01*
X126570647Y-147323374D01*
X126360103Y-147298762D01*
X126295802Y-147271427D01*
X126256488Y-147213668D01*
X126250500Y-147175601D01*
X126250500Y-146245057D01*
X126255523Y-146210121D01*
X126259927Y-146195123D01*
X126297672Y-146136372D01*
X126299041Y-146135185D01*
X126353907Y-146107707D01*
X126359062Y-146106586D01*
X127297576Y-146106586D01*
X127898617Y-146707627D01*
X128428947Y-146177297D01*
X128428947Y-146177296D01*
X128241129Y-145989478D01*
X128241113Y-145989463D01*
X128241105Y-145989456D01*
X128213011Y-145965461D01*
X128213005Y-145965457D01*
X128210995Y-145964352D01*
X128069088Y-145886337D01*
X128069084Y-145886335D01*
X128069083Y-145886335D01*
X128069077Y-145886333D01*
X127910026Y-145845495D01*
X127910024Y-145845495D01*
X127745788Y-145845495D01*
X127745785Y-145845495D01*
X127586734Y-145886333D01*
X127586728Y-145886335D01*
X127586725Y-145886336D01*
X127586724Y-145886337D01*
X127450634Y-145961154D01*
X127442803Y-145965459D01*
X127414708Y-145989454D01*
X127414694Y-145989467D01*
X127334805Y-146069357D01*
X127297576Y-146106586D01*
X126359062Y-146106586D01*
X126362860Y-146105760D01*
X126379490Y-146103309D01*
X126380517Y-146103228D01*
X126380525Y-146103228D01*
X126380526Y-146103228D01*
X126594369Y-146069358D01*
X126800281Y-146002454D01*
X126872884Y-145965461D01*
X126913553Y-145944739D01*
X126940081Y-145931222D01*
X126993191Y-145904161D01*
X127168350Y-145776900D01*
X127321444Y-145623806D01*
X127448705Y-145448647D01*
X127546998Y-145255737D01*
X127601628Y-145087598D01*
X127617195Y-145055936D01*
X127624509Y-145045241D01*
X127678598Y-145001015D01*
X127748013Y-144993052D01*
X127806713Y-145020365D01*
X127813808Y-145026338D01*
X127834272Y-145048315D01*
X127855483Y-145077510D01*
X128022490Y-145244517D01*
X128213567Y-145383343D01*
X128249426Y-145401614D01*
X128424003Y-145490566D01*
X128424004Y-145490566D01*
X128424879Y-145491012D01*
X128428627Y-145492069D01*
X128512691Y-145519383D01*
X128648631Y-145563553D01*
X128881903Y-145600500D01*
X128881908Y-145600500D01*
X129118096Y-145600500D01*
X129118097Y-145600500D01*
X129351368Y-145563553D01*
X129435936Y-145536075D01*
X129575992Y-145490568D01*
X129786433Y-145383343D01*
X129977510Y-145244517D01*
X130144517Y-145077510D01*
X130283343Y-144886433D01*
X130390568Y-144675992D01*
X130463553Y-144451368D01*
X130479825Y-144348631D01*
X130500500Y-144218097D01*
X130500500Y-143981902D01*
X130463553Y-143748631D01*
X130401351Y-143557194D01*
X130390568Y-143524008D01*
X130390566Y-143524005D01*
X130390566Y-143524003D01*
X130388317Y-143519590D01*
X130388010Y-143518802D01*
X130387284Y-143517562D01*
X130304621Y-143355328D01*
X130283343Y-143313567D01*
X130144517Y-143122490D01*
X129977510Y-142955483D01*
X129786433Y-142816657D01*
X129728226Y-142786999D01*
X129575996Y-142709433D01*
X129351368Y-142636446D01*
X129351362Y-142636445D01*
X129118102Y-142599500D01*
X129118097Y-142599500D01*
X129118092Y-142599500D01*
X128881908Y-142599500D01*
X128881903Y-142599500D01*
X128881898Y-142599500D01*
X128648636Y-142636445D01*
X128648634Y-142636445D01*
X128648631Y-142636446D01*
X128424003Y-142709433D01*
X128411804Y-142715649D01*
X128213566Y-142816656D01*
X128160901Y-142854921D01*
X128034361Y-142946858D01*
X128026980Y-142950991D01*
X127850990Y-143126981D01*
X127846857Y-143134362D01*
X127822651Y-143167676D01*
X127822652Y-143167677D01*
X127716661Y-143313560D01*
X127716657Y-143313566D01*
X127716655Y-143313568D01*
X127716653Y-143313573D01*
X127695378Y-143355328D01*
X127609433Y-143524003D01*
X127597080Y-143562021D01*
X127536446Y-143748630D01*
X127535312Y-143753359D01*
X127534910Y-143753262D01*
X127526132Y-143781646D01*
X127520585Y-143793347D01*
X127474081Y-143845492D01*
X127406767Y-143864217D01*
X127344509Y-143846420D01*
X127336570Y-143841633D01*
X127312918Y-143823124D01*
X127168352Y-143678558D01*
X127168350Y-143678556D01*
X127080770Y-143614925D01*
X126993189Y-143551293D01*
X126977094Y-143543093D01*
X126977092Y-143543092D01*
X126800281Y-143453001D01*
X126800278Y-143453000D01*
X126800275Y-143452999D01*
X126800273Y-143452998D01*
X126800254Y-143452991D01*
X126594372Y-143386098D01*
X126594373Y-143386098D01*
X126400161Y-143355338D01*
X126400159Y-143355337D01*
X126380526Y-143352228D01*
X126164018Y-143352228D01*
X126144381Y-143355337D01*
X126144382Y-143355338D01*
X125950169Y-143386098D01*
X125744288Y-143452991D01*
X125744269Y-143452998D01*
X125744268Y-143452998D01*
X125551358Y-143551291D01*
X125551352Y-143551295D01*
X125504563Y-143585290D01*
X125388065Y-143669931D01*
X125380684Y-143674064D01*
X125218607Y-143836141D01*
X125214477Y-143843517D01*
X125183623Y-143885985D01*
X125183622Y-143885987D01*
X125095838Y-144006808D01*
X124997542Y-144199724D01*
X124997535Y-144199744D01*
X124930642Y-144405625D01*
X124899494Y-144602287D01*
X124889067Y-144636009D01*
X124882370Y-144650135D01*
X124835883Y-144702267D01*
X124830288Y-144705752D01*
X124764729Y-144724500D01*
X123827096Y-144724500D01*
X123760057Y-144704815D01*
X123714302Y-144652011D01*
X123704300Y-144617738D01*
X123691391Y-144525783D01*
X123678111Y-144431178D01*
X123688285Y-144362054D01*
X123734215Y-144309403D01*
X123783273Y-144291201D01*
X123785390Y-144290896D01*
X123785395Y-144290897D01*
X123786603Y-144290723D01*
X123835071Y-144293358D01*
X123927413Y-144317068D01*
X123927419Y-144317069D01*
X124091639Y-144317069D01*
X124091640Y-144317069D01*
X124091647Y-144317068D01*
X124250705Y-144276228D01*
X124250711Y-144276226D01*
X124394623Y-144197109D01*
X124394630Y-144197105D01*
X124422726Y-144173109D01*
X124539859Y-144055976D01*
X123862330Y-143378447D01*
X123841178Y-143350191D01*
X123833686Y-143336470D01*
X123818834Y-143268210D01*
X123818963Y-143266401D01*
X123838330Y-143208203D01*
X123842520Y-143201684D01*
X123859141Y-143181058D01*
X123938818Y-143101382D01*
X123938817Y-143101381D01*
X124292372Y-143101381D01*
X124292372Y-143101382D01*
X124893411Y-143702423D01*
X124893412Y-143702423D01*
X125010545Y-143585290D01*
X125034541Y-143557194D01*
X125034545Y-143557187D01*
X125113662Y-143413275D01*
X125113664Y-143413269D01*
X125154504Y-143254211D01*
X125154505Y-143254204D01*
X125154505Y-143089983D01*
X125154504Y-143089975D01*
X125113664Y-142930917D01*
X125113662Y-142930911D01*
X125034545Y-142786999D01*
X125034541Y-142786992D01*
X125010543Y-142758894D01*
X125010534Y-142758884D01*
X125010533Y-142758883D01*
X125010520Y-142758869D01*
X124822702Y-142571052D01*
X124292372Y-143101381D01*
X123938817Y-143101381D01*
X123862330Y-143024894D01*
X123841178Y-142996638D01*
X123833686Y-142982917D01*
X123818834Y-142914657D01*
X123818963Y-142912848D01*
X123838329Y-142854653D01*
X123842522Y-142848129D01*
X123859143Y-142827504D01*
X124469149Y-142217499D01*
X124469148Y-142217498D01*
X124469149Y-142217498D01*
X124281331Y-142029680D01*
X124281317Y-142029667D01*
X124281307Y-142029658D01*
X124253209Y-142005660D01*
X124253202Y-142005656D01*
X124109290Y-141926539D01*
X124109286Y-141926537D01*
X124109285Y-141926537D01*
X124109279Y-141926535D01*
X123950228Y-141885697D01*
X123950226Y-141885697D01*
X123827176Y-141885697D01*
X123792241Y-141880674D01*
X123781387Y-141877487D01*
X123722609Y-141839713D01*
X123693584Y-141776157D01*
X123703524Y-141707008D01*
X123706714Y-141700021D01*
X123731823Y-141663857D01*
X123846257Y-141549423D01*
X123874507Y-141528275D01*
X123897599Y-141515667D01*
X123957024Y-141500500D01*
X124985626Y-141500500D01*
X125020558Y-141505521D01*
X125045802Y-141512934D01*
X125098548Y-141544230D01*
X125834788Y-142280470D01*
X125835478Y-142280968D01*
X125837995Y-142282321D01*
X125867151Y-142299154D01*
X125873683Y-142304166D01*
X125873778Y-142304206D01*
X125888325Y-142311380D01*
X125914708Y-142326612D01*
X125914709Y-142326612D01*
X125914712Y-142326614D01*
X126003856Y-142350500D01*
X126003857Y-142350500D01*
X126003858Y-142350500D01*
X128646142Y-142350500D01*
X128646144Y-142350500D01*
X128735288Y-142326614D01*
X128768711Y-142307317D01*
X128815212Y-142280470D01*
X129680470Y-141415212D01*
X129726614Y-141335288D01*
X129731875Y-141315654D01*
X130500000Y-141315654D01*
X130502899Y-141352487D01*
X130502901Y-141352501D01*
X130502902Y-141352505D01*
X130548707Y-141510165D01*
X130548717Y-141510196D01*
X130548718Y-141510199D01*
X130632310Y-141651546D01*
X130632313Y-141651551D01*
X130632322Y-141651562D01*
X130748436Y-141767676D01*
X130748447Y-141767685D01*
X130748452Y-141767688D01*
X130889799Y-141851280D01*
X130889800Y-141851280D01*
X130889803Y-141851282D01*
X130889806Y-141851283D01*
X130889828Y-141851289D01*
X130889833Y-141851291D01*
X131047493Y-141897096D01*
X131047497Y-141897097D01*
X131047504Y-141897099D01*
X131047510Y-141897100D01*
X131084350Y-141899999D01*
X131084366Y-141900000D01*
X131250000Y-141900000D01*
X131750000Y-141900000D01*
X131915629Y-141900000D01*
X131915634Y-141900000D01*
X131915649Y-141899999D01*
X131952489Y-141897100D01*
X131952495Y-141897099D01*
X132110193Y-141851283D01*
X132110196Y-141851282D01*
X132251552Y-141767685D01*
X132251561Y-141767678D01*
X132367678Y-141651561D01*
X132367685Y-141651552D01*
X132451282Y-141510196D01*
X132451283Y-141510193D01*
X132497099Y-141352495D01*
X132497100Y-141352489D01*
X132499999Y-141315649D01*
X132500000Y-141315634D01*
X132500000Y-140050000D01*
X131750000Y-140050000D01*
X131750000Y-141900000D01*
X131250000Y-141900000D01*
X131250000Y-140050000D01*
X130500000Y-140050000D01*
X130500000Y-141315654D01*
X129731875Y-141315654D01*
X129750500Y-141246144D01*
X129750500Y-141153856D01*
X129750500Y-138284350D01*
X130500000Y-138284350D01*
X130500000Y-139550000D01*
X131250000Y-139550000D01*
X131750000Y-139550000D01*
X132500000Y-139550000D01*
X132500000Y-138284365D01*
X132499999Y-138284350D01*
X132497100Y-138247510D01*
X132497099Y-138247504D01*
X132492976Y-138233314D01*
X132451291Y-138089833D01*
X132451289Y-138089828D01*
X132451283Y-138089806D01*
X132451282Y-138089803D01*
X132418060Y-138033628D01*
X132367688Y-137948452D01*
X132367685Y-137948447D01*
X132367676Y-137948436D01*
X132251562Y-137832322D01*
X132251551Y-137832313D01*
X132251541Y-137832307D01*
X132110199Y-137748718D01*
X132110196Y-137748717D01*
X132110165Y-137748707D01*
X131952505Y-137702902D01*
X131952501Y-137702901D01*
X131952495Y-137702900D01*
X131952489Y-137702899D01*
X131941963Y-137702070D01*
X131915654Y-137700000D01*
X131915649Y-137700000D01*
X131750000Y-137700000D01*
X131750000Y-139550000D01*
X131250000Y-139550000D01*
X131250000Y-137700000D01*
X131084344Y-137700000D01*
X131052772Y-137702484D01*
X131047510Y-137702899D01*
X131047504Y-137702900D01*
X131047497Y-137702901D01*
X131047493Y-137702902D01*
X130889833Y-137748707D01*
X130889802Y-137748717D01*
X130889799Y-137748718D01*
X130748458Y-137832307D01*
X130748447Y-137832313D01*
X130748436Y-137832322D01*
X130632322Y-137948436D01*
X130632313Y-137948447D01*
X130632310Y-137948452D01*
X130548718Y-138089799D01*
X130548717Y-138089802D01*
X130548707Y-138089833D01*
X130502902Y-138247493D01*
X130502901Y-138247497D01*
X130502900Y-138247504D01*
X130502899Y-138247510D01*
X130500000Y-138284350D01*
X129750500Y-138284350D01*
X129750500Y-137864372D01*
X129755522Y-137829439D01*
X129758044Y-137820851D01*
X129762934Y-137804194D01*
X129794228Y-137751452D01*
X130846257Y-136699423D01*
X130874507Y-136678275D01*
X130897599Y-136665667D01*
X130957024Y-136650500D01*
X133046142Y-136650500D01*
X133046144Y-136650500D01*
X133135288Y-136626614D01*
X133215212Y-136580470D01*
X135096258Y-134699423D01*
X135124508Y-134678275D01*
X135147600Y-134665667D01*
X135207025Y-134650500D01*
X135778908Y-134650500D01*
X135813835Y-134655521D01*
X135824688Y-134658707D01*
X135883469Y-134696477D01*
X135912498Y-134760031D01*
X135902559Y-134829190D01*
X135902555Y-134829199D01*
X135899370Y-134836173D01*
X135874258Y-134872341D01*
X135766683Y-134979916D01*
X135766672Y-134979928D01*
X135583102Y-135219163D01*
X135583099Y-135219167D01*
X135583099Y-135219168D01*
X135571659Y-135238982D01*
X135432316Y-135480330D01*
X135432288Y-135480388D01*
X135432032Y-135481018D01*
X135316912Y-135758940D01*
X135278962Y-135900573D01*
X135238862Y-136050232D01*
X135238859Y-136050243D01*
X135199501Y-136349199D01*
X135199500Y-136349228D01*
X135199500Y-136650770D01*
X135199501Y-136650799D01*
X135238859Y-136949755D01*
X135238860Y-136949760D01*
X135238861Y-136949766D01*
X135246557Y-136978486D01*
X135314573Y-137232330D01*
X135316913Y-137241060D01*
X135430269Y-137514725D01*
X135432032Y-137518980D01*
X135432292Y-137519618D01*
X135432316Y-137519668D01*
X135432318Y-137519671D01*
X135583099Y-137780831D01*
X135583100Y-137780832D01*
X135583102Y-137780835D01*
X135663697Y-137885869D01*
X135680978Y-137916639D01*
X135685476Y-137928273D01*
X135691291Y-137997900D01*
X135658540Y-138059618D01*
X135601209Y-138092950D01*
X135591613Y-138095461D01*
X135560223Y-138099500D01*
X135420943Y-138099500D01*
X135268218Y-138140422D01*
X135268211Y-138140424D01*
X135268210Y-138140425D01*
X135268200Y-138140430D01*
X135131298Y-138219470D01*
X135131294Y-138219472D01*
X135131290Y-138219475D01*
X135131282Y-138219481D01*
X135131278Y-138219484D01*
X135131276Y-138219485D01*
X135019485Y-138331276D01*
X135019484Y-138331278D01*
X135019481Y-138331281D01*
X135019481Y-138331282D01*
X135019475Y-138331290D01*
X135019472Y-138331294D01*
X135019470Y-138331298D01*
X134940430Y-138468200D01*
X134940425Y-138468210D01*
X134940424Y-138468211D01*
X134940422Y-138468218D01*
X134913407Y-138569042D01*
X134899500Y-138620943D01*
X134899500Y-138779056D01*
X134905246Y-138800500D01*
X134940422Y-138931780D01*
X134940424Y-138931787D01*
X134940425Y-138931788D01*
X134940430Y-138931798D01*
X135000450Y-139035756D01*
X135019475Y-139068709D01*
X135019481Y-139068717D01*
X135090720Y-139139956D01*
X135111872Y-139168214D01*
X135118077Y-139179579D01*
X135132926Y-139247852D01*
X135108505Y-139313316D01*
X135057503Y-139353223D01*
X135048966Y-139356830D01*
X135033908Y-139361135D01*
X135033975Y-139361339D01*
X135024692Y-139364355D01*
X134911651Y-139421953D01*
X134821955Y-139511649D01*
X134821946Y-139511664D01*
X134764353Y-139624695D01*
X134764350Y-139624703D01*
X134749500Y-139718469D01*
X134749500Y-142681517D01*
X134752757Y-142702083D01*
X134754904Y-142715634D01*
X134764354Y-142775304D01*
X134821950Y-142888342D01*
X134821952Y-142888344D01*
X134821954Y-142888347D01*
X134911652Y-142978045D01*
X134911654Y-142978046D01*
X134911658Y-142978050D01*
X134948139Y-142996638D01*
X135024691Y-143035644D01*
X135024692Y-143035644D01*
X135024696Y-143035646D01*
X135027285Y-143036056D01*
X135061006Y-143046482D01*
X135075131Y-143053178D01*
X135127272Y-143099674D01*
X135130757Y-143105270D01*
X135149500Y-143170821D01*
X135149500Y-145820851D01*
X135144475Y-145855793D01*
X135143353Y-145859612D01*
X135140070Y-145870793D01*
X135102299Y-145929561D01*
X135097317Y-145933878D01*
X135035598Y-145962626D01*
X135035069Y-145962710D01*
X135034422Y-145962812D01*
X135029485Y-145963202D01*
X135024701Y-145964351D01*
X135024699Y-145964352D01*
X134975431Y-145989456D01*
X134975430Y-145989455D01*
X134911651Y-146021953D01*
X134821955Y-146111649D01*
X134821946Y-146111664D01*
X134764353Y-146224695D01*
X134764350Y-146224703D01*
X134749500Y-146318469D01*
X134749500Y-146318475D01*
X134749500Y-149281517D01*
X134754904Y-149315634D01*
X134764354Y-149375304D01*
X134821950Y-149488342D01*
X134821952Y-149488344D01*
X134821954Y-149488347D01*
X134911652Y-149578045D01*
X134911654Y-149578046D01*
X134911658Y-149578050D01*
X135024694Y-149635645D01*
X135024698Y-149635647D01*
X135118220Y-149650458D01*
X135118457Y-149650497D01*
X135118466Y-149650497D01*
X135118475Y-149650499D01*
X135118481Y-149650500D01*
X135881518Y-149650499D01*
X135975304Y-149635646D01*
X136088342Y-149578050D01*
X136178050Y-149488342D01*
X136235646Y-149375304D01*
X136235646Y-149375302D01*
X136235647Y-149375301D01*
X136235649Y-149375288D01*
X136236784Y-149370562D01*
X136236784Y-149370560D01*
X136236786Y-149370554D01*
X136236789Y-149370539D01*
X136237173Y-149365667D01*
X136245094Y-149315654D01*
X138500000Y-149315654D01*
X138502899Y-149352487D01*
X138502901Y-149352501D01*
X138502902Y-149352505D01*
X138548707Y-149510165D01*
X138548717Y-149510196D01*
X138548718Y-149510199D01*
X138632310Y-149651546D01*
X138632313Y-149651551D01*
X138632322Y-149651562D01*
X138748436Y-149767676D01*
X138748447Y-149767685D01*
X138748452Y-149767688D01*
X138889799Y-149851280D01*
X138889800Y-149851280D01*
X138889803Y-149851282D01*
X138889806Y-149851283D01*
X138889828Y-149851289D01*
X138889833Y-149851291D01*
X139047493Y-149897096D01*
X139047497Y-149897097D01*
X139047504Y-149897099D01*
X139047510Y-149897100D01*
X139084350Y-149899999D01*
X139084366Y-149900000D01*
X139250000Y-149900000D01*
X139750000Y-149900000D01*
X139915629Y-149900000D01*
X139915634Y-149900000D01*
X139915649Y-149899999D01*
X139952489Y-149897100D01*
X139952495Y-149897099D01*
X140110193Y-149851283D01*
X140110196Y-149851282D01*
X140251552Y-149767685D01*
X140251561Y-149767678D01*
X140367678Y-149651561D01*
X140367685Y-149651552D01*
X140451282Y-149510196D01*
X140451283Y-149510193D01*
X140497099Y-149352495D01*
X140497100Y-149352489D01*
X140499999Y-149315649D01*
X140500000Y-149315634D01*
X140500000Y-148050000D01*
X139750000Y-148050000D01*
X139750000Y-149900000D01*
X139250000Y-149900000D01*
X139250000Y-148050000D01*
X138500000Y-148050000D01*
X138500000Y-149315654D01*
X136245094Y-149315654D01*
X136250500Y-149281523D01*
X136250500Y-147998638D01*
X136250499Y-146318479D01*
X136247785Y-146301347D01*
X136247781Y-146301319D01*
X136245093Y-146284350D01*
X138500000Y-146284350D01*
X138500000Y-147550000D01*
X139250000Y-147550000D01*
X139750000Y-147550000D01*
X140500000Y-147550000D01*
X140500000Y-146284365D01*
X140499999Y-146284350D01*
X140497100Y-146247510D01*
X140497099Y-146247504D01*
X140493653Y-146235644D01*
X140451291Y-146089833D01*
X140451289Y-146089828D01*
X140451283Y-146089806D01*
X140451282Y-146089803D01*
X140439190Y-146069357D01*
X140367688Y-145948452D01*
X140367685Y-145948447D01*
X140367676Y-145948436D01*
X140251562Y-145832322D01*
X140251551Y-145832313D01*
X140251541Y-145832307D01*
X140110199Y-145748718D01*
X140110196Y-145748717D01*
X140110165Y-145748707D01*
X139952505Y-145702902D01*
X139952501Y-145702901D01*
X139952495Y-145702900D01*
X139952489Y-145702899D01*
X139941963Y-145702070D01*
X139915654Y-145700000D01*
X139915649Y-145700000D01*
X139750000Y-145700000D01*
X139750000Y-147550000D01*
X139250000Y-147550000D01*
X139250000Y-145700000D01*
X139084344Y-145700000D01*
X139052772Y-145702484D01*
X139047510Y-145702899D01*
X139047504Y-145702900D01*
X139047497Y-145702901D01*
X139047493Y-145702902D01*
X138889833Y-145748707D01*
X138889802Y-145748717D01*
X138889799Y-145748718D01*
X138748458Y-145832307D01*
X138748447Y-145832313D01*
X138748436Y-145832322D01*
X138632322Y-145948436D01*
X138632313Y-145948447D01*
X138632310Y-145948452D01*
X138548718Y-146089799D01*
X138548717Y-146089802D01*
X138548707Y-146089833D01*
X138502902Y-146247493D01*
X138502901Y-146247497D01*
X138502900Y-146247504D01*
X138502899Y-146247510D01*
X138500000Y-146284350D01*
X136245093Y-146284350D01*
X136235646Y-146224696D01*
X136235645Y-146224694D01*
X136235644Y-146224691D01*
X136190642Y-146136372D01*
X136178050Y-146111658D01*
X136178046Y-146111654D01*
X136178045Y-146111652D01*
X136088347Y-146021954D01*
X136088345Y-146021953D01*
X136088343Y-146021951D01*
X136088342Y-146021950D01*
X135975304Y-145964354D01*
X135975302Y-145964353D01*
X135975300Y-145964352D01*
X135961277Y-145961042D01*
X135936645Y-145952404D01*
X135924861Y-145946817D01*
X135872719Y-145900312D01*
X135872408Y-145899813D01*
X135869235Y-145894717D01*
X135850500Y-145829178D01*
X135850500Y-143179147D01*
X135855523Y-143144211D01*
X135859927Y-143129213D01*
X135897690Y-143070446D01*
X135899619Y-143068774D01*
X135902674Y-143066127D01*
X135964491Y-143037358D01*
X135975304Y-143035646D01*
X136088342Y-142978050D01*
X136178050Y-142888342D01*
X136235646Y-142775304D01*
X136235646Y-142775302D01*
X136235647Y-142775301D01*
X136235649Y-142775288D01*
X136236784Y-142770562D01*
X136236784Y-142770560D01*
X136236786Y-142770554D01*
X136236789Y-142770539D01*
X136237173Y-142765667D01*
X136245095Y-142715649D01*
X138500000Y-142715649D01*
X138502899Y-142752487D01*
X138502901Y-142752501D01*
X138502902Y-142752505D01*
X138548707Y-142910165D01*
X138548717Y-142910196D01*
X138548718Y-142910199D01*
X138632310Y-143051546D01*
X138632313Y-143051551D01*
X138632322Y-143051562D01*
X138748436Y-143167676D01*
X138748447Y-143167685D01*
X138748452Y-143167688D01*
X138889799Y-143251280D01*
X138889800Y-143251280D01*
X138889803Y-143251282D01*
X138889806Y-143251283D01*
X138889828Y-143251289D01*
X138889833Y-143251291D01*
X139047493Y-143297096D01*
X139047497Y-143297097D01*
X139047504Y-143297099D01*
X139047510Y-143297100D01*
X139084350Y-143299999D01*
X139084366Y-143300000D01*
X139250000Y-143300000D01*
X139750000Y-143300000D01*
X139915629Y-143300000D01*
X139915634Y-143300000D01*
X139915649Y-143299999D01*
X139952489Y-143297100D01*
X139952495Y-143297099D01*
X140110193Y-143251283D01*
X140110196Y-143251282D01*
X140251552Y-143167685D01*
X140251561Y-143167678D01*
X140367678Y-143051561D01*
X140367685Y-143051552D01*
X140451282Y-142910196D01*
X140451283Y-142910193D01*
X140497099Y-142752495D01*
X140497100Y-142752489D01*
X140499999Y-142715649D01*
X140500000Y-142715634D01*
X140500000Y-141450000D01*
X139750000Y-141450000D01*
X139750000Y-143300000D01*
X139250000Y-143300000D01*
X139250000Y-141450000D01*
X138500000Y-141450000D01*
X138500000Y-142715649D01*
X136245095Y-142715649D01*
X136246750Y-142705202D01*
X136250500Y-142681524D01*
X136250500Y-141398638D01*
X136250499Y-139718481D01*
X136247781Y-139701319D01*
X136245093Y-139684350D01*
X138500000Y-139684350D01*
X138500000Y-140950000D01*
X139250000Y-140950000D01*
X139750000Y-140950000D01*
X140500000Y-140950000D01*
X140500000Y-139684365D01*
X140499999Y-139684350D01*
X140497100Y-139647510D01*
X140497099Y-139647504D01*
X140457633Y-139511664D01*
X140451291Y-139489833D01*
X140451289Y-139489828D01*
X140451283Y-139489806D01*
X140451282Y-139489803D01*
X140411155Y-139421952D01*
X140367688Y-139348452D01*
X140367685Y-139348447D01*
X140367676Y-139348436D01*
X140251562Y-139232322D01*
X140251551Y-139232313D01*
X140251541Y-139232307D01*
X140110199Y-139148718D01*
X140110196Y-139148717D01*
X140110165Y-139148707D01*
X139952505Y-139102902D01*
X139952501Y-139102901D01*
X139952495Y-139102900D01*
X139952489Y-139102899D01*
X139941963Y-139102070D01*
X139915654Y-139100000D01*
X139915649Y-139100000D01*
X139750000Y-139100000D01*
X139750000Y-140950000D01*
X139250000Y-140950000D01*
X139250000Y-139100000D01*
X139084344Y-139100000D01*
X139052772Y-139102484D01*
X139047510Y-139102899D01*
X139047504Y-139102900D01*
X139047497Y-139102901D01*
X139047493Y-139102902D01*
X138889833Y-139148707D01*
X138889802Y-139148717D01*
X138889799Y-139148718D01*
X138748458Y-139232307D01*
X138748447Y-139232313D01*
X138748436Y-139232322D01*
X138632322Y-139348436D01*
X138632313Y-139348447D01*
X138632310Y-139348452D01*
X138548718Y-139489799D01*
X138548717Y-139489802D01*
X138548707Y-139489833D01*
X138502902Y-139647493D01*
X138502901Y-139647497D01*
X138502900Y-139647504D01*
X138502899Y-139647510D01*
X138500000Y-139684350D01*
X136245093Y-139684350D01*
X136235646Y-139624696D01*
X136235645Y-139624694D01*
X136235644Y-139624691D01*
X136197586Y-139550000D01*
X136178050Y-139511658D01*
X136178046Y-139511654D01*
X136178045Y-139511652D01*
X136088347Y-139421954D01*
X136088345Y-139421953D01*
X136088343Y-139421951D01*
X136088342Y-139421950D01*
X135975304Y-139364354D01*
X135975302Y-139364353D01*
X135975298Y-139364351D01*
X135974343Y-139364126D01*
X135949719Y-139355491D01*
X135944935Y-139353223D01*
X135937144Y-139349529D01*
X135885000Y-139303025D01*
X135866276Y-139235711D01*
X135884070Y-139173459D01*
X135888862Y-139165513D01*
X135907365Y-139141870D01*
X135980517Y-139068719D01*
X135980519Y-139068717D01*
X135980520Y-139068716D01*
X136059577Y-138931784D01*
X136100500Y-138779057D01*
X136100500Y-138620943D01*
X136096196Y-138604882D01*
X136092007Y-138569842D01*
X136092034Y-138568703D01*
X136092276Y-138558536D01*
X136113550Y-138491986D01*
X136167428Y-138447500D01*
X136236790Y-138439203D01*
X136244360Y-138440475D01*
X136285800Y-138455370D01*
X136392499Y-138516973D01*
X136476882Y-138565692D01*
X136478629Y-138566776D01*
X136482097Y-138568703D01*
X136482684Y-138569042D01*
X136487828Y-138570787D01*
X136570146Y-138604885D01*
X136608913Y-138620943D01*
X136754872Y-138681402D01*
X136754873Y-138681402D01*
X136758939Y-138683086D01*
X136758940Y-138683086D01*
X136758942Y-138683087D01*
X136758945Y-138683087D01*
X136759692Y-138683397D01*
X136762842Y-138684132D01*
X137050232Y-138761138D01*
X137349217Y-138800500D01*
X137349224Y-138800500D01*
X137650776Y-138800500D01*
X137650783Y-138800500D01*
X137949768Y-138761138D01*
X138241058Y-138683087D01*
X138519668Y-138567683D01*
X138780832Y-138416900D01*
X139020080Y-138233319D01*
X139233319Y-138020080D01*
X139416900Y-137780832D01*
X139567683Y-137519668D01*
X139683087Y-137241058D01*
X139761138Y-136949768D01*
X139800500Y-136650783D01*
X139800500Y-136349217D01*
X139761138Y-136050232D01*
X139683087Y-135758942D01*
X139638168Y-135650499D01*
X139598806Y-135555469D01*
X139567683Y-135480332D01*
X139567681Y-135480328D01*
X139567679Y-135480324D01*
X139461893Y-135297099D01*
X139431897Y-135245145D01*
X139416901Y-135219169D01*
X139233326Y-134979928D01*
X139233322Y-134979924D01*
X139233320Y-134979921D01*
X139233314Y-134979914D01*
X139020085Y-134766685D01*
X139020078Y-134766679D01*
X139020075Y-134766676D01*
X139020070Y-134766672D01*
X138780835Y-134583102D01*
X138780834Y-134583101D01*
X138780831Y-134583099D01*
X138519671Y-134432318D01*
X138519672Y-134432318D01*
X138519668Y-134432316D01*
X138519618Y-134432292D01*
X138518980Y-134432032D01*
X138241058Y-134316912D01*
X138095413Y-134277887D01*
X137949766Y-134238861D01*
X137949760Y-134238860D01*
X137949755Y-134238859D01*
X137654883Y-134200039D01*
X137652867Y-134199705D01*
X137650793Y-134199500D01*
X137650788Y-134199500D01*
X137650783Y-134199500D01*
X137349217Y-134199500D01*
X137349211Y-134199500D01*
X137349206Y-134199500D01*
X137347131Y-134199705D01*
X137345116Y-134200039D01*
X137065039Y-134236912D01*
X137065033Y-134236913D01*
X137050232Y-134238862D01*
X137050231Y-134238862D01*
X136975811Y-134258802D01*
X136974495Y-134259125D01*
X136972377Y-134259029D01*
X136942002Y-134262661D01*
X136930696Y-134262392D01*
X136911611Y-134256291D01*
X136904696Y-134255980D01*
X136899808Y-134252518D01*
X136864143Y-134241118D01*
X136819657Y-134187241D01*
X136811359Y-134117882D01*
X136811463Y-134117265D01*
X136832744Y-134065887D01*
X136834057Y-134064044D01*
X136847362Y-134048317D01*
X137580028Y-133315654D01*
X138500000Y-133315654D01*
X138501103Y-133329671D01*
X138502290Y-133344756D01*
X138502899Y-133352487D01*
X138502901Y-133352501D01*
X138502902Y-133352505D01*
X138548707Y-133510165D01*
X138548717Y-133510196D01*
X138548718Y-133510199D01*
X138632310Y-133651546D01*
X138632313Y-133651551D01*
X138632322Y-133651562D01*
X138748436Y-133767676D01*
X138748447Y-133767685D01*
X138748452Y-133767688D01*
X138889799Y-133851280D01*
X138889800Y-133851280D01*
X138889803Y-133851282D01*
X138889806Y-133851283D01*
X138889828Y-133851289D01*
X138889833Y-133851291D01*
X139047493Y-133897096D01*
X139047497Y-133897097D01*
X139047504Y-133897099D01*
X139047510Y-133897100D01*
X139084350Y-133899999D01*
X139084366Y-133900000D01*
X139250000Y-133900000D01*
X139750000Y-133900000D01*
X139915629Y-133900000D01*
X139915634Y-133900000D01*
X139915649Y-133899999D01*
X139952489Y-133897100D01*
X139952495Y-133897099D01*
X140110193Y-133851283D01*
X140110196Y-133851282D01*
X140251552Y-133767685D01*
X140251561Y-133767678D01*
X140367678Y-133651561D01*
X140367685Y-133651552D01*
X140451282Y-133510196D01*
X140451283Y-133510193D01*
X140497099Y-133352495D01*
X140497100Y-133352489D01*
X140499999Y-133315649D01*
X140500000Y-133315634D01*
X140500000Y-132050000D01*
X139750000Y-132050000D01*
X139750000Y-133900000D01*
X139250000Y-133900000D01*
X139250000Y-132050000D01*
X138500000Y-132050000D01*
X138500000Y-133315654D01*
X137580028Y-133315654D01*
X137630470Y-133265212D01*
X137676614Y-133185288D01*
X137679284Y-133175321D01*
X137685037Y-133153855D01*
X137690696Y-133132731D01*
X137700500Y-133096144D01*
X137700500Y-130284350D01*
X138500000Y-130284350D01*
X138500000Y-131550000D01*
X139250000Y-131550000D01*
X139750000Y-131550000D01*
X140500000Y-131550000D01*
X140500000Y-130284365D01*
X140499999Y-130284350D01*
X140497100Y-130247510D01*
X140497099Y-130247504D01*
X140495494Y-130241981D01*
X140451291Y-130089833D01*
X140451289Y-130089828D01*
X140451283Y-130089806D01*
X140451282Y-130089803D01*
X140449769Y-130087245D01*
X140367688Y-129948452D01*
X140367685Y-129948447D01*
X140367676Y-129948436D01*
X140251562Y-129832322D01*
X140251551Y-129832313D01*
X140251541Y-129832307D01*
X140110199Y-129748718D01*
X140110196Y-129748717D01*
X140110165Y-129748707D01*
X139952505Y-129702902D01*
X139952501Y-129702901D01*
X139952495Y-129702900D01*
X139952489Y-129702899D01*
X139941963Y-129702070D01*
X139915654Y-129700000D01*
X139915649Y-129700000D01*
X139750000Y-129700000D01*
X139750000Y-131550000D01*
X139250000Y-131550000D01*
X139250000Y-129700000D01*
X139084344Y-129700000D01*
X139052772Y-129702484D01*
X139047510Y-129702899D01*
X139047504Y-129702900D01*
X139047497Y-129702901D01*
X139047493Y-129702902D01*
X138889833Y-129748707D01*
X138889802Y-129748717D01*
X138889799Y-129748718D01*
X138748458Y-129832307D01*
X138748447Y-129832313D01*
X138748436Y-129832322D01*
X138632322Y-129948436D01*
X138632313Y-129948447D01*
X138632310Y-129948452D01*
X138548718Y-130089799D01*
X138548717Y-130089802D01*
X138548707Y-130089833D01*
X138502902Y-130247493D01*
X138502901Y-130247497D01*
X138502899Y-130247511D01*
X138500302Y-130280518D01*
X138500000Y-130284350D01*
X137700500Y-130284350D01*
X137700500Y-126715654D01*
X138500000Y-126715654D01*
X138502899Y-126752487D01*
X138502901Y-126752501D01*
X138502902Y-126752505D01*
X138548707Y-126910165D01*
X138548717Y-126910196D01*
X138548718Y-126910199D01*
X138632310Y-127051546D01*
X138632313Y-127051551D01*
X138632322Y-127051562D01*
X138748436Y-127167676D01*
X138748447Y-127167685D01*
X138748452Y-127167688D01*
X138889799Y-127251280D01*
X138889800Y-127251280D01*
X138889803Y-127251282D01*
X138889806Y-127251283D01*
X138889828Y-127251289D01*
X138889833Y-127251291D01*
X139047493Y-127297096D01*
X139047497Y-127297097D01*
X139047504Y-127297099D01*
X139047510Y-127297100D01*
X139084350Y-127299999D01*
X139084366Y-127300000D01*
X139250000Y-127300000D01*
X139750000Y-127300000D01*
X139915629Y-127300000D01*
X139915634Y-127300000D01*
X139915649Y-127299999D01*
X139952489Y-127297100D01*
X139952495Y-127297099D01*
X140110193Y-127251283D01*
X140110196Y-127251282D01*
X140251552Y-127167685D01*
X140251561Y-127167678D01*
X140367678Y-127051561D01*
X140367685Y-127051552D01*
X140451282Y-126910196D01*
X140451283Y-126910193D01*
X140497099Y-126752495D01*
X140497100Y-126752489D01*
X140499999Y-126715649D01*
X140500000Y-126715634D01*
X140500000Y-125450000D01*
X139750000Y-125450000D01*
X139750000Y-127300000D01*
X139250000Y-127300000D01*
X139250000Y-125450000D01*
X138500000Y-125450000D01*
X138500000Y-126715654D01*
X137700500Y-126715654D01*
X137700500Y-123914372D01*
X137705522Y-123879439D01*
X137712934Y-123854194D01*
X137744228Y-123801452D01*
X137861330Y-123684350D01*
X138500000Y-123684350D01*
X138500000Y-124950000D01*
X139250000Y-124950000D01*
X139750000Y-124950000D01*
X140500000Y-124950000D01*
X140500000Y-123684365D01*
X140499999Y-123684350D01*
X140497100Y-123647510D01*
X140497099Y-123647504D01*
X140473043Y-123564705D01*
X140451291Y-123489833D01*
X140451289Y-123489828D01*
X140451283Y-123489806D01*
X140451282Y-123489803D01*
X140411155Y-123421952D01*
X140367688Y-123348452D01*
X140367685Y-123348447D01*
X140367676Y-123348436D01*
X140251562Y-123232322D01*
X140251551Y-123232313D01*
X140251546Y-123232310D01*
X140110199Y-123148718D01*
X140110196Y-123148717D01*
X140110165Y-123148707D01*
X139952505Y-123102902D01*
X139952501Y-123102901D01*
X139952495Y-123102900D01*
X139952489Y-123102899D01*
X139941963Y-123102070D01*
X139915654Y-123100000D01*
X139915649Y-123100000D01*
X139750000Y-123100000D01*
X139750000Y-124950000D01*
X139250000Y-124950000D01*
X139250000Y-123100000D01*
X139084344Y-123100000D01*
X139052772Y-123102484D01*
X139047510Y-123102899D01*
X139047504Y-123102900D01*
X139047497Y-123102901D01*
X139047493Y-123102902D01*
X138889833Y-123148707D01*
X138889802Y-123148717D01*
X138889799Y-123148718D01*
X138748452Y-123232310D01*
X138748447Y-123232313D01*
X138748436Y-123232322D01*
X138632322Y-123348436D01*
X138632313Y-123348447D01*
X138632310Y-123348452D01*
X138548718Y-123489799D01*
X138548717Y-123489802D01*
X138548707Y-123489833D01*
X138502902Y-123647493D01*
X138502901Y-123647497D01*
X138502899Y-123647511D01*
X138500464Y-123678456D01*
X138500000Y-123684350D01*
X137861330Y-123684350D01*
X140046257Y-121499423D01*
X140074507Y-121478275D01*
X140097599Y-121465667D01*
X140157024Y-121450500D01*
X141008072Y-121450500D01*
X141042999Y-121455521D01*
X141053852Y-121458707D01*
X141112633Y-121496477D01*
X141141662Y-121560031D01*
X141131723Y-121629190D01*
X141131722Y-121629191D01*
X141128538Y-121636164D01*
X141103422Y-121672340D01*
X141044489Y-121731272D01*
X141044482Y-121731280D01*
X141044470Y-121731298D01*
X140965430Y-121868200D01*
X140965425Y-121868210D01*
X140965424Y-121868211D01*
X140965422Y-121868218D01*
X140924500Y-122020943D01*
X140924500Y-122179056D01*
X140948126Y-122267230D01*
X140965422Y-122331780D01*
X140965424Y-122331787D01*
X140965425Y-122331788D01*
X140965430Y-122331798D01*
X141025450Y-122435756D01*
X141044475Y-122468709D01*
X141044481Y-122468717D01*
X141044484Y-122468720D01*
X141044485Y-122468722D01*
X141063704Y-122487941D01*
X141092428Y-122532891D01*
X141096961Y-122545240D01*
X141166905Y-122735777D01*
X141174500Y-122778506D01*
X141174500Y-123921144D01*
X141189012Y-123975301D01*
X141189012Y-123975302D01*
X141194161Y-123994517D01*
X141194162Y-123994524D01*
X141198385Y-124010287D01*
X141244526Y-124090207D01*
X141244527Y-124090208D01*
X141244532Y-124090214D01*
X141244538Y-124090221D01*
X143100573Y-125946255D01*
X143121723Y-125974507D01*
X143134331Y-125997596D01*
X143149500Y-126057025D01*
X143149500Y-131220851D01*
X143144475Y-131255795D01*
X143140070Y-131270793D01*
X143102299Y-131329561D01*
X143097317Y-131333878D01*
X143035598Y-131362626D01*
X143035069Y-131362710D01*
X143034422Y-131362812D01*
X143029487Y-131363202D01*
X143024699Y-131364351D01*
X142969295Y-131392581D01*
X142969294Y-131392580D01*
X142911653Y-131421952D01*
X142911650Y-131421954D01*
X142821954Y-131511650D01*
X142808634Y-131537793D01*
X142808633Y-131537794D01*
X142764352Y-131624696D01*
X142764350Y-131624703D01*
X142749500Y-131718469D01*
X142749500Y-134681520D01*
X142757838Y-134734167D01*
X142757839Y-134734169D01*
X142760292Y-134749657D01*
X142764354Y-134775304D01*
X142821950Y-134888342D01*
X142821952Y-134888344D01*
X142821954Y-134888347D01*
X142911652Y-134978045D01*
X142911654Y-134978046D01*
X142911658Y-134978050D01*
X142972837Y-135009222D01*
X143024691Y-135035644D01*
X143024692Y-135035644D01*
X143024696Y-135035646D01*
X143027285Y-135036056D01*
X143061006Y-135046482D01*
X143075131Y-135053178D01*
X143127272Y-135099674D01*
X143130757Y-135105270D01*
X143149500Y-135170821D01*
X143149500Y-137820851D01*
X143144475Y-137855795D01*
X143140070Y-137870793D01*
X143102299Y-137929561D01*
X143097317Y-137933878D01*
X143035598Y-137962626D01*
X143035069Y-137962710D01*
X143034422Y-137962812D01*
X143029487Y-137963202D01*
X143024699Y-137964351D01*
X142969295Y-137992581D01*
X142969294Y-137992580D01*
X142911653Y-138021952D01*
X142911650Y-138021954D01*
X142821954Y-138111650D01*
X142821950Y-138111658D01*
X142807294Y-138140424D01*
X142807293Y-138140425D01*
X142807292Y-138140426D01*
X142764352Y-138224696D01*
X142764350Y-138224703D01*
X142749500Y-138318469D01*
X142749500Y-138318475D01*
X142749500Y-141281517D01*
X142758017Y-141335290D01*
X142764354Y-141375304D01*
X142821950Y-141488342D01*
X142821952Y-141488344D01*
X142821954Y-141488347D01*
X142911652Y-141578045D01*
X142911654Y-141578046D01*
X142911658Y-141578050D01*
X142955862Y-141600573D01*
X143013247Y-141629813D01*
X143013248Y-141629813D01*
X143013252Y-141629815D01*
X143024698Y-141635647D01*
X143118220Y-141650458D01*
X143118457Y-141650497D01*
X143118466Y-141650497D01*
X143118475Y-141650499D01*
X143118481Y-141650500D01*
X143881518Y-141650499D01*
X143975304Y-141635646D01*
X144088342Y-141578050D01*
X144178050Y-141488342D01*
X144235646Y-141375304D01*
X144235646Y-141375302D01*
X144235647Y-141375301D01*
X144235648Y-141375294D01*
X144236785Y-141370560D01*
X144236785Y-141370558D01*
X144236789Y-141370539D01*
X144237173Y-141365668D01*
X144250111Y-141283979D01*
X144250437Y-141282154D01*
X144250499Y-141281523D01*
X144250500Y-141281519D01*
X144250499Y-138318482D01*
X144235646Y-138224696D01*
X144178050Y-138111658D01*
X144178046Y-138111654D01*
X144178045Y-138111652D01*
X144088347Y-138021954D01*
X144088344Y-138021952D01*
X144088342Y-138021950D01*
X143975304Y-137964354D01*
X143975302Y-137964353D01*
X143975300Y-137964352D01*
X143961277Y-137961042D01*
X143936645Y-137952404D01*
X143924861Y-137946817D01*
X143872719Y-137900312D01*
X143872533Y-137900014D01*
X143869235Y-137894717D01*
X143850500Y-137829178D01*
X143850500Y-135179147D01*
X143855523Y-135144211D01*
X143859927Y-135129213D01*
X143897690Y-135070446D01*
X143899619Y-135068774D01*
X143902674Y-135066127D01*
X143964491Y-135037358D01*
X143975304Y-135035646D01*
X144088342Y-134978050D01*
X144178050Y-134888342D01*
X144235646Y-134775304D01*
X144235646Y-134775302D01*
X144235647Y-134775301D01*
X144235650Y-134775281D01*
X144236784Y-134770560D01*
X144236786Y-134770554D01*
X144236789Y-134770539D01*
X144237173Y-134765668D01*
X144246528Y-134706600D01*
X144248131Y-134696477D01*
X144250500Y-134681519D01*
X144250499Y-131718482D01*
X144235646Y-131624696D01*
X144178050Y-131511658D01*
X144178046Y-131511654D01*
X144178045Y-131511652D01*
X144088347Y-131421954D01*
X144088344Y-131421952D01*
X144088342Y-131421950D01*
X143975304Y-131364354D01*
X143975302Y-131364353D01*
X143975300Y-131364352D01*
X143961277Y-131361042D01*
X143936645Y-131352404D01*
X143924861Y-131346817D01*
X143872719Y-131300312D01*
X143869236Y-131294718D01*
X143850500Y-131229178D01*
X143850500Y-125803858D01*
X143850500Y-125803856D01*
X143826614Y-125714712D01*
X143796076Y-125661819D01*
X143780472Y-125634791D01*
X143780468Y-125634786D01*
X143780463Y-125634781D01*
X143780460Y-125634777D01*
X142617990Y-124472308D01*
X142584797Y-124412295D01*
X142584491Y-124410960D01*
X142579084Y-124401057D01*
X142584068Y-124331366D01*
X142625940Y-124275433D01*
X142656912Y-124258520D01*
X142659820Y-124257435D01*
X142713459Y-124252095D01*
X142713616Y-124250116D01*
X142718466Y-124250497D01*
X142718481Y-124250500D01*
X145681518Y-124250499D01*
X145775304Y-124235646D01*
X145888342Y-124178050D01*
X145978050Y-124088342D01*
X146035646Y-123975304D01*
X146036056Y-123972714D01*
X146046480Y-123938995D01*
X146053180Y-123924862D01*
X146099681Y-123872723D01*
X146105293Y-123869228D01*
X146170821Y-123850500D01*
X148820851Y-123850500D01*
X148855787Y-123855523D01*
X148870785Y-123859927D01*
X148929561Y-123897700D01*
X148933878Y-123902682D01*
X148962628Y-123964418D01*
X148962814Y-123965588D01*
X148962850Y-123966046D01*
X148964351Y-123975299D01*
X148964702Y-123976352D01*
X148966670Y-123979850D01*
X149021950Y-124088342D01*
X149021952Y-124088344D01*
X149021954Y-124088347D01*
X149111652Y-124178045D01*
X149111654Y-124178046D01*
X149111658Y-124178050D01*
X149224694Y-124235645D01*
X149224698Y-124235647D01*
X149318220Y-124250458D01*
X149318457Y-124250497D01*
X149318466Y-124250497D01*
X149318475Y-124250499D01*
X149318481Y-124250500D01*
X152281518Y-124250499D01*
X152375304Y-124235646D01*
X152488342Y-124178050D01*
X152578050Y-124088342D01*
X152635646Y-123975304D01*
X152635646Y-123975302D01*
X152635647Y-123975301D01*
X152635648Y-123975296D01*
X152636785Y-123970560D01*
X152636785Y-123970558D01*
X152636789Y-123970539D01*
X152637173Y-123965668D01*
X152650111Y-123883979D01*
X152650437Y-123882154D01*
X152650499Y-123881523D01*
X152650500Y-123881519D01*
X152650499Y-123118482D01*
X152635646Y-123024696D01*
X152578050Y-122911658D01*
X152578046Y-122911654D01*
X152578045Y-122911652D01*
X152488347Y-122821954D01*
X152488344Y-122821952D01*
X152488342Y-122821950D01*
X152488340Y-122821949D01*
X152488339Y-122821948D01*
X152411519Y-122782805D01*
X152411519Y-122782806D01*
X152408769Y-122781405D01*
X152375301Y-122764352D01*
X152375298Y-122764351D01*
X152375297Y-122764351D01*
X152336331Y-122758179D01*
X152302621Y-122747757D01*
X152290922Y-122742212D01*
X152238773Y-122695711D01*
X152220044Y-122628399D01*
X152237843Y-122566130D01*
X152242629Y-122558193D01*
X152261132Y-122534547D01*
X153380470Y-121415212D01*
X153426614Y-121335288D01*
X153432218Y-121314374D01*
X153450500Y-121246144D01*
X153450500Y-119146700D01*
X153456238Y-119109415D01*
X153459206Y-119100000D01*
X153523741Y-118895307D01*
X153550956Y-118850463D01*
X153550570Y-118850167D01*
X153553282Y-118846631D01*
X153554329Y-118844905D01*
X153555520Y-118843716D01*
X153634577Y-118706784D01*
X153675500Y-118554057D01*
X153675500Y-118395943D01*
X153634577Y-118243216D01*
X153633960Y-118242147D01*
X153555524Y-118106290D01*
X153555518Y-118106282D01*
X153555514Y-118106278D01*
X153555513Y-118106276D01*
X153443722Y-117994485D01*
X153443720Y-117994484D01*
X153443717Y-117994481D01*
X153443709Y-117994475D01*
X153417147Y-117979140D01*
X153306807Y-117915435D01*
X153306783Y-117915422D01*
X153194979Y-117885464D01*
X153154057Y-117874500D01*
X153154056Y-117874500D01*
X152995943Y-117874500D01*
X152843218Y-117915422D01*
X152843211Y-117915424D01*
X152843210Y-117915425D01*
X152843200Y-117915430D01*
X152706298Y-117994470D01*
X152706294Y-117994472D01*
X152706290Y-117994475D01*
X152706282Y-117994481D01*
X152706278Y-117994484D01*
X152706276Y-117994485D01*
X152594485Y-118106276D01*
X152594484Y-118106278D01*
X152594481Y-118106281D01*
X152594481Y-118106282D01*
X152594475Y-118106290D01*
X152594472Y-118106294D01*
X152594470Y-118106298D01*
X152515430Y-118243200D01*
X152515425Y-118243210D01*
X152515424Y-118243211D01*
X152515422Y-118243218D01*
X152488345Y-118344274D01*
X152488344Y-118344277D01*
X152477606Y-118384349D01*
X152471228Y-118402427D01*
X152461130Y-118425249D01*
X152416006Y-118478588D01*
X152413054Y-118480535D01*
X152358317Y-118500281D01*
X152353618Y-118500797D01*
X152330360Y-118501156D01*
X152315676Y-118500001D01*
X152315660Y-118500000D01*
X152315655Y-118500000D01*
X152315649Y-118500000D01*
X151050000Y-118500000D01*
X151050000Y-120500000D01*
X152315629Y-120500000D01*
X152315634Y-120500000D01*
X152315649Y-120499999D01*
X152352489Y-120497100D01*
X152352495Y-120497099D01*
X152510193Y-120451283D01*
X152510196Y-120451282D01*
X152547037Y-120429494D01*
X152579657Y-120416038D01*
X152593113Y-120412624D01*
X152662935Y-120415218D01*
X152720263Y-120455141D01*
X152721065Y-120456139D01*
X152746041Y-120509704D01*
X152747133Y-120515213D01*
X152749500Y-120539323D01*
X152749500Y-120985625D01*
X152744476Y-121020562D01*
X152737064Y-121045803D01*
X152705769Y-121098547D01*
X151103742Y-122700573D01*
X151075491Y-122721722D01*
X151052403Y-122734330D01*
X150992973Y-122749500D01*
X149318478Y-122749500D01*
X149253846Y-122759736D01*
X149253842Y-122759737D01*
X149237519Y-122762323D01*
X149224696Y-122764354D01*
X149111658Y-122821950D01*
X149111657Y-122821951D01*
X149111652Y-122821954D01*
X149108652Y-122824953D01*
X149108649Y-122824955D01*
X149021954Y-122911650D01*
X148964354Y-123024696D01*
X148964351Y-123024703D01*
X148963940Y-123027302D01*
X148953520Y-123061000D01*
X148946825Y-123075125D01*
X148900333Y-123127267D01*
X148894738Y-123130752D01*
X148829179Y-123149500D01*
X146179149Y-123149500D01*
X146144208Y-123144475D01*
X146129209Y-123140070D01*
X146070447Y-123102309D01*
X146066129Y-123097327D01*
X146037349Y-123035447D01*
X146037164Y-123034275D01*
X146036784Y-123029441D01*
X146035723Y-123025020D01*
X146035649Y-123024715D01*
X146035647Y-123024700D01*
X146035647Y-123024699D01*
X146035646Y-123024697D01*
X146035646Y-123024696D01*
X145978099Y-122911755D01*
X145978051Y-122911659D01*
X145978050Y-122911658D01*
X145978045Y-122911653D01*
X145978045Y-122911652D01*
X145888347Y-122821954D01*
X145888344Y-122821952D01*
X145888342Y-122821950D01*
X145888340Y-122821949D01*
X145888339Y-122821948D01*
X145811519Y-122782805D01*
X145811519Y-122782806D01*
X145808769Y-122781405D01*
X145775301Y-122764352D01*
X145775299Y-122764351D01*
X145775298Y-122764351D01*
X145775296Y-122764350D01*
X145681530Y-122749500D01*
X145681524Y-122749500D01*
X142718482Y-122749500D01*
X142718478Y-122749500D01*
X142653846Y-122759736D01*
X142653842Y-122759737D01*
X142637519Y-122762323D01*
X142624696Y-122764354D01*
X142511658Y-122821950D01*
X142511657Y-122821951D01*
X142511652Y-122821954D01*
X142508652Y-122824953D01*
X142508649Y-122824955D01*
X142421955Y-122911649D01*
X142421946Y-122911664D01*
X142364353Y-123024695D01*
X142364350Y-123024703D01*
X142349500Y-123118469D01*
X142349500Y-123886394D01*
X142347861Y-123886394D01*
X142341906Y-123929539D01*
X142338904Y-123937701D01*
X142337255Y-123950451D01*
X142292253Y-124003898D01*
X142225499Y-124024531D01*
X142190499Y-124020003D01*
X142187508Y-124019171D01*
X142133075Y-123987393D01*
X141924426Y-123778744D01*
X141903274Y-123750488D01*
X141890667Y-123727399D01*
X141875500Y-123667974D01*
X141875500Y-122778506D01*
X141883095Y-122735777D01*
X141907592Y-122669042D01*
X141957570Y-122532891D01*
X141986290Y-122487944D01*
X142005520Y-122468716D01*
X142084577Y-122331784D01*
X142125500Y-122179057D01*
X142125500Y-122020943D01*
X142084577Y-121868216D01*
X142084573Y-121868209D01*
X142005524Y-121731290D01*
X142005518Y-121731282D01*
X141949020Y-121674784D01*
X141927873Y-121646535D01*
X141922451Y-121636605D01*
X141907600Y-121568334D01*
X141932017Y-121502870D01*
X141987946Y-121461000D01*
X141991823Y-121459554D01*
X141995159Y-121458311D01*
X142038473Y-121450500D01*
X146396142Y-121450500D01*
X146396144Y-121450500D01*
X146485288Y-121426614D01*
X146565212Y-121380470D01*
X147830469Y-120115212D01*
X147876614Y-120035288D01*
X147881027Y-120018819D01*
X147900500Y-119946144D01*
X147900500Y-119915654D01*
X148700000Y-119915654D01*
X148702899Y-119952487D01*
X148702901Y-119952501D01*
X148702902Y-119952505D01*
X148748707Y-120110165D01*
X148748717Y-120110196D01*
X148748718Y-120110199D01*
X148832310Y-120251546D01*
X148832313Y-120251551D01*
X148832322Y-120251562D01*
X148948436Y-120367676D01*
X148948447Y-120367685D01*
X148948452Y-120367688D01*
X149089799Y-120451280D01*
X149089800Y-120451280D01*
X149089803Y-120451282D01*
X149089806Y-120451283D01*
X149089828Y-120451289D01*
X149089833Y-120451291D01*
X149247493Y-120497096D01*
X149247497Y-120497097D01*
X149247504Y-120497099D01*
X149247510Y-120497100D01*
X149284350Y-120499999D01*
X149284366Y-120500000D01*
X150550000Y-120500000D01*
X150550000Y-119750000D01*
X148700000Y-119750000D01*
X148700000Y-119915654D01*
X147900500Y-119915654D01*
X147900500Y-119084350D01*
X148700000Y-119084350D01*
X148700000Y-119250000D01*
X150550000Y-119250000D01*
X150550000Y-118500000D01*
X149284344Y-118500000D01*
X149252772Y-118502484D01*
X149247510Y-118502899D01*
X149247504Y-118502900D01*
X149247497Y-118502901D01*
X149247493Y-118502902D01*
X149089833Y-118548707D01*
X149089802Y-118548717D01*
X149089799Y-118548718D01*
X148948452Y-118632310D01*
X148948447Y-118632313D01*
X148948436Y-118632322D01*
X148832322Y-118748436D01*
X148832313Y-118748447D01*
X148832310Y-118748452D01*
X148748718Y-118889799D01*
X148748717Y-118889802D01*
X148748707Y-118889833D01*
X148702902Y-119047493D01*
X148702901Y-119047497D01*
X148702899Y-119047511D01*
X148700349Y-119079921D01*
X148700000Y-119084350D01*
X147900500Y-119084350D01*
X147900500Y-117814372D01*
X147905522Y-117779439D01*
X147912934Y-117754194D01*
X147944228Y-117701452D01*
X148996257Y-116649423D01*
X149024507Y-116628275D01*
X149047599Y-116615667D01*
X149107024Y-116600500D01*
X150096142Y-116600500D01*
X150096144Y-116600500D01*
X150185288Y-116576614D01*
X150265212Y-116530470D01*
X151944036Y-114851642D01*
X151963457Y-114835804D01*
X151973975Y-114828870D01*
X152140772Y-114664099D01*
X152164030Y-114646040D01*
X152164938Y-114645493D01*
X152175080Y-114639640D01*
X152174999Y-114639445D01*
X152214111Y-114615935D01*
X152214523Y-114615827D01*
X152215983Y-114614832D01*
X152315510Y-114557370D01*
X152321011Y-114554411D01*
X152324142Y-114552386D01*
X152349210Y-114537912D01*
X152369328Y-114504907D01*
X152430520Y-114443716D01*
X152509577Y-114306784D01*
X152550500Y-114154057D01*
X152550500Y-113995943D01*
X152509577Y-113843216D01*
X152509573Y-113843209D01*
X152430524Y-113706290D01*
X152430518Y-113706282D01*
X152411282Y-113687046D01*
X152382558Y-113642098D01*
X152308096Y-113439270D01*
X152300500Y-113396536D01*
X152300500Y-108463372D01*
X152305521Y-108428445D01*
X152308707Y-108417592D01*
X152346477Y-108358811D01*
X152410031Y-108329782D01*
X152479186Y-108339720D01*
G37*
%TD.AperFunction*%
%TA.AperFunction,Conductor*%
G36*
X151243106Y-95180023D02*
G01*
X151258104Y-95184427D01*
X151316855Y-95222172D01*
X151318042Y-95223541D01*
X151345518Y-95278402D01*
X151347163Y-95285960D01*
X151350000Y-95312331D01*
X151350000Y-96175000D01*
X151557670Y-96175000D01*
X151592606Y-96180023D01*
X151607604Y-96184427D01*
X151666355Y-96222172D01*
X151667542Y-96223541D01*
X151695018Y-96278402D01*
X151696663Y-96285960D01*
X151699500Y-96312331D01*
X151699503Y-105652406D01*
X151699503Y-105700005D01*
X151699502Y-105767661D01*
X151699502Y-105767672D01*
X151729611Y-105899587D01*
X151788322Y-106021502D01*
X151788323Y-106021504D01*
X151788360Y-106021559D01*
X151788829Y-106022139D01*
X151872697Y-106127306D01*
X151978495Y-106211677D01*
X151978498Y-106211679D01*
X152100414Y-106270390D01*
X152100412Y-106270390D01*
X152178443Y-106288199D01*
X152232342Y-106300501D01*
X152300002Y-106300500D01*
X159557667Y-106300500D01*
X159592603Y-106305523D01*
X159607601Y-106309927D01*
X159666352Y-106347672D01*
X159667539Y-106349041D01*
X159695015Y-106403902D01*
X159696660Y-106411460D01*
X159699497Y-106437831D01*
X159699497Y-136557667D01*
X159694472Y-136592611D01*
X159690067Y-136607609D01*
X159652324Y-136666352D01*
X159650955Y-136667539D01*
X159596094Y-136695015D01*
X159588536Y-136696660D01*
X159562165Y-136699497D01*
X152252547Y-136699497D01*
X152252299Y-136699500D01*
X152232333Y-136699500D01*
X152100417Y-136729610D01*
X152021408Y-136767660D01*
X152021407Y-136767659D01*
X151978493Y-136788326D01*
X151978486Y-136788331D01*
X151872698Y-136872695D01*
X151788333Y-136978483D01*
X151788332Y-136978485D01*
X151729613Y-137100414D01*
X151699503Y-137232330D01*
X151699503Y-137299998D01*
X151699502Y-137347585D01*
X151699502Y-137347590D01*
X151699500Y-146683170D01*
X151694475Y-146718112D01*
X151694308Y-146718681D01*
X151690070Y-146733112D01*
X151652327Y-146791855D01*
X151650958Y-146793042D01*
X151596097Y-146820518D01*
X151588539Y-146822163D01*
X151562168Y-146825000D01*
X151350000Y-146825000D01*
X151350000Y-147683170D01*
X151344975Y-147718114D01*
X151340570Y-147733112D01*
X151302827Y-147791855D01*
X151301458Y-147793042D01*
X151246597Y-147820518D01*
X151239039Y-147822163D01*
X151212668Y-147825000D01*
X151100000Y-147825000D01*
X151100000Y-147933170D01*
X151094975Y-147968114D01*
X151090570Y-147983112D01*
X151052827Y-148041855D01*
X151051458Y-148043042D01*
X150996597Y-148070518D01*
X150989039Y-148072163D01*
X150962668Y-148075000D01*
X150000000Y-148075000D01*
X150000000Y-148200312D01*
X149994975Y-148235253D01*
X149991064Y-148248570D01*
X149953287Y-148307346D01*
X149889729Y-148336368D01*
X149889711Y-148336371D01*
X149888102Y-148336602D01*
X149829941Y-148331046D01*
X149826785Y-148329954D01*
X149825203Y-148329406D01*
X149817959Y-148326097D01*
X149817795Y-148326495D01*
X149810289Y-148323386D01*
X149765716Y-148311443D01*
X149721144Y-148299500D01*
X149721143Y-148299500D01*
X149553389Y-148299500D01*
X149518451Y-148294476D01*
X149506025Y-148290827D01*
X149447248Y-148253051D01*
X149418225Y-148189494D01*
X149426067Y-148125215D01*
X149429555Y-148116622D01*
X149444134Y-148090374D01*
X149455301Y-148075005D01*
X149455304Y-148075000D01*
X149476433Y-148045919D01*
X149574726Y-147853009D01*
X149641630Y-147647097D01*
X149675500Y-147433254D01*
X149675500Y-147409350D01*
X150000000Y-147409350D01*
X150000000Y-147575000D01*
X150850000Y-147575000D01*
X150850000Y-146825000D01*
X150584344Y-146825000D01*
X150552772Y-146827484D01*
X150547510Y-146827899D01*
X150547504Y-146827900D01*
X150547497Y-146827901D01*
X150547493Y-146827902D01*
X150389833Y-146873707D01*
X150389802Y-146873717D01*
X150389799Y-146873718D01*
X150248452Y-146957310D01*
X150248447Y-146957313D01*
X150248436Y-146957322D01*
X150132322Y-147073436D01*
X150132313Y-147073447D01*
X150132310Y-147073452D01*
X150048718Y-147214799D01*
X150048717Y-147214802D01*
X150048707Y-147214833D01*
X150002902Y-147372493D01*
X150002901Y-147372497D01*
X150002900Y-147372504D01*
X150002899Y-147372510D01*
X150000000Y-147409350D01*
X149675500Y-147409350D01*
X149675500Y-147216746D01*
X149641630Y-147002903D01*
X149600057Y-146874952D01*
X149574727Y-146796993D01*
X149574726Y-146796990D01*
X149524642Y-146698697D01*
X149486529Y-146623895D01*
X149476434Y-146604082D01*
X149409754Y-146512306D01*
X149349172Y-146428922D01*
X149349171Y-146428921D01*
X149348448Y-146428075D01*
X149346466Y-146425199D01*
X149346308Y-146424981D01*
X149346313Y-146424977D01*
X149333912Y-146406978D01*
X149326639Y-146393660D01*
X149311784Y-146325388D01*
X149335760Y-146260510D01*
X149343775Y-146249670D01*
X149367989Y-146225021D01*
X149520080Y-146108319D01*
X149733319Y-145895080D01*
X149916900Y-145655832D01*
X150067683Y-145394668D01*
X150183087Y-145116058D01*
X150261138Y-144824768D01*
X150300500Y-144525783D01*
X150300500Y-144224217D01*
X150261138Y-143925232D01*
X150183087Y-143633942D01*
X150153298Y-143562024D01*
X150067686Y-143355338D01*
X150067684Y-143355335D01*
X150067683Y-143355332D01*
X150047943Y-143321142D01*
X149916900Y-143094168D01*
X149901145Y-143073636D01*
X149733326Y-142854928D01*
X149733322Y-142854924D01*
X149733320Y-142854921D01*
X149733314Y-142854914D01*
X149520085Y-142641685D01*
X149520078Y-142641679D01*
X149520075Y-142641676D01*
X149520070Y-142641672D01*
X149280830Y-142458098D01*
X149019676Y-142307321D01*
X149019663Y-142307314D01*
X149019659Y-142307313D01*
X148741067Y-142191916D01*
X148741068Y-142191916D01*
X148741060Y-142191913D01*
X148741053Y-142191911D01*
X148557585Y-142142751D01*
X148557577Y-142142749D01*
X148553500Y-142141657D01*
X148449768Y-142113862D01*
X148333553Y-142098562D01*
X148329690Y-142098053D01*
X148329683Y-142098052D01*
X148182578Y-142078685D01*
X148148598Y-142069145D01*
X148138254Y-142064569D01*
X148084910Y-142019446D01*
X148064429Y-141952645D01*
X148083313Y-141885379D01*
X148085389Y-141882062D01*
X148127372Y-141841124D01*
X148251549Y-141767687D01*
X148251561Y-141767678D01*
X148367678Y-141651561D01*
X148367685Y-141651552D01*
X148451282Y-141510196D01*
X148451283Y-141510193D01*
X148497099Y-141352495D01*
X148497100Y-141352489D01*
X148499999Y-141315649D01*
X148500000Y-141315634D01*
X148500000Y-140050000D01*
X147750000Y-140050000D01*
X147750000Y-141910026D01*
X147752463Y-141914536D01*
X147767316Y-141982808D01*
X147742900Y-142048273D01*
X147690399Y-142088807D01*
X147681215Y-142092547D01*
X147650634Y-142100643D01*
X147568556Y-142111448D01*
X147550233Y-142113861D01*
X147472182Y-142134774D01*
X147258940Y-142191912D01*
X146980335Y-142307315D01*
X146980314Y-142307326D01*
X146719168Y-142458098D01*
X146479928Y-142641672D01*
X146479913Y-142641686D01*
X146479905Y-142641693D01*
X146266693Y-142854905D01*
X146266686Y-142854913D01*
X146266672Y-142854928D01*
X146083102Y-143094163D01*
X145932316Y-143355330D01*
X145932288Y-143355388D01*
X145932032Y-143356018D01*
X145816912Y-143633940D01*
X145759979Y-143846420D01*
X145738862Y-143925232D01*
X145738859Y-143925243D01*
X145699501Y-144224199D01*
X145699500Y-144224228D01*
X145699500Y-144525770D01*
X145699501Y-144525799D01*
X145738859Y-144824755D01*
X145738860Y-144824760D01*
X145738861Y-144824766D01*
X145766107Y-144926450D01*
X145816912Y-145116058D01*
X145870121Y-145244514D01*
X145927625Y-145383342D01*
X145932032Y-145393980D01*
X145932292Y-145394618D01*
X145932316Y-145394668D01*
X145954754Y-145433531D01*
X146083099Y-145655831D01*
X146083100Y-145655832D01*
X146083102Y-145655835D01*
X146266672Y-145895070D01*
X146266676Y-145895075D01*
X146266679Y-145895078D01*
X146266685Y-145895085D01*
X146479914Y-146108314D01*
X146479921Y-146108320D01*
X146479924Y-146108322D01*
X146479928Y-146108326D01*
X146593045Y-146195123D01*
X146719168Y-146291900D01*
X146980328Y-146442681D01*
X146980343Y-146442688D01*
X147026106Y-146461643D01*
X147056456Y-146479650D01*
X147057372Y-146480388D01*
X147068276Y-146489175D01*
X147108124Y-146546568D01*
X147111541Y-146612515D01*
X147109023Y-146623895D01*
X147098436Y-146653401D01*
X147028563Y-146790533D01*
X147027618Y-146792147D01*
X147025271Y-146796993D01*
X146958370Y-147002897D01*
X146924500Y-147216746D01*
X146924500Y-147433252D01*
X146958370Y-147647101D01*
X147025263Y-147852982D01*
X147025270Y-147853001D01*
X147025270Y-147853002D01*
X147025271Y-147853005D01*
X147025272Y-147853006D01*
X147025273Y-147853009D01*
X147123567Y-148045919D01*
X147123571Y-148045924D01*
X147223906Y-148184024D01*
X147240378Y-148215242D01*
X147245631Y-148229966D01*
X147249624Y-148299695D01*
X147249019Y-148302299D01*
X147221856Y-148355547D01*
X147212067Y-148366818D01*
X147206128Y-148373189D01*
X146549952Y-149029364D01*
X146488629Y-149062849D01*
X146418937Y-149057865D01*
X146390568Y-149042849D01*
X146260010Y-148950314D01*
X146216698Y-148895489D01*
X146209902Y-148825950D01*
X146232480Y-148774793D01*
X146233385Y-148773584D01*
X146269490Y-148741216D01*
X146351550Y-148692687D01*
X146351561Y-148692678D01*
X146467678Y-148576561D01*
X146467685Y-148576552D01*
X146551282Y-148435196D01*
X146551283Y-148435193D01*
X146597099Y-148277495D01*
X146597100Y-148277489D01*
X146599999Y-148240649D01*
X146600000Y-148240634D01*
X146600000Y-148075000D01*
X144400000Y-148075000D01*
X144400000Y-148240654D01*
X144402899Y-148277487D01*
X144402901Y-148277501D01*
X144402902Y-148277505D01*
X144448707Y-148435165D01*
X144448717Y-148435196D01*
X144448718Y-148435199D01*
X144518632Y-148553417D01*
X144532314Y-148576552D01*
X144532321Y-148576561D01*
X144606248Y-148650488D01*
X144648438Y-148692678D01*
X144648459Y-148692692D01*
X144726418Y-148738798D01*
X144753921Y-148760894D01*
X144756959Y-148764147D01*
X144788330Y-148826578D01*
X144780968Y-148896059D01*
X144737211Y-148950529D01*
X144736072Y-148951313D01*
X144619114Y-149030863D01*
X144552610Y-149052290D01*
X144485080Y-149034361D01*
X144461695Y-149016013D01*
X144124426Y-148678744D01*
X144103274Y-148650488D01*
X144090667Y-148627399D01*
X144075500Y-148567974D01*
X144075500Y-147493682D01*
X144361064Y-147493682D01*
X144383745Y-147558744D01*
X144383747Y-147558747D01*
X144400000Y-147575000D01*
X145250000Y-147575000D01*
X145750000Y-147575000D01*
X146600000Y-147575000D01*
X146600000Y-147409365D01*
X146599999Y-147409350D01*
X146597100Y-147372510D01*
X146597099Y-147372504D01*
X146590333Y-147349217D01*
X146551291Y-147214833D01*
X146551289Y-147214828D01*
X146551283Y-147214806D01*
X146551282Y-147214803D01*
X146545172Y-147204472D01*
X146467688Y-147073452D01*
X146467685Y-147073447D01*
X146467676Y-147073436D01*
X146351562Y-146957322D01*
X146351551Y-146957313D01*
X146351546Y-146957310D01*
X146210199Y-146873718D01*
X146210196Y-146873717D01*
X146210165Y-146873707D01*
X146052505Y-146827902D01*
X146052501Y-146827901D01*
X146052495Y-146827900D01*
X146052489Y-146827899D01*
X146041963Y-146827070D01*
X146015654Y-146825000D01*
X146015649Y-146825000D01*
X145750000Y-146825000D01*
X145750000Y-147575000D01*
X145250000Y-147575000D01*
X145250000Y-146825000D01*
X144984344Y-146825000D01*
X144952772Y-146827484D01*
X144947510Y-146827899D01*
X144947504Y-146827900D01*
X144947497Y-146827901D01*
X144947493Y-146827902D01*
X144789833Y-146873707D01*
X144789802Y-146873717D01*
X144789799Y-146873718D01*
X144648452Y-146957310D01*
X144648447Y-146957313D01*
X144648436Y-146957322D01*
X144532322Y-147073436D01*
X144532313Y-147073447D01*
X144532310Y-147073452D01*
X144448718Y-147214799D01*
X144448717Y-147214802D01*
X144448707Y-147214833D01*
X144402902Y-147372493D01*
X144402901Y-147372497D01*
X144402899Y-147372510D01*
X144400983Y-147396857D01*
X144398310Y-147414483D01*
X144396197Y-147423825D01*
X144392884Y-147429775D01*
X144388047Y-147447980D01*
X144385454Y-147453658D01*
X144384282Y-147453123D01*
X144368925Y-147472804D01*
X144367189Y-147475922D01*
X144361064Y-147493682D01*
X144075500Y-147493682D01*
X144075500Y-145039372D01*
X144080522Y-145004439D01*
X144087934Y-144979194D01*
X144119228Y-144926452D01*
X144827589Y-144218092D01*
X145555469Y-143490212D01*
X145601614Y-143410288D01*
X145625500Y-143321144D01*
X145625500Y-141315654D01*
X146500000Y-141315654D01*
X146502899Y-141352487D01*
X146502901Y-141352501D01*
X146502902Y-141352505D01*
X146548707Y-141510165D01*
X146548717Y-141510196D01*
X146548718Y-141510199D01*
X146632310Y-141651546D01*
X146632313Y-141651551D01*
X146632322Y-141651562D01*
X146748436Y-141767676D01*
X146748447Y-141767685D01*
X146748452Y-141767688D01*
X146889799Y-141851280D01*
X146889800Y-141851280D01*
X146889803Y-141851282D01*
X146889806Y-141851283D01*
X146889828Y-141851289D01*
X146889833Y-141851291D01*
X147047493Y-141897096D01*
X147047497Y-141897097D01*
X147047504Y-141897099D01*
X147047510Y-141897100D01*
X147084350Y-141899999D01*
X147084366Y-141900000D01*
X147250000Y-141900000D01*
X147250000Y-140050000D01*
X146500000Y-140050000D01*
X146500000Y-141315654D01*
X145625500Y-141315654D01*
X145625500Y-138284350D01*
X146500000Y-138284350D01*
X146500000Y-139550000D01*
X147250000Y-139550000D01*
X147750000Y-139550000D01*
X148500000Y-139550000D01*
X148500000Y-138284365D01*
X148499999Y-138284350D01*
X148497100Y-138247510D01*
X148497099Y-138247504D01*
X148492976Y-138233314D01*
X148451291Y-138089833D01*
X148451289Y-138089828D01*
X148451283Y-138089806D01*
X148451282Y-138089803D01*
X148418060Y-138033628D01*
X148367688Y-137948452D01*
X148367685Y-137948447D01*
X148367676Y-137948436D01*
X148251562Y-137832322D01*
X148251551Y-137832313D01*
X148251541Y-137832307D01*
X148110199Y-137748718D01*
X148110196Y-137748717D01*
X148110165Y-137748707D01*
X147952505Y-137702902D01*
X147952501Y-137702901D01*
X147952495Y-137702900D01*
X147952489Y-137702899D01*
X147941963Y-137702070D01*
X147915654Y-137700000D01*
X147915649Y-137700000D01*
X147750000Y-137700000D01*
X147750000Y-139550000D01*
X147250000Y-139550000D01*
X147250000Y-137700000D01*
X147084344Y-137700000D01*
X147052772Y-137702484D01*
X147047510Y-137702899D01*
X147047504Y-137702900D01*
X147047497Y-137702901D01*
X147047493Y-137702902D01*
X146889833Y-137748707D01*
X146889802Y-137748717D01*
X146889799Y-137748718D01*
X146748458Y-137832307D01*
X146748447Y-137832313D01*
X146748436Y-137832322D01*
X146632322Y-137948436D01*
X146632313Y-137948447D01*
X146632310Y-137948452D01*
X146548718Y-138089799D01*
X146548717Y-138089802D01*
X146548707Y-138089833D01*
X146502902Y-138247493D01*
X146502901Y-138247497D01*
X146502900Y-138247504D01*
X146502899Y-138247510D01*
X146500000Y-138284350D01*
X145625500Y-138284350D01*
X145625500Y-134715654D01*
X146500000Y-134715654D01*
X146502899Y-134752487D01*
X146502901Y-134752501D01*
X146502902Y-134752505D01*
X146548707Y-134910165D01*
X146548717Y-134910196D01*
X146548718Y-134910199D01*
X146632310Y-135051546D01*
X146632313Y-135051551D01*
X146632322Y-135051562D01*
X146748436Y-135167676D01*
X146748447Y-135167685D01*
X146748452Y-135167688D01*
X146889799Y-135251280D01*
X146889800Y-135251280D01*
X146889803Y-135251282D01*
X146889806Y-135251283D01*
X146889828Y-135251289D01*
X146889833Y-135251291D01*
X147047493Y-135297096D01*
X147047497Y-135297097D01*
X147047504Y-135297099D01*
X147047510Y-135297100D01*
X147084350Y-135299999D01*
X147084366Y-135300000D01*
X147250000Y-135300000D01*
X147750000Y-135300000D01*
X147915629Y-135300000D01*
X147915634Y-135300000D01*
X147915649Y-135299999D01*
X147952489Y-135297100D01*
X147952495Y-135297099D01*
X148110193Y-135251283D01*
X148110196Y-135251282D01*
X148251552Y-135167685D01*
X148251561Y-135167678D01*
X148367678Y-135051561D01*
X148367685Y-135051552D01*
X148451282Y-134910196D01*
X148451283Y-134910193D01*
X148497099Y-134752495D01*
X148497100Y-134752489D01*
X148499999Y-134715649D01*
X148500000Y-134715634D01*
X148500000Y-133450000D01*
X147750000Y-133450000D01*
X147750000Y-135300000D01*
X147250000Y-135300000D01*
X147250000Y-133450000D01*
X146500000Y-133450000D01*
X146500000Y-134715654D01*
X145625500Y-134715654D01*
X145625500Y-131684350D01*
X146500000Y-131684350D01*
X146500000Y-132950000D01*
X147250000Y-132950000D01*
X147750000Y-132950000D01*
X148500000Y-132950000D01*
X148500000Y-131684365D01*
X148499999Y-131684350D01*
X148497100Y-131647510D01*
X148497099Y-131647504D01*
X148477620Y-131580459D01*
X148451291Y-131489833D01*
X148451289Y-131489828D01*
X148451283Y-131489806D01*
X148451282Y-131489803D01*
X148444244Y-131477903D01*
X148367688Y-131348452D01*
X148367685Y-131348447D01*
X148367676Y-131348436D01*
X148251562Y-131232322D01*
X148251551Y-131232313D01*
X148251541Y-131232307D01*
X148110199Y-131148718D01*
X148110196Y-131148717D01*
X148110165Y-131148707D01*
X147952505Y-131102902D01*
X147952501Y-131102901D01*
X147952495Y-131102900D01*
X147952489Y-131102899D01*
X147941963Y-131102070D01*
X147915654Y-131100000D01*
X147915649Y-131100000D01*
X147750000Y-131100000D01*
X147750000Y-132950000D01*
X147250000Y-132950000D01*
X147250000Y-131100000D01*
X147084344Y-131100000D01*
X147052772Y-131102484D01*
X147047510Y-131102899D01*
X147047504Y-131102900D01*
X147047497Y-131102901D01*
X147047493Y-131102902D01*
X146889833Y-131148707D01*
X146889802Y-131148717D01*
X146889799Y-131148718D01*
X146748458Y-131232307D01*
X146748447Y-131232313D01*
X146748436Y-131232322D01*
X146632322Y-131348436D01*
X146632313Y-131348447D01*
X146632310Y-131348452D01*
X146548718Y-131489799D01*
X146548717Y-131489802D01*
X146548707Y-131489833D01*
X146502902Y-131647493D01*
X146502901Y-131647497D01*
X146502899Y-131647511D01*
X146501651Y-131663375D01*
X146500000Y-131684350D01*
X145625500Y-131684350D01*
X145625500Y-131239373D01*
X145630522Y-131204440D01*
X145637934Y-131179195D01*
X145669228Y-131126453D01*
X147721258Y-129074423D01*
X147749508Y-129053275D01*
X147772600Y-129040667D01*
X147832025Y-129025500D01*
X151521142Y-129025500D01*
X151521144Y-129025500D01*
X151610288Y-129001614D01*
X151690212Y-128955470D01*
X154930470Y-125715212D01*
X154976614Y-125635288D01*
X154980764Y-125619799D01*
X155000500Y-125546144D01*
X155000500Y-115228856D01*
X154976614Y-115139712D01*
X154930470Y-115059788D01*
X154152618Y-114281936D01*
X154127773Y-114246351D01*
X154036974Y-114050227D01*
X154025500Y-113998131D01*
X154025500Y-113970945D01*
X154025500Y-113970943D01*
X153984577Y-113818216D01*
X153931082Y-113725559D01*
X153905524Y-113681290D01*
X153905518Y-113681282D01*
X153879291Y-113655055D01*
X153873495Y-113647040D01*
X153869509Y-113635790D01*
X153857569Y-113617105D01*
X153783095Y-113414220D01*
X153775500Y-113371491D01*
X153775500Y-108728858D01*
X153775500Y-108728856D01*
X153751614Y-108639712D01*
X153751611Y-108639706D01*
X153705473Y-108559794D01*
X153705470Y-108559791D01*
X153705469Y-108559788D01*
X153640212Y-108494531D01*
X150924426Y-105778744D01*
X150903274Y-105750488D01*
X150890667Y-105727399D01*
X150875500Y-105667974D01*
X150875500Y-98478858D01*
X150875500Y-98478856D01*
X150851614Y-98389712D01*
X150848611Y-98384511D01*
X150805470Y-98309788D01*
X150049426Y-97553744D01*
X150028274Y-97525488D01*
X150015667Y-97502399D01*
X150000500Y-97442974D01*
X150000500Y-96111931D01*
X150005521Y-96077004D01*
X150008707Y-96066151D01*
X150046477Y-96007370D01*
X150110031Y-95978341D01*
X150179186Y-95988279D01*
X150186172Y-95991469D01*
X150222342Y-96016582D01*
X150248436Y-96042676D01*
X150248447Y-96042685D01*
X150248452Y-96042688D01*
X150389799Y-96126280D01*
X150389800Y-96126280D01*
X150389803Y-96126282D01*
X150389806Y-96126283D01*
X150389828Y-96126289D01*
X150389833Y-96126291D01*
X150547493Y-96172096D01*
X150547497Y-96172097D01*
X150547504Y-96172099D01*
X150547510Y-96172100D01*
X150584350Y-96174999D01*
X150584366Y-96175000D01*
X150850000Y-96175000D01*
X150850000Y-95316829D01*
X150855023Y-95281893D01*
X150859427Y-95266895D01*
X150897172Y-95208144D01*
X150898541Y-95206957D01*
X150953420Y-95179477D01*
X150960979Y-95177833D01*
X150987332Y-95175000D01*
X151208170Y-95175000D01*
X151243106Y-95180023D01*
G37*
%TD.AperFunction*%
%TA.AperFunction,Conductor*%
G36*
X124768126Y-98102395D02*
G01*
X124768148Y-98102098D01*
X124773104Y-98102452D01*
X124780237Y-98104136D01*
X124789874Y-98105522D01*
X124794244Y-98106805D01*
X124794068Y-98107402D01*
X124807984Y-98110688D01*
X124810328Y-98111199D01*
X124810643Y-98111316D01*
X124811695Y-98111565D01*
X124813736Y-98112409D01*
X124814459Y-98112740D01*
X124814715Y-98112815D01*
X124817249Y-98113864D01*
X124842705Y-98134368D01*
X124864317Y-98150547D01*
X124865347Y-98149655D01*
X124866330Y-98150789D01*
X124867212Y-98152714D01*
X124869082Y-98154114D01*
X124870909Y-98156554D01*
X124870567Y-98156810D01*
X124871662Y-98157692D01*
X124877430Y-98175008D01*
X124895327Y-98214058D01*
X124895466Y-98215008D01*
X124896772Y-98232960D01*
X124896772Y-98380529D01*
X124898973Y-98394446D01*
X124898982Y-98394484D01*
X124930642Y-98594373D01*
X124997535Y-98800254D01*
X124997542Y-98800273D01*
X124997544Y-98800278D01*
X124997545Y-98800281D01*
X125063364Y-98929456D01*
X125063364Y-98929458D01*
X125095837Y-98993189D01*
X125126416Y-99035276D01*
X125223100Y-99168350D01*
X125376194Y-99321444D01*
X125551353Y-99448705D01*
X125640253Y-99494002D01*
X125744262Y-99546998D01*
X125744265Y-99546999D01*
X125847219Y-99580450D01*
X125950175Y-99613902D01*
X126164018Y-99647772D01*
X126164019Y-99647772D01*
X126380525Y-99647772D01*
X126380526Y-99647772D01*
X126594369Y-99613902D01*
X126800281Y-99546998D01*
X126993191Y-99448705D01*
X127138195Y-99343352D01*
X127169400Y-99326886D01*
X127181598Y-99322533D01*
X127251352Y-99318542D01*
X127312192Y-99352897D01*
X127343634Y-99409511D01*
X127345863Y-99418511D01*
X127349500Y-99448321D01*
X127349500Y-113557531D01*
X127344475Y-113592475D01*
X127340070Y-113607473D01*
X127302338Y-113666207D01*
X127300997Y-113667370D01*
X127246047Y-113694872D01*
X127238424Y-113696526D01*
X127211993Y-113699346D01*
X123802524Y-113695565D01*
X123802520Y-113695565D01*
X123755391Y-113695511D01*
X123754612Y-113695451D01*
X123745508Y-113695451D01*
X123698371Y-113695451D01*
X123698369Y-113695451D01*
X123651098Y-113695398D01*
X123650292Y-113695451D01*
X123630247Y-113695451D01*
X123630241Y-113695451D01*
X123498340Y-113725556D01*
X123498334Y-113725558D01*
X123498323Y-113725562D01*
X123376406Y-113784275D01*
X123270607Y-113868644D01*
X123186238Y-113974443D01*
X123127525Y-114096360D01*
X123127521Y-114096371D01*
X123127519Y-114096377D01*
X123097414Y-114228278D01*
X123097414Y-123663622D01*
X123127519Y-123795523D01*
X123127521Y-123795528D01*
X123127525Y-123795540D01*
X123186236Y-123917454D01*
X123188243Y-123920282D01*
X123188250Y-123920292D01*
X123190548Y-123922862D01*
X123190627Y-123922961D01*
X123190624Y-123922963D01*
X123190652Y-123922992D01*
X123270601Y-124023249D01*
X123270605Y-124023252D01*
X123270608Y-124023256D01*
X123331203Y-124071577D01*
X123376407Y-124107626D01*
X123494789Y-124164637D01*
X123496036Y-124165358D01*
X123498058Y-124166279D01*
X123498332Y-124166341D01*
X123498333Y-124166342D01*
X123630247Y-124196450D01*
X123630252Y-124196450D01*
X123630254Y-124196451D01*
X123630256Y-124196451D01*
X123697300Y-124196451D01*
X126867361Y-124199680D01*
X126868094Y-124199740D01*
X126877404Y-124199740D01*
X126924998Y-124199740D01*
X126925000Y-124199740D01*
X126964254Y-124199780D01*
X126964256Y-124199779D01*
X126971885Y-124199787D01*
X126972617Y-124199740D01*
X126992656Y-124199740D01*
X126992658Y-124199740D01*
X126992664Y-124199740D01*
X126992917Y-124199681D01*
X127092024Y-124177061D01*
X127119597Y-124170768D01*
X127120624Y-124170533D01*
X127124578Y-124169631D01*
X127124578Y-124169630D01*
X127124581Y-124169629D01*
X127124586Y-124169629D01*
X127124587Y-124169628D01*
X127124961Y-124169543D01*
X127127692Y-124168133D01*
X127131416Y-124166340D01*
X127246505Y-124110915D01*
X127352303Y-124026545D01*
X127436673Y-123920747D01*
X127495387Y-123798828D01*
X127496140Y-123795531D01*
X127499972Y-123778744D01*
X127521512Y-123684365D01*
X127525497Y-123666906D01*
X127525498Y-123666898D01*
X127525498Y-121541601D01*
X127530521Y-121506665D01*
X127531636Y-121502870D01*
X127534925Y-121491666D01*
X127572696Y-121432893D01*
X127574060Y-121431711D01*
X127628914Y-121404253D01*
X127636490Y-121402606D01*
X127662863Y-121399775D01*
X130360397Y-121400489D01*
X130360438Y-121400500D01*
X130401609Y-121400500D01*
X130439482Y-121400510D01*
X130439483Y-121400509D01*
X130448909Y-121400512D01*
X130449784Y-121400500D01*
X131239152Y-121400500D01*
X131239157Y-121400500D01*
X131297377Y-121393430D01*
X131515435Y-121366954D01*
X131785657Y-121300350D01*
X132045881Y-121201661D01*
X132292311Y-121072324D01*
X132521355Y-120914226D01*
X132729673Y-120729673D01*
X132914226Y-120521355D01*
X133072324Y-120292311D01*
X133201661Y-120045881D01*
X133300350Y-119785657D01*
X133366954Y-119515435D01*
X133400500Y-119239154D01*
X133400500Y-119100000D01*
X133400500Y-119052405D01*
X133400500Y-118242329D01*
X133405523Y-118207393D01*
X133409927Y-118192395D01*
X133447672Y-118133644D01*
X133449041Y-118132457D01*
X133503920Y-118104977D01*
X133511479Y-118103333D01*
X133537832Y-118100500D01*
X135605109Y-118100500D01*
X135610970Y-118102221D01*
X135610975Y-118102220D01*
X135678014Y-118121907D01*
X135723766Y-118174713D01*
X135733707Y-118243872D01*
X135704680Y-118307426D01*
X135678005Y-118330538D01*
X135674043Y-118333084D01*
X135639104Y-118348540D01*
X135561886Y-118369232D01*
X135561884Y-118369233D01*
X135383938Y-118416913D01*
X135106018Y-118532032D01*
X135105388Y-118532288D01*
X135105330Y-118532316D01*
X134844163Y-118683102D01*
X134604928Y-118866672D01*
X134604913Y-118866686D01*
X134604905Y-118866693D01*
X134391693Y-119079905D01*
X134391686Y-119079913D01*
X134391672Y-119079928D01*
X134208102Y-119319163D01*
X134057316Y-119580330D01*
X134057288Y-119580388D01*
X134057032Y-119581018D01*
X133941912Y-119858940D01*
X133916843Y-119952501D01*
X133863862Y-120150232D01*
X133863859Y-120150243D01*
X133824501Y-120449199D01*
X133824500Y-120449228D01*
X133824500Y-120750770D01*
X133824501Y-120750799D01*
X133863859Y-121049755D01*
X133863860Y-121049760D01*
X133863861Y-121049766D01*
X133869906Y-121072325D01*
X133941912Y-121341058D01*
X133970874Y-121410978D01*
X134049525Y-121600858D01*
X134057032Y-121618980D01*
X134057292Y-121619618D01*
X134057316Y-121619668D01*
X134089140Y-121674788D01*
X134208099Y-121880831D01*
X134208100Y-121880832D01*
X134208102Y-121880835D01*
X134391672Y-122120070D01*
X134391676Y-122120075D01*
X134391679Y-122120078D01*
X134391685Y-122120085D01*
X134604914Y-122333314D01*
X134604921Y-122333320D01*
X134604924Y-122333322D01*
X134604928Y-122333326D01*
X134781352Y-122468700D01*
X134844168Y-122516900D01*
X135101899Y-122665701D01*
X135107093Y-122668701D01*
X135107095Y-122668702D01*
X135107683Y-122669042D01*
X135112828Y-122670787D01*
X135291072Y-122744619D01*
X135291071Y-122744619D01*
X135338709Y-122764351D01*
X135383939Y-122783086D01*
X135383940Y-122783086D01*
X135383942Y-122783087D01*
X135383944Y-122783087D01*
X135384691Y-122783397D01*
X135387842Y-122784132D01*
X135675232Y-122861138D01*
X135974217Y-122900500D01*
X135974224Y-122900500D01*
X136275776Y-122900500D01*
X136275783Y-122900500D01*
X136574768Y-122861138D01*
X136866058Y-122783087D01*
X137144668Y-122667683D01*
X137405832Y-122516900D01*
X137645080Y-122333319D01*
X137858319Y-122120080D01*
X138041900Y-121880832D01*
X138192683Y-121619668D01*
X138308087Y-121341058D01*
X138386138Y-121049768D01*
X138425500Y-120750783D01*
X138425500Y-120449217D01*
X138386138Y-120150232D01*
X138323283Y-119915654D01*
X142100000Y-119915654D01*
X142102899Y-119952487D01*
X142102901Y-119952501D01*
X142102902Y-119952505D01*
X142148707Y-120110165D01*
X142148717Y-120110196D01*
X142148718Y-120110199D01*
X142232310Y-120251546D01*
X142232313Y-120251551D01*
X142232322Y-120251562D01*
X142348436Y-120367676D01*
X142348447Y-120367685D01*
X142348452Y-120367688D01*
X142489799Y-120451280D01*
X142489800Y-120451280D01*
X142489803Y-120451282D01*
X142489806Y-120451283D01*
X142489828Y-120451289D01*
X142489833Y-120451291D01*
X142647493Y-120497096D01*
X142647497Y-120497097D01*
X142647504Y-120497099D01*
X142647510Y-120497100D01*
X142684350Y-120499999D01*
X142684366Y-120500000D01*
X143950000Y-120500000D01*
X144450000Y-120500000D01*
X145715629Y-120500000D01*
X145715634Y-120500000D01*
X145715649Y-120499999D01*
X145752489Y-120497100D01*
X145752495Y-120497099D01*
X145910193Y-120451283D01*
X145910196Y-120451282D01*
X146051552Y-120367685D01*
X146051561Y-120367678D01*
X146167678Y-120251561D01*
X146167685Y-120251552D01*
X146251282Y-120110196D01*
X146251283Y-120110193D01*
X146297099Y-119952495D01*
X146297100Y-119952489D01*
X146299999Y-119915649D01*
X146300000Y-119915634D01*
X146300000Y-119750000D01*
X144450000Y-119750000D01*
X144450000Y-120500000D01*
X143950000Y-120500000D01*
X143950000Y-119750000D01*
X142100000Y-119750000D01*
X142100000Y-119915654D01*
X138323283Y-119915654D01*
X138308087Y-119858942D01*
X138286157Y-119805998D01*
X138261343Y-119746091D01*
X138192686Y-119580338D01*
X138192681Y-119580328D01*
X138041900Y-119319168D01*
X137917779Y-119157409D01*
X137861719Y-119084350D01*
X142100000Y-119084350D01*
X142100000Y-119250000D01*
X143950000Y-119250000D01*
X144450000Y-119250000D01*
X146300000Y-119250000D01*
X146300000Y-119084365D01*
X146299999Y-119084350D01*
X146297100Y-119047510D01*
X146297099Y-119047504D01*
X146251283Y-118889806D01*
X146251282Y-118889803D01*
X146237602Y-118866672D01*
X146167688Y-118748452D01*
X146167685Y-118748447D01*
X146167676Y-118748436D01*
X146051562Y-118632322D01*
X146051551Y-118632313D01*
X146051546Y-118632310D01*
X145910199Y-118548718D01*
X145910196Y-118548717D01*
X145910165Y-118548707D01*
X145752505Y-118502902D01*
X145752501Y-118502901D01*
X145752495Y-118502900D01*
X145752489Y-118502899D01*
X145741963Y-118502070D01*
X145715654Y-118500000D01*
X145715649Y-118500000D01*
X144450000Y-118500000D01*
X144450000Y-119250000D01*
X143950000Y-119250000D01*
X143950000Y-118500000D01*
X142684344Y-118500000D01*
X142652772Y-118502484D01*
X142647510Y-118502899D01*
X142647504Y-118502900D01*
X142647497Y-118502901D01*
X142647493Y-118502902D01*
X142489833Y-118548707D01*
X142489802Y-118548717D01*
X142489799Y-118548718D01*
X142348452Y-118632310D01*
X142348447Y-118632313D01*
X142348436Y-118632322D01*
X142232322Y-118748436D01*
X142232313Y-118748447D01*
X142232310Y-118748452D01*
X142148718Y-118889799D01*
X142148717Y-118889802D01*
X142148707Y-118889833D01*
X142102902Y-119047493D01*
X142102901Y-119047497D01*
X142102899Y-119047511D01*
X142100349Y-119079921D01*
X142100000Y-119084350D01*
X137861719Y-119084350D01*
X137858320Y-119079921D01*
X137858314Y-119079914D01*
X137645085Y-118866685D01*
X137645078Y-118866679D01*
X137645075Y-118866676D01*
X137645070Y-118866672D01*
X137405835Y-118683102D01*
X137405834Y-118683101D01*
X137405831Y-118683099D01*
X137144671Y-118532318D01*
X137144672Y-118532318D01*
X137144668Y-118532316D01*
X137144618Y-118532292D01*
X137143980Y-118532032D01*
X137073654Y-118502902D01*
X136866060Y-118416913D01*
X136714204Y-118376223D01*
X136714203Y-118376222D01*
X136612186Y-118348888D01*
X136606961Y-118345703D01*
X136606950Y-118345704D01*
X136576271Y-118326997D01*
X136552526Y-118312523D01*
X136552521Y-118312514D01*
X136547296Y-118309328D01*
X136516779Y-118246475D01*
X136525087Y-118177101D01*
X136569582Y-118123231D01*
X136601328Y-118107817D01*
X136603870Y-118107004D01*
X136605824Y-118106381D01*
X136643558Y-118100500D01*
X145767666Y-118100500D01*
X145767919Y-118100441D01*
X145867026Y-118077821D01*
X145894599Y-118071528D01*
X145895626Y-118071293D01*
X145899580Y-118070391D01*
X145899580Y-118070390D01*
X145899583Y-118070389D01*
X145899588Y-118070389D01*
X145899589Y-118070388D01*
X145899963Y-118070303D01*
X145902694Y-118068893D01*
X146021503Y-118011677D01*
X146021503Y-118011676D01*
X146021507Y-118011675D01*
X146127305Y-117927305D01*
X146211675Y-117821507D01*
X146270389Y-117699588D01*
X146276527Y-117672695D01*
X146300499Y-117567666D01*
X146300500Y-117567658D01*
X146300500Y-103342330D01*
X146305523Y-103307394D01*
X146309927Y-103292396D01*
X146347702Y-103233618D01*
X146347706Y-103233615D01*
X146349076Y-103232428D01*
X146403896Y-103204983D01*
X146405337Y-103204669D01*
X146411460Y-103203337D01*
X146437820Y-103200500D01*
X147039563Y-103200500D01*
X147152405Y-103200500D01*
X147200000Y-103200500D01*
X147339154Y-103200500D01*
X147339157Y-103200500D01*
X147397377Y-103193430D01*
X147615435Y-103166954D01*
X147885657Y-103100350D01*
X148145881Y-103001661D01*
X148392311Y-102872324D01*
X148621355Y-102714226D01*
X148829673Y-102529673D01*
X149014226Y-102321355D01*
X149172324Y-102092311D01*
X149301661Y-101845881D01*
X149303231Y-101841740D01*
X149327933Y-101809106D01*
X149346610Y-101782359D01*
X149411232Y-101755793D01*
X149479959Y-101768381D01*
X149530969Y-101816128D01*
X149544388Y-101848771D01*
X149545729Y-101854084D01*
X149549500Y-101884430D01*
X149549500Y-104185281D01*
X149544476Y-104220219D01*
X149541289Y-104231072D01*
X149503514Y-104289849D01*
X149439957Y-104318872D01*
X149370807Y-104308931D01*
X149363829Y-104305744D01*
X149327657Y-104280630D01*
X149252512Y-104205485D01*
X149252510Y-104205483D01*
X149061433Y-104066657D01*
X148850996Y-103959433D01*
X148626368Y-103886446D01*
X148626362Y-103886445D01*
X148393102Y-103849500D01*
X148393097Y-103849500D01*
X148393092Y-103849500D01*
X148156908Y-103849500D01*
X148156903Y-103849500D01*
X148156898Y-103849500D01*
X147923636Y-103886445D01*
X147923634Y-103886445D01*
X147923631Y-103886446D01*
X147699003Y-103959433D01*
X147503210Y-104059195D01*
X147488562Y-104066659D01*
X147379549Y-104145861D01*
X147379550Y-104145862D01*
X147309361Y-104196858D01*
X147301980Y-104200991D01*
X147125991Y-104376980D01*
X147121858Y-104384361D01*
X147070862Y-104454550D01*
X147070861Y-104454549D01*
X146991659Y-104563562D01*
X146991657Y-104563566D01*
X146884433Y-104774003D01*
X146811446Y-104998631D01*
X146811445Y-104998634D01*
X146811445Y-104998636D01*
X146774500Y-105231896D01*
X146774500Y-105468102D01*
X146803691Y-105652406D01*
X146811446Y-105701368D01*
X146884433Y-105925996D01*
X146973303Y-106100411D01*
X146991657Y-106136433D01*
X147130483Y-106327510D01*
X147297490Y-106494517D01*
X147488567Y-106633343D01*
X147587991Y-106684002D01*
X147699003Y-106740566D01*
X147699876Y-106741011D01*
X147703630Y-106742070D01*
X147751335Y-106757569D01*
X147819410Y-106779688D01*
X147819411Y-106779689D01*
X147819412Y-106779689D01*
X147923631Y-106813553D01*
X148156903Y-106850500D01*
X148156908Y-106850500D01*
X148393096Y-106850500D01*
X148393097Y-106850500D01*
X148626368Y-106813553D01*
X148850992Y-106740568D01*
X149061433Y-106633343D01*
X149252510Y-106494517D01*
X149343054Y-106403971D01*
X149371306Y-106382821D01*
X149383489Y-106376169D01*
X149451760Y-106361319D01*
X149517191Y-106385712D01*
X149518493Y-106386686D01*
X149555760Y-106431813D01*
X149557948Y-106436319D01*
X149566177Y-106458386D01*
X149569967Y-106472529D01*
X149573386Y-106485289D01*
X149573387Y-106485290D01*
X149619526Y-106565207D01*
X149619527Y-106565208D01*
X149619532Y-106565214D01*
X149619538Y-106565221D01*
X151550573Y-108496255D01*
X151571723Y-108524507D01*
X151584331Y-108547596D01*
X151599500Y-108607025D01*
X151599500Y-111951234D01*
X151594474Y-111986180D01*
X151592412Y-111993200D01*
X151554632Y-112051975D01*
X151491073Y-112080994D01*
X151421916Y-112071043D01*
X151370541Y-112027451D01*
X151364992Y-112019199D01*
X151353331Y-111997460D01*
X151242929Y-111730927D01*
X151242704Y-111730374D01*
X151242682Y-111730330D01*
X151242681Y-111730328D01*
X151091900Y-111469168D01*
X151054033Y-111419818D01*
X150908326Y-111229928D01*
X150908322Y-111229924D01*
X150908320Y-111229921D01*
X150908314Y-111229914D01*
X150695085Y-111016685D01*
X150695078Y-111016679D01*
X150695075Y-111016676D01*
X150695070Y-111016672D01*
X150455835Y-110833102D01*
X150455834Y-110833101D01*
X150455831Y-110833099D01*
X150194671Y-110682318D01*
X150194672Y-110682318D01*
X150194668Y-110682316D01*
X150194618Y-110682292D01*
X150193980Y-110682032D01*
X149916058Y-110566912D01*
X149770413Y-110527887D01*
X149624766Y-110488861D01*
X149624760Y-110488860D01*
X149624755Y-110488859D01*
X149329883Y-110450039D01*
X149327867Y-110449705D01*
X149325793Y-110449500D01*
X149325788Y-110449500D01*
X149325783Y-110449500D01*
X149024217Y-110449500D01*
X149024211Y-110449500D01*
X149024206Y-110449500D01*
X149022129Y-110449705D01*
X149020115Y-110450039D01*
X148725243Y-110488859D01*
X148725236Y-110488860D01*
X148725233Y-110488861D01*
X148663673Y-110505355D01*
X148433940Y-110566912D01*
X148156018Y-110682032D01*
X148155388Y-110682288D01*
X148155330Y-110682316D01*
X147894163Y-110833102D01*
X147654928Y-111016672D01*
X147654913Y-111016686D01*
X147654905Y-111016693D01*
X147441693Y-111229905D01*
X147441686Y-111229913D01*
X147441672Y-111229928D01*
X147258102Y-111469163D01*
X147107316Y-111730330D01*
X147107288Y-111730388D01*
X147107032Y-111731018D01*
X146991912Y-112008940D01*
X146913862Y-112300230D01*
X146913859Y-112300243D01*
X146874501Y-112599199D01*
X146874500Y-112599228D01*
X146874500Y-112900770D01*
X146874501Y-112900799D01*
X146913859Y-113199755D01*
X146913860Y-113199760D01*
X146913861Y-113199766D01*
X146913862Y-113199768D01*
X146959874Y-113371491D01*
X146991913Y-113491060D01*
X147089047Y-113725562D01*
X147107032Y-113768980D01*
X147107292Y-113769618D01*
X147107316Y-113769668D01*
X147135347Y-113818218D01*
X147258099Y-114030831D01*
X147258100Y-114030832D01*
X147258102Y-114030835D01*
X147441672Y-114270070D01*
X147441676Y-114270075D01*
X147441679Y-114270078D01*
X147441685Y-114270085D01*
X147654914Y-114483314D01*
X147654921Y-114483320D01*
X147654924Y-114483322D01*
X147654928Y-114483326D01*
X147747569Y-114554411D01*
X147894168Y-114666900D01*
X148151899Y-114815701D01*
X148157093Y-114818701D01*
X148157095Y-114818702D01*
X148157683Y-114819042D01*
X148162828Y-114820787D01*
X148341072Y-114894619D01*
X148341071Y-114894619D01*
X148411064Y-114923611D01*
X148433939Y-114933086D01*
X148433940Y-114933086D01*
X148433942Y-114933087D01*
X148433944Y-114933087D01*
X148434691Y-114933397D01*
X148437842Y-114934132D01*
X148725232Y-115011138D01*
X149024217Y-115050500D01*
X149024224Y-115050500D01*
X149325776Y-115050500D01*
X149325783Y-115050500D01*
X149624768Y-115011138D01*
X149916058Y-114933087D01*
X150194668Y-114817683D01*
X150455832Y-114666900D01*
X150695080Y-114483319D01*
X150908319Y-114270080D01*
X151091900Y-114030832D01*
X151109199Y-114000868D01*
X151135443Y-113974757D01*
X151145755Y-113959500D01*
X151154587Y-113955710D01*
X151155135Y-113955166D01*
X151164049Y-113950080D01*
X151164769Y-113951342D01*
X151209965Y-113931952D01*
X151278875Y-113943492D01*
X151325755Y-113983106D01*
X151326112Y-113983607D01*
X151347407Y-114034984D01*
X151347780Y-114037200D01*
X151349500Y-114057782D01*
X151349500Y-114154056D01*
X151387518Y-114295944D01*
X151391031Y-114314765D01*
X151391446Y-114318620D01*
X151392141Y-114333928D01*
X151391716Y-114359810D01*
X151378619Y-114413273D01*
X151375166Y-114420172D01*
X151351961Y-114452354D01*
X149953744Y-115850573D01*
X149925493Y-115871722D01*
X149902405Y-115884330D01*
X149842975Y-115899500D01*
X148853856Y-115899500D01*
X148771466Y-115921575D01*
X148771451Y-115921580D01*
X148764712Y-115923386D01*
X148764711Y-115923386D01*
X148764709Y-115923387D01*
X148764706Y-115923388D01*
X148761906Y-115925004D01*
X148761902Y-115925006D01*
X148684804Y-115969519D01*
X148684786Y-115969531D01*
X147269534Y-117384782D01*
X147269525Y-117384793D01*
X147269517Y-117384805D01*
X147226653Y-117459050D01*
X147226650Y-117459056D01*
X147223386Y-117464708D01*
X147223385Y-117464709D01*
X147199500Y-117553854D01*
X147199500Y-119685626D01*
X147194476Y-119720563D01*
X147187064Y-119745804D01*
X147155769Y-119798548D01*
X146253744Y-120700573D01*
X146225493Y-120721722D01*
X146202405Y-120734330D01*
X146142975Y-120749500D01*
X139903856Y-120749500D01*
X139821466Y-120771575D01*
X139821451Y-120771580D01*
X139814712Y-120773386D01*
X139814711Y-120773386D01*
X139814709Y-120773387D01*
X139814706Y-120773388D01*
X139811906Y-120775004D01*
X139811902Y-120775006D01*
X139734804Y-120819519D01*
X139734786Y-120819531D01*
X137069534Y-123484782D01*
X137069529Y-123484787D01*
X137055021Y-123509917D01*
X137055014Y-123509930D01*
X137023390Y-123564701D01*
X137023388Y-123564705D01*
X137023384Y-123564716D01*
X136999500Y-123653856D01*
X136999500Y-132835626D01*
X136994476Y-132870563D01*
X136987064Y-132895804D01*
X136955769Y-132948548D01*
X136462899Y-133441417D01*
X136434649Y-133462566D01*
X136424722Y-133467987D01*
X136356449Y-133482841D01*
X136290984Y-133458427D01*
X136249111Y-133402495D01*
X136248021Y-133399574D01*
X136241735Y-133336859D01*
X136250113Y-133283955D01*
X136250438Y-133282145D01*
X136250499Y-133281523D01*
X136250500Y-133281519D01*
X136250499Y-130318482D01*
X136235646Y-130224696D01*
X136178050Y-130111658D01*
X136178046Y-130111654D01*
X136178045Y-130111652D01*
X136088347Y-130021954D01*
X136088344Y-130021952D01*
X136088342Y-130021950D01*
X135975304Y-129964354D01*
X135975302Y-129964353D01*
X135975300Y-129964352D01*
X135961277Y-129961042D01*
X135936645Y-129952404D01*
X135924861Y-129946817D01*
X135872719Y-129900312D01*
X135869900Y-129895785D01*
X135869235Y-129894717D01*
X135850500Y-129829178D01*
X135850500Y-127179147D01*
X135855523Y-127144211D01*
X135859927Y-127129213D01*
X135897690Y-127070446D01*
X135899619Y-127068774D01*
X135902674Y-127066127D01*
X135964491Y-127037358D01*
X135975304Y-127035646D01*
X136088342Y-126978050D01*
X136178050Y-126888342D01*
X136235646Y-126775304D01*
X136235646Y-126775302D01*
X136235647Y-126775301D01*
X136235648Y-126775294D01*
X136236787Y-126770552D01*
X136236788Y-126770544D01*
X136237172Y-126765671D01*
X136246282Y-126708147D01*
X136250500Y-126681519D01*
X136250499Y-123718482D01*
X136235646Y-123624696D01*
X136178050Y-123511658D01*
X136178048Y-123511656D01*
X136178045Y-123511652D01*
X136088347Y-123421954D01*
X136088343Y-123421950D01*
X136011519Y-123382805D01*
X136011519Y-123382806D01*
X136010258Y-123382163D01*
X135975301Y-123364352D01*
X135975299Y-123364351D01*
X135975298Y-123364351D01*
X135975296Y-123364350D01*
X135881530Y-123349500D01*
X135881524Y-123349500D01*
X135118482Y-123349500D01*
X135118478Y-123349500D01*
X135053846Y-123359736D01*
X135053842Y-123359737D01*
X135037519Y-123362323D01*
X135024696Y-123364354D01*
X134911658Y-123421950D01*
X134911657Y-123421951D01*
X134911652Y-123421954D01*
X134908652Y-123424953D01*
X134908651Y-123424954D01*
X134821949Y-123511657D01*
X134821943Y-123511665D01*
X134821786Y-123511978D01*
X134803253Y-123548353D01*
X134803251Y-123548357D01*
X134764352Y-123624696D01*
X134764350Y-123624703D01*
X134749500Y-123718469D01*
X134749500Y-124707670D01*
X134744475Y-124742614D01*
X134740070Y-124757612D01*
X134702824Y-124815923D01*
X134702735Y-124816001D01*
X134639343Y-124845383D01*
X134578276Y-124839151D01*
X134575941Y-124838294D01*
X134514999Y-124815923D01*
X134382893Y-124767429D01*
X134337942Y-124738705D01*
X134318722Y-124719485D01*
X134318720Y-124719484D01*
X134318717Y-124719481D01*
X134318709Y-124719475D01*
X134292147Y-124704140D01*
X134181807Y-124640435D01*
X134181783Y-124640422D01*
X134050333Y-124605201D01*
X134029057Y-124599500D01*
X134029056Y-124599500D01*
X133870943Y-124599500D01*
X133718218Y-124640422D01*
X133718211Y-124640424D01*
X133718210Y-124640425D01*
X133718200Y-124640430D01*
X133581298Y-124719470D01*
X133581294Y-124719472D01*
X133581290Y-124719475D01*
X133581282Y-124719481D01*
X133581278Y-124719484D01*
X133581276Y-124719485D01*
X133469485Y-124831276D01*
X133469484Y-124831278D01*
X133469481Y-124831281D01*
X133469481Y-124831282D01*
X133469475Y-124831290D01*
X133469472Y-124831294D01*
X133469470Y-124831298D01*
X133390430Y-124968200D01*
X133390425Y-124968210D01*
X133390424Y-124968211D01*
X133390422Y-124968218D01*
X133381293Y-125002289D01*
X133349500Y-125120943D01*
X133349500Y-125279056D01*
X133356038Y-125303456D01*
X133390422Y-125431780D01*
X133390424Y-125431787D01*
X133390425Y-125431788D01*
X133390428Y-125431793D01*
X133466623Y-125563771D01*
X133466638Y-125563795D01*
X133469475Y-125568709D01*
X133469479Y-125568714D01*
X133469480Y-125568716D01*
X133470049Y-125569285D01*
X133581287Y-125680523D01*
X133581969Y-125681014D01*
X133584475Y-125682363D01*
X133718209Y-125759573D01*
X133718216Y-125759577D01*
X133870943Y-125800500D01*
X133870945Y-125800500D01*
X134029055Y-125800500D01*
X134029057Y-125800500D01*
X134181784Y-125759577D01*
X134318716Y-125680520D01*
X134337944Y-125661290D01*
X134382889Y-125632569D01*
X134576519Y-125561492D01*
X134646233Y-125556870D01*
X134654182Y-125558921D01*
X134657633Y-125559935D01*
X134716356Y-125597672D01*
X134717543Y-125599041D01*
X134745019Y-125653902D01*
X134746664Y-125661460D01*
X134749501Y-125687831D01*
X134749501Y-126681518D01*
X134764354Y-126775304D01*
X134821950Y-126888342D01*
X134821952Y-126888344D01*
X134821954Y-126888347D01*
X134911652Y-126978045D01*
X134911654Y-126978046D01*
X134911658Y-126978050D01*
X134962794Y-127004105D01*
X135024691Y-127035644D01*
X135024692Y-127035644D01*
X135024696Y-127035646D01*
X135027285Y-127036056D01*
X135061006Y-127046482D01*
X135075131Y-127053178D01*
X135127272Y-127099674D01*
X135130757Y-127105270D01*
X135149500Y-127170821D01*
X135149500Y-129820851D01*
X135144475Y-129855795D01*
X135140070Y-129870793D01*
X135102299Y-129929561D01*
X135097317Y-129933878D01*
X135035598Y-129962626D01*
X135035069Y-129962710D01*
X135034422Y-129962812D01*
X135029487Y-129963202D01*
X135024699Y-129964351D01*
X134969295Y-129992581D01*
X134969294Y-129992580D01*
X134911653Y-130021952D01*
X134911650Y-130021954D01*
X134821955Y-130111649D01*
X134821946Y-130111664D01*
X134764353Y-130224695D01*
X134764350Y-130224703D01*
X134749500Y-130318469D01*
X134749500Y-133281519D01*
X134752506Y-133300499D01*
X134752506Y-133300500D01*
X134764352Y-133375299D01*
X134764352Y-133375300D01*
X134764353Y-133375303D01*
X134764354Y-133375304D01*
X134821950Y-133488342D01*
X134821952Y-133488344D01*
X134821954Y-133488347D01*
X134911652Y-133578045D01*
X134911654Y-133578046D01*
X134911658Y-133578050D01*
X135024696Y-133635646D01*
X135024698Y-133635647D01*
X135118220Y-133650458D01*
X135118457Y-133650497D01*
X135118466Y-133650497D01*
X135118475Y-133650499D01*
X135118481Y-133650500D01*
X135881518Y-133650499D01*
X135881523Y-133650499D01*
X135929338Y-133642925D01*
X135964621Y-133642421D01*
X135975842Y-133643871D01*
X136039804Y-133671982D01*
X136078417Y-133730213D01*
X136079417Y-133800075D01*
X136079406Y-133800114D01*
X136078575Y-133803098D01*
X136046802Y-133857513D01*
X136003741Y-133900574D01*
X135988056Y-133912316D01*
X135985032Y-133915941D01*
X135981902Y-133916923D01*
X135975493Y-133921722D01*
X135952408Y-133934329D01*
X135892975Y-133949500D01*
X134953856Y-133949500D01*
X134864725Y-133973382D01*
X134864708Y-133973387D01*
X134864703Y-133973389D01*
X134784791Y-134019526D01*
X134784789Y-134019528D01*
X134784782Y-134019534D01*
X132903744Y-135900573D01*
X132875493Y-135921722D01*
X132852405Y-135934330D01*
X132792975Y-135949500D01*
X130703856Y-135949500D01*
X130621466Y-135971575D01*
X130621451Y-135971580D01*
X130614712Y-135973386D01*
X130614711Y-135973386D01*
X130614709Y-135973387D01*
X130614706Y-135973388D01*
X130611906Y-135975004D01*
X130611902Y-135975006D01*
X130534804Y-136019519D01*
X130534786Y-136019531D01*
X129119534Y-137434782D01*
X129119528Y-137434789D01*
X129119526Y-137434791D01*
X129073389Y-137514703D01*
X129073387Y-137514708D01*
X129073382Y-137514725D01*
X129049500Y-137603856D01*
X129049500Y-140985626D01*
X129044476Y-141020563D01*
X129037064Y-141045804D01*
X129005769Y-141098548D01*
X128503744Y-141600573D01*
X128475493Y-141621722D01*
X128452405Y-141634330D01*
X128392975Y-141649500D01*
X128316115Y-141649500D01*
X128281176Y-141644476D01*
X128267858Y-141640565D01*
X128209081Y-141602789D01*
X128180060Y-141539240D01*
X128179712Y-141536819D01*
X128179585Y-141535936D01*
X128184130Y-141480780D01*
X128184728Y-141478895D01*
X128192430Y-141460119D01*
X128235645Y-141375306D01*
X128235647Y-141375301D01*
X128236398Y-141370560D01*
X128250111Y-141283979D01*
X128250437Y-141282154D01*
X128250499Y-141281523D01*
X128250500Y-141281519D01*
X128250499Y-138318482D01*
X128235646Y-138224696D01*
X128178050Y-138111658D01*
X128178046Y-138111654D01*
X128178045Y-138111652D01*
X128088347Y-138021954D01*
X128088344Y-138021952D01*
X128088342Y-138021950D01*
X127975304Y-137964354D01*
X127975302Y-137964353D01*
X127975300Y-137964352D01*
X127961277Y-137961042D01*
X127936645Y-137952404D01*
X127924861Y-137946817D01*
X127872719Y-137900312D01*
X127872533Y-137900014D01*
X127869235Y-137894717D01*
X127850500Y-137829178D01*
X127850500Y-135179147D01*
X127855523Y-135144211D01*
X127859927Y-135129213D01*
X127897690Y-135070446D01*
X127899619Y-135068774D01*
X127902674Y-135066127D01*
X127964491Y-135037358D01*
X127975304Y-135035646D01*
X128088342Y-134978050D01*
X128178050Y-134888342D01*
X128235646Y-134775304D01*
X128235646Y-134775302D01*
X128235647Y-134775301D01*
X128235649Y-134775288D01*
X128236784Y-134770562D01*
X128236784Y-134770560D01*
X128236786Y-134770554D01*
X128236789Y-134770539D01*
X128237173Y-134765667D01*
X128243931Y-134722996D01*
X128245094Y-134715654D01*
X130500000Y-134715654D01*
X130502899Y-134752487D01*
X130502901Y-134752501D01*
X130502902Y-134752505D01*
X130548707Y-134910165D01*
X130548717Y-134910196D01*
X130548718Y-134910199D01*
X130632310Y-135051546D01*
X130632313Y-135051551D01*
X130632322Y-135051562D01*
X130748436Y-135167676D01*
X130748447Y-135167685D01*
X130748452Y-135167688D01*
X130889799Y-135251280D01*
X130889800Y-135251280D01*
X130889803Y-135251282D01*
X130889806Y-135251283D01*
X130889828Y-135251289D01*
X130889833Y-135251291D01*
X131047493Y-135297096D01*
X131047497Y-135297097D01*
X131047504Y-135297099D01*
X131047510Y-135297100D01*
X131084350Y-135299999D01*
X131084366Y-135300000D01*
X131250000Y-135300000D01*
X131750000Y-135300000D01*
X131915629Y-135300000D01*
X131915634Y-135300000D01*
X131915649Y-135299999D01*
X131952489Y-135297100D01*
X131952495Y-135297099D01*
X132110193Y-135251283D01*
X132110196Y-135251282D01*
X132251552Y-135167685D01*
X132251561Y-135167678D01*
X132367678Y-135051561D01*
X132367685Y-135051552D01*
X132451282Y-134910196D01*
X132451283Y-134910193D01*
X132497099Y-134752495D01*
X132497100Y-134752489D01*
X132499999Y-134715649D01*
X132500000Y-134715634D01*
X132500000Y-133450000D01*
X131750000Y-133450000D01*
X131750000Y-135300000D01*
X131250000Y-135300000D01*
X131250000Y-133450000D01*
X130500000Y-133450000D01*
X130500000Y-134715654D01*
X128245094Y-134715654D01*
X128250500Y-134681524D01*
X128250500Y-133398638D01*
X128250499Y-131718481D01*
X128249305Y-131710945D01*
X128245093Y-131684350D01*
X130500000Y-131684350D01*
X130500000Y-132950000D01*
X131250000Y-132950000D01*
X131750000Y-132950000D01*
X132500000Y-132950000D01*
X132500000Y-131684365D01*
X132499999Y-131684350D01*
X132497100Y-131647510D01*
X132497099Y-131647504D01*
X132477620Y-131580459D01*
X132451291Y-131489833D01*
X132451289Y-131489828D01*
X132451283Y-131489806D01*
X132451282Y-131489803D01*
X132444244Y-131477903D01*
X132367688Y-131348452D01*
X132367685Y-131348447D01*
X132367676Y-131348436D01*
X132251562Y-131232322D01*
X132251551Y-131232313D01*
X132251541Y-131232307D01*
X132110199Y-131148718D01*
X132110196Y-131148717D01*
X132110165Y-131148707D01*
X131952505Y-131102902D01*
X131952501Y-131102901D01*
X131952495Y-131102900D01*
X131952489Y-131102899D01*
X131941963Y-131102070D01*
X131915654Y-131100000D01*
X131915649Y-131100000D01*
X131750000Y-131100000D01*
X131750000Y-132950000D01*
X131250000Y-132950000D01*
X131250000Y-131100000D01*
X131084344Y-131100000D01*
X131052772Y-131102484D01*
X131047510Y-131102899D01*
X131047504Y-131102900D01*
X131047497Y-131102901D01*
X131047493Y-131102902D01*
X130889833Y-131148707D01*
X130889802Y-131148717D01*
X130889799Y-131148718D01*
X130748458Y-131232307D01*
X130748447Y-131232313D01*
X130748436Y-131232322D01*
X130632322Y-131348436D01*
X130632313Y-131348447D01*
X130632310Y-131348452D01*
X130548718Y-131489799D01*
X130548717Y-131489802D01*
X130548707Y-131489833D01*
X130502902Y-131647493D01*
X130502901Y-131647497D01*
X130502899Y-131647511D01*
X130501651Y-131663375D01*
X130500000Y-131684350D01*
X128245093Y-131684350D01*
X128235646Y-131624696D01*
X128213105Y-131580458D01*
X128200210Y-131511790D01*
X128226487Y-131447050D01*
X128271495Y-131411639D01*
X128312663Y-131392580D01*
X128324771Y-131386973D01*
X128376867Y-131375500D01*
X128404055Y-131375500D01*
X128404057Y-131375500D01*
X128556784Y-131334577D01*
X128693716Y-131255520D01*
X128805520Y-131143716D01*
X128884577Y-131006784D01*
X128925500Y-130854057D01*
X128925500Y-130695943D01*
X128884577Y-130543216D01*
X128819446Y-130430404D01*
X128819446Y-130430403D01*
X128814481Y-130421805D01*
X128805524Y-130406290D01*
X128805518Y-130406282D01*
X128774021Y-130374785D01*
X128752873Y-130346535D01*
X128747451Y-130336605D01*
X128732600Y-130268334D01*
X128757017Y-130202870D01*
X128812946Y-130161000D01*
X128816823Y-130159554D01*
X128820159Y-130158311D01*
X128863473Y-130150500D01*
X132946494Y-130150500D01*
X132989224Y-130158095D01*
X132993904Y-130159813D01*
X133192107Y-130232569D01*
X133234315Y-130258633D01*
X133235686Y-130259922D01*
X133256284Y-130280520D01*
X133256286Y-130280521D01*
X133256290Y-130280524D01*
X133340871Y-130329356D01*
X133393216Y-130359577D01*
X133545943Y-130400500D01*
X133545945Y-130400500D01*
X133704055Y-130400500D01*
X133704057Y-130400500D01*
X133856784Y-130359577D01*
X133993716Y-130280520D01*
X134105520Y-130168716D01*
X134184577Y-130031784D01*
X134225500Y-129879057D01*
X134225500Y-129720943D01*
X134184577Y-129568216D01*
X134156469Y-129519531D01*
X134105524Y-129431290D01*
X134105518Y-129431282D01*
X134105513Y-129431276D01*
X133993722Y-129319485D01*
X133993720Y-129319484D01*
X133993717Y-129319481D01*
X133993709Y-129319475D01*
X133934138Y-129285082D01*
X133856807Y-129240435D01*
X133856783Y-129240422D01*
X133744979Y-129210464D01*
X133704057Y-129199500D01*
X133704056Y-129199500D01*
X133545943Y-129199500D01*
X133393218Y-129240422D01*
X133393211Y-129240424D01*
X133393210Y-129240425D01*
X133393200Y-129240430D01*
X133256298Y-129319470D01*
X133256293Y-129319472D01*
X133256290Y-129319475D01*
X133256286Y-129319478D01*
X133256283Y-129319480D01*
X133256277Y-129319485D01*
X133256272Y-129319489D01*
X133237055Y-129338706D01*
X133192107Y-129367428D01*
X133166002Y-129377011D01*
X132989219Y-129441905D01*
X132946490Y-129449500D01*
X128872722Y-129449500D01*
X128837787Y-129444477D01*
X128826933Y-129441290D01*
X128768155Y-129403516D01*
X128739130Y-129339960D01*
X128749073Y-129270803D01*
X128750052Y-129268661D01*
X128793946Y-129217090D01*
X128820271Y-129199500D01*
X128872995Y-129164271D01*
X128928380Y-129081381D01*
X128947829Y-128983605D01*
X128947829Y-128880934D01*
X128952852Y-128845998D01*
X128957256Y-128831000D01*
X128995001Y-128772249D01*
X128996370Y-128771062D01*
X129051249Y-128743582D01*
X129058808Y-128741938D01*
X129085161Y-128739105D01*
X129396451Y-128739105D01*
X129404303Y-128736722D01*
X129490105Y-128719656D01*
X129572995Y-128664271D01*
X129628380Y-128581381D01*
X129647829Y-128483605D01*
X129647829Y-127383605D01*
X129647829Y-127383602D01*
X129647829Y-127383421D01*
X129647403Y-127381465D01*
X129630761Y-127297800D01*
X129630160Y-127291701D01*
X129630149Y-127291662D01*
X129628872Y-127286566D01*
X129628378Y-127285827D01*
X129572995Y-127202939D01*
X129572994Y-127202938D01*
X129490107Y-127147555D01*
X129490105Y-127147554D01*
X129490100Y-127147551D01*
X129490098Y-127147551D01*
X129392336Y-127128105D01*
X129392332Y-127128105D01*
X129392329Y-127128105D01*
X128389659Y-127128105D01*
X128354718Y-127123080D01*
X128339719Y-127118675D01*
X128280973Y-127080932D01*
X128279786Y-127079563D01*
X128252306Y-127024688D01*
X128250661Y-127017126D01*
X128247829Y-126990773D01*
X128247829Y-126683421D01*
X128247403Y-126681465D01*
X128230761Y-126597800D01*
X128230160Y-126591701D01*
X128230149Y-126591662D01*
X128228872Y-126586567D01*
X128228380Y-126585830D01*
X128228380Y-126585829D01*
X128172995Y-126502939D01*
X128098036Y-126452853D01*
X128090107Y-126447555D01*
X128090104Y-126447553D01*
X128090103Y-126447553D01*
X128090101Y-126447552D01*
X128090098Y-126447551D01*
X127992336Y-126428105D01*
X127992332Y-126428105D01*
X127992329Y-126428105D01*
X126742329Y-126428105D01*
X126742326Y-126428105D01*
X126742321Y-126428105D01*
X126644558Y-126447551D01*
X126644556Y-126447551D01*
X126644551Y-126447554D01*
X126561662Y-126502938D01*
X126506278Y-126585827D01*
X126506275Y-126585832D01*
X126506275Y-126585834D01*
X126486829Y-126683596D01*
X126486829Y-127824171D01*
X126481804Y-127859114D01*
X126478259Y-127871184D01*
X126440480Y-127929960D01*
X126376922Y-127958980D01*
X126311481Y-127950656D01*
X126302460Y-127946887D01*
X126275338Y-127931276D01*
X126166953Y-127849085D01*
X126166951Y-127849084D01*
X126097264Y-127821603D01*
X126027575Y-127794121D01*
X125942329Y-127783883D01*
X125942329Y-128107910D01*
X125937305Y-128142847D01*
X125932902Y-128157841D01*
X125924752Y-128170522D01*
X125925430Y-128170780D01*
X125909605Y-128212411D01*
X125867385Y-128268081D01*
X125801769Y-128292088D01*
X125733590Y-128276809D01*
X125684495Y-128227096D01*
X125673773Y-128199883D01*
X125671905Y-128192779D01*
X125646904Y-128097695D01*
X125642829Y-128066164D01*
X125642829Y-127072043D01*
X125647851Y-127037110D01*
X125655263Y-127011865D01*
X125686557Y-126959123D01*
X126646257Y-125999423D01*
X126674507Y-125978275D01*
X126697599Y-125965667D01*
X126757024Y-125950500D01*
X129760626Y-125950500D01*
X129795558Y-125955521D01*
X129820802Y-125962934D01*
X129873548Y-125994230D01*
X130134788Y-126255470D01*
X130214712Y-126301614D01*
X130303856Y-126325500D01*
X130303858Y-126325500D01*
X131471142Y-126325500D01*
X131471144Y-126325500D01*
X131560288Y-126301614D01*
X131640212Y-126255470D01*
X132143065Y-125752613D01*
X132178646Y-125727773D01*
X132205787Y-125715208D01*
X132276697Y-125682379D01*
X132374772Y-125636974D01*
X132426867Y-125625500D01*
X132454055Y-125625500D01*
X132454057Y-125625500D01*
X132606784Y-125584577D01*
X132743716Y-125505520D01*
X132855520Y-125393716D01*
X132934577Y-125256784D01*
X132975500Y-125104057D01*
X132975500Y-124945943D01*
X132934577Y-124793216D01*
X132895482Y-124725500D01*
X132895482Y-124725499D01*
X132873331Y-124687133D01*
X132855524Y-124656290D01*
X132855518Y-124656282D01*
X132855517Y-124656281D01*
X132855513Y-124656276D01*
X132743722Y-124544485D01*
X132743720Y-124544484D01*
X132743717Y-124544481D01*
X132743709Y-124544475D01*
X132717147Y-124529140D01*
X132606807Y-124465435D01*
X132606783Y-124465422D01*
X132494979Y-124435464D01*
X132454057Y-124424500D01*
X132454056Y-124424500D01*
X132295943Y-124424500D01*
X132143218Y-124465422D01*
X132143211Y-124465424D01*
X132143210Y-124465425D01*
X132143200Y-124465430D01*
X132006298Y-124544470D01*
X132006294Y-124544472D01*
X132006290Y-124544475D01*
X132006282Y-124544481D01*
X132006278Y-124544484D01*
X132006276Y-124544485D01*
X131894485Y-124656276D01*
X131894484Y-124656278D01*
X131894481Y-124656281D01*
X131894481Y-124656282D01*
X131894475Y-124656290D01*
X131894472Y-124656294D01*
X131894470Y-124656298D01*
X131815430Y-124793200D01*
X131815425Y-124793210D01*
X131815424Y-124793211D01*
X131815422Y-124793218D01*
X131774500Y-124945943D01*
X131774500Y-124973130D01*
X131763025Y-125025227D01*
X131749525Y-125054386D01*
X131703497Y-125106951D01*
X131636356Y-125126287D01*
X131569419Y-125106255D01*
X131523940Y-125053214D01*
X131513000Y-125002289D01*
X131513000Y-124883445D01*
X131513000Y-124883443D01*
X131472077Y-124730716D01*
X131419947Y-124640423D01*
X131393024Y-124593790D01*
X131393018Y-124593782D01*
X131393013Y-124593776D01*
X131281222Y-124481985D01*
X131281220Y-124481984D01*
X131281217Y-124481981D01*
X131281209Y-124481975D01*
X131242629Y-124459701D01*
X131144307Y-124402935D01*
X131144283Y-124402922D01*
X131032479Y-124372964D01*
X130991557Y-124362000D01*
X130991556Y-124362000D01*
X130833443Y-124362000D01*
X130680718Y-124402922D01*
X130680711Y-124402924D01*
X130680710Y-124402925D01*
X130680700Y-124402930D01*
X130543798Y-124481970D01*
X130543785Y-124481978D01*
X130533760Y-124492004D01*
X130486123Y-124521676D01*
X130277494Y-124592857D01*
X130237453Y-124599500D01*
X126103847Y-124599500D01*
X126024219Y-124620835D01*
X126024203Y-124620842D01*
X126014710Y-124623386D01*
X126014709Y-124623387D01*
X125996175Y-124634087D01*
X125996159Y-124634095D01*
X125934795Y-124669523D01*
X125934790Y-124669527D01*
X125934784Y-124669532D01*
X125934777Y-124669538D01*
X124511867Y-126092448D01*
X124511861Y-126092455D01*
X124511856Y-126092461D01*
X124511855Y-126092462D01*
X124465718Y-126172374D01*
X124465716Y-126172379D01*
X124465711Y-126172396D01*
X124441829Y-126261527D01*
X124441829Y-127891275D01*
X124436804Y-127926219D01*
X124432399Y-127941217D01*
X124394656Y-127999960D01*
X124393287Y-128001147D01*
X124338426Y-128028623D01*
X124330868Y-128030268D01*
X124304497Y-128033105D01*
X124239659Y-128033105D01*
X124204718Y-128028080D01*
X124189719Y-128023675D01*
X124130973Y-127985932D01*
X124129786Y-127984563D01*
X124102306Y-127929688D01*
X124100661Y-127922126D01*
X124097829Y-127895773D01*
X124097829Y-126683421D01*
X124097403Y-126681465D01*
X124080761Y-126597800D01*
X124080160Y-126591701D01*
X124080149Y-126591662D01*
X124078872Y-126586567D01*
X124078380Y-126585830D01*
X124078380Y-126585829D01*
X124022995Y-126502939D01*
X123948036Y-126452853D01*
X123940107Y-126447555D01*
X123940104Y-126447553D01*
X123940103Y-126447553D01*
X123940101Y-126447552D01*
X123940098Y-126447551D01*
X123842336Y-126428105D01*
X123842332Y-126428105D01*
X123842329Y-126428105D01*
X122592329Y-126428105D01*
X122592326Y-126428105D01*
X122592321Y-126428105D01*
X122494558Y-126447551D01*
X122494556Y-126447551D01*
X122494551Y-126447554D01*
X122411662Y-126502938D01*
X122356278Y-126585827D01*
X122356275Y-126585832D01*
X122356275Y-126585834D01*
X122336829Y-126683596D01*
X122336829Y-126986275D01*
X122331804Y-127021219D01*
X122327399Y-127036217D01*
X122289656Y-127094960D01*
X122288287Y-127096147D01*
X122233426Y-127123623D01*
X122225868Y-127125268D01*
X122199497Y-127128105D01*
X121192321Y-127128105D01*
X121094558Y-127147551D01*
X121094556Y-127147551D01*
X121094551Y-127147554D01*
X121011662Y-127202938D01*
X120956278Y-127285827D01*
X120956275Y-127285832D01*
X120956275Y-127285834D01*
X120936829Y-127383596D01*
X120936829Y-128483612D01*
X120956270Y-128581350D01*
X120956276Y-128581376D01*
X120956277Y-128581380D01*
X120956278Y-128581381D01*
X121011663Y-128664271D01*
X121094553Y-128719656D01*
X121094556Y-128719656D01*
X121094557Y-128719657D01*
X121094563Y-128719658D01*
X121100386Y-128721425D01*
X121100425Y-128721436D01*
X121106524Y-128722037D01*
X121184699Y-128737587D01*
X121187423Y-128738309D01*
X121192326Y-128739105D01*
X121192327Y-128739105D01*
X121192329Y-128739105D01*
X121494999Y-128739105D01*
X121529935Y-128744128D01*
X121544933Y-128748532D01*
X121603684Y-128786277D01*
X121604871Y-128787646D01*
X121632347Y-128842507D01*
X121633992Y-128850065D01*
X121636829Y-128876436D01*
X121636829Y-128983612D01*
X121656270Y-129081350D01*
X121656276Y-129081376D01*
X121656277Y-129081380D01*
X121656278Y-129081381D01*
X121711663Y-129164271D01*
X121794553Y-129219656D01*
X121794556Y-129219656D01*
X121794557Y-129219657D01*
X121794563Y-129219658D01*
X121800386Y-129221425D01*
X121800425Y-129221436D01*
X121806524Y-129222037D01*
X121884699Y-129237587D01*
X121887423Y-129238309D01*
X121892326Y-129239105D01*
X121892327Y-129239105D01*
X121892329Y-129239105D01*
X123260889Y-129239105D01*
X123295816Y-129244126D01*
X123306669Y-129247312D01*
X123365450Y-129285082D01*
X123394479Y-129348636D01*
X123384540Y-129417795D01*
X123384539Y-129417797D01*
X123381354Y-129424772D01*
X123356238Y-129460947D01*
X123074504Y-129742679D01*
X123074503Y-129742681D01*
X123074493Y-129742696D01*
X123008610Y-129856806D01*
X123008609Y-129856808D01*
X122974500Y-129984108D01*
X122973439Y-129992168D01*
X122973007Y-129992111D01*
X122969476Y-130016673D01*
X122962064Y-130041913D01*
X122930770Y-130094655D01*
X122865612Y-130159813D01*
X122865607Y-130159819D01*
X122810205Y-130273146D01*
X122810203Y-130273155D01*
X122804585Y-130311713D01*
X122794578Y-130345559D01*
X122788789Y-130358172D01*
X122742934Y-130410889D01*
X122675858Y-130430447D01*
X122675857Y-130430447D01*
X122653147Y-130430403D01*
X122653144Y-130430405D01*
X121725000Y-131358553D01*
X120998067Y-132085484D01*
X120998067Y-132085485D01*
X121039842Y-132127261D01*
X121039845Y-132127263D01*
X121039850Y-132127267D01*
X121176304Y-132207965D01*
X121176305Y-132207965D01*
X121176308Y-132207967D01*
X121176313Y-132207969D01*
X121176314Y-132207969D01*
X121176318Y-132207971D01*
X121328541Y-132252196D01*
X121328545Y-132252197D01*
X121328552Y-132252199D01*
X121328558Y-132252200D01*
X121364128Y-132254999D01*
X121364142Y-132255000D01*
X121560040Y-132255000D01*
X121594976Y-132260023D01*
X121608530Y-132264003D01*
X121667308Y-132301778D01*
X121696224Y-132364596D01*
X121698630Y-132380645D01*
X121700000Y-132399029D01*
X121700000Y-132998671D01*
X121715185Y-133114019D01*
X121720233Y-133126210D01*
X121720234Y-133126211D01*
X122275714Y-132570731D01*
X122303957Y-132549587D01*
X122313891Y-132544163D01*
X122382161Y-132529310D01*
X122447626Y-132553724D01*
X122489499Y-132609656D01*
X122489501Y-132609660D01*
X122492182Y-132616848D01*
X122500000Y-132660182D01*
X122500000Y-132984360D01*
X122494976Y-133019297D01*
X122487564Y-133044538D01*
X122456269Y-133097282D01*
X122053075Y-133500473D01*
X122053075Y-133500474D01*
X122076554Y-133510199D01*
X122135975Y-133534812D01*
X122135980Y-133534814D01*
X122251329Y-133550000D01*
X122748664Y-133550000D01*
X122748671Y-133550000D01*
X122864019Y-133534814D01*
X122864024Y-133534812D01*
X123007541Y-133475366D01*
X123007542Y-133475366D01*
X123130794Y-133380791D01*
X123150666Y-133354893D01*
X123162774Y-133345327D01*
X123164189Y-133344756D01*
X123166521Y-133342480D01*
X123173144Y-133337644D01*
X123238895Y-133314007D01*
X123306986Y-133329671D01*
X123325722Y-133342588D01*
X123329954Y-133346120D01*
X123368810Y-133404188D01*
X123374500Y-133441320D01*
X123374500Y-133729526D01*
X123372433Y-133752070D01*
X123369311Y-133768953D01*
X123369311Y-133768955D01*
X123369310Y-133768962D01*
X123351941Y-133973382D01*
X123343664Y-134070800D01*
X123327498Y-134122299D01*
X123315422Y-134143214D01*
X123315423Y-134143215D01*
X123289795Y-134238861D01*
X123274500Y-134295943D01*
X123274500Y-134454056D01*
X123284251Y-134490450D01*
X123315420Y-134606775D01*
X123315422Y-134606781D01*
X123315423Y-134606783D01*
X123315424Y-134606786D01*
X123325578Y-134624373D01*
X123327497Y-134627697D01*
X123343664Y-134679200D01*
X123345601Y-134702001D01*
X123345601Y-134722996D01*
X123343663Y-134745803D01*
X123327497Y-134797301D01*
X123315426Y-134818208D01*
X123315425Y-134818211D01*
X123315423Y-134818216D01*
X123274500Y-134970943D01*
X123274500Y-135129057D01*
X123307251Y-135251283D01*
X123315423Y-135281783D01*
X123315426Y-135281790D01*
X123394385Y-135418553D01*
X123394454Y-135418690D01*
X123506287Y-135530523D01*
X123506969Y-135531014D01*
X123509475Y-135532363D01*
X123643209Y-135609573D01*
X123643216Y-135609577D01*
X123795943Y-135650500D01*
X123795945Y-135650500D01*
X123954055Y-135650500D01*
X123954057Y-135650500D01*
X124106784Y-135609577D01*
X124185058Y-135564384D01*
X124217826Y-135551266D01*
X124236112Y-135546830D01*
X124300280Y-135548357D01*
X124310184Y-135551266D01*
X124310273Y-135551292D01*
X124337337Y-135562882D01*
X124386496Y-135591263D01*
X124418216Y-135609577D01*
X124570943Y-135650500D01*
X124570945Y-135650500D01*
X124729055Y-135650500D01*
X124729057Y-135650500D01*
X124881784Y-135609577D01*
X125018716Y-135530520D01*
X125130520Y-135418716D01*
X125209577Y-135281784D01*
X125250500Y-135129057D01*
X125250500Y-134970943D01*
X125209577Y-134818216D01*
X125197500Y-134797299D01*
X125181333Y-134745790D01*
X125179397Y-134722988D01*
X125179397Y-134702006D01*
X125180687Y-134686819D01*
X125181333Y-134679204D01*
X125197502Y-134627698D01*
X125209577Y-134606784D01*
X125250500Y-134454057D01*
X125250500Y-134295943D01*
X125209577Y-134143216D01*
X125175272Y-134083798D01*
X125162887Y-134053895D01*
X125154724Y-134023428D01*
X125150500Y-133991339D01*
X125150500Y-133784110D01*
X125150500Y-133784108D01*
X125116392Y-133656814D01*
X125050500Y-133542686D01*
X124957314Y-133449500D01*
X124393331Y-132885517D01*
X124378856Y-132868122D01*
X124369100Y-132853942D01*
X124369094Y-132853934D01*
X124097544Y-132532155D01*
X124097240Y-132531797D01*
X124079769Y-132511113D01*
X124051548Y-132447197D01*
X124050499Y-132431099D01*
X124050499Y-132400105D01*
X124050499Y-132400100D01*
X124043972Y-132350513D01*
X124043377Y-132349237D01*
X124033789Y-132319182D01*
X124030599Y-132301778D01*
X124008817Y-132182917D01*
X124012968Y-132121904D01*
X124024920Y-132085485D01*
X124130757Y-131762964D01*
X124130761Y-131762943D01*
X124131698Y-131759386D01*
X124132308Y-131759546D01*
X124137840Y-131743174D01*
X124139794Y-131736851D01*
X124139793Y-131736851D01*
X124139795Y-131736849D01*
X124150500Y-131663375D01*
X124150499Y-130346626D01*
X124139795Y-130273151D01*
X124132697Y-130258633D01*
X124127361Y-130247717D01*
X124116530Y-130214124D01*
X124113900Y-130198719D01*
X124122019Y-130129327D01*
X124126320Y-130119214D01*
X124152745Y-130080066D01*
X124249785Y-129983026D01*
X124278040Y-129961876D01*
X124301128Y-129949270D01*
X124360551Y-129934104D01*
X124441443Y-129934104D01*
X124441451Y-129934104D01*
X124466156Y-129931239D01*
X124475934Y-129926921D01*
X124509915Y-129917405D01*
X124535077Y-129914110D01*
X124601264Y-129923627D01*
X124618502Y-129931239D01*
X124643206Y-129934105D01*
X124941451Y-129934104D01*
X124966156Y-129931239D01*
X124975934Y-129926921D01*
X125009915Y-129917405D01*
X125035077Y-129914110D01*
X125101259Y-129923625D01*
X125118502Y-129931239D01*
X125143206Y-129934105D01*
X125155065Y-129934104D01*
X125168533Y-129936889D01*
X125170661Y-129936487D01*
X125191708Y-129941681D01*
X125204250Y-129944274D01*
X125208634Y-129946168D01*
X125210775Y-129947296D01*
X125212240Y-129947726D01*
X125219202Y-129950734D01*
X125230550Y-129960165D01*
X125254221Y-129973534D01*
X125256633Y-129975765D01*
X125271236Y-129991868D01*
X125281778Y-130005769D01*
X125298333Y-130027601D01*
X125409482Y-130111889D01*
X125417706Y-130118125D01*
X125557081Y-130173087D01*
X125642329Y-130183323D01*
X125642329Y-130183322D01*
X125642329Y-129859298D01*
X125647351Y-129824366D01*
X125648383Y-129820851D01*
X125651756Y-129809364D01*
X125659907Y-129796679D01*
X125659227Y-129796421D01*
X125675029Y-129754856D01*
X125717252Y-129699188D01*
X125782868Y-129675184D01*
X125851046Y-129690465D01*
X125900139Y-129740181D01*
X125910886Y-129767493D01*
X125934286Y-129856808D01*
X125937781Y-129870148D01*
X125941829Y-129901574D01*
X125941829Y-130142774D01*
X125942329Y-130150400D01*
X125942329Y-130192365D01*
X125960302Y-130221061D01*
X125962605Y-130220108D01*
X125965715Y-130227617D01*
X125988178Y-130266525D01*
X125988179Y-130266527D01*
X125996260Y-130280524D01*
X126011856Y-130307537D01*
X126011858Y-130307540D01*
X126011859Y-130307541D01*
X126384788Y-130680470D01*
X126445793Y-130715691D01*
X126464712Y-130726614D01*
X126553856Y-130750500D01*
X126553857Y-130750500D01*
X126553858Y-130750500D01*
X127246142Y-130750500D01*
X127246144Y-130750500D01*
X127335288Y-130726614D01*
X127354205Y-130715691D01*
X127390508Y-130706529D01*
X127408761Y-130685420D01*
X127415206Y-130680473D01*
X127415212Y-130680470D01*
X127503539Y-130592141D01*
X127531789Y-130570994D01*
X127541717Y-130565573D01*
X127609990Y-130550724D01*
X127675453Y-130575143D01*
X127717323Y-130631078D01*
X127717368Y-130631198D01*
X127717584Y-130631779D01*
X127724796Y-130686764D01*
X127719948Y-130737585D01*
X127717943Y-130737393D01*
X127710772Y-130780092D01*
X127622225Y-130971349D01*
X127597381Y-131006934D01*
X127303742Y-131300573D01*
X127275491Y-131321722D01*
X127252403Y-131334330D01*
X127192973Y-131349500D01*
X127118478Y-131349500D01*
X127061322Y-131358553D01*
X127037519Y-131362323D01*
X127024715Y-131364351D01*
X127024696Y-131364354D01*
X126911650Y-131421954D01*
X126821954Y-131511650D01*
X126808634Y-131537793D01*
X126808633Y-131537794D01*
X126764352Y-131624696D01*
X126764350Y-131624703D01*
X126749500Y-131718469D01*
X126749500Y-134681520D01*
X126757838Y-134734167D01*
X126757839Y-134734169D01*
X126760292Y-134749657D01*
X126764354Y-134775304D01*
X126821950Y-134888342D01*
X126821952Y-134888344D01*
X126821954Y-134888347D01*
X126911652Y-134978045D01*
X126911654Y-134978046D01*
X126911658Y-134978050D01*
X126972837Y-135009222D01*
X127024691Y-135035644D01*
X127024692Y-135035644D01*
X127024696Y-135035646D01*
X127027285Y-135036056D01*
X127061006Y-135046482D01*
X127075131Y-135053178D01*
X127127272Y-135099674D01*
X127130757Y-135105270D01*
X127149500Y-135170821D01*
X127149500Y-137820851D01*
X127144475Y-137855795D01*
X127140070Y-137870793D01*
X127102299Y-137929561D01*
X127097317Y-137933878D01*
X127035598Y-137962626D01*
X127035069Y-137962710D01*
X127034422Y-137962812D01*
X127029487Y-137963202D01*
X127024699Y-137964351D01*
X126969295Y-137992581D01*
X126969294Y-137992580D01*
X126911653Y-138021952D01*
X126911650Y-138021954D01*
X126821954Y-138111650D01*
X126821950Y-138111658D01*
X126807294Y-138140424D01*
X126807293Y-138140425D01*
X126807292Y-138140426D01*
X126764352Y-138224696D01*
X126764350Y-138224703D01*
X126749500Y-138318469D01*
X126749500Y-138318475D01*
X126749500Y-141281517D01*
X126758017Y-141335290D01*
X126764354Y-141375304D01*
X126807279Y-141459550D01*
X126809732Y-141466092D01*
X126810080Y-141470853D01*
X126815491Y-141486734D01*
X126815795Y-141488347D01*
X126818053Y-141500374D01*
X126814692Y-141533863D01*
X126814832Y-141535776D01*
X126814425Y-141536524D01*
X126811076Y-141569895D01*
X126767625Y-141624604D01*
X126764897Y-141626527D01*
X126713778Y-141647500D01*
X126711834Y-141647823D01*
X126691510Y-141649500D01*
X126264374Y-141649500D01*
X126229438Y-141644477D01*
X126204196Y-141637065D01*
X126151451Y-141605769D01*
X125415221Y-140869538D01*
X125415214Y-140869532D01*
X125415208Y-140869527D01*
X125415203Y-140869523D01*
X125356466Y-140835612D01*
X125356461Y-140835609D01*
X125335290Y-140823387D01*
X125335289Y-140823386D01*
X125335288Y-140823386D01*
X125246144Y-140799500D01*
X125246143Y-140799500D01*
X123703856Y-140799500D01*
X123621466Y-140821575D01*
X123621451Y-140821580D01*
X123614712Y-140823386D01*
X123614711Y-140823386D01*
X123614709Y-140823387D01*
X123614706Y-140823388D01*
X123611906Y-140825004D01*
X123611902Y-140825006D01*
X123534804Y-140869519D01*
X123534786Y-140869531D01*
X122420917Y-141983399D01*
X122420914Y-141983403D01*
X122420910Y-141983408D01*
X122394196Y-142029680D01*
X122389611Y-142037622D01*
X122389610Y-142037624D01*
X122374769Y-142063328D01*
X122350883Y-142152473D01*
X122350883Y-143047738D01*
X122339005Y-143100698D01*
X121992192Y-143834939D01*
X121967751Y-143869660D01*
X121950660Y-143886751D01*
X121922404Y-143907903D01*
X121910223Y-143914554D01*
X121841949Y-143929405D01*
X121776486Y-143904987D01*
X121776484Y-143904985D01*
X121771109Y-143900961D01*
X121734335Y-143856792D01*
X121727751Y-143843517D01*
X121674097Y-143735333D01*
X121578757Y-143543097D01*
X121476492Y-143336898D01*
X121475045Y-143333879D01*
X121473641Y-143330845D01*
X121472267Y-143327766D01*
X121469417Y-143321141D01*
X121361576Y-143070446D01*
X121204442Y-142705163D01*
X121203184Y-142702125D01*
X121201919Y-142698950D01*
X121200730Y-142695841D01*
X121195470Y-142681524D01*
X120967017Y-142059680D01*
X120965902Y-142056512D01*
X120964841Y-142053363D01*
X120963812Y-142050167D01*
X120963230Y-142048273D01*
X120764874Y-141402258D01*
X120763933Y-141399038D01*
X120763054Y-141395871D01*
X120762202Y-141392634D01*
X120702821Y-141153856D01*
X120598618Y-140734843D01*
X120597859Y-140731600D01*
X120597137Y-140728318D01*
X120596473Y-140725094D01*
X120538825Y-140424656D01*
X120468753Y-140059475D01*
X120468171Y-140056207D01*
X120467633Y-140052928D01*
X120467132Y-140049591D01*
X120422019Y-139718479D01*
X120375635Y-139378039D01*
X120375226Y-139374693D01*
X120374861Y-139371336D01*
X120374550Y-139368051D01*
X120374230Y-139364126D01*
X120366849Y-139273469D01*
X120319543Y-138692493D01*
X120319321Y-138689215D01*
X120319140Y-138685865D01*
X120319004Y-138682533D01*
X120317335Y-138620943D01*
X120316434Y-138587668D01*
X120300582Y-138002442D01*
X120300549Y-138000766D01*
X120300527Y-137999101D01*
X120300516Y-137997463D01*
X120300516Y-137927969D01*
X120300514Y-137927852D01*
X120300511Y-130433552D01*
X120800000Y-130433552D01*
X120800000Y-131576447D01*
X121371447Y-131005000D01*
X121371447Y-131004999D01*
X121091150Y-130724702D01*
X120800000Y-130433551D01*
X120800000Y-130433552D01*
X120300511Y-130433552D01*
X120300511Y-129924514D01*
X120998067Y-129924514D01*
X121724999Y-130651447D01*
X121724999Y-130651446D01*
X121725000Y-130651447D01*
X122451933Y-129924514D01*
X122410157Y-129882738D01*
X122410153Y-129882735D01*
X122410148Y-129882731D01*
X122273694Y-129802033D01*
X122273689Y-129802031D01*
X122273680Y-129802027D01*
X122121457Y-129757802D01*
X122121453Y-129757801D01*
X122121447Y-129757800D01*
X122121441Y-129757799D01*
X122113536Y-129757177D01*
X122085878Y-129755000D01*
X122085871Y-129755000D01*
X121364128Y-129755000D01*
X121364120Y-129755000D01*
X121332510Y-129757488D01*
X121328558Y-129757799D01*
X121328552Y-129757800D01*
X121328545Y-129757801D01*
X121328541Y-129757802D01*
X121176318Y-129802027D01*
X121176309Y-129802031D01*
X121176304Y-129802033D01*
X121039850Y-129882731D01*
X121039845Y-129882735D01*
X121039837Y-129882742D01*
X120998067Y-129924514D01*
X120300511Y-129924514D01*
X120300500Y-105002534D01*
X120300511Y-105000896D01*
X120300533Y-104999232D01*
X120300567Y-104997513D01*
X120306622Y-104774003D01*
X120318989Y-104317439D01*
X120319125Y-104314136D01*
X120319307Y-104310777D01*
X120319529Y-104307494D01*
X120320398Y-104296824D01*
X120374538Y-103631924D01*
X120374849Y-103628656D01*
X120375222Y-103625227D01*
X120375622Y-103621968D01*
X120413722Y-103342330D01*
X120467127Y-102950359D01*
X120467622Y-102947067D01*
X120468158Y-102943800D01*
X120468744Y-102940509D01*
X120481828Y-102872325D01*
X120596462Y-102274902D01*
X120597120Y-102271701D01*
X120597862Y-102268332D01*
X120598615Y-102265123D01*
X120641592Y-102092311D01*
X120641593Y-102092308D01*
X120762211Y-101607290D01*
X120763031Y-101604176D01*
X120763942Y-101600895D01*
X120764868Y-101597730D01*
X120957507Y-100970341D01*
X120963814Y-100949798D01*
X120964836Y-100946624D01*
X120965894Y-100943484D01*
X120966982Y-100940390D01*
X120999010Y-100853210D01*
X123337778Y-100853210D01*
X123337778Y-100853211D01*
X123454899Y-100970332D01*
X123454909Y-100970341D01*
X123483007Y-100994339D01*
X123483014Y-100994343D01*
X123626926Y-101073460D01*
X123626932Y-101073462D01*
X123785990Y-101114302D01*
X123785998Y-101114303D01*
X123950218Y-101114303D01*
X123950219Y-101114303D01*
X123950226Y-101114302D01*
X124109284Y-101073462D01*
X124109290Y-101073460D01*
X124253202Y-100994343D01*
X124253209Y-100994339D01*
X124281307Y-100970341D01*
X124281317Y-100970332D01*
X124469149Y-100782500D01*
X124469149Y-100782499D01*
X123938819Y-100252170D01*
X123938818Y-100252170D01*
X123337778Y-100853210D01*
X120999010Y-100853210D01*
X121200752Y-100304076D01*
X121201918Y-100301030D01*
X121203176Y-100297875D01*
X121204440Y-100294826D01*
X121222790Y-100252170D01*
X121472263Y-99672225D01*
X121473618Y-99669190D01*
X121475019Y-99666160D01*
X121476458Y-99663155D01*
X121731363Y-99149186D01*
X121751376Y-99120133D01*
X121760802Y-99109935D01*
X121820754Y-99074063D01*
X121890586Y-99076297D01*
X121890593Y-99076300D01*
X121890595Y-99076301D01*
X121896976Y-99078399D01*
X121945927Y-99108514D01*
X122158855Y-99321441D01*
X122369760Y-99532346D01*
X122369763Y-99532349D01*
X122444610Y-99586730D01*
X122446583Y-99588163D01*
X122525801Y-99613902D01*
X122566181Y-99627022D01*
X122566841Y-99627237D01*
X122567223Y-99627362D01*
X122567230Y-99627363D01*
X122567235Y-99627365D01*
X122567236Y-99627365D01*
X122567239Y-99627366D01*
X122567242Y-99627366D01*
X122612161Y-99627366D01*
X122647093Y-99632387D01*
X122660412Y-99636298D01*
X122719190Y-99674072D01*
X122748216Y-99737627D01*
X122748217Y-99737634D01*
X122749476Y-99746393D01*
X122746841Y-99794872D01*
X122723133Y-99887206D01*
X122723133Y-100051447D01*
X122763971Y-100210498D01*
X122763973Y-100210503D01*
X122763975Y-100210509D01*
X122843092Y-100354421D01*
X122843096Y-100354428D01*
X122867094Y-100382526D01*
X122867103Y-100382536D01*
X122984224Y-100499657D01*
X123585265Y-99898617D01*
X124292372Y-99898617D01*
X124822701Y-100428947D01*
X124822702Y-100428947D01*
X125010534Y-100241115D01*
X125010543Y-100241105D01*
X125034541Y-100213007D01*
X125034545Y-100213000D01*
X125113662Y-100069088D01*
X125113664Y-100069082D01*
X125154504Y-99910024D01*
X125154505Y-99910017D01*
X125154505Y-99745796D01*
X125154504Y-99745788D01*
X125113664Y-99586730D01*
X125113662Y-99586724D01*
X125034545Y-99442812D01*
X125034541Y-99442805D01*
X125010543Y-99414707D01*
X125010534Y-99414697D01*
X124893413Y-99297576D01*
X124893412Y-99297576D01*
X124577088Y-99613901D01*
X124292372Y-99898617D01*
X123585265Y-99898617D01*
X123724308Y-99759574D01*
X123762042Y-99721840D01*
X124539859Y-98944022D01*
X124422738Y-98826901D01*
X124422728Y-98826892D01*
X124394630Y-98802894D01*
X124394623Y-98802890D01*
X124250711Y-98723773D01*
X124250707Y-98723771D01*
X124250706Y-98723771D01*
X124250700Y-98723769D01*
X124091649Y-98682931D01*
X124091647Y-98682931D01*
X123927419Y-98682931D01*
X123927414Y-98682931D01*
X123839670Y-98705459D01*
X123804609Y-98709282D01*
X123802058Y-98709195D01*
X123735728Y-98687237D01*
X123691799Y-98632904D01*
X123684219Y-98563447D01*
X123684881Y-98560024D01*
X123759895Y-98199257D01*
X123792815Y-98137628D01*
X123853827Y-98103581D01*
X123881298Y-98100500D01*
X124754943Y-98100500D01*
X124768126Y-98102395D01*
G37*
%TD.AperFunction*%
%TA.AperFunction,Conductor*%
G36*
X146903056Y-92305521D02*
G01*
X146916375Y-92309432D01*
X146975153Y-92347206D01*
X147004179Y-92410761D01*
X147004180Y-92410769D01*
X147005174Y-92417685D01*
X147000366Y-92473643D01*
X146958370Y-92602895D01*
X146924500Y-92816740D01*
X146924500Y-93033252D01*
X146958370Y-93247101D01*
X147025263Y-93452982D01*
X147025271Y-93453005D01*
X147025273Y-93453009D01*
X147123567Y-93645920D01*
X147147458Y-93678802D01*
X147172444Y-93713193D01*
X147188914Y-93744408D01*
X147193265Y-93756603D01*
X147197253Y-93826359D01*
X147162895Y-93887197D01*
X147106286Y-93918635D01*
X147097290Y-93920863D01*
X147067480Y-93924500D01*
X146676092Y-93924500D01*
X146609053Y-93904815D01*
X146563298Y-93852011D01*
X146559362Y-93842334D01*
X146541832Y-93793421D01*
X146426974Y-93472930D01*
X146357769Y-93279825D01*
X146350499Y-93237991D01*
X146350499Y-93043482D01*
X146342195Y-92991050D01*
X146342195Y-92991049D01*
X146335647Y-92949699D01*
X146335644Y-92949691D01*
X146309222Y-92897837D01*
X146278050Y-92836658D01*
X146278046Y-92836654D01*
X146278045Y-92836652D01*
X146188347Y-92746954D01*
X146188344Y-92746952D01*
X146188342Y-92746950D01*
X146188341Y-92746949D01*
X146099496Y-92701680D01*
X146099495Y-92701680D01*
X146075299Y-92689351D01*
X145981530Y-92674500D01*
X145981524Y-92674500D01*
X145018482Y-92674500D01*
X145018478Y-92674500D01*
X144953846Y-92684736D01*
X144953842Y-92684737D01*
X144937519Y-92687323D01*
X144924696Y-92689354D01*
X144811658Y-92746950D01*
X144811657Y-92746951D01*
X144811652Y-92746954D01*
X144808652Y-92749953D01*
X144808649Y-92749955D01*
X144721955Y-92836649D01*
X144721946Y-92836664D01*
X144664353Y-92949695D01*
X144664350Y-92949703D01*
X144649500Y-93043469D01*
X144649500Y-93806520D01*
X144657838Y-93859167D01*
X144657839Y-93859169D01*
X144660292Y-93874657D01*
X144664354Y-93900304D01*
X144721950Y-94013342D01*
X144721952Y-94013344D01*
X144721954Y-94013347D01*
X144726635Y-94018028D01*
X144726636Y-94018030D01*
X144753714Y-94045107D01*
X144774867Y-94073364D01*
X144781518Y-94085545D01*
X144796369Y-94153819D01*
X144771951Y-94219282D01*
X144771944Y-94219292D01*
X144766639Y-94226377D01*
X144730503Y-94258786D01*
X144648452Y-94307312D01*
X144648437Y-94307321D01*
X144532319Y-94423440D01*
X144532313Y-94423447D01*
X144532310Y-94423452D01*
X144448718Y-94564799D01*
X144448717Y-94564802D01*
X144448707Y-94564833D01*
X144402902Y-94722493D01*
X144402901Y-94722497D01*
X144402899Y-94722511D01*
X144400032Y-94758946D01*
X144400000Y-94759350D01*
X144400000Y-94925000D01*
X146600000Y-94925000D01*
X146600000Y-94772054D01*
X146602651Y-94746552D01*
X146606777Y-94726919D01*
X146639828Y-94665361D01*
X146697044Y-94632380D01*
X146708325Y-94629459D01*
X146739407Y-94625500D01*
X147101102Y-94625500D01*
X147136034Y-94630522D01*
X147142362Y-94632380D01*
X147148459Y-94634170D01*
X147207238Y-94671943D01*
X147236264Y-94735498D01*
X147228420Y-94799790D01*
X147224934Y-94808377D01*
X147210359Y-94834620D01*
X147123568Y-94954076D01*
X147123568Y-94954077D01*
X147025270Y-95146996D01*
X147025270Y-95146997D01*
X147025263Y-95147016D01*
X146958370Y-95352897D01*
X146924500Y-95566746D01*
X146924500Y-95783252D01*
X146958370Y-95997101D01*
X147025263Y-96202982D01*
X147025271Y-96203005D01*
X147025273Y-96203009D01*
X147074183Y-96298998D01*
X147074183Y-96299000D01*
X147074184Y-96299000D01*
X147123567Y-96395919D01*
X147250828Y-96571078D01*
X147403922Y-96724172D01*
X147579081Y-96851433D01*
X147659473Y-96892395D01*
X147771990Y-96949726D01*
X147771993Y-96949727D01*
X147874947Y-96983178D01*
X147977903Y-97016630D01*
X148191746Y-97050500D01*
X148191747Y-97050500D01*
X148408253Y-97050500D01*
X148408254Y-97050500D01*
X148622097Y-97016630D01*
X148828009Y-96949726D01*
X149020919Y-96851433D01*
X149088195Y-96802552D01*
X149119400Y-96786087D01*
X149131598Y-96781734D01*
X149201352Y-96777743D01*
X149262192Y-96812098D01*
X149293633Y-96868706D01*
X149295862Y-96877704D01*
X149299500Y-96907520D01*
X149299500Y-97696146D01*
X149316913Y-97761135D01*
X149323379Y-97785267D01*
X149323383Y-97785278D01*
X149323385Y-97785285D01*
X149323387Y-97785290D01*
X149369527Y-97865208D01*
X149369532Y-97865214D01*
X149369538Y-97865221D01*
X150125573Y-98621255D01*
X150146723Y-98649507D01*
X150159331Y-98672596D01*
X150174500Y-98732025D01*
X150174500Y-98911626D01*
X150169476Y-98946564D01*
X150166289Y-98957417D01*
X150128514Y-99016194D01*
X150064957Y-99045217D01*
X149995807Y-99035276D01*
X149988829Y-99032089D01*
X149952657Y-99006975D01*
X148365221Y-97419538D01*
X148365214Y-97419532D01*
X148365208Y-97419527D01*
X148365207Y-97419526D01*
X148316300Y-97391290D01*
X148285290Y-97373387D01*
X148285283Y-97373384D01*
X148285279Y-97373383D01*
X148285277Y-97373382D01*
X148211881Y-97353712D01*
X148211836Y-97353704D01*
X148196145Y-97349500D01*
X148196144Y-97349500D01*
X148196143Y-97349500D01*
X133221092Y-97349500D01*
X133186157Y-97344477D01*
X133175303Y-97341290D01*
X133116525Y-97303516D01*
X133087500Y-97239960D01*
X133097443Y-97170803D01*
X133100633Y-97163820D01*
X133125742Y-97127658D01*
X133233315Y-97020085D01*
X133233319Y-97020080D01*
X133416900Y-96780832D01*
X133567683Y-96519668D01*
X133683087Y-96241058D01*
X133761138Y-95949768D01*
X133800500Y-95650783D01*
X133800500Y-95590654D01*
X144400000Y-95590654D01*
X144402899Y-95627487D01*
X144402901Y-95627501D01*
X144402902Y-95627505D01*
X144448707Y-95785165D01*
X144448717Y-95785196D01*
X144448718Y-95785199D01*
X144532310Y-95926546D01*
X144532313Y-95926551D01*
X144532322Y-95926562D01*
X144648436Y-96042676D01*
X144648447Y-96042685D01*
X144648452Y-96042688D01*
X144789799Y-96126280D01*
X144789800Y-96126280D01*
X144789803Y-96126282D01*
X144789806Y-96126283D01*
X144789828Y-96126289D01*
X144789833Y-96126291D01*
X144947493Y-96172096D01*
X144947497Y-96172097D01*
X144947504Y-96172099D01*
X144947510Y-96172100D01*
X144984350Y-96174999D01*
X144984366Y-96175000D01*
X145250000Y-96175000D01*
X145750000Y-96175000D01*
X146015629Y-96175000D01*
X146015634Y-96175000D01*
X146015649Y-96174999D01*
X146052489Y-96172100D01*
X146052495Y-96172099D01*
X146210193Y-96126283D01*
X146210196Y-96126282D01*
X146351552Y-96042685D01*
X146351561Y-96042678D01*
X146467678Y-95926561D01*
X146467685Y-95926552D01*
X146551282Y-95785196D01*
X146551283Y-95785193D01*
X146597099Y-95627495D01*
X146597100Y-95627489D01*
X146599999Y-95590649D01*
X146600000Y-95590634D01*
X146600000Y-95425000D01*
X145750000Y-95425000D01*
X145750000Y-96175000D01*
X145250000Y-96175000D01*
X145250000Y-95425000D01*
X144400000Y-95425000D01*
X144400000Y-95590654D01*
X133800500Y-95590654D01*
X133800500Y-95349217D01*
X133761138Y-95050232D01*
X133683087Y-94758942D01*
X133683085Y-94758936D01*
X133682245Y-94756909D01*
X133682240Y-94756898D01*
X133627949Y-94625828D01*
X133627949Y-94625827D01*
X133567689Y-94480346D01*
X133567684Y-94480335D01*
X133567683Y-94480332D01*
X133548197Y-94446582D01*
X133416900Y-94219168D01*
X133305021Y-94073364D01*
X133233326Y-93979928D01*
X133233322Y-93979924D01*
X133233320Y-93979921D01*
X133233314Y-93979914D01*
X133020085Y-93766685D01*
X133020078Y-93766679D01*
X133020075Y-93766676D01*
X133020070Y-93766672D01*
X132780835Y-93583102D01*
X132780834Y-93583101D01*
X132780831Y-93583099D01*
X132545432Y-93447191D01*
X132519668Y-93432316D01*
X132519618Y-93432292D01*
X132518980Y-93432032D01*
X132241058Y-93316912D01*
X132095413Y-93277887D01*
X131949766Y-93238861D01*
X131949760Y-93238860D01*
X131949755Y-93238859D01*
X131654883Y-93200039D01*
X131652867Y-93199705D01*
X131650793Y-93199500D01*
X131650788Y-93199500D01*
X131650783Y-93199500D01*
X131349217Y-93199500D01*
X131349211Y-93199500D01*
X131349206Y-93199500D01*
X131347129Y-93199705D01*
X131345115Y-93200039D01*
X131050243Y-93238859D01*
X131050236Y-93238860D01*
X131050233Y-93238861D01*
X131019496Y-93247097D01*
X130758940Y-93316912D01*
X130481018Y-93432032D01*
X130480388Y-93432288D01*
X130480330Y-93432316D01*
X130219163Y-93583102D01*
X129979928Y-93766672D01*
X129979913Y-93766686D01*
X129979905Y-93766693D01*
X129766693Y-93979905D01*
X129766686Y-93979913D01*
X129766672Y-93979928D01*
X129583102Y-94219163D01*
X129583099Y-94219167D01*
X129583099Y-94219168D01*
X129578937Y-94226377D01*
X129432316Y-94480330D01*
X129432288Y-94480388D01*
X129432032Y-94481018D01*
X129316912Y-94758940D01*
X129264626Y-94954076D01*
X129238862Y-95050232D01*
X129238859Y-95050243D01*
X129199501Y-95349199D01*
X129199500Y-95349228D01*
X129199500Y-95369272D01*
X129194476Y-95404210D01*
X129191289Y-95415063D01*
X129153514Y-95473840D01*
X129089957Y-95502863D01*
X129020815Y-95492925D01*
X129018334Y-95491792D01*
X129016269Y-95490849D01*
X128973475Y-95458577D01*
X128970346Y-95454914D01*
X128970332Y-95454899D01*
X128853211Y-95337778D01*
X128853210Y-95337778D01*
X128540213Y-95650776D01*
X128252170Y-95938819D01*
X128782499Y-96469149D01*
X128782500Y-96469149D01*
X128970332Y-96281317D01*
X128970341Y-96281307D01*
X128994339Y-96253209D01*
X128994346Y-96253199D01*
X129056211Y-96140666D01*
X129077438Y-96112478D01*
X129085463Y-96104499D01*
X129146881Y-96071191D01*
X129216558Y-96076376D01*
X129272370Y-96118407D01*
X129276462Y-96123906D01*
X129296755Y-96165827D01*
X129298433Y-96172087D01*
X129298434Y-96172099D01*
X129298436Y-96172099D01*
X129298436Y-96172100D01*
X129316913Y-96241060D01*
X129316915Y-96241064D01*
X129316917Y-96241071D01*
X129432032Y-96518980D01*
X129432292Y-96519618D01*
X129432316Y-96519668D01*
X129432318Y-96519671D01*
X129583099Y-96780831D01*
X129583100Y-96780832D01*
X129583102Y-96780835D01*
X129766672Y-97020070D01*
X129766676Y-97020075D01*
X129766679Y-97020078D01*
X129766685Y-97020085D01*
X129766693Y-97020093D01*
X129871811Y-97125211D01*
X129892960Y-97153461D01*
X129898381Y-97163388D01*
X129913235Y-97231661D01*
X129888821Y-97297126D01*
X129832889Y-97338999D01*
X129832885Y-97339001D01*
X129825697Y-97341682D01*
X129782363Y-97349500D01*
X128140880Y-97349500D01*
X128105944Y-97344477D01*
X128095128Y-97341301D01*
X128036350Y-97303526D01*
X128007326Y-97239970D01*
X128017270Y-97170811D01*
X128052111Y-97125891D01*
X128052924Y-97125234D01*
X128054746Y-97123761D01*
X128072950Y-97111539D01*
X128212996Y-97034548D01*
X128213007Y-97034541D01*
X128241105Y-97010543D01*
X128241115Y-97010534D01*
X128428947Y-96822702D01*
X128428947Y-96822701D01*
X127822127Y-96215882D01*
X127800976Y-96187627D01*
X127793484Y-96173906D01*
X127778632Y-96105644D01*
X127778762Y-96103832D01*
X127798128Y-96045641D01*
X127800032Y-96042678D01*
X127802313Y-96039127D01*
X127818940Y-96018493D01*
X127898616Y-95938818D01*
X127822127Y-95862329D01*
X127800975Y-95834073D01*
X127793483Y-95820352D01*
X127778631Y-95752092D01*
X127778760Y-95750283D01*
X127798126Y-95692088D01*
X127802319Y-95685564D01*
X127818940Y-95664939D01*
X128499656Y-94984224D01*
X128382525Y-94867093D01*
X128382522Y-94867090D01*
X128382509Y-94867078D01*
X128354430Y-94843098D01*
X128354428Y-94843096D01*
X128354421Y-94843092D01*
X128210509Y-94763975D01*
X128210505Y-94763973D01*
X128210504Y-94763973D01*
X128210498Y-94763971D01*
X128051447Y-94723133D01*
X128051445Y-94723133D01*
X127887217Y-94723133D01*
X127887212Y-94723133D01*
X127799468Y-94745661D01*
X127764389Y-94749483D01*
X127750519Y-94749008D01*
X127684192Y-94727041D01*
X127640273Y-94672704D01*
X127636867Y-94664512D01*
X127627366Y-94616910D01*
X127627366Y-94567244D01*
X127627366Y-94567241D01*
X127627365Y-94567235D01*
X127615313Y-94530143D01*
X127588163Y-94446583D01*
X127532350Y-94369763D01*
X127113240Y-93950654D01*
X127092091Y-93922401D01*
X127085438Y-93910218D01*
X127070588Y-93841947D01*
X127095006Y-93776483D01*
X127095008Y-93776481D01*
X127099032Y-93771106D01*
X127143199Y-93734333D01*
X127663155Y-93476458D01*
X127666160Y-93475019D01*
X127669190Y-93473618D01*
X127672231Y-93472261D01*
X127716986Y-93453009D01*
X128294855Y-93204427D01*
X128297875Y-93203176D01*
X128301030Y-93201918D01*
X128304076Y-93200752D01*
X128940390Y-92966982D01*
X128943484Y-92965894D01*
X128946649Y-92964827D01*
X128949805Y-92963812D01*
X128984015Y-92953308D01*
X129597743Y-92764864D01*
X129600895Y-92763942D01*
X129604176Y-92763031D01*
X129607290Y-92762211D01*
X130265161Y-92598605D01*
X130268379Y-92597852D01*
X130271683Y-92597124D01*
X130274861Y-92596469D01*
X130940543Y-92468737D01*
X130943778Y-92468161D01*
X130947097Y-92467617D01*
X130950359Y-92467127D01*
X131622008Y-92375616D01*
X131625274Y-92375217D01*
X131628633Y-92374851D01*
X131631914Y-92374539D01*
X132307485Y-92319529D01*
X132310730Y-92319309D01*
X132314164Y-92319122D01*
X132317432Y-92318989D01*
X132997558Y-92300566D01*
X132999235Y-92300533D01*
X133000900Y-92300511D01*
X133002538Y-92300500D01*
X146868124Y-92300500D01*
X146903056Y-92305521D01*
G37*
%TD.AperFunction*%
%TD*%
%TA.AperFunction,Conductor*%
%TO.N,/L_R_L1_TRIG*%
G36*
X122801770Y-143146871D02*
G01*
X122804342Y-143150754D01*
X123197035Y-144120972D01*
X123196963Y-144129927D01*
X123190686Y-144136164D01*
X122707314Y-144337350D01*
X122698359Y-144337365D01*
X122696119Y-144336139D01*
X122388322Y-144120972D01*
X122209476Y-143995948D01*
X122204658Y-143988400D01*
X122205599Y-143981363D01*
X122598217Y-143150147D01*
X122604849Y-143144130D01*
X122608796Y-143143444D01*
X122793497Y-143143444D01*
X122801770Y-143146871D01*
G37*
%TD.AperFunction*%
%TD*%
%TA.AperFunction,Conductor*%
%TO.N,/L_R_L1_TRIG*%
G36*
X151665546Y-114037515D02*
G01*
X151945861Y-114073668D01*
X151953626Y-114078124D01*
X151953648Y-114078152D01*
X152126391Y-114304822D01*
X152128680Y-114313478D01*
X152125307Y-114320237D01*
X151794418Y-114647103D01*
X151786124Y-114650479D01*
X151777923Y-114647052D01*
X151648231Y-114517360D01*
X151644804Y-114509087D01*
X151644806Y-114508895D01*
X151652352Y-114048928D01*
X151655914Y-114040712D01*
X151664242Y-114037422D01*
X151665546Y-114037515D01*
G37*
%TD.AperFunction*%
%TD*%
%TA.AperFunction,Conductor*%
%TO.N,GND*%
G36*
X122501000Y-132700000D02*
G01*
X122210565Y-133000000D01*
X121900000Y-132800000D01*
X121900000Y-132600000D01*
X122210565Y-132400000D01*
X122501000Y-132700000D01*
G37*
%TD.AperFunction*%
%TD*%
%TA.AperFunction,Conductor*%
%TO.N,GND*%
G36*
X122497433Y-134539158D02*
G01*
X122200000Y-134501000D01*
X122017372Y-134261994D01*
X122400000Y-134026831D01*
X122600000Y-134026831D01*
X122497433Y-134539158D01*
G37*
%TD.AperFunction*%
%TD*%
%TA.AperFunction,Conductor*%
%TO.N,GND*%
G36*
X122793149Y-132405558D02*
G01*
X122500000Y-132701000D01*
X122206851Y-132405558D01*
X122400000Y-132050000D01*
X122600000Y-132050000D01*
X122793149Y-132405558D01*
G37*
%TD.AperFunction*%
%TD*%
%TA.AperFunction,Conductor*%
%TO.N,GND*%
G36*
X122793149Y-132994442D02*
G01*
X122600000Y-133350000D01*
X122400000Y-133350000D01*
X122206851Y-132994442D01*
X122500000Y-132699000D01*
X122793149Y-132994442D01*
G37*
%TD.AperFunction*%
%TD*%
%TA.AperFunction,Conductor*%
%TO.N,3V3*%
G36*
X124254429Y-128974060D02*
G01*
X124281787Y-128980323D01*
X124289087Y-128985510D01*
X124290616Y-128994181D01*
X124171911Y-129547800D01*
X124166826Y-129555171D01*
X124160993Y-129557035D01*
X124112124Y-129559217D01*
X124103706Y-129556163D01*
X124103329Y-129555802D01*
X123970887Y-129423360D01*
X123967460Y-129415087D01*
X123968209Y-129410969D01*
X124138729Y-128957961D01*
X124144851Y-128951427D01*
X124152289Y-128950679D01*
X124254429Y-128974060D01*
G37*
%TD.AperFunction*%
%TD*%
%TA.AperFunction,Conductor*%
%TO.N,3V3*%
G36*
X123795192Y-132611231D02*
G01*
X123802437Y-132614718D01*
X123803142Y-132615443D01*
X123804102Y-132617856D01*
X123804517Y-132617649D01*
X124115519Y-133240541D01*
X124116722Y-133244945D01*
X124116847Y-133246720D01*
X124114010Y-133255214D01*
X124114003Y-133255222D01*
X124113782Y-133255476D01*
X124107672Y-133259176D01*
X124107555Y-133259203D01*
X124107447Y-133259229D01*
X124104733Y-133259549D01*
X123631296Y-133259549D01*
X123627308Y-133258848D01*
X123623673Y-133257530D01*
X123620165Y-133255514D01*
X123381940Y-133056732D01*
X123379074Y-133053182D01*
X123377706Y-133050573D01*
X123376474Y-133043570D01*
X123376486Y-133043479D01*
X123377066Y-133041106D01*
X123497228Y-132706710D01*
X123499577Y-132702806D01*
X123502029Y-132700109D01*
X123507280Y-132696788D01*
X123788318Y-132611450D01*
X123792856Y-132611002D01*
X123795192Y-132611231D01*
G37*
%TD.AperFunction*%
%TD*%
%TA.AperFunction,Conductor*%
%TO.N,3V3*%
G36*
X123797255Y-132578991D02*
G01*
X123804150Y-132581264D01*
X123804384Y-132581436D01*
X123805667Y-132583556D01*
X123806159Y-132583141D01*
X123902277Y-132696933D01*
X123902281Y-132696937D01*
X124173837Y-133018723D01*
X124176044Y-133022721D01*
X124176671Y-133024691D01*
X124176132Y-133033169D01*
X124175540Y-133034443D01*
X124173203Y-133037786D01*
X123837879Y-133373110D01*
X123834083Y-133375647D01*
X123832137Y-133376453D01*
X123823709Y-133376656D01*
X123822435Y-133376198D01*
X123818946Y-133374214D01*
X123432992Y-133055983D01*
X123430104Y-133052447D01*
X123428593Y-133049604D01*
X123427473Y-133041713D01*
X123497544Y-132707627D01*
X123499331Y-132703436D01*
X123501312Y-132700538D01*
X123506517Y-132696323D01*
X123789961Y-132579860D01*
X123794436Y-132578983D01*
X123797255Y-132578991D01*
G37*
%TD.AperFunction*%
%TD*%
%TA.AperFunction,Conductor*%
%TO.N,3V3*%
G36*
X124557227Y-134380461D02*
G01*
X124561198Y-134388487D01*
X124558330Y-134396970D01*
X124550304Y-134400941D01*
X124390961Y-134411591D01*
X124382478Y-134408723D01*
X124378507Y-134400697D01*
X124381375Y-134392214D01*
X124383027Y-134390659D01*
X124396842Y-134380002D01*
X124405486Y-134377663D01*
X124413252Y-134382121D01*
X124414455Y-134386568D01*
X124548744Y-134377593D01*
X124557227Y-134380461D01*
G37*
%TD.AperFunction*%
%TD*%
%TA.AperFunction,Conductor*%
%TO.N,3V3*%
G36*
X124777342Y-133636767D02*
G01*
X124780444Y-133642301D01*
X124944397Y-134323233D01*
X124943002Y-134332079D01*
X124935761Y-134337347D01*
X124934580Y-134337568D01*
X124652261Y-134375498D01*
X124649152Y-134375499D01*
X124364850Y-134337484D01*
X124357104Y-134332991D01*
X124354804Y-134324336D01*
X124354912Y-134323673D01*
X124421327Y-133979079D01*
X124424541Y-133973022D01*
X124760797Y-133636766D01*
X124769069Y-133633340D01*
X124777342Y-133636767D01*
G37*
%TD.AperFunction*%
%TD*%
%TA.AperFunction,Conductor*%
%TO.N,3V3*%
G36*
X124911493Y-134409305D02*
G01*
X124936397Y-134412668D01*
X124944138Y-134417171D01*
X124946490Y-134425253D01*
X124900910Y-134961723D01*
X124896795Y-134969677D01*
X124889252Y-134972433D01*
X124410748Y-134972433D01*
X124402475Y-134969006D01*
X124399090Y-134961724D01*
X124399090Y-134961723D01*
X124353509Y-134425252D01*
X124356223Y-134416720D01*
X124363601Y-134412668D01*
X124648437Y-134374211D01*
X124651563Y-134374211D01*
X124911493Y-134409305D01*
G37*
%TD.AperFunction*%
%TD*%
%TA.AperFunction,Conductor*%
%TO.N,3V3*%
G36*
X124897525Y-134455994D02*
G01*
X124900910Y-134463277D01*
X124946490Y-134999746D01*
X124943776Y-135008279D01*
X124936397Y-135012331D01*
X124651565Y-135050788D01*
X124648435Y-135050788D01*
X124363602Y-135012331D01*
X124355861Y-135007828D01*
X124353509Y-134999747D01*
X124399090Y-134463275D01*
X124403205Y-134455323D01*
X124410748Y-134452567D01*
X124889252Y-134452567D01*
X124897525Y-134455994D01*
G37*
%TD.AperFunction*%
%TD*%
%TA.AperFunction,Conductor*%
%TO.N,3V3*%
G36*
X124122525Y-134455994D02*
G01*
X124125910Y-134463277D01*
X124171490Y-134999746D01*
X124168776Y-135008279D01*
X124161397Y-135012331D01*
X123876565Y-135050788D01*
X123873435Y-135050788D01*
X123588602Y-135012331D01*
X123580861Y-135007828D01*
X123578509Y-134999747D01*
X123624090Y-134463275D01*
X123628205Y-134455323D01*
X123635748Y-134452567D01*
X124114252Y-134452567D01*
X124122525Y-134455994D01*
G37*
%TD.AperFunction*%
%TD*%
%TA.AperFunction,Conductor*%
%TO.N,3V3*%
G36*
X123638199Y-134376406D02*
G01*
X123641090Y-134384881D01*
X123640596Y-134385885D01*
X123816657Y-134372467D01*
X123825167Y-134375255D01*
X123829212Y-134383244D01*
X123826424Y-134391754D01*
X123818435Y-134395799D01*
X123612455Y-134411498D01*
X123603945Y-134408710D01*
X123599900Y-134400721D01*
X123602688Y-134392211D01*
X123603835Y-134391051D01*
X123612710Y-134383244D01*
X123621687Y-134375348D01*
X123630162Y-134372457D01*
X123638199Y-134376406D01*
G37*
%TD.AperFunction*%
%TD*%
%TA.AperFunction,Conductor*%
%TO.N,3V3*%
G36*
X124136493Y-134409305D02*
G01*
X124161397Y-134412668D01*
X124169138Y-134417171D01*
X124171490Y-134425253D01*
X124125910Y-134961723D01*
X124121795Y-134969677D01*
X124114252Y-134972433D01*
X123635748Y-134972433D01*
X123627475Y-134969006D01*
X123624090Y-134961724D01*
X123624090Y-134961723D01*
X123578509Y-134425252D01*
X123581223Y-134416720D01*
X123588601Y-134412668D01*
X123873437Y-134374211D01*
X123876563Y-134374211D01*
X124136493Y-134409305D01*
G37*
%TD.AperFunction*%
%TD*%
%TA.AperFunction,Conductor*%
%TO.N,3V3*%
G36*
X124116396Y-133778455D02*
G01*
X124118313Y-133779249D01*
X124124445Y-133785126D01*
X124125038Y-133786400D01*
X124125151Y-133789086D01*
X124125493Y-133789057D01*
X124171291Y-134322415D01*
X124170785Y-134326957D01*
X124170195Y-134328815D01*
X124164673Y-134335531D01*
X124163301Y-134336284D01*
X124159238Y-134337622D01*
X123951238Y-134365705D01*
X123877341Y-134375683D01*
X123875778Y-134375788D01*
X123874222Y-134375788D01*
X123872657Y-134375683D01*
X123590907Y-134337642D01*
X123586587Y-134336159D01*
X123584903Y-134335179D01*
X123579555Y-134328340D01*
X123579118Y-134326840D01*
X123578693Y-134322576D01*
X123623893Y-133790593D01*
X123625157Y-133786212D01*
X123626110Y-133784371D01*
X123632488Y-133778757D01*
X123633812Y-133778274D01*
X123637817Y-133777567D01*
X124111925Y-133777567D01*
X124116396Y-133778455D01*
G37*
%TD.AperFunction*%
%TD*%
%TA.AperFunction,Conductor*%
%TO.N,3V3*%
G36*
X123477425Y-131015704D02*
G01*
X123483820Y-131018979D01*
X123483986Y-131019145D01*
X123484940Y-131021448D01*
X123485500Y-131021102D01*
X123683800Y-131342013D01*
X123683801Y-131342014D01*
X123886212Y-131669683D01*
X123887807Y-131673961D01*
X123888426Y-131677781D01*
X123887994Y-131683300D01*
X123728367Y-132169737D01*
X123726123Y-132173715D01*
X123724276Y-132175864D01*
X123718157Y-132179609D01*
X123717901Y-132179671D01*
X123715147Y-132180000D01*
X123235802Y-132180000D01*
X123231322Y-132179108D01*
X123228702Y-132178022D01*
X123223218Y-132173346D01*
X123223082Y-132173125D01*
X123221929Y-132170641D01*
X123221632Y-132169737D01*
X123062125Y-131683667D01*
X123061577Y-131679139D01*
X123061870Y-131675277D01*
X123063580Y-131670017D01*
X123463824Y-131022089D01*
X123466931Y-131018752D01*
X123468379Y-131017708D01*
X123477089Y-131015650D01*
X123477425Y-131015704D01*
G37*
%TD.AperFunction*%
%TD*%
%TA.AperFunction,Conductor*%
%TO.N,3V3*%
G36*
X123717386Y-132050888D02*
G01*
X123719596Y-132051804D01*
X123725482Y-132057180D01*
X123725923Y-132058021D01*
X123726155Y-132060590D01*
X123726628Y-132060504D01*
X123787123Y-132390604D01*
X123787052Y-132395178D01*
X123786293Y-132398700D01*
X123783318Y-132404315D01*
X123509321Y-132691237D01*
X123505583Y-132693861D01*
X123503809Y-132694644D01*
X123495117Y-132694947D01*
X123494065Y-132694568D01*
X123493631Y-132694411D01*
X123489922Y-132692232D01*
X123488778Y-132691237D01*
X123380618Y-132597137D01*
X123206124Y-132445327D01*
X123203331Y-132441717D01*
X123201687Y-132438417D01*
X123200483Y-132432454D01*
X123224149Y-132063274D01*
X123225324Y-132058863D01*
X123226206Y-132057068D01*
X123232581Y-132051280D01*
X123233982Y-132050752D01*
X123238108Y-132050000D01*
X123712914Y-132050000D01*
X123717386Y-132050888D01*
G37*
%TD.AperFunction*%
%TD*%
%TA.AperFunction,Conductor*%
%TO.N,/L_R_THUMBST_X*%
G36*
X133508630Y-129527060D02*
G01*
X133514511Y-129533166D01*
X133624115Y-129795489D01*
X133624142Y-129804444D01*
X133624115Y-129804511D01*
X133514511Y-130066833D01*
X133508159Y-130073145D01*
X133499683Y-130073305D01*
X133035235Y-129902814D01*
X133028650Y-129896746D01*
X133027567Y-129891831D01*
X133027567Y-129708168D01*
X133030994Y-129699895D01*
X133035234Y-129697185D01*
X133499684Y-129526694D01*
X133508630Y-129527060D01*
G37*
%TD.AperFunction*%
%TD*%
%TA.AperFunction,Conductor*%
%TO.N,/L_R_THUMBST_X*%
G36*
X126302173Y-129031277D02*
G01*
X126303761Y-129035112D01*
X126438307Y-129653085D01*
X126438193Y-129658539D01*
X126394617Y-129824870D01*
X126389205Y-129832005D01*
X126383299Y-129833605D01*
X126201359Y-129833605D01*
X126193086Y-129830178D01*
X126190041Y-129824870D01*
X126174566Y-129765805D01*
X126146463Y-129658535D01*
X126146350Y-129653088D01*
X126280897Y-129035111D01*
X126286005Y-129027757D01*
X126294818Y-129026169D01*
X126302173Y-129031277D01*
G37*
%TD.AperFunction*%
%TD*%
%TA.AperFunction,Conductor*%
%TO.N,GND*%
G36*
X125802173Y-129031277D02*
G01*
X125803761Y-129035112D01*
X125938307Y-129653085D01*
X125938193Y-129658539D01*
X125894617Y-129824870D01*
X125889205Y-129832005D01*
X125883299Y-129833605D01*
X125701359Y-129833605D01*
X125693086Y-129830178D01*
X125690041Y-129824870D01*
X125674566Y-129765805D01*
X125646463Y-129658535D01*
X125646350Y-129653088D01*
X125780897Y-129035111D01*
X125786005Y-129027757D01*
X125794818Y-129026169D01*
X125802173Y-129031277D01*
G37*
%TD.AperFunction*%
%TD*%
%TA.AperFunction,Conductor*%
%TO.N,/L_R_THUMBST_SW*%
G36*
X132108191Y-124914446D02*
G01*
X132268218Y-124980156D01*
X132371184Y-125022436D01*
X132377536Y-125028748D01*
X132377563Y-125028815D01*
X132485552Y-125291807D01*
X132485525Y-125300762D01*
X132479644Y-125306868D01*
X132030674Y-125514727D01*
X132021727Y-125515093D01*
X132017486Y-125512383D01*
X131887616Y-125382513D01*
X131884189Y-125374240D01*
X131885271Y-125369329D01*
X132093133Y-124920353D01*
X132099716Y-124914287D01*
X132108191Y-124914446D01*
G37*
%TD.AperFunction*%
%TD*%
%TA.AperFunction,Conductor*%
%TO.N,/L_R_THUMBST_SW*%
G36*
X125385448Y-128134495D02*
G01*
X125387162Y-128135205D01*
X125387886Y-128135505D01*
X125393544Y-128140472D01*
X125393831Y-128140970D01*
X125394160Y-128143486D01*
X125394722Y-128143339D01*
X125437839Y-128307323D01*
X125438221Y-128310050D01*
X125438278Y-128312737D01*
X125438013Y-128315474D01*
X125304256Y-128929822D01*
X125302433Y-128934008D01*
X125301714Y-128935043D01*
X125294179Y-128939883D01*
X125285454Y-128937994D01*
X125285399Y-128937956D01*
X125280619Y-128930820D01*
X125253150Y-128804657D01*
X125146642Y-128315464D01*
X125146378Y-128312741D01*
X125146434Y-128310054D01*
X125146813Y-128307337D01*
X125146817Y-128307323D01*
X125189452Y-128144587D01*
X125191446Y-128140486D01*
X125193044Y-128138381D01*
X125199313Y-128134159D01*
X125199868Y-128134008D01*
X125202916Y-128133605D01*
X125380972Y-128133605D01*
X125385448Y-128134495D01*
G37*
%TD.AperFunction*%
%TD*%
%TA.AperFunction,Conductor*%
%TO.N,/L_R_THUMBST_Y*%
G36*
X130791671Y-124689146D02*
G01*
X130799438Y-124692801D01*
X130800453Y-124693879D01*
X130801414Y-124696413D01*
X130801707Y-124696291D01*
X130910709Y-124955822D01*
X130911622Y-124960320D01*
X130911634Y-124964583D01*
X130910730Y-124969127D01*
X130803006Y-125226949D01*
X130800461Y-125230733D01*
X130799148Y-125232039D01*
X130790980Y-125235444D01*
X130789289Y-125235456D01*
X130784927Y-125234645D01*
X130438810Y-125098628D01*
X130324652Y-125053766D01*
X130320815Y-125051303D01*
X130318644Y-125049210D01*
X130315069Y-125041002D01*
X130315067Y-125040790D01*
X130315067Y-124860697D01*
X130315957Y-124856221D01*
X130317057Y-124853565D01*
X130321660Y-124848125D01*
X130321712Y-124848092D01*
X130321833Y-124848016D01*
X130324253Y-124846865D01*
X130785139Y-124689619D01*
X130789660Y-124689017D01*
X130791671Y-124689146D01*
G37*
%TD.AperFunction*%
%TD*%
%TA.AperFunction,Conductor*%
%TO.N,/L_R_THUMBST_Y*%
G36*
X124885448Y-128134495D02*
G01*
X124887162Y-128135205D01*
X124887886Y-128135505D01*
X124893544Y-128140472D01*
X124893831Y-128140970D01*
X124894160Y-128143486D01*
X124894722Y-128143339D01*
X124937839Y-128307323D01*
X124938221Y-128310050D01*
X124938278Y-128312737D01*
X124938013Y-128315474D01*
X124804256Y-128929822D01*
X124802433Y-128934008D01*
X124801714Y-128935043D01*
X124794179Y-128939883D01*
X124785454Y-128937994D01*
X124785399Y-128937956D01*
X124780619Y-128930820D01*
X124753150Y-128804657D01*
X124646642Y-128315464D01*
X124646378Y-128312741D01*
X124646434Y-128310054D01*
X124646813Y-128307337D01*
X124646817Y-128307323D01*
X124689452Y-128144587D01*
X124691446Y-128140486D01*
X124693044Y-128138381D01*
X124699313Y-128134159D01*
X124699868Y-128134008D01*
X124702916Y-128133605D01*
X124880972Y-128133605D01*
X124885448Y-128134495D01*
G37*
%TD.AperFunction*%
%TD*%
%TA.AperFunction,Conductor*%
%TO.N,GND*%
G36*
X139802164Y-145164805D02*
G01*
X139600000Y-145647433D01*
X139400000Y-145647433D01*
X139247836Y-145164805D01*
X139525000Y-145049000D01*
X139802164Y-145164805D01*
G37*
%TD.AperFunction*%
%TD*%
%TA.AperFunction,Conductor*%
%TO.N,GND*%
G36*
X142597433Y-119400000D02*
G01*
X142597433Y-119600000D01*
X142114805Y-119777164D01*
X141999000Y-119500000D01*
X142114805Y-119222836D01*
X142597433Y-119400000D01*
G37*
%TD.AperFunction*%
%TD*%
%TA.AperFunction,Conductor*%
%TO.N,GND*%
G36*
X133201000Y-139800000D02*
G01*
X133085195Y-140077164D01*
X132602567Y-139900000D01*
X132602567Y-139700000D01*
X133085195Y-139522836D01*
X133201000Y-139800000D01*
G37*
%TD.AperFunction*%
%TD*%
%TA.AperFunction,Conductor*%
%TO.N,GND*%
G36*
X133201000Y-133200000D02*
G01*
X133085195Y-133477164D01*
X132602567Y-133300000D01*
X132602567Y-133100000D01*
X133085195Y-132922836D01*
X133201000Y-133200000D01*
G37*
%TD.AperFunction*%
%TD*%
%TA.AperFunction,Conductor*%
%TO.N,GND*%
G36*
X141201000Y-131800000D02*
G01*
X141085195Y-132077164D01*
X140602567Y-131900000D01*
X140602567Y-131700000D01*
X141085195Y-131522836D01*
X141201000Y-131800000D01*
G37*
%TD.AperFunction*%
%TD*%
%TA.AperFunction,Conductor*%
%TO.N,GND*%
G36*
X125114805Y-100622836D02*
G01*
X125000707Y-100900707D01*
X124722836Y-101014805D01*
X124506841Y-100548262D01*
X124648262Y-100406841D01*
X125114805Y-100622836D01*
G37*
%TD.AperFunction*%
%TD*%
%TA.AperFunction,Conductor*%
%TO.N,GND*%
G36*
X151400707Y-97200707D02*
G01*
X151217372Y-97438006D01*
X150789684Y-97131105D01*
X150931105Y-96989684D01*
X151360842Y-96902567D01*
X151400707Y-97200707D01*
G37*
%TD.AperFunction*%
%TD*%
%TA.AperFunction,Conductor*%
%TO.N,GND*%
G36*
X151600000Y-95665054D02*
G01*
X151200000Y-96175000D01*
X151000000Y-96175000D01*
X150600000Y-95665054D01*
X151100000Y-95174000D01*
X151600000Y-95665054D01*
G37*
%TD.AperFunction*%
%TD*%
%TA.AperFunction,Conductor*%
%TO.N,GND*%
G36*
X151077164Y-117914805D02*
G01*
X150900000Y-118397433D01*
X150700000Y-118397433D01*
X150522836Y-117914805D01*
X150800000Y-117799000D01*
X151077164Y-117914805D01*
G37*
%TD.AperFunction*%
%TD*%
%TA.AperFunction,Conductor*%
%TO.N,GND*%
G36*
X128900707Y-146099293D02*
G01*
X129014805Y-146377164D01*
X128548262Y-146593159D01*
X128406841Y-146451738D01*
X128622836Y-145985195D01*
X128900707Y-146099293D01*
G37*
%TD.AperFunction*%
%TD*%
%TA.AperFunction,Conductor*%
%TO.N,GND*%
G36*
X149201000Y-139800000D02*
G01*
X149085195Y-140077164D01*
X148602567Y-139900000D01*
X148602567Y-139700000D01*
X149085195Y-139522836D01*
X149201000Y-139800000D01*
G37*
%TD.AperFunction*%
%TD*%
%TA.AperFunction,Conductor*%
%TO.N,GND*%
G36*
X145777164Y-96460195D02*
G01*
X145500000Y-96576000D01*
X145222836Y-96460195D01*
X145400000Y-95977567D01*
X145600000Y-95977567D01*
X145777164Y-96460195D01*
G37*
%TD.AperFunction*%
%TD*%
%TA.AperFunction,Conductor*%
%TO.N,GND*%
G36*
X124900707Y-142099293D02*
G01*
X125014805Y-142377164D01*
X124548262Y-142593159D01*
X124406841Y-142451738D01*
X124622836Y-141985195D01*
X124900707Y-142099293D01*
G37*
%TD.AperFunction*%
%TD*%
%TA.AperFunction,Conductor*%
%TO.N,GND*%
G36*
X129014805Y-96622836D02*
G01*
X128900707Y-96900707D01*
X128622836Y-97014805D01*
X128406841Y-96548262D01*
X128548262Y-96406841D01*
X129014805Y-96622836D01*
G37*
%TD.AperFunction*%
%TD*%
%TA.AperFunction,Conductor*%
%TO.N,GND*%
G36*
X149201000Y-133200000D02*
G01*
X149085195Y-133477164D01*
X148602567Y-133300000D01*
X148602567Y-133100000D01*
X149085195Y-132922836D01*
X149201000Y-133200000D01*
G37*
%TD.AperFunction*%
%TD*%
%TA.AperFunction,Conductor*%
%TO.N,GND*%
G36*
X141201000Y-141200000D02*
G01*
X141085195Y-141477164D01*
X140602567Y-141300000D01*
X140602567Y-141100000D01*
X141085195Y-140922836D01*
X141201000Y-141200000D01*
G37*
%TD.AperFunction*%
%TD*%
%TA.AperFunction,Conductor*%
%TO.N,GND*%
G36*
X141201000Y-125200000D02*
G01*
X141085195Y-125477164D01*
X140602567Y-125300000D01*
X140602567Y-125100000D01*
X141085195Y-124922836D01*
X141201000Y-125200000D01*
G37*
%TD.AperFunction*%
%TD*%
%TA.AperFunction,Conductor*%
%TO.N,/L_START{slash}R_SELECT*%
G36*
X153342302Y-118585684D02*
G01*
X153348614Y-118592036D01*
X153348950Y-118599998D01*
X153202580Y-119064251D01*
X153196824Y-119071111D01*
X153191421Y-119072433D01*
X153007783Y-119072433D01*
X152999510Y-119069006D01*
X152996992Y-119065253D01*
X152996572Y-119064251D01*
X152802359Y-118600605D01*
X152802324Y-118591652D01*
X152808631Y-118585295D01*
X152808633Y-118585293D01*
X153070490Y-118475883D01*
X153079444Y-118475857D01*
X153342302Y-118585684D01*
G37*
%TD.AperFunction*%
%TD*%
%TA.AperFunction,Conductor*%
%TO.N,/L_DPAD_UP{slash}R_BTN_A*%
G36*
X134539765Y-125097185D02*
G01*
X134546350Y-125103252D01*
X134547433Y-125108168D01*
X134547433Y-125291831D01*
X134544006Y-125300104D01*
X134539765Y-125302814D01*
X134075316Y-125473305D01*
X134066368Y-125472939D01*
X134060488Y-125466833D01*
X133950883Y-125204509D01*
X133950857Y-125195556D01*
X133950862Y-125195542D01*
X134060489Y-124933164D01*
X134066840Y-124926854D01*
X134075314Y-124926694D01*
X134539765Y-125097185D01*
G37*
%TD.AperFunction*%
%TD*%
%TA.AperFunction,Conductor*%
%TO.N,/L_DPAD_RIGHT{slash}R_BTN_Y*%
G36*
X141791833Y-122210488D02*
G01*
X141798145Y-122216840D01*
X141798305Y-122225316D01*
X141627815Y-122689765D01*
X141621748Y-122696350D01*
X141616832Y-122697433D01*
X141433168Y-122697433D01*
X141424895Y-122694006D01*
X141422185Y-122689765D01*
X141251694Y-122225316D01*
X141252060Y-122216368D01*
X141258164Y-122210489D01*
X141520490Y-122100883D01*
X141529444Y-122100857D01*
X141791833Y-122210488D01*
G37*
%TD.AperFunction*%
%TD*%
%TA.AperFunction,Conductor*%
%TO.N,/L_DPAD_LEFT{slash}R_BTN_X*%
G36*
X128058191Y-130664446D02*
G01*
X128218218Y-130730156D01*
X128321184Y-130772436D01*
X128327536Y-130778748D01*
X128327563Y-130778815D01*
X128435552Y-131041807D01*
X128435525Y-131050762D01*
X128429644Y-131056868D01*
X127980674Y-131264727D01*
X127971727Y-131265093D01*
X127967486Y-131262383D01*
X127837616Y-131132513D01*
X127834189Y-131124240D01*
X127835271Y-131119329D01*
X128043133Y-130670353D01*
X128049716Y-130664287D01*
X128058191Y-130664446D01*
G37*
%TD.AperFunction*%
%TD*%
%TA.AperFunction,Conductor*%
%TO.N,/L_R_L1_TRIG*%
G36*
X126000675Y-147513987D02*
G01*
X126581111Y-147581838D01*
X126588930Y-147586201D01*
X126591395Y-147592309D01*
X126659887Y-148286502D01*
X126657289Y-148295072D01*
X126649393Y-148299294D01*
X126648006Y-148299349D01*
X125966273Y-148285499D01*
X125958072Y-148281904D01*
X125955046Y-148276133D01*
X125815947Y-147592309D01*
X125802854Y-147527940D01*
X125804563Y-147519151D01*
X125811987Y-147514144D01*
X125814319Y-147513909D01*
X125999318Y-147513909D01*
X126000675Y-147513987D01*
G37*
%TD.AperFunction*%
%TD*%
%TA.AperFunction,Conductor*%
%TO.N,/L_R_L1_TRIG*%
G36*
X152043980Y-113478456D02*
G01*
X152046704Y-113479585D01*
X152052092Y-113484103D01*
X152052136Y-113484172D01*
X152052565Y-113486598D01*
X152053210Y-113486362D01*
X152222502Y-113947497D01*
X152223209Y-113952008D01*
X152223130Y-113953938D01*
X152219557Y-113961886D01*
X152218414Y-113962987D01*
X152214808Y-113965356D01*
X151956657Y-114073218D01*
X151952179Y-114074122D01*
X151947916Y-114074134D01*
X151943372Y-114073230D01*
X151685312Y-113965407D01*
X151681526Y-113962860D01*
X151680166Y-113961492D01*
X151676765Y-113953464D01*
X151676735Y-113951873D01*
X151677449Y-113947625D01*
X151846385Y-113487412D01*
X151848757Y-113483527D01*
X151850763Y-113481350D01*
X151856957Y-113477833D01*
X151856997Y-113477825D01*
X151857040Y-113477816D01*
X151859443Y-113477567D01*
X152039505Y-113477567D01*
X152043980Y-113478456D01*
G37*
%TD.AperFunction*%
%TD*%
%TA.AperFunction,Conductor*%
%TO.N,/L_R_L1_TRIG*%
G36*
X123407910Y-144408626D02*
G01*
X123415806Y-144412848D01*
X123418347Y-144418643D01*
X123496333Y-144974187D01*
X123496447Y-144975813D01*
X123496447Y-145161193D01*
X123493020Y-145169466D01*
X123484747Y-145172893D01*
X123482827Y-145172734D01*
X122780923Y-145055972D01*
X122773324Y-145051234D01*
X122771201Y-145045598D01*
X122701806Y-144353027D01*
X122704391Y-144344457D01*
X122712282Y-144340222D01*
X122714592Y-144340221D01*
X123407910Y-144408626D01*
G37*
%TD.AperFunction*%
%TD*%
%TA.AperFunction,Conductor*%
%TO.N,/L_R_L1_TRIG*%
G36*
X126655169Y-94705449D02*
G01*
X126660531Y-94712621D01*
X126660891Y-94715729D01*
X126648011Y-95398327D01*
X126644429Y-95406534D01*
X126641224Y-95408725D01*
X126329029Y-95553098D01*
X126273037Y-95578992D01*
X126252338Y-95588564D01*
X126247427Y-95589645D01*
X126060696Y-95589645D01*
X126052423Y-95586218D01*
X126049043Y-95578992D01*
X126032816Y-95398327D01*
X125986469Y-94882319D01*
X125989142Y-94873774D01*
X125995234Y-94869936D01*
X126646306Y-94704170D01*
X126655169Y-94705449D01*
G37*
%TD.AperFunction*%
%TD*%
%TA.AperFunction,Conductor*%
%TO.N,/L_R_L1_TRIG*%
G36*
X123411100Y-97815610D02*
G01*
X123412957Y-97817121D01*
X123545442Y-97949606D01*
X123548869Y-97957879D01*
X123548624Y-97960261D01*
X123407549Y-98638742D01*
X123402510Y-98646144D01*
X123396327Y-98648058D01*
X122712849Y-98661645D01*
X122704509Y-98658383D01*
X122700918Y-98650180D01*
X122700918Y-98649714D01*
X122701136Y-98638742D01*
X122714505Y-97966234D01*
X122718096Y-97958033D01*
X122723819Y-97955015D01*
X123402303Y-97813939D01*
X123411100Y-97815610D01*
G37*
%TD.AperFunction*%
%TD*%
%TA.AperFunction,Conductor*%
%TO.N,/L_HOME{slash}R_EXTRA*%
G36*
X153525105Y-113455994D02*
G01*
X153527815Y-113460235D01*
X153698305Y-113924683D01*
X153697939Y-113933631D01*
X153691833Y-113939511D01*
X153429511Y-114049115D01*
X153420556Y-114049142D01*
X153420489Y-114049115D01*
X153158166Y-113939511D01*
X153151854Y-113933159D01*
X153151694Y-113924684D01*
X153322185Y-113460234D01*
X153328253Y-113453650D01*
X153333168Y-113452567D01*
X153516832Y-113452567D01*
X153525105Y-113455994D01*
G37*
%TD.AperFunction*%
%TD*%
%TA.AperFunction,Conductor*%
%TO.N,/L_HOME{slash}R_EXTRA*%
G36*
X153700762Y-113939474D02*
G01*
X153706867Y-113945354D01*
X153878839Y-114316807D01*
X153914727Y-114394325D01*
X153915093Y-114403272D01*
X153912383Y-114407513D01*
X153782513Y-114537383D01*
X153774240Y-114540810D01*
X153769325Y-114539727D01*
X153751001Y-114531243D01*
X153320354Y-114331867D01*
X153314287Y-114325283D01*
X153314446Y-114316808D01*
X153422436Y-114053814D01*
X153428746Y-114047464D01*
X153691808Y-113939447D01*
X153700762Y-113939474D01*
G37*
%TD.AperFunction*%
%TD*%
%TA.AperFunction,Conductor*%
%TO.N,/L_HOME{slash}R_EXTRA*%
G36*
X150510074Y-93072480D02*
G01*
X151087534Y-93416447D01*
X151092889Y-93423625D01*
X151091599Y-93432486D01*
X151089663Y-93434927D01*
X150597889Y-93908485D01*
X150589552Y-93911755D01*
X150585707Y-93911028D01*
X150182943Y-93761763D01*
X150178736Y-93759065D01*
X150046699Y-93627028D01*
X150043272Y-93618755D01*
X150046002Y-93611243D01*
X150193676Y-93434927D01*
X150495118Y-93075019D01*
X150503057Y-93070877D01*
X150510074Y-93072480D01*
G37*
%TD.AperFunction*%
%TD*%
%TA.AperFunction,Conductor*%
%TO.N,/L_HOME{slash}R_EXTRA*%
G36*
X150222154Y-149050857D02*
G01*
X151197930Y-149074653D01*
X151206117Y-149078281D01*
X151209342Y-149086635D01*
X151209066Y-149088892D01*
X151101986Y-149569960D01*
X151096843Y-149577291D01*
X151095329Y-149578104D01*
X150509119Y-149839446D01*
X150500167Y-149839685D01*
X150494551Y-149835146D01*
X150080914Y-149200107D01*
X150079270Y-149191304D01*
X150082443Y-149185450D01*
X150213612Y-149054281D01*
X150221884Y-149050855D01*
X150222154Y-149050857D01*
G37*
%TD.AperFunction*%
%TD*%
%TA.AperFunction,Conductor*%
%TO.N,/L_HOME{slash}R_EXTRA*%
G36*
X146099020Y-93321547D02*
G01*
X146103331Y-93327189D01*
X146413468Y-94192568D01*
X146413033Y-94201512D01*
X146410727Y-94204788D01*
X146280123Y-94335392D01*
X146271850Y-94338819D01*
X146267286Y-94337892D01*
X145303560Y-93929520D01*
X145297280Y-93923137D01*
X145297307Y-93914289D01*
X145496844Y-93430232D01*
X145503164Y-93423891D01*
X145505614Y-93423173D01*
X146090276Y-93319615D01*
X146099020Y-93321547D01*
G37*
%TD.AperFunction*%
%TD*%
%TA.AperFunction,Conductor*%
%TO.N,/L_HOME{slash}R_EXTRA*%
G36*
X146063349Y-149124096D02*
G01*
X146499196Y-149433009D01*
X146500703Y-149434282D01*
X146632057Y-149565636D01*
X146635484Y-149573909D01*
X146632057Y-149582182D01*
X146630975Y-149583138D01*
X146063434Y-150025325D01*
X146054802Y-150027707D01*
X146048836Y-150025153D01*
X145510349Y-149584749D01*
X145506114Y-149576858D01*
X145508699Y-149568285D01*
X145510328Y-149566653D01*
X146049163Y-149124596D01*
X146057732Y-149121999D01*
X146063349Y-149124096D01*
G37*
%TD.AperFunction*%
%TD*%
%TA.AperFunction,Conductor*%
%TO.N,/L_HOME{slash}R_EXTRA*%
G36*
X144950699Y-149124484D02*
G01*
X145489660Y-149566644D01*
X145493882Y-149574540D01*
X145491284Y-149583110D01*
X145489642Y-149584749D01*
X144951185Y-150024767D01*
X144942611Y-150027348D01*
X144936367Y-150024757D01*
X144375892Y-149565509D01*
X144371665Y-149557617D01*
X144374258Y-149549046D01*
X144375025Y-149548198D01*
X144506547Y-149416676D01*
X144508230Y-149415283D01*
X144936699Y-149123854D01*
X144945466Y-149122035D01*
X144950699Y-149124484D01*
G37*
%TD.AperFunction*%
%TD*%
M02*
