%TF.GenerationSoftware,KiCad,Pcbnew,10.0.0*%
%TF.CreationDate,2026-08-16T20:53:43-04:00*%
%TF.ProjectId,ConJoy_KiCad,436f6e4a-6f79-45f4-9b69-4361642e6b69,1.00-0A*%
%TF.SameCoordinates,Original*%
%TF.FileFunction,Legend,Top*%
%TF.FilePolarity,Positive*%
%FSLAX46Y46*%
G04 Gerber Fmt 4.6, Leading zero omitted, Abs format (unit mm)*
G04 Created by KiCad (PCBNEW 10.0.0) date 2026-08-16 20:53:43*
%MOMM*%
%LPD*%
G01*
G04 APERTURE LIST*
%ADD10C,0.100000*%
G04 APERTURE END LIST*
D10*
X147144048Y-118002300D02*
X147215476Y-118026109D01*
X147215476Y-118026109D02*
X147334524Y-118026109D01*
X147334524Y-118026109D02*
X147382143Y-118002300D01*
X147382143Y-118002300D02*
X147405952Y-117978490D01*
X147405952Y-117978490D02*
X147429762Y-117930871D01*
X147429762Y-117930871D02*
X147429762Y-117883252D01*
X147429762Y-117883252D02*
X147405952Y-117835633D01*
X147405952Y-117835633D02*
X147382143Y-117811823D01*
X147382143Y-117811823D02*
X147334524Y-117788014D01*
X147334524Y-117788014D02*
X147239286Y-117764204D01*
X147239286Y-117764204D02*
X147191667Y-117740395D01*
X147191667Y-117740395D02*
X147167857Y-117716585D01*
X147167857Y-117716585D02*
X147144048Y-117668966D01*
X147144048Y-117668966D02*
X147144048Y-117621347D01*
X147144048Y-117621347D02*
X147167857Y-117573728D01*
X147167857Y-117573728D02*
X147191667Y-117549919D01*
X147191667Y-117549919D02*
X147239286Y-117526109D01*
X147239286Y-117526109D02*
X147358333Y-117526109D01*
X147358333Y-117526109D02*
X147429762Y-117549919D01*
X147882142Y-117526109D02*
X147644047Y-117526109D01*
X147644047Y-117526109D02*
X147620238Y-117764204D01*
X147620238Y-117764204D02*
X147644047Y-117740395D01*
X147644047Y-117740395D02*
X147691666Y-117716585D01*
X147691666Y-117716585D02*
X147810714Y-117716585D01*
X147810714Y-117716585D02*
X147858333Y-117740395D01*
X147858333Y-117740395D02*
X147882142Y-117764204D01*
X147882142Y-117764204D02*
X147905952Y-117811823D01*
X147905952Y-117811823D02*
X147905952Y-117930871D01*
X147905952Y-117930871D02*
X147882142Y-117978490D01*
X147882142Y-117978490D02*
X147858333Y-118002300D01*
X147858333Y-118002300D02*
X147810714Y-118026109D01*
X147810714Y-118026109D02*
X147691666Y-118026109D01*
X147691666Y-118026109D02*
X147644047Y-118002300D01*
X147644047Y-118002300D02*
X147620238Y-117978490D01*
X142402300Y-128905951D02*
X142426109Y-128834523D01*
X142426109Y-128834523D02*
X142426109Y-128715475D01*
X142426109Y-128715475D02*
X142402300Y-128667856D01*
X142402300Y-128667856D02*
X142378490Y-128644047D01*
X142378490Y-128644047D02*
X142330871Y-128620237D01*
X142330871Y-128620237D02*
X142283252Y-128620237D01*
X142283252Y-128620237D02*
X142235633Y-128644047D01*
X142235633Y-128644047D02*
X142211823Y-128667856D01*
X142211823Y-128667856D02*
X142188014Y-128715475D01*
X142188014Y-128715475D02*
X142164204Y-128810713D01*
X142164204Y-128810713D02*
X142140395Y-128858332D01*
X142140395Y-128858332D02*
X142116585Y-128882142D01*
X142116585Y-128882142D02*
X142068966Y-128905951D01*
X142068966Y-128905951D02*
X142021347Y-128905951D01*
X142021347Y-128905951D02*
X141973728Y-128882142D01*
X141973728Y-128882142D02*
X141949919Y-128858332D01*
X141949919Y-128858332D02*
X141926109Y-128810713D01*
X141926109Y-128810713D02*
X141926109Y-128691666D01*
X141926109Y-128691666D02*
X141949919Y-128620237D01*
X142426109Y-128144047D02*
X142426109Y-128429761D01*
X142426109Y-128286904D02*
X141926109Y-128286904D01*
X141926109Y-128286904D02*
X141997538Y-128334523D01*
X141997538Y-128334523D02*
X142045157Y-128382142D01*
X142045157Y-128382142D02*
X142068966Y-128429761D01*
X150402300Y-136905951D02*
X150426109Y-136834523D01*
X150426109Y-136834523D02*
X150426109Y-136715475D01*
X150426109Y-136715475D02*
X150402300Y-136667856D01*
X150402300Y-136667856D02*
X150378490Y-136644047D01*
X150378490Y-136644047D02*
X150330871Y-136620237D01*
X150330871Y-136620237D02*
X150283252Y-136620237D01*
X150283252Y-136620237D02*
X150235633Y-136644047D01*
X150235633Y-136644047D02*
X150211823Y-136667856D01*
X150211823Y-136667856D02*
X150188014Y-136715475D01*
X150188014Y-136715475D02*
X150164204Y-136810713D01*
X150164204Y-136810713D02*
X150140395Y-136858332D01*
X150140395Y-136858332D02*
X150116585Y-136882142D01*
X150116585Y-136882142D02*
X150068966Y-136905951D01*
X150068966Y-136905951D02*
X150021347Y-136905951D01*
X150021347Y-136905951D02*
X149973728Y-136882142D01*
X149973728Y-136882142D02*
X149949919Y-136858332D01*
X149949919Y-136858332D02*
X149926109Y-136810713D01*
X149926109Y-136810713D02*
X149926109Y-136691666D01*
X149926109Y-136691666D02*
X149949919Y-136620237D01*
X150092776Y-136191666D02*
X150426109Y-136191666D01*
X149902300Y-136310714D02*
X150259442Y-136429761D01*
X150259442Y-136429761D02*
X150259442Y-136120238D01*
X142402300Y-144905951D02*
X142426109Y-144834523D01*
X142426109Y-144834523D02*
X142426109Y-144715475D01*
X142426109Y-144715475D02*
X142402300Y-144667856D01*
X142402300Y-144667856D02*
X142378490Y-144644047D01*
X142378490Y-144644047D02*
X142330871Y-144620237D01*
X142330871Y-144620237D02*
X142283252Y-144620237D01*
X142283252Y-144620237D02*
X142235633Y-144644047D01*
X142235633Y-144644047D02*
X142211823Y-144667856D01*
X142211823Y-144667856D02*
X142188014Y-144715475D01*
X142188014Y-144715475D02*
X142164204Y-144810713D01*
X142164204Y-144810713D02*
X142140395Y-144858332D01*
X142140395Y-144858332D02*
X142116585Y-144882142D01*
X142116585Y-144882142D02*
X142068966Y-144905951D01*
X142068966Y-144905951D02*
X142021347Y-144905951D01*
X142021347Y-144905951D02*
X141973728Y-144882142D01*
X141973728Y-144882142D02*
X141949919Y-144858332D01*
X141949919Y-144858332D02*
X141926109Y-144810713D01*
X141926109Y-144810713D02*
X141926109Y-144691666D01*
X141926109Y-144691666D02*
X141949919Y-144620237D01*
X141973728Y-144429761D02*
X141949919Y-144405952D01*
X141949919Y-144405952D02*
X141926109Y-144358333D01*
X141926109Y-144358333D02*
X141926109Y-144239285D01*
X141926109Y-144239285D02*
X141949919Y-144191666D01*
X141949919Y-144191666D02*
X141973728Y-144167857D01*
X141973728Y-144167857D02*
X142021347Y-144144047D01*
X142021347Y-144144047D02*
X142068966Y-144144047D01*
X142068966Y-144144047D02*
X142140395Y-144167857D01*
X142140395Y-144167857D02*
X142426109Y-144453571D01*
X142426109Y-144453571D02*
X142426109Y-144144047D01*
X128464286Y-142614204D02*
X128297619Y-142614204D01*
X128297619Y-142876109D02*
X128297619Y-142376109D01*
X128297619Y-142376109D02*
X128535714Y-142376109D01*
X128726190Y-142876109D02*
X128726190Y-142376109D01*
X128964285Y-142876109D02*
X128964285Y-142376109D01*
X128964285Y-142376109D02*
X129083333Y-142376109D01*
X129083333Y-142376109D02*
X129154761Y-142399919D01*
X129154761Y-142399919D02*
X129202380Y-142447538D01*
X129202380Y-142447538D02*
X129226190Y-142495157D01*
X129226190Y-142495157D02*
X129249999Y-142590395D01*
X129249999Y-142590395D02*
X129249999Y-142661823D01*
X129249999Y-142661823D02*
X129226190Y-142757061D01*
X129226190Y-142757061D02*
X129202380Y-142804680D01*
X129202380Y-142804680D02*
X129154761Y-142852300D01*
X129154761Y-142852300D02*
X129083333Y-142876109D01*
X129083333Y-142876109D02*
X128964285Y-142876109D01*
X129416666Y-142376109D02*
X129726190Y-142376109D01*
X129726190Y-142376109D02*
X129559523Y-142566585D01*
X129559523Y-142566585D02*
X129630952Y-142566585D01*
X129630952Y-142566585D02*
X129678571Y-142590395D01*
X129678571Y-142590395D02*
X129702380Y-142614204D01*
X129702380Y-142614204D02*
X129726190Y-142661823D01*
X129726190Y-142661823D02*
X129726190Y-142780871D01*
X129726190Y-142780871D02*
X129702380Y-142828490D01*
X129702380Y-142828490D02*
X129678571Y-142852300D01*
X129678571Y-142852300D02*
X129630952Y-142876109D01*
X129630952Y-142876109D02*
X129488095Y-142876109D01*
X129488095Y-142876109D02*
X129440476Y-142852300D01*
X129440476Y-142852300D02*
X129416666Y-142828490D01*
X147739286Y-103864204D02*
X147572619Y-103864204D01*
X147572619Y-104126109D02*
X147572619Y-103626109D01*
X147572619Y-103626109D02*
X147810714Y-103626109D01*
X148001190Y-104126109D02*
X148001190Y-103626109D01*
X148239285Y-104126109D02*
X148239285Y-103626109D01*
X148239285Y-103626109D02*
X148358333Y-103626109D01*
X148358333Y-103626109D02*
X148429761Y-103649919D01*
X148429761Y-103649919D02*
X148477380Y-103697538D01*
X148477380Y-103697538D02*
X148501190Y-103745157D01*
X148501190Y-103745157D02*
X148524999Y-103840395D01*
X148524999Y-103840395D02*
X148524999Y-103911823D01*
X148524999Y-103911823D02*
X148501190Y-104007061D01*
X148501190Y-104007061D02*
X148477380Y-104054680D01*
X148477380Y-104054680D02*
X148429761Y-104102300D01*
X148429761Y-104102300D02*
X148358333Y-104126109D01*
X148358333Y-104126109D02*
X148239285Y-104126109D01*
X149001190Y-104126109D02*
X148715476Y-104126109D01*
X148858333Y-104126109D02*
X148858333Y-103626109D01*
X148858333Y-103626109D02*
X148810714Y-103697538D01*
X148810714Y-103697538D02*
X148763095Y-103745157D01*
X148763095Y-103745157D02*
X148715476Y-103768966D01*
X144914204Y-143785713D02*
X144914204Y-143952380D01*
X145176109Y-143952380D02*
X144676109Y-143952380D01*
X144676109Y-143952380D02*
X144676109Y-143714285D01*
X145176109Y-143523809D02*
X144676109Y-143523809D01*
X145176109Y-143285714D02*
X144676109Y-143285714D01*
X144676109Y-143285714D02*
X144676109Y-143166666D01*
X144676109Y-143166666D02*
X144699919Y-143095238D01*
X144699919Y-143095238D02*
X144747538Y-143047619D01*
X144747538Y-143047619D02*
X144795157Y-143023809D01*
X144795157Y-143023809D02*
X144890395Y-143000000D01*
X144890395Y-143000000D02*
X144961823Y-143000000D01*
X144961823Y-143000000D02*
X145057061Y-143023809D01*
X145057061Y-143023809D02*
X145104680Y-143047619D01*
X145104680Y-143047619D02*
X145152300Y-143095238D01*
X145152300Y-143095238D02*
X145176109Y-143166666D01*
X145176109Y-143166666D02*
X145176109Y-143285714D01*
X144676109Y-142547619D02*
X144676109Y-142785714D01*
X144676109Y-142785714D02*
X144914204Y-142809523D01*
X144914204Y-142809523D02*
X144890395Y-142785714D01*
X144890395Y-142785714D02*
X144866585Y-142738095D01*
X144866585Y-142738095D02*
X144866585Y-142619047D01*
X144866585Y-142619047D02*
X144890395Y-142571428D01*
X144890395Y-142571428D02*
X144914204Y-142547619D01*
X144914204Y-142547619D02*
X144961823Y-142523809D01*
X144961823Y-142523809D02*
X145080871Y-142523809D01*
X145080871Y-142523809D02*
X145128490Y-142547619D01*
X145128490Y-142547619D02*
X145152300Y-142571428D01*
X145152300Y-142571428D02*
X145176109Y-142619047D01*
X145176109Y-142619047D02*
X145176109Y-142738095D01*
X145176109Y-142738095D02*
X145152300Y-142785714D01*
X145152300Y-142785714D02*
X145128490Y-142809523D01*
X134402300Y-136905951D02*
X134426109Y-136834523D01*
X134426109Y-136834523D02*
X134426109Y-136715475D01*
X134426109Y-136715475D02*
X134402300Y-136667856D01*
X134402300Y-136667856D02*
X134378490Y-136644047D01*
X134378490Y-136644047D02*
X134330871Y-136620237D01*
X134330871Y-136620237D02*
X134283252Y-136620237D01*
X134283252Y-136620237D02*
X134235633Y-136644047D01*
X134235633Y-136644047D02*
X134211823Y-136667856D01*
X134211823Y-136667856D02*
X134188014Y-136715475D01*
X134188014Y-136715475D02*
X134164204Y-136810713D01*
X134164204Y-136810713D02*
X134140395Y-136858332D01*
X134140395Y-136858332D02*
X134116585Y-136882142D01*
X134116585Y-136882142D02*
X134068966Y-136905951D01*
X134068966Y-136905951D02*
X134021347Y-136905951D01*
X134021347Y-136905951D02*
X133973728Y-136882142D01*
X133973728Y-136882142D02*
X133949919Y-136858332D01*
X133949919Y-136858332D02*
X133926109Y-136810713D01*
X133926109Y-136810713D02*
X133926109Y-136691666D01*
X133926109Y-136691666D02*
X133949919Y-136620237D01*
X133926109Y-136453571D02*
X133926109Y-136144047D01*
X133926109Y-136144047D02*
X134116585Y-136310714D01*
X134116585Y-136310714D02*
X134116585Y-136239285D01*
X134116585Y-136239285D02*
X134140395Y-136191666D01*
X134140395Y-136191666D02*
X134164204Y-136167857D01*
X134164204Y-136167857D02*
X134211823Y-136144047D01*
X134211823Y-136144047D02*
X134330871Y-136144047D01*
X134330871Y-136144047D02*
X134378490Y-136167857D01*
X134378490Y-136167857D02*
X134402300Y-136191666D01*
X134402300Y-136191666D02*
X134426109Y-136239285D01*
X134426109Y-136239285D02*
X134426109Y-136382142D01*
X134426109Y-136382142D02*
X134402300Y-136429761D01*
X134402300Y-136429761D02*
X134378490Y-136453571D01*
X126478568Y-143982684D02*
X126512240Y-144050027D01*
X126512240Y-144050027D02*
X126596419Y-144134206D01*
X126596419Y-144134206D02*
X126646927Y-144151042D01*
X126646927Y-144151042D02*
X126680599Y-144151042D01*
X126680599Y-144151042D02*
X126731106Y-144134206D01*
X126731106Y-144134206D02*
X126764778Y-144100535D01*
X126764778Y-144100535D02*
X126781614Y-144050027D01*
X126781614Y-144050027D02*
X126781614Y-144016355D01*
X126781614Y-144016355D02*
X126764778Y-143965848D01*
X126764778Y-143965848D02*
X126714270Y-143881668D01*
X126714270Y-143881668D02*
X126697435Y-143831161D01*
X126697435Y-143831161D02*
X126697435Y-143797489D01*
X126697435Y-143797489D02*
X126714270Y-143746981D01*
X126714270Y-143746981D02*
X126747942Y-143713310D01*
X126747942Y-143713310D02*
X126798450Y-143696474D01*
X126798450Y-143696474D02*
X126832122Y-143696474D01*
X126832122Y-143696474D02*
X126882629Y-143713310D01*
X126882629Y-143713310D02*
X126966809Y-143797489D01*
X126966809Y-143797489D02*
X127000480Y-143864832D01*
X126832121Y-144369908D02*
X126899465Y-144437252D01*
X126899465Y-144437252D02*
X126949972Y-144454088D01*
X126949972Y-144454088D02*
X126983644Y-144454088D01*
X126983644Y-144454088D02*
X127067823Y-144437252D01*
X127067823Y-144437252D02*
X127152003Y-144386744D01*
X127152003Y-144386744D02*
X127286690Y-144252057D01*
X127286690Y-144252057D02*
X127303526Y-144201550D01*
X127303526Y-144201550D02*
X127303526Y-144167878D01*
X127303526Y-144167878D02*
X127286690Y-144117370D01*
X127286690Y-144117370D02*
X127219346Y-144050027D01*
X127219346Y-144050027D02*
X127168839Y-144033191D01*
X127168839Y-144033191D02*
X127135167Y-144033191D01*
X127135167Y-144033191D02*
X127084659Y-144050027D01*
X127084659Y-144050027D02*
X127000480Y-144134206D01*
X127000480Y-144134206D02*
X126983644Y-144184714D01*
X126983644Y-144184714D02*
X126983644Y-144218385D01*
X126983644Y-144218385D02*
X127000480Y-144268893D01*
X127000480Y-144268893D02*
X127067823Y-144336237D01*
X127067823Y-144336237D02*
X127118331Y-144353072D01*
X127118331Y-144353072D02*
X127152003Y-144353072D01*
X127152003Y-144353072D02*
X127202510Y-144336237D01*
X126764664Y-99303411D02*
X126832007Y-99269739D01*
X126832007Y-99269739D02*
X126916186Y-99185560D01*
X126916186Y-99185560D02*
X126933022Y-99135052D01*
X126933022Y-99135052D02*
X126933022Y-99101380D01*
X126933022Y-99101380D02*
X126916186Y-99050873D01*
X126916186Y-99050873D02*
X126882515Y-99017201D01*
X126882515Y-99017201D02*
X126832007Y-99000365D01*
X126832007Y-99000365D02*
X126798335Y-99000365D01*
X126798335Y-99000365D02*
X126747828Y-99017201D01*
X126747828Y-99017201D02*
X126663648Y-99067709D01*
X126663648Y-99067709D02*
X126613141Y-99084544D01*
X126613141Y-99084544D02*
X126579469Y-99084544D01*
X126579469Y-99084544D02*
X126528961Y-99067709D01*
X126528961Y-99067709D02*
X126495290Y-99034037D01*
X126495290Y-99034037D02*
X126478454Y-98983529D01*
X126478454Y-98983529D02*
X126478454Y-98949857D01*
X126478454Y-98949857D02*
X126495290Y-98899350D01*
X126495290Y-98899350D02*
X126579469Y-98815170D01*
X126579469Y-98815170D02*
X126646812Y-98781499D01*
X126933022Y-98461617D02*
X126865678Y-98528961D01*
X126865678Y-98528961D02*
X126848843Y-98579469D01*
X126848843Y-98579469D02*
X126848843Y-98613140D01*
X126848843Y-98613140D02*
X126865678Y-98697320D01*
X126865678Y-98697320D02*
X126916186Y-98781499D01*
X126916186Y-98781499D02*
X127050873Y-98916186D01*
X127050873Y-98916186D02*
X127101381Y-98933022D01*
X127101381Y-98933022D02*
X127135052Y-98933022D01*
X127135052Y-98933022D02*
X127185560Y-98916186D01*
X127185560Y-98916186D02*
X127252904Y-98848843D01*
X127252904Y-98848843D02*
X127269739Y-98798335D01*
X127269739Y-98798335D02*
X127269739Y-98764663D01*
X127269739Y-98764663D02*
X127252904Y-98714156D01*
X127252904Y-98714156D02*
X127168724Y-98629976D01*
X127168724Y-98629976D02*
X127118217Y-98613140D01*
X127118217Y-98613140D02*
X127084545Y-98613140D01*
X127084545Y-98613140D02*
X127034037Y-98629976D01*
X127034037Y-98629976D02*
X126966694Y-98697320D01*
X126966694Y-98697320D02*
X126949858Y-98747827D01*
X126949858Y-98747827D02*
X126949858Y-98781499D01*
X126949858Y-98781499D02*
X126966694Y-98832007D01*
X149555953Y-146702300D02*
X149627381Y-146726109D01*
X149627381Y-146726109D02*
X149746429Y-146726109D01*
X149746429Y-146726109D02*
X149794048Y-146702300D01*
X149794048Y-146702300D02*
X149817857Y-146678490D01*
X149817857Y-146678490D02*
X149841667Y-146630871D01*
X149841667Y-146630871D02*
X149841667Y-146583252D01*
X149841667Y-146583252D02*
X149817857Y-146535633D01*
X149817857Y-146535633D02*
X149794048Y-146511823D01*
X149794048Y-146511823D02*
X149746429Y-146488014D01*
X149746429Y-146488014D02*
X149651191Y-146464204D01*
X149651191Y-146464204D02*
X149603572Y-146440395D01*
X149603572Y-146440395D02*
X149579762Y-146416585D01*
X149579762Y-146416585D02*
X149555953Y-146368966D01*
X149555953Y-146368966D02*
X149555953Y-146321347D01*
X149555953Y-146321347D02*
X149579762Y-146273728D01*
X149579762Y-146273728D02*
X149603572Y-146249919D01*
X149603572Y-146249919D02*
X149651191Y-146226109D01*
X149651191Y-146226109D02*
X149770238Y-146226109D01*
X149770238Y-146226109D02*
X149841667Y-146249919D01*
X150317857Y-146726109D02*
X150032143Y-146726109D01*
X150175000Y-146726109D02*
X150175000Y-146226109D01*
X150175000Y-146226109D02*
X150127381Y-146297538D01*
X150127381Y-146297538D02*
X150079762Y-146345157D01*
X150079762Y-146345157D02*
X150032143Y-146368966D01*
X150794047Y-146726109D02*
X150508333Y-146726109D01*
X150651190Y-146726109D02*
X150651190Y-146226109D01*
X150651190Y-146226109D02*
X150603571Y-146297538D01*
X150603571Y-146297538D02*
X150555952Y-146345157D01*
X150555952Y-146345157D02*
X150508333Y-146368966D01*
X147919048Y-96752300D02*
X147990476Y-96776109D01*
X147990476Y-96776109D02*
X148109524Y-96776109D01*
X148109524Y-96776109D02*
X148157143Y-96752300D01*
X148157143Y-96752300D02*
X148180952Y-96728490D01*
X148180952Y-96728490D02*
X148204762Y-96680871D01*
X148204762Y-96680871D02*
X148204762Y-96633252D01*
X148204762Y-96633252D02*
X148180952Y-96585633D01*
X148180952Y-96585633D02*
X148157143Y-96561823D01*
X148157143Y-96561823D02*
X148109524Y-96538014D01*
X148109524Y-96538014D02*
X148014286Y-96514204D01*
X148014286Y-96514204D02*
X147966667Y-96490395D01*
X147966667Y-96490395D02*
X147942857Y-96466585D01*
X147942857Y-96466585D02*
X147919048Y-96418966D01*
X147919048Y-96418966D02*
X147919048Y-96371347D01*
X147919048Y-96371347D02*
X147942857Y-96323728D01*
X147942857Y-96323728D02*
X147966667Y-96299919D01*
X147966667Y-96299919D02*
X148014286Y-96276109D01*
X148014286Y-96276109D02*
X148133333Y-96276109D01*
X148133333Y-96276109D02*
X148204762Y-96299919D01*
X148490476Y-96490395D02*
X148442857Y-96466585D01*
X148442857Y-96466585D02*
X148419047Y-96442776D01*
X148419047Y-96442776D02*
X148395238Y-96395157D01*
X148395238Y-96395157D02*
X148395238Y-96371347D01*
X148395238Y-96371347D02*
X148419047Y-96323728D01*
X148419047Y-96323728D02*
X148442857Y-96299919D01*
X148442857Y-96299919D02*
X148490476Y-96276109D01*
X148490476Y-96276109D02*
X148585714Y-96276109D01*
X148585714Y-96276109D02*
X148633333Y-96299919D01*
X148633333Y-96299919D02*
X148657142Y-96323728D01*
X148657142Y-96323728D02*
X148680952Y-96371347D01*
X148680952Y-96371347D02*
X148680952Y-96395157D01*
X148680952Y-96395157D02*
X148657142Y-96442776D01*
X148657142Y-96442776D02*
X148633333Y-96466585D01*
X148633333Y-96466585D02*
X148585714Y-96490395D01*
X148585714Y-96490395D02*
X148490476Y-96490395D01*
X148490476Y-96490395D02*
X148442857Y-96514204D01*
X148442857Y-96514204D02*
X148419047Y-96538014D01*
X148419047Y-96538014D02*
X148395238Y-96585633D01*
X148395238Y-96585633D02*
X148395238Y-96680871D01*
X148395238Y-96680871D02*
X148419047Y-96728490D01*
X148419047Y-96728490D02*
X148442857Y-96752300D01*
X148442857Y-96752300D02*
X148490476Y-96776109D01*
X148490476Y-96776109D02*
X148585714Y-96776109D01*
X148585714Y-96776109D02*
X148633333Y-96752300D01*
X148633333Y-96752300D02*
X148657142Y-96728490D01*
X148657142Y-96728490D02*
X148680952Y-96680871D01*
X148680952Y-96680871D02*
X148680952Y-96585633D01*
X148680952Y-96585633D02*
X148657142Y-96538014D01*
X148657142Y-96538014D02*
X148633333Y-96514204D01*
X148633333Y-96514204D02*
X148585714Y-96490395D01*
%TO.C,S5*%
X144200000Y-118248763D02*
X150799671Y-118248763D01*
X144200000Y-118750000D02*
X144200000Y-118250000D01*
X144200000Y-124250000D02*
X144200000Y-124750000D01*
X146250000Y-119500000D02*
X148750000Y-119500000D01*
X146250000Y-123500000D02*
X148750000Y-123500000D01*
X147500000Y-119500000D02*
X147500000Y-121000000D01*
X147500000Y-121000000D02*
X148225000Y-121725000D01*
X147500000Y-122000000D02*
X147500000Y-123500000D01*
X150800000Y-118750000D02*
X150800000Y-118250000D01*
X150800000Y-124250000D02*
X150800000Y-124750000D01*
X150800000Y-124750000D02*
X144206186Y-124750000D01*
X147641421Y-121850000D02*
G75*
G02*
X147358579Y-121850000I-141421J0D01*
G01*
X147358579Y-121850000D02*
G75*
G02*
X147641421Y-121850000I141421J0D01*
G01*
%TO.C,S1*%
X135250000Y-131800000D02*
X135250000Y-125206186D01*
X135750000Y-125200000D02*
X135250000Y-125200000D01*
X135750000Y-131800000D02*
X135250000Y-131800000D01*
X136500000Y-127250000D02*
X136500000Y-129750000D01*
X138000000Y-128500000D02*
X136500000Y-128500000D01*
X139000000Y-128500000D02*
X138275000Y-129225000D01*
X140500000Y-127250000D02*
X140500000Y-129750000D01*
X140500000Y-128500000D02*
X139000000Y-128500000D01*
X141250000Y-125200000D02*
X141750000Y-125200000D01*
X141250000Y-131800000D02*
X141750000Y-131800000D01*
X141751237Y-125200000D02*
X141751237Y-131799671D01*
X138291421Y-128500000D02*
G75*
G02*
X138008579Y-128500000I-141421J0D01*
G01*
X138008579Y-128500000D02*
G75*
G02*
X138291421Y-128500000I141421J0D01*
G01*
%TO.C,S4*%
X143250000Y-139800000D02*
X143250000Y-133206186D01*
X143750000Y-133200000D02*
X143250000Y-133200000D01*
X143750000Y-139800000D02*
X143250000Y-139800000D01*
X144500000Y-135250000D02*
X144500000Y-137750000D01*
X146000000Y-136500000D02*
X144500000Y-136500000D01*
X147000000Y-136500000D02*
X146275000Y-137225000D01*
X148500000Y-135250000D02*
X148500000Y-137750000D01*
X148500000Y-136500000D02*
X147000000Y-136500000D01*
X149250000Y-133200000D02*
X149750000Y-133200000D01*
X149250000Y-139800000D02*
X149750000Y-139800000D01*
X149751237Y-133200000D02*
X149751237Y-139799671D01*
X146291421Y-136500000D02*
G75*
G02*
X146008579Y-136500000I-141421J0D01*
G01*
X146008579Y-136500000D02*
G75*
G02*
X146291421Y-136500000I141421J0D01*
G01*
%TO.C,S2*%
X135250000Y-147800000D02*
X135250000Y-141206186D01*
X135750000Y-141200000D02*
X135250000Y-141200000D01*
X135750000Y-147800000D02*
X135250000Y-147800000D01*
X136500000Y-143250000D02*
X136500000Y-145750000D01*
X138000000Y-144500000D02*
X136500000Y-144500000D01*
X139000000Y-144500000D02*
X138275000Y-145225000D01*
X140500000Y-143250000D02*
X140500000Y-145750000D01*
X140500000Y-144500000D02*
X139000000Y-144500000D01*
X141250000Y-141200000D02*
X141750000Y-141200000D01*
X141250000Y-147800000D02*
X141750000Y-147800000D01*
X141751237Y-141200000D02*
X141751237Y-147799671D01*
X138291421Y-144500000D02*
G75*
G02*
X138008579Y-144500000I-141421J0D01*
G01*
X138008579Y-144500000D02*
G75*
G02*
X138291421Y-144500000I141421J0D01*
G01*
%TO.C,S3*%
X127250000Y-139800000D02*
X127250000Y-133206186D01*
X127750000Y-133200000D02*
X127250000Y-133200000D01*
X127750000Y-139800000D02*
X127250000Y-139800000D01*
X128500000Y-135250000D02*
X128500000Y-137750000D01*
X130000000Y-136500000D02*
X128500000Y-136500000D01*
X131000000Y-136500000D02*
X130275000Y-137225000D01*
X132500000Y-135250000D02*
X132500000Y-137750000D01*
X132500000Y-136500000D02*
X131000000Y-136500000D01*
X133250000Y-133200000D02*
X133750000Y-133200000D01*
X133250000Y-139800000D02*
X133750000Y-139800000D01*
X133751237Y-133200000D02*
X133751237Y-139799671D01*
X130291421Y-136500000D02*
G75*
G02*
X130008579Y-136500000I-141421J0D01*
G01*
X130008579Y-136500000D02*
G75*
G02*
X130291421Y-136500000I141421J0D01*
G01*
%TO.C,S9*%
X122245249Y-145219217D02*
X123005389Y-145979357D01*
X122277119Y-146707627D02*
X124292373Y-148722881D01*
X122386671Y-145077796D02*
X122245249Y-145219217D01*
X123005389Y-145979357D02*
X122277119Y-146707627D01*
X123178680Y-147114214D02*
X123532233Y-146760660D01*
X123355456Y-146760660D02*
X123532233Y-146760660D01*
X123532233Y-146760660D02*
X123355456Y-146760660D01*
X123532233Y-146760660D02*
X123532233Y-146937437D01*
X123885786Y-147821320D02*
X124239340Y-147467767D01*
X124062563Y-147467767D02*
X124239340Y-147467767D01*
X124239340Y-147467767D02*
X124062563Y-147467767D01*
X124239340Y-147467767D02*
X124239340Y-147644544D01*
X124698959Y-142765507D02*
X124840381Y-142624086D01*
X124840381Y-142624086D02*
X126360660Y-144144365D01*
X125020643Y-147994611D02*
X124292373Y-148722881D01*
X125020643Y-147994611D02*
X125780783Y-148754751D01*
X125922204Y-148613329D02*
X125780783Y-148754751D01*
X128234493Y-146301041D02*
X128375914Y-146159619D01*
X128375914Y-146159619D02*
X126855635Y-144639340D01*
%TO.C,S6*%
X122386671Y-97922204D02*
X122245249Y-97780783D01*
X123005389Y-97020643D02*
X122245249Y-97780783D01*
X123005389Y-97020643D02*
X122277119Y-96292373D01*
X123178680Y-95885786D02*
X123532233Y-96239340D01*
X123532233Y-96062563D02*
X123532233Y-96239340D01*
X123532233Y-96239340D02*
X123355456Y-96239340D01*
X123532233Y-96239340D02*
X123532233Y-96062563D01*
X123885786Y-95178680D02*
X124239340Y-95532233D01*
X124239340Y-95355456D02*
X124239340Y-95532233D01*
X124239340Y-95532233D02*
X124062563Y-95532233D01*
X124239340Y-95532233D02*
X124239340Y-95355456D01*
X124292373Y-94277119D02*
X122277119Y-96292373D01*
X124698959Y-100234493D02*
X124840381Y-100375914D01*
X124840381Y-100375914D02*
X126360660Y-98855635D01*
X125020643Y-95005389D02*
X124292373Y-94277119D01*
X125780783Y-94245249D02*
X125020643Y-95005389D01*
X125922204Y-94386671D02*
X125780783Y-94245249D01*
X128234493Y-96698959D02*
X128375914Y-96840381D01*
X128375914Y-96840381D02*
X126855635Y-98360660D01*
%TO.C,S11*%
X145800000Y-146850000D02*
X147950000Y-146850000D01*
X145800000Y-147050000D02*
X145800000Y-146850000D01*
X145800000Y-150320070D02*
X145800000Y-150520070D01*
X145800000Y-150520070D02*
X146875000Y-150520070D01*
X146875000Y-150520070D02*
X146875000Y-151550000D01*
X146875000Y-151550000D02*
X149725000Y-151550000D01*
X147675000Y-150825000D02*
X147800000Y-150700000D01*
X147800000Y-150700000D02*
X147675000Y-150825000D01*
X147800000Y-150700000D02*
X147925000Y-150825000D01*
X147800000Y-151200000D02*
X147800000Y-150700000D01*
X148675000Y-150825000D02*
X148800000Y-150700000D01*
X148800000Y-150700000D02*
X148675000Y-150825000D01*
X148800000Y-150700000D02*
X148925000Y-150825000D01*
X148800000Y-151200000D02*
X148800000Y-150700000D01*
X149725000Y-150520070D02*
X149725000Y-151550000D01*
X149725000Y-150520070D02*
X150800000Y-150520070D01*
X150800000Y-146850000D02*
X148650000Y-146850000D01*
X150800000Y-147050000D02*
X150800000Y-146850000D01*
X150800000Y-150320070D02*
X150800000Y-150520070D01*
%TO.C,S8*%
X145800000Y-92679930D02*
X145800000Y-92479930D01*
X145800000Y-95950000D02*
X145800000Y-96150000D01*
X145800000Y-96150000D02*
X147950000Y-96150000D01*
X146875000Y-92479930D02*
X145800000Y-92479930D01*
X146875000Y-92479930D02*
X146875000Y-91450000D01*
X147800000Y-91800000D02*
X147800000Y-92300000D01*
X147800000Y-92300000D02*
X147675000Y-92175000D01*
X147800000Y-92300000D02*
X147925000Y-92175000D01*
X147925000Y-92175000D02*
X147800000Y-92300000D01*
X148800000Y-91800000D02*
X148800000Y-92300000D01*
X148800000Y-92300000D02*
X148675000Y-92175000D01*
X148800000Y-92300000D02*
X148925000Y-92175000D01*
X148925000Y-92175000D02*
X148800000Y-92300000D01*
X149725000Y-91450000D02*
X146875000Y-91450000D01*
X149725000Y-92479930D02*
X149725000Y-91450000D01*
X150800000Y-92479930D02*
X149725000Y-92479930D01*
X150800000Y-92679930D02*
X150800000Y-92479930D01*
X150800000Y-95950000D02*
X150800000Y-96150000D01*
X150800000Y-96150000D02*
X148650000Y-96150000D01*
%TD*%
M02*
