%TF.GenerationSoftware,KiCad,Pcbnew,10.0.0*%
%TF.CreationDate,2026-08-05T19:39:12-04:00*%
%TF.ProjectId,ConJoy_KiCad,436f6e4a-6f79-45f4-9b69-4361642e6b69,1.00-0A*%
%TF.SameCoordinates,Original*%
%TF.FileFunction,Legend,Top*%
%TF.FilePolarity,Positive*%
%FSLAX46Y46*%
G04 Gerber Fmt 4.6, Leading zero omitted, Abs format (unit mm)*
G04 Created by KiCad (PCBNEW 10.0.0) date 2026-08-05 19:39:12*
%MOMM*%
%LPD*%
G01*
G04 APERTURE LIST*
%ADD10C,0.100000*%
G04 APERTURE END LIST*
D10*
X121778490Y-132783333D02*
X121802300Y-132807142D01*
X121802300Y-132807142D02*
X121826109Y-132878571D01*
X121826109Y-132878571D02*
X121826109Y-132926190D01*
X121826109Y-132926190D02*
X121802300Y-132997618D01*
X121802300Y-132997618D02*
X121754680Y-133045237D01*
X121754680Y-133045237D02*
X121707061Y-133069047D01*
X121707061Y-133069047D02*
X121611823Y-133092856D01*
X121611823Y-133092856D02*
X121540395Y-133092856D01*
X121540395Y-133092856D02*
X121445157Y-133069047D01*
X121445157Y-133069047D02*
X121397538Y-133045237D01*
X121397538Y-133045237D02*
X121349919Y-132997618D01*
X121349919Y-132997618D02*
X121326109Y-132926190D01*
X121326109Y-132926190D02*
X121326109Y-132878571D01*
X121326109Y-132878571D02*
X121349919Y-132807142D01*
X121349919Y-132807142D02*
X121373728Y-132783333D01*
X121492776Y-132354761D02*
X121826109Y-132354761D01*
X121302300Y-132473809D02*
X121659442Y-132592856D01*
X121659442Y-132592856D02*
X121659442Y-132283333D01*
X147144048Y-118002300D02*
X147215476Y-118026109D01*
X147215476Y-118026109D02*
X147334524Y-118026109D01*
X147334524Y-118026109D02*
X147382143Y-118002300D01*
X147382143Y-118002300D02*
X147405952Y-117978490D01*
X147405952Y-117978490D02*
X147429762Y-117930871D01*
X147429762Y-117930871D02*
X147429762Y-117883252D01*
X147429762Y-117883252D02*
X147405952Y-117835633D01*
X147405952Y-117835633D02*
X147382143Y-117811823D01*
X147382143Y-117811823D02*
X147334524Y-117788014D01*
X147334524Y-117788014D02*
X147239286Y-117764204D01*
X147239286Y-117764204D02*
X147191667Y-117740395D01*
X147191667Y-117740395D02*
X147167857Y-117716585D01*
X147167857Y-117716585D02*
X147144048Y-117668966D01*
X147144048Y-117668966D02*
X147144048Y-117621347D01*
X147144048Y-117621347D02*
X147167857Y-117573728D01*
X147167857Y-117573728D02*
X147191667Y-117549919D01*
X147191667Y-117549919D02*
X147239286Y-117526109D01*
X147239286Y-117526109D02*
X147358333Y-117526109D01*
X147358333Y-117526109D02*
X147429762Y-117549919D01*
X147882142Y-117526109D02*
X147644047Y-117526109D01*
X147644047Y-117526109D02*
X147620238Y-117764204D01*
X147620238Y-117764204D02*
X147644047Y-117740395D01*
X147644047Y-117740395D02*
X147691666Y-117716585D01*
X147691666Y-117716585D02*
X147810714Y-117716585D01*
X147810714Y-117716585D02*
X147858333Y-117740395D01*
X147858333Y-117740395D02*
X147882142Y-117764204D01*
X147882142Y-117764204D02*
X147905952Y-117811823D01*
X147905952Y-117811823D02*
X147905952Y-117930871D01*
X147905952Y-117930871D02*
X147882142Y-117978490D01*
X147882142Y-117978490D02*
X147858333Y-118002300D01*
X147858333Y-118002300D02*
X147810714Y-118026109D01*
X147810714Y-118026109D02*
X147691666Y-118026109D01*
X147691666Y-118026109D02*
X147644047Y-118002300D01*
X147644047Y-118002300D02*
X147620238Y-117978490D01*
X120878490Y-131083333D02*
X120902300Y-131107142D01*
X120902300Y-131107142D02*
X120926109Y-131178571D01*
X120926109Y-131178571D02*
X120926109Y-131226190D01*
X120926109Y-131226190D02*
X120902300Y-131297618D01*
X120902300Y-131297618D02*
X120854680Y-131345237D01*
X120854680Y-131345237D02*
X120807061Y-131369047D01*
X120807061Y-131369047D02*
X120711823Y-131392856D01*
X120711823Y-131392856D02*
X120640395Y-131392856D01*
X120640395Y-131392856D02*
X120545157Y-131369047D01*
X120545157Y-131369047D02*
X120497538Y-131345237D01*
X120497538Y-131345237D02*
X120449919Y-131297618D01*
X120449919Y-131297618D02*
X120426109Y-131226190D01*
X120426109Y-131226190D02*
X120426109Y-131178571D01*
X120426109Y-131178571D02*
X120449919Y-131107142D01*
X120449919Y-131107142D02*
X120473728Y-131083333D01*
X120473728Y-130892856D02*
X120449919Y-130869047D01*
X120449919Y-130869047D02*
X120426109Y-130821428D01*
X120426109Y-130821428D02*
X120426109Y-130702380D01*
X120426109Y-130702380D02*
X120449919Y-130654761D01*
X120449919Y-130654761D02*
X120473728Y-130630952D01*
X120473728Y-130630952D02*
X120521347Y-130607142D01*
X120521347Y-130607142D02*
X120568966Y-130607142D01*
X120568966Y-130607142D02*
X120640395Y-130630952D01*
X120640395Y-130630952D02*
X120926109Y-130916666D01*
X120926109Y-130916666D02*
X120926109Y-130607142D01*
X141402300Y-128905951D02*
X141426109Y-128834523D01*
X141426109Y-128834523D02*
X141426109Y-128715475D01*
X141426109Y-128715475D02*
X141402300Y-128667856D01*
X141402300Y-128667856D02*
X141378490Y-128644047D01*
X141378490Y-128644047D02*
X141330871Y-128620237D01*
X141330871Y-128620237D02*
X141283252Y-128620237D01*
X141283252Y-128620237D02*
X141235633Y-128644047D01*
X141235633Y-128644047D02*
X141211823Y-128667856D01*
X141211823Y-128667856D02*
X141188014Y-128715475D01*
X141188014Y-128715475D02*
X141164204Y-128810713D01*
X141164204Y-128810713D02*
X141140395Y-128858332D01*
X141140395Y-128858332D02*
X141116585Y-128882142D01*
X141116585Y-128882142D02*
X141068966Y-128905951D01*
X141068966Y-128905951D02*
X141021347Y-128905951D01*
X141021347Y-128905951D02*
X140973728Y-128882142D01*
X140973728Y-128882142D02*
X140949919Y-128858332D01*
X140949919Y-128858332D02*
X140926109Y-128810713D01*
X140926109Y-128810713D02*
X140926109Y-128691666D01*
X140926109Y-128691666D02*
X140949919Y-128620237D01*
X141426109Y-128144047D02*
X141426109Y-128429761D01*
X141426109Y-128286904D02*
X140926109Y-128286904D01*
X140926109Y-128286904D02*
X140997538Y-128334523D01*
X140997538Y-128334523D02*
X141045157Y-128382142D01*
X141045157Y-128382142D02*
X141068966Y-128429761D01*
X149402300Y-136905951D02*
X149426109Y-136834523D01*
X149426109Y-136834523D02*
X149426109Y-136715475D01*
X149426109Y-136715475D02*
X149402300Y-136667856D01*
X149402300Y-136667856D02*
X149378490Y-136644047D01*
X149378490Y-136644047D02*
X149330871Y-136620237D01*
X149330871Y-136620237D02*
X149283252Y-136620237D01*
X149283252Y-136620237D02*
X149235633Y-136644047D01*
X149235633Y-136644047D02*
X149211823Y-136667856D01*
X149211823Y-136667856D02*
X149188014Y-136715475D01*
X149188014Y-136715475D02*
X149164204Y-136810713D01*
X149164204Y-136810713D02*
X149140395Y-136858332D01*
X149140395Y-136858332D02*
X149116585Y-136882142D01*
X149116585Y-136882142D02*
X149068966Y-136905951D01*
X149068966Y-136905951D02*
X149021347Y-136905951D01*
X149021347Y-136905951D02*
X148973728Y-136882142D01*
X148973728Y-136882142D02*
X148949919Y-136858332D01*
X148949919Y-136858332D02*
X148926109Y-136810713D01*
X148926109Y-136810713D02*
X148926109Y-136691666D01*
X148926109Y-136691666D02*
X148949919Y-136620237D01*
X149092776Y-136191666D02*
X149426109Y-136191666D01*
X148902300Y-136310714D02*
X149259442Y-136429761D01*
X149259442Y-136429761D02*
X149259442Y-136120238D01*
X141402300Y-144905951D02*
X141426109Y-144834523D01*
X141426109Y-144834523D02*
X141426109Y-144715475D01*
X141426109Y-144715475D02*
X141402300Y-144667856D01*
X141402300Y-144667856D02*
X141378490Y-144644047D01*
X141378490Y-144644047D02*
X141330871Y-144620237D01*
X141330871Y-144620237D02*
X141283252Y-144620237D01*
X141283252Y-144620237D02*
X141235633Y-144644047D01*
X141235633Y-144644047D02*
X141211823Y-144667856D01*
X141211823Y-144667856D02*
X141188014Y-144715475D01*
X141188014Y-144715475D02*
X141164204Y-144810713D01*
X141164204Y-144810713D02*
X141140395Y-144858332D01*
X141140395Y-144858332D02*
X141116585Y-144882142D01*
X141116585Y-144882142D02*
X141068966Y-144905951D01*
X141068966Y-144905951D02*
X141021347Y-144905951D01*
X141021347Y-144905951D02*
X140973728Y-144882142D01*
X140973728Y-144882142D02*
X140949919Y-144858332D01*
X140949919Y-144858332D02*
X140926109Y-144810713D01*
X140926109Y-144810713D02*
X140926109Y-144691666D01*
X140926109Y-144691666D02*
X140949919Y-144620237D01*
X140973728Y-144429761D02*
X140949919Y-144405952D01*
X140949919Y-144405952D02*
X140926109Y-144358333D01*
X140926109Y-144358333D02*
X140926109Y-144239285D01*
X140926109Y-144239285D02*
X140949919Y-144191666D01*
X140949919Y-144191666D02*
X140973728Y-144167857D01*
X140973728Y-144167857D02*
X141021347Y-144144047D01*
X141021347Y-144144047D02*
X141068966Y-144144047D01*
X141068966Y-144144047D02*
X141140395Y-144167857D01*
X141140395Y-144167857D02*
X141426109Y-144453571D01*
X141426109Y-144453571D02*
X141426109Y-144144047D01*
X128464286Y-142614204D02*
X128297619Y-142614204D01*
X128297619Y-142876109D02*
X128297619Y-142376109D01*
X128297619Y-142376109D02*
X128535714Y-142376109D01*
X128726190Y-142876109D02*
X128726190Y-142376109D01*
X128964285Y-142876109D02*
X128964285Y-142376109D01*
X128964285Y-142376109D02*
X129083333Y-142376109D01*
X129083333Y-142376109D02*
X129154761Y-142399919D01*
X129154761Y-142399919D02*
X129202380Y-142447538D01*
X129202380Y-142447538D02*
X129226190Y-142495157D01*
X129226190Y-142495157D02*
X129249999Y-142590395D01*
X129249999Y-142590395D02*
X129249999Y-142661823D01*
X129249999Y-142661823D02*
X129226190Y-142757061D01*
X129226190Y-142757061D02*
X129202380Y-142804680D01*
X129202380Y-142804680D02*
X129154761Y-142852300D01*
X129154761Y-142852300D02*
X129083333Y-142876109D01*
X129083333Y-142876109D02*
X128964285Y-142876109D01*
X129416666Y-142376109D02*
X129726190Y-142376109D01*
X129726190Y-142376109D02*
X129559523Y-142566585D01*
X129559523Y-142566585D02*
X129630952Y-142566585D01*
X129630952Y-142566585D02*
X129678571Y-142590395D01*
X129678571Y-142590395D02*
X129702380Y-142614204D01*
X129702380Y-142614204D02*
X129726190Y-142661823D01*
X129726190Y-142661823D02*
X129726190Y-142780871D01*
X129726190Y-142780871D02*
X129702380Y-142828490D01*
X129702380Y-142828490D02*
X129678571Y-142852300D01*
X129678571Y-142852300D02*
X129630952Y-142876109D01*
X129630952Y-142876109D02*
X129488095Y-142876109D01*
X129488095Y-142876109D02*
X129440476Y-142852300D01*
X129440476Y-142852300D02*
X129416666Y-142828490D01*
X147739286Y-103864204D02*
X147572619Y-103864204D01*
X147572619Y-104126109D02*
X147572619Y-103626109D01*
X147572619Y-103626109D02*
X147810714Y-103626109D01*
X148001190Y-104126109D02*
X148001190Y-103626109D01*
X148239285Y-104126109D02*
X148239285Y-103626109D01*
X148239285Y-103626109D02*
X148358333Y-103626109D01*
X148358333Y-103626109D02*
X148429761Y-103649919D01*
X148429761Y-103649919D02*
X148477380Y-103697538D01*
X148477380Y-103697538D02*
X148501190Y-103745157D01*
X148501190Y-103745157D02*
X148524999Y-103840395D01*
X148524999Y-103840395D02*
X148524999Y-103911823D01*
X148524999Y-103911823D02*
X148501190Y-104007061D01*
X148501190Y-104007061D02*
X148477380Y-104054680D01*
X148477380Y-104054680D02*
X148429761Y-104102300D01*
X148429761Y-104102300D02*
X148358333Y-104126109D01*
X148358333Y-104126109D02*
X148239285Y-104126109D01*
X149001190Y-104126109D02*
X148715476Y-104126109D01*
X148858333Y-104126109D02*
X148858333Y-103626109D01*
X148858333Y-103626109D02*
X148810714Y-103697538D01*
X148810714Y-103697538D02*
X148763095Y-103745157D01*
X148763095Y-103745157D02*
X148715476Y-103768966D01*
X142114286Y-141939204D02*
X141947619Y-141939204D01*
X141947619Y-142201109D02*
X141947619Y-141701109D01*
X141947619Y-141701109D02*
X142185714Y-141701109D01*
X142376190Y-142201109D02*
X142376190Y-141701109D01*
X142614285Y-142201109D02*
X142614285Y-141701109D01*
X142614285Y-141701109D02*
X142733333Y-141701109D01*
X142733333Y-141701109D02*
X142804761Y-141724919D01*
X142804761Y-141724919D02*
X142852380Y-141772538D01*
X142852380Y-141772538D02*
X142876190Y-141820157D01*
X142876190Y-141820157D02*
X142899999Y-141915395D01*
X142899999Y-141915395D02*
X142899999Y-141986823D01*
X142899999Y-141986823D02*
X142876190Y-142082061D01*
X142876190Y-142082061D02*
X142852380Y-142129680D01*
X142852380Y-142129680D02*
X142804761Y-142177300D01*
X142804761Y-142177300D02*
X142733333Y-142201109D01*
X142733333Y-142201109D02*
X142614285Y-142201109D01*
X143352380Y-141701109D02*
X143114285Y-141701109D01*
X143114285Y-141701109D02*
X143090476Y-141939204D01*
X143090476Y-141939204D02*
X143114285Y-141915395D01*
X143114285Y-141915395D02*
X143161904Y-141891585D01*
X143161904Y-141891585D02*
X143280952Y-141891585D01*
X143280952Y-141891585D02*
X143328571Y-141915395D01*
X143328571Y-141915395D02*
X143352380Y-141939204D01*
X143352380Y-141939204D02*
X143376190Y-141986823D01*
X143376190Y-141986823D02*
X143376190Y-142105871D01*
X143376190Y-142105871D02*
X143352380Y-142153490D01*
X143352380Y-142153490D02*
X143328571Y-142177300D01*
X143328571Y-142177300D02*
X143280952Y-142201109D01*
X143280952Y-142201109D02*
X143161904Y-142201109D01*
X143161904Y-142201109D02*
X143114285Y-142177300D01*
X143114285Y-142177300D02*
X143090476Y-142153490D01*
X133402300Y-136905951D02*
X133426109Y-136834523D01*
X133426109Y-136834523D02*
X133426109Y-136715475D01*
X133426109Y-136715475D02*
X133402300Y-136667856D01*
X133402300Y-136667856D02*
X133378490Y-136644047D01*
X133378490Y-136644047D02*
X133330871Y-136620237D01*
X133330871Y-136620237D02*
X133283252Y-136620237D01*
X133283252Y-136620237D02*
X133235633Y-136644047D01*
X133235633Y-136644047D02*
X133211823Y-136667856D01*
X133211823Y-136667856D02*
X133188014Y-136715475D01*
X133188014Y-136715475D02*
X133164204Y-136810713D01*
X133164204Y-136810713D02*
X133140395Y-136858332D01*
X133140395Y-136858332D02*
X133116585Y-136882142D01*
X133116585Y-136882142D02*
X133068966Y-136905951D01*
X133068966Y-136905951D02*
X133021347Y-136905951D01*
X133021347Y-136905951D02*
X132973728Y-136882142D01*
X132973728Y-136882142D02*
X132949919Y-136858332D01*
X132949919Y-136858332D02*
X132926109Y-136810713D01*
X132926109Y-136810713D02*
X132926109Y-136691666D01*
X132926109Y-136691666D02*
X132949919Y-136620237D01*
X132926109Y-136453571D02*
X132926109Y-136144047D01*
X132926109Y-136144047D02*
X133116585Y-136310714D01*
X133116585Y-136310714D02*
X133116585Y-136239285D01*
X133116585Y-136239285D02*
X133140395Y-136191666D01*
X133140395Y-136191666D02*
X133164204Y-136167857D01*
X133164204Y-136167857D02*
X133211823Y-136144047D01*
X133211823Y-136144047D02*
X133330871Y-136144047D01*
X133330871Y-136144047D02*
X133378490Y-136167857D01*
X133378490Y-136167857D02*
X133402300Y-136191666D01*
X133402300Y-136191666D02*
X133426109Y-136239285D01*
X133426109Y-136239285D02*
X133426109Y-136382142D01*
X133426109Y-136382142D02*
X133402300Y-136429761D01*
X133402300Y-136429761D02*
X133378490Y-136453571D01*
X126478568Y-143982684D02*
X126512240Y-144050027D01*
X126512240Y-144050027D02*
X126596419Y-144134206D01*
X126596419Y-144134206D02*
X126646927Y-144151042D01*
X126646927Y-144151042D02*
X126680599Y-144151042D01*
X126680599Y-144151042D02*
X126731106Y-144134206D01*
X126731106Y-144134206D02*
X126764778Y-144100535D01*
X126764778Y-144100535D02*
X126781614Y-144050027D01*
X126781614Y-144050027D02*
X126781614Y-144016355D01*
X126781614Y-144016355D02*
X126764778Y-143965848D01*
X126764778Y-143965848D02*
X126714270Y-143881668D01*
X126714270Y-143881668D02*
X126697435Y-143831161D01*
X126697435Y-143831161D02*
X126697435Y-143797489D01*
X126697435Y-143797489D02*
X126714270Y-143746981D01*
X126714270Y-143746981D02*
X126747942Y-143713310D01*
X126747942Y-143713310D02*
X126798450Y-143696474D01*
X126798450Y-143696474D02*
X126832122Y-143696474D01*
X126832122Y-143696474D02*
X126882629Y-143713310D01*
X126882629Y-143713310D02*
X126966809Y-143797489D01*
X126966809Y-143797489D02*
X127000480Y-143864832D01*
X126832121Y-144369908D02*
X126899465Y-144437252D01*
X126899465Y-144437252D02*
X126949972Y-144454088D01*
X126949972Y-144454088D02*
X126983644Y-144454088D01*
X126983644Y-144454088D02*
X127067823Y-144437252D01*
X127067823Y-144437252D02*
X127152003Y-144386744D01*
X127152003Y-144386744D02*
X127286690Y-144252057D01*
X127286690Y-144252057D02*
X127303526Y-144201550D01*
X127303526Y-144201550D02*
X127303526Y-144167878D01*
X127303526Y-144167878D02*
X127286690Y-144117370D01*
X127286690Y-144117370D02*
X127219346Y-144050027D01*
X127219346Y-144050027D02*
X127168839Y-144033191D01*
X127168839Y-144033191D02*
X127135167Y-144033191D01*
X127135167Y-144033191D02*
X127084659Y-144050027D01*
X127084659Y-144050027D02*
X127000480Y-144134206D01*
X127000480Y-144134206D02*
X126983644Y-144184714D01*
X126983644Y-144184714D02*
X126983644Y-144218385D01*
X126983644Y-144218385D02*
X127000480Y-144268893D01*
X127000480Y-144268893D02*
X127067823Y-144336237D01*
X127067823Y-144336237D02*
X127118331Y-144353072D01*
X127118331Y-144353072D02*
X127152003Y-144353072D01*
X127152003Y-144353072D02*
X127202510Y-144336237D01*
X125125662Y-129959713D02*
X125125662Y-130316856D01*
X125125662Y-130316856D02*
X125101853Y-130388284D01*
X125101853Y-130388284D02*
X125054234Y-130435904D01*
X125054234Y-130435904D02*
X124982805Y-130459713D01*
X124982805Y-130459713D02*
X124935186Y-130459713D01*
X125316138Y-129959713D02*
X125625662Y-129959713D01*
X125625662Y-129959713D02*
X125458995Y-130150189D01*
X125458995Y-130150189D02*
X125530424Y-130150189D01*
X125530424Y-130150189D02*
X125578043Y-130173999D01*
X125578043Y-130173999D02*
X125601852Y-130197808D01*
X125601852Y-130197808D02*
X125625662Y-130245427D01*
X125625662Y-130245427D02*
X125625662Y-130364475D01*
X125625662Y-130364475D02*
X125601852Y-130412094D01*
X125601852Y-130412094D02*
X125578043Y-130435904D01*
X125578043Y-130435904D02*
X125530424Y-130459713D01*
X125530424Y-130459713D02*
X125387567Y-130459713D01*
X125387567Y-130459713D02*
X125339948Y-130435904D01*
X125339948Y-130435904D02*
X125316138Y-130412094D01*
X126764664Y-99303411D02*
X126832007Y-99269739D01*
X126832007Y-99269739D02*
X126916186Y-99185560D01*
X126916186Y-99185560D02*
X126933022Y-99135052D01*
X126933022Y-99135052D02*
X126933022Y-99101380D01*
X126933022Y-99101380D02*
X126916186Y-99050873D01*
X126916186Y-99050873D02*
X126882515Y-99017201D01*
X126882515Y-99017201D02*
X126832007Y-99000365D01*
X126832007Y-99000365D02*
X126798335Y-99000365D01*
X126798335Y-99000365D02*
X126747828Y-99017201D01*
X126747828Y-99017201D02*
X126663648Y-99067709D01*
X126663648Y-99067709D02*
X126613141Y-99084544D01*
X126613141Y-99084544D02*
X126579469Y-99084544D01*
X126579469Y-99084544D02*
X126528961Y-99067709D01*
X126528961Y-99067709D02*
X126495290Y-99034037D01*
X126495290Y-99034037D02*
X126478454Y-98983529D01*
X126478454Y-98983529D02*
X126478454Y-98949857D01*
X126478454Y-98949857D02*
X126495290Y-98899350D01*
X126495290Y-98899350D02*
X126579469Y-98815170D01*
X126579469Y-98815170D02*
X126646812Y-98781499D01*
X126933022Y-98461617D02*
X126865678Y-98528961D01*
X126865678Y-98528961D02*
X126848843Y-98579469D01*
X126848843Y-98579469D02*
X126848843Y-98613140D01*
X126848843Y-98613140D02*
X126865678Y-98697320D01*
X126865678Y-98697320D02*
X126916186Y-98781499D01*
X126916186Y-98781499D02*
X127050873Y-98916186D01*
X127050873Y-98916186D02*
X127101381Y-98933022D01*
X127101381Y-98933022D02*
X127135052Y-98933022D01*
X127135052Y-98933022D02*
X127185560Y-98916186D01*
X127185560Y-98916186D02*
X127252904Y-98848843D01*
X127252904Y-98848843D02*
X127269739Y-98798335D01*
X127269739Y-98798335D02*
X127269739Y-98764663D01*
X127269739Y-98764663D02*
X127252904Y-98714156D01*
X127252904Y-98714156D02*
X127168724Y-98629976D01*
X127168724Y-98629976D02*
X127118217Y-98613140D01*
X127118217Y-98613140D02*
X127084545Y-98613140D01*
X127084545Y-98613140D02*
X127034037Y-98629976D01*
X127034037Y-98629976D02*
X126966694Y-98697320D01*
X126966694Y-98697320D02*
X126949858Y-98747827D01*
X126949858Y-98747827D02*
X126949858Y-98781499D01*
X126949858Y-98781499D02*
X126966694Y-98832007D01*
X149555953Y-146702300D02*
X149627381Y-146726109D01*
X149627381Y-146726109D02*
X149746429Y-146726109D01*
X149746429Y-146726109D02*
X149794048Y-146702300D01*
X149794048Y-146702300D02*
X149817857Y-146678490D01*
X149817857Y-146678490D02*
X149841667Y-146630871D01*
X149841667Y-146630871D02*
X149841667Y-146583252D01*
X149841667Y-146583252D02*
X149817857Y-146535633D01*
X149817857Y-146535633D02*
X149794048Y-146511823D01*
X149794048Y-146511823D02*
X149746429Y-146488014D01*
X149746429Y-146488014D02*
X149651191Y-146464204D01*
X149651191Y-146464204D02*
X149603572Y-146440395D01*
X149603572Y-146440395D02*
X149579762Y-146416585D01*
X149579762Y-146416585D02*
X149555953Y-146368966D01*
X149555953Y-146368966D02*
X149555953Y-146321347D01*
X149555953Y-146321347D02*
X149579762Y-146273728D01*
X149579762Y-146273728D02*
X149603572Y-146249919D01*
X149603572Y-146249919D02*
X149651191Y-146226109D01*
X149651191Y-146226109D02*
X149770238Y-146226109D01*
X149770238Y-146226109D02*
X149841667Y-146249919D01*
X150317857Y-146726109D02*
X150032143Y-146726109D01*
X150175000Y-146726109D02*
X150175000Y-146226109D01*
X150175000Y-146226109D02*
X150127381Y-146297538D01*
X150127381Y-146297538D02*
X150079762Y-146345157D01*
X150079762Y-146345157D02*
X150032143Y-146368966D01*
X150794047Y-146726109D02*
X150508333Y-146726109D01*
X150651190Y-146726109D02*
X150651190Y-146226109D01*
X150651190Y-146226109D02*
X150603571Y-146297538D01*
X150603571Y-146297538D02*
X150555952Y-146345157D01*
X150555952Y-146345157D02*
X150508333Y-146368966D01*
X147919048Y-96752300D02*
X147990476Y-96776109D01*
X147990476Y-96776109D02*
X148109524Y-96776109D01*
X148109524Y-96776109D02*
X148157143Y-96752300D01*
X148157143Y-96752300D02*
X148180952Y-96728490D01*
X148180952Y-96728490D02*
X148204762Y-96680871D01*
X148204762Y-96680871D02*
X148204762Y-96633252D01*
X148204762Y-96633252D02*
X148180952Y-96585633D01*
X148180952Y-96585633D02*
X148157143Y-96561823D01*
X148157143Y-96561823D02*
X148109524Y-96538014D01*
X148109524Y-96538014D02*
X148014286Y-96514204D01*
X148014286Y-96514204D02*
X147966667Y-96490395D01*
X147966667Y-96490395D02*
X147942857Y-96466585D01*
X147942857Y-96466585D02*
X147919048Y-96418966D01*
X147919048Y-96418966D02*
X147919048Y-96371347D01*
X147919048Y-96371347D02*
X147942857Y-96323728D01*
X147942857Y-96323728D02*
X147966667Y-96299919D01*
X147966667Y-96299919D02*
X148014286Y-96276109D01*
X148014286Y-96276109D02*
X148133333Y-96276109D01*
X148133333Y-96276109D02*
X148204762Y-96299919D01*
X148490476Y-96490395D02*
X148442857Y-96466585D01*
X148442857Y-96466585D02*
X148419047Y-96442776D01*
X148419047Y-96442776D02*
X148395238Y-96395157D01*
X148395238Y-96395157D02*
X148395238Y-96371347D01*
X148395238Y-96371347D02*
X148419047Y-96323728D01*
X148419047Y-96323728D02*
X148442857Y-96299919D01*
X148442857Y-96299919D02*
X148490476Y-96276109D01*
X148490476Y-96276109D02*
X148585714Y-96276109D01*
X148585714Y-96276109D02*
X148633333Y-96299919D01*
X148633333Y-96299919D02*
X148657142Y-96323728D01*
X148657142Y-96323728D02*
X148680952Y-96371347D01*
X148680952Y-96371347D02*
X148680952Y-96395157D01*
X148680952Y-96395157D02*
X148657142Y-96442776D01*
X148657142Y-96442776D02*
X148633333Y-96466585D01*
X148633333Y-96466585D02*
X148585714Y-96490395D01*
X148585714Y-96490395D02*
X148490476Y-96490395D01*
X148490476Y-96490395D02*
X148442857Y-96514204D01*
X148442857Y-96514204D02*
X148419047Y-96538014D01*
X148419047Y-96538014D02*
X148395238Y-96585633D01*
X148395238Y-96585633D02*
X148395238Y-96680871D01*
X148395238Y-96680871D02*
X148419047Y-96728490D01*
X148419047Y-96728490D02*
X148442857Y-96752300D01*
X148442857Y-96752300D02*
X148490476Y-96776109D01*
X148490476Y-96776109D02*
X148585714Y-96776109D01*
X148585714Y-96776109D02*
X148633333Y-96752300D01*
X148633333Y-96752300D02*
X148657142Y-96728490D01*
X148657142Y-96728490D02*
X148680952Y-96680871D01*
X148680952Y-96680871D02*
X148680952Y-96585633D01*
X148680952Y-96585633D02*
X148657142Y-96538014D01*
X148657142Y-96538014D02*
X148633333Y-96514204D01*
X148633333Y-96514204D02*
X148585714Y-96490395D01*
%TO.C,C4*%
X122030000Y-132180000D02*
X123980000Y-132180000D01*
X122030000Y-133230000D02*
X122030000Y-132180000D01*
X123980000Y-132180000D02*
X123980000Y-133230000D01*
X123980000Y-133230000D02*
X122030000Y-133230000D01*
%TO.C,S5*%
X144200000Y-118248763D02*
X150799671Y-118248763D01*
X144200000Y-118750000D02*
X144200000Y-118250000D01*
X144200000Y-124250000D02*
X144200000Y-124750000D01*
X146250000Y-119500000D02*
X148750000Y-119500000D01*
X146250000Y-123500000D02*
X148750000Y-123500000D01*
X147500000Y-119500000D02*
X147500000Y-121000000D01*
X147500000Y-121000000D02*
X148225000Y-121725000D01*
X147500000Y-122000000D02*
X147500000Y-123500000D01*
X150800000Y-118750000D02*
X150800000Y-118250000D01*
X150800000Y-124250000D02*
X150800000Y-124750000D01*
X150800000Y-124750000D02*
X144206186Y-124750000D01*
X147641421Y-121850000D02*
G75*
G02*
X147358579Y-121850000I-141421J0D01*
G01*
X147358579Y-121850000D02*
G75*
G02*
X147641421Y-121850000I141421J0D01*
G01*
%TO.C,C2*%
X121125000Y-130075000D02*
X124075000Y-130075000D01*
X121125000Y-131925000D02*
X121125000Y-130075000D01*
X124075000Y-130075000D02*
X124075000Y-131925000D01*
X124075000Y-131925000D02*
X121125000Y-131925000D01*
%TO.C,S1*%
X134250000Y-131800000D02*
X134250000Y-125206186D01*
X134750000Y-125200000D02*
X134250000Y-125200000D01*
X134750000Y-131800000D02*
X134250000Y-131800000D01*
X135500000Y-127250000D02*
X135500000Y-129750000D01*
X137000000Y-128500000D02*
X135500000Y-128500000D01*
X138000000Y-128500000D02*
X137275000Y-129225000D01*
X139500000Y-127250000D02*
X139500000Y-129750000D01*
X139500000Y-128500000D02*
X138000000Y-128500000D01*
X140250000Y-125200000D02*
X140750000Y-125200000D01*
X140250000Y-131800000D02*
X140750000Y-131800000D01*
X140751237Y-125200000D02*
X140751237Y-131799671D01*
X137291421Y-128500000D02*
G75*
G02*
X137008579Y-128500000I-141421J0D01*
G01*
X137008579Y-128500000D02*
G75*
G02*
X137291421Y-128500000I141421J0D01*
G01*
%TO.C,S4*%
X142250000Y-139800000D02*
X142250000Y-133206186D01*
X142750000Y-133200000D02*
X142250000Y-133200000D01*
X142750000Y-139800000D02*
X142250000Y-139800000D01*
X143500000Y-135250000D02*
X143500000Y-137750000D01*
X145000000Y-136500000D02*
X143500000Y-136500000D01*
X146000000Y-136500000D02*
X145275000Y-137225000D01*
X147500000Y-135250000D02*
X147500000Y-137750000D01*
X147500000Y-136500000D02*
X146000000Y-136500000D01*
X148250000Y-133200000D02*
X148750000Y-133200000D01*
X148250000Y-139800000D02*
X148750000Y-139800000D01*
X148751237Y-133200000D02*
X148751237Y-139799671D01*
X145291421Y-136500000D02*
G75*
G02*
X145008579Y-136500000I-141421J0D01*
G01*
X145008579Y-136500000D02*
G75*
G02*
X145291421Y-136500000I141421J0D01*
G01*
%TO.C,S2*%
X134250000Y-147800000D02*
X134250000Y-141206186D01*
X134750000Y-141200000D02*
X134250000Y-141200000D01*
X134750000Y-147800000D02*
X134250000Y-147800000D01*
X135500000Y-143250000D02*
X135500000Y-145750000D01*
X137000000Y-144500000D02*
X135500000Y-144500000D01*
X138000000Y-144500000D02*
X137275000Y-145225000D01*
X139500000Y-143250000D02*
X139500000Y-145750000D01*
X139500000Y-144500000D02*
X138000000Y-144500000D01*
X140250000Y-141200000D02*
X140750000Y-141200000D01*
X140250000Y-147800000D02*
X140750000Y-147800000D01*
X140751237Y-141200000D02*
X140751237Y-147799671D01*
X137291421Y-144500000D02*
G75*
G02*
X137008579Y-144500000I-141421J0D01*
G01*
X137008579Y-144500000D02*
G75*
G02*
X137291421Y-144500000I141421J0D01*
G01*
%TO.C,S3*%
X126250000Y-139800000D02*
X126250000Y-133206186D01*
X126750000Y-133200000D02*
X126250000Y-133200000D01*
X126750000Y-139800000D02*
X126250000Y-139800000D01*
X127500000Y-135250000D02*
X127500000Y-137750000D01*
X129000000Y-136500000D02*
X127500000Y-136500000D01*
X130000000Y-136500000D02*
X129275000Y-137225000D01*
X131500000Y-135250000D02*
X131500000Y-137750000D01*
X131500000Y-136500000D02*
X130000000Y-136500000D01*
X132250000Y-133200000D02*
X132750000Y-133200000D01*
X132250000Y-139800000D02*
X132750000Y-139800000D01*
X132751237Y-133200000D02*
X132751237Y-139799671D01*
X129291421Y-136500000D02*
G75*
G02*
X129008579Y-136500000I-141421J0D01*
G01*
X129008579Y-136500000D02*
G75*
G02*
X129291421Y-136500000I141421J0D01*
G01*
%TO.C,S9*%
X122245249Y-145219217D02*
X123005389Y-145979357D01*
X122277119Y-146707627D02*
X124292373Y-148722881D01*
X122386671Y-145077796D02*
X122245249Y-145219217D01*
X123005389Y-145979357D02*
X122277119Y-146707627D01*
X123178680Y-147114214D02*
X123532233Y-146760660D01*
X123355456Y-146760660D02*
X123532233Y-146760660D01*
X123532233Y-146760660D02*
X123355456Y-146760660D01*
X123532233Y-146760660D02*
X123532233Y-146937437D01*
X123885786Y-147821320D02*
X124239340Y-147467767D01*
X124062563Y-147467767D02*
X124239340Y-147467767D01*
X124239340Y-147467767D02*
X124062563Y-147467767D01*
X124239340Y-147467767D02*
X124239340Y-147644544D01*
X124698959Y-142765507D02*
X124840381Y-142624086D01*
X124840381Y-142624086D02*
X126360660Y-144144365D01*
X125020643Y-147994611D02*
X124292373Y-148722881D01*
X125020643Y-147994611D02*
X125780783Y-148754751D01*
X125922204Y-148613329D02*
X125780783Y-148754751D01*
X128234493Y-146301041D02*
X128375914Y-146159619D01*
X128375914Y-146159619D02*
X126855635Y-144639340D01*
%TO.C,J3*%
X126798395Y-129308605D02*
G75*
G02*
X126586263Y-129308605I-106066J0D01*
G01*
X126586263Y-129308605D02*
G75*
G02*
X126798395Y-129308605I106066J0D01*
G01*
X129392329Y-126083605D02*
X129392329Y-124483605D01*
X129392329Y-124483605D02*
X129392329Y-123083605D01*
X129392329Y-124483605D02*
X121192329Y-124483605D01*
X129392329Y-123083605D02*
X121192329Y-123083605D01*
X128617329Y-127233605D02*
X128617329Y-126083605D01*
X128617329Y-126083605D02*
X129392329Y-126083605D01*
X127517329Y-123733605D02*
X129117329Y-123733605D01*
X125292329Y-126483605D02*
X125542329Y-126233605D01*
X125292329Y-126483605D02*
X125042329Y-126233605D01*
X125292329Y-125483605D02*
X125292329Y-126483605D01*
X121967329Y-127233605D02*
X121967329Y-126083605D01*
X121967329Y-126083605D02*
X121192329Y-126083605D01*
X121492329Y-123708605D02*
X123092329Y-123708605D01*
X121192329Y-126083605D02*
X121192329Y-124483605D01*
X121192329Y-123083605D02*
X121192329Y-124483605D01*
%TO.C,S6*%
X122386671Y-97922204D02*
X122245249Y-97780783D01*
X123005389Y-97020643D02*
X122245249Y-97780783D01*
X123005389Y-97020643D02*
X122277119Y-96292373D01*
X123178680Y-95885786D02*
X123532233Y-96239340D01*
X123532233Y-96062563D02*
X123532233Y-96239340D01*
X123532233Y-96239340D02*
X123355456Y-96239340D01*
X123532233Y-96239340D02*
X123532233Y-96062563D01*
X123885786Y-95178680D02*
X124239340Y-95532233D01*
X124239340Y-95355456D02*
X124239340Y-95532233D01*
X124239340Y-95532233D02*
X124062563Y-95532233D01*
X124239340Y-95532233D02*
X124239340Y-95355456D01*
X124292373Y-94277119D02*
X122277119Y-96292373D01*
X124698959Y-100234493D02*
X124840381Y-100375914D01*
X124840381Y-100375914D02*
X126360660Y-98855635D01*
X125020643Y-95005389D02*
X124292373Y-94277119D01*
X125780783Y-94245249D02*
X125020643Y-95005389D01*
X125922204Y-94386671D02*
X125780783Y-94245249D01*
X128234493Y-96698959D02*
X128375914Y-96840381D01*
X128375914Y-96840381D02*
X126855635Y-98360660D01*
%TO.C,S11*%
X145800000Y-146850000D02*
X147950000Y-146850000D01*
X145800000Y-147050000D02*
X145800000Y-146850000D01*
X145800000Y-150320070D02*
X145800000Y-150520070D01*
X145800000Y-150520070D02*
X146875000Y-150520070D01*
X146875000Y-150520070D02*
X146875000Y-151550000D01*
X146875000Y-151550000D02*
X149725000Y-151550000D01*
X147675000Y-150825000D02*
X147800000Y-150700000D01*
X147800000Y-150700000D02*
X147675000Y-150825000D01*
X147800000Y-150700000D02*
X147925000Y-150825000D01*
X147800000Y-151200000D02*
X147800000Y-150700000D01*
X148675000Y-150825000D02*
X148800000Y-150700000D01*
X148800000Y-150700000D02*
X148675000Y-150825000D01*
X148800000Y-150700000D02*
X148925000Y-150825000D01*
X148800000Y-151200000D02*
X148800000Y-150700000D01*
X149725000Y-150520070D02*
X149725000Y-151550000D01*
X149725000Y-150520070D02*
X150800000Y-150520070D01*
X150800000Y-146850000D02*
X148650000Y-146850000D01*
X150800000Y-147050000D02*
X150800000Y-146850000D01*
X150800000Y-150320070D02*
X150800000Y-150520070D01*
%TO.C,S8*%
X145800000Y-92679930D02*
X145800000Y-92479930D01*
X145800000Y-95950000D02*
X145800000Y-96150000D01*
X145800000Y-96150000D02*
X147950000Y-96150000D01*
X146875000Y-92479930D02*
X145800000Y-92479930D01*
X146875000Y-92479930D02*
X146875000Y-91450000D01*
X147800000Y-91800000D02*
X147800000Y-92300000D01*
X147800000Y-92300000D02*
X147675000Y-92175000D01*
X147800000Y-92300000D02*
X147925000Y-92175000D01*
X147925000Y-92175000D02*
X147800000Y-92300000D01*
X148800000Y-91800000D02*
X148800000Y-92300000D01*
X148800000Y-92300000D02*
X148675000Y-92175000D01*
X148800000Y-92300000D02*
X148925000Y-92175000D01*
X148925000Y-92175000D02*
X148800000Y-92300000D01*
X149725000Y-91450000D02*
X146875000Y-91450000D01*
X149725000Y-92479930D02*
X149725000Y-91450000D01*
X150800000Y-92479930D02*
X149725000Y-92479930D01*
X150800000Y-92679930D02*
X150800000Y-92479930D01*
X150800000Y-95950000D02*
X150800000Y-96150000D01*
X150800000Y-96150000D02*
X148650000Y-96150000D01*
%TD*%
M02*
