%TF.GenerationSoftware,KiCad,Pcbnew,10.0.0*%
%TF.CreationDate,2026-08-05T19:39:12-04:00*%
%TF.ProjectId,ConJoy_KiCad,436f6e4a-6f79-45f4-9b69-4361642e6b69,1.00-0A*%
%TF.SameCoordinates,Original*%
%TF.FileFunction,Copper,L2,Bot*%
%TF.FilePolarity,Positive*%
%FSLAX46Y46*%
G04 Gerber Fmt 4.6, Leading zero omitted, Abs format (unit mm)*
G04 Created by KiCad (PCBNEW 10.0.0) date 2026-08-05 19:39:12*
%MOMM*%
%LPD*%
G01*
G04 APERTURE LIST*
G04 Aperture macros list*
%AMRoundRect*
0 Rectangle with rounded corners*
0 $1 Rounding radius*
0 $2 $3 $4 $5 $6 $7 $8 $9 X,Y pos of 4 corners*
0 Add a 4 corners polygon primitive as box body*
4,1,4,$2,$3,$4,$5,$6,$7,$8,$9,$2,$3,0*
0 Add four circle primitives for the rounded corners*
1,1,$1+$1,$2,$3*
1,1,$1+$1,$4,$5*
1,1,$1+$1,$6,$7*
1,1,$1+$1,$8,$9*
0 Add four rect primitives between the rounded corners*
20,1,$1+$1,$2,$3,$4,$5,0*
20,1,$1+$1,$4,$5,$6,$7,0*
20,1,$1+$1,$6,$7,$8,$9,0*
20,1,$1+$1,$8,$9,$2,$3,0*%
G04 Aperture macros list end*
%TA.AperFunction,EtchedComponent*%
%ADD10C,0.100000*%
%TD*%
%TA.AperFunction,EtchedComponent*%
%ADD11C,0.200000*%
%TD*%
%TA.AperFunction,SMDPad,CuDef*%
%ADD12RoundRect,0.135000X-0.340000X0.315000X-0.340000X-0.315000X0.340000X-0.315000X0.340000X0.315000X0*%
%TD*%
%TA.AperFunction,SMDPad,CuDef*%
%ADD13C,1.000000*%
%TD*%
%TA.AperFunction,SMDPad,CuDef*%
%ADD14RoundRect,0.127500X0.622500X-0.297500X0.622500X0.297500X-0.622500X0.297500X-0.622500X-0.297500X0*%
%TD*%
%TA.AperFunction,SMDPad,CuDef*%
%ADD15RoundRect,0.150000X-0.350000X1.450000X-0.350000X-1.450000X0.350000X-1.450000X0.350000X1.450000X0*%
%TD*%
%TA.AperFunction,SMDPad,CuDef*%
%ADD16RoundRect,0.045000X-0.555000X0.105000X-0.555000X-0.105000X0.555000X-0.105000X0.555000X0.105000X0*%
%TD*%
%TA.AperFunction,SMDPad,CuDef*%
%ADD17RoundRect,0.090000X0.260000X-0.210000X0.260000X0.210000X-0.260000X0.210000X-0.260000X-0.210000X0*%
%TD*%
%TA.AperFunction,SMDPad,CuDef*%
%ADD18RoundRect,0.120000X-0.280000X-0.680000X0.280000X-0.680000X0.280000X0.680000X-0.280000X0.680000X0*%
%TD*%
%TA.AperFunction,SMDPad,CuDef*%
%ADD19RoundRect,0.120000X0.280000X0.680000X-0.280000X0.680000X-0.280000X-0.680000X0.280000X-0.680000X0*%
%TD*%
%TA.AperFunction,ViaPad*%
%ADD20C,0.600000*%
%TD*%
%TA.AperFunction,Conductor*%
%ADD21C,0.200000*%
%TD*%
%TA.AperFunction,Conductor*%
%ADD22C,0.500000*%
%TD*%
G04 APERTURE END LIST*
%TO.C,J4*%
D10*
X156850000Y-112950000D02*
X158150000Y-112950000D01*
X158150000Y-114950000D01*
X156850000Y-114950000D01*
X156850000Y-112950000D01*
%TA.AperFunction,EtchedComponent*%
G36*
X156850000Y-112950000D02*
G01*
X158150000Y-112950000D01*
X158150000Y-114950000D01*
X156850000Y-114950000D01*
X156850000Y-112950000D01*
G37*
%TD.AperFunction*%
X156850000Y-128050000D02*
X158150000Y-128050000D01*
X158150000Y-130050000D01*
X156850000Y-130050000D01*
X156850000Y-128050000D01*
%TA.AperFunction,EtchedComponent*%
G36*
X156850000Y-128050000D02*
G01*
X158150000Y-128050000D01*
X158150000Y-130050000D01*
X156850000Y-130050000D01*
X156850000Y-128050000D01*
G37*
%TD.AperFunction*%
%TO.C,J2*%
D11*
X151450000Y-133200000D02*
X153550000Y-133200000D01*
X153550000Y-136200000D01*
X151450000Y-136200000D01*
X151450000Y-133200000D01*
%TA.AperFunction,EtchedComponent*%
G36*
X151450000Y-133200000D02*
G01*
X153550000Y-133200000D01*
X153550000Y-136200000D01*
X151450000Y-136200000D01*
X151450000Y-133200000D01*
G37*
%TD.AperFunction*%
X157450000Y-133200000D02*
X159550000Y-133200000D01*
X159550000Y-136200000D01*
X157450000Y-136200000D01*
X157450000Y-133200000D01*
%TA.AperFunction,EtchedComponent*%
G36*
X157450000Y-133200000D02*
G01*
X159550000Y-133200000D01*
X159550000Y-136200000D01*
X157450000Y-136200000D01*
X157450000Y-133200000D01*
G37*
%TD.AperFunction*%
%TO.C,J1*%
X151450000Y-106799999D02*
X153550000Y-106799999D01*
X153550000Y-109799999D01*
X151450000Y-109799999D01*
X151450000Y-106799999D01*
%TA.AperFunction,EtchedComponent*%
G36*
X151450000Y-106799999D02*
G01*
X153550000Y-106799999D01*
X153550000Y-109799999D01*
X151450000Y-109799999D01*
X151450000Y-106799999D01*
G37*
%TD.AperFunction*%
X157450000Y-106799999D02*
X159550000Y-106799999D01*
X159550000Y-109799999D01*
X157450000Y-109799999D01*
X157450000Y-106799999D01*
%TA.AperFunction,EtchedComponent*%
G36*
X157450000Y-106799999D02*
G01*
X159550000Y-106799999D01*
X159550000Y-109799999D01*
X157450000Y-109799999D01*
X157450000Y-106799999D01*
G37*
%TD.AperFunction*%
%TD*%
D12*
%TO.P,D1,1,K_1*%
%TO.N,3V3*%
X149200000Y-126525000D03*
%TO.P,D1,2,A_2*%
%TO.N,GND*%
X149200000Y-130175000D03*
%TD*%
D13*
%TO.P,FID6,1*%
%TO.N,unconnected-(FID6-Pad1)*%
X142650000Y-143425000D03*
%TD*%
D14*
%TO.P,C1,1*%
%TO.N,GND*%
X151270000Y-128275000D03*
%TO.P,C1,2*%
%TO.N,3V3*%
X151270000Y-126525000D03*
%TD*%
D15*
%TO.P,S7,1*%
%TO.N,GND*%
X122200000Y-104300000D03*
X122200000Y-110900000D03*
%TO.P,S7,2*%
%TO.N,/L_R_L2_TRIG*%
X126200000Y-104300000D03*
X126200000Y-110900000D03*
%TD*%
D13*
%TO.P,FID2,1*%
%TO.N,unconnected-(FID2-Pad1)*%
X148275000Y-105350000D03*
%TD*%
%TO.P,FID4,1*%
%TO.N,unconnected-(FID4-Pad1)*%
X129000000Y-144100000D03*
%TD*%
D15*
%TO.P,S10,1*%
%TO.N,GND*%
X122200000Y-132100000D03*
X122200000Y-138700000D03*
%TO.P,S10,2*%
%TO.N,/L_R_L2_TRIG*%
X126200000Y-132100000D03*
X126200000Y-138700000D03*
%TD*%
D16*
%TO.P,J4,1,1_1*%
%TO.N,GND*%
X154800000Y-116250000D03*
%TO.P,J4,2,2_2*%
%TO.N,/L_HOME{slash}R_EXTRA*%
X154800000Y-116750000D03*
%TO.P,J4,3,3_3*%
%TO.N,/L_R_L2_TRIG*%
X154800000Y-117250000D03*
%TO.P,J4,4,4_4*%
%TO.N,/L_R_L1_TRIG*%
X154800000Y-117750000D03*
%TO.P,J4,5,5_5*%
%TO.N,GND*%
X154800000Y-118250000D03*
%TO.P,J4,6,6_6*%
%TO.N,/L_START{slash}R_SELECT*%
X154800000Y-118750000D03*
%TO.P,J4,7,7_7*%
%TO.N,/L_DPAD_RIGHT{slash}R_BTN_Y*%
X154800000Y-119250000D03*
%TO.P,J4,8,8_8*%
%TO.N,/L_DPAD_LEFT{slash}R_BTN_X*%
X154800000Y-119750000D03*
%TO.P,J4,9,9_9*%
%TO.N,GND*%
X154800000Y-120250000D03*
%TO.P,J4,10,10_10*%
%TO.N,/L_DPAD_DOWN{slash}R_BTN_B*%
X154800000Y-120750000D03*
%TO.P,J4,11,11_11*%
%TO.N,/L_DPAD_UP{slash}R_BTN_A*%
X154800000Y-121250000D03*
%TO.P,J4,12,12_12*%
%TO.N,/L_R_THUMBST_SW*%
X154800000Y-121750000D03*
%TO.P,J4,13,13_13*%
%TO.N,GND*%
X154800000Y-122250000D03*
%TO.P,J4,14,14_14*%
%TO.N,/L_R_THUMBST_Y*%
X154800000Y-122750000D03*
%TO.P,J4,15,15_15*%
%TO.N,/L_R_THUMBST_X*%
X154800000Y-123250000D03*
%TO.P,J4,16,16_16*%
%TO.N,unconnected-(J4-Pad16)*%
X154800000Y-123750000D03*
%TO.P,J4,17,17_17*%
%TO.N,GND*%
X154800000Y-124250000D03*
%TO.P,J4,18,18_18*%
%TO.N,/L_R_SPKOUT*%
X154800000Y-124750000D03*
%TO.P,J4,19,19_19*%
X154800000Y-125250000D03*
%TO.P,J4,20,20_20*%
%TO.N,3V3*%
X154800000Y-125750000D03*
%TO.P,J4,21,21_21*%
X154800000Y-126250000D03*
%TO.P,J4,22,22_22*%
X154800000Y-126750000D03*
%TD*%
D17*
%TO.P,C3,1*%
%TO.N,GND*%
X153080000Y-127754999D03*
%TO.P,C3,2*%
%TO.N,3V3*%
X153080000Y-126755001D03*
%TD*%
D18*
%TO.P,J2,1,1_1*%
%TO.N,/L_R_SPKOUT*%
X156125000Y-131700000D03*
%TO.P,J2,2,2_2*%
%TO.N,GND*%
X154875000Y-131700000D03*
%TD*%
D19*
%TO.P,J1,1,1_1*%
%TO.N,/L_R_SPKOUT*%
X154875000Y-111299999D03*
%TO.P,J1,2,2_2*%
%TO.N,GND*%
X156125000Y-111299999D03*
%TD*%
D20*
%TO.N,/L_DPAD_DOWN{slash}R_BTN_B*%
X135500000Y-138700000D03*
%TO.N,GND*%
X120620000Y-133410000D03*
X120620000Y-135509999D03*
X120610661Y-129217641D03*
X120610661Y-127117641D03*
X120610661Y-131317640D03*
X121300000Y-129500000D03*
X151400000Y-101400000D03*
X135400000Y-92600000D03*
X159400000Y-125699999D03*
X159400000Y-129900000D03*
X159400000Y-115200000D03*
X128900000Y-96900000D03*
X159400000Y-117300000D03*
X120600000Y-120800000D03*
X153250000Y-131250000D03*
X159400000Y-119400000D03*
X151400000Y-105600000D03*
X156250000Y-124250000D03*
X120600000Y-125000000D03*
X156250000Y-122250000D03*
X135400000Y-150400000D03*
X151400000Y-139700000D03*
X120600000Y-112400000D03*
X127700000Y-93800000D03*
X145500000Y-96575000D03*
X151400000Y-143900000D03*
X149200000Y-139800000D03*
X141200000Y-131800000D03*
X128900000Y-146100000D03*
X149200000Y-131400000D03*
X139525000Y-145050000D03*
X120600000Y-114500000D03*
X130300000Y-128500000D03*
X121300000Y-101200000D03*
X149200000Y-133200000D03*
X151400000Y-103500000D03*
X151400000Y-97200000D03*
X133200000Y-139800000D03*
X122200000Y-134500000D03*
X151250000Y-129500000D03*
X120700000Y-138500000D03*
X150800000Y-117800000D03*
X156250000Y-118250000D03*
X151400000Y-137600000D03*
X151400000Y-141800000D03*
X120600000Y-106100000D03*
X153075000Y-128955000D03*
X124900000Y-130900000D03*
X125000000Y-100900000D03*
X120700000Y-118683032D03*
X120600000Y-110300000D03*
X151400000Y-146000000D03*
X120600000Y-116600000D03*
X159400000Y-111000000D03*
X151400000Y-99300000D03*
X141200000Y-125200000D03*
X121400000Y-142300000D03*
X157500000Y-111750000D03*
X120600000Y-122900000D03*
X159400000Y-113100000D03*
X120600000Y-108200000D03*
X156250000Y-120250000D03*
X122200000Y-102100000D03*
X124900000Y-142100000D03*
X159400000Y-127800000D03*
X159400000Y-132000000D03*
X159400000Y-123600000D03*
X156250000Y-116250000D03*
X120700000Y-103500000D03*
X122200000Y-140900000D03*
X127700000Y-149200000D03*
X159400000Y-121500000D03*
X141200000Y-141200000D03*
X142000000Y-119500000D03*
X133200000Y-133200000D03*
%TO.N,3V3*%
X123875000Y-135050000D03*
X124650000Y-134375000D03*
X123875000Y-134375000D03*
X124650000Y-135050000D03*
%TO.N,/L_START{slash}R_SELECT*%
X153075000Y-118475000D03*
%TO.N,/L_DPAD_UP{slash}R_BTN_A*%
X133950000Y-125200000D03*
%TO.N,/L_DPAD_RIGHT{slash}R_BTN_Y*%
X141525000Y-122100000D03*
%TO.N,/L_DPAD_LEFT{slash}R_BTN_X*%
X128325000Y-130775000D03*
%TO.N,/L_R_L1_TRIG*%
X151950000Y-114075000D03*
%TO.N,/L_R_THUMBST_X*%
X133625000Y-129800000D03*
%TO.N,/L_R_THUMBST_SW*%
X132375000Y-125025000D03*
%TO.N,/L_R_THUMBST_Y*%
X130912500Y-124962500D03*
%TO.N,/L_HOME{slash}R_EXTRA*%
X153425000Y-114050000D03*
%TD*%
%TO.N,/L_DPAD_DOWN{slash}R_BTN_B*%
D21*
X134250000Y-137450000D02*
X135500000Y-138700000D01*
X134250000Y-132250000D02*
X134250000Y-137450000D01*
X133450000Y-131450000D02*
X134250000Y-132250000D01*
X132775000Y-131450000D02*
X133450000Y-131450000D01*
X132000000Y-130675000D02*
X132775000Y-131450000D01*
X132000000Y-128325000D02*
X132000000Y-130675000D01*
X129825000Y-126150000D02*
X132000000Y-128325000D01*
X129825000Y-124550000D02*
X129825000Y-126150000D01*
X130575000Y-123800000D02*
X129825000Y-124550000D01*
X134375000Y-123800000D02*
X130575000Y-123800000D01*
X136550000Y-125975000D02*
X134375000Y-123800000D01*
X144475000Y-125975000D02*
X136550000Y-125975000D01*
X149700000Y-120750000D02*
X144475000Y-125975000D01*
X154800000Y-120750000D02*
X149700000Y-120750000D01*
%TO.N,/L_R_L2_TRIG*%
X123100000Y-113000000D02*
X125700000Y-113000000D01*
X122200000Y-124700000D02*
X122200000Y-113900000D01*
X126200000Y-128700000D02*
X122200000Y-124700000D01*
X122200000Y-113900000D02*
X123100000Y-113000000D01*
X126200000Y-132100000D02*
X126200000Y-128700000D01*
X125700000Y-113000000D02*
X126200000Y-112500000D01*
X126200000Y-112500000D02*
X126200000Y-110900000D01*
%TO.N,GND*%
X122200000Y-132100000D02*
X122200000Y-134500000D01*
X122200000Y-138700000D02*
X122200000Y-140900000D01*
X153075000Y-127750000D02*
X153075000Y-128955000D01*
X154800000Y-122250000D02*
X156250000Y-122250000D01*
X122200000Y-132100000D02*
X122200000Y-129800000D01*
X153700000Y-131700000D02*
X153250000Y-131250000D01*
X151250000Y-128295000D02*
X151250000Y-129500000D01*
X154800000Y-124250000D02*
X156250000Y-124250000D01*
X122200000Y-104300000D02*
X122200000Y-102100000D01*
X154800000Y-120250000D02*
X156250000Y-120250000D01*
X151270000Y-128275000D02*
X151250000Y-128295000D01*
X154800000Y-116250000D02*
X156250000Y-116250000D01*
X154800000Y-118250000D02*
X156250000Y-118250000D01*
X154875000Y-131700000D02*
X153700000Y-131700000D01*
X156575001Y-111750000D02*
X157500000Y-111750000D01*
X156125000Y-111299999D02*
X156575001Y-111750000D01*
X149200000Y-130195000D02*
X149200000Y-131400000D01*
%TO.N,3V3*%
D22*
X125725000Y-141825000D02*
X124275000Y-140375000D01*
X152849999Y-126525000D02*
X151270000Y-126525000D01*
D21*
X153585001Y-126250000D02*
X153080000Y-126755001D01*
D22*
X124187500Y-136012500D02*
X124362500Y-136012500D01*
X137750000Y-141825000D02*
X125725000Y-141825000D01*
X123875000Y-134375000D02*
X123875000Y-135700000D01*
X124275000Y-140375000D02*
X124275000Y-136100000D01*
D21*
X154800000Y-126250000D02*
X153585001Y-126250000D01*
D22*
X124362500Y-136012500D02*
X124650000Y-135725000D01*
D21*
X153085001Y-126750000D02*
X153080000Y-126755001D01*
D22*
X143500000Y-132225000D02*
X143500000Y-136075000D01*
X149200000Y-126525000D02*
X143500000Y-132225000D01*
X124275000Y-136100000D02*
X124362500Y-136012500D01*
D21*
X153585001Y-125989999D02*
X153585001Y-126250000D01*
D22*
X124650000Y-135725000D02*
X124650000Y-134375000D01*
D21*
X153825000Y-125750000D02*
X153585001Y-125989999D01*
D22*
X143500000Y-136075000D02*
X137750000Y-141825000D01*
D21*
X154800000Y-125750000D02*
X153825000Y-125750000D01*
D22*
X123875000Y-135700000D02*
X124187500Y-136012500D01*
D21*
X154800000Y-126750000D02*
X153085001Y-126750000D01*
D22*
X151270000Y-126525000D02*
X149200000Y-126525000D01*
X153080000Y-126755001D02*
X152849999Y-126525000D01*
%TO.N,/L_START{slash}R_SELECT*%
D21*
X154800000Y-118750000D02*
X153350000Y-118750000D01*
X153350000Y-118750000D02*
X153075000Y-118475000D01*
%TO.N,/L_DPAD_UP{slash}R_BTN_A*%
X154800000Y-121250000D02*
X150075000Y-121250000D01*
X135250000Y-126500000D02*
X133950000Y-125200000D01*
X150075000Y-121250000D02*
X144825000Y-126500000D01*
X144825000Y-126500000D02*
X135250000Y-126500000D01*
%TO.N,/L_DPAD_RIGHT{slash}R_BTN_Y*%
X154800000Y-119250000D02*
X148250000Y-119250000D01*
X148250000Y-119250000D02*
X145400000Y-122100000D01*
X145400000Y-122100000D02*
X141525000Y-122100000D01*
%TO.N,/L_DPAD_LEFT{slash}R_BTN_X*%
X128800000Y-124075000D02*
X128800000Y-130300000D01*
X128800000Y-130300000D02*
X128325000Y-130775000D01*
X134625000Y-122825000D02*
X130050000Y-122825000D01*
X144900000Y-124475000D02*
X136275000Y-124475000D01*
X149625000Y-119750000D02*
X144900000Y-124475000D01*
X130050000Y-122825000D02*
X128800000Y-124075000D01*
X154800000Y-119750000D02*
X149625000Y-119750000D01*
X136275000Y-124475000D02*
X134625000Y-122825000D01*
%TO.N,/L_R_L1_TRIG*%
X152975000Y-117750000D02*
X151950000Y-116725000D01*
X151950000Y-116725000D02*
X151950000Y-114075000D01*
X154800000Y-117750000D02*
X152975000Y-117750000D01*
%TO.N,/L_R_THUMBST_X*%
X150475000Y-123250000D02*
X154800000Y-123250000D01*
X145525000Y-128200000D02*
X150475000Y-123250000D01*
X133625000Y-129800000D02*
X135225000Y-128200000D01*
X135225000Y-128200000D02*
X145525000Y-128200000D01*
%TO.N,/L_R_THUMBST_SW*%
X150400000Y-121750000D02*
X154800000Y-121750000D01*
X134350000Y-127000000D02*
X145150000Y-127000000D01*
X132375000Y-125025000D02*
X134350000Y-127000000D01*
X145150000Y-127000000D02*
X150400000Y-121750000D01*
%TO.N,/L_R_THUMBST_Y*%
X154800000Y-122750000D02*
X150175000Y-122750000D01*
X145325000Y-127600000D02*
X133050000Y-127600000D01*
X130900000Y-125450000D02*
X130900000Y-124950000D01*
X133050000Y-127600000D02*
X130900000Y-125450000D01*
X150175000Y-122750000D02*
X145325000Y-127600000D01*
%TO.N,/L_HOME{slash}R_EXTRA*%
X154800000Y-116750000D02*
X153825000Y-116750000D01*
X153425000Y-116350000D02*
X153425000Y-114050000D01*
X153825000Y-116750000D02*
X153425000Y-116350000D01*
%TO.N,/L_R_L2_TRIG*%
X124825000Y-97825000D02*
X125800000Y-96850000D01*
X126200000Y-100675000D02*
X124825000Y-99300000D01*
X126200000Y-104300000D02*
X126200000Y-100675000D01*
X126200000Y-138700000D02*
X126200000Y-132100000D01*
X128150000Y-97700000D02*
X149550000Y-97700000D01*
X127300000Y-96850000D02*
X128150000Y-97700000D01*
X126200000Y-110900000D02*
X126200000Y-104300000D01*
X149550000Y-97700000D02*
X150300000Y-98450000D01*
X124825000Y-99300000D02*
X124825000Y-97825000D01*
X125800000Y-96850000D02*
X127300000Y-96850000D01*
X152750000Y-112400000D02*
X152750000Y-116450000D01*
X150300000Y-109950000D02*
X152750000Y-112400000D01*
X153550000Y-117250000D02*
X154800000Y-117250000D01*
X150300000Y-98450000D02*
X150300000Y-109950000D01*
X152750000Y-116450000D02*
X153550000Y-117250000D01*
%TO.N,/L_R_SPKOUT*%
X156825000Y-124900000D02*
X157375000Y-124350000D01*
X156300000Y-125625000D02*
X156300000Y-127575000D01*
X155900000Y-124900000D02*
X156825000Y-124900000D01*
X156075000Y-131650000D02*
X156125000Y-131700000D01*
X154800000Y-125250000D02*
X155925000Y-125250000D01*
X156075000Y-127800000D02*
X156075000Y-131650000D01*
X155925000Y-125250000D02*
X156300000Y-125625000D01*
X153675000Y-125175000D02*
X153750000Y-125250000D01*
X155750000Y-124750000D02*
X155900000Y-124900000D01*
X157375000Y-124350000D02*
X157375000Y-116375000D01*
X154800000Y-124750000D02*
X153750000Y-124750000D01*
X157375000Y-116375000D02*
X154875000Y-113875000D01*
X156300000Y-127575000D02*
X156075000Y-127800000D01*
X154800000Y-124750000D02*
X155750000Y-124750000D01*
X154875000Y-113875000D02*
X154875000Y-111299999D01*
X153750000Y-125250000D02*
X154800000Y-125250000D01*
X153675000Y-124825000D02*
X153675000Y-125175000D01*
X153750000Y-124750000D02*
X153675000Y-124825000D01*
%TD*%
%TA.AperFunction,Conductor*%
%TO.N,GND*%
G36*
X123187116Y-97120955D02*
G01*
X123194337Y-97125228D01*
X123231517Y-97159064D01*
X123260636Y-97199142D01*
X123278556Y-97223806D01*
X123431650Y-97376900D01*
X123606809Y-97504161D01*
X123699428Y-97551353D01*
X123799718Y-97602454D01*
X123799721Y-97602455D01*
X123902675Y-97635906D01*
X124005631Y-97669358D01*
X124219474Y-97703228D01*
X124219475Y-97703228D01*
X124332670Y-97703228D01*
X124367606Y-97708251D01*
X124382604Y-97712655D01*
X124441355Y-97750400D01*
X124442542Y-97751769D01*
X124470018Y-97806630D01*
X124471663Y-97814188D01*
X124474500Y-97840559D01*
X124474500Y-99346142D01*
X124498382Y-99435273D01*
X124498387Y-99435290D01*
X124498389Y-99435295D01*
X124544526Y-99515207D01*
X124544527Y-99515208D01*
X124544532Y-99515214D01*
X124544538Y-99515221D01*
X125800573Y-100771255D01*
X125821723Y-100799507D01*
X125834331Y-100822596D01*
X125849500Y-100882025D01*
X125849500Y-102320851D01*
X125844475Y-102355795D01*
X125840070Y-102370793D01*
X125802299Y-102429561D01*
X125797317Y-102433878D01*
X125735598Y-102462626D01*
X125735069Y-102462710D01*
X125734422Y-102462812D01*
X125729487Y-102463202D01*
X125724699Y-102464351D01*
X125669295Y-102492581D01*
X125669294Y-102492580D01*
X125611653Y-102521952D01*
X125611650Y-102521954D01*
X125521955Y-102611649D01*
X125521946Y-102611664D01*
X125464353Y-102724695D01*
X125464350Y-102724703D01*
X125449500Y-102818469D01*
X125449500Y-102818475D01*
X125449500Y-105781517D01*
X125454904Y-105815634D01*
X125464354Y-105875304D01*
X125521950Y-105988342D01*
X125521952Y-105988344D01*
X125521954Y-105988347D01*
X125611652Y-106078045D01*
X125611654Y-106078046D01*
X125611658Y-106078050D01*
X125672837Y-106109222D01*
X125724691Y-106135644D01*
X125724692Y-106135644D01*
X125724696Y-106135646D01*
X125727285Y-106136056D01*
X125761006Y-106146482D01*
X125775131Y-106153178D01*
X125827272Y-106199674D01*
X125830757Y-106205270D01*
X125849500Y-106270821D01*
X125849500Y-108920851D01*
X125844475Y-108955795D01*
X125840070Y-108970793D01*
X125802299Y-109029561D01*
X125797317Y-109033878D01*
X125735598Y-109062626D01*
X125735069Y-109062710D01*
X125734422Y-109062812D01*
X125729487Y-109063202D01*
X125724699Y-109064351D01*
X125669295Y-109092581D01*
X125669294Y-109092580D01*
X125611653Y-109121952D01*
X125611650Y-109121954D01*
X125521955Y-109211649D01*
X125521946Y-109211664D01*
X125464353Y-109324695D01*
X125464350Y-109324703D01*
X125449500Y-109418469D01*
X125449500Y-112381521D01*
X125458630Y-112439167D01*
X125458955Y-112441344D01*
X125465121Y-112485312D01*
X125464321Y-112485572D01*
X125467627Y-112503182D01*
X125468027Y-112506033D01*
X125463337Y-112537867D01*
X125460123Y-112569895D01*
X125458276Y-112572219D01*
X125457844Y-112575156D01*
X125436688Y-112599400D01*
X125416668Y-112624607D01*
X125416644Y-112624624D01*
X125413913Y-112626548D01*
X125412490Y-112627131D01*
X125411906Y-112627801D01*
X125408326Y-112628838D01*
X125362802Y-112647504D01*
X125360862Y-112647826D01*
X125340558Y-112649500D01*
X123322846Y-112649500D01*
X123287907Y-112644476D01*
X123274589Y-112640565D01*
X123215812Y-112602789D01*
X123186790Y-112539232D01*
X123186789Y-112539227D01*
X123185672Y-112531454D01*
X123189335Y-112479221D01*
X123197096Y-112452505D01*
X123197097Y-112452501D01*
X123197099Y-112452495D01*
X123197100Y-112452489D01*
X123199999Y-112415649D01*
X123200000Y-112415634D01*
X123200000Y-111150000D01*
X122450000Y-111150000D01*
X122450000Y-113008748D01*
X122455514Y-113018846D01*
X122470366Y-113087107D01*
X122470237Y-113088913D01*
X122450869Y-113147116D01*
X122446688Y-113153622D01*
X122430052Y-113174265D01*
X121919534Y-113684782D01*
X121919527Y-113684791D01*
X121919526Y-113684792D01*
X121887823Y-113739706D01*
X121887821Y-113739709D01*
X121873387Y-113764707D01*
X121873385Y-113764712D01*
X121852351Y-113843211D01*
X121852352Y-113843212D01*
X121852351Y-113843216D01*
X121849500Y-113853856D01*
X121849500Y-124746144D01*
X121867873Y-124814712D01*
X121871368Y-124827758D01*
X121873386Y-124835289D01*
X121919527Y-124915208D01*
X121919530Y-124915211D01*
X121919530Y-124915212D01*
X125800573Y-128796254D01*
X125821723Y-128824506D01*
X125834331Y-128847595D01*
X125849500Y-128907024D01*
X125849500Y-130120851D01*
X125844475Y-130155795D01*
X125840070Y-130170793D01*
X125802299Y-130229561D01*
X125797317Y-130233878D01*
X125735598Y-130262626D01*
X125735069Y-130262710D01*
X125734422Y-130262812D01*
X125729483Y-130263202D01*
X125724697Y-130264351D01*
X125673913Y-130290228D01*
X125673793Y-130290290D01*
X125673464Y-130290458D01*
X125611658Y-130321950D01*
X125611657Y-130321951D01*
X125611652Y-130321954D01*
X125610332Y-130323273D01*
X125610328Y-130323276D01*
X125521954Y-130411650D01*
X125509912Y-130435285D01*
X125509911Y-130435286D01*
X125464352Y-130524696D01*
X125464350Y-130524703D01*
X125449500Y-130618469D01*
X125449500Y-130618475D01*
X125449500Y-133581517D01*
X125454904Y-133615634D01*
X125464354Y-133675304D01*
X125521950Y-133788342D01*
X125521952Y-133788344D01*
X125521954Y-133788347D01*
X125611652Y-133878045D01*
X125611654Y-133878046D01*
X125611658Y-133878050D01*
X125672837Y-133909222D01*
X125724691Y-133935644D01*
X125724692Y-133935644D01*
X125724696Y-133935646D01*
X125727285Y-133936056D01*
X125761006Y-133946482D01*
X125775131Y-133953178D01*
X125827272Y-133999674D01*
X125830757Y-134005270D01*
X125849500Y-134070821D01*
X125849500Y-136720851D01*
X125844475Y-136755795D01*
X125840070Y-136770793D01*
X125802299Y-136829561D01*
X125797317Y-136833878D01*
X125735598Y-136862626D01*
X125735069Y-136862710D01*
X125734422Y-136862812D01*
X125729487Y-136863202D01*
X125724699Y-136864351D01*
X125669295Y-136892581D01*
X125669294Y-136892580D01*
X125611653Y-136921952D01*
X125611650Y-136921954D01*
X125521955Y-137011649D01*
X125521946Y-137011664D01*
X125464353Y-137124695D01*
X125464350Y-137124703D01*
X125449500Y-137218469D01*
X125449500Y-137218475D01*
X125449500Y-140181517D01*
X125453062Y-140204005D01*
X125453062Y-140204017D01*
X125464352Y-140275299D01*
X125464352Y-140275300D01*
X125464353Y-140275303D01*
X125464354Y-140275304D01*
X125521950Y-140388342D01*
X125521952Y-140388344D01*
X125521954Y-140388347D01*
X125611652Y-140478045D01*
X125611654Y-140478046D01*
X125611658Y-140478050D01*
X125724694Y-140535645D01*
X125724698Y-140535647D01*
X125818220Y-140550458D01*
X125818457Y-140550497D01*
X125818466Y-140550497D01*
X125818475Y-140550499D01*
X125818481Y-140550500D01*
X126581518Y-140550499D01*
X126675304Y-140535646D01*
X126788342Y-140478050D01*
X126878050Y-140388342D01*
X126935646Y-140275304D01*
X126935646Y-140275302D01*
X126935647Y-140275301D01*
X126935648Y-140275294D01*
X126936785Y-140270560D01*
X126936785Y-140270558D01*
X126936789Y-140270539D01*
X126937173Y-140265668D01*
X126950111Y-140183979D01*
X126950437Y-140182154D01*
X126950499Y-140181523D01*
X126950500Y-140181519D01*
X126950499Y-137218482D01*
X126935646Y-137124696D01*
X126878050Y-137011658D01*
X126878046Y-137011654D01*
X126878045Y-137011652D01*
X126788347Y-136921954D01*
X126788344Y-136921952D01*
X126788342Y-136921950D01*
X126675304Y-136864354D01*
X126675302Y-136864353D01*
X126675300Y-136864352D01*
X126661277Y-136861042D01*
X126636645Y-136852404D01*
X126624861Y-136846817D01*
X126572719Y-136800312D01*
X126569236Y-136794718D01*
X126550500Y-136729178D01*
X126550500Y-134079147D01*
X126555523Y-134044211D01*
X126559927Y-134029213D01*
X126597690Y-133970446D01*
X126599619Y-133968774D01*
X126602674Y-133966127D01*
X126664491Y-133937358D01*
X126675304Y-133935646D01*
X126788342Y-133878050D01*
X126878050Y-133788342D01*
X126935646Y-133675304D01*
X126935646Y-133675302D01*
X126935647Y-133675301D01*
X126935648Y-133675294D01*
X126936785Y-133670560D01*
X126936785Y-133670558D01*
X126936789Y-133670539D01*
X126937173Y-133665668D01*
X126950111Y-133583979D01*
X126950437Y-133582154D01*
X126950499Y-133581523D01*
X126950500Y-133581519D01*
X126950499Y-130618482D01*
X126935646Y-130524696D01*
X126878050Y-130411658D01*
X126878046Y-130411654D01*
X126878045Y-130411652D01*
X126788347Y-130321954D01*
X126788344Y-130321952D01*
X126788342Y-130321950D01*
X126675304Y-130264354D01*
X126675302Y-130264353D01*
X126675300Y-130264352D01*
X126661277Y-130261042D01*
X126636645Y-130252404D01*
X126624861Y-130246817D01*
X126572719Y-130200312D01*
X126569236Y-130194718D01*
X126550500Y-130129178D01*
X126550500Y-128653858D01*
X126550500Y-128653856D01*
X126526614Y-128564712D01*
X126526611Y-128564706D01*
X126480473Y-128484794D01*
X126480470Y-128484791D01*
X126480469Y-128484788D01*
X126415212Y-128419531D01*
X124527367Y-126531686D01*
X122599426Y-124603744D01*
X122578274Y-124575488D01*
X122565667Y-124552399D01*
X122550500Y-124492974D01*
X122550500Y-114114373D01*
X122555522Y-114079440D01*
X122562934Y-114054195D01*
X122594228Y-114001453D01*
X123196258Y-113399423D01*
X123224508Y-113378275D01*
X123247600Y-113365667D01*
X123307025Y-113350500D01*
X125746142Y-113350500D01*
X125746144Y-113350500D01*
X125835288Y-113326614D01*
X125915212Y-113280470D01*
X126396261Y-112799418D01*
X126424512Y-112778272D01*
X126447602Y-112765665D01*
X126507025Y-112750499D01*
X126581517Y-112750499D01*
X126581518Y-112750499D01*
X126675304Y-112735646D01*
X126788342Y-112678050D01*
X126878050Y-112588342D01*
X126935646Y-112475304D01*
X126935646Y-112475302D01*
X126935647Y-112475301D01*
X126935648Y-112475294D01*
X126936785Y-112470560D01*
X126936785Y-112470558D01*
X126936789Y-112470539D01*
X126937173Y-112465668D01*
X126950111Y-112383979D01*
X126950437Y-112382154D01*
X126950499Y-112381523D01*
X126950500Y-112381519D01*
X126950499Y-109418482D01*
X126935646Y-109324696D01*
X126878050Y-109211658D01*
X126878046Y-109211654D01*
X126878045Y-109211652D01*
X126788347Y-109121954D01*
X126788344Y-109121952D01*
X126788342Y-109121950D01*
X126675304Y-109064354D01*
X126675302Y-109064353D01*
X126675300Y-109064352D01*
X126661277Y-109061042D01*
X126636645Y-109052404D01*
X126624861Y-109046817D01*
X126572719Y-109000312D01*
X126569236Y-108994718D01*
X126550500Y-108929178D01*
X126550500Y-106279147D01*
X126555523Y-106244211D01*
X126559927Y-106229213D01*
X126597690Y-106170446D01*
X126599619Y-106168774D01*
X126602674Y-106166127D01*
X126664491Y-106137358D01*
X126675304Y-106135646D01*
X126788342Y-106078050D01*
X126878050Y-105988342D01*
X126935646Y-105875304D01*
X126935646Y-105875302D01*
X126935647Y-105875301D01*
X126935648Y-105875294D01*
X126936785Y-105870560D01*
X126936785Y-105870558D01*
X126936789Y-105870539D01*
X126937173Y-105865668D01*
X126950111Y-105783979D01*
X126950437Y-105782154D01*
X126950499Y-105781523D01*
X126950500Y-105781519D01*
X126950499Y-102818482D01*
X126935646Y-102724696D01*
X126878050Y-102611658D01*
X126878046Y-102611654D01*
X126878045Y-102611652D01*
X126788347Y-102521954D01*
X126788344Y-102521952D01*
X126788342Y-102521950D01*
X126675304Y-102464354D01*
X126675302Y-102464353D01*
X126675300Y-102464352D01*
X126661277Y-102461042D01*
X126636645Y-102452404D01*
X126624861Y-102446817D01*
X126572719Y-102400312D01*
X126569236Y-102394718D01*
X126550500Y-102329178D01*
X126550500Y-100628858D01*
X126550500Y-100628856D01*
X126526614Y-100539712D01*
X126503975Y-100500500D01*
X126480470Y-100459788D01*
X125857654Y-99836972D01*
X125824451Y-99776915D01*
X125824153Y-99775614D01*
X125818744Y-99765703D01*
X125823739Y-99696013D01*
X125865619Y-99640085D01*
X125896595Y-99623177D01*
X125899503Y-99622093D01*
X125962215Y-99615808D01*
X126164018Y-99647772D01*
X126164019Y-99647772D01*
X126380525Y-99647772D01*
X126380526Y-99647772D01*
X126594369Y-99613902D01*
X126800281Y-99546998D01*
X126993191Y-99448705D01*
X127138195Y-99343352D01*
X127169400Y-99326886D01*
X127181598Y-99322533D01*
X127251352Y-99318542D01*
X127312192Y-99352897D01*
X127343634Y-99409511D01*
X127345863Y-99418511D01*
X127349500Y-99448321D01*
X127349500Y-113557531D01*
X127344475Y-113592473D01*
X127343353Y-113596292D01*
X127340070Y-113607473D01*
X127302338Y-113666207D01*
X127300997Y-113667370D01*
X127246047Y-113694872D01*
X127238424Y-113696526D01*
X127211993Y-113699346D01*
X123802524Y-113695565D01*
X123802520Y-113695565D01*
X123755391Y-113695511D01*
X123754612Y-113695451D01*
X123745508Y-113695451D01*
X123698371Y-113695451D01*
X123698369Y-113695451D01*
X123651098Y-113695398D01*
X123650292Y-113695451D01*
X123630247Y-113695451D01*
X123630241Y-113695451D01*
X123498340Y-113725556D01*
X123498334Y-113725558D01*
X123498323Y-113725562D01*
X123376406Y-113784275D01*
X123270607Y-113868644D01*
X123186238Y-113974443D01*
X123127525Y-114096360D01*
X123127521Y-114096371D01*
X123127519Y-114096377D01*
X123097414Y-114228278D01*
X123097414Y-123663622D01*
X123127519Y-123795523D01*
X123127521Y-123795529D01*
X123127525Y-123795540D01*
X123186237Y-123917455D01*
X123188250Y-123920293D01*
X123188253Y-123920296D01*
X123190564Y-123922882D01*
X123191309Y-123923816D01*
X123191318Y-123923828D01*
X123270601Y-124023248D01*
X123270604Y-124023251D01*
X123270608Y-124023256D01*
X123331203Y-124071577D01*
X123376407Y-124107626D01*
X123494789Y-124164637D01*
X123496036Y-124165358D01*
X123498058Y-124166279D01*
X123498332Y-124166341D01*
X123498333Y-124166342D01*
X123630247Y-124196450D01*
X123630252Y-124196450D01*
X123630254Y-124196451D01*
X123630256Y-124196451D01*
X123697300Y-124196451D01*
X126867361Y-124199680D01*
X126868094Y-124199740D01*
X126877404Y-124199740D01*
X126924998Y-124199740D01*
X126925000Y-124199740D01*
X126964254Y-124199780D01*
X126964256Y-124199779D01*
X126971885Y-124199787D01*
X126972617Y-124199740D01*
X126992656Y-124199740D01*
X126992658Y-124199740D01*
X126992664Y-124199740D01*
X126992917Y-124199681D01*
X127094697Y-124176451D01*
X127119597Y-124170768D01*
X127120624Y-124170533D01*
X127124578Y-124169631D01*
X127124578Y-124169630D01*
X127124581Y-124169629D01*
X127124586Y-124169629D01*
X127124587Y-124169628D01*
X127124961Y-124169543D01*
X127127692Y-124168133D01*
X127131416Y-124166340D01*
X127246505Y-124110915D01*
X127352303Y-124026545D01*
X127436673Y-123920747D01*
X127495387Y-123798828D01*
X127512850Y-123722317D01*
X127525497Y-123666906D01*
X127525498Y-123666898D01*
X127525498Y-121541601D01*
X127530521Y-121506665D01*
X127534925Y-121491667D01*
X127572696Y-121432893D01*
X127574060Y-121431711D01*
X127628914Y-121404253D01*
X127636490Y-121402606D01*
X127662863Y-121399775D01*
X130360397Y-121400489D01*
X130360438Y-121400500D01*
X130401609Y-121400500D01*
X130439482Y-121400510D01*
X130439483Y-121400509D01*
X130448909Y-121400512D01*
X130449784Y-121400500D01*
X131239152Y-121400500D01*
X131239157Y-121400500D01*
X131297377Y-121393430D01*
X131515435Y-121366954D01*
X131785657Y-121300350D01*
X132045881Y-121201661D01*
X132292311Y-121072324D01*
X132521355Y-120914226D01*
X132729673Y-120729673D01*
X132914226Y-120521355D01*
X133072324Y-120292311D01*
X133201661Y-120045881D01*
X133300350Y-119785657D01*
X133366954Y-119515435D01*
X133400500Y-119239154D01*
X133400500Y-119100000D01*
X133400500Y-119052405D01*
X133400500Y-118242329D01*
X133405523Y-118207393D01*
X133409927Y-118192395D01*
X133447672Y-118133644D01*
X133449041Y-118132457D01*
X133503920Y-118104977D01*
X133511479Y-118103333D01*
X133537832Y-118100500D01*
X135605109Y-118100500D01*
X135610970Y-118102221D01*
X135610975Y-118102220D01*
X135678014Y-118121907D01*
X135723766Y-118174713D01*
X135733707Y-118243872D01*
X135704680Y-118307426D01*
X135678005Y-118330538D01*
X135674043Y-118333084D01*
X135639104Y-118348540D01*
X135561886Y-118369232D01*
X135561884Y-118369233D01*
X135383938Y-118416913D01*
X135106018Y-118532032D01*
X135105388Y-118532288D01*
X135105330Y-118532316D01*
X134844163Y-118683102D01*
X134604928Y-118866672D01*
X134604913Y-118866686D01*
X134604905Y-118866693D01*
X134391693Y-119079905D01*
X134391686Y-119079913D01*
X134391672Y-119079928D01*
X134208102Y-119319163D01*
X134057316Y-119580330D01*
X134057288Y-119580388D01*
X134057032Y-119581018D01*
X133941912Y-119858940D01*
X133937508Y-119875377D01*
X133863862Y-120150232D01*
X133863859Y-120150243D01*
X133824501Y-120449199D01*
X133824500Y-120449228D01*
X133824500Y-120750770D01*
X133824501Y-120750799D01*
X133863859Y-121049755D01*
X133863860Y-121049760D01*
X133863861Y-121049766D01*
X133902887Y-121195413D01*
X133941912Y-121341058D01*
X134057032Y-121618980D01*
X134057292Y-121619618D01*
X134057316Y-121619668D01*
X134066695Y-121635912D01*
X134208099Y-121880831D01*
X134208100Y-121880832D01*
X134208102Y-121880835D01*
X134391672Y-122120070D01*
X134391676Y-122120075D01*
X134391679Y-122120078D01*
X134391685Y-122120085D01*
X134391693Y-122120093D01*
X134521811Y-122250211D01*
X134542960Y-122278461D01*
X134548381Y-122288388D01*
X134563235Y-122356661D01*
X134538821Y-122422126D01*
X134482889Y-122463999D01*
X134482885Y-122464001D01*
X134475697Y-122466682D01*
X134432363Y-122474500D01*
X130003856Y-122474500D01*
X129914725Y-122498382D01*
X129914708Y-122498387D01*
X129914703Y-122498389D01*
X129834791Y-122544526D01*
X129834790Y-122544527D01*
X129834784Y-122544532D01*
X129834777Y-122544538D01*
X128519536Y-123859779D01*
X128519531Y-123859785D01*
X128519521Y-123859801D01*
X128473386Y-123939708D01*
X128469162Y-123955476D01*
X128469161Y-123955480D01*
X128449500Y-124028856D01*
X128449500Y-130026254D01*
X128429815Y-130093293D01*
X128377596Y-130138779D01*
X128325226Y-130163025D01*
X128273131Y-130174500D01*
X128245943Y-130174500D01*
X128093218Y-130215422D01*
X128093211Y-130215424D01*
X128093210Y-130215425D01*
X128093200Y-130215430D01*
X127956298Y-130294470D01*
X127956294Y-130294472D01*
X127956290Y-130294475D01*
X127956282Y-130294481D01*
X127956278Y-130294484D01*
X127956276Y-130294485D01*
X127844485Y-130406276D01*
X127844484Y-130406278D01*
X127844481Y-130406281D01*
X127844481Y-130406282D01*
X127844475Y-130406290D01*
X127844472Y-130406294D01*
X127844470Y-130406298D01*
X127765430Y-130543200D01*
X127765425Y-130543210D01*
X127765424Y-130543211D01*
X127765422Y-130543218D01*
X127724500Y-130695943D01*
X127724500Y-130854057D01*
X127740234Y-130912778D01*
X127740246Y-130912820D01*
X127765423Y-131006783D01*
X127765424Y-131006787D01*
X127765425Y-131006788D01*
X127765428Y-131006793D01*
X127841623Y-131138771D01*
X127841638Y-131138795D01*
X127844475Y-131143709D01*
X127844479Y-131143714D01*
X127844480Y-131143716D01*
X127845049Y-131144285D01*
X127956287Y-131255523D01*
X127956969Y-131256014D01*
X127959475Y-131257363D01*
X128093209Y-131334573D01*
X128093216Y-131334577D01*
X128245943Y-131375500D01*
X128245945Y-131375500D01*
X128404055Y-131375500D01*
X128404057Y-131375500D01*
X128556784Y-131334577D01*
X128693716Y-131255520D01*
X128805520Y-131143716D01*
X128884577Y-131006784D01*
X128925500Y-130854057D01*
X128925500Y-130826867D01*
X128936974Y-130774772D01*
X128982876Y-130675624D01*
X129027772Y-130578647D01*
X129052612Y-130543068D01*
X129080469Y-130515213D01*
X129126614Y-130435288D01*
X129126615Y-130435285D01*
X129132181Y-130414513D01*
X129132181Y-130414512D01*
X129135935Y-130400500D01*
X129150500Y-130346144D01*
X129150500Y-124289373D01*
X129155522Y-124254440D01*
X129157897Y-124246352D01*
X129162934Y-124229195D01*
X129194228Y-124176453D01*
X130146258Y-123224423D01*
X130174508Y-123203275D01*
X130197600Y-123190667D01*
X130257025Y-123175500D01*
X134410626Y-123175500D01*
X134445558Y-123180521D01*
X134470802Y-123187934D01*
X134523548Y-123219230D01*
X134535747Y-123231429D01*
X134556896Y-123259679D01*
X134562317Y-123269606D01*
X134577171Y-123337879D01*
X134552757Y-123403344D01*
X134496825Y-123445217D01*
X134496672Y-123445274D01*
X134496096Y-123445488D01*
X134441123Y-123452689D01*
X134438882Y-123452475D01*
X134425754Y-123450107D01*
X134421145Y-123449500D01*
X134421144Y-123449500D01*
X134421142Y-123449500D01*
X130528856Y-123449500D01*
X130439725Y-123473382D01*
X130439708Y-123473387D01*
X130439703Y-123473389D01*
X130359791Y-123519526D01*
X130359790Y-123519527D01*
X130359784Y-123519532D01*
X130359777Y-123519538D01*
X129544538Y-124334777D01*
X129544532Y-124334784D01*
X129544527Y-124334790D01*
X129544526Y-124334791D01*
X129498389Y-124414703D01*
X129498387Y-124414708D01*
X129498382Y-124414725D01*
X129479475Y-124485288D01*
X129474500Y-124503856D01*
X129474500Y-126196145D01*
X129494414Y-126270467D01*
X129498385Y-126285285D01*
X129498385Y-126285286D01*
X129498386Y-126285289D01*
X129544528Y-126365209D01*
X129544532Y-126365214D01*
X129544538Y-126365221D01*
X131600573Y-128421255D01*
X131621723Y-128449507D01*
X131634331Y-128472596D01*
X131649500Y-128532025D01*
X131649500Y-130721144D01*
X131656460Y-130747120D01*
X131671093Y-130801731D01*
X131673385Y-130810286D01*
X131673387Y-130810290D01*
X131719527Y-130890208D01*
X131719529Y-130890211D01*
X131719530Y-130890212D01*
X132559788Y-131730470D01*
X132559789Y-131730471D01*
X132559791Y-131730472D01*
X132608522Y-131758606D01*
X132608525Y-131758608D01*
X132639711Y-131776614D01*
X132658549Y-131781661D01*
X132728856Y-131800500D01*
X132728857Y-131800500D01*
X132821144Y-131800500D01*
X133235626Y-131800500D01*
X133270558Y-131805521D01*
X133295802Y-131812934D01*
X133348548Y-131844230D01*
X133850573Y-132346255D01*
X133871723Y-132374507D01*
X133884331Y-132397596D01*
X133899500Y-132457025D01*
X133899500Y-137496143D01*
X133919578Y-137571078D01*
X133923385Y-137585284D01*
X133923385Y-137585286D01*
X133923389Y-137585295D01*
X133969526Y-137665207D01*
X133969527Y-137665208D01*
X133969532Y-137665214D01*
X133969538Y-137665221D01*
X134850573Y-138546255D01*
X134871723Y-138574507D01*
X134884331Y-138597596D01*
X134899500Y-138657025D01*
X134899500Y-138779056D01*
X134905246Y-138800500D01*
X134940422Y-138931780D01*
X134940424Y-138931787D01*
X134940425Y-138931788D01*
X134940428Y-138931793D01*
X135016623Y-139063771D01*
X135016638Y-139063795D01*
X135019475Y-139068709D01*
X135019479Y-139068714D01*
X135019480Y-139068716D01*
X135020049Y-139069285D01*
X135131287Y-139180523D01*
X135131969Y-139181014D01*
X135134475Y-139182363D01*
X135268209Y-139259573D01*
X135268216Y-139259577D01*
X135420943Y-139300500D01*
X135420945Y-139300500D01*
X135579055Y-139300500D01*
X135579057Y-139300500D01*
X135731784Y-139259577D01*
X135868716Y-139180520D01*
X135980520Y-139068716D01*
X136059577Y-138931784D01*
X136100500Y-138779057D01*
X136100500Y-138620943D01*
X136096196Y-138604882D01*
X136092007Y-138569842D01*
X136092034Y-138568703D01*
X136092276Y-138558536D01*
X136113550Y-138491986D01*
X136167428Y-138447500D01*
X136236790Y-138439203D01*
X136244360Y-138440475D01*
X136285800Y-138455370D01*
X136392499Y-138516973D01*
X136476882Y-138565692D01*
X136478629Y-138566776D01*
X136482097Y-138568703D01*
X136482684Y-138569042D01*
X136487828Y-138570787D01*
X136570146Y-138604885D01*
X136608913Y-138620943D01*
X136754872Y-138681402D01*
X136754873Y-138681402D01*
X136758939Y-138683086D01*
X136758940Y-138683086D01*
X136758942Y-138683087D01*
X136758945Y-138683087D01*
X136759692Y-138683397D01*
X136762842Y-138684132D01*
X137050232Y-138761138D01*
X137349217Y-138800500D01*
X137349224Y-138800500D01*
X137650776Y-138800500D01*
X137650783Y-138800500D01*
X137949768Y-138761138D01*
X138241058Y-138683087D01*
X138519668Y-138567683D01*
X138780832Y-138416900D01*
X139020080Y-138233319D01*
X139233319Y-138020080D01*
X139416900Y-137780832D01*
X139567683Y-137519668D01*
X139683087Y-137241058D01*
X139761138Y-136949768D01*
X139800500Y-136650783D01*
X139800500Y-136349217D01*
X139761138Y-136050232D01*
X139683087Y-135758942D01*
X139567683Y-135480332D01*
X139495515Y-135355334D01*
X139416900Y-135219168D01*
X139347754Y-135129055D01*
X139233326Y-134979928D01*
X139233322Y-134979924D01*
X139233320Y-134979921D01*
X139233314Y-134979914D01*
X139020085Y-134766685D01*
X139020078Y-134766679D01*
X139020075Y-134766676D01*
X139020070Y-134766672D01*
X138780835Y-134583102D01*
X138780834Y-134583101D01*
X138780831Y-134583099D01*
X138519671Y-134432318D01*
X138519672Y-134432318D01*
X138519668Y-134432316D01*
X138519618Y-134432292D01*
X138518980Y-134432032D01*
X138241058Y-134316912D01*
X138095413Y-134277887D01*
X137949766Y-134238861D01*
X137949760Y-134238860D01*
X137949755Y-134238859D01*
X137654883Y-134200039D01*
X137652867Y-134199705D01*
X137650793Y-134199500D01*
X137650788Y-134199500D01*
X137650783Y-134199500D01*
X137349217Y-134199500D01*
X137349211Y-134199500D01*
X137349206Y-134199500D01*
X137347129Y-134199705D01*
X137345115Y-134200039D01*
X137050243Y-134238859D01*
X137050236Y-134238860D01*
X137050233Y-134238861D01*
X136988673Y-134255355D01*
X136758940Y-134316912D01*
X136481018Y-134432032D01*
X136480388Y-134432288D01*
X136480330Y-134432316D01*
X136219163Y-134583102D01*
X135979928Y-134766672D01*
X135979913Y-134766686D01*
X135979905Y-134766693D01*
X135766693Y-134979905D01*
X135766686Y-134979913D01*
X135766672Y-134979928D01*
X135583102Y-135219163D01*
X135432316Y-135480330D01*
X135432288Y-135480388D01*
X135432032Y-135481018D01*
X135316912Y-135758940D01*
X135274241Y-135918192D01*
X135238862Y-136050232D01*
X135238859Y-136050243D01*
X135199501Y-136349199D01*
X135199500Y-136349228D01*
X135199500Y-136650770D01*
X135199501Y-136650799D01*
X135238859Y-136949755D01*
X135238860Y-136949760D01*
X135238861Y-136949766D01*
X135255445Y-137011657D01*
X135316912Y-137241058D01*
X135395076Y-137429762D01*
X135422572Y-137496143D01*
X135432032Y-137518980D01*
X135432292Y-137519618D01*
X135432316Y-137519668D01*
X135432318Y-137519671D01*
X135583099Y-137780831D01*
X135583100Y-137780832D01*
X135583102Y-137780835D01*
X135663697Y-137885869D01*
X135680978Y-137916639D01*
X135685476Y-137928273D01*
X135691291Y-137997900D01*
X135658540Y-138059618D01*
X135601209Y-138092950D01*
X135591613Y-138095461D01*
X135560223Y-138099500D01*
X135464374Y-138099500D01*
X135429438Y-138094477D01*
X135404196Y-138087065D01*
X135351451Y-138055769D01*
X134649426Y-137353744D01*
X134628274Y-137325488D01*
X134615667Y-137302399D01*
X134600500Y-137242974D01*
X134600500Y-132203858D01*
X134600500Y-132203856D01*
X134576614Y-132114712D01*
X134530470Y-132034788D01*
X133665212Y-131169530D01*
X133665211Y-131169529D01*
X133665208Y-131169527D01*
X133597343Y-131130346D01*
X133595276Y-131129042D01*
X133593427Y-131126944D01*
X133592896Y-131126537D01*
X133577682Y-131120235D01*
X133569520Y-131119161D01*
X133496144Y-131099500D01*
X133496143Y-131099500D01*
X132989374Y-131099500D01*
X132954438Y-131094477D01*
X132929196Y-131087065D01*
X132876451Y-131055769D01*
X132399426Y-130578744D01*
X132378274Y-130550488D01*
X132365667Y-130527399D01*
X132350500Y-130467974D01*
X132350500Y-128278858D01*
X132350500Y-128278856D01*
X132326614Y-128189712D01*
X132291676Y-128129199D01*
X132290187Y-128126619D01*
X132290186Y-128126618D01*
X132290184Y-128126614D01*
X132285800Y-128119020D01*
X132280471Y-128109790D01*
X132280467Y-128109785D01*
X132280465Y-128109783D01*
X132280459Y-128109776D01*
X130224426Y-126053744D01*
X130203274Y-126025488D01*
X130190667Y-126002399D01*
X130175500Y-125942974D01*
X130175500Y-125367582D01*
X130180521Y-125332655D01*
X130183707Y-125321802D01*
X130221477Y-125263021D01*
X130285031Y-125233992D01*
X130354152Y-125243914D01*
X130355298Y-125244438D01*
X130408117Y-125290170D01*
X130411211Y-125295243D01*
X130431980Y-125331216D01*
X130431982Y-125331218D01*
X130503446Y-125402682D01*
X130527364Y-125436310D01*
X130528419Y-125438489D01*
X130532432Y-125447673D01*
X130536288Y-125454735D01*
X130537612Y-125457468D01*
X130538849Y-125464876D01*
X130549302Y-125498260D01*
X130550836Y-125512529D01*
X130555251Y-125518756D01*
X130557764Y-125526984D01*
X130558424Y-125529449D01*
X130558429Y-125529466D01*
X130573383Y-125585283D01*
X130573384Y-125585285D01*
X130588765Y-125611926D01*
X130619527Y-125665208D01*
X130619529Y-125665211D01*
X130619530Y-125665212D01*
X130714636Y-125760318D01*
X130721083Y-125767830D01*
X130724292Y-125769974D01*
X132834788Y-127880470D01*
X132914712Y-127926614D01*
X133003856Y-127950500D01*
X134661626Y-127950500D01*
X134696553Y-127955521D01*
X134707406Y-127958707D01*
X134766187Y-127996477D01*
X134795216Y-128060031D01*
X134785277Y-128129190D01*
X134785273Y-128129199D01*
X134782088Y-128136173D01*
X134756975Y-128172341D01*
X134257877Y-128671440D01*
X133856934Y-129072381D01*
X133821350Y-129097225D01*
X133695085Y-129155682D01*
X133625226Y-129188025D01*
X133573131Y-129199500D01*
X133545943Y-129199500D01*
X133393218Y-129240422D01*
X133393211Y-129240424D01*
X133393210Y-129240425D01*
X133393200Y-129240430D01*
X133256298Y-129319470D01*
X133256294Y-129319472D01*
X133256290Y-129319475D01*
X133256282Y-129319481D01*
X133256278Y-129319484D01*
X133256276Y-129319485D01*
X133144485Y-129431276D01*
X133144484Y-129431278D01*
X133144481Y-129431281D01*
X133144481Y-129431282D01*
X133144475Y-129431290D01*
X133144472Y-129431294D01*
X133144470Y-129431298D01*
X133065430Y-129568200D01*
X133065425Y-129568210D01*
X133065424Y-129568211D01*
X133065422Y-129568218D01*
X133055350Y-129605809D01*
X133024500Y-129720943D01*
X133024500Y-129879057D01*
X133057684Y-130002899D01*
X133065423Y-130031783D01*
X133065426Y-130031790D01*
X133144335Y-130168467D01*
X133144442Y-130168678D01*
X133256287Y-130280523D01*
X133256967Y-130281013D01*
X133259461Y-130282355D01*
X133369947Y-130346143D01*
X133369949Y-130346144D01*
X133369948Y-130346144D01*
X133376338Y-130349833D01*
X133393216Y-130359577D01*
X133545943Y-130400500D01*
X133545945Y-130400500D01*
X133704055Y-130400500D01*
X133704057Y-130400500D01*
X133856784Y-130359577D01*
X133993716Y-130280520D01*
X134105520Y-130168716D01*
X134184577Y-130031784D01*
X134225500Y-129879057D01*
X134225500Y-129851866D01*
X134236974Y-129799771D01*
X134238786Y-129795858D01*
X134327773Y-129603646D01*
X134352613Y-129568066D01*
X135321258Y-128599423D01*
X135349508Y-128578275D01*
X135372600Y-128565667D01*
X135432025Y-128550500D01*
X145571142Y-128550500D01*
X145571144Y-128550500D01*
X145660288Y-128526614D01*
X145740212Y-128480470D01*
X148294768Y-125925912D01*
X148330711Y-125906285D01*
X148359858Y-125889504D01*
X148429644Y-125892910D01*
X148486511Y-125933505D01*
X148512403Y-125998400D01*
X148510683Y-126033652D01*
X148509581Y-126039334D01*
X148499250Y-126070185D01*
X148485418Y-126098478D01*
X148485417Y-126098481D01*
X148484497Y-126104804D01*
X148484495Y-126104818D01*
X148474500Y-126173417D01*
X148474500Y-126473493D01*
X148469476Y-126508430D01*
X148462064Y-126533671D01*
X148430769Y-126586415D01*
X143138929Y-131878254D01*
X143138925Y-131878260D01*
X143099500Y-131917684D01*
X143033610Y-132031806D01*
X143033609Y-132031808D01*
X142999500Y-132159108D01*
X142999500Y-135798494D01*
X142994476Y-135833431D01*
X142987064Y-135858672D01*
X142955769Y-135911416D01*
X137591612Y-141275573D01*
X137563361Y-141296722D01*
X137540273Y-141309330D01*
X137480843Y-141324500D01*
X126001506Y-141324500D01*
X125966570Y-141319477D01*
X125941328Y-141312065D01*
X125888583Y-141280769D01*
X124824426Y-140216612D01*
X124803274Y-140188356D01*
X124790667Y-140165267D01*
X124775500Y-140105842D01*
X124775500Y-136376505D01*
X124780522Y-136341572D01*
X124782366Y-136335293D01*
X124787934Y-136316327D01*
X124819228Y-136263585D01*
X125050496Y-136032318D01*
X125050499Y-136032315D01*
X125064934Y-136007314D01*
X125064937Y-136007310D01*
X125082086Y-135977604D01*
X125116392Y-135918186D01*
X125134796Y-135849500D01*
X125150500Y-135790893D01*
X125150500Y-135693189D01*
X125154575Y-135664381D01*
X125154384Y-135664346D01*
X125155220Y-135659824D01*
X125155367Y-135658788D01*
X125155493Y-135658353D01*
X125181334Y-135354197D01*
X125197501Y-135302698D01*
X125209577Y-135281784D01*
X125250500Y-135129057D01*
X125250500Y-134970943D01*
X125209577Y-134818216D01*
X125197500Y-134797299D01*
X125181333Y-134745790D01*
X125179397Y-134722988D01*
X125179397Y-134702006D01*
X125180303Y-134691335D01*
X125181333Y-134679204D01*
X125197502Y-134627698D01*
X125209577Y-134606784D01*
X125250500Y-134454057D01*
X125250500Y-134295943D01*
X125209577Y-134143216D01*
X125165966Y-134067678D01*
X125165966Y-134067677D01*
X125143107Y-134028085D01*
X125130524Y-134006290D01*
X125130518Y-134006282D01*
X125130517Y-134006281D01*
X125130513Y-134006276D01*
X125018722Y-133894485D01*
X125018720Y-133894484D01*
X125018717Y-133894481D01*
X125018709Y-133894475D01*
X124982732Y-133873704D01*
X124881807Y-133815435D01*
X124881783Y-133815422D01*
X124769979Y-133785464D01*
X124729057Y-133774500D01*
X124729056Y-133774500D01*
X124570943Y-133774500D01*
X124446045Y-133807966D01*
X124446043Y-133807966D01*
X124418216Y-133815423D01*
X124418215Y-133815423D01*
X124336674Y-133862500D01*
X124333272Y-133864197D01*
X124329148Y-133864934D01*
X124307178Y-133873731D01*
X124288891Y-133878168D01*
X124224712Y-133876639D01*
X124214715Y-133873703D01*
X124187661Y-133862117D01*
X124106784Y-133815423D01*
X124087288Y-133810199D01*
X123954057Y-133774500D01*
X123954056Y-133774500D01*
X123795943Y-133774500D01*
X123643218Y-133815422D01*
X123643211Y-133815424D01*
X123643210Y-133815425D01*
X123643200Y-133815430D01*
X123506298Y-133894470D01*
X123506294Y-133894472D01*
X123506290Y-133894475D01*
X123506282Y-133894481D01*
X123506278Y-133894484D01*
X123506276Y-133894485D01*
X123394485Y-134006276D01*
X123394484Y-134006278D01*
X123394481Y-134006281D01*
X123394481Y-134006282D01*
X123394475Y-134006290D01*
X123394472Y-134006294D01*
X123394470Y-134006298D01*
X123315430Y-134143200D01*
X123315425Y-134143210D01*
X123315424Y-134143211D01*
X123315422Y-134143218D01*
X123289795Y-134238861D01*
X123274500Y-134295943D01*
X123274500Y-134454056D01*
X123284251Y-134490450D01*
X123315420Y-134606775D01*
X123315422Y-134606781D01*
X123315423Y-134606783D01*
X123315424Y-134606786D01*
X123325578Y-134624373D01*
X123327497Y-134627697D01*
X123343664Y-134679200D01*
X123345601Y-134702001D01*
X123345601Y-134722996D01*
X123343663Y-134745803D01*
X123327497Y-134797301D01*
X123315426Y-134818208D01*
X123315425Y-134818211D01*
X123315423Y-134818216D01*
X123274500Y-134970943D01*
X123274500Y-135129056D01*
X123295721Y-135208254D01*
X123315419Y-135281769D01*
X123315424Y-135281786D01*
X123315428Y-135281793D01*
X123327496Y-135302696D01*
X123343664Y-135354198D01*
X123369506Y-135658352D01*
X123370335Y-135661466D01*
X123374500Y-135693334D01*
X123374500Y-135765890D01*
X123408608Y-135893188D01*
X123423042Y-135918187D01*
X123474497Y-136007310D01*
X123474502Y-136007316D01*
X123725573Y-136258387D01*
X123746723Y-136286639D01*
X123759331Y-136309728D01*
X123774500Y-136369157D01*
X123774500Y-140440891D01*
X123784457Y-140478051D01*
X123808608Y-140568188D01*
X123841554Y-140625250D01*
X123874500Y-140682314D01*
X125324500Y-142132314D01*
X125417686Y-142225500D01*
X125531814Y-142291392D01*
X125659108Y-142325500D01*
X125659110Y-142325500D01*
X137815890Y-142325500D01*
X137815892Y-142325500D01*
X137943186Y-142291392D01*
X138057314Y-142225500D01*
X143900500Y-136382314D01*
X143966392Y-136268186D01*
X144000500Y-136140892D01*
X144000500Y-136009108D01*
X144000500Y-132501504D01*
X144005522Y-132466571D01*
X144008325Y-132457025D01*
X144012549Y-132442636D01*
X153975001Y-132442636D01*
X153977764Y-132477751D01*
X153977764Y-132477752D01*
X154021469Y-132628189D01*
X154021469Y-132628190D01*
X154098009Y-132757612D01*
X154101207Y-132763019D01*
X154101214Y-132763028D01*
X154211971Y-132873785D01*
X154211980Y-132873792D01*
X154346810Y-132953530D01*
X154497240Y-132997233D01*
X154497241Y-132997233D01*
X154497244Y-132997234D01*
X154500245Y-132997470D01*
X154532385Y-132999999D01*
X154625000Y-132999998D01*
X154625000Y-131950000D01*
X153975001Y-131950000D01*
X153975001Y-132442636D01*
X144012549Y-132442636D01*
X144012934Y-132441326D01*
X144044228Y-132388584D01*
X145345200Y-131087612D01*
X148640938Y-131087612D01*
X148640938Y-131087613D01*
X148759859Y-131122163D01*
X148759863Y-131122164D01*
X148759870Y-131122166D01*
X148759876Y-131122167D01*
X148795864Y-131124999D01*
X148795880Y-131125000D01*
X149604115Y-131125000D01*
X149604120Y-131125000D01*
X149604135Y-131124999D01*
X149640123Y-131122167D01*
X149640129Y-131122166D01*
X149662064Y-131115793D01*
X149759058Y-131087614D01*
X149759058Y-131087613D01*
X149759060Y-131087613D01*
X149759060Y-131087612D01*
X149628819Y-130957371D01*
X153975000Y-130957371D01*
X153975000Y-130957379D01*
X153975000Y-131450000D01*
X154625000Y-131450000D01*
X154625000Y-130399999D01*
X154625000Y-130399998D01*
X154532398Y-130399999D01*
X154532378Y-130400000D01*
X154497245Y-130402764D01*
X154346809Y-130446469D01*
X154346808Y-130446469D01*
X154211982Y-130526205D01*
X154211970Y-130526214D01*
X154101214Y-130636970D01*
X154101205Y-130636982D01*
X154021469Y-130771808D01*
X154021469Y-130771809D01*
X153977764Y-130922244D01*
X153975000Y-130957371D01*
X149628819Y-130957371D01*
X149200001Y-130528553D01*
X149200000Y-130528553D01*
X148640938Y-131087612D01*
X145345200Y-131087612D01*
X146636954Y-129795858D01*
X148225000Y-129795858D01*
X148225000Y-130554140D01*
X148227832Y-130590128D01*
X148227833Y-130590129D01*
X148227834Y-130590135D01*
X148272313Y-130743229D01*
X148272577Y-130744167D01*
X148274324Y-130747121D01*
X148274324Y-130747120D01*
X148274325Y-130747121D01*
X148846447Y-130175000D01*
X148846445Y-130174998D01*
X149553553Y-130174998D01*
X149553553Y-130175000D01*
X150125672Y-130747120D01*
X150125672Y-130747119D01*
X150125673Y-130747120D01*
X150127407Y-130744190D01*
X150172166Y-130590129D01*
X150172167Y-130590123D01*
X150174999Y-130554135D01*
X150175000Y-130554120D01*
X150175000Y-129795879D01*
X150174999Y-129795864D01*
X150172167Y-129759876D01*
X150172166Y-129759870D01*
X150127406Y-129605809D01*
X150127405Y-129605806D01*
X150127403Y-129605802D01*
X150127402Y-129605799D01*
X150127401Y-129605797D01*
X150125674Y-129602878D01*
X150125673Y-129602877D01*
X149553553Y-130174998D01*
X148846445Y-130174998D01*
X148274324Y-129602877D01*
X148274323Y-129602878D01*
X148273128Y-129604900D01*
X148272597Y-129605799D01*
X148272589Y-129605813D01*
X148227835Y-129759859D01*
X148227834Y-129759863D01*
X148227832Y-129759877D01*
X148225000Y-129795858D01*
X146636954Y-129795858D01*
X147170426Y-129262386D01*
X148640938Y-129262386D01*
X148946616Y-129568063D01*
X149200000Y-129821447D01*
X149200001Y-129821447D01*
X149759059Y-129262386D01*
X149640124Y-129227833D01*
X149640120Y-129227832D01*
X149640121Y-129227832D01*
X149604138Y-129225000D01*
X149604135Y-129225000D01*
X148795864Y-129225000D01*
X148795857Y-129225000D01*
X148759878Y-129227832D01*
X148759875Y-129227832D01*
X148759874Y-129227833D01*
X148717284Y-129240206D01*
X148640938Y-129262386D01*
X147170426Y-129262386D01*
X147232814Y-129199998D01*
X150698552Y-129199998D01*
X150698552Y-129199999D01*
X150698553Y-129200000D01*
X151841447Y-129200000D01*
X151841447Y-129199999D01*
X151270000Y-128628553D01*
X150698552Y-129199998D01*
X147232814Y-129199998D01*
X148518692Y-127914120D01*
X150020000Y-127914120D01*
X150020000Y-128635878D01*
X150021273Y-128652047D01*
X150022673Y-128669846D01*
X150022799Y-128671439D01*
X150022799Y-128671440D01*
X150022802Y-128671457D01*
X150067027Y-128823680D01*
X150067031Y-128823689D01*
X150067033Y-128823694D01*
X150147731Y-128960148D01*
X150147735Y-128960153D01*
X150147738Y-128960157D01*
X150189514Y-129001932D01*
X150189515Y-129001932D01*
X150916447Y-128275000D01*
X150916447Y-128274999D01*
X150189515Y-127548067D01*
X150189514Y-127548067D01*
X150147742Y-127589837D01*
X150147735Y-127589845D01*
X150147731Y-127589850D01*
X150067033Y-127726304D01*
X150067031Y-127726309D01*
X150067027Y-127726318D01*
X150022802Y-127878541D01*
X150022801Y-127878545D01*
X150022799Y-127878559D01*
X150020000Y-127914120D01*
X148518692Y-127914120D01*
X149158389Y-127274423D01*
X149186639Y-127253275D01*
X149209731Y-127240667D01*
X149269156Y-127225500D01*
X149576577Y-127225500D01*
X149576582Y-127225500D01*
X149651518Y-127214582D01*
X149709310Y-127186329D01*
X149767099Y-127158078D01*
X149767102Y-127158076D01*
X149856252Y-127068926D01*
X149862386Y-127064164D01*
X149866755Y-127062445D01*
X149879007Y-127053274D01*
X149902097Y-127040667D01*
X149961522Y-127025500D01*
X150019090Y-127025500D01*
X150057752Y-127031681D01*
X150513875Y-127181361D01*
X150524401Y-127184566D01*
X150525358Y-127184835D01*
X150530978Y-127186288D01*
X150538151Y-127189795D01*
X150580743Y-127195999D01*
X150584709Y-127196846D01*
X150588506Y-127198899D01*
X150610563Y-127205422D01*
X150623175Y-127211211D01*
X150642750Y-127228239D01*
X150646165Y-127230086D01*
X150647354Y-127232244D01*
X150675891Y-127257067D01*
X150695447Y-127324141D01*
X150695403Y-127346851D01*
X150695405Y-127346854D01*
X151623553Y-128275000D01*
X152350484Y-129001932D01*
X152350485Y-129001932D01*
X152392261Y-128960157D01*
X152392264Y-128960153D01*
X152472967Y-128823691D01*
X152472969Y-128823686D01*
X152517199Y-128671447D01*
X152517200Y-128671440D01*
X152517325Y-128669843D01*
X152525070Y-128635397D01*
X152530642Y-128620777D01*
X152572626Y-128565354D01*
X152572688Y-128565308D01*
X152633019Y-128541636D01*
X152643654Y-128540467D01*
X152673370Y-128540785D01*
X152781329Y-128554999D01*
X153378664Y-128554999D01*
X153378671Y-128554999D01*
X153494018Y-128539813D01*
X153494027Y-128539811D01*
X153506211Y-128534763D01*
X152950735Y-127979287D01*
X152929586Y-127951037D01*
X152929292Y-127950499D01*
X152924164Y-127941107D01*
X152909311Y-127872837D01*
X152933725Y-127807372D01*
X152989655Y-127765500D01*
X152993534Y-127764053D01*
X152996870Y-127762810D01*
X153040184Y-127754999D01*
X153364361Y-127754999D01*
X153399293Y-127760020D01*
X153424537Y-127767433D01*
X153477283Y-127798729D01*
X153880473Y-128201921D01*
X153880473Y-128201920D01*
X153880474Y-128201921D01*
X153913131Y-128123080D01*
X153914465Y-128120157D01*
X153914813Y-128119020D01*
X153914814Y-128119018D01*
X153930000Y-128003669D01*
X153930000Y-127506328D01*
X153914814Y-127390979D01*
X153914813Y-127390977D01*
X153914465Y-127389841D01*
X153913134Y-127386923D01*
X153872333Y-127288422D01*
X153863606Y-127254233D01*
X153862122Y-127240427D01*
X153874525Y-127171671D01*
X153922130Y-127120535D01*
X153926670Y-127117841D01*
X153989917Y-127100500D01*
X154030332Y-127100500D01*
X154055926Y-127103170D01*
X154080695Y-127108395D01*
X154105188Y-127116291D01*
X154114793Y-127120532D01*
X154176173Y-127147634D01*
X154200877Y-127150500D01*
X155399122Y-127150499D01*
X155407083Y-127149575D01*
X155407083Y-127149581D01*
X155407104Y-127149572D01*
X155416732Y-127148456D01*
X155422450Y-127148126D01*
X155423060Y-127148027D01*
X155425675Y-127146817D01*
X155524891Y-127103010D01*
X155603010Y-127024891D01*
X155647634Y-126923827D01*
X155650500Y-126899123D01*
X155650499Y-126600878D01*
X155647634Y-126576173D01*
X155643314Y-126566390D01*
X155633800Y-126532413D01*
X155630504Y-126507246D01*
X155640024Y-126441060D01*
X155641455Y-126437819D01*
X155647634Y-126423827D01*
X155650500Y-126399123D01*
X155650499Y-126100878D01*
X155647634Y-126076173D01*
X155643314Y-126066390D01*
X155633800Y-126032413D01*
X155630504Y-126007246D01*
X155640022Y-125941064D01*
X155647634Y-125923827D01*
X155650500Y-125899123D01*
X155650499Y-125788369D01*
X155655518Y-125753447D01*
X155658706Y-125742588D01*
X155696475Y-125683812D01*
X155760028Y-125654782D01*
X155829187Y-125664721D01*
X155836170Y-125667910D01*
X155872342Y-125693024D01*
X155900572Y-125721254D01*
X155921724Y-125749511D01*
X155923033Y-125751909D01*
X155924309Y-125753696D01*
X155940523Y-125785061D01*
X155942637Y-125791148D01*
X155949500Y-125831829D01*
X155949500Y-127360626D01*
X155944476Y-127395565D01*
X155937064Y-127420805D01*
X155905770Y-127473547D01*
X155803229Y-127576087D01*
X155803226Y-127576090D01*
X155794531Y-127584786D01*
X155794529Y-127584788D01*
X155775627Y-127617528D01*
X155775618Y-127617543D01*
X155748389Y-127664704D01*
X155748387Y-127664708D01*
X155748383Y-127664719D01*
X155724500Y-127753856D01*
X155724500Y-130401266D01*
X155719475Y-130436207D01*
X155715564Y-130449524D01*
X155677787Y-130508300D01*
X155614229Y-130537322D01*
X155614207Y-130537325D01*
X155612939Y-130537507D01*
X155554153Y-130531732D01*
X155548857Y-130529868D01*
X155526904Y-130519633D01*
X155403192Y-130446470D01*
X155403193Y-130446470D01*
X155252753Y-130402764D01*
X155252754Y-130402764D01*
X155217627Y-130400000D01*
X155217620Y-130400000D01*
X155125000Y-130400000D01*
X155125000Y-132999999D01*
X155217593Y-132999999D01*
X155217604Y-132999999D01*
X155217625Y-132999998D01*
X155252756Y-132997234D01*
X155403189Y-132953530D01*
X155538019Y-132873792D01*
X155538024Y-132873788D01*
X155623602Y-132788209D01*
X155651848Y-132767063D01*
X155671761Y-132756190D01*
X155726879Y-132741099D01*
X155730630Y-132740969D01*
X155752800Y-132742189D01*
X155809839Y-132750500D01*
X156440160Y-132750499D01*
X156512179Y-132740007D01*
X156623266Y-132685700D01*
X156710700Y-132598266D01*
X156765007Y-132487179D01*
X156775500Y-132415161D01*
X156775499Y-130984840D01*
X156765007Y-130912821D01*
X156712379Y-130805169D01*
X156710936Y-130801970D01*
X156710698Y-130801731D01*
X156623268Y-130714301D01*
X156623267Y-130714300D01*
X156544154Y-130675624D01*
X156521406Y-130664503D01*
X156521398Y-130664498D01*
X156521398Y-130664499D01*
X156520901Y-130664256D01*
X156506863Y-130656217D01*
X156484999Y-130641726D01*
X156439994Y-130588283D01*
X156435987Y-130579171D01*
X156425500Y-130529263D01*
X156425500Y-130367662D01*
X156430521Y-130332735D01*
X156433686Y-130321954D01*
X156433707Y-130321880D01*
X156471477Y-130263101D01*
X156535031Y-130234072D01*
X156604186Y-130244010D01*
X156611172Y-130247200D01*
X156647342Y-130272313D01*
X156665492Y-130290463D01*
X156666174Y-130290955D01*
X156668680Y-130292303D01*
X156720033Y-130321951D01*
X156720035Y-130321952D01*
X156720034Y-130321952D01*
X156731051Y-130328312D01*
X156734011Y-130330021D01*
X156810438Y-130350500D01*
X156810440Y-130350500D01*
X158189560Y-130350500D01*
X158189562Y-130350500D01*
X158265989Y-130330021D01*
X158334511Y-130290460D01*
X158390460Y-130234511D01*
X158430021Y-130165989D01*
X158450500Y-130089562D01*
X158450500Y-128010438D01*
X158430021Y-127934011D01*
X158418537Y-127914120D01*
X158413479Y-127905358D01*
X158413479Y-127905359D01*
X158413478Y-127905357D01*
X158390464Y-127865495D01*
X158390458Y-127865487D01*
X158390454Y-127865483D01*
X158390453Y-127865481D01*
X158334517Y-127809545D01*
X158334515Y-127809544D01*
X158334512Y-127809541D01*
X158334504Y-127809535D01*
X158282883Y-127779732D01*
X158266872Y-127770488D01*
X158266050Y-127770004D01*
X158265995Y-127769981D01*
X158265991Y-127769980D01*
X158265990Y-127769979D01*
X158240513Y-127763152D01*
X158240509Y-127763150D01*
X158189563Y-127749500D01*
X158189562Y-127749500D01*
X156889562Y-127749500D01*
X156810438Y-127749500D01*
X156810435Y-127749500D01*
X156807626Y-127749500D01*
X156793223Y-127750271D01*
X156774687Y-127749829D01*
X156708136Y-127728552D01*
X156663655Y-127674677D01*
X156661342Y-127669275D01*
X156651333Y-127619695D01*
X156651535Y-127587133D01*
X156650500Y-127577356D01*
X156650500Y-125578857D01*
X156650500Y-125578856D01*
X156626614Y-125489712D01*
X156618183Y-125475109D01*
X156604803Y-125451936D01*
X156591688Y-125419174D01*
X156588415Y-125405682D01*
X156591742Y-125335893D01*
X156632224Y-125279018D01*
X156632518Y-125278786D01*
X156633504Y-125278010D01*
X156686749Y-125253685D01*
X156691672Y-125252736D01*
X156715117Y-125250500D01*
X156871142Y-125250500D01*
X156871144Y-125250500D01*
X156960288Y-125226614D01*
X156969762Y-125221144D01*
X157040212Y-125180470D01*
X157655469Y-124565213D01*
X157701614Y-124485288D01*
X157705836Y-124469531D01*
X157706938Y-124465421D01*
X157718200Y-124423387D01*
X157725500Y-124396144D01*
X157725500Y-116328856D01*
X157701614Y-116239712D01*
X157696189Y-116230315D01*
X157691244Y-116221750D01*
X157679018Y-116200575D01*
X157679017Y-116200572D01*
X157679016Y-116200571D01*
X157655477Y-116159800D01*
X157655473Y-116159793D01*
X157655472Y-116159791D01*
X157655468Y-116159786D01*
X157655464Y-116159782D01*
X157655460Y-116159777D01*
X156970470Y-115474788D01*
X156949321Y-115446538D01*
X156943899Y-115436608D01*
X156929046Y-115368338D01*
X156953460Y-115302873D01*
X157009390Y-115261001D01*
X157013269Y-115259554D01*
X157016605Y-115258311D01*
X157059919Y-115250500D01*
X158189560Y-115250500D01*
X158189562Y-115250500D01*
X158265989Y-115230021D01*
X158334511Y-115190460D01*
X158390460Y-115134511D01*
X158430021Y-115065989D01*
X158450500Y-114989562D01*
X158450500Y-112910438D01*
X158430021Y-112834011D01*
X158430017Y-112834004D01*
X158390464Y-112765495D01*
X158390458Y-112765487D01*
X158390454Y-112765483D01*
X158390453Y-112765481D01*
X158334517Y-112709545D01*
X158334515Y-112709544D01*
X158334512Y-112709541D01*
X158334504Y-112709535D01*
X158304400Y-112692154D01*
X158277117Y-112676403D01*
X158277116Y-112676402D01*
X158265995Y-112669982D01*
X158265990Y-112669979D01*
X158237417Y-112662323D01*
X158233137Y-112661176D01*
X158233131Y-112661174D01*
X158189562Y-112649500D01*
X156929505Y-112649500D01*
X156894570Y-112644477D01*
X156883716Y-112641290D01*
X156824938Y-112603516D01*
X156795913Y-112539960D01*
X156805856Y-112470803D01*
X156809046Y-112463820D01*
X156834152Y-112427660D01*
X156898785Y-112363027D01*
X156898792Y-112363018D01*
X156978530Y-112228188D01*
X157022233Y-112077758D01*
X157022234Y-112077753D01*
X157024999Y-112042619D01*
X157025000Y-112042606D01*
X157025000Y-111549999D01*
X156375000Y-111549999D01*
X156375000Y-112599998D01*
X156471460Y-112599998D01*
X156471460Y-112600563D01*
X156498690Y-112602535D01*
X156511988Y-112605329D01*
X156573549Y-112638372D01*
X156607474Y-112699453D01*
X156605184Y-112762600D01*
X156602692Y-112770834D01*
X156591396Y-112796914D01*
X156569979Y-112834008D01*
X156569980Y-112834008D01*
X156569979Y-112834012D01*
X156552086Y-112900789D01*
X156552085Y-112900791D01*
X156549500Y-112910437D01*
X156549500Y-114736626D01*
X156544476Y-114771564D01*
X156541289Y-114782417D01*
X156503514Y-114841194D01*
X156439957Y-114870217D01*
X156370807Y-114860276D01*
X156363829Y-114857089D01*
X156327657Y-114831975D01*
X155274426Y-113778744D01*
X155253274Y-113750488D01*
X155240667Y-113727399D01*
X155225500Y-113667974D01*
X155225500Y-112554504D01*
X155230521Y-112519577D01*
X155232181Y-112513921D01*
X155233707Y-112508722D01*
X155271477Y-112449943D01*
X155335031Y-112420914D01*
X155404186Y-112430852D01*
X155411172Y-112434042D01*
X155447342Y-112459155D01*
X155461971Y-112473784D01*
X155461980Y-112473791D01*
X155596810Y-112553529D01*
X155747240Y-112597232D01*
X155747241Y-112597232D01*
X155747244Y-112597233D01*
X155750245Y-112597469D01*
X155782385Y-112599998D01*
X155875000Y-112599997D01*
X155875000Y-111049999D01*
X156375000Y-111049999D01*
X157024999Y-111049999D01*
X157024999Y-110557395D01*
X157024998Y-110557373D01*
X157022234Y-110522242D01*
X156978530Y-110371809D01*
X156898792Y-110236979D01*
X156898785Y-110236970D01*
X156788028Y-110126213D01*
X156788019Y-110126206D01*
X156787442Y-110125865D01*
X156653189Y-110046468D01*
X156502753Y-110002763D01*
X156502754Y-110002763D01*
X156467627Y-109999999D01*
X156467620Y-109999999D01*
X156375000Y-109999999D01*
X156375000Y-111049999D01*
X155875000Y-111049999D01*
X155875000Y-109999998D01*
X155875000Y-109999997D01*
X155782398Y-109999998D01*
X155782378Y-109999999D01*
X155747245Y-110002763D01*
X155596809Y-110046468D01*
X155596808Y-110046468D01*
X155461982Y-110126204D01*
X155461965Y-110126217D01*
X155376396Y-110211787D01*
X155348138Y-110232940D01*
X155328235Y-110243807D01*
X155273154Y-110258897D01*
X155269415Y-110259028D01*
X155247198Y-110257809D01*
X155232220Y-110255627D01*
X155190161Y-110249499D01*
X155190157Y-110249499D01*
X155190156Y-110249499D01*
X154559850Y-110249499D01*
X154559845Y-110249499D01*
X154494438Y-110259028D01*
X154487821Y-110259992D01*
X154376728Y-110314301D01*
X154289302Y-110401727D01*
X154234992Y-110512819D01*
X154234992Y-110512821D01*
X154224500Y-110584837D01*
X154224500Y-112015158D01*
X154228501Y-112042619D01*
X154234993Y-112087179D01*
X154289301Y-112198267D01*
X154376731Y-112285697D01*
X154376732Y-112285697D01*
X154376970Y-112285935D01*
X154380175Y-112287381D01*
X154438945Y-112316112D01*
X154468122Y-112335966D01*
X154480313Y-112347104D01*
X154516100Y-112405280D01*
X154519925Y-112418969D01*
X154524500Y-112452339D01*
X154524500Y-113921148D01*
X154544540Y-113995941D01*
X154548380Y-114010273D01*
X154548384Y-114010286D01*
X154548386Y-114010289D01*
X154548387Y-114010291D01*
X154562644Y-114034984D01*
X154594526Y-114090206D01*
X154594527Y-114090209D01*
X154594532Y-114090214D01*
X154594538Y-114090221D01*
X156975573Y-116471255D01*
X156996723Y-116499507D01*
X157009331Y-116522596D01*
X157024500Y-116582025D01*
X157024500Y-124135626D01*
X157019476Y-124170563D01*
X157012064Y-124195804D01*
X156980769Y-124248548D01*
X156728744Y-124500573D01*
X156700493Y-124521722D01*
X156677405Y-124534330D01*
X156617975Y-124549500D01*
X156114374Y-124549500D01*
X156079438Y-124544477D01*
X156054196Y-124537065D01*
X156001450Y-124505768D01*
X155965215Y-124469532D01*
X155963286Y-124468052D01*
X155946211Y-124452190D01*
X155938426Y-124443458D01*
X155937152Y-124441331D01*
X155936805Y-124441639D01*
X155906758Y-124407934D01*
X155906734Y-124407883D01*
X155906554Y-124407704D01*
X155899720Y-124400000D01*
X155812129Y-124400000D01*
X155804027Y-124399735D01*
X155801502Y-124399569D01*
X155800439Y-124399500D01*
X155800438Y-124399500D01*
X155574562Y-124399500D01*
X155539623Y-124394476D01*
X155524623Y-124390071D01*
X155512534Y-124382301D01*
X155512200Y-124383182D01*
X155466484Y-124365810D01*
X155457588Y-124362027D01*
X155453422Y-124360060D01*
X155401205Y-124313637D01*
X155382375Y-124246352D01*
X155402906Y-124179578D01*
X155404024Y-124177886D01*
X155457389Y-124132813D01*
X155495954Y-124115785D01*
X155520435Y-124107894D01*
X155545213Y-124102668D01*
X155570798Y-124100000D01*
X155899717Y-124100000D01*
X155899718Y-124100000D01*
X155889482Y-124014752D01*
X155834520Y-123875377D01*
X155834518Y-123875374D01*
X155743996Y-123756003D01*
X155713777Y-123733087D01*
X155688974Y-123707974D01*
X155674770Y-123688751D01*
X155650762Y-123623136D01*
X155650499Y-123615061D01*
X155650499Y-123600885D01*
X155650499Y-123600878D01*
X155647634Y-123576173D01*
X155640330Y-123559632D01*
X155637725Y-123547775D01*
X155636388Y-123545852D01*
X155632941Y-123526003D01*
X155629781Y-123511622D01*
X155629674Y-123505240D01*
X155629900Y-123502629D01*
X155629590Y-123500268D01*
X155629473Y-123493228D01*
X155635853Y-123470071D01*
X155640024Y-123441061D01*
X155644473Y-123430985D01*
X155647634Y-123423827D01*
X155650500Y-123399123D01*
X155650499Y-123100878D01*
X155647634Y-123076173D01*
X155643314Y-123066390D01*
X155633800Y-123032413D01*
X155630504Y-123007246D01*
X155640021Y-122941067D01*
X155647634Y-122923827D01*
X155650500Y-122899123D01*
X155650499Y-122887261D01*
X155653283Y-122873795D01*
X155652882Y-122871672D01*
X155658069Y-122850647D01*
X155660668Y-122838079D01*
X155662561Y-122833695D01*
X155663691Y-122831552D01*
X155664122Y-122830084D01*
X155667129Y-122823124D01*
X155676629Y-122811692D01*
X155689942Y-122788090D01*
X155690856Y-122787101D01*
X155690859Y-122787100D01*
X155692175Y-122785676D01*
X155708252Y-122771099D01*
X155743996Y-122743994D01*
X155743999Y-122743991D01*
X155834520Y-122624622D01*
X155889482Y-122485248D01*
X155889482Y-122485247D01*
X155889483Y-122485242D01*
X155890129Y-122481842D01*
X155890367Y-122477878D01*
X155899720Y-122400001D01*
X155899719Y-122400000D01*
X155575695Y-122400000D01*
X155540761Y-122394977D01*
X155525762Y-122390573D01*
X155513082Y-122382424D01*
X155512825Y-122383102D01*
X155483623Y-122372002D01*
X155483621Y-122372002D01*
X155462971Y-122364153D01*
X155454024Y-122360344D01*
X155453362Y-122360031D01*
X155401170Y-122313580D01*
X155382376Y-122246286D01*
X155402906Y-122179578D01*
X155404024Y-122177886D01*
X155457389Y-122132813D01*
X155495954Y-122115785D01*
X155520435Y-122107894D01*
X155545213Y-122102668D01*
X155570798Y-122100000D01*
X155899717Y-122100000D01*
X155899718Y-122100000D01*
X155889482Y-122014752D01*
X155834520Y-121875377D01*
X155829085Y-121868210D01*
X155743996Y-121756003D01*
X155713777Y-121733087D01*
X155688974Y-121707974D01*
X155683505Y-121700573D01*
X155674770Y-121688751D01*
X155650762Y-121623136D01*
X155650499Y-121615061D01*
X155650499Y-121600885D01*
X155650499Y-121600878D01*
X155647634Y-121576173D01*
X155640330Y-121559632D01*
X155637725Y-121547775D01*
X155636388Y-121545852D01*
X155632941Y-121526003D01*
X155629781Y-121511622D01*
X155629674Y-121505240D01*
X155629900Y-121502629D01*
X155629590Y-121500268D01*
X155629473Y-121493228D01*
X155635853Y-121470071D01*
X155640024Y-121441061D01*
X155642724Y-121434945D01*
X155647634Y-121423827D01*
X155650500Y-121399123D01*
X155650499Y-121100878D01*
X155647634Y-121076173D01*
X155643314Y-121066390D01*
X155633800Y-121032413D01*
X155630504Y-121007246D01*
X155640021Y-120941067D01*
X155647634Y-120923827D01*
X155650500Y-120899123D01*
X155650499Y-120887261D01*
X155653283Y-120873795D01*
X155652882Y-120871672D01*
X155658069Y-120850647D01*
X155660668Y-120838079D01*
X155662561Y-120833695D01*
X155663691Y-120831552D01*
X155664122Y-120830084D01*
X155667129Y-120823124D01*
X155676629Y-120811692D01*
X155689942Y-120788090D01*
X155690856Y-120787101D01*
X155690859Y-120787100D01*
X155692175Y-120785676D01*
X155708252Y-120771099D01*
X155743996Y-120743994D01*
X155743999Y-120743991D01*
X155834520Y-120624622D01*
X155889482Y-120485248D01*
X155889482Y-120485247D01*
X155889483Y-120485242D01*
X155890129Y-120481842D01*
X155890367Y-120477878D01*
X155899720Y-120400001D01*
X155899719Y-120400000D01*
X155575695Y-120400000D01*
X155540761Y-120394977D01*
X155525762Y-120390573D01*
X155513082Y-120382424D01*
X155512825Y-120383102D01*
X155483623Y-120372002D01*
X155483621Y-120372002D01*
X155462971Y-120364153D01*
X155454024Y-120360344D01*
X155453362Y-120360031D01*
X155401170Y-120313580D01*
X155382376Y-120246286D01*
X155402906Y-120179578D01*
X155404024Y-120177886D01*
X155457389Y-120132813D01*
X155495954Y-120115785D01*
X155520435Y-120107894D01*
X155545213Y-120102668D01*
X155570798Y-120100000D01*
X155899717Y-120100000D01*
X155899718Y-120100000D01*
X155889482Y-120014752D01*
X155834520Y-119875377D01*
X155822057Y-119858942D01*
X155743996Y-119756003D01*
X155713777Y-119733087D01*
X155688974Y-119707974D01*
X155674770Y-119688751D01*
X155650762Y-119623136D01*
X155650499Y-119615061D01*
X155650499Y-119600885D01*
X155650499Y-119600878D01*
X155647634Y-119576173D01*
X155640330Y-119559632D01*
X155637725Y-119547775D01*
X155636388Y-119545852D01*
X155632941Y-119526003D01*
X155629781Y-119511622D01*
X155629674Y-119505240D01*
X155629900Y-119502629D01*
X155629590Y-119500268D01*
X155629473Y-119493228D01*
X155635853Y-119470071D01*
X155640024Y-119441061D01*
X155642724Y-119434945D01*
X155647634Y-119423827D01*
X155650500Y-119399123D01*
X155650499Y-119100878D01*
X155647634Y-119076173D01*
X155643314Y-119066390D01*
X155633800Y-119032413D01*
X155630504Y-119007246D01*
X155640021Y-118941067D01*
X155647634Y-118923827D01*
X155650500Y-118899123D01*
X155650499Y-118887261D01*
X155653283Y-118873795D01*
X155652882Y-118871672D01*
X155658069Y-118850647D01*
X155660668Y-118838079D01*
X155662561Y-118833695D01*
X155663691Y-118831552D01*
X155664122Y-118830084D01*
X155667129Y-118823124D01*
X155676629Y-118811692D01*
X155689942Y-118788090D01*
X155690856Y-118787101D01*
X155690859Y-118787100D01*
X155692175Y-118785676D01*
X155708252Y-118771099D01*
X155743996Y-118743994D01*
X155743999Y-118743991D01*
X155834520Y-118624622D01*
X155889482Y-118485248D01*
X155889482Y-118485247D01*
X155889483Y-118485242D01*
X155890129Y-118481842D01*
X155890367Y-118477878D01*
X155899720Y-118400001D01*
X155899719Y-118400000D01*
X155575695Y-118400000D01*
X155540761Y-118394977D01*
X155525762Y-118390573D01*
X155513082Y-118382424D01*
X155512825Y-118383102D01*
X155483623Y-118372002D01*
X155483621Y-118372002D01*
X155462971Y-118364153D01*
X155454024Y-118360344D01*
X155453362Y-118360031D01*
X155401170Y-118313580D01*
X155382376Y-118246286D01*
X155402906Y-118179578D01*
X155404024Y-118177886D01*
X155457389Y-118132813D01*
X155495954Y-118115785D01*
X155520435Y-118107894D01*
X155545213Y-118102668D01*
X155570798Y-118100000D01*
X155899717Y-118100000D01*
X155899718Y-118100000D01*
X155889482Y-118014752D01*
X155834520Y-117875377D01*
X155793667Y-117821504D01*
X155743996Y-117756003D01*
X155713777Y-117733087D01*
X155688974Y-117707974D01*
X155674770Y-117688751D01*
X155650762Y-117623136D01*
X155650499Y-117615061D01*
X155650499Y-117600885D01*
X155650499Y-117600878D01*
X155647634Y-117576173D01*
X155640330Y-117559632D01*
X155637725Y-117547775D01*
X155636388Y-117545852D01*
X155632941Y-117526003D01*
X155629781Y-117511622D01*
X155629674Y-117505240D01*
X155629900Y-117502629D01*
X155629590Y-117500268D01*
X155629473Y-117493228D01*
X155635853Y-117470071D01*
X155640024Y-117441061D01*
X155642724Y-117434945D01*
X155647634Y-117423827D01*
X155650500Y-117399123D01*
X155650499Y-117100878D01*
X155647634Y-117076173D01*
X155643314Y-117066390D01*
X155633800Y-117032413D01*
X155630504Y-117007246D01*
X155640021Y-116941067D01*
X155647634Y-116923827D01*
X155650500Y-116899123D01*
X155650499Y-116887261D01*
X155653283Y-116873795D01*
X155652882Y-116871672D01*
X155658069Y-116850647D01*
X155660668Y-116838079D01*
X155662561Y-116833695D01*
X155663691Y-116831552D01*
X155664122Y-116830084D01*
X155667129Y-116823124D01*
X155676629Y-116811692D01*
X155689942Y-116788090D01*
X155690856Y-116787101D01*
X155690859Y-116787100D01*
X155692175Y-116785676D01*
X155708252Y-116771099D01*
X155743996Y-116743994D01*
X155743999Y-116743991D01*
X155834520Y-116624622D01*
X155889482Y-116485248D01*
X155889482Y-116485247D01*
X155889483Y-116485242D01*
X155890129Y-116481842D01*
X155890367Y-116477878D01*
X155899720Y-116400001D01*
X155899719Y-116400000D01*
X155570803Y-116400000D01*
X155545204Y-116397329D01*
X155520430Y-116392102D01*
X155495942Y-116384207D01*
X155423830Y-116352366D01*
X155399128Y-116349500D01*
X155399126Y-116349500D01*
X154941830Y-116349500D01*
X154906898Y-116344478D01*
X154901789Y-116342978D01*
X154843010Y-116305205D01*
X154817798Y-116250000D01*
X154805330Y-116250000D01*
X154791830Y-116250000D01*
X154756889Y-116244975D01*
X154741890Y-116240570D01*
X154683144Y-116202827D01*
X154681957Y-116201458D01*
X154654477Y-116146583D01*
X154652832Y-116139021D01*
X154650000Y-116112668D01*
X154650000Y-116100000D01*
X154950000Y-116100000D01*
X155899717Y-116100000D01*
X155899718Y-116100000D01*
X155889482Y-116014752D01*
X155834520Y-115875377D01*
X155834518Y-115875374D01*
X155743996Y-115756002D01*
X155624624Y-115665480D01*
X155624622Y-115665479D01*
X155528308Y-115627498D01*
X155485245Y-115610516D01*
X155440290Y-115605118D01*
X155397668Y-115600000D01*
X155397662Y-115600000D01*
X154950000Y-115600000D01*
X154950000Y-116100000D01*
X154650000Y-116100000D01*
X154650000Y-115600000D01*
X154202340Y-115600000D01*
X154166819Y-115604264D01*
X154114752Y-115610516D01*
X153967551Y-115668565D01*
X153964723Y-115669888D01*
X153946002Y-115677004D01*
X153876344Y-115682422D01*
X153814813Y-115649319D01*
X153781892Y-115592122D01*
X153779445Y-115582654D01*
X153775500Y-115551626D01*
X153775500Y-114728505D01*
X153783095Y-114685776D01*
X153857409Y-114483326D01*
X153857568Y-114482893D01*
X153886289Y-114437945D01*
X153905520Y-114418716D01*
X153984577Y-114281784D01*
X154025500Y-114129057D01*
X154025500Y-113970943D01*
X153984577Y-113818216D01*
X153955389Y-113767660D01*
X153955389Y-113767659D01*
X153914320Y-113696526D01*
X153905524Y-113681290D01*
X153905518Y-113681282D01*
X153905514Y-113681278D01*
X153905513Y-113681276D01*
X153793722Y-113569485D01*
X153793720Y-113569484D01*
X153793717Y-113569481D01*
X153793709Y-113569475D01*
X153758390Y-113549084D01*
X153656807Y-113490435D01*
X153656783Y-113490422D01*
X153511196Y-113451413D01*
X153504057Y-113449500D01*
X153504056Y-113449500D01*
X153345941Y-113449500D01*
X153273813Y-113468826D01*
X153238772Y-113473016D01*
X153224898Y-113472686D01*
X153158346Y-113451413D01*
X153113860Y-113397536D01*
X153113856Y-113397528D01*
X153110509Y-113389711D01*
X153100500Y-113340904D01*
X153100500Y-112353858D01*
X153100500Y-112353856D01*
X153076614Y-112264712D01*
X153055527Y-112228189D01*
X153050529Y-112219531D01*
X153050527Y-112219529D01*
X153030470Y-112184788D01*
X151183156Y-110337474D01*
X151162006Y-110309222D01*
X151159078Y-110303860D01*
X151144225Y-110235587D01*
X151168641Y-110170122D01*
X151224573Y-110128250D01*
X151294261Y-110123264D01*
X151306218Y-110125865D01*
X151306218Y-110125864D01*
X151333636Y-110131829D01*
X151339357Y-110133216D01*
X151403856Y-110150499D01*
X151403858Y-110150499D01*
X153596142Y-110150499D01*
X153596144Y-110150499D01*
X153685288Y-110126613D01*
X153765212Y-110080468D01*
X153830469Y-110015211D01*
X153876614Y-109935287D01*
X153900500Y-109846143D01*
X153900500Y-106753855D01*
X153876614Y-106664711D01*
X153876612Y-106664708D01*
X153858503Y-106633342D01*
X153830473Y-106584793D01*
X153830470Y-106584790D01*
X153830469Y-106584787D01*
X153779116Y-106533434D01*
X153756728Y-106502857D01*
X153745818Y-106481828D01*
X153735844Y-106468169D01*
X153731687Y-106398423D01*
X153765898Y-106337502D01*
X153794402Y-106316689D01*
X153797641Y-106314970D01*
X153855771Y-106300500D01*
X157137112Y-106300500D01*
X157172039Y-106305521D01*
X157182892Y-106308707D01*
X157241673Y-106346477D01*
X157270702Y-106410031D01*
X157260763Y-106479190D01*
X157260760Y-106479196D01*
X157258747Y-106483604D01*
X157230978Y-106522352D01*
X157213709Y-106538619D01*
X157204752Y-106549563D01*
X157169534Y-106584781D01*
X157169531Y-106584785D01*
X157169519Y-106584803D01*
X157123389Y-106664703D01*
X157123388Y-106664704D01*
X157123384Y-106664715D01*
X157102658Y-106742070D01*
X157099500Y-106753855D01*
X157099500Y-109846142D01*
X157101537Y-109853744D01*
X157123384Y-109935281D01*
X157123386Y-109935287D01*
X157123387Y-109935289D01*
X157123388Y-109935292D01*
X157128405Y-109943981D01*
X157162343Y-110002764D01*
X157169526Y-110015204D01*
X157169529Y-110015208D01*
X157169531Y-110015211D01*
X157234788Y-110080468D01*
X157234791Y-110080469D01*
X157234794Y-110080472D01*
X157241020Y-110084066D01*
X157241684Y-110084729D01*
X157243036Y-110085565D01*
X157245651Y-110086740D01*
X157314706Y-110126610D01*
X157314707Y-110126610D01*
X157314712Y-110126613D01*
X157403856Y-110150499D01*
X157403858Y-110150499D01*
X159557667Y-110150499D01*
X159592603Y-110155522D01*
X159607601Y-110159926D01*
X159666352Y-110197671D01*
X159667539Y-110199040D01*
X159695015Y-110253901D01*
X159696660Y-110261459D01*
X159699497Y-110287830D01*
X159699497Y-132707670D01*
X159694472Y-132742614D01*
X159690067Y-132757612D01*
X159652324Y-132816355D01*
X159650955Y-132817542D01*
X159596094Y-132845018D01*
X159588536Y-132846663D01*
X159562165Y-132849500D01*
X157403856Y-132849500D01*
X157321466Y-132871575D01*
X157321451Y-132871580D01*
X157314712Y-132873386D01*
X157314711Y-132873386D01*
X157314709Y-132873387D01*
X157314706Y-132873388D01*
X157311906Y-132875004D01*
X157311902Y-132875006D01*
X157234804Y-132919519D01*
X157234786Y-132919531D01*
X157169531Y-132984786D01*
X157169519Y-132984804D01*
X157125006Y-133061902D01*
X157125004Y-133061906D01*
X157123388Y-133064706D01*
X157123387Y-133064709D01*
X157123386Y-133064711D01*
X157123386Y-133064712D01*
X157121580Y-133071451D01*
X157121575Y-133071466D01*
X157099500Y-133153856D01*
X157099500Y-136246145D01*
X157122580Y-136332282D01*
X157123383Y-136335277D01*
X157123385Y-136335284D01*
X157123386Y-136335288D01*
X157123389Y-136335295D01*
X157169519Y-136415194D01*
X157169531Y-136415212D01*
X157220883Y-136466564D01*
X157243281Y-136497160D01*
X157254162Y-136518143D01*
X157264147Y-136531813D01*
X157268311Y-136601559D01*
X157234107Y-136662484D01*
X157205605Y-136683301D01*
X157202365Y-136685021D01*
X157144223Y-136699497D01*
X153862891Y-136699497D01*
X153827956Y-136694474D01*
X153817102Y-136691287D01*
X153758324Y-136653513D01*
X153729299Y-136589957D01*
X153739241Y-136520803D01*
X153741263Y-136516376D01*
X153769016Y-136477645D01*
X153786349Y-136461311D01*
X153795247Y-136450433D01*
X153830469Y-136415212D01*
X153876614Y-136335288D01*
X153900500Y-136246144D01*
X153900500Y-133153856D01*
X153876614Y-133064712D01*
X153876612Y-133064709D01*
X153871382Y-133055650D01*
X153830473Y-132984794D01*
X153830472Y-132984793D01*
X153830470Y-132984789D01*
X153766378Y-132920697D01*
X153765212Y-132919531D01*
X153765209Y-132919529D01*
X153765205Y-132919526D01*
X153699190Y-132881411D01*
X153698835Y-132881204D01*
X153698460Y-132880806D01*
X153692895Y-132876536D01*
X153686999Y-132874094D01*
X153683596Y-132872624D01*
X153683126Y-132872412D01*
X153681234Y-132871706D01*
X153677684Y-132870235D01*
X153669520Y-132869161D01*
X153596144Y-132849500D01*
X153596143Y-132849500D01*
X151403856Y-132849500D01*
X151321466Y-132871575D01*
X151321451Y-132871580D01*
X151314712Y-132873386D01*
X151314711Y-132873386D01*
X151314709Y-132873387D01*
X151314706Y-132873388D01*
X151311906Y-132875004D01*
X151311902Y-132875006D01*
X151234804Y-132919519D01*
X151234786Y-132919531D01*
X151169531Y-132984786D01*
X151169519Y-132984804D01*
X151125006Y-133061902D01*
X151125004Y-133061906D01*
X151123388Y-133064706D01*
X151123387Y-133064709D01*
X151123386Y-133064711D01*
X151123386Y-133064712D01*
X151121580Y-133071451D01*
X151121575Y-133071466D01*
X151099500Y-133153856D01*
X151099500Y-136246145D01*
X151122580Y-136332282D01*
X151123383Y-136335277D01*
X151123385Y-136335284D01*
X151123386Y-136335288D01*
X151123389Y-136335295D01*
X151142939Y-136369157D01*
X151169526Y-136415205D01*
X151169529Y-136415209D01*
X151169531Y-136415212D01*
X151234788Y-136480469D01*
X151234791Y-136480470D01*
X151234794Y-136480473D01*
X151241020Y-136484067D01*
X151241684Y-136484730D01*
X151243036Y-136485566D01*
X151245651Y-136486741D01*
X151314706Y-136526611D01*
X151314707Y-136526611D01*
X151314712Y-136526614D01*
X151403856Y-136550500D01*
X151403858Y-136550500D01*
X151911237Y-136550500D01*
X151949908Y-136561855D01*
X151979370Y-136567949D01*
X151992693Y-136581002D01*
X151998381Y-136585881D01*
X151998057Y-136586257D01*
X152029279Y-136616845D01*
X152044830Y-136684962D01*
X152021085Y-136750673D01*
X151996386Y-136775884D01*
X151992969Y-136778497D01*
X151986965Y-136782184D01*
X151987027Y-136782271D01*
X151975653Y-136790339D01*
X151973047Y-136792669D01*
X151872698Y-136872695D01*
X151788333Y-136978483D01*
X151788332Y-136978485D01*
X151729613Y-137100414D01*
X151699503Y-137232330D01*
X151699503Y-137299998D01*
X151699502Y-137347585D01*
X151699502Y-137347590D01*
X151699500Y-150557667D01*
X151694475Y-150592611D01*
X151690070Y-150607609D01*
X151652327Y-150666352D01*
X151650958Y-150667539D01*
X151596097Y-150695015D01*
X151588539Y-150696660D01*
X151562168Y-150699497D01*
X149731877Y-150699497D01*
X149696938Y-150694473D01*
X149683620Y-150690562D01*
X149624843Y-150652786D01*
X149595821Y-150589229D01*
X149595820Y-150589224D01*
X149594826Y-150582307D01*
X149599634Y-150526352D01*
X149640512Y-150400538D01*
X149642950Y-150393717D01*
X149643672Y-150391868D01*
X149644645Y-150387817D01*
X149648950Y-150374564D01*
X149648339Y-150372850D01*
X149649663Y-150346375D01*
X149675500Y-150183254D01*
X149675500Y-149966746D01*
X149641630Y-149752903D01*
X149576234Y-149551632D01*
X149575170Y-149547860D01*
X149476430Y-149354076D01*
X149469425Y-149344435D01*
X149469424Y-149344435D01*
X149349172Y-149178922D01*
X149196078Y-149025828D01*
X149020919Y-148898567D01*
X149020918Y-148898566D01*
X149020916Y-148898565D01*
X148863932Y-148818576D01*
X148835092Y-148798247D01*
X148830985Y-148794368D01*
X148825678Y-148789356D01*
X148790453Y-148729018D01*
X148793441Y-148659212D01*
X148829616Y-148605486D01*
X148836624Y-148599415D01*
X148861526Y-148582648D01*
X148930366Y-148547572D01*
X149020919Y-148501433D01*
X149196078Y-148374172D01*
X149349172Y-148221078D01*
X149476433Y-148045919D01*
X149574726Y-147853009D01*
X149641630Y-147647097D01*
X149675500Y-147433254D01*
X149675500Y-147216746D01*
X149641630Y-147002903D01*
X149574726Y-146796991D01*
X149574726Y-146796990D01*
X149524642Y-146698697D01*
X149486529Y-146623895D01*
X149476434Y-146604082D01*
X149409754Y-146512306D01*
X149349172Y-146428922D01*
X149349171Y-146428921D01*
X149348448Y-146428075D01*
X149346466Y-146425199D01*
X149346308Y-146424981D01*
X149346313Y-146424977D01*
X149333912Y-146406978D01*
X149326639Y-146393660D01*
X149311784Y-146325388D01*
X149335758Y-146260513D01*
X149343772Y-146249674D01*
X149367994Y-146225017D01*
X149375618Y-146219168D01*
X149520080Y-146108319D01*
X149733319Y-145895080D01*
X149916900Y-145655832D01*
X150067683Y-145394668D01*
X150183087Y-145116058D01*
X150261138Y-144824768D01*
X150300500Y-144525783D01*
X150300500Y-144224217D01*
X150261138Y-143925232D01*
X150183087Y-143633942D01*
X150178928Y-143623902D01*
X150108138Y-143453000D01*
X150067683Y-143355332D01*
X150043569Y-143313566D01*
X149916900Y-143094168D01*
X149901145Y-143073636D01*
X149733326Y-142854928D01*
X149733322Y-142854924D01*
X149733320Y-142854921D01*
X149733314Y-142854914D01*
X149520085Y-142641685D01*
X149520078Y-142641679D01*
X149520075Y-142641677D01*
X149520070Y-142641672D01*
X149280835Y-142458102D01*
X149280834Y-142458101D01*
X149280831Y-142458099D01*
X149051163Y-142325500D01*
X149019668Y-142307316D01*
X149019618Y-142307292D01*
X149018980Y-142307032D01*
X148741058Y-142191912D01*
X148553513Y-142141660D01*
X148449766Y-142113861D01*
X148449760Y-142113860D01*
X148449755Y-142113859D01*
X148154883Y-142075039D01*
X148152867Y-142074705D01*
X148150793Y-142074500D01*
X148150788Y-142074500D01*
X148150783Y-142074500D01*
X147849217Y-142074500D01*
X147849211Y-142074500D01*
X147849206Y-142074500D01*
X147847129Y-142074705D01*
X147845115Y-142075039D01*
X147550243Y-142113859D01*
X147550236Y-142113860D01*
X147550233Y-142113861D01*
X147488673Y-142130355D01*
X147258940Y-142191912D01*
X146981018Y-142307032D01*
X146980388Y-142307288D01*
X146980330Y-142307316D01*
X146750017Y-142440287D01*
X146729767Y-142451980D01*
X146719163Y-142458102D01*
X146479928Y-142641672D01*
X146479921Y-142641679D01*
X146479914Y-142641685D01*
X146479910Y-142641688D01*
X146479905Y-142641693D01*
X146266693Y-142854905D01*
X146266686Y-142854913D01*
X146266672Y-142854928D01*
X146083102Y-143094163D01*
X145932316Y-143355330D01*
X145932288Y-143355388D01*
X145932032Y-143356018D01*
X145816912Y-143633940D01*
X145759979Y-143846420D01*
X145738862Y-143925232D01*
X145738859Y-143925243D01*
X145699501Y-144224199D01*
X145699500Y-144224228D01*
X145699500Y-144525770D01*
X145699501Y-144525799D01*
X145738859Y-144824755D01*
X145738860Y-144824760D01*
X145738861Y-144824766D01*
X145755385Y-144886433D01*
X145816912Y-145116058D01*
X145870121Y-145244514D01*
X145927625Y-145383342D01*
X145932032Y-145393980D01*
X145932292Y-145394618D01*
X145932316Y-145394668D01*
X145963481Y-145448647D01*
X146083099Y-145655831D01*
X146083100Y-145655832D01*
X146083102Y-145655835D01*
X146266672Y-145895070D01*
X146266676Y-145895075D01*
X146266679Y-145895078D01*
X146266685Y-145895085D01*
X146479914Y-146108314D01*
X146479921Y-146108320D01*
X146479924Y-146108322D01*
X146479928Y-146108326D01*
X146554639Y-146165653D01*
X146719168Y-146291900D01*
X146980328Y-146442681D01*
X146980343Y-146442688D01*
X147026106Y-146461643D01*
X147056456Y-146479650D01*
X147057310Y-146480338D01*
X147068276Y-146489175D01*
X147108124Y-146546568D01*
X147111541Y-146612515D01*
X147109023Y-146623895D01*
X147098436Y-146653401D01*
X147028563Y-146790533D01*
X147027618Y-146792147D01*
X147025271Y-146796993D01*
X146958370Y-147002897D01*
X146924500Y-147216746D01*
X146924500Y-147433252D01*
X146958370Y-147647101D01*
X147025263Y-147852982D01*
X147025270Y-147853001D01*
X147025270Y-147853002D01*
X147025271Y-147853005D01*
X147025272Y-147853006D01*
X147025273Y-147853009D01*
X147107253Y-148013902D01*
X147123567Y-148045919D01*
X147250828Y-148221078D01*
X147403922Y-148374172D01*
X147502806Y-148446016D01*
X147579076Y-148501430D01*
X147579080Y-148501432D01*
X147579081Y-148501433D01*
X147669637Y-148547573D01*
X147736066Y-148581421D01*
X147736067Y-148581422D01*
X147764910Y-148601755D01*
X147774325Y-148610647D01*
X147783313Y-148626046D01*
X147786860Y-148629396D01*
X147788032Y-148634130D01*
X147809547Y-148670989D01*
X147806555Y-148740794D01*
X147770380Y-148794514D01*
X147763374Y-148800584D01*
X147738473Y-148817350D01*
X147579092Y-148898560D01*
X147579083Y-148898565D01*
X147579080Y-148898567D01*
X147579077Y-148898569D01*
X147579074Y-148898571D01*
X147487566Y-148965056D01*
X147415792Y-149017203D01*
X147408413Y-149021335D01*
X147246334Y-149183414D01*
X147242204Y-149190789D01*
X147196174Y-149254144D01*
X147123569Y-149354076D01*
X147025270Y-149546996D01*
X147025270Y-149546997D01*
X147025263Y-149547016D01*
X146958370Y-149752897D01*
X146924500Y-149966746D01*
X146924500Y-150183258D01*
X146958370Y-150397101D01*
X146998375Y-150520225D01*
X147004393Y-150555004D01*
X147004789Y-150568875D01*
X146987026Y-150636449D01*
X146935562Y-150683686D01*
X146929291Y-150686770D01*
X146874569Y-150699498D01*
X142960454Y-150699500D01*
X133002553Y-150699500D01*
X133000840Y-150699488D01*
X132999175Y-150699465D01*
X132997530Y-150699432D01*
X132317503Y-150681011D01*
X132314152Y-150680874D01*
X132310793Y-150680692D01*
X132307439Y-150680465D01*
X131631965Y-150625464D01*
X131628629Y-150625147D01*
X131625326Y-150624788D01*
X131621985Y-150624379D01*
X130950451Y-150532886D01*
X130947115Y-150532385D01*
X130943781Y-150531838D01*
X130940490Y-150531252D01*
X130274968Y-150403550D01*
X130271693Y-150402876D01*
X130268402Y-150402152D01*
X130265118Y-150401383D01*
X129607422Y-150237823D01*
X129604183Y-150236971D01*
X129600937Y-150236070D01*
X129597705Y-150235125D01*
X128949878Y-150036212D01*
X128946700Y-150035189D01*
X128943493Y-150034109D01*
X128940307Y-150032988D01*
X128304161Y-149799280D01*
X128301036Y-149798083D01*
X128297928Y-149796845D01*
X128294814Y-149795556D01*
X127672248Y-149527747D01*
X127669184Y-149526379D01*
X127666147Y-149524974D01*
X127663116Y-149523522D01*
X127055972Y-149222407D01*
X127052984Y-149220874D01*
X127050034Y-149219310D01*
X127047089Y-149217698D01*
X126482636Y-148898571D01*
X126457088Y-148884127D01*
X126454177Y-148882427D01*
X126453269Y-148881881D01*
X126451278Y-148880682D01*
X126448467Y-148878937D01*
X125877464Y-148513961D01*
X125874650Y-148512108D01*
X125871863Y-148510218D01*
X125869118Y-148508302D01*
X125318693Y-148112932D01*
X125315993Y-148110937D01*
X125313292Y-148108883D01*
X125310666Y-148106830D01*
X125157924Y-147984053D01*
X125133842Y-147958251D01*
X125125911Y-147946858D01*
X125103765Y-147880591D01*
X125120960Y-147812873D01*
X125125232Y-147805652D01*
X125159060Y-147768483D01*
X125223806Y-147721444D01*
X125376900Y-147568350D01*
X125504161Y-147393191D01*
X125526561Y-147349228D01*
X129199500Y-147349228D01*
X129199500Y-147650770D01*
X129199501Y-147650799D01*
X129238859Y-147949755D01*
X129238860Y-147949760D01*
X129238861Y-147949766D01*
X129256046Y-148013902D01*
X129311558Y-148221078D01*
X129316913Y-148241060D01*
X129429185Y-148512108D01*
X129432032Y-148518980D01*
X129432292Y-148519618D01*
X129432316Y-148519668D01*
X129474466Y-148592673D01*
X129583099Y-148780831D01*
X129583100Y-148780832D01*
X129583102Y-148780835D01*
X129766672Y-149020070D01*
X129766676Y-149020075D01*
X129766679Y-149020078D01*
X129766685Y-149020085D01*
X129979914Y-149233314D01*
X129979921Y-149233320D01*
X129979924Y-149233322D01*
X129979928Y-149233326D01*
X130124729Y-149344435D01*
X130219168Y-149416900D01*
X130476899Y-149565701D01*
X130482093Y-149568701D01*
X130482095Y-149568702D01*
X130482683Y-149569042D01*
X130487828Y-149570787D01*
X130666072Y-149644619D01*
X130666071Y-149644619D01*
X130736064Y-149673611D01*
X130758939Y-149683086D01*
X130758940Y-149683086D01*
X130758942Y-149683087D01*
X130758944Y-149683087D01*
X130759691Y-149683397D01*
X130762842Y-149684132D01*
X131050232Y-149761138D01*
X131349217Y-149800500D01*
X131349224Y-149800500D01*
X131650776Y-149800500D01*
X131650783Y-149800500D01*
X131949768Y-149761138D01*
X132241058Y-149683087D01*
X132519668Y-149567683D01*
X132780832Y-149416900D01*
X133020080Y-149233319D01*
X133233319Y-149020080D01*
X133416900Y-148780832D01*
X133567683Y-148519668D01*
X133683087Y-148241058D01*
X133761138Y-147949768D01*
X133800500Y-147650783D01*
X133800500Y-147349217D01*
X133761138Y-147050232D01*
X133683087Y-146758942D01*
X133567683Y-146480332D01*
X133545949Y-146442688D01*
X133416900Y-146219168D01*
X133352225Y-146134881D01*
X133233326Y-145979928D01*
X133233322Y-145979924D01*
X133233320Y-145979921D01*
X133233314Y-145979914D01*
X133020085Y-145766685D01*
X133020078Y-145766679D01*
X133020075Y-145766676D01*
X133020070Y-145766672D01*
X132780835Y-145583102D01*
X132780834Y-145583101D01*
X132780831Y-145583099D01*
X132519671Y-145432318D01*
X132519670Y-145432317D01*
X132519664Y-145432314D01*
X132519618Y-145432292D01*
X132518980Y-145432032D01*
X132241058Y-145316912D01*
X132095413Y-145277887D01*
X131949766Y-145238861D01*
X131949760Y-145238860D01*
X131949755Y-145238859D01*
X131654883Y-145200039D01*
X131652867Y-145199705D01*
X131650793Y-145199500D01*
X131650788Y-145199500D01*
X131650783Y-145199500D01*
X131349217Y-145199500D01*
X131349211Y-145199500D01*
X131349206Y-145199500D01*
X131347129Y-145199705D01*
X131345115Y-145200039D01*
X131050243Y-145238859D01*
X131050236Y-145238860D01*
X131050233Y-145238861D01*
X131029136Y-145244514D01*
X130758940Y-145316912D01*
X130481018Y-145432032D01*
X130480388Y-145432288D01*
X130480335Y-145432314D01*
X130480328Y-145432317D01*
X130480328Y-145432318D01*
X130311679Y-145529688D01*
X130219163Y-145583102D01*
X129979928Y-145766672D01*
X129979913Y-145766686D01*
X129979905Y-145766693D01*
X129766693Y-145979905D01*
X129766686Y-145979913D01*
X129766672Y-145979928D01*
X129583102Y-146219163D01*
X129432316Y-146480330D01*
X129432288Y-146480388D01*
X129432032Y-146481018D01*
X129316912Y-146758940D01*
X129306716Y-146796993D01*
X129238862Y-147050232D01*
X129238859Y-147050243D01*
X129199501Y-147349199D01*
X129199500Y-147349228D01*
X125526561Y-147349228D01*
X125602454Y-147200281D01*
X125669358Y-146994369D01*
X125703228Y-146780526D01*
X125703228Y-146564018D01*
X125669358Y-146350175D01*
X125614911Y-146182602D01*
X125608895Y-146147834D01*
X125608524Y-146134877D01*
X125626290Y-146067308D01*
X125677769Y-146020067D01*
X125741315Y-146007663D01*
X125750567Y-146008324D01*
X125780032Y-146014076D01*
X125950175Y-146069358D01*
X126164018Y-146103228D01*
X126164019Y-146103228D01*
X126380525Y-146103228D01*
X126380526Y-146103228D01*
X126594369Y-146069358D01*
X126800281Y-146002454D01*
X126993191Y-145904161D01*
X127168350Y-145776900D01*
X127321444Y-145623806D01*
X127448705Y-145448647D01*
X127546998Y-145255737D01*
X127601628Y-145087598D01*
X127617195Y-145055936D01*
X127624509Y-145045241D01*
X127678598Y-145001015D01*
X127748013Y-144993052D01*
X127806713Y-145020365D01*
X127813808Y-145026338D01*
X127834272Y-145048315D01*
X127855483Y-145077510D01*
X128022490Y-145244517D01*
X128213567Y-145383343D01*
X128309678Y-145432314D01*
X128424003Y-145490566D01*
X128424876Y-145491011D01*
X128428630Y-145492070D01*
X128476335Y-145507569D01*
X128544410Y-145529688D01*
X128544411Y-145529689D01*
X128544412Y-145529689D01*
X128648631Y-145563553D01*
X128881903Y-145600500D01*
X128881908Y-145600500D01*
X129118096Y-145600500D01*
X129118097Y-145600500D01*
X129351368Y-145563553D01*
X129435936Y-145536075D01*
X129575992Y-145490568D01*
X129786433Y-145383343D01*
X129977510Y-145244517D01*
X130144517Y-145077510D01*
X130283343Y-144886433D01*
X130390568Y-144675992D01*
X130463553Y-144451368D01*
X130479825Y-144348631D01*
X130500500Y-144218097D01*
X130500500Y-143981902D01*
X130463553Y-143748631D01*
X130413465Y-143594480D01*
X130396771Y-143543100D01*
X141149499Y-143543100D01*
X141178782Y-143727980D01*
X141186446Y-143776368D01*
X141259433Y-144000996D01*
X141313190Y-144106499D01*
X141366657Y-144211433D01*
X141505483Y-144402510D01*
X141672490Y-144569517D01*
X141863567Y-144708343D01*
X141947753Y-144751238D01*
X141947752Y-144751238D01*
X142005924Y-144780877D01*
X142074003Y-144815566D01*
X142074872Y-144816009D01*
X142078609Y-144817063D01*
X142102323Y-144824768D01*
X142298631Y-144888553D01*
X142531903Y-144925500D01*
X142531908Y-144925500D01*
X142768096Y-144925500D01*
X142768097Y-144925500D01*
X143001368Y-144888553D01*
X143007893Y-144886433D01*
X143225992Y-144815568D01*
X143436433Y-144708343D01*
X143627510Y-144569517D01*
X143794517Y-144402510D01*
X143933343Y-144211433D01*
X144040568Y-144000992D01*
X144113553Y-143776368D01*
X144121217Y-143727980D01*
X144150500Y-143543097D01*
X144150500Y-143306902D01*
X144113553Y-143073631D01*
X144040566Y-142849003D01*
X143969451Y-142709433D01*
X143933343Y-142638567D01*
X143794517Y-142447490D01*
X143627510Y-142280483D01*
X143436433Y-142141657D01*
X143418096Y-142132314D01*
X143418093Y-142132312D01*
X143357335Y-142101354D01*
X143225996Y-142034433D01*
X143001368Y-141961446D01*
X143001362Y-141961445D01*
X142768102Y-141924500D01*
X142768097Y-141924500D01*
X142768092Y-141924500D01*
X142531908Y-141924500D01*
X142531903Y-141924500D01*
X142531898Y-141924500D01*
X142298636Y-141961445D01*
X142298634Y-141961445D01*
X142298631Y-141961446D01*
X142074003Y-142034433D01*
X141918122Y-142113859D01*
X141863562Y-142141659D01*
X141754549Y-142220861D01*
X141754550Y-142220862D01*
X141684361Y-142271858D01*
X141676980Y-142275991D01*
X141500991Y-142451980D01*
X141496858Y-142459361D01*
X141445862Y-142529550D01*
X141445861Y-142529549D01*
X141366659Y-142638562D01*
X141366657Y-142638566D01*
X141259433Y-142849003D01*
X141186446Y-143073631D01*
X141186445Y-143073634D01*
X141186445Y-143073636D01*
X141149500Y-143306896D01*
X141149500Y-143543099D01*
X141149499Y-143543100D01*
X130396771Y-143543100D01*
X130396770Y-143543096D01*
X130396770Y-143543095D01*
X130395203Y-143538274D01*
X130390568Y-143524008D01*
X130390566Y-143524005D01*
X130390566Y-143524003D01*
X130388322Y-143519600D01*
X130388014Y-143518809D01*
X130387283Y-143517559D01*
X130306151Y-143358331D01*
X130306150Y-143358329D01*
X130283344Y-143313568D01*
X130262488Y-143284863D01*
X130144517Y-143122490D01*
X129977510Y-142955483D01*
X129786433Y-142816657D01*
X129575996Y-142709433D01*
X129351368Y-142636446D01*
X129351362Y-142636445D01*
X129118102Y-142599500D01*
X129118097Y-142599500D01*
X129118092Y-142599500D01*
X128881908Y-142599500D01*
X128881903Y-142599500D01*
X128881898Y-142599500D01*
X128648636Y-142636445D01*
X128648634Y-142636445D01*
X128648631Y-142636446D01*
X128424003Y-142709433D01*
X128352972Y-142745625D01*
X128213566Y-142816656D01*
X128160901Y-142854921D01*
X128034361Y-142946858D01*
X128026980Y-142950991D01*
X127850991Y-143126980D01*
X127846858Y-143134361D01*
X127795862Y-143204550D01*
X127795861Y-143204549D01*
X127716659Y-143313562D01*
X127716657Y-143313566D01*
X127609433Y-143524003D01*
X127603228Y-143543100D01*
X127536446Y-143748630D01*
X127535312Y-143753359D01*
X127534910Y-143753262D01*
X127526132Y-143781646D01*
X127520585Y-143793347D01*
X127474081Y-143845492D01*
X127406767Y-143864217D01*
X127344509Y-143846420D01*
X127336570Y-143841633D01*
X127312918Y-143823124D01*
X127168352Y-143678558D01*
X127168350Y-143678556D01*
X127080770Y-143614925D01*
X126993189Y-143551293D01*
X126977094Y-143543093D01*
X126977092Y-143543092D01*
X126800281Y-143453001D01*
X126800278Y-143453000D01*
X126800275Y-143452999D01*
X126800273Y-143452998D01*
X126800254Y-143452991D01*
X126594372Y-143386098D01*
X126594373Y-143386098D01*
X126419058Y-143358331D01*
X126418963Y-143358316D01*
X126380526Y-143352228D01*
X126380525Y-143352228D01*
X126164019Y-143352228D01*
X126164018Y-143352228D01*
X126125581Y-143358316D01*
X126125486Y-143358331D01*
X125950169Y-143386098D01*
X125744288Y-143452991D01*
X125744269Y-143452998D01*
X125744268Y-143452998D01*
X125551348Y-143551297D01*
X125451416Y-143623902D01*
X125388061Y-143669932D01*
X125380686Y-143674062D01*
X125218606Y-143836142D01*
X125214475Y-143843519D01*
X125095843Y-144006802D01*
X125095835Y-144006815D01*
X124997542Y-144199724D01*
X124997542Y-144199725D01*
X124997535Y-144199744D01*
X124930642Y-144405625D01*
X124896772Y-144619474D01*
X124896772Y-144835986D01*
X124930642Y-145049829D01*
X124985086Y-145217392D01*
X124991104Y-145252171D01*
X124991474Y-145265117D01*
X124973708Y-145332690D01*
X124922229Y-145379931D01*
X124858668Y-145392334D01*
X124849422Y-145391672D01*
X124819961Y-145385920D01*
X124742798Y-145360849D01*
X124713329Y-145340699D01*
X124482804Y-145304188D01*
X124435982Y-145296772D01*
X124435981Y-145296772D01*
X124219475Y-145296772D01*
X124219474Y-145296772D01*
X124172652Y-145304188D01*
X124005625Y-145330642D01*
X123799744Y-145397535D01*
X123799725Y-145397542D01*
X123799724Y-145397542D01*
X123606814Y-145495835D01*
X123606808Y-145495839D01*
X123551429Y-145536075D01*
X123443521Y-145614475D01*
X123436140Y-145618608D01*
X123278557Y-145776191D01*
X123234561Y-145836745D01*
X123209963Y-145862055D01*
X123198972Y-145870530D01*
X123133862Y-145895878D01*
X123065386Y-145882003D01*
X123057970Y-145878090D01*
X123019191Y-145846109D01*
X122893127Y-145689278D01*
X122891138Y-145686733D01*
X122889034Y-145683965D01*
X122887091Y-145681333D01*
X122491712Y-145130896D01*
X122489796Y-145128151D01*
X122487906Y-145125364D01*
X122486053Y-145122550D01*
X122481903Y-145116058D01*
X122302883Y-144835981D01*
X122121077Y-144551547D01*
X122119332Y-144548736D01*
X122118765Y-144547794D01*
X122117573Y-144545814D01*
X122115900Y-144542949D01*
X121869143Y-144106499D01*
X121782313Y-143952919D01*
X121780702Y-143949976D01*
X121779139Y-143947028D01*
X121777605Y-143944038D01*
X121768278Y-143925232D01*
X121476492Y-143336898D01*
X121475045Y-143333878D01*
X121473629Y-143330818D01*
X121472278Y-143327792D01*
X121466159Y-143313568D01*
X121204442Y-142705163D01*
X121203184Y-142702125D01*
X121201919Y-142698950D01*
X121200730Y-142695841D01*
X121180834Y-142641685D01*
X120967017Y-142059680D01*
X120965902Y-142056512D01*
X120964841Y-142053363D01*
X120963812Y-142050167D01*
X120925226Y-141924500D01*
X120764874Y-141402258D01*
X120763933Y-141399038D01*
X120763054Y-141395871D01*
X120762202Y-141392634D01*
X120733090Y-141275573D01*
X120598618Y-140734843D01*
X120597854Y-140731578D01*
X120597139Y-140728325D01*
X120596469Y-140725071D01*
X120588265Y-140682312D01*
X120588265Y-140682311D01*
X120498721Y-140215654D01*
X121200000Y-140215654D01*
X121202899Y-140252487D01*
X121202901Y-140252501D01*
X121202902Y-140252505D01*
X121248707Y-140410165D01*
X121248717Y-140410196D01*
X121248718Y-140410199D01*
X121332310Y-140551546D01*
X121332313Y-140551551D01*
X121332322Y-140551562D01*
X121448436Y-140667676D01*
X121448447Y-140667685D01*
X121448452Y-140667688D01*
X121589799Y-140751280D01*
X121589800Y-140751280D01*
X121589803Y-140751282D01*
X121589806Y-140751283D01*
X121589828Y-140751289D01*
X121589833Y-140751291D01*
X121747493Y-140797096D01*
X121747497Y-140797097D01*
X121747504Y-140797099D01*
X121747510Y-140797100D01*
X121784350Y-140799999D01*
X121784366Y-140800000D01*
X121950000Y-140800000D01*
X122450000Y-140800000D01*
X122615629Y-140800000D01*
X122615634Y-140800000D01*
X122615649Y-140799999D01*
X122652489Y-140797100D01*
X122652495Y-140797099D01*
X122810193Y-140751283D01*
X122810196Y-140751282D01*
X122951552Y-140667685D01*
X122951561Y-140667678D01*
X123067678Y-140551561D01*
X123067685Y-140551552D01*
X123151282Y-140410196D01*
X123151283Y-140410193D01*
X123197099Y-140252495D01*
X123197100Y-140252489D01*
X123199999Y-140215649D01*
X123200000Y-140215634D01*
X123200000Y-138950000D01*
X122450000Y-138950000D01*
X122450000Y-140800000D01*
X121950000Y-140800000D01*
X121950000Y-138950000D01*
X121200000Y-138950000D01*
X121200000Y-140215654D01*
X120498721Y-140215654D01*
X120468757Y-140059497D01*
X120468171Y-140056207D01*
X120467633Y-140052928D01*
X120467132Y-140049591D01*
X120375636Y-139378042D01*
X120375228Y-139374705D01*
X120374868Y-139371394D01*
X120374550Y-139368054D01*
X120369049Y-139300500D01*
X120359280Y-139180518D01*
X120319543Y-138692497D01*
X120319322Y-138689225D01*
X120319139Y-138685865D01*
X120319004Y-138682534D01*
X120318029Y-138646543D01*
X120315930Y-138569042D01*
X120300582Y-138002445D01*
X120300549Y-138000765D01*
X120300527Y-137999100D01*
X120300516Y-137997462D01*
X120300516Y-137927027D01*
X120300513Y-137926869D01*
X120300513Y-137184350D01*
X121200000Y-137184350D01*
X121200000Y-138450000D01*
X121950000Y-138450000D01*
X122450000Y-138450000D01*
X123200000Y-138450000D01*
X123200000Y-137184365D01*
X123199999Y-137184350D01*
X123197100Y-137147510D01*
X123197099Y-137147504D01*
X123157633Y-137011664D01*
X123151291Y-136989833D01*
X123151289Y-136989828D01*
X123151283Y-136989806D01*
X123151282Y-136989803D01*
X123144589Y-136978486D01*
X123067688Y-136848452D01*
X123067685Y-136848447D01*
X123067676Y-136848436D01*
X122951562Y-136732322D01*
X122951551Y-136732313D01*
X122951541Y-136732307D01*
X122810199Y-136648718D01*
X122810196Y-136648717D01*
X122810165Y-136648707D01*
X122652505Y-136602902D01*
X122652501Y-136602901D01*
X122652495Y-136602900D01*
X122652489Y-136602899D01*
X122641963Y-136602070D01*
X122615654Y-136600000D01*
X122615649Y-136600000D01*
X122450000Y-136600000D01*
X122450000Y-138450000D01*
X121950000Y-138450000D01*
X121950000Y-136600000D01*
X121784344Y-136600000D01*
X121752772Y-136602484D01*
X121747510Y-136602899D01*
X121747504Y-136602900D01*
X121747497Y-136602901D01*
X121747493Y-136602902D01*
X121589833Y-136648707D01*
X121589802Y-136648717D01*
X121589799Y-136648718D01*
X121448458Y-136732307D01*
X121448447Y-136732313D01*
X121448436Y-136732322D01*
X121332322Y-136848436D01*
X121332313Y-136848447D01*
X121332310Y-136848452D01*
X121248718Y-136989799D01*
X121248717Y-136989802D01*
X121248707Y-136989833D01*
X121202902Y-137147493D01*
X121202901Y-137147497D01*
X121202899Y-137147511D01*
X121200192Y-137181914D01*
X121200000Y-137184350D01*
X120300513Y-137184350D01*
X120300511Y-133615654D01*
X121200000Y-133615654D01*
X121202899Y-133652487D01*
X121202901Y-133652501D01*
X121202902Y-133652505D01*
X121248707Y-133810165D01*
X121248717Y-133810196D01*
X121248718Y-133810199D01*
X121332310Y-133951546D01*
X121332313Y-133951551D01*
X121332322Y-133951562D01*
X121448436Y-134067676D01*
X121448447Y-134067685D01*
X121448452Y-134067688D01*
X121589799Y-134151280D01*
X121589800Y-134151280D01*
X121589803Y-134151282D01*
X121589806Y-134151283D01*
X121589828Y-134151289D01*
X121589833Y-134151291D01*
X121747493Y-134197096D01*
X121747497Y-134197097D01*
X121747504Y-134197099D01*
X121747510Y-134197100D01*
X121784350Y-134199999D01*
X121784366Y-134200000D01*
X121950000Y-134200000D01*
X122450000Y-134200000D01*
X122615629Y-134200000D01*
X122615634Y-134200000D01*
X122615649Y-134199999D01*
X122652489Y-134197100D01*
X122652495Y-134197099D01*
X122810193Y-134151283D01*
X122810196Y-134151282D01*
X122951552Y-134067685D01*
X122951561Y-134067678D01*
X123067678Y-133951561D01*
X123067685Y-133951552D01*
X123151282Y-133810196D01*
X123151283Y-133810193D01*
X123197099Y-133652495D01*
X123197100Y-133652489D01*
X123199999Y-133615649D01*
X123200000Y-133615634D01*
X123200000Y-132350000D01*
X122450000Y-132350000D01*
X122450000Y-134200000D01*
X121950000Y-134200000D01*
X121950000Y-132350000D01*
X121200000Y-132350000D01*
X121200000Y-133615654D01*
X120300511Y-133615654D01*
X120300510Y-130584350D01*
X121200000Y-130584350D01*
X121200000Y-131850000D01*
X121950000Y-131850000D01*
X122450000Y-131850000D01*
X123200000Y-131850000D01*
X123200000Y-130584365D01*
X123199999Y-130584350D01*
X123197100Y-130547510D01*
X123197099Y-130547504D01*
X123195851Y-130543210D01*
X123151291Y-130389833D01*
X123151289Y-130389828D01*
X123151283Y-130389806D01*
X123151282Y-130389803D01*
X123128038Y-130350500D01*
X123067688Y-130248452D01*
X123067685Y-130248447D01*
X123067676Y-130248436D01*
X122951562Y-130132322D01*
X122951551Y-130132313D01*
X122951541Y-130132307D01*
X122810199Y-130048718D01*
X122810196Y-130048717D01*
X122810165Y-130048707D01*
X122652505Y-130002902D01*
X122652501Y-130002901D01*
X122652495Y-130002900D01*
X122652489Y-130002899D01*
X122641963Y-130002070D01*
X122615654Y-130000000D01*
X122615649Y-130000000D01*
X122450000Y-130000000D01*
X122450000Y-131850000D01*
X121950000Y-131850000D01*
X121950000Y-130000000D01*
X121784344Y-130000000D01*
X121752772Y-130002484D01*
X121747510Y-130002899D01*
X121747504Y-130002900D01*
X121747497Y-130002901D01*
X121747493Y-130002902D01*
X121589833Y-130048707D01*
X121589802Y-130048717D01*
X121589799Y-130048718D01*
X121448458Y-130132307D01*
X121448447Y-130132313D01*
X121448436Y-130132322D01*
X121332322Y-130248436D01*
X121332313Y-130248447D01*
X121332310Y-130248452D01*
X121248718Y-130389799D01*
X121248717Y-130389802D01*
X121248707Y-130389833D01*
X121202902Y-130547493D01*
X121202901Y-130547497D01*
X121202899Y-130547511D01*
X121200192Y-130581915D01*
X121200000Y-130584350D01*
X120300510Y-130584350D01*
X120300505Y-114933086D01*
X120300504Y-112415654D01*
X121200000Y-112415654D01*
X121202899Y-112452487D01*
X121202901Y-112452501D01*
X121202902Y-112452505D01*
X121248707Y-112610165D01*
X121248717Y-112610196D01*
X121248718Y-112610199D01*
X121332310Y-112751546D01*
X121332313Y-112751551D01*
X121332322Y-112751562D01*
X121448436Y-112867676D01*
X121448447Y-112867685D01*
X121448452Y-112867688D01*
X121589799Y-112951280D01*
X121589800Y-112951280D01*
X121589803Y-112951282D01*
X121589806Y-112951283D01*
X121589828Y-112951289D01*
X121589833Y-112951291D01*
X121747493Y-112997096D01*
X121747497Y-112997097D01*
X121747504Y-112997099D01*
X121747510Y-112997100D01*
X121784350Y-112999999D01*
X121784366Y-113000000D01*
X121950000Y-113000000D01*
X121950000Y-111150000D01*
X121200000Y-111150000D01*
X121200000Y-112415654D01*
X120300504Y-112415654D01*
X120300503Y-111098638D01*
X120300502Y-109384350D01*
X121200000Y-109384350D01*
X121200000Y-110650000D01*
X121950000Y-110650000D01*
X122450000Y-110650000D01*
X123200000Y-110650000D01*
X123200000Y-109384365D01*
X123199999Y-109384350D01*
X123197100Y-109347510D01*
X123197099Y-109347504D01*
X123157633Y-109211664D01*
X123151291Y-109189833D01*
X123151289Y-109189828D01*
X123151283Y-109189806D01*
X123151282Y-109189803D01*
X123111155Y-109121952D01*
X123067688Y-109048452D01*
X123067685Y-109048447D01*
X123067676Y-109048436D01*
X122951562Y-108932322D01*
X122951551Y-108932313D01*
X122951541Y-108932307D01*
X122810199Y-108848718D01*
X122810196Y-108848717D01*
X122810165Y-108848707D01*
X122652505Y-108802902D01*
X122652501Y-108802901D01*
X122652495Y-108802900D01*
X122652489Y-108802899D01*
X122641963Y-108802070D01*
X122615654Y-108800000D01*
X122615649Y-108800000D01*
X122450000Y-108800000D01*
X122450000Y-110650000D01*
X121950000Y-110650000D01*
X121950000Y-108800000D01*
X121784344Y-108800000D01*
X121752772Y-108802484D01*
X121747510Y-108802899D01*
X121747504Y-108802900D01*
X121747497Y-108802901D01*
X121747493Y-108802902D01*
X121589833Y-108848707D01*
X121589802Y-108848717D01*
X121589799Y-108848718D01*
X121448458Y-108932307D01*
X121448447Y-108932313D01*
X121448436Y-108932322D01*
X121332322Y-109048436D01*
X121332313Y-109048447D01*
X121332310Y-109048452D01*
X121248718Y-109189799D01*
X121248717Y-109189802D01*
X121248707Y-109189833D01*
X121202902Y-109347493D01*
X121202901Y-109347497D01*
X121202899Y-109347511D01*
X121200192Y-109381914D01*
X121200000Y-109384350D01*
X120300502Y-109384350D01*
X120300502Y-109381923D01*
X120300500Y-105815654D01*
X121200000Y-105815654D01*
X121202899Y-105852487D01*
X121202901Y-105852501D01*
X121202902Y-105852505D01*
X121248707Y-106010165D01*
X121248717Y-106010196D01*
X121248718Y-106010199D01*
X121332310Y-106151546D01*
X121332313Y-106151551D01*
X121332322Y-106151562D01*
X121448436Y-106267676D01*
X121448447Y-106267685D01*
X121448452Y-106267688D01*
X121589799Y-106351280D01*
X121589800Y-106351280D01*
X121589803Y-106351282D01*
X121589806Y-106351283D01*
X121589828Y-106351289D01*
X121589833Y-106351291D01*
X121747493Y-106397096D01*
X121747497Y-106397097D01*
X121747504Y-106397099D01*
X121747510Y-106397100D01*
X121784350Y-106399999D01*
X121784366Y-106400000D01*
X121950000Y-106400000D01*
X122450000Y-106400000D01*
X122615629Y-106400000D01*
X122615634Y-106400000D01*
X122615649Y-106399999D01*
X122652489Y-106397100D01*
X122652495Y-106397099D01*
X122810193Y-106351283D01*
X122810196Y-106351282D01*
X122951552Y-106267685D01*
X122951561Y-106267678D01*
X123067678Y-106151561D01*
X123067685Y-106151552D01*
X123151282Y-106010196D01*
X123151283Y-106010193D01*
X123197099Y-105852495D01*
X123197100Y-105852489D01*
X123199999Y-105815649D01*
X123200000Y-105815634D01*
X123200000Y-104550000D01*
X122450000Y-104550000D01*
X122450000Y-106400000D01*
X121950000Y-106400000D01*
X121950000Y-104550000D01*
X121200000Y-104550000D01*
X121200000Y-105815654D01*
X120300500Y-105815654D01*
X120300500Y-105002535D01*
X120300511Y-105000898D01*
X120300533Y-104999233D01*
X120300567Y-104997513D01*
X120301103Y-104977748D01*
X120306622Y-104774003D01*
X120318990Y-104317399D01*
X120319122Y-104314175D01*
X120319311Y-104310702D01*
X120319527Y-104307513D01*
X120339140Y-104066657D01*
X120374538Y-103631924D01*
X120374849Y-103628656D01*
X120375222Y-103625227D01*
X120375622Y-103621968D01*
X120413722Y-103342330D01*
X120467127Y-102950359D01*
X120467622Y-102947067D01*
X120468158Y-102943800D01*
X120468744Y-102940509D01*
X120481828Y-102872325D01*
X120498709Y-102784350D01*
X121200000Y-102784350D01*
X121200000Y-104050000D01*
X121950000Y-104050000D01*
X122450000Y-104050000D01*
X123200000Y-104050000D01*
X123200000Y-102784365D01*
X123199999Y-102784350D01*
X123197100Y-102747510D01*
X123197099Y-102747504D01*
X123157633Y-102611664D01*
X123151291Y-102589833D01*
X123151289Y-102589828D01*
X123151283Y-102589806D01*
X123151282Y-102589803D01*
X123111155Y-102521952D01*
X123067688Y-102448452D01*
X123067685Y-102448447D01*
X123067676Y-102448436D01*
X122951562Y-102332322D01*
X122951551Y-102332313D01*
X122951541Y-102332307D01*
X122810199Y-102248718D01*
X122810196Y-102248717D01*
X122810165Y-102248707D01*
X122652505Y-102202902D01*
X122652501Y-102202901D01*
X122652495Y-102202900D01*
X122652489Y-102202899D01*
X122641963Y-102202070D01*
X122615654Y-102200000D01*
X122615649Y-102200000D01*
X122450000Y-102200000D01*
X122450000Y-104050000D01*
X121950000Y-104050000D01*
X121950000Y-102200000D01*
X121784344Y-102200000D01*
X121752772Y-102202484D01*
X121747510Y-102202899D01*
X121747504Y-102202900D01*
X121747497Y-102202901D01*
X121747493Y-102202902D01*
X121589833Y-102248707D01*
X121589802Y-102248717D01*
X121589799Y-102248718D01*
X121448458Y-102332307D01*
X121448447Y-102332313D01*
X121448436Y-102332322D01*
X121332322Y-102448436D01*
X121332313Y-102448447D01*
X121332310Y-102448452D01*
X121248718Y-102589799D01*
X121248717Y-102589802D01*
X121248707Y-102589833D01*
X121202902Y-102747493D01*
X121202901Y-102747497D01*
X121202900Y-102747504D01*
X121202899Y-102747510D01*
X121200000Y-102784350D01*
X120498709Y-102784350D01*
X120596462Y-102274902D01*
X120597120Y-102271701D01*
X120597862Y-102268331D01*
X120598599Y-102265185D01*
X120762211Y-101607290D01*
X120763031Y-101604176D01*
X120763942Y-101600895D01*
X120764868Y-101597730D01*
X120768574Y-101585662D01*
X120963814Y-100949798D01*
X120964836Y-100946624D01*
X120965894Y-100943484D01*
X120966982Y-100940390D01*
X121200752Y-100304076D01*
X121201918Y-100301030D01*
X121203176Y-100297875D01*
X121204440Y-100294826D01*
X121305093Y-100060843D01*
X121472263Y-99672225D01*
X121473618Y-99669190D01*
X121475019Y-99666160D01*
X121476458Y-99663155D01*
X121777600Y-99055958D01*
X121779127Y-99052982D01*
X121779272Y-99052707D01*
X121780733Y-99049953D01*
X121782289Y-99047112D01*
X122115871Y-98457094D01*
X122117518Y-98454269D01*
X122119326Y-98451265D01*
X122121071Y-98448454D01*
X122149576Y-98403858D01*
X122486086Y-97877392D01*
X122487871Y-97874679D01*
X122489784Y-97871858D01*
X122491676Y-97869149D01*
X122887116Y-97318624D01*
X122889047Y-97316011D01*
X122891110Y-97313296D01*
X122893093Y-97310759D01*
X123015954Y-97157913D01*
X123041752Y-97133835D01*
X123053143Y-97125906D01*
X123119410Y-97103764D01*
X123187116Y-97120955D01*
G37*
%TD.AperFunction*%
%TA.AperFunction,Conductor*%
G36*
X153726685Y-123603410D02*
G01*
X153726709Y-123603201D01*
X153733115Y-123603909D01*
X153736829Y-123604869D01*
X153741380Y-123605524D01*
X153748024Y-123607475D01*
X153747944Y-123607744D01*
X153767327Y-123612757D01*
X153767901Y-123612997D01*
X153822158Y-123657018D01*
X153844002Y-123723370D01*
X153844057Y-123725062D01*
X153840668Y-123758155D01*
X153840336Y-123759532D01*
X153828806Y-123789557D01*
X153828419Y-123790271D01*
X153819623Y-123804202D01*
X153762782Y-123882214D01*
X153762779Y-123882221D01*
X153710518Y-124014746D01*
X153709868Y-124018162D01*
X153709632Y-124022120D01*
X153700278Y-124100000D01*
X153700279Y-124100000D01*
X154024305Y-124100000D01*
X154059237Y-124105021D01*
X154074235Y-124109425D01*
X154086920Y-124117578D01*
X154087180Y-124116896D01*
X154137061Y-124135861D01*
X154145970Y-124139652D01*
X154146568Y-124139935D01*
X154146617Y-124139958D01*
X154198817Y-124186401D01*
X154217621Y-124253692D01*
X154197079Y-124320439D01*
X154195966Y-124322123D01*
X154142607Y-124367186D01*
X154131515Y-124372084D01*
X154105188Y-124383708D01*
X154080701Y-124391602D01*
X154055925Y-124396829D01*
X154030328Y-124399500D01*
X153699561Y-124399500D01*
X153691932Y-124400000D01*
X153680944Y-124400000D01*
X153665222Y-124409841D01*
X153663805Y-124410230D01*
X153646920Y-124414754D01*
X153646756Y-124414797D01*
X153605229Y-124425924D01*
X153586035Y-124439941D01*
X153534795Y-124469523D01*
X153534790Y-124469527D01*
X153534788Y-124469529D01*
X153534787Y-124469529D01*
X153467252Y-124537065D01*
X153394532Y-124609785D01*
X153394530Y-124609787D01*
X153394530Y-124609788D01*
X153387221Y-124622446D01*
X153387214Y-124622457D01*
X153373783Y-124645722D01*
X153373780Y-124645725D01*
X153348388Y-124689707D01*
X153348382Y-124689725D01*
X153337399Y-124730716D01*
X153324500Y-124778856D01*
X153324500Y-125221144D01*
X153325966Y-125226613D01*
X153325966Y-125226614D01*
X153338797Y-125274501D01*
X153338797Y-125274502D01*
X153348383Y-125310283D01*
X153348384Y-125310285D01*
X153394523Y-125390202D01*
X153394527Y-125390208D01*
X153394537Y-125390220D01*
X153441528Y-125437210D01*
X153462682Y-125465469D01*
X153470173Y-125479189D01*
X153485024Y-125547447D01*
X153484895Y-125549253D01*
X153465527Y-125607456D01*
X153461346Y-125613962D01*
X153444711Y-125634605D01*
X153304535Y-125774781D01*
X153304536Y-125774782D01*
X153304529Y-125774788D01*
X153304525Y-125774793D01*
X153276250Y-125823767D01*
X153276251Y-125823768D01*
X153274042Y-125827594D01*
X153270934Y-125832980D01*
X153269532Y-125835408D01*
X153269530Y-125835409D01*
X153269526Y-125835418D01*
X153258387Y-125854709D01*
X153234501Y-125943855D01*
X153234501Y-125944908D01*
X153234145Y-125946555D01*
X153233440Y-125951915D01*
X153233002Y-125951857D01*
X153223481Y-125996010D01*
X153220982Y-126001535D01*
X153175419Y-126054505D01*
X153108493Y-126074432D01*
X153106726Y-126074439D01*
X153065702Y-126067628D01*
X153064719Y-126067288D01*
X153057799Y-126064661D01*
X153050711Y-126061725D01*
X153048296Y-126060534D01*
X153045031Y-126059303D01*
X153041322Y-126057836D01*
X153035580Y-126055457D01*
X153027417Y-126054383D01*
X153001318Y-126047390D01*
X152915891Y-126024500D01*
X152915890Y-126024500D01*
X152520912Y-126024500D01*
X152482249Y-126018318D01*
X152026122Y-125868636D01*
X152016979Y-125865854D01*
X152005481Y-125861327D01*
X152001846Y-125860204D01*
X151928376Y-125849500D01*
X151928375Y-125849500D01*
X151928369Y-125849500D01*
X150611626Y-125849500D01*
X150539775Y-125859968D01*
X150538143Y-125860206D01*
X150532108Y-125862071D01*
X150519571Y-125866462D01*
X150519662Y-125866739D01*
X150513875Y-125868637D01*
X150513875Y-125868638D01*
X150091472Y-126007252D01*
X150057750Y-126018318D01*
X150019087Y-126024500D01*
X149968871Y-126024500D01*
X149933935Y-126019477D01*
X149908693Y-126012065D01*
X149855949Y-125980770D01*
X149767102Y-125891923D01*
X149767099Y-125891921D01*
X149767096Y-125891919D01*
X149662167Y-125840622D01*
X149662160Y-125840620D01*
X149651521Y-125835419D01*
X149651519Y-125835418D01*
X149651518Y-125835418D01*
X149634787Y-125832980D01*
X149634786Y-125832980D01*
X149576583Y-125824500D01*
X149576582Y-125824500D01*
X148823418Y-125824500D01*
X148823417Y-125824500D01*
X148776582Y-125831323D01*
X148776581Y-125831322D01*
X148748478Y-125835417D01*
X148721467Y-125848623D01*
X148681011Y-125855530D01*
X148648068Y-125861923D01*
X148583171Y-125836037D01*
X148542571Y-125779174D01*
X148539159Y-125709388D01*
X148552233Y-125676609D01*
X148555125Y-125671585D01*
X148574902Y-125645778D01*
X150571258Y-123649423D01*
X150599508Y-123628275D01*
X150622600Y-123615667D01*
X150682025Y-123600500D01*
X153706443Y-123600500D01*
X153726685Y-123603410D01*
G37*
%TD.AperFunction*%
%TA.AperFunction,Conductor*%
G36*
X136211127Y-124822523D02*
G01*
X136224273Y-124824896D01*
X136228856Y-124825500D01*
X136228860Y-124825500D01*
X144811626Y-124825500D01*
X144846553Y-124830521D01*
X144857406Y-124833707D01*
X144916187Y-124871477D01*
X144945216Y-124935031D01*
X144935277Y-125004190D01*
X144935276Y-125004192D01*
X144932091Y-125011167D01*
X144906975Y-125047342D01*
X144378744Y-125575573D01*
X144350493Y-125596722D01*
X144327405Y-125609330D01*
X144267975Y-125624500D01*
X136764374Y-125624500D01*
X136729438Y-125619477D01*
X136704196Y-125612065D01*
X136651451Y-125580769D01*
X136114251Y-125043569D01*
X136093102Y-125015319D01*
X136090835Y-125011167D01*
X136087680Y-125005389D01*
X136072827Y-124937119D01*
X136097241Y-124871654D01*
X136153171Y-124829782D01*
X136153795Y-124829549D01*
X136208877Y-124822308D01*
X136211127Y-124822523D01*
G37*
%TD.AperFunction*%
%TA.AperFunction,Conductor*%
G36*
X149370558Y-98055521D02*
G01*
X149395802Y-98062934D01*
X149448548Y-98094230D01*
X149900573Y-98546255D01*
X149921723Y-98574507D01*
X149934331Y-98597596D01*
X149949500Y-98657025D01*
X149949500Y-104847124D01*
X149944472Y-104882077D01*
X149942513Y-104888745D01*
X149904730Y-104947517D01*
X149841169Y-104976533D01*
X149772012Y-104966579D01*
X149720194Y-104922315D01*
X149716919Y-104917374D01*
X149702340Y-104887180D01*
X149665566Y-104774003D01*
X149558342Y-104563566D01*
X149508729Y-104495280D01*
X149508729Y-104495279D01*
X149508728Y-104495279D01*
X149419519Y-104372493D01*
X149419514Y-104372487D01*
X149252512Y-104205485D01*
X149252510Y-104205483D01*
X149061433Y-104066657D01*
X149028742Y-104050000D01*
X148850996Y-103959433D01*
X148626368Y-103886446D01*
X148626362Y-103886445D01*
X148393102Y-103849500D01*
X148393097Y-103849500D01*
X148393092Y-103849500D01*
X148156908Y-103849500D01*
X148156903Y-103849500D01*
X148156898Y-103849500D01*
X147923636Y-103886445D01*
X147923634Y-103886445D01*
X147923631Y-103886446D01*
X147699003Y-103959433D01*
X147521257Y-104050000D01*
X147488562Y-104066659D01*
X147379549Y-104145861D01*
X147379550Y-104145862D01*
X147309361Y-104196858D01*
X147301980Y-104200991D01*
X147125991Y-104376980D01*
X147121858Y-104384361D01*
X147070862Y-104454550D01*
X147070861Y-104454549D01*
X146991659Y-104563562D01*
X146991657Y-104563566D01*
X146884433Y-104774003D01*
X146811446Y-104998631D01*
X146811445Y-104998634D01*
X146811445Y-104998636D01*
X146774500Y-105231896D01*
X146774500Y-105468102D01*
X146803691Y-105652406D01*
X146811446Y-105701368D01*
X146884433Y-105925996D01*
X146961907Y-106078045D01*
X146991657Y-106136433D01*
X147130483Y-106327510D01*
X147297490Y-106494517D01*
X147488567Y-106633343D01*
X147587991Y-106684002D01*
X147699003Y-106740566D01*
X147699876Y-106741011D01*
X147703630Y-106742070D01*
X147739902Y-106753855D01*
X147819410Y-106779688D01*
X147819411Y-106779689D01*
X147819412Y-106779689D01*
X147923631Y-106813553D01*
X148156903Y-106850500D01*
X148156908Y-106850500D01*
X148393096Y-106850500D01*
X148393097Y-106850500D01*
X148626368Y-106813553D01*
X148850992Y-106740568D01*
X149061433Y-106633343D01*
X149252510Y-106494517D01*
X149419517Y-106327510D01*
X149558343Y-106136433D01*
X149665568Y-105925992D01*
X149702059Y-105813680D01*
X149725222Y-105779805D01*
X149744045Y-105751409D01*
X149808005Y-105723288D01*
X149877016Y-105734210D01*
X149929167Y-105780708D01*
X149943372Y-105813017D01*
X149944960Y-105818723D01*
X149949500Y-105851969D01*
X149949500Y-109996144D01*
X149954609Y-110015211D01*
X149971821Y-110079449D01*
X149972095Y-110080468D01*
X149973237Y-110084729D01*
X149973386Y-110085287D01*
X149973389Y-110085295D01*
X150019526Y-110165207D01*
X150019527Y-110165208D01*
X150019532Y-110165214D01*
X150019538Y-110165221D01*
X150325667Y-110471349D01*
X150346816Y-110499599D01*
X150350323Y-110506021D01*
X150365177Y-110574293D01*
X150340763Y-110639759D01*
X150284831Y-110681632D01*
X150217665Y-110687141D01*
X150208309Y-110685309D01*
X150184686Y-110678181D01*
X149916060Y-110566913D01*
X149624766Y-110488861D01*
X149624760Y-110488860D01*
X149624755Y-110488859D01*
X149329883Y-110450039D01*
X149327867Y-110449705D01*
X149325793Y-110449500D01*
X149325788Y-110449500D01*
X149325783Y-110449500D01*
X149024217Y-110449500D01*
X149024211Y-110449500D01*
X149024206Y-110449500D01*
X149022129Y-110449705D01*
X149020115Y-110450039D01*
X148725243Y-110488859D01*
X148725236Y-110488860D01*
X148725233Y-110488861D01*
X148685158Y-110499599D01*
X148433940Y-110566912D01*
X148156018Y-110682032D01*
X148155388Y-110682288D01*
X148155330Y-110682316D01*
X147894163Y-110833102D01*
X147654928Y-111016672D01*
X147654913Y-111016686D01*
X147654905Y-111016693D01*
X147441693Y-111229905D01*
X147441686Y-111229913D01*
X147441672Y-111229928D01*
X147258102Y-111469163D01*
X147107316Y-111730330D01*
X147107288Y-111730388D01*
X147107032Y-111731018D01*
X146991912Y-112008940D01*
X146944794Y-112184788D01*
X146913862Y-112300232D01*
X146913859Y-112300243D01*
X146874501Y-112599199D01*
X146874501Y-112599206D01*
X146874500Y-112599223D01*
X146874500Y-112900776D01*
X146874501Y-112900789D01*
X146874501Y-112900791D01*
X146913859Y-113199755D01*
X146913860Y-113199760D01*
X146913861Y-113199766D01*
X146913862Y-113199768D01*
X146991912Y-113491058D01*
X147052728Y-113637879D01*
X147089047Y-113725562D01*
X147107032Y-113768980D01*
X147107292Y-113769618D01*
X147107316Y-113769668D01*
X147149466Y-113842673D01*
X147258099Y-114030831D01*
X147258100Y-114030832D01*
X147258102Y-114030835D01*
X147441672Y-114270070D01*
X147441676Y-114270075D01*
X147441679Y-114270078D01*
X147441685Y-114270085D01*
X147654914Y-114483314D01*
X147654921Y-114483320D01*
X147654924Y-114483322D01*
X147654928Y-114483326D01*
X147844818Y-114629033D01*
X147894168Y-114666900D01*
X148151899Y-114815701D01*
X148157093Y-114818701D01*
X148157095Y-114818702D01*
X148157683Y-114819042D01*
X148162828Y-114820787D01*
X148341072Y-114894619D01*
X148341071Y-114894619D01*
X148411064Y-114923611D01*
X148433939Y-114933086D01*
X148433940Y-114933086D01*
X148433942Y-114933087D01*
X148433944Y-114933087D01*
X148434691Y-114933397D01*
X148437842Y-114934132D01*
X148725232Y-115011138D01*
X149024217Y-115050500D01*
X149024224Y-115050500D01*
X149325776Y-115050500D01*
X149325783Y-115050500D01*
X149624768Y-115011138D01*
X149916058Y-114933087D01*
X150194668Y-114817683D01*
X150455832Y-114666900D01*
X150695080Y-114483319D01*
X150908319Y-114270080D01*
X151091900Y-114030832D01*
X151109199Y-114000868D01*
X151135443Y-113974757D01*
X151145755Y-113959500D01*
X151154587Y-113955710D01*
X151155135Y-113955166D01*
X151164049Y-113950080D01*
X151164769Y-113951342D01*
X151209965Y-113931952D01*
X151278875Y-113943492D01*
X151325755Y-113983106D01*
X151326112Y-113983607D01*
X151347407Y-114034984D01*
X151347780Y-114037200D01*
X151349500Y-114057782D01*
X151349500Y-114154057D01*
X151387655Y-114296451D01*
X151387654Y-114296451D01*
X151390422Y-114306782D01*
X151390430Y-114306798D01*
X151450450Y-114410756D01*
X151469475Y-114443709D01*
X151469481Y-114443717D01*
X151469484Y-114443720D01*
X151469485Y-114443722D01*
X151488704Y-114462941D01*
X151517428Y-114507891D01*
X151591905Y-114710779D01*
X151599500Y-114753507D01*
X151599500Y-116771144D01*
X151599499Y-116771144D01*
X151606296Y-116796505D01*
X151606297Y-116796509D01*
X151620494Y-116849496D01*
X151623385Y-116860286D01*
X151669525Y-116940205D01*
X151669527Y-116940207D01*
X151669531Y-116940213D01*
X151669535Y-116940218D01*
X152614752Y-117885434D01*
X152635904Y-117913690D01*
X152643396Y-117927411D01*
X152658248Y-117995671D01*
X152658119Y-117997477D01*
X152638751Y-118055679D01*
X152634572Y-118062182D01*
X152617936Y-118082826D01*
X152594488Y-118106273D01*
X152594482Y-118106280D01*
X152594470Y-118106298D01*
X152515430Y-118243200D01*
X152515425Y-118243210D01*
X152515424Y-118243211D01*
X152515422Y-118243218D01*
X152474500Y-118395943D01*
X152474500Y-118554055D01*
X152515419Y-118706769D01*
X152515427Y-118706795D01*
X152515598Y-118707174D01*
X152523010Y-118728794D01*
X152526775Y-118744315D01*
X152523449Y-118814106D01*
X152482920Y-118871019D01*
X152482910Y-118871027D01*
X152481633Y-118872031D01*
X152428469Y-118896308D01*
X152423547Y-118897257D01*
X152400071Y-118899500D01*
X148203856Y-118899500D01*
X148114725Y-118923382D01*
X148114708Y-118923387D01*
X148114703Y-118923389D01*
X148034791Y-118969526D01*
X148034789Y-118969528D01*
X148034782Y-118969534D01*
X145303744Y-121700573D01*
X145275493Y-121721722D01*
X145252405Y-121734330D01*
X145192975Y-121749500D01*
X142203509Y-121749500D01*
X142160779Y-121741905D01*
X141957893Y-121667429D01*
X141912942Y-121638705D01*
X141893722Y-121619485D01*
X141893720Y-121619484D01*
X141893717Y-121619481D01*
X141893709Y-121619475D01*
X141818705Y-121576172D01*
X141756807Y-121540435D01*
X141756783Y-121540422D01*
X141630797Y-121506665D01*
X141604057Y-121499500D01*
X141604056Y-121499500D01*
X141445943Y-121499500D01*
X141293218Y-121540422D01*
X141293211Y-121540424D01*
X141293210Y-121540425D01*
X141293200Y-121540430D01*
X141156298Y-121619470D01*
X141156294Y-121619472D01*
X141156290Y-121619475D01*
X141156282Y-121619481D01*
X141156278Y-121619484D01*
X141156276Y-121619485D01*
X141044485Y-121731276D01*
X141044484Y-121731278D01*
X141044481Y-121731281D01*
X141044481Y-121731282D01*
X141044475Y-121731290D01*
X141044472Y-121731294D01*
X141044470Y-121731298D01*
X140965430Y-121868200D01*
X140965425Y-121868210D01*
X140965424Y-121868211D01*
X140965422Y-121868218D01*
X140926159Y-122014752D01*
X140924500Y-122020943D01*
X140924500Y-122179057D01*
X140964584Y-122328650D01*
X140965423Y-122331783D01*
X140965426Y-122331790D01*
X141043437Y-122466911D01*
X141044246Y-122468403D01*
X141044250Y-122468423D01*
X141044398Y-122468634D01*
X141156287Y-122580523D01*
X141156969Y-122581014D01*
X141159475Y-122582363D01*
X141293209Y-122659573D01*
X141293216Y-122659577D01*
X141445943Y-122700500D01*
X141445945Y-122700500D01*
X141604055Y-122700500D01*
X141604057Y-122700500D01*
X141756784Y-122659577D01*
X141893716Y-122580520D01*
X141912944Y-122561290D01*
X141957892Y-122532569D01*
X142086808Y-122485247D01*
X142160777Y-122458095D01*
X142203506Y-122450500D01*
X145446141Y-122450500D01*
X145446142Y-122450500D01*
X145446144Y-122450500D01*
X145535288Y-122426614D01*
X145540876Y-122423387D01*
X145540880Y-122423386D01*
X145612032Y-122382305D01*
X145617510Y-122379359D01*
X145620637Y-122377337D01*
X145645708Y-122362862D01*
X145665826Y-122329855D01*
X148346258Y-119649423D01*
X148374508Y-119628275D01*
X148397600Y-119615667D01*
X148457025Y-119600500D01*
X148961626Y-119600500D01*
X148996553Y-119605521D01*
X149007406Y-119608707D01*
X149066187Y-119646477D01*
X149095216Y-119710031D01*
X149085276Y-119779190D01*
X149082322Y-119785662D01*
X149082091Y-119786167D01*
X149056975Y-119822342D01*
X144803744Y-124075573D01*
X144775493Y-124096722D01*
X144752405Y-124109330D01*
X144692975Y-124124500D01*
X136489373Y-124124500D01*
X136454437Y-124119477D01*
X136429195Y-124112065D01*
X136376450Y-124080769D01*
X135670733Y-123375052D01*
X135306903Y-123011221D01*
X135288468Y-122979107D01*
X135276406Y-122965207D01*
X135275032Y-122955701D01*
X135274651Y-122955037D01*
X135272044Y-122945110D01*
X135273448Y-122944741D01*
X135266414Y-122896055D01*
X135295393Y-122832479D01*
X135345930Y-122797396D01*
X135346511Y-122797179D01*
X135401503Y-122789959D01*
X135403752Y-122790174D01*
X135424061Y-122793836D01*
X135675232Y-122861138D01*
X135974217Y-122900500D01*
X135974224Y-122900500D01*
X136275776Y-122900500D01*
X136275783Y-122900500D01*
X136574768Y-122861138D01*
X136866058Y-122783087D01*
X137144668Y-122667683D01*
X137405832Y-122516900D01*
X137645080Y-122333319D01*
X137858319Y-122120080D01*
X138041900Y-121880832D01*
X138192683Y-121619668D01*
X138308087Y-121341058D01*
X138386138Y-121049768D01*
X138425500Y-120750783D01*
X138425500Y-120449217D01*
X138386138Y-120150232D01*
X138308087Y-119858942D01*
X138277733Y-119785662D01*
X138210413Y-119623136D01*
X138192683Y-119580332D01*
X138191801Y-119578805D01*
X138041900Y-119319168D01*
X137980505Y-119239156D01*
X137858326Y-119079928D01*
X137858322Y-119079924D01*
X137858320Y-119079921D01*
X137858314Y-119079914D01*
X137645085Y-118866685D01*
X137645078Y-118866679D01*
X137645075Y-118866676D01*
X137645070Y-118866672D01*
X137405835Y-118683102D01*
X137405834Y-118683101D01*
X137405831Y-118683099D01*
X137144671Y-118532318D01*
X137144672Y-118532318D01*
X137144668Y-118532316D01*
X137144618Y-118532292D01*
X137143980Y-118532032D01*
X137031034Y-118485248D01*
X136866060Y-118416913D01*
X136698448Y-118372002D01*
X136688114Y-118369233D01*
X136612184Y-118348887D01*
X136579738Y-118334992D01*
X136574526Y-118331815D01*
X136562534Y-118318623D01*
X136552523Y-118312521D01*
X136547399Y-118301973D01*
X136527529Y-118280114D01*
X136522630Y-118250982D01*
X136521995Y-118249674D01*
X136522167Y-118248230D01*
X136515943Y-118211212D01*
X136543448Y-118146984D01*
X136601309Y-118107823D01*
X136603870Y-118107004D01*
X136605824Y-118106381D01*
X136643558Y-118100500D01*
X145767666Y-118100500D01*
X145767919Y-118100441D01*
X145886379Y-118073404D01*
X145894599Y-118071528D01*
X145898922Y-118070727D01*
X145899377Y-118070606D01*
X145902694Y-118068893D01*
X145916630Y-118062182D01*
X146021507Y-118011675D01*
X146127305Y-117927305D01*
X146211675Y-117821507D01*
X146270389Y-117699588D01*
X146282149Y-117648065D01*
X146300499Y-117567666D01*
X146300500Y-117567658D01*
X146300500Y-103342330D01*
X146305523Y-103307394D01*
X146309927Y-103292396D01*
X146347702Y-103233618D01*
X146347706Y-103233615D01*
X146349076Y-103232428D01*
X146403896Y-103204983D01*
X146405337Y-103204669D01*
X146411460Y-103203337D01*
X146437820Y-103200500D01*
X147039563Y-103200500D01*
X147152405Y-103200500D01*
X147200000Y-103200500D01*
X147339154Y-103200500D01*
X147339157Y-103200500D01*
X147397377Y-103193430D01*
X147615435Y-103166954D01*
X147885657Y-103100350D01*
X148145881Y-103001661D01*
X148392311Y-102872324D01*
X148621355Y-102714226D01*
X148829673Y-102529673D01*
X149014226Y-102321355D01*
X149172324Y-102092311D01*
X149301661Y-101845881D01*
X149400350Y-101585657D01*
X149466954Y-101315435D01*
X149500500Y-101039154D01*
X149500500Y-100900000D01*
X149500500Y-100852405D01*
X149500500Y-100160438D01*
X149500500Y-100060846D01*
X149466954Y-99784565D01*
X149400350Y-99514343D01*
X149301661Y-99254119D01*
X149236378Y-99129734D01*
X149236377Y-99129733D01*
X149236377Y-99129730D01*
X149172326Y-99007693D01*
X149172321Y-99007685D01*
X149145319Y-98968566D01*
X149014229Y-98778649D01*
X149014227Y-98778647D01*
X149014226Y-98778645D01*
X149012543Y-98776745D01*
X149012323Y-98776458D01*
X149011742Y-98775841D01*
X148944042Y-98699422D01*
X148944042Y-98699423D01*
X148829673Y-98570326D01*
X148683951Y-98441229D01*
X148624143Y-98388244D01*
X148622793Y-98386972D01*
X148622785Y-98386966D01*
X148621568Y-98385920D01*
X148620552Y-98385219D01*
X148620549Y-98385217D01*
X148477790Y-98286678D01*
X148451893Y-98262700D01*
X148444772Y-98253913D01*
X148417856Y-98189435D01*
X148430073Y-98120642D01*
X148477541Y-98069374D01*
X148477563Y-98069362D01*
X148479810Y-98068021D01*
X148543356Y-98050500D01*
X149335626Y-98050500D01*
X149370558Y-98055521D01*
G37*
%TD.AperFunction*%
%TA.AperFunction,Conductor*%
G36*
X154055926Y-122103170D02*
G01*
X154080695Y-122108395D01*
X154105185Y-122116290D01*
X154124104Y-122124643D01*
X154134795Y-122129364D01*
X154164727Y-122148071D01*
X154166331Y-122149426D01*
X154173370Y-122155372D01*
X154211878Y-122213671D01*
X154212755Y-122283535D01*
X154175725Y-122342779D01*
X154168369Y-122349317D01*
X154136075Y-122370070D01*
X154109656Y-122381734D01*
X154075677Y-122391248D01*
X154061918Y-122393050D01*
X153992890Y-122382238D01*
X153967613Y-122359773D01*
X153949453Y-122349881D01*
X153949452Y-122349881D01*
X153614084Y-122354771D01*
X150565179Y-122399227D01*
X150530172Y-122394713D01*
X150519275Y-122391685D01*
X150459953Y-122354771D01*
X150430006Y-122291644D01*
X150438938Y-122222357D01*
X150441790Y-122215862D01*
X150467642Y-122178039D01*
X150496258Y-122149423D01*
X150524508Y-122128275D01*
X150547600Y-122115667D01*
X150607025Y-122100500D01*
X154030332Y-122100500D01*
X154055926Y-122103170D01*
G37*
%TD.AperFunction*%
%TA.AperFunction,Conductor*%
G36*
X154055926Y-120103170D02*
G01*
X154080695Y-120108395D01*
X154091715Y-120114323D01*
X154124257Y-120125273D01*
X154164727Y-120148072D01*
X154173248Y-120155269D01*
X154173370Y-120155372D01*
X154211878Y-120213671D01*
X154212755Y-120283535D01*
X154175725Y-120342779D01*
X154168369Y-120349317D01*
X154136077Y-120370069D01*
X154105186Y-120383708D01*
X154080701Y-120391602D01*
X154055927Y-120396829D01*
X154030328Y-120399500D01*
X149788374Y-120399500D01*
X149753439Y-120394477D01*
X149742585Y-120391290D01*
X149683807Y-120353516D01*
X149654782Y-120289960D01*
X149664722Y-120220811D01*
X149667912Y-120213824D01*
X149693021Y-120177660D01*
X149721258Y-120149423D01*
X149749508Y-120128275D01*
X149772600Y-120115667D01*
X149832025Y-120100500D01*
X154030332Y-120100500D01*
X154055926Y-120103170D01*
G37*
%TD.AperFunction*%
%TA.AperFunction,Conductor*%
G36*
X146903056Y-92305521D02*
G01*
X146916375Y-92309432D01*
X146975153Y-92347206D01*
X147004179Y-92410761D01*
X147004180Y-92410769D01*
X147005174Y-92417685D01*
X146998546Y-92463763D01*
X147000149Y-92464247D01*
X146996955Y-92474825D01*
X146995227Y-92486843D01*
X146992311Y-92490206D01*
X146958674Y-92601628D01*
X146958370Y-92602895D01*
X146924500Y-92816740D01*
X146924500Y-93033252D01*
X146958370Y-93247101D01*
X147025263Y-93452982D01*
X147025270Y-93453001D01*
X147025270Y-93453002D01*
X147025271Y-93453005D01*
X147025272Y-93453006D01*
X147025273Y-93453009D01*
X147091558Y-93583099D01*
X147123567Y-93645919D01*
X147250828Y-93821078D01*
X147403922Y-93974172D01*
X147579081Y-94101433D01*
X147607408Y-94115866D01*
X147612267Y-94118342D01*
X147612268Y-94118343D01*
X147736065Y-94181422D01*
X147764905Y-94201752D01*
X147774319Y-94210642D01*
X147809545Y-94270981D01*
X147806557Y-94340787D01*
X147770380Y-94394514D01*
X147763374Y-94400584D01*
X147738473Y-94417350D01*
X147579078Y-94498567D01*
X147479144Y-94571174D01*
X147415789Y-94617204D01*
X147408414Y-94621334D01*
X147246334Y-94783414D01*
X147242204Y-94790789D01*
X147196174Y-94854144D01*
X147123569Y-94954076D01*
X147025270Y-95146996D01*
X147025270Y-95146997D01*
X147025263Y-95147016D01*
X146958370Y-95352897D01*
X146924500Y-95566744D01*
X146924500Y-95783252D01*
X146958370Y-95997101D01*
X147025263Y-96202982D01*
X147025270Y-96203001D01*
X147025270Y-96203002D01*
X147025271Y-96203005D01*
X147025272Y-96203006D01*
X147025273Y-96203009D01*
X147104784Y-96359056D01*
X147123567Y-96395919D01*
X147250828Y-96571078D01*
X147403922Y-96724172D01*
X147579081Y-96851433D01*
X147673697Y-96899642D01*
X147771990Y-96949726D01*
X147771993Y-96949727D01*
X147874947Y-96983178D01*
X147977903Y-97016630D01*
X148191746Y-97050500D01*
X148191747Y-97050500D01*
X148408253Y-97050500D01*
X148408254Y-97050500D01*
X148622097Y-97016630D01*
X148828009Y-96949726D01*
X149020919Y-96851433D01*
X149196078Y-96724172D01*
X149349172Y-96571078D01*
X149476433Y-96395919D01*
X149574726Y-96203009D01*
X149641630Y-95997097D01*
X149675500Y-95783254D01*
X149675500Y-95566746D01*
X149641630Y-95352903D01*
X149581796Y-95168750D01*
X149574727Y-95146993D01*
X149574726Y-95146990D01*
X149513646Y-95027115D01*
X149476433Y-94954081D01*
X149349172Y-94778922D01*
X149196078Y-94625828D01*
X149020919Y-94498567D01*
X149020918Y-94498566D01*
X149020916Y-94498565D01*
X148863932Y-94418576D01*
X148835092Y-94398247D01*
X148830985Y-94394368D01*
X148825678Y-94389356D01*
X148790453Y-94329018D01*
X148793441Y-94259212D01*
X148829616Y-94205486D01*
X148836624Y-94199415D01*
X148861526Y-94182648D01*
X148863932Y-94181422D01*
X149020919Y-94101433D01*
X149196078Y-93974172D01*
X149349172Y-93821078D01*
X149476433Y-93645919D01*
X149574726Y-93453009D01*
X149641630Y-93247097D01*
X149675500Y-93033254D01*
X149675500Y-92816746D01*
X149641630Y-92602903D01*
X149641629Y-92602899D01*
X149601621Y-92479765D01*
X149595606Y-92445005D01*
X149595209Y-92431115D01*
X149612972Y-92363547D01*
X149664445Y-92316307D01*
X149670723Y-92313220D01*
X149725429Y-92300500D01*
X151557667Y-92300500D01*
X151592603Y-92305523D01*
X151607601Y-92309927D01*
X151666352Y-92347672D01*
X151667539Y-92349041D01*
X151695015Y-92403902D01*
X151696660Y-92411460D01*
X151699497Y-92437831D01*
X151699500Y-95960438D01*
X151699503Y-105652406D01*
X151699503Y-105700005D01*
X151699502Y-105767661D01*
X151699502Y-105767672D01*
X151729611Y-105899587D01*
X151788322Y-106021502D01*
X151788323Y-106021504D01*
X151788360Y-106021559D01*
X151788829Y-106022139D01*
X151872697Y-106127306D01*
X151978495Y-106211677D01*
X151978496Y-106211677D01*
X151981217Y-106213847D01*
X151981218Y-106213849D01*
X151992962Y-106223214D01*
X151998758Y-106228134D01*
X152003699Y-106232596D01*
X152040260Y-106292136D01*
X152038828Y-106361991D01*
X151999856Y-106419982D01*
X151945727Y-106446050D01*
X151941500Y-106446925D01*
X151916365Y-106449499D01*
X151403856Y-106449499D01*
X151321466Y-106471574D01*
X151321451Y-106471579D01*
X151314712Y-106473385D01*
X151314711Y-106473385D01*
X151314709Y-106473386D01*
X151314706Y-106473387D01*
X151311906Y-106475003D01*
X151311902Y-106475005D01*
X151234804Y-106519518D01*
X151234786Y-106519530D01*
X151169531Y-106584785D01*
X151169519Y-106584803D01*
X151123389Y-106664703D01*
X151123388Y-106664704D01*
X151123384Y-106664715D01*
X151099500Y-106753855D01*
X151099500Y-109846143D01*
X151112701Y-109895412D01*
X151115439Y-109908358D01*
X151116224Y-109913385D01*
X151125842Y-109953028D01*
X151122517Y-110022819D01*
X151081989Y-110079733D01*
X151017124Y-110105701D01*
X151005021Y-110103368D01*
X151002662Y-110104093D01*
X150989213Y-110100322D01*
X150948517Y-110092479D01*
X150948509Y-110092474D01*
X150944318Y-110090313D01*
X150938583Y-110086125D01*
X150935387Y-110085229D01*
X150931753Y-110081137D01*
X150913465Y-110067783D01*
X150699426Y-109853744D01*
X150678274Y-109825488D01*
X150665667Y-109802399D01*
X150650500Y-109742974D01*
X150650500Y-98403858D01*
X150650500Y-98403856D01*
X150626614Y-98314712D01*
X150618358Y-98300412D01*
X150580470Y-98234788D01*
X149765212Y-97419530D01*
X149765211Y-97419529D01*
X149765208Y-97419527D01*
X149697343Y-97380346D01*
X149695276Y-97379042D01*
X149693427Y-97376944D01*
X149692896Y-97376537D01*
X149677682Y-97370235D01*
X149669520Y-97369161D01*
X149596144Y-97349500D01*
X149596143Y-97349500D01*
X133221092Y-97349500D01*
X133186157Y-97344477D01*
X133175303Y-97341290D01*
X133116525Y-97303516D01*
X133087500Y-97239960D01*
X133097443Y-97170803D01*
X133100633Y-97163820D01*
X133125742Y-97127658D01*
X133233315Y-97020085D01*
X133233319Y-97020080D01*
X133416900Y-96780832D01*
X133567683Y-96519668D01*
X133683087Y-96241058D01*
X133761138Y-95949768D01*
X133800500Y-95650783D01*
X133800500Y-95349217D01*
X133761138Y-95050232D01*
X133683087Y-94758942D01*
X133567683Y-94480332D01*
X133499658Y-94362510D01*
X133499658Y-94362509D01*
X133416903Y-94219172D01*
X133416902Y-94219170D01*
X133233326Y-93979928D01*
X133233322Y-93979924D01*
X133233320Y-93979921D01*
X133233314Y-93979914D01*
X133020085Y-93766685D01*
X133020078Y-93766679D01*
X133020075Y-93766676D01*
X133020070Y-93766672D01*
X132780835Y-93583102D01*
X132780832Y-93583100D01*
X132780831Y-93583099D01*
X132519671Y-93432318D01*
X132519672Y-93432318D01*
X132519668Y-93432316D01*
X132519618Y-93432292D01*
X132518980Y-93432032D01*
X132241058Y-93316912D01*
X132095413Y-93277887D01*
X131949766Y-93238861D01*
X131949760Y-93238860D01*
X131949755Y-93238859D01*
X131654883Y-93200039D01*
X131652867Y-93199705D01*
X131650793Y-93199500D01*
X131650788Y-93199500D01*
X131650783Y-93199500D01*
X131349217Y-93199500D01*
X131349211Y-93199500D01*
X131349206Y-93199500D01*
X131347129Y-93199705D01*
X131345115Y-93200039D01*
X131050243Y-93238859D01*
X131050236Y-93238860D01*
X131050233Y-93238861D01*
X131019496Y-93247097D01*
X130758940Y-93316912D01*
X130481018Y-93432032D01*
X130480388Y-93432288D01*
X130480330Y-93432316D01*
X130219163Y-93583102D01*
X129979928Y-93766672D01*
X129979913Y-93766686D01*
X129979905Y-93766693D01*
X129766693Y-93979905D01*
X129766686Y-93979913D01*
X129766672Y-93979928D01*
X129583102Y-94219163D01*
X129432316Y-94480330D01*
X129432288Y-94480388D01*
X129432032Y-94481018D01*
X129316912Y-94758940D01*
X129280955Y-94893136D01*
X129238862Y-95050232D01*
X129238859Y-95050243D01*
X129199501Y-95349199D01*
X129199500Y-95349228D01*
X129199500Y-95650770D01*
X129199501Y-95650799D01*
X129238859Y-95949755D01*
X129238860Y-95949760D01*
X129238861Y-95949766D01*
X129253830Y-96005631D01*
X129316912Y-96241058D01*
X129432313Y-96519659D01*
X129432314Y-96519663D01*
X129432321Y-96519676D01*
X129583098Y-96780830D01*
X129766672Y-97020070D01*
X129766676Y-97020075D01*
X129766679Y-97020078D01*
X129766685Y-97020085D01*
X129766693Y-97020093D01*
X129871811Y-97125211D01*
X129892960Y-97153461D01*
X129898381Y-97163388D01*
X129913235Y-97231661D01*
X129888821Y-97297126D01*
X129832889Y-97338999D01*
X129832885Y-97339001D01*
X129825697Y-97341682D01*
X129782363Y-97349500D01*
X128364374Y-97349500D01*
X128329438Y-97344477D01*
X128304196Y-97337065D01*
X128251451Y-97305769D01*
X127515221Y-96569538D01*
X127515214Y-96569532D01*
X127515208Y-96569527D01*
X127515207Y-96569526D01*
X127435293Y-96523389D01*
X127435290Y-96523387D01*
X127435283Y-96523384D01*
X127435279Y-96523382D01*
X127362392Y-96503849D01*
X127362351Y-96503842D01*
X127346145Y-96499500D01*
X127346144Y-96499500D01*
X125845058Y-96499500D01*
X125810117Y-96494475D01*
X125795118Y-96490070D01*
X125736372Y-96452327D01*
X125735185Y-96450958D01*
X125707705Y-96396083D01*
X125706060Y-96388521D01*
X125703228Y-96362168D01*
X125703228Y-96219473D01*
X125700620Y-96203009D01*
X125700620Y-96203007D01*
X125700616Y-96202982D01*
X125669358Y-96005631D01*
X125603962Y-95804360D01*
X125602898Y-95800588D01*
X125504166Y-95606820D01*
X125504160Y-95606808D01*
X125475053Y-95566746D01*
X125376900Y-95431650D01*
X125223806Y-95278556D01*
X125223805Y-95278555D01*
X125163249Y-95234558D01*
X125137943Y-95209965D01*
X125129466Y-95198971D01*
X125104117Y-95133865D01*
X125117992Y-95065387D01*
X125121908Y-95057964D01*
X125153884Y-95019192D01*
X125310759Y-94893093D01*
X125313296Y-94891110D01*
X125316011Y-94889047D01*
X125318624Y-94887116D01*
X125869169Y-94491661D01*
X125871858Y-94489784D01*
X125874679Y-94487871D01*
X125877392Y-94486086D01*
X126448477Y-94121055D01*
X126451278Y-94119317D01*
X126454268Y-94117518D01*
X126457071Y-94115884D01*
X127047112Y-93782289D01*
X127049953Y-93780733D01*
X127052982Y-93779127D01*
X127055969Y-93777595D01*
X127077979Y-93766679D01*
X127663155Y-93476458D01*
X127666160Y-93475019D01*
X127669190Y-93473618D01*
X127672231Y-93472261D01*
X127716986Y-93453009D01*
X128294855Y-93204427D01*
X128297875Y-93203176D01*
X128301030Y-93201918D01*
X128304076Y-93200752D01*
X128940390Y-92966982D01*
X128943484Y-92965894D01*
X128946649Y-92964827D01*
X128949805Y-92963812D01*
X129428773Y-92816746D01*
X129597743Y-92764864D01*
X129600895Y-92763942D01*
X129604176Y-92763031D01*
X129607290Y-92762211D01*
X130265161Y-92598605D01*
X130268379Y-92597852D01*
X130271683Y-92597124D01*
X130274861Y-92596469D01*
X130940543Y-92468737D01*
X130943778Y-92468161D01*
X130947097Y-92467617D01*
X130950359Y-92467127D01*
X131622008Y-92375616D01*
X131625274Y-92375217D01*
X131628633Y-92374851D01*
X131631914Y-92374539D01*
X132307485Y-92319529D01*
X132310730Y-92319309D01*
X132314164Y-92319122D01*
X132317432Y-92318989D01*
X132997558Y-92300566D01*
X132999235Y-92300533D01*
X133000900Y-92300511D01*
X133002538Y-92300500D01*
X146868124Y-92300500D01*
X146903056Y-92305521D01*
G37*
%TD.AperFunction*%
%TD*%
%TA.AperFunction,Conductor*%
%TO.N,GND*%
G36*
X122477164Y-134385195D02*
G01*
X122200000Y-134501000D01*
X121922836Y-134385195D01*
X122100000Y-133902567D01*
X122300000Y-133902567D01*
X122477164Y-134385195D01*
G37*
%TD.AperFunction*%
%TD*%
%TA.AperFunction,Conductor*%
%TO.N,GND*%
G36*
X122477164Y-140785195D02*
G01*
X122200000Y-140901000D01*
X121922836Y-140785195D01*
X122100000Y-140302567D01*
X122300000Y-140302567D01*
X122477164Y-140785195D01*
G37*
%TD.AperFunction*%
%TD*%
%TA.AperFunction,Conductor*%
%TO.N,GND*%
G36*
X153377581Y-128046050D02*
G01*
X153175000Y-128354999D01*
X152975000Y-128354999D01*
X152777586Y-128042821D01*
X153080000Y-127753999D01*
X153377581Y-128046050D01*
G37*
%TD.AperFunction*%
%TD*%
%TA.AperFunction,Conductor*%
%TO.N,GND*%
G36*
X153352164Y-128840195D02*
G01*
X153075000Y-128956000D01*
X152797836Y-128840195D01*
X152975000Y-128357567D01*
X153175000Y-128357567D01*
X153352164Y-128840195D01*
G37*
%TD.AperFunction*%
%TD*%
%TA.AperFunction,Conductor*%
%TO.N,GND*%
G36*
X156251000Y-122250000D02*
G01*
X156135195Y-122527164D01*
X155652567Y-122350000D01*
X155652567Y-122150000D01*
X156135195Y-121972836D01*
X156251000Y-122250000D01*
G37*
%TD.AperFunction*%
%TD*%
%TA.AperFunction,Conductor*%
%TO.N,GND*%
G36*
X153743159Y-131601738D02*
G01*
X153601738Y-131743159D01*
X153135195Y-131527164D01*
X153249293Y-131249293D01*
X153527164Y-131135195D01*
X153743159Y-131601738D01*
G37*
%TD.AperFunction*%
%TD*%
%TA.AperFunction,Conductor*%
%TO.N,GND*%
G36*
X151527164Y-129385195D02*
G01*
X151250000Y-129501000D01*
X150972836Y-129385195D01*
X151150000Y-128902567D01*
X151350000Y-128902567D01*
X151527164Y-129385195D01*
G37*
%TD.AperFunction*%
%TD*%
%TA.AperFunction,Conductor*%
%TO.N,GND*%
G36*
X156251000Y-124250000D02*
G01*
X156135195Y-124527164D01*
X155652567Y-124350000D01*
X155652567Y-124150000D01*
X156135195Y-123972836D01*
X156251000Y-124250000D01*
G37*
%TD.AperFunction*%
%TD*%
%TA.AperFunction,Conductor*%
%TO.N,GND*%
G36*
X122477164Y-102214805D02*
G01*
X122300000Y-102697433D01*
X122100000Y-102697433D01*
X121922836Y-102214805D01*
X122200000Y-102099000D01*
X122477164Y-102214805D01*
G37*
%TD.AperFunction*%
%TD*%
%TA.AperFunction,Conductor*%
%TO.N,GND*%
G36*
X156251000Y-120250000D02*
G01*
X156135195Y-120527164D01*
X155652567Y-120350000D01*
X155652567Y-120150000D01*
X156135195Y-119972836D01*
X156251000Y-120250000D01*
G37*
%TD.AperFunction*%
%TD*%
%TA.AperFunction,Conductor*%
%TO.N,GND*%
G36*
X156251000Y-116250000D02*
G01*
X156135195Y-116527164D01*
X155652567Y-116350000D01*
X155652567Y-116150000D01*
X156135195Y-115972836D01*
X156251000Y-116250000D01*
G37*
%TD.AperFunction*%
%TD*%
%TA.AperFunction,Conductor*%
%TO.N,GND*%
G36*
X156251000Y-118250000D02*
G01*
X156135195Y-118527164D01*
X155652567Y-118350000D01*
X155652567Y-118150000D01*
X156135195Y-117972836D01*
X156251000Y-118250000D01*
G37*
%TD.AperFunction*%
%TD*%
%TA.AperFunction,Conductor*%
%TO.N,GND*%
G36*
X157501000Y-111750000D02*
G01*
X157385195Y-112027164D01*
X156902567Y-111850000D01*
X156902567Y-111650000D01*
X157385195Y-111472836D01*
X157501000Y-111750000D01*
G37*
%TD.AperFunction*%
%TD*%
%TA.AperFunction,Conductor*%
%TO.N,GND*%
G36*
X149477164Y-131285195D02*
G01*
X149200000Y-131401000D01*
X148922836Y-131285195D01*
X149100000Y-130802567D01*
X149300000Y-130802567D01*
X149477164Y-131285195D01*
G37*
%TD.AperFunction*%
%TD*%
%TA.AperFunction,Conductor*%
%TO.N,3V3*%
G36*
X151946461Y-126111401D02*
G01*
X152436949Y-126272358D01*
X152443740Y-126278193D01*
X152445000Y-126283474D01*
X152445000Y-126766525D01*
X152441573Y-126774798D01*
X152436948Y-126777642D01*
X151946460Y-126938598D01*
X151937531Y-126937921D01*
X151936663Y-126937435D01*
X151607014Y-126733801D01*
X151285112Y-126534953D01*
X151279876Y-126527691D01*
X151281308Y-126518851D01*
X151285111Y-126515047D01*
X151936664Y-126112563D01*
X151945503Y-126111132D01*
X151946461Y-126111401D01*
G37*
%TD.AperFunction*%
%TD*%
%TA.AperFunction,Conductor*%
%TO.N,3V3*%
G36*
X153120041Y-126451729D02*
G01*
X153124151Y-126453707D01*
X153125798Y-126454946D01*
X153130272Y-126462182D01*
X153130528Y-126463576D01*
X153130550Y-126467677D01*
X153082350Y-126747166D01*
X153080711Y-126751428D01*
X153078699Y-126754612D01*
X153074459Y-126758607D01*
X152737865Y-126944279D01*
X152733513Y-126945662D01*
X152730192Y-126946033D01*
X152722974Y-126944497D01*
X152627030Y-126888226D01*
X152441765Y-126779566D01*
X152438353Y-126776532D01*
X152436347Y-126773880D01*
X152433978Y-126766822D01*
X152433978Y-126292422D01*
X152434867Y-126287949D01*
X152434901Y-126287864D01*
X152435549Y-126286301D01*
X152441874Y-126279970D01*
X152442641Y-126279652D01*
X152450030Y-126279135D01*
X153120041Y-126451729D01*
G37*
%TD.AperFunction*%
%TD*%
%TA.AperFunction,Conductor*%
%TO.N,3V3*%
G36*
X153581456Y-126160819D02*
G01*
X153581735Y-126161067D01*
X153585355Y-126167151D01*
X153585394Y-126167318D01*
X153584983Y-126169809D01*
X153585662Y-126169809D01*
X153585701Y-126347216D01*
X153585556Y-126349055D01*
X153585269Y-126350861D01*
X153584840Y-126352644D01*
X153433969Y-126816526D01*
X153431734Y-126820512D01*
X153430339Y-126822143D01*
X153422991Y-126826136D01*
X153421706Y-126826307D01*
X153417758Y-126826159D01*
X153087324Y-126756749D01*
X153083127Y-126754958D01*
X153080226Y-126752975D01*
X153076019Y-126747788D01*
X152960132Y-126467343D01*
X152959246Y-126462870D01*
X152959248Y-126460885D01*
X152962437Y-126452870D01*
X152963489Y-126451757D01*
X152966890Y-126449265D01*
X153566816Y-126159131D01*
X153571231Y-126157985D01*
X153573013Y-126157883D01*
X153581456Y-126160819D01*
G37*
%TD.AperFunction*%
%TD*%
%TA.AperFunction,Conductor*%
%TO.N,3V3*%
G36*
X123638199Y-135051406D02*
G01*
X123641090Y-135059881D01*
X123640596Y-135060885D01*
X123816657Y-135047467D01*
X123825167Y-135050255D01*
X123829212Y-135058244D01*
X123826424Y-135066754D01*
X123818435Y-135070799D01*
X123612455Y-135086498D01*
X123603945Y-135083710D01*
X123599900Y-135075721D01*
X123602688Y-135067211D01*
X123603835Y-135066051D01*
X123612710Y-135058244D01*
X123621687Y-135050348D01*
X123630162Y-135047457D01*
X123638199Y-135051406D01*
G37*
%TD.AperFunction*%
%TD*%
%TA.AperFunction,Conductor*%
%TO.N,3V3*%
G36*
X124136493Y-135084305D02*
G01*
X124161397Y-135087668D01*
X124169138Y-135092171D01*
X124171490Y-135100253D01*
X124125910Y-135636723D01*
X124121795Y-135644677D01*
X124114252Y-135647433D01*
X123635748Y-135647433D01*
X123627475Y-135644006D01*
X123624090Y-135636724D01*
X123624090Y-135636723D01*
X123578509Y-135100252D01*
X123581223Y-135091720D01*
X123588601Y-135087668D01*
X123873437Y-135049211D01*
X123876563Y-135049211D01*
X124136493Y-135084305D01*
G37*
%TD.AperFunction*%
%TD*%
%TA.AperFunction,Conductor*%
%TO.N,3V3*%
G36*
X124122525Y-134455994D02*
G01*
X124125910Y-134463277D01*
X124171490Y-134999746D01*
X124168776Y-135008279D01*
X124161397Y-135012331D01*
X123876565Y-135050788D01*
X123873435Y-135050788D01*
X123588602Y-135012331D01*
X123580861Y-135007828D01*
X123578509Y-134999747D01*
X123624090Y-134463275D01*
X123628205Y-134455323D01*
X123635748Y-134452567D01*
X124114252Y-134452567D01*
X124122525Y-134455994D01*
G37*
%TD.AperFunction*%
%TD*%
%TA.AperFunction,Conductor*%
%TO.N,3V3*%
G36*
X124136493Y-134409305D02*
G01*
X124161397Y-134412668D01*
X124169138Y-134417171D01*
X124171490Y-134425253D01*
X124125910Y-134961723D01*
X124121795Y-134969677D01*
X124114252Y-134972433D01*
X123635748Y-134972433D01*
X123627475Y-134969006D01*
X123624090Y-134961724D01*
X123624090Y-134961723D01*
X123578509Y-134425252D01*
X123581223Y-134416720D01*
X123588601Y-134412668D01*
X123873437Y-134374211D01*
X123876563Y-134374211D01*
X124136493Y-134409305D01*
G37*
%TD.AperFunction*%
%TD*%
%TA.AperFunction,Conductor*%
%TO.N,3V3*%
G36*
X124911493Y-134409305D02*
G01*
X124936397Y-134412668D01*
X124944138Y-134417171D01*
X124946490Y-134425253D01*
X124900910Y-134961723D01*
X124896795Y-134969677D01*
X124889252Y-134972433D01*
X124410748Y-134972433D01*
X124402475Y-134969006D01*
X124399090Y-134961724D01*
X124399090Y-134961723D01*
X124353509Y-134425252D01*
X124356223Y-134416720D01*
X124363601Y-134412668D01*
X124648437Y-134374211D01*
X124651563Y-134374211D01*
X124911493Y-134409305D01*
G37*
%TD.AperFunction*%
%TD*%
%TA.AperFunction,Conductor*%
%TO.N,3V3*%
G36*
X124557227Y-135055461D02*
G01*
X124561198Y-135063487D01*
X124558330Y-135071970D01*
X124550304Y-135075941D01*
X124390961Y-135086591D01*
X124382478Y-135083723D01*
X124378507Y-135075697D01*
X124381375Y-135067214D01*
X124383027Y-135065659D01*
X124396842Y-135055002D01*
X124405486Y-135052663D01*
X124413252Y-135057121D01*
X124414455Y-135061568D01*
X124548744Y-135052593D01*
X124557227Y-135055461D01*
G37*
%TD.AperFunction*%
%TD*%
%TA.AperFunction,Conductor*%
%TO.N,3V3*%
G36*
X124897525Y-134455994D02*
G01*
X124900910Y-134463277D01*
X124946490Y-134999746D01*
X124943776Y-135008279D01*
X124936397Y-135012331D01*
X124651565Y-135050788D01*
X124648435Y-135050788D01*
X124363602Y-135012331D01*
X124355861Y-135007828D01*
X124353509Y-134999747D01*
X124399090Y-134463275D01*
X124403205Y-134455323D01*
X124410748Y-134452567D01*
X124889252Y-134452567D01*
X124897525Y-134455994D01*
G37*
%TD.AperFunction*%
%TD*%
%TA.AperFunction,Conductor*%
%TO.N,3V3*%
G36*
X124911493Y-135084305D02*
G01*
X124936397Y-135087668D01*
X124944138Y-135092171D01*
X124946490Y-135100253D01*
X124900910Y-135636723D01*
X124896795Y-135644677D01*
X124889252Y-135647433D01*
X124410748Y-135647433D01*
X124402475Y-135644006D01*
X124399090Y-135636724D01*
X124399090Y-135636723D01*
X124353509Y-135100252D01*
X124356223Y-135091720D01*
X124363601Y-135087668D01*
X124648437Y-135049211D01*
X124651563Y-135049211D01*
X124911493Y-135084305D01*
G37*
%TD.AperFunction*%
%TD*%
%TA.AperFunction,Conductor*%
%TO.N,3V3*%
G36*
X153380669Y-126465530D02*
G01*
X153383300Y-126466539D01*
X153721714Y-126645615D01*
X153725253Y-126648494D01*
X153727312Y-126650981D01*
X153730000Y-126658442D01*
X153730000Y-126840797D01*
X153729109Y-126845276D01*
X153727855Y-126848302D01*
X153722742Y-126854043D01*
X153384163Y-127042731D01*
X153379819Y-127044133D01*
X153377119Y-127044447D01*
X153369855Y-127042922D01*
X153369468Y-127042695D01*
X153367140Y-127040904D01*
X153089020Y-126764943D01*
X153086469Y-126761156D01*
X153085782Y-126759515D01*
X153085746Y-126750565D01*
X153086404Y-126748957D01*
X153088987Y-126745090D01*
X153366682Y-126469550D01*
X153370486Y-126467030D01*
X153371682Y-126466540D01*
X153373066Y-126465972D01*
X153380340Y-126465448D01*
X153380669Y-126465530D01*
G37*
%TD.AperFunction*%
%TD*%
%TA.AperFunction,Conductor*%
%TO.N,3V3*%
G36*
X150602468Y-126112078D02*
G01*
X150603336Y-126112564D01*
X151254886Y-126515046D01*
X151260123Y-126522309D01*
X151258691Y-126531149D01*
X151254886Y-126534954D01*
X150603336Y-126937435D01*
X150594496Y-126938867D01*
X150593539Y-126938598D01*
X150103052Y-126777642D01*
X150096260Y-126771806D01*
X150095000Y-126766525D01*
X150095000Y-126283474D01*
X150098427Y-126275201D01*
X150103049Y-126272358D01*
X150593539Y-126111401D01*
X150602468Y-126112078D01*
G37*
%TD.AperFunction*%
%TD*%
%TA.AperFunction,Conductor*%
%TO.N,/L_START{slash}R_SELECT*%
G36*
X153319624Y-118302039D02*
G01*
X153319973Y-118302521D01*
X153556470Y-118647008D01*
X153558524Y-118653630D01*
X153558524Y-118836435D01*
X153555097Y-118844708D01*
X153546824Y-118848135D01*
X153545107Y-118848008D01*
X153089904Y-118780456D01*
X153047188Y-118774116D01*
X153039508Y-118769513D01*
X153037301Y-118761056D01*
X153073378Y-118479841D01*
X153077829Y-118472073D01*
X153303225Y-118299845D01*
X153311878Y-118297546D01*
X153319624Y-118302039D01*
G37*
%TD.AperFunction*%
%TD*%
%TA.AperFunction,Conductor*%
%TO.N,/L_DPAD_UP{slash}R_BTN_A*%
G36*
X134221061Y-125089459D02*
G01*
X134229149Y-125092736D01*
X134230290Y-125093836D01*
X134231384Y-125096347D01*
X134231639Y-125096229D01*
X134403832Y-125466793D01*
X134403839Y-125466807D01*
X134438749Y-125542214D01*
X134439822Y-125546651D01*
X134439942Y-125549596D01*
X134438141Y-125556325D01*
X134438098Y-125556393D01*
X134436482Y-125558413D01*
X134309158Y-125685737D01*
X134305361Y-125688274D01*
X134302639Y-125689401D01*
X134295702Y-125690029D01*
X134295623Y-125690012D01*
X134293168Y-125689191D01*
X134276001Y-125681243D01*
X133847465Y-125482844D01*
X133843778Y-125480157D01*
X133842469Y-125478736D01*
X133839375Y-125470594D01*
X133839376Y-125470533D01*
X133839404Y-125469003D01*
X133840278Y-125464781D01*
X133946552Y-125205964D01*
X133949070Y-125202168D01*
X133952083Y-125199136D01*
X133955929Y-125196567D01*
X134214655Y-125090330D01*
X134219129Y-125089454D01*
X134221061Y-125089459D01*
G37*
%TD.AperFunction*%
%TD*%
%TA.AperFunction,Conductor*%
%TO.N,/L_DPAD_RIGHT{slash}R_BTN_Y*%
G36*
X142114765Y-121997185D02*
G01*
X142121350Y-122003252D01*
X142122433Y-122008168D01*
X142122433Y-122191831D01*
X142119006Y-122200104D01*
X142114765Y-122202814D01*
X141650316Y-122373305D01*
X141641368Y-122372939D01*
X141635488Y-122366833D01*
X141525883Y-122104509D01*
X141525857Y-122095556D01*
X141525862Y-122095542D01*
X141635489Y-121833164D01*
X141641840Y-121826854D01*
X141650314Y-121826694D01*
X142114765Y-121997185D01*
G37*
%TD.AperFunction*%
%TD*%
%TA.AperFunction,Conductor*%
%TO.N,/L_DPAD_LEFT{slash}R_BTN_X*%
G36*
X128682513Y-130287616D02*
G01*
X128812383Y-130417486D01*
X128815810Y-130425759D01*
X128814727Y-130430674D01*
X128606868Y-130879644D01*
X128600283Y-130885712D01*
X128591807Y-130885552D01*
X128328815Y-130777563D01*
X128322463Y-130771251D01*
X128322436Y-130771184D01*
X128214447Y-130508192D01*
X128214474Y-130499237D01*
X128220352Y-130493133D01*
X128669327Y-130285271D01*
X128678272Y-130284906D01*
X128682513Y-130287616D01*
G37*
%TD.AperFunction*%
%TD*%
%TA.AperFunction,Conductor*%
%TO.N,/L_R_L1_TRIG*%
G36*
X152216833Y-114185488D02*
G01*
X152223145Y-114191840D01*
X152223305Y-114200316D01*
X152052815Y-114664765D01*
X152046748Y-114671350D01*
X152041832Y-114672433D01*
X151858168Y-114672433D01*
X151849895Y-114669006D01*
X151847185Y-114664765D01*
X151676694Y-114200316D01*
X151677060Y-114191368D01*
X151683164Y-114185489D01*
X151945490Y-114075883D01*
X151954444Y-114075857D01*
X152216833Y-114185488D01*
G37*
%TD.AperFunction*%
%TD*%
%TA.AperFunction,Conductor*%
%TO.N,/L_R_THUMBST_X*%
G36*
X133982513Y-129312616D02*
G01*
X134112383Y-129442486D01*
X134115810Y-129450759D01*
X134114727Y-129455674D01*
X133906868Y-129904644D01*
X133900283Y-129910712D01*
X133891807Y-129910552D01*
X133628815Y-129802563D01*
X133622463Y-129796251D01*
X133622436Y-129796184D01*
X133514447Y-129533192D01*
X133514474Y-129524237D01*
X133520352Y-129518133D01*
X133969327Y-129310271D01*
X133978272Y-129309906D01*
X133982513Y-129312616D01*
G37*
%TD.AperFunction*%
%TD*%
%TA.AperFunction,Conductor*%
%TO.N,/L_R_THUMBST_SW*%
G36*
X132650762Y-124914474D02*
G01*
X132656867Y-124920354D01*
X132828839Y-125291807D01*
X132864727Y-125369325D01*
X132865093Y-125378272D01*
X132862383Y-125382513D01*
X132732513Y-125512383D01*
X132724240Y-125515810D01*
X132719325Y-125514727D01*
X132701001Y-125506243D01*
X132270354Y-125306867D01*
X132264287Y-125300283D01*
X132264446Y-125291808D01*
X132372436Y-125028814D01*
X132378746Y-125022464D01*
X132641808Y-124914447D01*
X132650762Y-124914474D01*
G37*
%TD.AperFunction*%
%TD*%
%TA.AperFunction,Conductor*%
%TO.N,/L_R_THUMBST_Y*%
G36*
X131118459Y-125047704D02*
G01*
X131179262Y-125072981D01*
X131185586Y-125079321D01*
X131185737Y-125087863D01*
X131049334Y-125454631D01*
X131046641Y-125458826D01*
X130918299Y-125587168D01*
X130910026Y-125590595D01*
X130901753Y-125587168D01*
X130899651Y-125584304D01*
X130641224Y-125088599D01*
X130640438Y-125079678D01*
X130646190Y-125072815D01*
X130647074Y-125072400D01*
X130907295Y-124963671D01*
X130916248Y-124963645D01*
X131118459Y-125047704D01*
G37*
%TD.AperFunction*%
%TD*%
%TA.AperFunction,Conductor*%
%TO.N,/L_HOME{slash}R_EXTRA*%
G36*
X153431620Y-114051766D02*
G01*
X153673504Y-114152830D01*
X153689686Y-114159591D01*
X153693472Y-114162138D01*
X153694832Y-114163506D01*
X153698233Y-114171534D01*
X153698263Y-114173123D01*
X153697548Y-114177376D01*
X153528617Y-114637579D01*
X153526238Y-114641476D01*
X153524240Y-114643644D01*
X153518299Y-114647108D01*
X153518222Y-114647126D01*
X153515559Y-114647433D01*
X153335495Y-114647433D01*
X153331017Y-114646542D01*
X153328294Y-114645414D01*
X153322908Y-114640897D01*
X153322860Y-114640822D01*
X153321747Y-114638572D01*
X153152495Y-114177500D01*
X153151789Y-114172991D01*
X153151868Y-114171059D01*
X153155437Y-114163114D01*
X153156581Y-114162012D01*
X153160181Y-114159646D01*
X153418344Y-114051779D01*
X153422815Y-114050876D01*
X153427081Y-114050863D01*
X153431620Y-114051766D01*
G37*
%TD.AperFunction*%
%TD*%
M02*
