%TF.GenerationSoftware,KiCad,Pcbnew,10.0.0*%
%TF.CreationDate,2026-08-04T21:37:10-04:00*%
%TF.ProjectId,ConJoy_KiCad,436f6e4a-6f79-45f4-9b69-4361642e6b69,1.00-0A*%
%TF.SameCoordinates,Original*%
%TF.FileFunction,Legend,Bot*%
%TF.FilePolarity,Positive*%
%FSLAX46Y46*%
G04 Gerber Fmt 4.6, Leading zero omitted, Abs format (unit mm)*
G04 Created by KiCad (PCBNEW 10.0.0) date 2026-08-04 21:37:10*
%MOMM*%
%LPD*%
G01*
G04 APERTURE LIST*
%ADD10C,0.500000*%
%ADD11C,0.100000*%
G04 APERTURE END LIST*
D10*
X131400000Y-125400000D02*
X146600000Y-125400000D01*
X146600000Y-132200000D01*
X131400000Y-132200000D01*
X131400000Y-125400000D01*
D11*
X135875000Y-92375000D02*
X144150000Y-92375000D01*
X144150000Y-97175000D01*
X135875000Y-97175000D01*
X135875000Y-92375000D01*
X135880692Y-145850000D02*
X144155692Y-145850000D01*
X144155692Y-150650000D01*
X135880692Y-150650000D01*
X135880692Y-145850000D01*
X136125000Y-92625000D02*
X143900000Y-92625000D01*
X143900000Y-96925000D01*
X136125000Y-96925000D01*
X136125000Y-92625000D01*
X136130692Y-146100000D02*
X143905692Y-146100000D01*
X143905692Y-150399999D01*
X136130692Y-150399999D01*
X136130692Y-146100000D01*
X140929761Y-93291102D02*
X140953570Y-93314912D01*
X140953570Y-93314912D02*
X141024999Y-93338721D01*
X141024999Y-93338721D02*
X141072618Y-93338721D01*
X141072618Y-93338721D02*
X141144046Y-93314912D01*
X141144046Y-93314912D02*
X141191665Y-93267292D01*
X141191665Y-93267292D02*
X141215475Y-93219673D01*
X141215475Y-93219673D02*
X141239284Y-93124435D01*
X141239284Y-93124435D02*
X141239284Y-93053007D01*
X141239284Y-93053007D02*
X141215475Y-92957769D01*
X141215475Y-92957769D02*
X141191665Y-92910150D01*
X141191665Y-92910150D02*
X141144046Y-92862531D01*
X141144046Y-92862531D02*
X141072618Y-92838721D01*
X141072618Y-92838721D02*
X141024999Y-92838721D01*
X141024999Y-92838721D02*
X140953570Y-92862531D01*
X140953570Y-92862531D02*
X140929761Y-92886340D01*
X140644046Y-93338721D02*
X140691665Y-93314912D01*
X140691665Y-93314912D02*
X140715475Y-93291102D01*
X140715475Y-93291102D02*
X140739284Y-93243483D01*
X140739284Y-93243483D02*
X140739284Y-93100626D01*
X140739284Y-93100626D02*
X140715475Y-93053007D01*
X140715475Y-93053007D02*
X140691665Y-93029197D01*
X140691665Y-93029197D02*
X140644046Y-93005388D01*
X140644046Y-93005388D02*
X140572618Y-93005388D01*
X140572618Y-93005388D02*
X140524999Y-93029197D01*
X140524999Y-93029197D02*
X140501189Y-93053007D01*
X140501189Y-93053007D02*
X140477380Y-93100626D01*
X140477380Y-93100626D02*
X140477380Y-93243483D01*
X140477380Y-93243483D02*
X140501189Y-93291102D01*
X140501189Y-93291102D02*
X140524999Y-93314912D01*
X140524999Y-93314912D02*
X140572618Y-93338721D01*
X140572618Y-93338721D02*
X140644046Y-93338721D01*
X140263094Y-93005388D02*
X140263094Y-93338721D01*
X140263094Y-93053007D02*
X140239284Y-93029197D01*
X140239284Y-93029197D02*
X140191665Y-93005388D01*
X140191665Y-93005388D02*
X140120237Y-93005388D01*
X140120237Y-93005388D02*
X140072618Y-93029197D01*
X140072618Y-93029197D02*
X140048808Y-93076816D01*
X140048808Y-93076816D02*
X140048808Y-93338721D01*
X139667856Y-92838721D02*
X139667856Y-93195864D01*
X139667856Y-93195864D02*
X139691665Y-93267292D01*
X139691665Y-93267292D02*
X139739284Y-93314912D01*
X139739284Y-93314912D02*
X139810713Y-93338721D01*
X139810713Y-93338721D02*
X139858332Y-93338721D01*
X139358332Y-93338721D02*
X139405951Y-93314912D01*
X139405951Y-93314912D02*
X139429761Y-93291102D01*
X139429761Y-93291102D02*
X139453570Y-93243483D01*
X139453570Y-93243483D02*
X139453570Y-93100626D01*
X139453570Y-93100626D02*
X139429761Y-93053007D01*
X139429761Y-93053007D02*
X139405951Y-93029197D01*
X139405951Y-93029197D02*
X139358332Y-93005388D01*
X139358332Y-93005388D02*
X139286904Y-93005388D01*
X139286904Y-93005388D02*
X139239285Y-93029197D01*
X139239285Y-93029197D02*
X139215475Y-93053007D01*
X139215475Y-93053007D02*
X139191666Y-93100626D01*
X139191666Y-93100626D02*
X139191666Y-93243483D01*
X139191666Y-93243483D02*
X139215475Y-93291102D01*
X139215475Y-93291102D02*
X139239285Y-93314912D01*
X139239285Y-93314912D02*
X139286904Y-93338721D01*
X139286904Y-93338721D02*
X139358332Y-93338721D01*
X139024999Y-93005388D02*
X138905951Y-93338721D01*
X138786904Y-93005388D02*
X138905951Y-93338721D01*
X138905951Y-93338721D02*
X138953570Y-93457769D01*
X138953570Y-93457769D02*
X138977380Y-93481578D01*
X138977380Y-93481578D02*
X139024999Y-93505388D01*
X141655951Y-93643693D02*
X141655951Y-94000836D01*
X141655951Y-94000836D02*
X141679760Y-94072264D01*
X141679760Y-94072264D02*
X141727379Y-94119884D01*
X141727379Y-94119884D02*
X141798808Y-94143693D01*
X141798808Y-94143693D02*
X141846427Y-94143693D01*
X141251189Y-93881788D02*
X141417856Y-93881788D01*
X141417856Y-94143693D02*
X141417856Y-93643693D01*
X141417856Y-93643693D02*
X141179761Y-93643693D01*
X140822618Y-93881788D02*
X140751190Y-93905598D01*
X140751190Y-93905598D02*
X140727380Y-93929407D01*
X140727380Y-93929407D02*
X140703571Y-93977026D01*
X140703571Y-93977026D02*
X140703571Y-94048455D01*
X140703571Y-94048455D02*
X140727380Y-94096074D01*
X140727380Y-94096074D02*
X140751190Y-94119884D01*
X140751190Y-94119884D02*
X140798809Y-94143693D01*
X140798809Y-94143693D02*
X140989285Y-94143693D01*
X140989285Y-94143693D02*
X140989285Y-93643693D01*
X140989285Y-93643693D02*
X140822618Y-93643693D01*
X140822618Y-93643693D02*
X140774999Y-93667503D01*
X140774999Y-93667503D02*
X140751190Y-93691312D01*
X140751190Y-93691312D02*
X140727380Y-93738931D01*
X140727380Y-93738931D02*
X140727380Y-93786550D01*
X140727380Y-93786550D02*
X140751190Y-93834169D01*
X140751190Y-93834169D02*
X140774999Y-93857979D01*
X140774999Y-93857979D02*
X140822618Y-93881788D01*
X140822618Y-93881788D02*
X140989285Y-93881788D01*
X140108333Y-94143693D02*
X140108333Y-93643693D01*
X140108333Y-93643693D02*
X139917857Y-93643693D01*
X139917857Y-93643693D02*
X139870238Y-93667503D01*
X139870238Y-93667503D02*
X139846428Y-93691312D01*
X139846428Y-93691312D02*
X139822619Y-93738931D01*
X139822619Y-93738931D02*
X139822619Y-93810360D01*
X139822619Y-93810360D02*
X139846428Y-93857979D01*
X139846428Y-93857979D02*
X139870238Y-93881788D01*
X139870238Y-93881788D02*
X139917857Y-93905598D01*
X139917857Y-93905598D02*
X140108333Y-93905598D01*
X139608333Y-94096074D02*
X139584523Y-94119884D01*
X139584523Y-94119884D02*
X139608333Y-94143693D01*
X139608333Y-94143693D02*
X139632142Y-94119884D01*
X139632142Y-94119884D02*
X139608333Y-94096074D01*
X139608333Y-94096074D02*
X139608333Y-94143693D01*
X139370238Y-93881788D02*
X139203571Y-93881788D01*
X139132143Y-94143693D02*
X139370238Y-94143693D01*
X139370238Y-94143693D02*
X139370238Y-93643693D01*
X139370238Y-93643693D02*
X139132143Y-93643693D01*
X138917857Y-93810360D02*
X138917857Y-94143693D01*
X138917857Y-93857979D02*
X138894047Y-93834169D01*
X138894047Y-93834169D02*
X138846428Y-93810360D01*
X138846428Y-93810360D02*
X138775000Y-93810360D01*
X138775000Y-93810360D02*
X138727381Y-93834169D01*
X138727381Y-93834169D02*
X138703571Y-93881788D01*
X138703571Y-93881788D02*
X138703571Y-94143693D01*
X138251190Y-93810360D02*
X138251190Y-94215122D01*
X138251190Y-94215122D02*
X138275000Y-94262741D01*
X138275000Y-94262741D02*
X138298809Y-94286550D01*
X138298809Y-94286550D02*
X138346428Y-94310360D01*
X138346428Y-94310360D02*
X138417857Y-94310360D01*
X138417857Y-94310360D02*
X138465476Y-94286550D01*
X138251190Y-94119884D02*
X138298809Y-94143693D01*
X138298809Y-94143693D02*
X138394047Y-94143693D01*
X138394047Y-94143693D02*
X138441666Y-94119884D01*
X138441666Y-94119884D02*
X138465476Y-94096074D01*
X138465476Y-94096074D02*
X138489285Y-94048455D01*
X138489285Y-94048455D02*
X138489285Y-93905598D01*
X138489285Y-93905598D02*
X138465476Y-93857979D01*
X138465476Y-93857979D02*
X138441666Y-93834169D01*
X138441666Y-93834169D02*
X138394047Y-93810360D01*
X138394047Y-93810360D02*
X138298809Y-93810360D01*
X138298809Y-93810360D02*
X138251190Y-93834169D01*
X141667855Y-94496284D02*
X141644046Y-94472475D01*
X141644046Y-94472475D02*
X141596427Y-94448665D01*
X141596427Y-94448665D02*
X141477379Y-94448665D01*
X141477379Y-94448665D02*
X141429760Y-94472475D01*
X141429760Y-94472475D02*
X141405951Y-94496284D01*
X141405951Y-94496284D02*
X141382141Y-94543903D01*
X141382141Y-94543903D02*
X141382141Y-94591522D01*
X141382141Y-94591522D02*
X141405951Y-94662951D01*
X141405951Y-94662951D02*
X141691665Y-94948665D01*
X141691665Y-94948665D02*
X141382141Y-94948665D01*
X141072618Y-94448665D02*
X141024999Y-94448665D01*
X141024999Y-94448665D02*
X140977380Y-94472475D01*
X140977380Y-94472475D02*
X140953570Y-94496284D01*
X140953570Y-94496284D02*
X140929761Y-94543903D01*
X140929761Y-94543903D02*
X140905951Y-94639141D01*
X140905951Y-94639141D02*
X140905951Y-94758189D01*
X140905951Y-94758189D02*
X140929761Y-94853427D01*
X140929761Y-94853427D02*
X140953570Y-94901046D01*
X140953570Y-94901046D02*
X140977380Y-94924856D01*
X140977380Y-94924856D02*
X141024999Y-94948665D01*
X141024999Y-94948665D02*
X141072618Y-94948665D01*
X141072618Y-94948665D02*
X141120237Y-94924856D01*
X141120237Y-94924856D02*
X141144046Y-94901046D01*
X141144046Y-94901046D02*
X141167856Y-94853427D01*
X141167856Y-94853427D02*
X141191665Y-94758189D01*
X141191665Y-94758189D02*
X141191665Y-94639141D01*
X141191665Y-94639141D02*
X141167856Y-94543903D01*
X141167856Y-94543903D02*
X141144046Y-94496284D01*
X141144046Y-94496284D02*
X141120237Y-94472475D01*
X141120237Y-94472475D02*
X141072618Y-94448665D01*
X140715475Y-94496284D02*
X140691666Y-94472475D01*
X140691666Y-94472475D02*
X140644047Y-94448665D01*
X140644047Y-94448665D02*
X140524999Y-94448665D01*
X140524999Y-94448665D02*
X140477380Y-94472475D01*
X140477380Y-94472475D02*
X140453571Y-94496284D01*
X140453571Y-94496284D02*
X140429761Y-94543903D01*
X140429761Y-94543903D02*
X140429761Y-94591522D01*
X140429761Y-94591522D02*
X140453571Y-94662951D01*
X140453571Y-94662951D02*
X140739285Y-94948665D01*
X140739285Y-94948665D02*
X140429761Y-94948665D01*
X140001190Y-94448665D02*
X140096428Y-94448665D01*
X140096428Y-94448665D02*
X140144047Y-94472475D01*
X140144047Y-94472475D02*
X140167857Y-94496284D01*
X140167857Y-94496284D02*
X140215476Y-94567713D01*
X140215476Y-94567713D02*
X140239285Y-94662951D01*
X140239285Y-94662951D02*
X140239285Y-94853427D01*
X140239285Y-94853427D02*
X140215476Y-94901046D01*
X140215476Y-94901046D02*
X140191666Y-94924856D01*
X140191666Y-94924856D02*
X140144047Y-94948665D01*
X140144047Y-94948665D02*
X140048809Y-94948665D01*
X140048809Y-94948665D02*
X140001190Y-94924856D01*
X140001190Y-94924856D02*
X139977381Y-94901046D01*
X139977381Y-94901046D02*
X139953571Y-94853427D01*
X139953571Y-94853427D02*
X139953571Y-94734379D01*
X139953571Y-94734379D02*
X139977381Y-94686760D01*
X139977381Y-94686760D02*
X140001190Y-94662951D01*
X140001190Y-94662951D02*
X140048809Y-94639141D01*
X140048809Y-94639141D02*
X140144047Y-94639141D01*
X140144047Y-94639141D02*
X140191666Y-94662951D01*
X140191666Y-94662951D02*
X140215476Y-94686760D01*
X140215476Y-94686760D02*
X140239285Y-94734379D01*
X139739286Y-94758189D02*
X139358334Y-94758189D01*
X139025000Y-94448665D02*
X138977381Y-94448665D01*
X138977381Y-94448665D02*
X138929762Y-94472475D01*
X138929762Y-94472475D02*
X138905952Y-94496284D01*
X138905952Y-94496284D02*
X138882143Y-94543903D01*
X138882143Y-94543903D02*
X138858333Y-94639141D01*
X138858333Y-94639141D02*
X138858333Y-94758189D01*
X138858333Y-94758189D02*
X138882143Y-94853427D01*
X138882143Y-94853427D02*
X138905952Y-94901046D01*
X138905952Y-94901046D02*
X138929762Y-94924856D01*
X138929762Y-94924856D02*
X138977381Y-94948665D01*
X138977381Y-94948665D02*
X139025000Y-94948665D01*
X139025000Y-94948665D02*
X139072619Y-94924856D01*
X139072619Y-94924856D02*
X139096428Y-94901046D01*
X139096428Y-94901046D02*
X139120238Y-94853427D01*
X139120238Y-94853427D02*
X139144047Y-94758189D01*
X139144047Y-94758189D02*
X139144047Y-94639141D01*
X139144047Y-94639141D02*
X139120238Y-94543903D01*
X139120238Y-94543903D02*
X139096428Y-94496284D01*
X139096428Y-94496284D02*
X139072619Y-94472475D01*
X139072619Y-94472475D02*
X139025000Y-94448665D01*
X138620238Y-94948665D02*
X138525000Y-94948665D01*
X138525000Y-94948665D02*
X138477381Y-94924856D01*
X138477381Y-94924856D02*
X138453572Y-94901046D01*
X138453572Y-94901046D02*
X138405953Y-94829617D01*
X138405953Y-94829617D02*
X138382143Y-94734379D01*
X138382143Y-94734379D02*
X138382143Y-94543903D01*
X138382143Y-94543903D02*
X138405953Y-94496284D01*
X138405953Y-94496284D02*
X138429762Y-94472475D01*
X138429762Y-94472475D02*
X138477381Y-94448665D01*
X138477381Y-94448665D02*
X138572619Y-94448665D01*
X138572619Y-94448665D02*
X138620238Y-94472475D01*
X138620238Y-94472475D02*
X138644048Y-94496284D01*
X138644048Y-94496284D02*
X138667857Y-94543903D01*
X138667857Y-94543903D02*
X138667857Y-94662951D01*
X138667857Y-94662951D02*
X138644048Y-94710570D01*
X138644048Y-94710570D02*
X138620238Y-94734379D01*
X138620238Y-94734379D02*
X138572619Y-94758189D01*
X138572619Y-94758189D02*
X138477381Y-94758189D01*
X138477381Y-94758189D02*
X138429762Y-94734379D01*
X138429762Y-94734379D02*
X138405953Y-94710570D01*
X138405953Y-94710570D02*
X138382143Y-94662951D01*
X142727379Y-95753637D02*
X142727379Y-95253637D01*
X142727379Y-95253637D02*
X142536903Y-95253637D01*
X142536903Y-95253637D02*
X142489284Y-95277447D01*
X142489284Y-95277447D02*
X142465474Y-95301256D01*
X142465474Y-95301256D02*
X142441665Y-95348875D01*
X142441665Y-95348875D02*
X142441665Y-95420304D01*
X142441665Y-95420304D02*
X142465474Y-95467923D01*
X142465474Y-95467923D02*
X142489284Y-95491732D01*
X142489284Y-95491732D02*
X142536903Y-95515542D01*
X142536903Y-95515542D02*
X142727379Y-95515542D01*
X141941665Y-95706018D02*
X141965474Y-95729828D01*
X141965474Y-95729828D02*
X142036903Y-95753637D01*
X142036903Y-95753637D02*
X142084522Y-95753637D01*
X142084522Y-95753637D02*
X142155950Y-95729828D01*
X142155950Y-95729828D02*
X142203569Y-95682208D01*
X142203569Y-95682208D02*
X142227379Y-95634589D01*
X142227379Y-95634589D02*
X142251188Y-95539351D01*
X142251188Y-95539351D02*
X142251188Y-95467923D01*
X142251188Y-95467923D02*
X142227379Y-95372685D01*
X142227379Y-95372685D02*
X142203569Y-95325066D01*
X142203569Y-95325066D02*
X142155950Y-95277447D01*
X142155950Y-95277447D02*
X142084522Y-95253637D01*
X142084522Y-95253637D02*
X142036903Y-95253637D01*
X142036903Y-95253637D02*
X141965474Y-95277447D01*
X141965474Y-95277447D02*
X141941665Y-95301256D01*
X141560712Y-95491732D02*
X141489284Y-95515542D01*
X141489284Y-95515542D02*
X141465474Y-95539351D01*
X141465474Y-95539351D02*
X141441665Y-95586970D01*
X141441665Y-95586970D02*
X141441665Y-95658399D01*
X141441665Y-95658399D02*
X141465474Y-95706018D01*
X141465474Y-95706018D02*
X141489284Y-95729828D01*
X141489284Y-95729828D02*
X141536903Y-95753637D01*
X141536903Y-95753637D02*
X141727379Y-95753637D01*
X141727379Y-95753637D02*
X141727379Y-95253637D01*
X141727379Y-95253637D02*
X141560712Y-95253637D01*
X141560712Y-95253637D02*
X141513093Y-95277447D01*
X141513093Y-95277447D02*
X141489284Y-95301256D01*
X141489284Y-95301256D02*
X141465474Y-95348875D01*
X141465474Y-95348875D02*
X141465474Y-95396494D01*
X141465474Y-95396494D02*
X141489284Y-95444113D01*
X141489284Y-95444113D02*
X141513093Y-95467923D01*
X141513093Y-95467923D02*
X141560712Y-95491732D01*
X141560712Y-95491732D02*
X141727379Y-95491732D01*
X140917855Y-95253637D02*
X140751189Y-95753637D01*
X140751189Y-95753637D02*
X140584522Y-95253637D01*
X140155951Y-95753637D02*
X140441665Y-95753637D01*
X140298808Y-95753637D02*
X140298808Y-95253637D01*
X140298808Y-95253637D02*
X140346427Y-95325066D01*
X140346427Y-95325066D02*
X140394046Y-95372685D01*
X140394046Y-95372685D02*
X140441665Y-95396494D01*
X140060714Y-95801256D02*
X139679761Y-95801256D01*
X139465476Y-95253637D02*
X139417857Y-95253637D01*
X139417857Y-95253637D02*
X139370238Y-95277447D01*
X139370238Y-95277447D02*
X139346428Y-95301256D01*
X139346428Y-95301256D02*
X139322619Y-95348875D01*
X139322619Y-95348875D02*
X139298809Y-95444113D01*
X139298809Y-95444113D02*
X139298809Y-95563161D01*
X139298809Y-95563161D02*
X139322619Y-95658399D01*
X139322619Y-95658399D02*
X139346428Y-95706018D01*
X139346428Y-95706018D02*
X139370238Y-95729828D01*
X139370238Y-95729828D02*
X139417857Y-95753637D01*
X139417857Y-95753637D02*
X139465476Y-95753637D01*
X139465476Y-95753637D02*
X139513095Y-95729828D01*
X139513095Y-95729828D02*
X139536904Y-95706018D01*
X139536904Y-95706018D02*
X139560714Y-95658399D01*
X139560714Y-95658399D02*
X139584523Y-95563161D01*
X139584523Y-95563161D02*
X139584523Y-95444113D01*
X139584523Y-95444113D02*
X139560714Y-95348875D01*
X139560714Y-95348875D02*
X139536904Y-95301256D01*
X139536904Y-95301256D02*
X139513095Y-95277447D01*
X139513095Y-95277447D02*
X139465476Y-95253637D01*
X138989286Y-95253637D02*
X138941667Y-95253637D01*
X138941667Y-95253637D02*
X138894048Y-95277447D01*
X138894048Y-95277447D02*
X138870238Y-95301256D01*
X138870238Y-95301256D02*
X138846429Y-95348875D01*
X138846429Y-95348875D02*
X138822619Y-95444113D01*
X138822619Y-95444113D02*
X138822619Y-95563161D01*
X138822619Y-95563161D02*
X138846429Y-95658399D01*
X138846429Y-95658399D02*
X138870238Y-95706018D01*
X138870238Y-95706018D02*
X138894048Y-95729828D01*
X138894048Y-95729828D02*
X138941667Y-95753637D01*
X138941667Y-95753637D02*
X138989286Y-95753637D01*
X138989286Y-95753637D02*
X139036905Y-95729828D01*
X139036905Y-95729828D02*
X139060714Y-95706018D01*
X139060714Y-95706018D02*
X139084524Y-95658399D01*
X139084524Y-95658399D02*
X139108333Y-95563161D01*
X139108333Y-95563161D02*
X139108333Y-95444113D01*
X139108333Y-95444113D02*
X139084524Y-95348875D01*
X139084524Y-95348875D02*
X139060714Y-95301256D01*
X139060714Y-95301256D02*
X139036905Y-95277447D01*
X139036905Y-95277447D02*
X138989286Y-95253637D01*
X138608334Y-95563161D02*
X138227382Y-95563161D01*
X137894048Y-95253637D02*
X137846429Y-95253637D01*
X137846429Y-95253637D02*
X137798810Y-95277447D01*
X137798810Y-95277447D02*
X137775000Y-95301256D01*
X137775000Y-95301256D02*
X137751191Y-95348875D01*
X137751191Y-95348875D02*
X137727381Y-95444113D01*
X137727381Y-95444113D02*
X137727381Y-95563161D01*
X137727381Y-95563161D02*
X137751191Y-95658399D01*
X137751191Y-95658399D02*
X137775000Y-95706018D01*
X137775000Y-95706018D02*
X137798810Y-95729828D01*
X137798810Y-95729828D02*
X137846429Y-95753637D01*
X137846429Y-95753637D02*
X137894048Y-95753637D01*
X137894048Y-95753637D02*
X137941667Y-95729828D01*
X137941667Y-95729828D02*
X137965476Y-95706018D01*
X137965476Y-95706018D02*
X137989286Y-95658399D01*
X137989286Y-95658399D02*
X138013095Y-95563161D01*
X138013095Y-95563161D02*
X138013095Y-95444113D01*
X138013095Y-95444113D02*
X137989286Y-95348875D01*
X137989286Y-95348875D02*
X137965476Y-95301256D01*
X137965476Y-95301256D02*
X137941667Y-95277447D01*
X137941667Y-95277447D02*
X137894048Y-95253637D01*
X137536905Y-95610780D02*
X137298810Y-95610780D01*
X137584524Y-95753637D02*
X137417858Y-95253637D01*
X137417858Y-95253637D02*
X137251191Y-95753637D01*
X143667855Y-96558609D02*
X143667855Y-96058609D01*
X143667855Y-96058609D02*
X143548807Y-96058609D01*
X143548807Y-96058609D02*
X143477379Y-96082419D01*
X143477379Y-96082419D02*
X143429760Y-96130038D01*
X143429760Y-96130038D02*
X143405950Y-96177657D01*
X143405950Y-96177657D02*
X143382141Y-96272895D01*
X143382141Y-96272895D02*
X143382141Y-96344323D01*
X143382141Y-96344323D02*
X143405950Y-96439561D01*
X143405950Y-96439561D02*
X143429760Y-96487180D01*
X143429760Y-96487180D02*
X143477379Y-96534800D01*
X143477379Y-96534800D02*
X143548807Y-96558609D01*
X143548807Y-96558609D02*
X143667855Y-96558609D01*
X142977379Y-96534800D02*
X143024998Y-96558609D01*
X143024998Y-96558609D02*
X143120236Y-96558609D01*
X143120236Y-96558609D02*
X143167855Y-96534800D01*
X143167855Y-96534800D02*
X143191664Y-96487180D01*
X143191664Y-96487180D02*
X143191664Y-96296704D01*
X143191664Y-96296704D02*
X143167855Y-96249085D01*
X143167855Y-96249085D02*
X143120236Y-96225276D01*
X143120236Y-96225276D02*
X143024998Y-96225276D01*
X143024998Y-96225276D02*
X142977379Y-96249085D01*
X142977379Y-96249085D02*
X142953569Y-96296704D01*
X142953569Y-96296704D02*
X142953569Y-96344323D01*
X142953569Y-96344323D02*
X143191664Y-96391942D01*
X142763093Y-96534800D02*
X142715474Y-96558609D01*
X142715474Y-96558609D02*
X142620236Y-96558609D01*
X142620236Y-96558609D02*
X142572617Y-96534800D01*
X142572617Y-96534800D02*
X142548808Y-96487180D01*
X142548808Y-96487180D02*
X142548808Y-96463371D01*
X142548808Y-96463371D02*
X142572617Y-96415752D01*
X142572617Y-96415752D02*
X142620236Y-96391942D01*
X142620236Y-96391942D02*
X142691665Y-96391942D01*
X142691665Y-96391942D02*
X142739284Y-96368133D01*
X142739284Y-96368133D02*
X142763093Y-96320514D01*
X142763093Y-96320514D02*
X142763093Y-96296704D01*
X142763093Y-96296704D02*
X142739284Y-96249085D01*
X142739284Y-96249085D02*
X142691665Y-96225276D01*
X142691665Y-96225276D02*
X142620236Y-96225276D01*
X142620236Y-96225276D02*
X142572617Y-96249085D01*
X142334522Y-96558609D02*
X142334522Y-96225276D01*
X142334522Y-96058609D02*
X142358331Y-96082419D01*
X142358331Y-96082419D02*
X142334522Y-96106228D01*
X142334522Y-96106228D02*
X142310712Y-96082419D01*
X142310712Y-96082419D02*
X142334522Y-96058609D01*
X142334522Y-96058609D02*
X142334522Y-96106228D01*
X141882141Y-96225276D02*
X141882141Y-96630038D01*
X141882141Y-96630038D02*
X141905951Y-96677657D01*
X141905951Y-96677657D02*
X141929760Y-96701466D01*
X141929760Y-96701466D02*
X141977379Y-96725276D01*
X141977379Y-96725276D02*
X142048808Y-96725276D01*
X142048808Y-96725276D02*
X142096427Y-96701466D01*
X141882141Y-96534800D02*
X141929760Y-96558609D01*
X141929760Y-96558609D02*
X142024998Y-96558609D01*
X142024998Y-96558609D02*
X142072617Y-96534800D01*
X142072617Y-96534800D02*
X142096427Y-96510990D01*
X142096427Y-96510990D02*
X142120236Y-96463371D01*
X142120236Y-96463371D02*
X142120236Y-96320514D01*
X142120236Y-96320514D02*
X142096427Y-96272895D01*
X142096427Y-96272895D02*
X142072617Y-96249085D01*
X142072617Y-96249085D02*
X142024998Y-96225276D01*
X142024998Y-96225276D02*
X141929760Y-96225276D01*
X141929760Y-96225276D02*
X141882141Y-96249085D01*
X141644046Y-96225276D02*
X141644046Y-96558609D01*
X141644046Y-96272895D02*
X141620236Y-96249085D01*
X141620236Y-96249085D02*
X141572617Y-96225276D01*
X141572617Y-96225276D02*
X141501189Y-96225276D01*
X141501189Y-96225276D02*
X141453570Y-96249085D01*
X141453570Y-96249085D02*
X141429760Y-96296704D01*
X141429760Y-96296704D02*
X141429760Y-96558609D01*
X141001189Y-96534800D02*
X141048808Y-96558609D01*
X141048808Y-96558609D02*
X141144046Y-96558609D01*
X141144046Y-96558609D02*
X141191665Y-96534800D01*
X141191665Y-96534800D02*
X141215474Y-96487180D01*
X141215474Y-96487180D02*
X141215474Y-96296704D01*
X141215474Y-96296704D02*
X141191665Y-96249085D01*
X141191665Y-96249085D02*
X141144046Y-96225276D01*
X141144046Y-96225276D02*
X141048808Y-96225276D01*
X141048808Y-96225276D02*
X141001189Y-96249085D01*
X141001189Y-96249085D02*
X140977379Y-96296704D01*
X140977379Y-96296704D02*
X140977379Y-96344323D01*
X140977379Y-96344323D02*
X141215474Y-96391942D01*
X140548808Y-96558609D02*
X140548808Y-96058609D01*
X140548808Y-96534800D02*
X140596427Y-96558609D01*
X140596427Y-96558609D02*
X140691665Y-96558609D01*
X140691665Y-96558609D02*
X140739284Y-96534800D01*
X140739284Y-96534800D02*
X140763094Y-96510990D01*
X140763094Y-96510990D02*
X140786903Y-96463371D01*
X140786903Y-96463371D02*
X140786903Y-96320514D01*
X140786903Y-96320514D02*
X140763094Y-96272895D01*
X140763094Y-96272895D02*
X140739284Y-96249085D01*
X140739284Y-96249085D02*
X140691665Y-96225276D01*
X140691665Y-96225276D02*
X140596427Y-96225276D01*
X140596427Y-96225276D02*
X140548808Y-96249085D01*
X139929761Y-96558609D02*
X139929761Y-96225276D01*
X139929761Y-96058609D02*
X139953570Y-96082419D01*
X139953570Y-96082419D02*
X139929761Y-96106228D01*
X139929761Y-96106228D02*
X139905951Y-96082419D01*
X139905951Y-96082419D02*
X139929761Y-96058609D01*
X139929761Y-96058609D02*
X139929761Y-96106228D01*
X139691666Y-96225276D02*
X139691666Y-96558609D01*
X139691666Y-96272895D02*
X139667856Y-96249085D01*
X139667856Y-96249085D02*
X139620237Y-96225276D01*
X139620237Y-96225276D02*
X139548809Y-96225276D01*
X139548809Y-96225276D02*
X139501190Y-96249085D01*
X139501190Y-96249085D02*
X139477380Y-96296704D01*
X139477380Y-96296704D02*
X139477380Y-96558609D01*
X138525000Y-96606228D02*
X138572619Y-96582419D01*
X138572619Y-96582419D02*
X138620238Y-96534800D01*
X138620238Y-96534800D02*
X138691666Y-96463371D01*
X138691666Y-96463371D02*
X138739285Y-96439561D01*
X138739285Y-96439561D02*
X138786904Y-96439561D01*
X138763095Y-96558609D02*
X138810714Y-96534800D01*
X138810714Y-96534800D02*
X138858333Y-96487180D01*
X138858333Y-96487180D02*
X138882142Y-96391942D01*
X138882142Y-96391942D02*
X138882142Y-96225276D01*
X138882142Y-96225276D02*
X138858333Y-96130038D01*
X138858333Y-96130038D02*
X138810714Y-96082419D01*
X138810714Y-96082419D02*
X138763095Y-96058609D01*
X138763095Y-96058609D02*
X138667857Y-96058609D01*
X138667857Y-96058609D02*
X138620238Y-96082419D01*
X138620238Y-96082419D02*
X138572619Y-96130038D01*
X138572619Y-96130038D02*
X138548809Y-96225276D01*
X138548809Y-96225276D02*
X138548809Y-96391942D01*
X138548809Y-96391942D02*
X138572619Y-96487180D01*
X138572619Y-96487180D02*
X138620238Y-96534800D01*
X138620238Y-96534800D02*
X138667857Y-96558609D01*
X138667857Y-96558609D02*
X138763095Y-96558609D01*
X138120237Y-96225276D02*
X138120237Y-96558609D01*
X138334523Y-96225276D02*
X138334523Y-96487180D01*
X138334523Y-96487180D02*
X138310713Y-96534800D01*
X138310713Y-96534800D02*
X138263094Y-96558609D01*
X138263094Y-96558609D02*
X138191666Y-96558609D01*
X138191666Y-96558609D02*
X138144047Y-96534800D01*
X138144047Y-96534800D02*
X138120237Y-96510990D01*
X137691666Y-96534800D02*
X137739285Y-96558609D01*
X137739285Y-96558609D02*
X137834523Y-96558609D01*
X137834523Y-96558609D02*
X137882142Y-96534800D01*
X137882142Y-96534800D02*
X137905951Y-96487180D01*
X137905951Y-96487180D02*
X137905951Y-96296704D01*
X137905951Y-96296704D02*
X137882142Y-96249085D01*
X137882142Y-96249085D02*
X137834523Y-96225276D01*
X137834523Y-96225276D02*
X137739285Y-96225276D01*
X137739285Y-96225276D02*
X137691666Y-96249085D01*
X137691666Y-96249085D02*
X137667856Y-96296704D01*
X137667856Y-96296704D02*
X137667856Y-96344323D01*
X137667856Y-96344323D02*
X137905951Y-96391942D01*
X137453571Y-96558609D02*
X137453571Y-96058609D01*
X137453571Y-96249085D02*
X137405952Y-96225276D01*
X137405952Y-96225276D02*
X137310714Y-96225276D01*
X137310714Y-96225276D02*
X137263095Y-96249085D01*
X137263095Y-96249085D02*
X137239285Y-96272895D01*
X137239285Y-96272895D02*
X137215476Y-96320514D01*
X137215476Y-96320514D02*
X137215476Y-96463371D01*
X137215476Y-96463371D02*
X137239285Y-96510990D01*
X137239285Y-96510990D02*
X137263095Y-96534800D01*
X137263095Y-96534800D02*
X137310714Y-96558609D01*
X137310714Y-96558609D02*
X137405952Y-96558609D01*
X137405952Y-96558609D02*
X137453571Y-96534800D01*
X136810714Y-96534800D02*
X136858333Y-96558609D01*
X136858333Y-96558609D02*
X136953571Y-96558609D01*
X136953571Y-96558609D02*
X137001190Y-96534800D01*
X137001190Y-96534800D02*
X137024999Y-96487180D01*
X137024999Y-96487180D02*
X137024999Y-96296704D01*
X137024999Y-96296704D02*
X137001190Y-96249085D01*
X137001190Y-96249085D02*
X136953571Y-96225276D01*
X136953571Y-96225276D02*
X136858333Y-96225276D01*
X136858333Y-96225276D02*
X136810714Y-96249085D01*
X136810714Y-96249085D02*
X136786904Y-96296704D01*
X136786904Y-96296704D02*
X136786904Y-96344323D01*
X136786904Y-96344323D02*
X137024999Y-96391942D01*
X136358333Y-96534800D02*
X136405952Y-96558609D01*
X136405952Y-96558609D02*
X136501190Y-96558609D01*
X136501190Y-96558609D02*
X136548809Y-96534800D01*
X136548809Y-96534800D02*
X136572619Y-96510990D01*
X136572619Y-96510990D02*
X136596428Y-96463371D01*
X136596428Y-96463371D02*
X136596428Y-96320514D01*
X136596428Y-96320514D02*
X136572619Y-96272895D01*
X136572619Y-96272895D02*
X136548809Y-96249085D01*
X136548809Y-96249085D02*
X136501190Y-96225276D01*
X136501190Y-96225276D02*
X136405952Y-96225276D01*
X136405952Y-96225276D02*
X136358333Y-96249085D01*
X139100930Y-149733897D02*
X139077121Y-149710088D01*
X139077121Y-149710088D02*
X139005692Y-149686278D01*
X139005692Y-149686278D02*
X138958073Y-149686278D01*
X138958073Y-149686278D02*
X138886645Y-149710088D01*
X138886645Y-149710088D02*
X138839026Y-149757707D01*
X138839026Y-149757707D02*
X138815216Y-149805326D01*
X138815216Y-149805326D02*
X138791407Y-149900564D01*
X138791407Y-149900564D02*
X138791407Y-149971992D01*
X138791407Y-149971992D02*
X138815216Y-150067230D01*
X138815216Y-150067230D02*
X138839026Y-150114849D01*
X138839026Y-150114849D02*
X138886645Y-150162468D01*
X138886645Y-150162468D02*
X138958073Y-150186278D01*
X138958073Y-150186278D02*
X139005692Y-150186278D01*
X139005692Y-150186278D02*
X139077121Y-150162468D01*
X139077121Y-150162468D02*
X139100930Y-150138659D01*
X139386645Y-149686278D02*
X139339026Y-149710088D01*
X139339026Y-149710088D02*
X139315216Y-149733897D01*
X139315216Y-149733897D02*
X139291407Y-149781516D01*
X139291407Y-149781516D02*
X139291407Y-149924373D01*
X139291407Y-149924373D02*
X139315216Y-149971992D01*
X139315216Y-149971992D02*
X139339026Y-149995802D01*
X139339026Y-149995802D02*
X139386645Y-150019611D01*
X139386645Y-150019611D02*
X139458073Y-150019611D01*
X139458073Y-150019611D02*
X139505692Y-149995802D01*
X139505692Y-149995802D02*
X139529502Y-149971992D01*
X139529502Y-149971992D02*
X139553311Y-149924373D01*
X139553311Y-149924373D02*
X139553311Y-149781516D01*
X139553311Y-149781516D02*
X139529502Y-149733897D01*
X139529502Y-149733897D02*
X139505692Y-149710088D01*
X139505692Y-149710088D02*
X139458073Y-149686278D01*
X139458073Y-149686278D02*
X139386645Y-149686278D01*
X139767597Y-150019611D02*
X139767597Y-149686278D01*
X139767597Y-149971992D02*
X139791407Y-149995802D01*
X139791407Y-149995802D02*
X139839026Y-150019611D01*
X139839026Y-150019611D02*
X139910454Y-150019611D01*
X139910454Y-150019611D02*
X139958073Y-149995802D01*
X139958073Y-149995802D02*
X139981883Y-149948183D01*
X139981883Y-149948183D02*
X139981883Y-149686278D01*
X140362835Y-150186278D02*
X140362835Y-149829135D01*
X140362835Y-149829135D02*
X140339026Y-149757707D01*
X140339026Y-149757707D02*
X140291407Y-149710088D01*
X140291407Y-149710088D02*
X140219978Y-149686278D01*
X140219978Y-149686278D02*
X140172359Y-149686278D01*
X140672359Y-149686278D02*
X140624740Y-149710088D01*
X140624740Y-149710088D02*
X140600930Y-149733897D01*
X140600930Y-149733897D02*
X140577121Y-149781516D01*
X140577121Y-149781516D02*
X140577121Y-149924373D01*
X140577121Y-149924373D02*
X140600930Y-149971992D01*
X140600930Y-149971992D02*
X140624740Y-149995802D01*
X140624740Y-149995802D02*
X140672359Y-150019611D01*
X140672359Y-150019611D02*
X140743787Y-150019611D01*
X140743787Y-150019611D02*
X140791406Y-149995802D01*
X140791406Y-149995802D02*
X140815216Y-149971992D01*
X140815216Y-149971992D02*
X140839025Y-149924373D01*
X140839025Y-149924373D02*
X140839025Y-149781516D01*
X140839025Y-149781516D02*
X140815216Y-149733897D01*
X140815216Y-149733897D02*
X140791406Y-149710088D01*
X140791406Y-149710088D02*
X140743787Y-149686278D01*
X140743787Y-149686278D02*
X140672359Y-149686278D01*
X141005692Y-150019611D02*
X141124740Y-149686278D01*
X141243787Y-150019611D02*
X141124740Y-149686278D01*
X141124740Y-149686278D02*
X141077121Y-149567230D01*
X141077121Y-149567230D02*
X141053311Y-149543421D01*
X141053311Y-149543421D02*
X141005692Y-149519611D01*
X138374740Y-149381306D02*
X138374740Y-149024163D01*
X138374740Y-149024163D02*
X138350931Y-148952735D01*
X138350931Y-148952735D02*
X138303312Y-148905116D01*
X138303312Y-148905116D02*
X138231883Y-148881306D01*
X138231883Y-148881306D02*
X138184264Y-148881306D01*
X138779502Y-149143211D02*
X138612835Y-149143211D01*
X138612835Y-148881306D02*
X138612835Y-149381306D01*
X138612835Y-149381306D02*
X138850930Y-149381306D01*
X139208073Y-149143211D02*
X139279501Y-149119401D01*
X139279501Y-149119401D02*
X139303311Y-149095592D01*
X139303311Y-149095592D02*
X139327120Y-149047973D01*
X139327120Y-149047973D02*
X139327120Y-148976544D01*
X139327120Y-148976544D02*
X139303311Y-148928925D01*
X139303311Y-148928925D02*
X139279501Y-148905116D01*
X139279501Y-148905116D02*
X139231882Y-148881306D01*
X139231882Y-148881306D02*
X139041406Y-148881306D01*
X139041406Y-148881306D02*
X139041406Y-149381306D01*
X139041406Y-149381306D02*
X139208073Y-149381306D01*
X139208073Y-149381306D02*
X139255692Y-149357496D01*
X139255692Y-149357496D02*
X139279501Y-149333687D01*
X139279501Y-149333687D02*
X139303311Y-149286068D01*
X139303311Y-149286068D02*
X139303311Y-149238449D01*
X139303311Y-149238449D02*
X139279501Y-149190830D01*
X139279501Y-149190830D02*
X139255692Y-149167020D01*
X139255692Y-149167020D02*
X139208073Y-149143211D01*
X139208073Y-149143211D02*
X139041406Y-149143211D01*
X139922358Y-148881306D02*
X139922358Y-149381306D01*
X139922358Y-149381306D02*
X140112834Y-149381306D01*
X140112834Y-149381306D02*
X140160453Y-149357496D01*
X140160453Y-149357496D02*
X140184263Y-149333687D01*
X140184263Y-149333687D02*
X140208072Y-149286068D01*
X140208072Y-149286068D02*
X140208072Y-149214639D01*
X140208072Y-149214639D02*
X140184263Y-149167020D01*
X140184263Y-149167020D02*
X140160453Y-149143211D01*
X140160453Y-149143211D02*
X140112834Y-149119401D01*
X140112834Y-149119401D02*
X139922358Y-149119401D01*
X140422358Y-148928925D02*
X140446168Y-148905116D01*
X140446168Y-148905116D02*
X140422358Y-148881306D01*
X140422358Y-148881306D02*
X140398549Y-148905116D01*
X140398549Y-148905116D02*
X140422358Y-148928925D01*
X140422358Y-148928925D02*
X140422358Y-148881306D01*
X140660453Y-149143211D02*
X140827120Y-149143211D01*
X140898548Y-148881306D02*
X140660453Y-148881306D01*
X140660453Y-148881306D02*
X140660453Y-149381306D01*
X140660453Y-149381306D02*
X140898548Y-149381306D01*
X141112834Y-149214639D02*
X141112834Y-148881306D01*
X141112834Y-149167020D02*
X141136644Y-149190830D01*
X141136644Y-149190830D02*
X141184263Y-149214639D01*
X141184263Y-149214639D02*
X141255691Y-149214639D01*
X141255691Y-149214639D02*
X141303310Y-149190830D01*
X141303310Y-149190830D02*
X141327120Y-149143211D01*
X141327120Y-149143211D02*
X141327120Y-148881306D01*
X141779501Y-149214639D02*
X141779501Y-148809877D01*
X141779501Y-148809877D02*
X141755691Y-148762258D01*
X141755691Y-148762258D02*
X141731882Y-148738449D01*
X141731882Y-148738449D02*
X141684263Y-148714639D01*
X141684263Y-148714639D02*
X141612834Y-148714639D01*
X141612834Y-148714639D02*
X141565215Y-148738449D01*
X141779501Y-148905116D02*
X141731882Y-148881306D01*
X141731882Y-148881306D02*
X141636644Y-148881306D01*
X141636644Y-148881306D02*
X141589025Y-148905116D01*
X141589025Y-148905116D02*
X141565215Y-148928925D01*
X141565215Y-148928925D02*
X141541406Y-148976544D01*
X141541406Y-148976544D02*
X141541406Y-149119401D01*
X141541406Y-149119401D02*
X141565215Y-149167020D01*
X141565215Y-149167020D02*
X141589025Y-149190830D01*
X141589025Y-149190830D02*
X141636644Y-149214639D01*
X141636644Y-149214639D02*
X141731882Y-149214639D01*
X141731882Y-149214639D02*
X141779501Y-149190830D01*
X138362836Y-148528715D02*
X138386645Y-148552524D01*
X138386645Y-148552524D02*
X138434264Y-148576334D01*
X138434264Y-148576334D02*
X138553312Y-148576334D01*
X138553312Y-148576334D02*
X138600931Y-148552524D01*
X138600931Y-148552524D02*
X138624740Y-148528715D01*
X138624740Y-148528715D02*
X138648550Y-148481096D01*
X138648550Y-148481096D02*
X138648550Y-148433477D01*
X138648550Y-148433477D02*
X138624740Y-148362048D01*
X138624740Y-148362048D02*
X138339026Y-148076334D01*
X138339026Y-148076334D02*
X138648550Y-148076334D01*
X138958073Y-148576334D02*
X139005692Y-148576334D01*
X139005692Y-148576334D02*
X139053311Y-148552524D01*
X139053311Y-148552524D02*
X139077121Y-148528715D01*
X139077121Y-148528715D02*
X139100930Y-148481096D01*
X139100930Y-148481096D02*
X139124740Y-148385858D01*
X139124740Y-148385858D02*
X139124740Y-148266810D01*
X139124740Y-148266810D02*
X139100930Y-148171572D01*
X139100930Y-148171572D02*
X139077121Y-148123953D01*
X139077121Y-148123953D02*
X139053311Y-148100144D01*
X139053311Y-148100144D02*
X139005692Y-148076334D01*
X139005692Y-148076334D02*
X138958073Y-148076334D01*
X138958073Y-148076334D02*
X138910454Y-148100144D01*
X138910454Y-148100144D02*
X138886645Y-148123953D01*
X138886645Y-148123953D02*
X138862835Y-148171572D01*
X138862835Y-148171572D02*
X138839026Y-148266810D01*
X138839026Y-148266810D02*
X138839026Y-148385858D01*
X138839026Y-148385858D02*
X138862835Y-148481096D01*
X138862835Y-148481096D02*
X138886645Y-148528715D01*
X138886645Y-148528715D02*
X138910454Y-148552524D01*
X138910454Y-148552524D02*
X138958073Y-148576334D01*
X139315216Y-148528715D02*
X139339025Y-148552524D01*
X139339025Y-148552524D02*
X139386644Y-148576334D01*
X139386644Y-148576334D02*
X139505692Y-148576334D01*
X139505692Y-148576334D02*
X139553311Y-148552524D01*
X139553311Y-148552524D02*
X139577120Y-148528715D01*
X139577120Y-148528715D02*
X139600930Y-148481096D01*
X139600930Y-148481096D02*
X139600930Y-148433477D01*
X139600930Y-148433477D02*
X139577120Y-148362048D01*
X139577120Y-148362048D02*
X139291406Y-148076334D01*
X139291406Y-148076334D02*
X139600930Y-148076334D01*
X140029501Y-148576334D02*
X139934263Y-148576334D01*
X139934263Y-148576334D02*
X139886644Y-148552524D01*
X139886644Y-148552524D02*
X139862834Y-148528715D01*
X139862834Y-148528715D02*
X139815215Y-148457286D01*
X139815215Y-148457286D02*
X139791406Y-148362048D01*
X139791406Y-148362048D02*
X139791406Y-148171572D01*
X139791406Y-148171572D02*
X139815215Y-148123953D01*
X139815215Y-148123953D02*
X139839025Y-148100144D01*
X139839025Y-148100144D02*
X139886644Y-148076334D01*
X139886644Y-148076334D02*
X139981882Y-148076334D01*
X139981882Y-148076334D02*
X140029501Y-148100144D01*
X140029501Y-148100144D02*
X140053310Y-148123953D01*
X140053310Y-148123953D02*
X140077120Y-148171572D01*
X140077120Y-148171572D02*
X140077120Y-148290620D01*
X140077120Y-148290620D02*
X140053310Y-148338239D01*
X140053310Y-148338239D02*
X140029501Y-148362048D01*
X140029501Y-148362048D02*
X139981882Y-148385858D01*
X139981882Y-148385858D02*
X139886644Y-148385858D01*
X139886644Y-148385858D02*
X139839025Y-148362048D01*
X139839025Y-148362048D02*
X139815215Y-148338239D01*
X139815215Y-148338239D02*
X139791406Y-148290620D01*
X140291405Y-148266810D02*
X140672358Y-148266810D01*
X141005691Y-148576334D02*
X141053310Y-148576334D01*
X141053310Y-148576334D02*
X141100929Y-148552524D01*
X141100929Y-148552524D02*
X141124739Y-148528715D01*
X141124739Y-148528715D02*
X141148548Y-148481096D01*
X141148548Y-148481096D02*
X141172358Y-148385858D01*
X141172358Y-148385858D02*
X141172358Y-148266810D01*
X141172358Y-148266810D02*
X141148548Y-148171572D01*
X141148548Y-148171572D02*
X141124739Y-148123953D01*
X141124739Y-148123953D02*
X141100929Y-148100144D01*
X141100929Y-148100144D02*
X141053310Y-148076334D01*
X141053310Y-148076334D02*
X141005691Y-148076334D01*
X141005691Y-148076334D02*
X140958072Y-148100144D01*
X140958072Y-148100144D02*
X140934263Y-148123953D01*
X140934263Y-148123953D02*
X140910453Y-148171572D01*
X140910453Y-148171572D02*
X140886644Y-148266810D01*
X140886644Y-148266810D02*
X140886644Y-148385858D01*
X140886644Y-148385858D02*
X140910453Y-148481096D01*
X140910453Y-148481096D02*
X140934263Y-148528715D01*
X140934263Y-148528715D02*
X140958072Y-148552524D01*
X140958072Y-148552524D02*
X141005691Y-148576334D01*
X141410453Y-148076334D02*
X141505691Y-148076334D01*
X141505691Y-148076334D02*
X141553310Y-148100144D01*
X141553310Y-148100144D02*
X141577119Y-148123953D01*
X141577119Y-148123953D02*
X141624738Y-148195382D01*
X141624738Y-148195382D02*
X141648548Y-148290620D01*
X141648548Y-148290620D02*
X141648548Y-148481096D01*
X141648548Y-148481096D02*
X141624738Y-148528715D01*
X141624738Y-148528715D02*
X141600929Y-148552524D01*
X141600929Y-148552524D02*
X141553310Y-148576334D01*
X141553310Y-148576334D02*
X141458072Y-148576334D01*
X141458072Y-148576334D02*
X141410453Y-148552524D01*
X141410453Y-148552524D02*
X141386643Y-148528715D01*
X141386643Y-148528715D02*
X141362834Y-148481096D01*
X141362834Y-148481096D02*
X141362834Y-148362048D01*
X141362834Y-148362048D02*
X141386643Y-148314429D01*
X141386643Y-148314429D02*
X141410453Y-148290620D01*
X141410453Y-148290620D02*
X141458072Y-148266810D01*
X141458072Y-148266810D02*
X141553310Y-148266810D01*
X141553310Y-148266810D02*
X141600929Y-148290620D01*
X141600929Y-148290620D02*
X141624738Y-148314429D01*
X141624738Y-148314429D02*
X141648548Y-148362048D01*
X137303312Y-147271362D02*
X137303312Y-147771362D01*
X137303312Y-147771362D02*
X137493788Y-147771362D01*
X137493788Y-147771362D02*
X137541407Y-147747552D01*
X137541407Y-147747552D02*
X137565217Y-147723743D01*
X137565217Y-147723743D02*
X137589026Y-147676124D01*
X137589026Y-147676124D02*
X137589026Y-147604695D01*
X137589026Y-147604695D02*
X137565217Y-147557076D01*
X137565217Y-147557076D02*
X137541407Y-147533267D01*
X137541407Y-147533267D02*
X137493788Y-147509457D01*
X137493788Y-147509457D02*
X137303312Y-147509457D01*
X138089026Y-147318981D02*
X138065217Y-147295172D01*
X138065217Y-147295172D02*
X137993788Y-147271362D01*
X137993788Y-147271362D02*
X137946169Y-147271362D01*
X137946169Y-147271362D02*
X137874741Y-147295172D01*
X137874741Y-147295172D02*
X137827122Y-147342791D01*
X137827122Y-147342791D02*
X137803312Y-147390410D01*
X137803312Y-147390410D02*
X137779503Y-147485648D01*
X137779503Y-147485648D02*
X137779503Y-147557076D01*
X137779503Y-147557076D02*
X137803312Y-147652314D01*
X137803312Y-147652314D02*
X137827122Y-147699933D01*
X137827122Y-147699933D02*
X137874741Y-147747552D01*
X137874741Y-147747552D02*
X137946169Y-147771362D01*
X137946169Y-147771362D02*
X137993788Y-147771362D01*
X137993788Y-147771362D02*
X138065217Y-147747552D01*
X138065217Y-147747552D02*
X138089026Y-147723743D01*
X138469979Y-147533267D02*
X138541407Y-147509457D01*
X138541407Y-147509457D02*
X138565217Y-147485648D01*
X138565217Y-147485648D02*
X138589026Y-147438029D01*
X138589026Y-147438029D02*
X138589026Y-147366600D01*
X138589026Y-147366600D02*
X138565217Y-147318981D01*
X138565217Y-147318981D02*
X138541407Y-147295172D01*
X138541407Y-147295172D02*
X138493788Y-147271362D01*
X138493788Y-147271362D02*
X138303312Y-147271362D01*
X138303312Y-147271362D02*
X138303312Y-147771362D01*
X138303312Y-147771362D02*
X138469979Y-147771362D01*
X138469979Y-147771362D02*
X138517598Y-147747552D01*
X138517598Y-147747552D02*
X138541407Y-147723743D01*
X138541407Y-147723743D02*
X138565217Y-147676124D01*
X138565217Y-147676124D02*
X138565217Y-147628505D01*
X138565217Y-147628505D02*
X138541407Y-147580886D01*
X138541407Y-147580886D02*
X138517598Y-147557076D01*
X138517598Y-147557076D02*
X138469979Y-147533267D01*
X138469979Y-147533267D02*
X138303312Y-147533267D01*
X139112836Y-147771362D02*
X139279502Y-147271362D01*
X139279502Y-147271362D02*
X139446169Y-147771362D01*
X139874740Y-147271362D02*
X139589026Y-147271362D01*
X139731883Y-147271362D02*
X139731883Y-147771362D01*
X139731883Y-147771362D02*
X139684264Y-147699933D01*
X139684264Y-147699933D02*
X139636645Y-147652314D01*
X139636645Y-147652314D02*
X139589026Y-147628505D01*
X139969978Y-147223743D02*
X140350930Y-147223743D01*
X140565215Y-147771362D02*
X140612834Y-147771362D01*
X140612834Y-147771362D02*
X140660453Y-147747552D01*
X140660453Y-147747552D02*
X140684263Y-147723743D01*
X140684263Y-147723743D02*
X140708072Y-147676124D01*
X140708072Y-147676124D02*
X140731882Y-147580886D01*
X140731882Y-147580886D02*
X140731882Y-147461838D01*
X140731882Y-147461838D02*
X140708072Y-147366600D01*
X140708072Y-147366600D02*
X140684263Y-147318981D01*
X140684263Y-147318981D02*
X140660453Y-147295172D01*
X140660453Y-147295172D02*
X140612834Y-147271362D01*
X140612834Y-147271362D02*
X140565215Y-147271362D01*
X140565215Y-147271362D02*
X140517596Y-147295172D01*
X140517596Y-147295172D02*
X140493787Y-147318981D01*
X140493787Y-147318981D02*
X140469977Y-147366600D01*
X140469977Y-147366600D02*
X140446168Y-147461838D01*
X140446168Y-147461838D02*
X140446168Y-147580886D01*
X140446168Y-147580886D02*
X140469977Y-147676124D01*
X140469977Y-147676124D02*
X140493787Y-147723743D01*
X140493787Y-147723743D02*
X140517596Y-147747552D01*
X140517596Y-147747552D02*
X140565215Y-147771362D01*
X141041405Y-147771362D02*
X141089024Y-147771362D01*
X141089024Y-147771362D02*
X141136643Y-147747552D01*
X141136643Y-147747552D02*
X141160453Y-147723743D01*
X141160453Y-147723743D02*
X141184262Y-147676124D01*
X141184262Y-147676124D02*
X141208072Y-147580886D01*
X141208072Y-147580886D02*
X141208072Y-147461838D01*
X141208072Y-147461838D02*
X141184262Y-147366600D01*
X141184262Y-147366600D02*
X141160453Y-147318981D01*
X141160453Y-147318981D02*
X141136643Y-147295172D01*
X141136643Y-147295172D02*
X141089024Y-147271362D01*
X141089024Y-147271362D02*
X141041405Y-147271362D01*
X141041405Y-147271362D02*
X140993786Y-147295172D01*
X140993786Y-147295172D02*
X140969977Y-147318981D01*
X140969977Y-147318981D02*
X140946167Y-147366600D01*
X140946167Y-147366600D02*
X140922358Y-147461838D01*
X140922358Y-147461838D02*
X140922358Y-147580886D01*
X140922358Y-147580886D02*
X140946167Y-147676124D01*
X140946167Y-147676124D02*
X140969977Y-147723743D01*
X140969977Y-147723743D02*
X140993786Y-147747552D01*
X140993786Y-147747552D02*
X141041405Y-147771362D01*
X141422357Y-147461838D02*
X141803310Y-147461838D01*
X142136643Y-147771362D02*
X142184262Y-147771362D01*
X142184262Y-147771362D02*
X142231881Y-147747552D01*
X142231881Y-147747552D02*
X142255691Y-147723743D01*
X142255691Y-147723743D02*
X142279500Y-147676124D01*
X142279500Y-147676124D02*
X142303310Y-147580886D01*
X142303310Y-147580886D02*
X142303310Y-147461838D01*
X142303310Y-147461838D02*
X142279500Y-147366600D01*
X142279500Y-147366600D02*
X142255691Y-147318981D01*
X142255691Y-147318981D02*
X142231881Y-147295172D01*
X142231881Y-147295172D02*
X142184262Y-147271362D01*
X142184262Y-147271362D02*
X142136643Y-147271362D01*
X142136643Y-147271362D02*
X142089024Y-147295172D01*
X142089024Y-147295172D02*
X142065215Y-147318981D01*
X142065215Y-147318981D02*
X142041405Y-147366600D01*
X142041405Y-147366600D02*
X142017596Y-147461838D01*
X142017596Y-147461838D02*
X142017596Y-147580886D01*
X142017596Y-147580886D02*
X142041405Y-147676124D01*
X142041405Y-147676124D02*
X142065215Y-147723743D01*
X142065215Y-147723743D02*
X142089024Y-147747552D01*
X142089024Y-147747552D02*
X142136643Y-147771362D01*
X142493786Y-147414219D02*
X142731881Y-147414219D01*
X142446167Y-147271362D02*
X142612833Y-147771362D01*
X142612833Y-147771362D02*
X142779500Y-147271362D01*
X136362836Y-146466390D02*
X136362836Y-146966390D01*
X136362836Y-146966390D02*
X136481884Y-146966390D01*
X136481884Y-146966390D02*
X136553312Y-146942580D01*
X136553312Y-146942580D02*
X136600931Y-146894961D01*
X136600931Y-146894961D02*
X136624741Y-146847342D01*
X136624741Y-146847342D02*
X136648550Y-146752104D01*
X136648550Y-146752104D02*
X136648550Y-146680676D01*
X136648550Y-146680676D02*
X136624741Y-146585438D01*
X136624741Y-146585438D02*
X136600931Y-146537819D01*
X136600931Y-146537819D02*
X136553312Y-146490200D01*
X136553312Y-146490200D02*
X136481884Y-146466390D01*
X136481884Y-146466390D02*
X136362836Y-146466390D01*
X137053312Y-146490200D02*
X137005693Y-146466390D01*
X137005693Y-146466390D02*
X136910455Y-146466390D01*
X136910455Y-146466390D02*
X136862836Y-146490200D01*
X136862836Y-146490200D02*
X136839027Y-146537819D01*
X136839027Y-146537819D02*
X136839027Y-146728295D01*
X136839027Y-146728295D02*
X136862836Y-146775914D01*
X136862836Y-146775914D02*
X136910455Y-146799723D01*
X136910455Y-146799723D02*
X137005693Y-146799723D01*
X137005693Y-146799723D02*
X137053312Y-146775914D01*
X137053312Y-146775914D02*
X137077122Y-146728295D01*
X137077122Y-146728295D02*
X137077122Y-146680676D01*
X137077122Y-146680676D02*
X136839027Y-146633057D01*
X137267598Y-146490200D02*
X137315217Y-146466390D01*
X137315217Y-146466390D02*
X137410455Y-146466390D01*
X137410455Y-146466390D02*
X137458074Y-146490200D01*
X137458074Y-146490200D02*
X137481883Y-146537819D01*
X137481883Y-146537819D02*
X137481883Y-146561628D01*
X137481883Y-146561628D02*
X137458074Y-146609247D01*
X137458074Y-146609247D02*
X137410455Y-146633057D01*
X137410455Y-146633057D02*
X137339026Y-146633057D01*
X137339026Y-146633057D02*
X137291407Y-146656866D01*
X137291407Y-146656866D02*
X137267598Y-146704485D01*
X137267598Y-146704485D02*
X137267598Y-146728295D01*
X137267598Y-146728295D02*
X137291407Y-146775914D01*
X137291407Y-146775914D02*
X137339026Y-146799723D01*
X137339026Y-146799723D02*
X137410455Y-146799723D01*
X137410455Y-146799723D02*
X137458074Y-146775914D01*
X137696169Y-146466390D02*
X137696169Y-146799723D01*
X137696169Y-146966390D02*
X137672360Y-146942580D01*
X137672360Y-146942580D02*
X137696169Y-146918771D01*
X137696169Y-146918771D02*
X137719979Y-146942580D01*
X137719979Y-146942580D02*
X137696169Y-146966390D01*
X137696169Y-146966390D02*
X137696169Y-146918771D01*
X138148550Y-146799723D02*
X138148550Y-146394961D01*
X138148550Y-146394961D02*
X138124740Y-146347342D01*
X138124740Y-146347342D02*
X138100931Y-146323533D01*
X138100931Y-146323533D02*
X138053312Y-146299723D01*
X138053312Y-146299723D02*
X137981883Y-146299723D01*
X137981883Y-146299723D02*
X137934264Y-146323533D01*
X138148550Y-146490200D02*
X138100931Y-146466390D01*
X138100931Y-146466390D02*
X138005693Y-146466390D01*
X138005693Y-146466390D02*
X137958074Y-146490200D01*
X137958074Y-146490200D02*
X137934264Y-146514009D01*
X137934264Y-146514009D02*
X137910455Y-146561628D01*
X137910455Y-146561628D02*
X137910455Y-146704485D01*
X137910455Y-146704485D02*
X137934264Y-146752104D01*
X137934264Y-146752104D02*
X137958074Y-146775914D01*
X137958074Y-146775914D02*
X138005693Y-146799723D01*
X138005693Y-146799723D02*
X138100931Y-146799723D01*
X138100931Y-146799723D02*
X138148550Y-146775914D01*
X138386645Y-146799723D02*
X138386645Y-146466390D01*
X138386645Y-146752104D02*
X138410455Y-146775914D01*
X138410455Y-146775914D02*
X138458074Y-146799723D01*
X138458074Y-146799723D02*
X138529502Y-146799723D01*
X138529502Y-146799723D02*
X138577121Y-146775914D01*
X138577121Y-146775914D02*
X138600931Y-146728295D01*
X138600931Y-146728295D02*
X138600931Y-146466390D01*
X139029502Y-146490200D02*
X138981883Y-146466390D01*
X138981883Y-146466390D02*
X138886645Y-146466390D01*
X138886645Y-146466390D02*
X138839026Y-146490200D01*
X138839026Y-146490200D02*
X138815217Y-146537819D01*
X138815217Y-146537819D02*
X138815217Y-146728295D01*
X138815217Y-146728295D02*
X138839026Y-146775914D01*
X138839026Y-146775914D02*
X138886645Y-146799723D01*
X138886645Y-146799723D02*
X138981883Y-146799723D01*
X138981883Y-146799723D02*
X139029502Y-146775914D01*
X139029502Y-146775914D02*
X139053312Y-146728295D01*
X139053312Y-146728295D02*
X139053312Y-146680676D01*
X139053312Y-146680676D02*
X138815217Y-146633057D01*
X139481883Y-146466390D02*
X139481883Y-146966390D01*
X139481883Y-146490200D02*
X139434264Y-146466390D01*
X139434264Y-146466390D02*
X139339026Y-146466390D01*
X139339026Y-146466390D02*
X139291407Y-146490200D01*
X139291407Y-146490200D02*
X139267597Y-146514009D01*
X139267597Y-146514009D02*
X139243788Y-146561628D01*
X139243788Y-146561628D02*
X139243788Y-146704485D01*
X139243788Y-146704485D02*
X139267597Y-146752104D01*
X139267597Y-146752104D02*
X139291407Y-146775914D01*
X139291407Y-146775914D02*
X139339026Y-146799723D01*
X139339026Y-146799723D02*
X139434264Y-146799723D01*
X139434264Y-146799723D02*
X139481883Y-146775914D01*
X140100930Y-146466390D02*
X140100930Y-146799723D01*
X140100930Y-146966390D02*
X140077121Y-146942580D01*
X140077121Y-146942580D02*
X140100930Y-146918771D01*
X140100930Y-146918771D02*
X140124740Y-146942580D01*
X140124740Y-146942580D02*
X140100930Y-146966390D01*
X140100930Y-146966390D02*
X140100930Y-146918771D01*
X140339025Y-146799723D02*
X140339025Y-146466390D01*
X140339025Y-146752104D02*
X140362835Y-146775914D01*
X140362835Y-146775914D02*
X140410454Y-146799723D01*
X140410454Y-146799723D02*
X140481882Y-146799723D01*
X140481882Y-146799723D02*
X140529501Y-146775914D01*
X140529501Y-146775914D02*
X140553311Y-146728295D01*
X140553311Y-146728295D02*
X140553311Y-146466390D01*
X141505691Y-146418771D02*
X141458072Y-146442580D01*
X141458072Y-146442580D02*
X141410453Y-146490200D01*
X141410453Y-146490200D02*
X141339025Y-146561628D01*
X141339025Y-146561628D02*
X141291406Y-146585438D01*
X141291406Y-146585438D02*
X141243787Y-146585438D01*
X141267596Y-146466390D02*
X141219977Y-146490200D01*
X141219977Y-146490200D02*
X141172358Y-146537819D01*
X141172358Y-146537819D02*
X141148549Y-146633057D01*
X141148549Y-146633057D02*
X141148549Y-146799723D01*
X141148549Y-146799723D02*
X141172358Y-146894961D01*
X141172358Y-146894961D02*
X141219977Y-146942580D01*
X141219977Y-146942580D02*
X141267596Y-146966390D01*
X141267596Y-146966390D02*
X141362834Y-146966390D01*
X141362834Y-146966390D02*
X141410453Y-146942580D01*
X141410453Y-146942580D02*
X141458072Y-146894961D01*
X141458072Y-146894961D02*
X141481882Y-146799723D01*
X141481882Y-146799723D02*
X141481882Y-146633057D01*
X141481882Y-146633057D02*
X141458072Y-146537819D01*
X141458072Y-146537819D02*
X141410453Y-146490200D01*
X141410453Y-146490200D02*
X141362834Y-146466390D01*
X141362834Y-146466390D02*
X141267596Y-146466390D01*
X141910454Y-146799723D02*
X141910454Y-146466390D01*
X141696168Y-146799723D02*
X141696168Y-146537819D01*
X141696168Y-146537819D02*
X141719978Y-146490200D01*
X141719978Y-146490200D02*
X141767597Y-146466390D01*
X141767597Y-146466390D02*
X141839025Y-146466390D01*
X141839025Y-146466390D02*
X141886644Y-146490200D01*
X141886644Y-146490200D02*
X141910454Y-146514009D01*
X142339025Y-146490200D02*
X142291406Y-146466390D01*
X142291406Y-146466390D02*
X142196168Y-146466390D01*
X142196168Y-146466390D02*
X142148549Y-146490200D01*
X142148549Y-146490200D02*
X142124740Y-146537819D01*
X142124740Y-146537819D02*
X142124740Y-146728295D01*
X142124740Y-146728295D02*
X142148549Y-146775914D01*
X142148549Y-146775914D02*
X142196168Y-146799723D01*
X142196168Y-146799723D02*
X142291406Y-146799723D01*
X142291406Y-146799723D02*
X142339025Y-146775914D01*
X142339025Y-146775914D02*
X142362835Y-146728295D01*
X142362835Y-146728295D02*
X142362835Y-146680676D01*
X142362835Y-146680676D02*
X142124740Y-146633057D01*
X142577120Y-146466390D02*
X142577120Y-146966390D01*
X142577120Y-146775914D02*
X142624739Y-146799723D01*
X142624739Y-146799723D02*
X142719977Y-146799723D01*
X142719977Y-146799723D02*
X142767596Y-146775914D01*
X142767596Y-146775914D02*
X142791406Y-146752104D01*
X142791406Y-146752104D02*
X142815215Y-146704485D01*
X142815215Y-146704485D02*
X142815215Y-146561628D01*
X142815215Y-146561628D02*
X142791406Y-146514009D01*
X142791406Y-146514009D02*
X142767596Y-146490200D01*
X142767596Y-146490200D02*
X142719977Y-146466390D01*
X142719977Y-146466390D02*
X142624739Y-146466390D01*
X142624739Y-146466390D02*
X142577120Y-146490200D01*
X143219977Y-146490200D02*
X143172358Y-146466390D01*
X143172358Y-146466390D02*
X143077120Y-146466390D01*
X143077120Y-146466390D02*
X143029501Y-146490200D01*
X143029501Y-146490200D02*
X143005692Y-146537819D01*
X143005692Y-146537819D02*
X143005692Y-146728295D01*
X143005692Y-146728295D02*
X143029501Y-146775914D01*
X143029501Y-146775914D02*
X143077120Y-146799723D01*
X143077120Y-146799723D02*
X143172358Y-146799723D01*
X143172358Y-146799723D02*
X143219977Y-146775914D01*
X143219977Y-146775914D02*
X143243787Y-146728295D01*
X143243787Y-146728295D02*
X143243787Y-146680676D01*
X143243787Y-146680676D02*
X143005692Y-146633057D01*
X143672358Y-146490200D02*
X143624739Y-146466390D01*
X143624739Y-146466390D02*
X143529501Y-146466390D01*
X143529501Y-146466390D02*
X143481882Y-146490200D01*
X143481882Y-146490200D02*
X143458072Y-146514009D01*
X143458072Y-146514009D02*
X143434263Y-146561628D01*
X143434263Y-146561628D02*
X143434263Y-146704485D01*
X143434263Y-146704485D02*
X143458072Y-146752104D01*
X143458072Y-146752104D02*
X143481882Y-146775914D01*
X143481882Y-146775914D02*
X143529501Y-146799723D01*
X143529501Y-146799723D02*
X143624739Y-146799723D01*
X143624739Y-146799723D02*
X143672358Y-146775914D01*
X143111460Y-129672419D02*
X143111460Y-128672419D01*
X143111460Y-128672419D02*
X142730508Y-128672419D01*
X142730508Y-128672419D02*
X142635270Y-128720038D01*
X142635270Y-128720038D02*
X142587651Y-128767657D01*
X142587651Y-128767657D02*
X142540032Y-128862895D01*
X142540032Y-128862895D02*
X142540032Y-129005752D01*
X142540032Y-129005752D02*
X142587651Y-129100990D01*
X142587651Y-129100990D02*
X142635270Y-129148609D01*
X142635270Y-129148609D02*
X142730508Y-129196228D01*
X142730508Y-129196228D02*
X143111460Y-129196228D01*
X141540032Y-129672419D02*
X141873365Y-129196228D01*
X142111460Y-129672419D02*
X142111460Y-128672419D01*
X142111460Y-128672419D02*
X141730508Y-128672419D01*
X141730508Y-128672419D02*
X141635270Y-128720038D01*
X141635270Y-128720038D02*
X141587651Y-128767657D01*
X141587651Y-128767657D02*
X141540032Y-128862895D01*
X141540032Y-128862895D02*
X141540032Y-129005752D01*
X141540032Y-129005752D02*
X141587651Y-129100990D01*
X141587651Y-129100990D02*
X141635270Y-129148609D01*
X141635270Y-129148609D02*
X141730508Y-129196228D01*
X141730508Y-129196228D02*
X142111460Y-129196228D01*
X140920984Y-128672419D02*
X140730508Y-128672419D01*
X140730508Y-128672419D02*
X140635270Y-128720038D01*
X140635270Y-128720038D02*
X140540032Y-128815276D01*
X140540032Y-128815276D02*
X140492413Y-129005752D01*
X140492413Y-129005752D02*
X140492413Y-129339085D01*
X140492413Y-129339085D02*
X140540032Y-129529561D01*
X140540032Y-129529561D02*
X140635270Y-129624800D01*
X140635270Y-129624800D02*
X140730508Y-129672419D01*
X140730508Y-129672419D02*
X140920984Y-129672419D01*
X140920984Y-129672419D02*
X141016222Y-129624800D01*
X141016222Y-129624800D02*
X141111460Y-129529561D01*
X141111460Y-129529561D02*
X141159079Y-129339085D01*
X141159079Y-129339085D02*
X141159079Y-129005752D01*
X141159079Y-129005752D02*
X141111460Y-128815276D01*
X141111460Y-128815276D02*
X141016222Y-128720038D01*
X141016222Y-128720038D02*
X140920984Y-128672419D01*
X140063841Y-129672419D02*
X140063841Y-128672419D01*
X140063841Y-128672419D02*
X139825746Y-128672419D01*
X139825746Y-128672419D02*
X139682889Y-128720038D01*
X139682889Y-128720038D02*
X139587651Y-128815276D01*
X139587651Y-128815276D02*
X139540032Y-128910514D01*
X139540032Y-128910514D02*
X139492413Y-129100990D01*
X139492413Y-129100990D02*
X139492413Y-129243847D01*
X139492413Y-129243847D02*
X139540032Y-129434323D01*
X139540032Y-129434323D02*
X139587651Y-129529561D01*
X139587651Y-129529561D02*
X139682889Y-129624800D01*
X139682889Y-129624800D02*
X139825746Y-129672419D01*
X139825746Y-129672419D02*
X140063841Y-129672419D01*
X138301936Y-129672419D02*
X138301936Y-128672419D01*
X137825746Y-129672419D02*
X137825746Y-128672419D01*
X137825746Y-128672419D02*
X137254318Y-129672419D01*
X137254318Y-129672419D02*
X137254318Y-128672419D01*
X136444794Y-129148609D02*
X136778127Y-129148609D01*
X136778127Y-129672419D02*
X136778127Y-128672419D01*
X136778127Y-128672419D02*
X136301937Y-128672419D01*
X135730508Y-128672419D02*
X135540032Y-128672419D01*
X135540032Y-128672419D02*
X135444794Y-128720038D01*
X135444794Y-128720038D02*
X135349556Y-128815276D01*
X135349556Y-128815276D02*
X135301937Y-129005752D01*
X135301937Y-129005752D02*
X135301937Y-129339085D01*
X135301937Y-129339085D02*
X135349556Y-129529561D01*
X135349556Y-129529561D02*
X135444794Y-129624800D01*
X135444794Y-129624800D02*
X135540032Y-129672419D01*
X135540032Y-129672419D02*
X135730508Y-129672419D01*
X135730508Y-129672419D02*
X135825746Y-129624800D01*
X135825746Y-129624800D02*
X135920984Y-129529561D01*
X135920984Y-129529561D02*
X135968603Y-129339085D01*
X135968603Y-129339085D02*
X135968603Y-129005752D01*
X135968603Y-129005752D02*
X135920984Y-128815276D01*
X135920984Y-128815276D02*
X135825746Y-128720038D01*
X135825746Y-128720038D02*
X135730508Y-128672419D01*
X135340216Y-127398683D02*
X135340216Y-128398683D01*
X135340216Y-128398683D02*
X135721168Y-128398683D01*
X135721168Y-128398683D02*
X135816406Y-128351064D01*
X135816406Y-128351064D02*
X135864025Y-128303445D01*
X135864025Y-128303445D02*
X135911644Y-128208207D01*
X135911644Y-128208207D02*
X135911644Y-128065350D01*
X135911644Y-128065350D02*
X135864025Y-127970112D01*
X135864025Y-127970112D02*
X135816406Y-127922493D01*
X135816406Y-127922493D02*
X135721168Y-127874874D01*
X135721168Y-127874874D02*
X135340216Y-127874874D01*
X136911644Y-127398683D02*
X136578311Y-127874874D01*
X136340216Y-127398683D02*
X136340216Y-128398683D01*
X136340216Y-128398683D02*
X136721168Y-128398683D01*
X136721168Y-128398683D02*
X136816406Y-128351064D01*
X136816406Y-128351064D02*
X136864025Y-128303445D01*
X136864025Y-128303445D02*
X136911644Y-128208207D01*
X136911644Y-128208207D02*
X136911644Y-128065350D01*
X136911644Y-128065350D02*
X136864025Y-127970112D01*
X136864025Y-127970112D02*
X136816406Y-127922493D01*
X136816406Y-127922493D02*
X136721168Y-127874874D01*
X136721168Y-127874874D02*
X136340216Y-127874874D01*
X137530692Y-128398683D02*
X137721168Y-128398683D01*
X137721168Y-128398683D02*
X137816406Y-128351064D01*
X137816406Y-128351064D02*
X137911644Y-128255826D01*
X137911644Y-128255826D02*
X137959263Y-128065350D01*
X137959263Y-128065350D02*
X137959263Y-127732017D01*
X137959263Y-127732017D02*
X137911644Y-127541541D01*
X137911644Y-127541541D02*
X137816406Y-127446303D01*
X137816406Y-127446303D02*
X137721168Y-127398683D01*
X137721168Y-127398683D02*
X137530692Y-127398683D01*
X137530692Y-127398683D02*
X137435454Y-127446303D01*
X137435454Y-127446303D02*
X137340216Y-127541541D01*
X137340216Y-127541541D02*
X137292597Y-127732017D01*
X137292597Y-127732017D02*
X137292597Y-128065350D01*
X137292597Y-128065350D02*
X137340216Y-128255826D01*
X137340216Y-128255826D02*
X137435454Y-128351064D01*
X137435454Y-128351064D02*
X137530692Y-128398683D01*
X138387835Y-127398683D02*
X138387835Y-128398683D01*
X138387835Y-128398683D02*
X138625930Y-128398683D01*
X138625930Y-128398683D02*
X138768787Y-128351064D01*
X138768787Y-128351064D02*
X138864025Y-128255826D01*
X138864025Y-128255826D02*
X138911644Y-128160588D01*
X138911644Y-128160588D02*
X138959263Y-127970112D01*
X138959263Y-127970112D02*
X138959263Y-127827255D01*
X138959263Y-127827255D02*
X138911644Y-127636779D01*
X138911644Y-127636779D02*
X138864025Y-127541541D01*
X138864025Y-127541541D02*
X138768787Y-127446303D01*
X138768787Y-127446303D02*
X138625930Y-127398683D01*
X138625930Y-127398683D02*
X138387835Y-127398683D01*
X140149740Y-127398683D02*
X140149740Y-128398683D01*
X140625930Y-127398683D02*
X140625930Y-128398683D01*
X140625930Y-128398683D02*
X141197358Y-127398683D01*
X141197358Y-127398683D02*
X141197358Y-128398683D01*
X142006882Y-127922493D02*
X141673549Y-127922493D01*
X141673549Y-127398683D02*
X141673549Y-128398683D01*
X141673549Y-128398683D02*
X142149739Y-128398683D01*
X142721168Y-128398683D02*
X142911644Y-128398683D01*
X142911644Y-128398683D02*
X143006882Y-128351064D01*
X143006882Y-128351064D02*
X143102120Y-128255826D01*
X143102120Y-128255826D02*
X143149739Y-128065350D01*
X143149739Y-128065350D02*
X143149739Y-127732017D01*
X143149739Y-127732017D02*
X143102120Y-127541541D01*
X143102120Y-127541541D02*
X143006882Y-127446303D01*
X143006882Y-127446303D02*
X142911644Y-127398683D01*
X142911644Y-127398683D02*
X142721168Y-127398683D01*
X142721168Y-127398683D02*
X142625930Y-127446303D01*
X142625930Y-127446303D02*
X142530692Y-127541541D01*
X142530692Y-127541541D02*
X142483073Y-127732017D01*
X142483073Y-127732017D02*
X142483073Y-128065350D01*
X142483073Y-128065350D02*
X142530692Y-128255826D01*
X142530692Y-128255826D02*
X142625930Y-128351064D01*
X142625930Y-128351064D02*
X142721168Y-128398683D01*
X147573890Y-128769047D02*
X148073890Y-128769047D01*
X148073890Y-128769047D02*
X148073890Y-128649999D01*
X148073890Y-128649999D02*
X148050080Y-128578571D01*
X148050080Y-128578571D02*
X148002461Y-128530952D01*
X148002461Y-128530952D02*
X147954842Y-128507142D01*
X147954842Y-128507142D02*
X147859604Y-128483333D01*
X147859604Y-128483333D02*
X147788176Y-128483333D01*
X147788176Y-128483333D02*
X147692938Y-128507142D01*
X147692938Y-128507142D02*
X147645319Y-128530952D01*
X147645319Y-128530952D02*
X147597700Y-128578571D01*
X147597700Y-128578571D02*
X147573890Y-128649999D01*
X147573890Y-128649999D02*
X147573890Y-128769047D01*
X147573890Y-128007142D02*
X147573890Y-128292856D01*
X147573890Y-128149999D02*
X148073890Y-128149999D01*
X148073890Y-128149999D02*
X148002461Y-128197618D01*
X148002461Y-128197618D02*
X147954842Y-128245237D01*
X147954842Y-128245237D02*
X147931033Y-128292856D01*
X133273890Y-121671428D02*
X133773890Y-121671428D01*
X133535795Y-121671428D02*
X133535795Y-121385714D01*
X133273890Y-121385714D02*
X133773890Y-121385714D01*
X133773890Y-121052380D02*
X133773890Y-120957142D01*
X133773890Y-120957142D02*
X133750080Y-120909523D01*
X133750080Y-120909523D02*
X133702461Y-120861904D01*
X133702461Y-120861904D02*
X133607223Y-120838094D01*
X133607223Y-120838094D02*
X133440557Y-120838094D01*
X133440557Y-120838094D02*
X133345319Y-120861904D01*
X133345319Y-120861904D02*
X133297700Y-120909523D01*
X133297700Y-120909523D02*
X133273890Y-120957142D01*
X133273890Y-120957142D02*
X133273890Y-121052380D01*
X133273890Y-121052380D02*
X133297700Y-121099999D01*
X133297700Y-121099999D02*
X133345319Y-121147618D01*
X133345319Y-121147618D02*
X133440557Y-121171427D01*
X133440557Y-121171427D02*
X133607223Y-121171427D01*
X133607223Y-121171427D02*
X133702461Y-121147618D01*
X133702461Y-121147618D02*
X133750080Y-121099999D01*
X133750080Y-121099999D02*
X133773890Y-121052380D01*
X133273890Y-120385713D02*
X133273890Y-120623808D01*
X133273890Y-120623808D02*
X133773890Y-120623808D01*
X133535795Y-120219046D02*
X133535795Y-120052379D01*
X133273890Y-119980951D02*
X133273890Y-120219046D01*
X133273890Y-120219046D02*
X133773890Y-120219046D01*
X133773890Y-120219046D02*
X133773890Y-119980951D01*
X133607223Y-119552379D02*
X133273890Y-119552379D01*
X133797700Y-119671427D02*
X133440557Y-119790474D01*
X133440557Y-119790474D02*
X133440557Y-119480951D01*
X143185713Y-141939204D02*
X143352380Y-141939204D01*
X143352380Y-142201109D02*
X143352380Y-141701109D01*
X143352380Y-141701109D02*
X143114285Y-141701109D01*
X142923809Y-142201109D02*
X142923809Y-141701109D01*
X142685714Y-142201109D02*
X142685714Y-141701109D01*
X142685714Y-141701109D02*
X142566666Y-141701109D01*
X142566666Y-141701109D02*
X142495238Y-141724919D01*
X142495238Y-141724919D02*
X142447619Y-141772538D01*
X142447619Y-141772538D02*
X142423809Y-141820157D01*
X142423809Y-141820157D02*
X142400000Y-141915395D01*
X142400000Y-141915395D02*
X142400000Y-141986823D01*
X142400000Y-141986823D02*
X142423809Y-142082061D01*
X142423809Y-142082061D02*
X142447619Y-142129680D01*
X142447619Y-142129680D02*
X142495238Y-142177300D01*
X142495238Y-142177300D02*
X142566666Y-142201109D01*
X142566666Y-142201109D02*
X142685714Y-142201109D01*
X141971428Y-141701109D02*
X142066666Y-141701109D01*
X142066666Y-141701109D02*
X142114285Y-141724919D01*
X142114285Y-141724919D02*
X142138095Y-141748728D01*
X142138095Y-141748728D02*
X142185714Y-141820157D01*
X142185714Y-141820157D02*
X142209523Y-141915395D01*
X142209523Y-141915395D02*
X142209523Y-142105871D01*
X142209523Y-142105871D02*
X142185714Y-142153490D01*
X142185714Y-142153490D02*
X142161904Y-142177300D01*
X142161904Y-142177300D02*
X142114285Y-142201109D01*
X142114285Y-142201109D02*
X142019047Y-142201109D01*
X142019047Y-142201109D02*
X141971428Y-142177300D01*
X141971428Y-142177300D02*
X141947619Y-142153490D01*
X141947619Y-142153490D02*
X141923809Y-142105871D01*
X141923809Y-142105871D02*
X141923809Y-141986823D01*
X141923809Y-141986823D02*
X141947619Y-141939204D01*
X141947619Y-141939204D02*
X141971428Y-141915395D01*
X141971428Y-141915395D02*
X142019047Y-141891585D01*
X142019047Y-141891585D02*
X142114285Y-141891585D01*
X142114285Y-141891585D02*
X142161904Y-141915395D01*
X142161904Y-141915395D02*
X142185714Y-141939204D01*
X142185714Y-141939204D02*
X142209523Y-141986823D01*
X151358333Y-129478490D02*
X151382142Y-129502300D01*
X151382142Y-129502300D02*
X151453571Y-129526109D01*
X151453571Y-129526109D02*
X151501190Y-129526109D01*
X151501190Y-129526109D02*
X151572618Y-129502300D01*
X151572618Y-129502300D02*
X151620237Y-129454680D01*
X151620237Y-129454680D02*
X151644047Y-129407061D01*
X151644047Y-129407061D02*
X151667856Y-129311823D01*
X151667856Y-129311823D02*
X151667856Y-129240395D01*
X151667856Y-129240395D02*
X151644047Y-129145157D01*
X151644047Y-129145157D02*
X151620237Y-129097538D01*
X151620237Y-129097538D02*
X151572618Y-129049919D01*
X151572618Y-129049919D02*
X151501190Y-129026109D01*
X151501190Y-129026109D02*
X151453571Y-129026109D01*
X151453571Y-129026109D02*
X151382142Y-129049919D01*
X151382142Y-129049919D02*
X151358333Y-129073728D01*
X150882142Y-129526109D02*
X151167856Y-129526109D01*
X151024999Y-129526109D02*
X151024999Y-129026109D01*
X151024999Y-129026109D02*
X151072618Y-129097538D01*
X151072618Y-129097538D02*
X151120237Y-129145157D01*
X151120237Y-129145157D02*
X151167856Y-129168966D01*
X120297700Y-108005951D02*
X120273890Y-107934523D01*
X120273890Y-107934523D02*
X120273890Y-107815475D01*
X120273890Y-107815475D02*
X120297700Y-107767856D01*
X120297700Y-107767856D02*
X120321509Y-107744047D01*
X120321509Y-107744047D02*
X120369128Y-107720237D01*
X120369128Y-107720237D02*
X120416747Y-107720237D01*
X120416747Y-107720237D02*
X120464366Y-107744047D01*
X120464366Y-107744047D02*
X120488176Y-107767856D01*
X120488176Y-107767856D02*
X120511985Y-107815475D01*
X120511985Y-107815475D02*
X120535795Y-107910713D01*
X120535795Y-107910713D02*
X120559604Y-107958332D01*
X120559604Y-107958332D02*
X120583414Y-107982142D01*
X120583414Y-107982142D02*
X120631033Y-108005951D01*
X120631033Y-108005951D02*
X120678652Y-108005951D01*
X120678652Y-108005951D02*
X120726271Y-107982142D01*
X120726271Y-107982142D02*
X120750080Y-107958332D01*
X120750080Y-107958332D02*
X120773890Y-107910713D01*
X120773890Y-107910713D02*
X120773890Y-107791666D01*
X120773890Y-107791666D02*
X120750080Y-107720237D01*
X120773890Y-107553571D02*
X120773890Y-107220238D01*
X120773890Y-107220238D02*
X120273890Y-107434523D01*
X148810713Y-103864204D02*
X148977380Y-103864204D01*
X148977380Y-104126109D02*
X148977380Y-103626109D01*
X148977380Y-103626109D02*
X148739285Y-103626109D01*
X148548809Y-104126109D02*
X148548809Y-103626109D01*
X148310714Y-104126109D02*
X148310714Y-103626109D01*
X148310714Y-103626109D02*
X148191666Y-103626109D01*
X148191666Y-103626109D02*
X148120238Y-103649919D01*
X148120238Y-103649919D02*
X148072619Y-103697538D01*
X148072619Y-103697538D02*
X148048809Y-103745157D01*
X148048809Y-103745157D02*
X148025000Y-103840395D01*
X148025000Y-103840395D02*
X148025000Y-103911823D01*
X148025000Y-103911823D02*
X148048809Y-104007061D01*
X148048809Y-104007061D02*
X148072619Y-104054680D01*
X148072619Y-104054680D02*
X148120238Y-104102300D01*
X148120238Y-104102300D02*
X148191666Y-104126109D01*
X148191666Y-104126109D02*
X148310714Y-104126109D01*
X147834523Y-103673728D02*
X147810714Y-103649919D01*
X147810714Y-103649919D02*
X147763095Y-103626109D01*
X147763095Y-103626109D02*
X147644047Y-103626109D01*
X147644047Y-103626109D02*
X147596428Y-103649919D01*
X147596428Y-103649919D02*
X147572619Y-103673728D01*
X147572619Y-103673728D02*
X147548809Y-103721347D01*
X147548809Y-103721347D02*
X147548809Y-103768966D01*
X147548809Y-103768966D02*
X147572619Y-103840395D01*
X147572619Y-103840395D02*
X147858333Y-104126109D01*
X147858333Y-104126109D02*
X147548809Y-104126109D01*
X150221428Y-115476109D02*
X150221428Y-114976109D01*
X150221428Y-115214204D02*
X149935714Y-115214204D01*
X149935714Y-115476109D02*
X149935714Y-114976109D01*
X149602380Y-114976109D02*
X149507142Y-114976109D01*
X149507142Y-114976109D02*
X149459523Y-114999919D01*
X149459523Y-114999919D02*
X149411904Y-115047538D01*
X149411904Y-115047538D02*
X149388094Y-115142776D01*
X149388094Y-115142776D02*
X149388094Y-115309442D01*
X149388094Y-115309442D02*
X149411904Y-115404680D01*
X149411904Y-115404680D02*
X149459523Y-115452300D01*
X149459523Y-115452300D02*
X149507142Y-115476109D01*
X149507142Y-115476109D02*
X149602380Y-115476109D01*
X149602380Y-115476109D02*
X149649999Y-115452300D01*
X149649999Y-115452300D02*
X149697618Y-115404680D01*
X149697618Y-115404680D02*
X149721427Y-115309442D01*
X149721427Y-115309442D02*
X149721427Y-115142776D01*
X149721427Y-115142776D02*
X149697618Y-115047538D01*
X149697618Y-115047538D02*
X149649999Y-114999919D01*
X149649999Y-114999919D02*
X149602380Y-114976109D01*
X148935713Y-115476109D02*
X149173808Y-115476109D01*
X149173808Y-115476109D02*
X149173808Y-114976109D01*
X148769046Y-115214204D02*
X148602379Y-115214204D01*
X148530951Y-115476109D02*
X148769046Y-115476109D01*
X148769046Y-115476109D02*
X148769046Y-114976109D01*
X148769046Y-114976109D02*
X148530951Y-114976109D01*
X148364284Y-114976109D02*
X148054760Y-114976109D01*
X148054760Y-114976109D02*
X148221427Y-115166585D01*
X148221427Y-115166585D02*
X148149998Y-115166585D01*
X148149998Y-115166585D02*
X148102379Y-115190395D01*
X148102379Y-115190395D02*
X148078570Y-115214204D01*
X148078570Y-115214204D02*
X148054760Y-115261823D01*
X148054760Y-115261823D02*
X148054760Y-115380871D01*
X148054760Y-115380871D02*
X148078570Y-115428490D01*
X148078570Y-115428490D02*
X148102379Y-115452300D01*
X148102379Y-115452300D02*
X148149998Y-115476109D01*
X148149998Y-115476109D02*
X148292855Y-115476109D01*
X148292855Y-115476109D02*
X148340474Y-115452300D01*
X148340474Y-115452300D02*
X148364284Y-115428490D01*
X129535713Y-142614204D02*
X129702380Y-142614204D01*
X129702380Y-142876109D02*
X129702380Y-142376109D01*
X129702380Y-142376109D02*
X129464285Y-142376109D01*
X129273809Y-142876109D02*
X129273809Y-142376109D01*
X129035714Y-142876109D02*
X129035714Y-142376109D01*
X129035714Y-142376109D02*
X128916666Y-142376109D01*
X128916666Y-142376109D02*
X128845238Y-142399919D01*
X128845238Y-142399919D02*
X128797619Y-142447538D01*
X128797619Y-142447538D02*
X128773809Y-142495157D01*
X128773809Y-142495157D02*
X128750000Y-142590395D01*
X128750000Y-142590395D02*
X128750000Y-142661823D01*
X128750000Y-142661823D02*
X128773809Y-142757061D01*
X128773809Y-142757061D02*
X128797619Y-142804680D01*
X128797619Y-142804680D02*
X128845238Y-142852300D01*
X128845238Y-142852300D02*
X128916666Y-142876109D01*
X128916666Y-142876109D02*
X129035714Y-142876109D01*
X128321428Y-142542776D02*
X128321428Y-142876109D01*
X128440476Y-142352300D02*
X128559523Y-142709442D01*
X128559523Y-142709442D02*
X128250000Y-142709442D01*
X120297700Y-136044046D02*
X120273890Y-135972618D01*
X120273890Y-135972618D02*
X120273890Y-135853570D01*
X120273890Y-135853570D02*
X120297700Y-135805951D01*
X120297700Y-135805951D02*
X120321509Y-135782142D01*
X120321509Y-135782142D02*
X120369128Y-135758332D01*
X120369128Y-135758332D02*
X120416747Y-135758332D01*
X120416747Y-135758332D02*
X120464366Y-135782142D01*
X120464366Y-135782142D02*
X120488176Y-135805951D01*
X120488176Y-135805951D02*
X120511985Y-135853570D01*
X120511985Y-135853570D02*
X120535795Y-135948808D01*
X120535795Y-135948808D02*
X120559604Y-135996427D01*
X120559604Y-135996427D02*
X120583414Y-136020237D01*
X120583414Y-136020237D02*
X120631033Y-136044046D01*
X120631033Y-136044046D02*
X120678652Y-136044046D01*
X120678652Y-136044046D02*
X120726271Y-136020237D01*
X120726271Y-136020237D02*
X120750080Y-135996427D01*
X120750080Y-135996427D02*
X120773890Y-135948808D01*
X120773890Y-135948808D02*
X120773890Y-135829761D01*
X120773890Y-135829761D02*
X120750080Y-135758332D01*
X120273890Y-135282142D02*
X120273890Y-135567856D01*
X120273890Y-135424999D02*
X120773890Y-135424999D01*
X120773890Y-135424999D02*
X120702461Y-135472618D01*
X120702461Y-135472618D02*
X120654842Y-135520237D01*
X120654842Y-135520237D02*
X120631033Y-135567856D01*
X120773890Y-134972619D02*
X120773890Y-134925000D01*
X120773890Y-134925000D02*
X120750080Y-134877381D01*
X120750080Y-134877381D02*
X120726271Y-134853571D01*
X120726271Y-134853571D02*
X120678652Y-134829762D01*
X120678652Y-134829762D02*
X120583414Y-134805952D01*
X120583414Y-134805952D02*
X120464366Y-134805952D01*
X120464366Y-134805952D02*
X120369128Y-134829762D01*
X120369128Y-134829762D02*
X120321509Y-134853571D01*
X120321509Y-134853571D02*
X120297700Y-134877381D01*
X120297700Y-134877381D02*
X120273890Y-134925000D01*
X120273890Y-134925000D02*
X120273890Y-134972619D01*
X120273890Y-134972619D02*
X120297700Y-135020238D01*
X120297700Y-135020238D02*
X120321509Y-135044047D01*
X120321509Y-135044047D02*
X120369128Y-135067857D01*
X120369128Y-135067857D02*
X120464366Y-135091666D01*
X120464366Y-135091666D02*
X120583414Y-135091666D01*
X120583414Y-135091666D02*
X120678652Y-135067857D01*
X120678652Y-135067857D02*
X120726271Y-135044047D01*
X120726271Y-135044047D02*
X120750080Y-135020238D01*
X120750080Y-135020238D02*
X120773890Y-134972619D01*
X132571428Y-145276109D02*
X132571428Y-144776109D01*
X132571428Y-145014204D02*
X132285714Y-145014204D01*
X132285714Y-145276109D02*
X132285714Y-144776109D01*
X131952380Y-144776109D02*
X131857142Y-144776109D01*
X131857142Y-144776109D02*
X131809523Y-144799919D01*
X131809523Y-144799919D02*
X131761904Y-144847538D01*
X131761904Y-144847538D02*
X131738094Y-144942776D01*
X131738094Y-144942776D02*
X131738094Y-145109442D01*
X131738094Y-145109442D02*
X131761904Y-145204680D01*
X131761904Y-145204680D02*
X131809523Y-145252300D01*
X131809523Y-145252300D02*
X131857142Y-145276109D01*
X131857142Y-145276109D02*
X131952380Y-145276109D01*
X131952380Y-145276109D02*
X131999999Y-145252300D01*
X131999999Y-145252300D02*
X132047618Y-145204680D01*
X132047618Y-145204680D02*
X132071427Y-145109442D01*
X132071427Y-145109442D02*
X132071427Y-144942776D01*
X132071427Y-144942776D02*
X132047618Y-144847538D01*
X132047618Y-144847538D02*
X131999999Y-144799919D01*
X131999999Y-144799919D02*
X131952380Y-144776109D01*
X131285713Y-145276109D02*
X131523808Y-145276109D01*
X131523808Y-145276109D02*
X131523808Y-144776109D01*
X131119046Y-145014204D02*
X130952379Y-145014204D01*
X130880951Y-145276109D02*
X131119046Y-145276109D01*
X131119046Y-145276109D02*
X131119046Y-144776109D01*
X131119046Y-144776109D02*
X130880951Y-144776109D01*
X130690474Y-144823728D02*
X130666665Y-144799919D01*
X130666665Y-144799919D02*
X130619046Y-144776109D01*
X130619046Y-144776109D02*
X130499998Y-144776109D01*
X130499998Y-144776109D02*
X130452379Y-144799919D01*
X130452379Y-144799919D02*
X130428570Y-144823728D01*
X130428570Y-144823728D02*
X130404760Y-144871347D01*
X130404760Y-144871347D02*
X130404760Y-144918966D01*
X130404760Y-144918966D02*
X130428570Y-144990395D01*
X130428570Y-144990395D02*
X130714284Y-145276109D01*
X130714284Y-145276109D02*
X130404760Y-145276109D01*
X154891666Y-129701109D02*
X154891666Y-130058252D01*
X154891666Y-130058252D02*
X154915475Y-130129680D01*
X154915475Y-130129680D02*
X154963094Y-130177300D01*
X154963094Y-130177300D02*
X155034523Y-130201109D01*
X155034523Y-130201109D02*
X155082142Y-130201109D01*
X154439285Y-129867776D02*
X154439285Y-130201109D01*
X154558333Y-129677300D02*
X154677380Y-130034442D01*
X154677380Y-130034442D02*
X154367857Y-130034442D01*
X138571428Y-134276109D02*
X138571428Y-133776109D01*
X138571428Y-134014204D02*
X138285714Y-134014204D01*
X138285714Y-134276109D02*
X138285714Y-133776109D01*
X137952380Y-133776109D02*
X137857142Y-133776109D01*
X137857142Y-133776109D02*
X137809523Y-133799919D01*
X137809523Y-133799919D02*
X137761904Y-133847538D01*
X137761904Y-133847538D02*
X137738094Y-133942776D01*
X137738094Y-133942776D02*
X137738094Y-134109442D01*
X137738094Y-134109442D02*
X137761904Y-134204680D01*
X137761904Y-134204680D02*
X137809523Y-134252300D01*
X137809523Y-134252300D02*
X137857142Y-134276109D01*
X137857142Y-134276109D02*
X137952380Y-134276109D01*
X137952380Y-134276109D02*
X137999999Y-134252300D01*
X137999999Y-134252300D02*
X138047618Y-134204680D01*
X138047618Y-134204680D02*
X138071427Y-134109442D01*
X138071427Y-134109442D02*
X138071427Y-133942776D01*
X138071427Y-133942776D02*
X138047618Y-133847538D01*
X138047618Y-133847538D02*
X137999999Y-133799919D01*
X137999999Y-133799919D02*
X137952380Y-133776109D01*
X137285713Y-134276109D02*
X137523808Y-134276109D01*
X137523808Y-134276109D02*
X137523808Y-133776109D01*
X137119046Y-134014204D02*
X136952379Y-134014204D01*
X136880951Y-134276109D02*
X137119046Y-134276109D01*
X137119046Y-134276109D02*
X137119046Y-133776109D01*
X137119046Y-133776109D02*
X136880951Y-133776109D01*
X136452379Y-133776109D02*
X136547617Y-133776109D01*
X136547617Y-133776109D02*
X136595236Y-133799919D01*
X136595236Y-133799919D02*
X136619046Y-133823728D01*
X136619046Y-133823728D02*
X136666665Y-133895157D01*
X136666665Y-133895157D02*
X136690474Y-133990395D01*
X136690474Y-133990395D02*
X136690474Y-134180871D01*
X136690474Y-134180871D02*
X136666665Y-134228490D01*
X136666665Y-134228490D02*
X136642855Y-134252300D01*
X136642855Y-134252300D02*
X136595236Y-134276109D01*
X136595236Y-134276109D02*
X136499998Y-134276109D01*
X136499998Y-134276109D02*
X136452379Y-134252300D01*
X136452379Y-134252300D02*
X136428570Y-134228490D01*
X136428570Y-134228490D02*
X136404760Y-134180871D01*
X136404760Y-134180871D02*
X136404760Y-134061823D01*
X136404760Y-134061823D02*
X136428570Y-134014204D01*
X136428570Y-134014204D02*
X136452379Y-133990395D01*
X136452379Y-133990395D02*
X136499998Y-133966585D01*
X136499998Y-133966585D02*
X136595236Y-133966585D01*
X136595236Y-133966585D02*
X136642855Y-133990395D01*
X136642855Y-133990395D02*
X136666665Y-134014204D01*
X136666665Y-134014204D02*
X136690474Y-134061823D01*
X149071428Y-142151109D02*
X149071428Y-141651109D01*
X149071428Y-141889204D02*
X148785714Y-141889204D01*
X148785714Y-142151109D02*
X148785714Y-141651109D01*
X148452380Y-141651109D02*
X148357142Y-141651109D01*
X148357142Y-141651109D02*
X148309523Y-141674919D01*
X148309523Y-141674919D02*
X148261904Y-141722538D01*
X148261904Y-141722538D02*
X148238094Y-141817776D01*
X148238094Y-141817776D02*
X148238094Y-141984442D01*
X148238094Y-141984442D02*
X148261904Y-142079680D01*
X148261904Y-142079680D02*
X148309523Y-142127300D01*
X148309523Y-142127300D02*
X148357142Y-142151109D01*
X148357142Y-142151109D02*
X148452380Y-142151109D01*
X148452380Y-142151109D02*
X148499999Y-142127300D01*
X148499999Y-142127300D02*
X148547618Y-142079680D01*
X148547618Y-142079680D02*
X148571427Y-141984442D01*
X148571427Y-141984442D02*
X148571427Y-141817776D01*
X148571427Y-141817776D02*
X148547618Y-141722538D01*
X148547618Y-141722538D02*
X148499999Y-141674919D01*
X148499999Y-141674919D02*
X148452380Y-141651109D01*
X147785713Y-142151109D02*
X148023808Y-142151109D01*
X148023808Y-142151109D02*
X148023808Y-141651109D01*
X147619046Y-141889204D02*
X147452379Y-141889204D01*
X147380951Y-142151109D02*
X147619046Y-142151109D01*
X147619046Y-142151109D02*
X147619046Y-141651109D01*
X147619046Y-141651109D02*
X147380951Y-141651109D01*
X146928570Y-141651109D02*
X147166665Y-141651109D01*
X147166665Y-141651109D02*
X147190474Y-141889204D01*
X147190474Y-141889204D02*
X147166665Y-141865395D01*
X147166665Y-141865395D02*
X147119046Y-141841585D01*
X147119046Y-141841585D02*
X146999998Y-141841585D01*
X146999998Y-141841585D02*
X146952379Y-141865395D01*
X146952379Y-141865395D02*
X146928570Y-141889204D01*
X146928570Y-141889204D02*
X146904760Y-141936823D01*
X146904760Y-141936823D02*
X146904760Y-142055871D01*
X146904760Y-142055871D02*
X146928570Y-142103490D01*
X146928570Y-142103490D02*
X146952379Y-142127300D01*
X146952379Y-142127300D02*
X146999998Y-142151109D01*
X146999998Y-142151109D02*
X147119046Y-142151109D01*
X147119046Y-142151109D02*
X147166665Y-142127300D01*
X147166665Y-142127300D02*
X147190474Y-142103490D01*
X153158333Y-128828489D02*
X153182142Y-128852299D01*
X153182142Y-128852299D02*
X153253571Y-128876108D01*
X153253571Y-128876108D02*
X153301190Y-128876108D01*
X153301190Y-128876108D02*
X153372618Y-128852299D01*
X153372618Y-128852299D02*
X153420237Y-128804679D01*
X153420237Y-128804679D02*
X153444047Y-128757060D01*
X153444047Y-128757060D02*
X153467856Y-128661822D01*
X153467856Y-128661822D02*
X153467856Y-128590394D01*
X153467856Y-128590394D02*
X153444047Y-128495156D01*
X153444047Y-128495156D02*
X153420237Y-128447537D01*
X153420237Y-128447537D02*
X153372618Y-128399918D01*
X153372618Y-128399918D02*
X153301190Y-128376108D01*
X153301190Y-128376108D02*
X153253571Y-128376108D01*
X153253571Y-128376108D02*
X153182142Y-128399918D01*
X153182142Y-128399918D02*
X153158333Y-128423727D01*
X152991666Y-128376108D02*
X152682142Y-128376108D01*
X152682142Y-128376108D02*
X152848809Y-128566584D01*
X152848809Y-128566584D02*
X152777380Y-128566584D01*
X152777380Y-128566584D02*
X152729761Y-128590394D01*
X152729761Y-128590394D02*
X152705952Y-128614203D01*
X152705952Y-128614203D02*
X152682142Y-128661822D01*
X152682142Y-128661822D02*
X152682142Y-128780870D01*
X152682142Y-128780870D02*
X152705952Y-128828489D01*
X152705952Y-128828489D02*
X152729761Y-128852299D01*
X152729761Y-128852299D02*
X152777380Y-128876108D01*
X152777380Y-128876108D02*
X152920237Y-128876108D01*
X152920237Y-128876108D02*
X152967856Y-128852299D01*
X152967856Y-128852299D02*
X152991666Y-128828489D01*
X158866666Y-132226109D02*
X158866666Y-132583252D01*
X158866666Y-132583252D02*
X158890475Y-132654680D01*
X158890475Y-132654680D02*
X158938094Y-132702300D01*
X158938094Y-132702300D02*
X159009523Y-132726109D01*
X159009523Y-132726109D02*
X159057142Y-132726109D01*
X158652380Y-132273728D02*
X158628571Y-132249919D01*
X158628571Y-132249919D02*
X158580952Y-132226109D01*
X158580952Y-132226109D02*
X158461904Y-132226109D01*
X158461904Y-132226109D02*
X158414285Y-132249919D01*
X158414285Y-132249919D02*
X158390476Y-132273728D01*
X158390476Y-132273728D02*
X158366666Y-132321347D01*
X158366666Y-132321347D02*
X158366666Y-132368966D01*
X158366666Y-132368966D02*
X158390476Y-132440395D01*
X158390476Y-132440395D02*
X158676190Y-132726109D01*
X158676190Y-132726109D02*
X158366666Y-132726109D01*
X128773890Y-96571428D02*
X129273890Y-96571428D01*
X129035795Y-96571428D02*
X129035795Y-96285714D01*
X128773890Y-96285714D02*
X129273890Y-96285714D01*
X129273890Y-95952380D02*
X129273890Y-95857142D01*
X129273890Y-95857142D02*
X129250080Y-95809523D01*
X129250080Y-95809523D02*
X129202461Y-95761904D01*
X129202461Y-95761904D02*
X129107223Y-95738094D01*
X129107223Y-95738094D02*
X128940557Y-95738094D01*
X128940557Y-95738094D02*
X128845319Y-95761904D01*
X128845319Y-95761904D02*
X128797700Y-95809523D01*
X128797700Y-95809523D02*
X128773890Y-95857142D01*
X128773890Y-95857142D02*
X128773890Y-95952380D01*
X128773890Y-95952380D02*
X128797700Y-95999999D01*
X128797700Y-95999999D02*
X128845319Y-96047618D01*
X128845319Y-96047618D02*
X128940557Y-96071427D01*
X128940557Y-96071427D02*
X129107223Y-96071427D01*
X129107223Y-96071427D02*
X129202461Y-96047618D01*
X129202461Y-96047618D02*
X129250080Y-95999999D01*
X129250080Y-95999999D02*
X129273890Y-95952380D01*
X128773890Y-95285713D02*
X128773890Y-95523808D01*
X128773890Y-95523808D02*
X129273890Y-95523808D01*
X129035795Y-95119046D02*
X129035795Y-94952379D01*
X128773890Y-94880951D02*
X128773890Y-95119046D01*
X128773890Y-95119046D02*
X129273890Y-95119046D01*
X129273890Y-95119046D02*
X129273890Y-94880951D01*
X128773890Y-94404760D02*
X128773890Y-94690474D01*
X128773890Y-94547617D02*
X129273890Y-94547617D01*
X129273890Y-94547617D02*
X129202461Y-94595236D01*
X129202461Y-94595236D02*
X129154842Y-94642855D01*
X129154842Y-94642855D02*
X129131033Y-94690474D01*
X157233333Y-111373890D02*
X157233333Y-111016747D01*
X157233333Y-111016747D02*
X157209524Y-110945319D01*
X157209524Y-110945319D02*
X157161905Y-110897700D01*
X157161905Y-110897700D02*
X157090476Y-110873890D01*
X157090476Y-110873890D02*
X157042857Y-110873890D01*
X157733333Y-110873890D02*
X157447619Y-110873890D01*
X157590476Y-110873890D02*
X157590476Y-111373890D01*
X157590476Y-111373890D02*
X157542857Y-111302461D01*
X157542857Y-111302461D02*
X157495238Y-111254842D01*
X157495238Y-111254842D02*
X157447619Y-111231033D01*
%TO.C,D1*%
X148250000Y-126875000D02*
X148250000Y-129825000D01*
X148599999Y-126875000D02*
X148250000Y-126875000D01*
X148599999Y-129825000D02*
X148250000Y-129825000D01*
X148700000Y-127850000D02*
X149200000Y-127850001D01*
X148700000Y-128850000D02*
X149200000Y-127900000D01*
X149200000Y-127350000D02*
X149200000Y-127850001D01*
X149200000Y-127900000D02*
X149700000Y-128850000D01*
X149200000Y-128849999D02*
X149200000Y-129350000D01*
X149700000Y-127850000D02*
X149200000Y-127850001D01*
X149700000Y-128850000D02*
X148700000Y-128850000D01*
X149800000Y-126900000D02*
X150150000Y-126900000D01*
X149800000Y-129850000D02*
X150150000Y-129850000D01*
X150150000Y-129850000D02*
X150150000Y-126900000D01*
X149700000Y-128850000D02*
X148700000Y-128850000D01*
X149200000Y-127900000D01*
X149700000Y-128850000D01*
G36*
X149700000Y-128850000D02*
G01*
X148700000Y-128850000D01*
X149200000Y-127900000D01*
X149700000Y-128850000D01*
G37*
%TO.C,HOLE4*%
X138125000Y-120600000D02*
G75*
G02*
X134125000Y-120600000I-2000000J0D01*
G01*
X134125000Y-120600000D02*
G75*
G02*
X138125000Y-120600000I2000000J0D01*
G01*
%TO.C,C1*%
X150350000Y-125925000D02*
X150350000Y-128875000D01*
X150350000Y-128875000D02*
X152200000Y-128875000D01*
X152200000Y-125925000D02*
X150350000Y-125925000D01*
X152200000Y-128875000D02*
X152200000Y-125925000D01*
%TO.C,S7*%
X120948763Y-104300000D02*
X120948763Y-110899671D01*
X121450000Y-104300000D02*
X120950000Y-104300000D01*
X121450000Y-110900000D02*
X120950000Y-110900000D01*
X122200000Y-106350000D02*
X122200000Y-108850000D01*
X122200000Y-107600000D02*
X123700000Y-107600000D01*
X123700000Y-107600000D02*
X124425000Y-108325000D01*
X124700000Y-107600000D02*
X126200000Y-107600000D01*
X126200000Y-106350000D02*
X126200000Y-108850000D01*
X126950000Y-104300000D02*
X127450000Y-104300000D01*
X126950000Y-110900000D02*
X127450000Y-110900000D01*
X127450000Y-110900000D02*
X127450000Y-104306186D01*
X124691421Y-107600000D02*
G75*
G02*
X124408579Y-107600000I-141421J0D01*
G01*
X124408579Y-107600000D02*
G75*
G02*
X124691421Y-107600000I141421J0D01*
G01*
%TO.C,HOLE3*%
X151175000Y-112750000D02*
G75*
G02*
X147175000Y-112750000I-2000000J0D01*
G01*
X147175000Y-112750000D02*
G75*
G02*
X151175000Y-112750000I2000000J0D01*
G01*
%TO.C,S10*%
X120948763Y-132100000D02*
X120948763Y-138699671D01*
X121450000Y-132100000D02*
X120950000Y-132100000D01*
X121450000Y-138700000D02*
X120950000Y-138700000D01*
X122200000Y-134150000D02*
X122200000Y-136650000D01*
X122200000Y-135400000D02*
X123700000Y-135400000D01*
X123700000Y-135400000D02*
X124425000Y-136125000D01*
X124700000Y-135400000D02*
X126200000Y-135400000D01*
X126200000Y-134150000D02*
X126200000Y-136650000D01*
X126950000Y-132100000D02*
X127450000Y-132100000D01*
X126950000Y-138700000D02*
X127450000Y-138700000D01*
X127450000Y-138700000D02*
X127450000Y-132106186D01*
X124691421Y-135400000D02*
G75*
G02*
X124408579Y-135400000I-141421J0D01*
G01*
X124408579Y-135400000D02*
G75*
G02*
X124691421Y-135400000I141421J0D01*
G01*
%TO.C,HOLE2*%
X133500000Y-147500000D02*
G75*
G02*
X129500000Y-147500000I-2000000J0D01*
G01*
X129500000Y-147500000D02*
G75*
G02*
X133500000Y-147500000I2000000J0D01*
G01*
%TO.C,J4*%
X154012500Y-127100000D02*
X154012500Y-115900000D01*
X154512500Y-115900000D02*
X154012500Y-115900000D01*
X154512500Y-115900000D02*
X154512500Y-113500000D01*
X154512500Y-127100000D02*
X154012500Y-127100000D01*
X154512500Y-127100000D02*
X154512500Y-129500000D01*
X156612500Y-113500000D02*
X154512500Y-113500000D01*
X156612500Y-129500000D02*
X154512500Y-129500000D01*
X158712500Y-113500000D02*
X158412500Y-113500000D01*
X158712500Y-114300000D02*
X158712500Y-113500000D01*
X158712500Y-114300000D02*
X158712500Y-122700000D01*
X158712500Y-122700000D02*
X158712500Y-129500000D01*
X158712500Y-129500000D02*
X158412500Y-129500000D01*
X160012500Y-114300000D02*
X158712500Y-114300000D01*
X160012500Y-128700000D02*
X158712500Y-128700000D01*
X160012500Y-128700000D02*
X160012500Y-114300000D01*
X154312500Y-115600000D02*
G75*
G02*
X154112500Y-115600000I-100000J0D01*
G01*
X154112500Y-115600000D02*
G75*
G02*
X154312500Y-115600000I100000J0D01*
G01*
%TO.C,HOLE6*%
X139500000Y-136500000D02*
G75*
G02*
X135500000Y-136500000I-2000000J0D01*
G01*
X135500000Y-136500000D02*
G75*
G02*
X139500000Y-136500000I2000000J0D01*
G01*
%TO.C,HOLE5*%
X150000000Y-144375000D02*
G75*
G02*
X146000000Y-144375000I-2000000J0D01*
G01*
X146000000Y-144375000D02*
G75*
G02*
X150000000Y-144375000I2000000J0D01*
G01*
%TO.C,C3*%
X152550000Y-126275000D02*
X152550000Y-128225000D01*
X152550000Y-128225000D02*
X153600000Y-128225000D01*
X153600000Y-126275000D02*
X152550000Y-126275000D01*
X153600000Y-128225000D02*
X153600000Y-126275000D01*
%TO.C,J2*%
X153250000Y-132375000D02*
X153250000Y-132950000D01*
X153250000Y-136425000D02*
X153250000Y-136800000D01*
X153250000Y-136800000D02*
X157747891Y-136800000D01*
X154262500Y-132375000D02*
X153250000Y-132375000D01*
X156735391Y-132376796D02*
X157747891Y-132376796D01*
X157747891Y-132376796D02*
X157747891Y-132951796D01*
X157747891Y-136800000D02*
X157747891Y-136425000D01*
X157156066Y-131700000D02*
G75*
G02*
X156943934Y-131700000I-106066J0D01*
G01*
X156943934Y-131700000D02*
G75*
G02*
X157156066Y-131700000I106066J0D01*
G01*
%TO.C,HOLE1*%
X133500000Y-95500000D02*
G75*
G02*
X129500000Y-95500000I-2000000J0D01*
G01*
X129500000Y-95500000D02*
G75*
G02*
X133500000Y-95500000I2000000J0D01*
G01*
%TO.C,J1*%
X153252109Y-106199999D02*
X153252109Y-106574999D01*
X153252109Y-110623203D02*
X153252109Y-110048203D01*
X154264609Y-110623203D02*
X153252109Y-110623203D01*
X156737500Y-110624999D02*
X157750000Y-110624999D01*
X157750000Y-106199999D02*
X153252109Y-106199999D01*
X157750000Y-106574999D02*
X157750000Y-106199999D01*
X157750000Y-110624999D02*
X157750000Y-110049999D01*
X154056066Y-111299999D02*
G75*
G02*
X153843934Y-111299999I-106066J0D01*
G01*
X153843934Y-111299999D02*
G75*
G02*
X154056066Y-111299999I106066J0D01*
G01*
%TD*%
M02*
