%TF.GenerationSoftware,KiCad,Pcbnew,10.0.0*%
%TF.CreationDate,2026-08-04T21:37:10-04:00*%
%TF.ProjectId,ConJoy_KiCad,436f6e4a-6f79-45f4-9b69-4361642e6b69,1.00-0A*%
%TF.SameCoordinates,Original*%
%TF.FileFunction,Soldermask,Top*%
%TF.FilePolarity,Negative*%
%FSLAX46Y46*%
G04 Gerber Fmt 4.6, Leading zero omitted, Abs format (unit mm)*
G04 Created by KiCad (PCBNEW 10.0.0) date 2026-08-04 21:37:10*
%MOMM*%
%LPD*%
G01*
G04 APERTURE LIST*
G04 Aperture macros list*
%AMRoundRect*
0 Rectangle with rounded corners*
0 $1 Rounding radius*
0 $2 $3 $4 $5 $6 $7 $8 $9 X,Y pos of 4 corners*
0 Add a 4 corners polygon primitive as box body*
4,1,4,$2,$3,$4,$5,$6,$7,$8,$9,$2,$3,0*
0 Add four circle primitives for the rounded corners*
1,1,$1+$1,$2,$3*
1,1,$1+$1,$4,$5*
1,1,$1+$1,$6,$7*
1,1,$1+$1,$8,$9*
0 Add four rect primitives between the rounded corners*
20,1,$1+$1,$2,$3,$4,$5,0*
20,1,$1+$1,$4,$5,$6,$7,0*
20,1,$1+$1,$6,$7,$8,$9,0*
20,1,$1+$1,$8,$9,$2,$3,0*%
G04 Aperture macros list end*
%ADD10C,0.000000*%
%ADD11RoundRect,0.105000X-0.245000X-0.295000X0.245000X-0.295000X0.245000X0.295000X-0.245000X0.295000X0*%
%ADD12RoundRect,0.180000X-1.520000X-0.420000X1.520000X-0.420000X1.520000X0.420000X-1.520000X0.420000X0*%
%ADD13RoundRect,0.142500X-0.332500X-0.657500X0.332500X-0.657500X0.332500X0.657500X-0.332500X0.657500X0*%
%ADD14RoundRect,0.180000X-0.420000X1.520000X-0.420000X-1.520000X0.420000X-1.520000X0.420000X1.520000X0*%
%ADD15C,2.000000*%
%ADD16C,0.750000*%
%ADD17RoundRect,0.180000X-0.664680X0.070711X0.070711X-0.664680X0.664680X-0.070711X-0.070711X0.664680X0*%
%ADD18RoundRect,0.060000X0.140000X0.690000X-0.140000X0.690000X-0.140000X-0.690000X0.140000X-0.690000X0*%
%ADD19RoundRect,0.180000X0.070711X0.664680X-0.664680X-0.070711X-0.070711X-0.664680X0.664680X0.070711X0*%
%ADD20RoundRect,0.180000X-0.520000X-0.420000X0.520000X-0.420000X0.520000X0.420000X-0.520000X0.420000X0*%
%ADD21RoundRect,0.180000X0.520000X0.420000X-0.520000X0.420000X-0.520000X-0.420000X0.520000X-0.420000X0*%
%ADD22C,2.600000*%
G04 APERTURE END LIST*
D10*
%TO.C,J3*%
G36*
X123992617Y-128527817D02*
G01*
X123839207Y-128527835D01*
X121942471Y-128528356D01*
X121942334Y-128033605D01*
X121242329Y-128033605D01*
X121242329Y-126833605D01*
X122642329Y-126833605D01*
X122642329Y-126133605D01*
X123992329Y-126133605D01*
X123992617Y-128527817D01*
G37*
G36*
X128142329Y-126833605D02*
G01*
X129542329Y-126833605D01*
X129542329Y-128033605D01*
X128842329Y-128033605D01*
X128842329Y-128533605D01*
X126945746Y-128533605D01*
X126791665Y-128533562D01*
X126792338Y-126133605D01*
X128142329Y-126133605D01*
X128142329Y-126833605D01*
G37*
%TD*%
D11*
%TO.C,C4*%
X122500000Y-132400000D03*
X123500000Y-132400000D03*
%TD*%
D12*
%TO.C,S5*%
X144200000Y-119500000D03*
X150800000Y-119500000D03*
X144200000Y-123500000D03*
X150800000Y-123500000D03*
%TD*%
D13*
%TO.C,C2*%
X121725000Y-130705000D03*
X123475000Y-130705000D03*
%TD*%
D14*
%TO.C,S1*%
X139500000Y-125200000D03*
X139500000Y-131800000D03*
X135500000Y-125200000D03*
X135500000Y-131800000D03*
%TD*%
%TO.C,S4*%
X147500000Y-133200000D03*
X147500000Y-139800000D03*
X143500000Y-133200000D03*
X143500000Y-139800000D03*
%TD*%
%TO.C,S2*%
X139500000Y-141200000D03*
X139500000Y-147800000D03*
X135500000Y-141200000D03*
X135500000Y-147800000D03*
%TD*%
D15*
%TO.C,FID3*%
X129000000Y-144100000D03*
%TD*%
%TO.C,FID1*%
X148275000Y-105350000D03*
%TD*%
%TO.C,FID5*%
X142650000Y-143425000D03*
%TD*%
D14*
%TO.C,S3*%
X131500000Y-133200000D03*
X131500000Y-139800000D03*
X127500000Y-133200000D03*
X127500000Y-139800000D03*
%TD*%
D16*
%TO.C,S9*%
X126272272Y-144727728D03*
X124327728Y-146672272D03*
D17*
X123938819Y-143101383D03*
X127898617Y-147061181D03*
X122701383Y-144338819D03*
X126661181Y-148298617D03*
%TD*%
D18*
%TO.C,J3*%
X126392329Y-128483605D03*
X125892329Y-128483605D03*
X125392329Y-128483605D03*
X124892329Y-128483605D03*
X124392329Y-128483605D03*
%TD*%
D16*
%TO.C,S6*%
X126272272Y-98272272D03*
X124327728Y-96327728D03*
D19*
X127898617Y-95938819D03*
X123938819Y-99898617D03*
X126661181Y-94701383D03*
X122701383Y-98661181D03*
%TD*%
D16*
%TO.C,S11*%
X148300000Y-147325000D03*
X148300000Y-150075000D03*
D20*
X145500000Y-147825000D03*
X151100000Y-147825000D03*
X145500000Y-149575000D03*
X151100000Y-149575000D03*
%TD*%
D16*
%TO.C,S8*%
X148300000Y-95675000D03*
X148300000Y-92925000D03*
D21*
X151100000Y-95175000D03*
X145500000Y-95175000D03*
X151100000Y-93425000D03*
X145500000Y-93425000D03*
%TD*%
D22*
%TO.C,HOLE4*%
X136125000Y-120600000D03*
%TD*%
%TO.C,HOLE3*%
X149175000Y-112750000D03*
%TD*%
%TO.C,HOLE2*%
X131500000Y-147500000D03*
%TD*%
%TO.C,HOLE6*%
X137500000Y-136500000D03*
%TD*%
%TO.C,HOLE5*%
X148000000Y-144375000D03*
%TD*%
%TO.C,HOLE1*%
X131500000Y-95500000D03*
%TD*%
M02*
